<svg version="1.1" xmlns="http://www.w3.org/2000/svg" xmlns:xlink="http://www.w3.org/1999/xlink" width="866" height="578"><defs/><g><g><rect fill="#ffffff" stroke="none" x="216" y="54" width="424" height="52" transform="matrix(1 0 0 1 -206 -26)"/></g><g><path fill="#ffffff" stroke="none" paint-order="stroke fill markers" d=" M 434 28 A 26 26 0 0 1 434 80"/></g><g><path fill="none" stroke="#000000" paint-order="fill stroke markers" d=" M 10 28 L 10 80" stroke-miterlimit="10" stroke-dasharray=""/></g><g><path fill="none" stroke="#000000" paint-order="fill stroke markers" d=" M 10 28 L 434 28" stroke-miterlimit="10" stroke-dasharray=""/></g><g><path fill="none" stroke="#000000" paint-order="fill stroke markers" d=" M 10 80 L 434 80" stroke-miterlimit="10" stroke-dasharray=""/></g><g><path fill="none" stroke="#000000" paint-order="fill stroke markers" d=" M 434 28 A 26 26 0 0 1 434 80" stroke-miterlimit="10" stroke-dasharray=""/></g><g><g><path fill="none" stroke="none"/><text fill="#000000" stroke="none" font-family="Arial" font-size="16px" font-style="normal" font-weight="normal" text-decoration="undefined" x="394.75" y="72" text-anchor="middle" dominant-baseline="central" transform="matrix(1 0 0 1 -206 -26)">GET</text><text fill="#000000" stroke="none" font-family="Arial" font-size="16px" font-style="normal" font-weight="normal" text-decoration="undefined" x="394.75" y="88" text-anchor="middle" dominant-baseline="central" transform="matrix(1 0 0 1 -206 -26)">/communities/me/{communityId}/challenges</text></g></g><g><path fill="#ffffff" stroke="#000000" paint-order="fill stroke markers" d=" M 550 44 L 573 10 L 670.484375 10 Q 693.484375 10 693.484375 44 Q 693.484375 78 670.484375 78 L 573 78 L 550 44 Z" stroke-miterlimit="10" stroke-dasharray=""/></g><g><g><path fill="none" stroke="none"/><text fill="#000000" stroke="none" font-family="Arial" font-size="16px" font-style="normal" font-weight="normal" text-decoration="undefined" x="827.7421875" y="54" text-anchor="middle" dominant-baseline="central" transform="matrix(1 0 0 1 -206 -26)">Заголовки</text><text fill="#000000" stroke="none" font-family="Arial" font-size="16px" font-style="normal" font-weight="normal" text-decoration="undefined" x="827.7421875" y="70" text-anchor="middle" dominant-baseline="central" transform="matrix(1 0 0 1 -206 -26)">запроса</text><text fill="#000000" stroke="none" font-family="Arial" font-size="16px" font-style="normal" font-weight="normal" text-decoration="undefined" x="827.7421875" y="86" text-anchor="middle" dominant-baseline="central" transform="matrix(1 0 0 1 -206 -26)">(Авторизирован)</text></g></g><g><path fill="#ffffff" stroke="none" paint-order="stroke fill markers" d=" M 76 136 L 406 136 L 340 172 L 10 172 L 76 136"/></g><g><path fill="none" stroke="#000000" paint-order="fill stroke markers" d=" M 76 136 L 406 136 L 340 172 L 10 172 L 76 136 L 76 136" stroke-miterlimit="10" stroke-dasharray=""/></g><g><g><path fill="none" stroke="none"/><text fill="#000000" stroke="none" font-family="Arial" font-size="16px" font-style="normal" font-weight="normal" text-decoration="undefined" x="414" y="180" text-anchor="middle" dominant-baseline="central" transform="matrix(1 0 0 1 -206 -26)">GetMeCommunityChallengesRequest</text></g></g><g><path fill="#ffffff" stroke="none" paint-order="stroke fill markers" d=" M 91 532 L 406 532 L 343 568 L 28 568 L 91 532"/></g><g><path fill="none" stroke="#000000" paint-order="fill stroke markers" d=" M 91 532 L 406 532 L 343 568 L 28 568 L 91 532 L 91 532" stroke-miterlimit="10" stroke-dasharray=""/></g><g><g><path fill="none" stroke="none"/><text fill="#000000" stroke="none" font-family="Arial" font-size="16px" font-style="normal" font-weight="normal" text-decoration="undefined" x="423" y="576" text-anchor="middle" dominant-baseline="central" transform="matrix(1 0 0 1 -206 -26)">GetMeCommunityChallengesResponse</text></g></g><g><path fill="#ffffff" stroke="none" paint-order="stroke fill markers" d=" M 412 460 L 622 460 L 580 496 L 370 496 L 412 460"/></g><g><path fill="none" stroke="#000000" paint-order="fill stroke markers" d=" M 412 460 L 622 460 L 580 496 L 370 496 L 412 460 L 412 460" stroke-miterlimit="10" stroke-dasharray=""/></g><g><g><path fill="none" stroke="none"/><text fill="#000000" stroke="none" font-family="Arial" font-size="16px" font-style="normal" font-weight="normal" text-decoration="undefined" x="702" y="504" text-anchor="middle" dominant-baseline="central" transform="matrix(1 0 0 1 -206 -26)">ChallengeSummaryDTO</text></g></g><g><path fill="#ffffff" stroke="none" paint-order="stroke fill markers" d=" M 586 388 L 856 388 L 802 424 L 532 424 L 586 388"/></g><g><path fill="none" stroke="#000000" paint-order="fill stroke markers" d=" M 586 388 L 856 388 L 802 424 L 532 424 L 586 388 L 586 388" stroke-miterlimit="10" stroke-dasharray=""/></g><g><g><path fill="none" stroke="none"/><text fill="#000000" stroke="none" font-family="Arial" font-size="16px" font-style="normal" font-weight="normal" text-decoration="undefined" x="900" y="432" text-anchor="middle" dominant-baseline="central" transform="matrix(1 0 0 1 -206 -26)">ChallengeMemberStatusDTO</text></g></g><g><path fill="#ffffff" stroke="none" paint-order="stroke fill markers" d=" M 46 226 L 362.21875 226 Q 380.21875 226 380.21875 244 L 380.21875 244 Q 380.21875 262 362.21875 262 L 46 262 Q 28 262 28 244 L 28 244 Q 28 226 46 226 Z"/></g><g><path fill="none" stroke="#000000" paint-order="fill stroke markers" d=" M 46 226 L 362.21875 226 Q 380.21875 226 380.21875 244 L 380.21875 244 Q 380.21875 262 362.21875 262 L 46 262 Q 28 262 28 244 L 28 244 Q 28 226 46 226 Z" stroke-miterlimit="10" stroke-dasharray=""/></g><g><g><path fill="none" stroke="none"/><text fill="#000000" stroke="none" font-family="Arial" font-size="16px" font-style="normal" font-weight="normal" text-decoration="undefined" x="410.109375" y="270" text-anchor="middle" dominant-baseline="central" transform="matrix(1 0 0 1 -206 -26)">Роль пользователя в сообществе "Участник"</text></g></g><g><rect fill="#ffffff" stroke="none" x="252" y="342" width="342" height="68" transform="matrix(1 0 0 1 -206 -26)"/></g><g><path fill="none" stroke="#000000" paint-order="fill stroke markers" d=" M 46 316 L 388 316 L 388 384 L 46 384 L 46 316 Z Z" stroke-miterlimit="10" stroke-dasharray=""/></g><g><g><path fill="none" stroke="none"/><text fill="#000000" stroke="none" font-family="Arial" font-size="16px" font-style="normal" font-weight="normal" text-decoration="undefined" x="423" y="360" text-anchor="middle" dominant-baseline="central" transform="matrix(1 0 0 1 -206 -26)">Извлечь все челленджи в которых состоит</text><text fill="#000000" stroke="none" font-family="Arial" font-size="16px" font-style="normal" font-weight="normal" text-decoration="undefined" x="423" y="376" text-anchor="middle" dominant-baseline="central" transform="matrix(1 0 0 1 -206 -26)">пользователь в рамках указаного</text><text fill="#000000" stroke="none" font-family="Arial" font-size="16px" font-style="normal" font-weight="normal" text-decoration="undefined" x="423" y="392" text-anchor="middle" dominant-baseline="central" transform="matrix(1 0 0 1 -206 -26)">сообщества </text></g></g><g><path fill="none" stroke="#000000" paint-order="fill stroke markers" d=" M 228 80 L 228 136" stroke-miterlimit="10" stroke-dasharray=""/></g><g><path fill="#000000" stroke="none" paint-order="stroke fill markers" d=" M 223.790482243984 125.83732514237585 L 228 136 L 232.209517756016 125.83732514237585"/></g><g><path fill="none" stroke="#000000" paint-order="fill stroke markers" d=" M 223.790482243984 125.83732514237585 L 228 136 L 232.209517756016 125.83732514237585 L 223.790482243984 125.83732514237585" stroke-miterlimit="10" stroke-dasharray=""/></g><g><path fill="none" stroke="#000000" paint-order="fill stroke markers" d=" M 550 78 L 550 128 L 550 128 A 8 8 0 0 1 542 136 L 406 136" stroke-miterlimit="10" stroke-dasharray=""/></g><g><path fill="#000000" stroke="none" paint-order="stroke fill markers" d=" M 416.1626748576241 131.790482243984 L 406 136 L 416.1626748576241 140.209517756016"/></g><g><path fill="none" stroke="#000000" paint-order="fill stroke markers" d=" M 416.1626748576241 131.790482243984 L 406 136 L 416.1626748576241 140.209517756016 L 416.1626748576241 131.790482243984" stroke-miterlimit="10" stroke-dasharray=""/></g><g><path fill="none" stroke="#000000" paint-order="fill stroke markers" d=" M 207 172 L 207 226" stroke-miterlimit="10" stroke-dasharray=""/></g><g><path fill="#000000" stroke="none" paint-order="stroke fill markers" d=" M 202.790482243984 215.83732514237585 L 207 226 L 211.209517756016 215.83732514237585"/></g><g><path fill="none" stroke="#000000" paint-order="fill stroke markers" d=" M 202.790482243984 215.83732514237585 L 207 226 L 211.209517756016 215.83732514237585 L 202.790482243984 215.83732514237585" stroke-miterlimit="10" stroke-dasharray=""/></g><g><path fill="none" stroke="#000000" paint-order="fill stroke markers" d=" M 206 262 L 206 316" stroke-miterlimit="10" stroke-dasharray=""/></g><g><path fill="#000000" stroke="none" paint-order="stroke fill markers" d=" M 201.790482243984 305.83732514237585 L 206 316 L 210.209517756016 305.83732514237585"/></g><g><path fill="none" stroke="#000000" paint-order="fill stroke markers" d=" M 201.790482243984 305.83732514237585 L 206 316 L 210.209517756016 305.83732514237585 L 201.790482243984 305.83732514237585" stroke-miterlimit="10" stroke-dasharray=""/></g><g><path fill="none" stroke="#000000" paint-order="fill stroke markers" d=" M 217 384 L 217 532" stroke-miterlimit="10" stroke-dasharray=""/></g><g><path fill="#000000" stroke="none" paint-order="stroke fill markers" d=" M 212.790482243984 521.8373251423759 L 217 532 L 221.209517756016 521.8373251423759"/></g><g><path fill="none" stroke="#000000" paint-order="fill stroke markers" d=" M 212.790482243984 521.8373251423759 L 217 532 L 221.209517756016 521.8373251423759 L 212.790482243984 521.8373251423759" stroke-miterlimit="10" stroke-dasharray=""/></g><g><path fill="none" stroke="#000000" paint-order="fill stroke markers" d=" M 645 424 L 645 452 L 645 452 A 8 8 0 0 1 637 460 L 622 460" stroke-miterlimit="10" stroke-dasharray=""/></g><g><path fill="#000000" stroke="none" paint-order="stroke fill markers" d=" M 632.1626748576241 455.790482243984 L 622 460 L 632.1626748576241 464.209517756016"/></g><g><path fill="none" stroke="#000000" paint-order="fill stroke markers" d=" M 632.1626748576241 455.790482243984 L 622 460 L 632.1626748576241 464.209517756016 L 632.1626748576241 455.790482243984" stroke-miterlimit="10" stroke-dasharray=""/></g><g><path fill="none" stroke="#000000" paint-order="fill stroke markers" d=" M 440 496 L 440 542 L 440 542 A 8 8 0 0 1 432 550 L 406 550" stroke-miterlimit="10" stroke-dasharray=""/></g><g><path fill="#000000" stroke="none" paint-order="stroke fill markers" d=" M 416.1626748576241 545.790482243984 L 406 550 L 416.1626748576241 554.209517756016"/></g><g><path fill="none" stroke="#000000" paint-order="fill stroke markers" d=" M 416.1626748576241 545.790482243984 L 406 550 L 416.1626748576241 554.209517756016 L 416.1626748576241 545.790482243984" stroke-miterlimit="10" stroke-dasharray=""/></g></g></svg>