<svg version="1.1" xmlns="http://www.w3.org/2000/svg" xmlns:xlink="http://www.w3.org/1999/xlink" width="1028" height="435"><defs/><g><g><rect fill="#ffffff" stroke="none" x="378" y="36" width="432" height="36" transform="matrix(1 0 0 1 -98 -26)"/></g><g><path fill="#ffffff" stroke="none" paint-order="stroke fill markers" d=" M 712 10 A 18 18 0 0 1 712 46"/></g><g><path fill="none" stroke="#000000" paint-order="fill stroke markers" d=" M 280 10 L 280 46" stroke-miterlimit="10" stroke-dasharray=""/></g><g><path fill="none" stroke="#000000" paint-order="fill stroke markers" d=" M 280 10 L 712 10" stroke-miterlimit="10" stroke-dasharray=""/></g><g><path fill="none" stroke="#000000" paint-order="fill stroke markers" d=" M 280 46 L 712 46" stroke-miterlimit="10" stroke-dasharray=""/></g><g><path fill="none" stroke="#000000" paint-order="fill stroke markers" d=" M 712 10 A 18 18 0 0 1 712 46" stroke-miterlimit="10" stroke-dasharray=""/></g><g><g><path fill="none" stroke="none"/><text fill="#000000" stroke="none" font-family="Arial" font-size="16px" font-style="normal" font-weight="normal" text-decoration="undefined" x="556.75" y="54" text-anchor="middle" dominant-baseline="central" transform="matrix(1 0 0 1 -98 -26)">GET /catalog/templates</text></g></g><g><path fill="#ffffff" stroke="none" paint-order="stroke fill markers" d=" M 346 172 L 676 172 L 610 208 L 280 208 L 346 172"/></g><g><path fill="none" stroke="#000000" paint-order="fill stroke markers" d=" M 346 172 L 676 172 L 610 208 L 280 208 L 346 172 L 346 172" stroke-miterlimit="10" stroke-dasharray=""/></g><g><g><path fill="none" stroke="none"/><text fill="#000000" stroke="none" font-family="Arial" font-size="16px" font-style="normal" font-weight="normal" text-decoration="undefined" x="576" y="216" text-anchor="middle" dominant-baseline="central" transform="matrix(1 0 0 1 -98 -26)">GetChallengeTemplatesRequest</text></g></g><g><path fill="#ffffff" stroke="none" paint-order="stroke fill markers" d=" M 49 118 L 244 118 L 205 154 L 10 154 L 49 118"/></g><g><path fill="none" stroke="#000000" paint-order="fill stroke markers" d=" M 49 118 L 244 118 L 205 154 L 10 154 L 49 118 L 49 118" stroke-miterlimit="10" stroke-dasharray=""/></g><g><g><path fill="none" stroke="none"/><text fill="#000000" stroke="none" font-family="Arial" font-size="16px" font-style="normal" font-weight="normal" text-decoration="undefined" x="225" y="162" text-anchor="middle" dominant-baseline="central" transform="matrix(1 0 0 1 -98 -26)">CatalogFilterDTO</text></g></g><g><path fill="#ffffff" stroke="none" paint-order="stroke fill markers" d=" M 385 388 L 640 388 L 589 424 L 334 424 L 385 388"/></g><g><path fill="none" stroke="#000000" paint-order="fill stroke markers" d=" M 385 388 L 640 388 L 589 424 L 334 424 L 385 388 L 385 388" stroke-miterlimit="10" stroke-dasharray=""/></g><g><g><path fill="none" stroke="none"/><text fill="#000000" stroke="none" font-family="Arial" font-size="16px" font-style="normal" font-weight="normal" text-decoration="undefined" x="585" y="432" text-anchor="middle" dominant-baseline="central" transform="matrix(1 0 0 1 -98 -26)">GetChallengeTemplatesResponse</text></g></g><g><path fill="#ffffff" stroke="none" paint-order="stroke fill markers" d=" M 778 298 L 1018 298 L 970 334 L 730 334 L 778 298"/></g><g><path fill="none" stroke="#000000" paint-order="fill stroke markers" d=" M 778 298 L 1018 298 L 970 334 L 730 334 L 778 298 L 778 298" stroke-miterlimit="10" stroke-dasharray=""/></g><g><g><path fill="none" stroke="none"/><text fill="#000000" stroke="none" font-family="Arial" font-size="16px" font-style="normal" font-weight="normal" text-decoration="undefined" x="972" y="342" text-anchor="middle" dominant-baseline="central" transform="matrix(1 0 0 1 -98 -26)">ChallengeTemplateDTO</text></g></g><g><path fill="#ffffff" stroke="#000000" paint-order="fill stroke markers" d=" M 838 44 L 861 10 L 958.484375 10 Q 981.484375 10 981.484375 44 Q 981.484375 78 958.484375 78 L 861 78 L 838 44 Z" stroke-miterlimit="10" stroke-dasharray=""/></g><g><g><path fill="none" stroke="none"/><text fill="#000000" stroke="none" font-family="Arial" font-size="16px" font-style="normal" font-weight="normal" text-decoration="undefined" x="1007.7421875" y="54" text-anchor="middle" dominant-baseline="central" transform="matrix(1 0 0 1 -98 -26)">Заголовки</text><text fill="#000000" stroke="none" font-family="Arial" font-size="16px" font-style="normal" font-weight="normal" text-decoration="undefined" x="1007.7421875" y="70" text-anchor="middle" dominant-baseline="central" transform="matrix(1 0 0 1 -98 -26)">запроса</text><text fill="#000000" stroke="none" font-family="Arial" font-size="16px" font-style="normal" font-weight="normal" text-decoration="undefined" x="1007.7421875" y="86" text-anchor="middle" dominant-baseline="central" transform="matrix(1 0 0 1 -98 -26)">(Авторизирован)</text></g></g><g><rect fill="#ffffff" stroke="none" x="468" y="288" width="252" height="52" transform="matrix(1 0 0 1 -98 -26)"/></g><g><path fill="none" stroke="#000000" paint-order="fill stroke markers" d=" M 370 262 L 622 262 L 622 314 L 370 314 L 370 262 Z Z" stroke-miterlimit="10" stroke-dasharray=""/></g><g><g><path fill="none" stroke="none"/><text fill="#000000" stroke="none" font-family="Arial" font-size="16px" font-style="normal" font-weight="normal" text-decoration="undefined" x="594" y="306" text-anchor="middle" dominant-baseline="central" transform="matrix(1 0 0 1 -98 -26)">Поиск челленджей по</text><text fill="#000000" stroke="none" font-family="Arial" font-size="16px" font-style="normal" font-weight="normal" text-decoration="undefined" x="594" y="322" text-anchor="middle" dominant-baseline="central" transform="matrix(1 0 0 1 -98 -26)">фильтрам</text></g></g><g><path fill="none" stroke="#000000" paint-order="fill stroke markers" d=" M 504 46 L 504 172" stroke-miterlimit="10" stroke-dasharray=""/></g><g><path fill="#000000" stroke="none" paint-order="stroke fill markers" d=" M 499.790482243984 161.83732514237585 L 504 172 L 508.209517756016 161.83732514237585"/></g><g><path fill="none" stroke="#000000" paint-order="fill stroke markers" d=" M 499.790482243984 161.83732514237585 L 504 172 L 508.209517756016 161.83732514237585 L 499.790482243984 161.83732514237585" stroke-miterlimit="10" stroke-dasharray=""/></g><g><path fill="none" stroke="#000000" paint-order="fill stroke markers" d=" M 244 154 L 244 164 L 244 164 A 8 8 0 0 0 252 172 L 280 172" stroke-miterlimit="10" stroke-dasharray=""/></g><g><path fill="#000000" stroke="none" paint-order="stroke fill markers" d=" M 269.83732514237585 176.209517756016 L 280 172 L 269.83732514237585 167.790482243984"/></g><g><path fill="none" stroke="#000000" paint-order="fill stroke markers" d=" M 269.83732514237585 176.209517756016 L 280 172 L 269.83732514237585 167.790482243984 L 269.83732514237585 176.209517756016" stroke-miterlimit="10" stroke-dasharray=""/></g><g><path fill="none" stroke="#000000" paint-order="fill stroke markers" d=" M 838 78 L 838 164 L 838 164 A 8 8 0 0 1 830 172 L 676 172" stroke-miterlimit="10" stroke-dasharray=""/></g><g><path fill="#000000" stroke="none" paint-order="stroke fill markers" d=" M 686.1626748576241 167.790482243984 L 676 172 L 686.1626748576241 176.209517756016"/></g><g><path fill="none" stroke="#000000" paint-order="fill stroke markers" d=" M 686.1626748576241 167.790482243984 L 676 172 L 686.1626748576241 176.209517756016 L 686.1626748576241 167.790482243984" stroke-miterlimit="10" stroke-dasharray=""/></g><g><path fill="none" stroke="#000000" paint-order="fill stroke markers" d=" M 496 208 L 496 262" stroke-miterlimit="10" stroke-dasharray=""/></g><g><path fill="#000000" stroke="none" paint-order="stroke fill markers" d=" M 491.790482243984 251.83732514237585 L 496 262 L 500.209517756016 251.83732514237585"/></g><g><path fill="none" stroke="#000000" paint-order="fill stroke markers" d=" M 491.790482243984 251.83732514237585 L 496 262 L 500.209517756016 251.83732514237585 L 491.790482243984 251.83732514237585" stroke-miterlimit="10" stroke-dasharray=""/></g><g><path fill="none" stroke="#000000" paint-order="fill stroke markers" d=" M 493 314 L 493 388" stroke-miterlimit="10" stroke-dasharray=""/></g><g><path fill="#000000" stroke="none" paint-order="stroke fill markers" d=" M 488.790482243984 377.83732514237585 L 493 388 L 497.209517756016 377.83732514237585"/></g><g><path fill="none" stroke="#000000" paint-order="fill stroke markers" d=" M 488.790482243984 377.83732514237585 L 493 388 L 497.209517756016 377.83732514237585 L 488.790482243984 377.83732514237585" stroke-miterlimit="10" stroke-dasharray=""/></g><g><path fill="none" stroke="#000000" paint-order="fill stroke markers" d=" M 757 334 L 757 416 L 757 416 A 8 8 0 0 1 749 424 L 640 424" stroke-miterlimit="10" stroke-dasharray=""/></g><g><path fill="#000000" stroke="none" paint-order="stroke fill markers" d=" M 650.1626748576241 419.790482243984 L 640 424 L 650.1626748576241 428.209517756016"/></g><g><path fill="none" stroke="#000000" paint-order="fill stroke markers" d=" M 650.1626748576241 419.790482243984 L 640 424 L 650.1626748576241 428.209517756016 L 650.1626748576241 419.790482243984" stroke-miterlimit="10" stroke-dasharray=""/></g></g></svg>