<svg version="1.1" xmlns="http://www.w3.org/2000/svg" xmlns:xlink="http://www.w3.org/1999/xlink" width="1748" height="1096.71875"><defs/><g><g><path fill="none" stroke="#000000" paint-order="fill stroke markers" d=" M 10 10 L 1738 10 L 1738 442 L 10 442 L 10 10 Z Z" stroke-miterlimit="10" stroke-dasharray=""/></g><g><path fill="none" stroke="#000000" paint-order="fill stroke markers" d=" M 36 10 L 36 442" stroke-miterlimit="10" stroke-dasharray=""/></g><g><g><path fill="none" stroke="none"/><text fill="#000000" stroke="none" font-family="Arial" font-size="16px" font-style="normal" font-weight="normal" text-decoration="undefined" x="0" y="0" text-anchor="middle" dominant-baseline="text-before-edge" transform="matrix(6.123233995736766e-17 -1 1 6.123233995736766e-17 15 226)">Создатель сообщества</text></g></g><g><path fill="#C0C0C0" stroke="none" paint-order="stroke fill markers" d=" M 197 213 C 197 204.16344320000002 204.16344320000002 197 213 197 C 221.83655679999998 197 229 204.16344320000002 229 213 C 229 221.83655679999998 221.83655679999998 229 213 229 C 204.16344320000002 229 197 221.83655679999998 197 213 Z" fill-opacity="0.2"/></g><g><path fill="#ffffff" stroke="none" paint-order="stroke fill markers" d=" M 190 206 C 190 197.16344320000002 197.16344320000002 190 206 190 C 214.83655679999998 190 222 197.16344320000002 222 206 C 222 214.83655679999998 214.83655679999998 222 206 222 C 197.16344320000002 222 190 214.83655679999998 190 206 Z"/></g><g><path fill="none" stroke="#000000" paint-order="fill stroke markers" d=" M 190 206 C 190 197.16344320000002 197.16344320000002 190 206 190 C 214.83655679999998 190 222 197.16344320000002 222 206 C 222 214.83655679999998 214.83655679999998 222 206 222 C 197.16344320000002 222 190 214.83655679999998 190 206 Z" stroke-miterlimit="10" stroke-dasharray=""/></g><g><rect fill="#ffffff" stroke="none" x="149.484375" y="296" width="237.03125" height="16" transform="matrix(1 0 0 1 -62 -62)"/></g><g><g><path fill="none" stroke="none"/><text fill="#000000" stroke="none" font-family="Arial" font-size="16px" font-style="normal" font-weight="normal" text-decoration="undefined" x="268" y="304" text-anchor="middle" dominant-baseline="central" transform="matrix(1 0 0 1 -62 -62)">Открыть настройки сообщества</text></g></g><g><path fill="#C0C0C0" stroke="none" paint-order="stroke fill markers" d=" M 567 287 L 745 287 Q 755 287 755 297 L 755 367 Q 755 377 745 377 L 567 377 Q 557 377 557 367 L 557 297 Q 557 287 567 287 Z" fill-opacity="0.2"/></g><g><path fill="#ffffff" stroke="none" paint-order="stroke fill markers" d=" M 560 280 L 738 280 Q 748 280 748 290 L 748 360 Q 748 370 738 370 L 560 370 Q 550 370 550 360 L 550 290 Q 550 280 560 280 Z"/></g><g><path fill="none" stroke="#000000" paint-order="fill stroke markers" d=" M 560 280 L 738 280 Q 748 280 748 290 L 748 360 Q 748 370 738 370 L 560 370 Q 550 370 550 360 L 550 290 Q 550 280 560 280 Z" stroke-miterlimit="10" stroke-dasharray=""/></g><g><path fill="none" stroke="#000000" paint-order="fill stroke markers" d=" M 560 289 C 560 287.3431456 561.3431456 286 563 286 C 564.6568544 286 566 287.3431456 566 289 C 566 290.6568544 564.6568544 292 563 292 C 561.3431456 292 560 290.6568544 560 289 Z" stroke-miterlimit="10" stroke-dasharray=""/></g><g><path fill="none" stroke="#000000" paint-order="fill stroke markers" d=" M 558 293 L 568 293 L 568 300 L 558 300 L 558 293 Z Z" stroke-miterlimit="10" stroke-dasharray=""/></g><g><g><path fill="none" stroke="none"/><text fill="#000000" stroke="none" font-family="Arial" font-size="16px" font-style="normal" font-weight="normal" text-decoration="undefined" x="711" y="379" text-anchor="middle" dominant-baseline="central" transform="matrix(1 0 0 1 -62 -62)">Нажать "Удалить</text><text fill="#000000" stroke="none" font-family="Arial" font-size="16px" font-style="normal" font-weight="normal" text-decoration="undefined" x="711" y="395" text-anchor="middle" dominant-baseline="central" transform="matrix(1 0 0 1 -62 -62)">сообщество"</text></g></g><g><path fill="none" stroke="#000000" paint-order="fill stroke markers" d=" M 10 514 L 1738 514 L 1738 874 L 10 874 L 10 514 Z Z" stroke-miterlimit="10" stroke-dasharray=""/></g><g><path fill="none" stroke="#000000" paint-order="fill stroke markers" d=" M 36 514 L 36 874" stroke-miterlimit="10" stroke-dasharray=""/></g><g><g><path fill="none" stroke="none"/><text fill="#000000" stroke="none" font-family="Arial" font-size="16px" font-style="normal" font-weight="normal" text-decoration="undefined" x="0" y="0" text-anchor="middle" dominant-baseline="text-before-edge" transform="matrix(6.123233995736766e-17 -1 1 6.123233995736766e-17 15 694)">Api</text></g></g><g><path fill="#C0C0C0" stroke="none" paint-order="stroke fill markers" d=" M 1107 665 L 1186.5703125 665 Q 1196.5703125 665 1196.5703125 675 L 1196.5703125 745 Q 1196.5703125 755 1186.5703125 755 L 1107 755 Q 1097 755 1097 745 L 1097 675 Q 1097 665 1107 665 Z" fill-opacity="0.2"/></g><g><path fill="#ffffff" stroke="none" paint-order="stroke fill markers" d=" M 1100 658 L 1179.5703125 658 Q 1189.5703125 658 1189.5703125 668 L 1189.5703125 738 Q 1189.5703125 748 1179.5703125 748 L 1100 748 Q 1090 748 1090 738 L 1090 668 Q 1090 658 1100 658 Z"/></g><g><path fill="none" stroke="#000000" paint-order="fill stroke markers" d=" M 1100 658 L 1179.5703125 658 Q 1189.5703125 658 1189.5703125 668 L 1189.5703125 738 Q 1189.5703125 748 1179.5703125 748 L 1100 748 Q 1090 748 1090 738 L 1090 668 Q 1090 658 1100 658 Z" stroke-miterlimit="10" stroke-dasharray=""/></g><g><g><path fill="none" stroke="none"/><text fill="#000000" stroke="none" font-family="Arial" font-size="16px" font-style="normal" font-weight="normal" text-decoration="undefined" x="1201.78515625" y="741" text-anchor="middle" dominant-baseline="central" transform="matrix(1 0 0 1 -62 -62)">Удалить всех</text><text fill="#000000" stroke="none" font-family="Arial" font-size="16px" font-style="normal" font-weight="normal" text-decoration="undefined" x="1201.78515625" y="757" text-anchor="middle" dominant-baseline="central" transform="matrix(1 0 0 1 -62 -62)">участников</text><text fill="#000000" stroke="none" font-family="Arial" font-size="16px" font-style="normal" font-weight="normal" text-decoration="undefined" x="1201.78515625" y="773" text-anchor="middle" dominant-baseline="central" transform="matrix(1 0 0 1 -62 -62)">из</text><text fill="#000000" stroke="none" font-family="Arial" font-size="16px" font-style="normal" font-weight="normal" text-decoration="undefined" x="1201.78515625" y="789" text-anchor="middle" dominant-baseline="central" transform="matrix(1 0 0 1 -62 -62)">сообщества</text></g></g><g><path fill="#C0C0C0" stroke="none" paint-order="stroke fill markers" d=" M 837 665 L 915.5 665 Q 925.5 665 925.5 675 L 925.5 745 Q 925.5 755 915.5 755 L 837 755 Q 827 755 827 745 L 827 675 Q 827 665 837 665 Z" fill-opacity="0.2"/></g><g><path fill="#ffffff" stroke="none" paint-order="stroke fill markers" d=" M 830 658 L 908.5 658 Q 918.5 658 918.5 668 L 918.5 738 Q 918.5 748 908.5 748 L 830 748 Q 820 748 820 738 L 820 668 Q 820 658 830 658 Z"/></g><g><path fill="none" stroke="#000000" paint-order="fill stroke markers" d=" M 830 658 L 908.5 658 Q 918.5 658 918.5 668 L 918.5 738 Q 918.5 748 908.5 748 L 830 748 Q 820 748 820 738 L 820 668 Q 820 658 830 658 Z" stroke-miterlimit="10" stroke-dasharray=""/></g><g><g><path fill="none" stroke="none"/><text fill="#000000" stroke="none" font-family="Arial" font-size="16px" font-style="normal" font-weight="normal" text-decoration="undefined" x="931.25" y="733" text-anchor="middle" dominant-baseline="central" transform="matrix(1 0 0 1 -62 -62)">Удалить все</text><text fill="#000000" stroke="none" font-family="Arial" font-size="16px" font-style="normal" font-weight="normal" text-decoration="undefined" x="931.25" y="749" text-anchor="middle" dominant-baseline="central" transform="matrix(1 0 0 1 -62 -62)">отчёты по</text><text fill="#000000" stroke="none" font-family="Arial" font-size="16px" font-style="normal" font-weight="normal" text-decoration="undefined" x="931.25" y="765" text-anchor="middle" dominant-baseline="central" transform="matrix(1 0 0 1 -62 -62)">КД которые</text><text fill="#000000" stroke="none" font-family="Arial" font-size="16px" font-style="normal" font-weight="normal" text-decoration="undefined" x="931.25" y="781" text-anchor="middle" dominant-baseline="central" transform="matrix(1 0 0 1 -62 -62)">привязаны к</text><text fill="#000000" stroke="none" font-family="Arial" font-size="16px" font-style="normal" font-weight="normal" text-decoration="undefined" x="931.25" y="797" text-anchor="middle" dominant-baseline="central" transform="matrix(1 0 0 1 -62 -62)">сообществу</text></g></g><g><path fill="#C0C0C0" stroke="none" paint-order="stroke fill markers" d=" M 981 665 L 1059.953125 665 Q 1069.953125 665 1069.953125 675 L 1069.953125 745 Q 1069.953125 755 1059.953125 755 L 981 755 Q 971 755 971 745 L 971 675 Q 971 665 981 665 Z" fill-opacity="0.2"/></g><g><path fill="#ffffff" stroke="none" paint-order="stroke fill markers" d=" M 974 658 L 1052.953125 658 Q 1062.953125 658 1062.953125 668 L 1062.953125 738 Q 1062.953125 748 1052.953125 748 L 974 748 Q 964 748 964 738 L 964 668 Q 964 658 974 658 Z"/></g><g><path fill="none" stroke="#000000" paint-order="fill stroke markers" d=" M 974 658 L 1052.953125 658 Q 1062.953125 658 1062.953125 668 L 1062.953125 738 Q 1062.953125 748 1052.953125 748 L 974 748 Q 964 748 964 738 L 964 668 Q 964 658 974 658 Z" stroke-miterlimit="10" stroke-dasharray=""/></g><g><g><path fill="none" stroke="none"/><text fill="#000000" stroke="none" font-family="Arial" font-size="16px" font-style="normal" font-weight="normal" text-decoration="undefined" x="1075.4765625" y="733" text-anchor="middle" dominant-baseline="central" transform="matrix(1 0 0 1 -62 -62)">Удалить все</text><text fill="#000000" stroke="none" font-family="Arial" font-size="16px" font-style="normal" font-weight="normal" text-decoration="undefined" x="1075.4765625" y="749" text-anchor="middle" dominant-baseline="central" transform="matrix(1 0 0 1 -62 -62)">КД</text><text fill="#000000" stroke="none" font-family="Arial" font-size="16px" font-style="normal" font-weight="normal" text-decoration="undefined" x="1075.4765625" y="765" text-anchor="middle" dominant-baseline="central" transform="matrix(1 0 0 1 -62 -62)">привязаные</text><text fill="#000000" stroke="none" font-family="Arial" font-size="16px" font-style="normal" font-weight="normal" text-decoration="undefined" x="1075.4765625" y="781" text-anchor="middle" dominant-baseline="central" transform="matrix(1 0 0 1 -62 -62)">к</text><text fill="#000000" stroke="none" font-family="Arial" font-size="16px" font-style="normal" font-weight="normal" text-decoration="undefined" x="1075.4765625" y="797" text-anchor="middle" dominant-baseline="central" transform="matrix(1 0 0 1 -62 -62)">сообществу </text></g></g><g><path fill="#C0C0C0" stroke="none" paint-order="stroke fill markers" d=" M 1269 683 L 1348.5703125 683 Q 1358.5703125 683 1358.5703125 693 L 1358.5703125 715 Q 1358.5703125 725 1348.5703125 725 L 1269 725 Q 1259 725 1259 715 L 1259 693 Q 1259 683 1269 683 Z" fill-opacity="0.2"/></g><g><path fill="#ffffff" stroke="none" paint-order="stroke fill markers" d=" M 1262 676 L 1341.5703125 676 Q 1351.5703125 676 1351.5703125 686 L 1351.5703125 708 Q 1351.5703125 718 1341.5703125 718 L 1262 718 Q 1252 718 1252 708 L 1252 686 Q 1252 676 1262 676 Z"/></g><g><path fill="none" stroke="#000000" paint-order="fill stroke markers" d=" M 1262 676 L 1341.5703125 676 Q 1351.5703125 676 1351.5703125 686 L 1351.5703125 708 Q 1351.5703125 718 1341.5703125 718 L 1262 718 Q 1252 718 1252 708 L 1252 686 Q 1252 676 1262 676 Z" stroke-miterlimit="10" stroke-dasharray=""/></g><g><g><path fill="none" stroke="none"/><text fill="#000000" stroke="none" font-family="Arial" font-size="16px" font-style="normal" font-weight="normal" text-decoration="undefined" x="1363.78515625" y="751" text-anchor="middle" dominant-baseline="central" transform="matrix(1 0 0 1 -62 -62)">Удалить</text><text fill="#000000" stroke="none" font-family="Arial" font-size="16px" font-style="normal" font-weight="normal" text-decoration="undefined" x="1363.78515625" y="767" text-anchor="middle" dominant-baseline="central" transform="matrix(1 0 0 1 -62 -62)">сообщество</text></g></g><g><path fill="#C0C0C0" stroke="none" paint-order="stroke fill markers" d=" M 1475 195 C 1475 186.1634432 1482.1634432 179 1491 179 C 1499.8365568 179 1507 186.1634432 1507 195 C 1507 203.83655679999998 1499.8365568 211 1491 211 C 1482.1634432 211 1475 203.83655679999998 1475 195 Z" fill-opacity="0.2"/></g><g><path fill="#ffffff" stroke="none" paint-order="stroke fill markers" d=" M 1468 188 C 1468 179.1634432 1475.1634432 172 1484 172 C 1492.8365568 172 1500 179.1634432 1500 188 C 1500 196.83655679999998 1492.8365568 204 1484 204 C 1475.1634432 204 1468 196.83655679999998 1468 188 Z"/></g><g><path fill="none" stroke="#000000" paint-order="fill stroke markers" d=" M 1468 188 C 1468 179.1634432 1475.1634432 172 1484 172 C 1492.8365568 172 1500 179.1634432 1500 188 C 1500 196.83655679999998 1492.8365568 204 1484 204 C 1475.1634432 204 1468 196.83655679999998 1468 188 Z" stroke-miterlimit="10" stroke-width="3" stroke-dasharray=""/></g><g><rect fill="#ffffff" stroke="none" x="1466.83984375" y="278" width="158.3203125" height="16" transform="matrix(1 0 0 1 -62 -62)"/></g><g><g><path fill="none" stroke="none"/><text fill="#000000" stroke="none" font-family="Arial" font-size="16px" font-style="normal" font-weight="normal" text-decoration="undefined" x="1546" y="286" text-anchor="middle" dominant-baseline="central" transform="matrix(1 0 0 1 -62 -62)">Удаление завершено</text></g></g><g><path fill="none" stroke="#000000" paint-order="fill stroke markers" d=" M 10 946 L 1738 946 L 1738 1086.71875 L 10 1086.71875 L 10 946 Z Z" stroke-miterlimit="10" stroke-dasharray=""/></g><g><path fill="none" stroke="#000000" paint-order="fill stroke markers" d=" M 36 946 L 36 1086.71875" stroke-miterlimit="10" stroke-dasharray=""/></g><g><g><path fill="none" stroke="none"/><text fill="#000000" stroke="none" font-family="Arial" font-size="16px" font-style="normal" font-weight="normal" text-decoration="undefined" x="0" y="0" text-anchor="middle" dominant-baseline="text-before-edge" transform="matrix(6.123233995736766e-17 -1 1 6.123233995736766e-17 15 1016.359375)">База данных</text></g></g><g><path fill="none" stroke="#000000" paint-order="fill stroke markers" d=" M 222 215 L 542 215 L 542 215 A 8 8 0 0 1 550 223 L 550 280" stroke-miterlimit="10" stroke-dasharray=""/></g><g><path fill="#000000" stroke="none" paint-order="stroke fill markers" d=" M 545.790482243984 269.83732514237585 L 550 280 L 554.209517756016 269.83732514237585"/></g><g><path fill="none" stroke="#000000" paint-order="fill stroke markers" d=" M 545.790482243984 269.83732514237585 L 550 280 L 554.209517756016 269.83732514237585 L 545.790482243984 269.83732514237585" stroke-miterlimit="10" stroke-dasharray=""/></g><g><path fill="none" stroke="#000000" paint-order="fill stroke markers" d=" M 669 370 L 669 650 L 669 650 A 8 8 0 0 0 677 658 L 820 658" stroke-miterlimit="10" stroke-dasharray=""/></g><g><path fill="#000000" stroke="none" paint-order="stroke fill markers" d=" M 809.8373251423759 662.209517756016 L 820 658 L 809.8373251423758 653.790482243984"/></g><g><path fill="none" stroke="#000000" paint-order="fill stroke markers" d=" M 809.8373251423759 662.209517756016 L 820 658 L 809.8373251423758 653.790482243984 L 809.8373251423759 662.209517756016" stroke-miterlimit="10" stroke-dasharray=""/></g><g><path fill="none" stroke="#000000" paint-order="fill stroke markers" d=" M 919 703 L 964 703" stroke-miterlimit="10" stroke-dasharray=""/></g><g><path fill="#000000" stroke="none" paint-order="stroke fill markers" d=" M 953.8373251423759 707.209517756016 L 964 703 L 953.8373251423758 698.790482243984"/></g><g><path fill="none" stroke="#000000" paint-order="fill stroke markers" d=" M 953.8373251423759 707.209517756016 L 964 703 L 953.8373251423758 698.790482243984 L 953.8373251423759 707.209517756016" stroke-miterlimit="10" stroke-dasharray=""/></g><g><path fill="none" stroke="#000000" paint-order="fill stroke markers" d=" M 1063 703 L 1090 703" stroke-miterlimit="10" stroke-dasharray=""/></g><g><path fill="#000000" stroke="none" paint-order="stroke fill markers" d=" M 1079.837325142376 707.209517756016 L 1090 703 L 1079.837325142376 698.790482243984"/></g><g><path fill="none" stroke="#000000" paint-order="fill stroke markers" d=" M 1079.837325142376 707.209517756016 L 1090 703 L 1079.837325142376 698.790482243984 L 1079.837325142376 707.209517756016" stroke-miterlimit="10" stroke-dasharray=""/></g><g><path fill="none" stroke="#000000" paint-order="fill stroke markers" d=" M 1190 701 L 1252 701" stroke-miterlimit="10" stroke-dasharray=""/></g><g><path fill="#000000" stroke="none" paint-order="stroke fill markers" d=" M 1241.837325142376 705.209517756016 L 1252 701 L 1241.837325142376 696.790482243984"/></g><g><path fill="none" stroke="#000000" paint-order="fill stroke markers" d=" M 1241.837325142376 705.209517756016 L 1252 701 L 1241.837325142376 696.790482243984 L 1241.837325142376 705.209517756016" stroke-miterlimit="10" stroke-dasharray=""/></g><g><path fill="none" stroke="#000000" paint-order="fill stroke markers" d=" M 1352 676 L 1470 676 L 1470 676 A 8 8 0 0 0 1478 668 L 1478 204" stroke-miterlimit="10" stroke-dasharray=""/></g><g><path fill="#000000" stroke="none" paint-order="stroke fill markers" d=" M 1482.2095177560159 214.16267485762415 L 1478 204 L 1473.7904822439841 214.16267485762415"/></g><g><path fill="none" stroke="#000000" paint-order="fill stroke markers" d=" M 1482.2095177560159 214.16267485762415 L 1478 204 L 1473.7904822439841 214.16267485762415 L 1482.2095177560159 214.16267485762415" stroke-miterlimit="10" stroke-dasharray=""/></g><g><path fill="#ffffff" stroke="none" paint-order="stroke fill markers" d=" M 586 64 L 714.390625 64 L 724.390625 74 L 724.390625 235 L 586 235 L 586 64"/></g><g><path fill="none" stroke="#000000" paint-order="fill stroke markers" d=" M 586 64 L 714.390625 64 L 724.390625 74 L 724.390625 235 L 586 235 L 586 64 L 586 64" stroke-miterlimit="10" stroke-dasharray=""/></g><g><path fill="none" stroke="#000000" paint-order="fill stroke markers" d=" M 714.390625 64 L 714.390625 74 L 724.390625 74 L 714.390625 64" stroke-miterlimit="10" stroke-dasharray=""/></g><g><g><path fill="none" stroke="none"/><text fill="#000000" stroke="none" font-family="Arial" font-size="16px" font-style="normal" font-weight="normal" text-decoration="undefined" x="653" y="131" text-anchor="start" dominant-baseline="text-before-edge" transform="matrix(1 0 0 1 -62 -62)">question : можно</text><text fill="#000000" stroke="none" font-family="Arial" font-size="16px" font-style="normal" font-weight="normal" text-decoration="undefined" x="653" y="147" text-anchor="start" dominant-baseline="text-before-edge" transform="matrix(1 0 0 1 -62 -62)">ли удалить</text><text fill="#000000" stroke="none" font-family="Arial" font-size="16px" font-style="normal" font-weight="normal" text-decoration="undefined" x="653" y="163" text-anchor="start" dominant-baseline="text-before-edge" transform="matrix(1 0 0 1 -62 -62)">сообщество если</text><text fill="#000000" stroke="none" font-family="Arial" font-size="16px" font-style="normal" font-weight="normal" text-decoration="undefined" x="653" y="179" text-anchor="start" dominant-baseline="text-before-edge" transform="matrix(1 0 0 1 -62 -62)">в нём состоит</text><text fill="#000000" stroke="none" font-family="Arial" font-size="16px" font-style="normal" font-weight="normal" text-decoration="undefined" x="653" y="195" text-anchor="start" dominant-baseline="text-before-edge" transform="matrix(1 0 0 1 -62 -62)">большое кол-во</text><text fill="#000000" stroke="none" font-family="Arial" font-size="16px" font-style="normal" font-weight="normal" text-decoration="undefined" x="653" y="211" text-anchor="start" dominant-baseline="text-before-edge" transform="matrix(1 0 0 1 -62 -62)">пользователей?</text><text fill="#000000" stroke="none" font-family="Arial" font-size="16px" font-style="normal" font-weight="normal" text-decoration="undefined" x="653" y="227" text-anchor="start" dominant-baseline="text-before-edge" transform="matrix(1 0 0 1 -62 -62)">Как в</text><text fill="#000000" stroke="none" font-family="Arial" font-size="16px" font-style="normal" font-weight="normal" text-decoration="undefined" x="653" y="243" text-anchor="start" dominant-baseline="text-before-edge" transform="matrix(1 0 0 1 -62 -62)">телеграмме</text></g></g><g><path fill="none" stroke="#000000" paint-order="fill stroke markers" d=" M 870 748 L 870 946" stroke-miterlimit="10" stroke-dasharray=""/></g><g><path fill="#000000" stroke="none" paint-order="stroke fill markers" d=" M 865.790482243984 935.8373251423759 L 870 946 L 874.209517756016 935.8373251423759"/></g><g><path fill="none" stroke="#000000" paint-order="fill stroke markers" d=" M 865.790482243984 935.8373251423759 L 870 946 L 874.209517756016 935.8373251423759 L 865.790482243984 935.8373251423759" stroke-miterlimit="10" stroke-dasharray=""/></g><g><path fill="none" stroke="#000000" paint-order="fill stroke markers" d=" M 993 748 L 993 946" stroke-miterlimit="10" stroke-dasharray=""/></g><g><path fill="#000000" stroke="none" paint-order="stroke fill markers" d=" M 988.7904822439841 935.8373251423759 L 993 946 L 997.2095177560159 935.8373251423759"/></g><g><path fill="none" stroke="#000000" paint-order="fill stroke markers" d=" M 988.7904822439841 935.8373251423759 L 993 946 L 997.2095177560159 935.8373251423759 L 988.7904822439841 935.8373251423759" stroke-miterlimit="10" stroke-dasharray=""/></g><g><path fill="none" stroke="#000000" paint-order="fill stroke markers" d=" M 1101 748 L 1101 946" stroke-miterlimit="10" stroke-dasharray=""/></g><g><path fill="#000000" stroke="none" paint-order="stroke fill markers" d=" M 1096.7904822439841 935.8373251423759 L 1101 946 L 1105.2095177560159 935.8373251423759"/></g><g><path fill="none" stroke="#000000" paint-order="fill stroke markers" d=" M 1096.7904822439841 935.8373251423759 L 1101 946 L 1105.2095177560159 935.8373251423759 L 1096.7904822439841 935.8373251423759" stroke-miterlimit="10" stroke-dasharray=""/></g><g><path fill="none" stroke="#000000" paint-order="fill stroke markers" d=" M 1273 718 L 1273 946" stroke-miterlimit="10" stroke-dasharray=""/></g><g><path fill="#000000" stroke="none" paint-order="stroke fill markers" d=" M 1268.7904822439841 935.8373251423759 L 1273 946 L 1277.2095177560159 935.8373251423759"/></g><g><path fill="none" stroke="#000000" paint-order="fill stroke markers" d=" M 1268.7904822439841 935.8373251423759 L 1273 946 L 1277.2095177560159 935.8373251423759 L 1268.7904822439841 935.8373251423759" stroke-miterlimit="10" stroke-dasharray=""/></g></g></svg>