<svg version="1.1" xmlns="http://www.w3.org/2000/svg" xmlns:xlink="http://www.w3.org/1999/xlink" width="1694" height="790.71875"><defs/><g><g><path fill="none" stroke="#000000" paint-order="fill stroke markers" d=" M 10 10 L 1684 10 L 1684 244 L 10 244 L 10 10 Z Z" stroke-miterlimit="10" stroke-dasharray=""/></g><g><path fill="none" stroke="#000000" paint-order="fill stroke markers" d=" M 36 10 L 36 244" stroke-miterlimit="10" stroke-dasharray=""/></g><g><g><path fill="none" stroke="none"/><text fill="#000000" stroke="none" font-family="Arial" font-size="16px" font-style="normal" font-weight="normal" text-decoration="undefined" x="0" y="0" text-anchor="middle" dominant-baseline="text-before-edge" transform="matrix(6.123233995736766e-17 -1 1 6.123233995736766e-17 15 127)">Админ КД</text></g></g><g><path fill="#C0C0C0" stroke="none" paint-order="stroke fill markers" d=" M 161 123 C 161 114.16344319999999 168.1634432 107 177 107 C 185.8365568 107 193 114.16344319999999 193 123 C 193 131.8365568 185.8365568 139 177 139 C 168.1634432 139 161 131.8365568 161 123 Z" fill-opacity="0.2"/></g><g><path fill="#ffffff" stroke="none" paint-order="stroke fill markers" d=" M 154 116 C 154 107.16344319999999 161.1634432 100 170 100 C 178.8365568 100 186 107.16344319999999 186 116 C 186 124.83655680000001 178.8365568 132 170 132 C 161.1634432 132 154 124.83655680000001 154 116 Z"/></g><g><path fill="none" stroke="#000000" paint-order="fill stroke markers" d=" M 154 116 C 154 107.16344319999999 161.1634432 100 170 100 C 178.8365568 100 186 107.16344319999999 186 116 C 186 124.83655680000001 178.8365568 132 170 132 C 161.1634432 132 154 124.83655680000001 154 116 Z" stroke-miterlimit="10" stroke-dasharray=""/></g><g><rect fill="#ffffff" stroke="none" x="148.19140625" y="206" width="167.6171875" height="16" transform="matrix(1 0 0 1 -62 -62)"/></g><g><g><path fill="none" stroke="none"/><text fill="#000000" stroke="none" font-family="Arial" font-size="16px" font-style="normal" font-weight="normal" text-decoration="undefined" x="232" y="214" text-anchor="middle" dominant-baseline="central" transform="matrix(1 0 0 1 -62 -62)">Открыть настройки КД</text></g></g><g><path fill="#C0C0C0" stroke="none" paint-order="stroke fill markers" d=" M 405 107 L 516.8046875 107 Q 526.8046875 107 526.8046875 117 L 526.8046875 155 Q 526.8046875 165 516.8046875 165 L 405 165 Q 395 165 395 155 L 395 117 Q 395 107 405 107 Z" fill-opacity="0.2"/></g><g><path fill="#ffffff" stroke="none" paint-order="stroke fill markers" d=" M 398 100 L 509.8046875 100 Q 519.8046875 100 519.8046875 110 L 519.8046875 148 Q 519.8046875 158 509.8046875 158 L 398 158 Q 388 158 388 148 L 388 110 Q 388 100 398 100 Z"/></g><g><path fill="none" stroke="#000000" paint-order="fill stroke markers" d=" M 398 100 L 509.8046875 100 Q 519.8046875 100 519.8046875 110 L 519.8046875 148 Q 519.8046875 158 509.8046875 158 L 398 158 Q 388 158 388 148 L 388 110 Q 388 100 398 100 Z" stroke-miterlimit="10" stroke-dasharray=""/></g><g><path fill="none" stroke="#000000" paint-order="fill stroke markers" d=" M 398 109 C 398 107.34314560000001 399.3431456 106 401 106 C 402.6568544 106 404 107.34314560000001 404 109 C 404 110.65685439999999 402.6568544 112 401 112 C 399.3431456 112 398 110.65685439999999 398 109 Z" stroke-miterlimit="10" stroke-dasharray=""/></g><g><path fill="none" stroke="#000000" paint-order="fill stroke markers" d=" M 396 113 L 406 113 L 406 120 L 396 120 L 396 113 Z Z" stroke-miterlimit="10" stroke-dasharray=""/></g><g><g><path fill="none" stroke="none"/><text fill="#000000" stroke="none" font-family="Arial" font-size="16px" font-style="normal" font-weight="normal" text-decoration="undefined" x="515.90234375" y="175" text-anchor="middle" dominant-baseline="central" transform="matrix(1 0 0 1 -62 -62)">Нажать</text><text fill="#000000" stroke="none" font-family="Arial" font-size="16px" font-style="normal" font-weight="normal" text-decoration="undefined" x="515.90234375" y="191" text-anchor="middle" dominant-baseline="central" transform="matrix(1 0 0 1 -62 -62)">"сгенерировать</text><text fill="#000000" stroke="none" font-family="Arial" font-size="16px" font-style="normal" font-weight="normal" text-decoration="undefined" x="515.90234375" y="207" text-anchor="middle" dominant-baseline="central" transform="matrix(1 0 0 1 -62 -62)">ссылку"</text></g></g><g><path fill="none" stroke="#000000" paint-order="fill stroke markers" d=" M 10 280 L 1684 280 L 1684 586 L 10 586 L 10 280 Z Z" stroke-miterlimit="10" stroke-dasharray=""/></g><g><path fill="none" stroke="#000000" paint-order="fill stroke markers" d=" M 36 280 L 36 586" stroke-miterlimit="10" stroke-dasharray=""/></g><g><g><path fill="none" stroke="none"/><text fill="#000000" stroke="none" font-family="Arial" font-size="16px" font-style="normal" font-weight="normal" text-decoration="undefined" x="0" y="0" text-anchor="middle" dominant-baseline="text-before-edge" transform="matrix(6.123233995736766e-17 -1 1 6.123233995736766e-17 15 433)">Api</text></g></g><g><path fill="#C0C0C0" stroke="none" paint-order="stroke fill markers" d=" M 549 413 L 650.8359375 413 Q 660.8359375 413 660.8359375 423 L 660.8359375 445 Q 660.8359375 455 650.8359375 455 L 549 455 Q 539 455 539 445 L 539 423 Q 539 413 549 413 Z" fill-opacity="0.2"/></g><g><path fill="#ffffff" stroke="none" paint-order="stroke fill markers" d=" M 542 406 L 643.8359375 406 Q 653.8359375 406 653.8359375 416 L 653.8359375 438 Q 653.8359375 448 643.8359375 448 L 542 448 Q 532 448 532 438 L 532 416 Q 532 406 542 406 Z"/></g><g><path fill="none" stroke="#000000" paint-order="fill stroke markers" d=" M 542 406 L 643.8359375 406 Q 653.8359375 406 653.8359375 416 L 653.8359375 438 Q 653.8359375 448 643.8359375 448 L 542 448 Q 532 448 532 438 L 532 416 Q 532 406 542 406 Z" stroke-miterlimit="10" stroke-dasharray=""/></g><g><g><path fill="none" stroke="none"/><text fill="#000000" stroke="none" font-family="Arial" font-size="16px" font-style="normal" font-weight="normal" text-decoration="undefined" x="654.91796875" y="481" text-anchor="middle" dominant-baseline="central" transform="matrix(1 0 0 1 -62 -62)">Сгенерировать</text><text fill="#000000" stroke="none" font-family="Arial" font-size="16px" font-style="normal" font-weight="normal" text-decoration="undefined" x="654.91796875" y="497" text-anchor="middle" dominant-baseline="central" transform="matrix(1 0 0 1 -62 -62)">новый роут</text></g></g><g><path fill="#C0C0C0" stroke="none" paint-order="stroke fill markers" d=" M 1035 377 L 1113.0234375 377 Q 1123.0234375 377 1123.0234375 387 L 1123.0234375 441 Q 1123.0234375 451 1113.0234375 451 L 1035 451 Q 1025 451 1025 441 L 1025 387 Q 1025 377 1035 377 Z" fill-opacity="0.2"/></g><g><path fill="#ffffff" stroke="none" paint-order="stroke fill markers" d=" M 1028 370 L 1106.0234375 370 Q 1116.0234375 370 1116.0234375 380 L 1116.0234375 434 Q 1116.0234375 444 1106.0234375 444 L 1028 444 Q 1018 444 1018 434 L 1018 380 Q 1018 370 1028 370 Z"/></g><g><path fill="none" stroke="#000000" paint-order="fill stroke markers" d=" M 1028 370 L 1106.0234375 370 Q 1116.0234375 370 1116.0234375 380 L 1116.0234375 434 Q 1116.0234375 444 1106.0234375 444 L 1028 444 Q 1018 444 1018 434 L 1018 380 Q 1018 370 1028 370 Z" stroke-miterlimit="10" stroke-dasharray=""/></g><g><g><path fill="none" stroke="none"/><text fill="#000000" stroke="none" font-family="Arial" font-size="16px" font-style="normal" font-weight="normal" text-decoration="undefined" x="1129.01171875" y="445" text-anchor="middle" dominant-baseline="central" transform="matrix(1 0 0 1 -62 -62)">Пометить</text><text fill="#000000" stroke="none" font-family="Arial" font-size="16px" font-style="normal" font-weight="normal" text-decoration="undefined" x="1129.01171875" y="461" text-anchor="middle" dominant-baseline="central" transform="matrix(1 0 0 1 -62 -62)">старый роут</text><text fill="#000000" stroke="none" font-family="Arial" font-size="16px" font-style="normal" font-weight="normal" text-decoration="undefined" x="1129.01171875" y="477" text-anchor="middle" dominant-baseline="central" transform="matrix(1 0 0 1 -62 -62)">как</text><text fill="#000000" stroke="none" font-family="Arial" font-size="16px" font-style="normal" font-weight="normal" text-decoration="undefined" x="1129.01171875" y="493" text-anchor="middle" dominant-baseline="central" transform="matrix(1 0 0 1 -62 -62)">неактивный</text></g></g><g><path fill="#C0C0C0" stroke="none" paint-order="stroke fill markers" d=" M 1179 341 L 1291.421875 341 Q 1301.421875 341 1301.421875 351 L 1301.421875 453 Q 1301.421875 463 1291.421875 463 L 1179 463 Q 1169 463 1169 453 L 1169 351 Q 1169 341 1179 341 Z" fill-opacity="0.2"/></g><g><path fill="#ffffff" stroke="none" paint-order="stroke fill markers" d=" M 1172 334 L 1284.421875 334 Q 1294.421875 334 1294.421875 344 L 1294.421875 446 Q 1294.421875 456 1284.421875 456 L 1172 456 Q 1162 456 1162 446 L 1162 344 Q 1162 334 1172 334 Z"/></g><g><path fill="none" stroke="#000000" paint-order="fill stroke markers" d=" M 1172 334 L 1284.421875 334 Q 1294.421875 334 1294.421875 344 L 1294.421875 446 Q 1294.421875 456 1284.421875 456 L 1172 456 Q 1162 456 1162 446 L 1162 344 Q 1162 334 1172 334 Z" stroke-miterlimit="10" stroke-dasharray=""/></g><g><g><path fill="none" stroke="none"/><text fill="#000000" stroke="none" font-family="Arial" font-size="16px" font-style="normal" font-weight="normal" text-decoration="undefined" x="1290.2109375" y="425" text-anchor="middle" dominant-baseline="central" transform="matrix(1 0 0 1 -62 -62)">Сохранить новый</text><text fill="#000000" stroke="none" font-family="Arial" font-size="16px" font-style="normal" font-weight="normal" text-decoration="undefined" x="1290.2109375" y="441" text-anchor="middle" dominant-baseline="central" transform="matrix(1 0 0 1 -62 -62)">роут в базу и</text><text fill="#000000" stroke="none" font-family="Arial" font-size="16px" font-style="normal" font-weight="normal" text-decoration="undefined" x="1290.2109375" y="457" text-anchor="middle" dominant-baseline="central" transform="matrix(1 0 0 1 -62 -62)">привязать его к</text><text fill="#000000" stroke="none" font-family="Arial" font-size="16px" font-style="normal" font-weight="normal" text-decoration="undefined" x="1290.2109375" y="473" text-anchor="middle" dominant-baseline="central" transform="matrix(1 0 0 1 -62 -62)">существующему</text><text fill="#000000" stroke="none" font-family="Arial" font-size="16px" font-style="normal" font-weight="normal" text-decoration="undefined" x="1290.2109375" y="489" text-anchor="middle" dominant-baseline="central" transform="matrix(1 0 0 1 -62 -62)">КД</text></g></g><g><path fill="#C0C0C0" stroke="none" paint-order="stroke fill markers" d=" M 729 395 L 807.0234375 395 Q 817.0234375 395 817.0234375 405 L 817.0234375 443 Q 817.0234375 453 807.0234375 453 L 729 453 Q 719 453 719 443 L 719 405 Q 719 395 729 395 Z" fill-opacity="0.2"/></g><g><path fill="#ffffff" stroke="none" paint-order="stroke fill markers" d=" M 722 388 L 800.0234375 388 Q 810.0234375 388 810.0234375 398 L 810.0234375 436 Q 810.0234375 446 800.0234375 446 L 722 446 Q 712 446 712 436 L 712 398 Q 712 388 722 388 Z"/></g><g><path fill="none" stroke="#000000" paint-order="fill stroke markers" d=" M 722 388 L 800.0234375 388 Q 810.0234375 388 810.0234375 398 L 810.0234375 436 Q 810.0234375 446 800.0234375 446 L 722 446 Q 712 446 712 436 L 712 398 Q 712 388 722 388 Z" stroke-miterlimit="10" stroke-dasharray=""/></g><g><g><path fill="none" stroke="none"/><text fill="#000000" stroke="none" font-family="Arial" font-size="16px" font-style="normal" font-weight="normal" text-decoration="undefined" x="823.01171875" y="463" text-anchor="middle" dominant-baseline="central" transform="matrix(1 0 0 1 -62 -62)">Извлечь</text><text fill="#000000" stroke="none" font-family="Arial" font-size="16px" font-style="normal" font-weight="normal" text-decoration="undefined" x="823.01171875" y="479" text-anchor="middle" dominant-baseline="central" transform="matrix(1 0 0 1 -62 -62)">похожий</text><text fill="#000000" stroke="none" font-family="Arial" font-size="16px" font-style="normal" font-weight="normal" text-decoration="undefined" x="823.01171875" y="495" text-anchor="middle" dominant-baseline="central" transform="matrix(1 0 0 1 -62 -62)">роут</text></g></g><g><path fill="#C0C0C0" stroke="none" paint-order="stroke fill markers" d=" M 881 429 L 897 413 L 913 429 L 897 445 L 881 429" fill-opacity="0.2"/></g><g><path fill="#ffffff" stroke="none" paint-order="stroke fill markers" d=" M 874 422 L 890 406 L 906 422 L 890 438 L 874 422"/></g><g><path fill="none" stroke="#000000" paint-order="fill stroke markers" d=" M 874 422 L 890 406 L 906 422 L 890 438 L 874 422 L 874 422" stroke-miterlimit="10" stroke-dasharray=""/></g><g><rect fill="#ffffff" stroke="none" x="859.078125" y="512" width="185.84375" height="16" transform="matrix(1 0 0 1 -62 -62)"/></g><g><g><path fill="none" stroke="none"/><text fill="#000000" stroke="none" font-family="Arial" font-size="16px" font-style="normal" font-weight="normal" text-decoration="undefined" x="952" y="520" text-anchor="middle" dominant-baseline="central" transform="matrix(1 0 0 1 -62 -62)">Есть похожий роут</text></g></g><g><path fill="none" stroke="#000000" paint-order="fill stroke markers" d=" M 654 423 L 712 423" stroke-miterlimit="10" stroke-dasharray=""/></g><g><path fill="#000000" stroke="none" paint-order="stroke fill markers" d=" M 701.8373251423759 427.209517756016 L 712 423 L 701.8373251423758 418.790482243984"/></g><g><path fill="none" stroke="#000000" paint-order="fill stroke markers" d=" M 701.8373251423759 427.209517756016 L 712 423 L 701.8373251423758 418.790482243984 L 701.8373251423759 427.209517756016" stroke-miterlimit="10" stroke-dasharray=""/></g><g><path fill="none" stroke="#000000" paint-order="fill stroke markers" d=" M 810 421 L 874 421" stroke-miterlimit="10" stroke-dasharray=""/></g><g><path fill="#000000" stroke="none" paint-order="stroke fill markers" d=" M 863.8373251423759 425.209517756016 L 874 421 L 863.8373251423758 416.790482243984"/></g><g><path fill="none" stroke="#000000" paint-order="fill stroke markers" d=" M 863.8373251423759 425.209517756016 L 874 421 L 863.8373251423758 416.790482243984 L 863.8373251423759 425.209517756016" stroke-miterlimit="10" stroke-dasharray=""/></g><g><path fill="none" stroke="#000000" paint-order="fill stroke markers" d=" M 874 438 L 874 524 L 874 524 A 8 8 0 0 1 866 532 L 600 532 L 600 532 A 8 8 0 0 1 592 524 L 592 448" stroke-miterlimit="10" stroke-dasharray=""/></g><g><path fill="#000000" stroke="none" paint-order="stroke fill markers" d=" M 596.209517756016 458.1626748576241 L 592 448 L 587.790482243984 458.1626748576241"/></g><g><path fill="none" stroke="#000000" paint-order="fill stroke markers" d=" M 596.209517756016 458.1626748576241 L 592 448 L 587.790482243984 458.1626748576241 L 596.209517756016 458.1626748576241" stroke-miterlimit="10" stroke-dasharray=""/></g><g><rect fill="#ffffff" stroke="none" x="785" y="601" width="19.734375" height="16" transform="matrix(1 0 0 1 -62 -62)"/></g><g><g><path fill="none" stroke="none"/><text fill="#000000" stroke="none" font-family="Arial" font-size="16px" font-style="normal" font-weight="normal" text-decoration="undefined" x="794.8671875" y="609" text-anchor="middle" dominant-baseline="central" transform="matrix(1 0 0 1 -62 -62)">Да</text></g></g><g><path fill="none" stroke="#000000" paint-order="fill stroke markers" d=" M 906 417 L 1018 417" stroke-miterlimit="10" stroke-dasharray=""/></g><g><path fill="#000000" stroke="none" paint-order="stroke fill markers" d=" M 1007.8373251423759 421.209517756016 L 1018 417 L 1007.8373251423759 412.790482243984"/></g><g><path fill="none" stroke="#000000" paint-order="fill stroke markers" d=" M 1007.8373251423759 421.209517756016 L 1018 417 L 1007.8373251423759 412.790482243984 L 1007.8373251423759 421.209517756016" stroke-miterlimit="10" stroke-dasharray=""/></g><g><rect fill="#ffffff" stroke="none" x="1011" y="456" width="27.25" height="16" transform="matrix(1 0 0 1 -62 -62)"/></g><g><g><path fill="none" stroke="none"/><text fill="#000000" stroke="none" font-family="Arial" font-size="16px" font-style="normal" font-weight="normal" text-decoration="undefined" x="1024.625" y="464" text-anchor="middle" dominant-baseline="central" transform="matrix(1 0 0 1 -62 -62)">Нет</text></g></g><g><path fill="#C0C0C0" stroke="none" paint-order="stroke fill markers" d=" M 1367 107 L 1389.4 107 L 1399 116.6 L 1399 147 L 1367 147" fill-opacity="0.2"/></g><g><path fill="#ffffff" stroke="none" paint-order="stroke fill markers" d=" M 1360 100 L 1382.4 100 L 1392 109.6 L 1392 140 L 1360 140"/></g><g><path fill="none" stroke="#000000" paint-order="fill stroke markers" d=" M 1360 100 L 1382.4 100 L 1392 109.6 L 1392 140 L 1360 140 L 1360 100" stroke-miterlimit="10" stroke-dasharray=""/></g><g><path fill="none" stroke="#000000" paint-order="fill stroke markers" d=" M 1382.4 100 L 1382.4 109.6 L 1392 109.6 L 1382.4 100" stroke-miterlimit="10" stroke-dasharray=""/></g><g><rect fill="#ffffff" stroke="none" x="1341" y="210" width="194" height="16" transform="matrix(1 0 0 1 -62 -62)"/></g><g><g><path fill="none" stroke="none"/><text fill="#000000" stroke="none" font-family="Arial" font-size="16px" font-style="normal" font-weight="normal" text-decoration="undefined" x="1438" y="218" text-anchor="middle" dominant-baseline="central" transform="matrix(1 0 0 1 -62 -62)">Отобразить новую ссылку</text></g></g><g><path fill="#C0C0C0" stroke="none" paint-order="stroke fill markers" d=" M 1547 123 C 1547 114.16344319999999 1554.1634432 107 1563 107 C 1571.8365568 107 1579 114.16344319999999 1579 123 C 1579 131.8365568 1571.8365568 139 1563 139 C 1554.1634432 139 1547 131.8365568 1547 123 Z" fill-opacity="0.2"/></g><g><path fill="#ffffff" stroke="none" paint-order="stroke fill markers" d=" M 1540 116 C 1540 107.16344319999999 1547.1634432 100 1556 100 C 1564.8365568 100 1572 107.16344319999999 1572 116 C 1572 124.83655680000001 1564.8365568 132 1556 132 C 1547.1634432 132 1540 124.83655680000001 1540 116 Z"/></g><g><path fill="none" stroke="#000000" paint-order="fill stroke markers" d=" M 1540 116 C 1540 107.16344319999999 1547.1634432 100 1556 100 C 1564.8365568 100 1572 107.16344319999999 1572 116 C 1572 124.83655680000001 1564.8365568 132 1556 132 C 1547.1634432 132 1540 124.83655680000001 1540 116 Z" stroke-miterlimit="10" stroke-width="3" stroke-dasharray=""/></g><g><rect fill="#ffffff" stroke="none" x="1532.96875" y="198" width="170.0625" height="32" transform="matrix(1 0 0 1 -62 -62)"/></g><g><g><path fill="none" stroke="none"/><text fill="#000000" stroke="none" font-family="Arial" font-size="16px" font-style="normal" font-weight="normal" text-decoration="undefined" x="1618" y="206" text-anchor="middle" dominant-baseline="central" transform="matrix(1 0 0 1 -62 -62)">Создание новой</text><text fill="#000000" stroke="none" font-family="Arial" font-size="16px" font-style="normal" font-weight="normal" text-decoration="undefined" x="1618" y="222" text-anchor="middle" dominant-baseline="central" transform="matrix(1 0 0 1 -62 -62)">ссылке завершено</text></g></g><g><path fill="none" stroke="#000000" paint-order="fill stroke markers" d=" M 467 158 L 467 398 L 467 398 A 8 8 0 0 0 475 406 L 532 406" stroke-miterlimit="10" stroke-dasharray=""/></g><g><path fill="#000000" stroke="none" paint-order="stroke fill markers" d=" M 521.8373251423759 410.209517756016 L 532 406 L 521.8373251423758 401.790482243984"/></g><g><path fill="none" stroke="#000000" paint-order="fill stroke markers" d=" M 521.8373251423759 410.209517756016 L 532 406 L 521.8373251423758 401.790482243984 L 521.8373251423759 410.209517756016" stroke-miterlimit="10" stroke-dasharray=""/></g><g><path fill="none" stroke="#000000" paint-order="fill stroke markers" d=" M 1116 403 L 1162 403" stroke-miterlimit="10" stroke-dasharray=""/></g><g><path fill="#000000" stroke="none" paint-order="stroke fill markers" d=" M 1151.837325142376 407.209517756016 L 1162 403 L 1151.837325142376 398.790482243984"/></g><g><path fill="none" stroke="#000000" paint-order="fill stroke markers" d=" M 1151.837325142376 407.209517756016 L 1162 403 L 1151.837325142376 398.790482243984 L 1151.837325142376 407.209517756016" stroke-miterlimit="10" stroke-dasharray=""/></g><g><path fill="none" stroke="#000000" paint-order="fill stroke markers" d=" M 1294 334 L 1357 334 L 1357 334 A 8 8 0 0 0 1365 326 L 1365 140" stroke-miterlimit="10" stroke-dasharray=""/></g><g><path fill="#000000" stroke="none" paint-order="stroke fill markers" d=" M 1369.2095177560159 150.16267485762415 L 1365 140 L 1360.7904822439841 150.16267485762415"/></g><g><path fill="none" stroke="#000000" paint-order="fill stroke markers" d=" M 1369.2095177560159 150.16267485762415 L 1365 140 L 1360.7904822439841 150.16267485762415 L 1369.2095177560159 150.16267485762415" stroke-miterlimit="10" stroke-dasharray=""/></g><g><path fill="none" stroke="#000000" paint-order="fill stroke markers" d=" M 1392 120 L 1540 120" stroke-miterlimit="10" stroke-dasharray=""/></g><g><path fill="#000000" stroke="none" paint-order="stroke fill markers" d=" M 1529.837325142376 124.209517756016 L 1540 120 L 1529.837325142376 115.790482243984"/></g><g><path fill="none" stroke="#000000" paint-order="fill stroke markers" d=" M 1529.837325142376 124.209517756016 L 1540 120 L 1529.837325142376 115.790482243984 L 1529.837325142376 124.209517756016" stroke-miterlimit="10" stroke-dasharray=""/></g><g><path fill="none" stroke="#000000" paint-order="fill stroke markers" d=" M 186 126 L 388 126" stroke-miterlimit="10" stroke-dasharray=""/></g><g><path fill="#000000" stroke="none" paint-order="stroke fill markers" d=" M 377.83732514237585 130.209517756016 L 388 126 L 377.83732514237585 121.790482243984"/></g><g><path fill="none" stroke="#000000" paint-order="fill stroke markers" d=" M 377.83732514237585 130.209517756016 L 388 126 L 377.83732514237585 121.790482243984 L 377.83732514237585 130.209517756016" stroke-miterlimit="10" stroke-dasharray=""/></g><g><path fill="none" stroke="#000000" paint-order="fill stroke markers" d=" M 10 640 L 1684 640 L 1684 780.71875 L 10 780.71875 L 10 640 Z Z" stroke-miterlimit="10" stroke-dasharray=""/></g><g><path fill="none" stroke="#000000" paint-order="fill stroke markers" d=" M 36 640 L 36 780.71875" stroke-miterlimit="10" stroke-dasharray=""/></g><g><g><path fill="none" stroke="none"/><text fill="#000000" stroke="none" font-family="Arial" font-size="16px" font-style="normal" font-weight="normal" text-decoration="undefined" x="0" y="0" text-anchor="middle" dominant-baseline="text-before-edge" transform="matrix(6.123233995736766e-17 -1 1 6.123233995736766e-17 15 710.359375)">База данных</text></g></g><g><path fill="none" stroke="#000000" paint-order="fill stroke markers" d=" M 770 446 L 770 640" stroke-miterlimit="10" stroke-dasharray=""/></g><g><path fill="#000000" stroke="none" paint-order="stroke fill markers" d=" M 765.790482243984 629.8373251423759 L 770 640 L 774.209517756016 629.8373251423759"/></g><g><path fill="none" stroke="#000000" paint-order="fill stroke markers" d=" M 765.790482243984 629.8373251423759 L 770 640 L 774.209517756016 629.8373251423759 L 765.790482243984 629.8373251423759" stroke-miterlimit="10" stroke-dasharray=""/></g><g><path fill="none" stroke="#000000" paint-order="fill stroke markers" d=" M 1040 444 L 1040 640" stroke-miterlimit="10" stroke-dasharray=""/></g><g><path fill="#000000" stroke="none" paint-order="stroke fill markers" d=" M 1035.7904822439841 629.8373251423759 L 1040 640 L 1044.2095177560159 629.8373251423759"/></g><g><path fill="none" stroke="#000000" paint-order="fill stroke markers" d=" M 1035.7904822439841 629.8373251423759 L 1040 640 L 1044.2095177560159 629.8373251423759 L 1035.7904822439841 629.8373251423759" stroke-miterlimit="10" stroke-dasharray=""/></g><g><path fill="none" stroke="#000000" paint-order="fill stroke markers" d=" M 1162 456 L 1162 640" stroke-miterlimit="10" stroke-dasharray=""/></g><g><path fill="#000000" stroke="none" paint-order="stroke fill markers" d=" M 1157.7904822439841 629.8373251423759 L 1162 640 L 1166.2095177560159 629.8373251423759"/></g><g><path fill="none" stroke="#000000" paint-order="fill stroke markers" d=" M 1157.7904822439841 629.8373251423759 L 1162 640 L 1166.2095177560159 629.8373251423759 L 1157.7904822439841 629.8373251423759" stroke-miterlimit="10" stroke-dasharray=""/></g></g></svg>