<svg version="1.1" xmlns="http://www.w3.org/2000/svg" xmlns:xlink="http://www.w3.org/1999/xlink" width="540" height="514"><defs/><g><g><rect fill="#ffffff" stroke="none" x="464" y="36" width="191.5" height="33" transform="matrix(1 0 0 1 -404 -22)"/></g><g><path fill="#ffffff" stroke="none" paint-order="stroke fill markers" d=" M 251.5 14 A 16.5 16.5 0 0 1 251.5 47"/></g><g><path fill="none" stroke="#000000" paint-order="fill stroke markers" d=" M 60 14 L 60 47" stroke-miterlimit="10" stroke-dasharray=""/></g><g><path fill="none" stroke="#000000" paint-order="fill stroke markers" d=" M 60 14 L 251.5 14" stroke-miterlimit="10" stroke-dasharray=""/></g><g><path fill="none" stroke="#000000" paint-order="fill stroke markers" d=" M 60 47 L 251.5 47" stroke-miterlimit="10" stroke-dasharray=""/></g><g><path fill="none" stroke="#000000" paint-order="fill stroke markers" d=" M 251.5 14 A 16.5 16.5 0 0 1 251.5 47" stroke-miterlimit="10" stroke-dasharray=""/></g><g><g><path fill="none" stroke="none"/><text fill="#000000" stroke="none" font-family="Arial" font-size="13px" font-style="normal" font-weight="normal" text-decoration="undefined" x="552" y="52.5" text-anchor="middle" dominant-baseline="central" transform="matrix(1 0 0 1 -404 -22)">GET /accounts/{accountId}</text></g></g><g><path fill="#ffffff" stroke="#000000" paint-order="fill stroke markers" d=" M 396 39.5 L 416 10 L 496.3310546875 10 Q 516.3310546875 10 516.3310546875 39.5 Q 516.3310546875 69 496.3310546875 69 L 416 69 L 396 39.5 Z" stroke-miterlimit="10" stroke-dasharray=""/></g><g><g><path fill="none" stroke="none"/><text fill="#000000" stroke="none" font-family="Arial" font-size="13px" font-style="normal" font-weight="normal" text-decoration="undefined" x="860.16552734375" y="48.5" text-anchor="middle" dominant-baseline="central" transform="matrix(1 0 0 1 -404 -22)">Заголовки</text><text fill="#000000" stroke="none" font-family="Arial" font-size="13px" font-style="normal" font-weight="normal" text-decoration="undefined" x="860.16552734375" y="61.5" text-anchor="middle" dominant-baseline="central" transform="matrix(1 0 0 1 -404 -22)">запроса</text><text fill="#000000" stroke="none" font-family="Arial" font-size="13px" font-style="normal" font-weight="normal" text-decoration="undefined" x="860.16552734375" y="74.5" text-anchor="middle" dominant-baseline="central" transform="matrix(1 0 0 1 -404 -22)">(Авторизирован)</text></g></g><g><path fill="#ffffff" stroke="none" paint-order="stroke fill markers" d=" M 57 90 L 284 90 L 239 123 L 12 123 L 57 90"/></g><g><path fill="none" stroke="#000000" paint-order="fill stroke markers" d=" M 57 90 L 284 90 L 239 123 L 12 123 L 57 90 L 57 90" stroke-miterlimit="10" stroke-dasharray=""/></g><g><g><path fill="none" stroke="none"/><text fill="#000000" stroke="none" font-family="Arial" font-size="13px" font-style="normal" font-weight="normal" text-decoration="undefined" x="552" y="128.5" text-anchor="middle" dominant-baseline="central" transform="matrix(1 0 0 1 -404 -22)">GetAccountRequest</text></g></g><g><path fill="#ffffff" stroke="none" paint-order="stroke fill markers" d=" M 67 194 L 237 194 Q 260 194 260 217 L 260 217 Q 260 240 237 240 L 67 240 Q 44 240 44 217 L 44 217 Q 44 194 67 194 Z"/></g><g><path fill="none" stroke="#000000" paint-order="fill stroke markers" d=" M 67 194 L 237 194 Q 260 194 260 217 L 260 217 Q 260 240 237 240 L 67 240 Q 44 240 44 217 L 44 217 Q 44 194 67 194 Z" stroke-miterlimit="10" stroke-dasharray=""/></g><g><g><path fill="none" stroke="none"/><text fill="#000000" stroke="none" font-family="Arial" font-size="13px" font-style="normal" font-weight="normal" text-decoration="undefined" x="556" y="232.5" text-anchor="middle" dominant-baseline="central" transform="matrix(1 0 0 1 -404 -22)">Открыт ли аккаунт для</text><text fill="#000000" stroke="none" font-family="Arial" font-size="13px" font-style="normal" font-weight="normal" text-decoration="undefined" x="556" y="245.5" text-anchor="middle" dominant-baseline="central" transform="matrix(1 0 0 1 -404 -22)">просмотра</text></g></g><g><path fill="#ffffff" stroke="none" paint-order="stroke fill markers" d=" M 187 284 L 405 284 Q 428 284 428 307 L 428 307 Q 428 330 405 330 L 187 330 Q 164 330 164 307 L 164 307 Q 164 284 187 284 Z"/></g><g><path fill="none" stroke="#000000" paint-order="fill stroke markers" d=" M 187 284 L 405 284 Q 428 284 428 307 L 428 307 Q 428 330 405 330 L 187 330 Q 164 330 164 307 L 164 307 Q 164 284 187 284 Z" stroke-miterlimit="10" stroke-dasharray=""/></g><g><g><path fill="none" stroke="none"/><text fill="#000000" stroke="none" font-family="Arial" font-size="13px" font-style="normal" font-weight="normal" text-decoration="undefined" x="700" y="322.5" text-anchor="middle" dominant-baseline="central" transform="matrix(1 0 0 1 -404 -22)">Есть ли доступ у юзера на просмотр</text><text fill="#000000" stroke="none" font-family="Arial" font-size="13px" font-style="normal" font-weight="normal" text-decoration="undefined" x="700" y="335.5" text-anchor="middle" dominant-baseline="central" transform="matrix(1 0 0 1 -404 -22)">аккаунта</text></g></g><g><path fill="none" stroke="#000000" paint-order="fill stroke markers" d=" M 197 240 L 197 284" stroke-miterlimit="10" stroke-dasharray=""/></g><g><path fill="#000000" stroke="none" paint-order="stroke fill markers" d=" M 192.790482243984 273.83732514237585 L 197 284 L 201.209517756016 273.83732514237585"/></g><g><path fill="none" stroke="#000000" paint-order="fill stroke markers" d=" M 192.790482243984 273.83732514237585 L 197 284 L 201.209517756016 273.83732514237585 L 192.790482243984 273.83732514237585" stroke-miterlimit="10" stroke-dasharray=""/></g><g><rect fill="#ffffff" stroke="none" x="604" y="277" width="22.140625" height="13" transform="matrix(1 0 0 1 -404 -22)"/></g><g><g><path fill="none" stroke="none"/><text fill="#000000" stroke="none" font-family="Arial" font-size="13px" font-style="normal" font-weight="normal" text-decoration="undefined" x="615.0703125" y="283.5" text-anchor="middle" dominant-baseline="central" transform="matrix(1 0 0 1 -404 -22)">Нет</text></g></g><g><path fill="#ffffff" stroke="none" paint-order="stroke fill markers" d=" M 500 177 C 500 168.715728 506.715728 162 515 162 C 523.284272 162 530 168.715728 530 177 C 530 185.284272 523.284272 192 515 192 C 506.715728 192 500 185.284272 500 177 Z"/></g><g><path fill="none" stroke="#000000" paint-order="fill stroke markers" d=" M 500 177 C 500 168.715728 506.715728 162 515 162 C 523.284272 162 530 168.715728 530 177 C 530 185.284272 523.284272 192 515 192 C 506.715728 192 500 185.284272 500 177 Z" stroke-miterlimit="10" stroke-dasharray=""/></g><g><g><path fill="none" stroke="none"/></g></g><g><path fill="none" stroke="#000000" paint-order="fill stroke markers" d=" M 428 289 L 492 289 L 492 289 A 8 8 0 0 0 500 281 L 500 192" stroke-miterlimit="10" stroke-dasharray=""/></g><g><path fill="#000000" stroke="none" paint-order="stroke fill markers" d=" M 504.209517756016 202.16267485762415 L 500 192 L 495.790482243984 202.16267485762415"/></g><g><path fill="none" stroke="#000000" paint-order="fill stroke markers" d=" M 504.209517756016 202.16267485762415 L 500 192 L 495.790482243984 202.16267485762415 L 504.209517756016 202.16267485762415" stroke-miterlimit="10" stroke-dasharray=""/></g><g><rect fill="#ffffff" stroke="none" x="878" y="304" width="22.140625" height="13" transform="matrix(1 0 0 1 -404 -22)"/></g><g><g><path fill="none" stroke="none"/><text fill="#000000" stroke="none" font-family="Arial" font-size="13px" font-style="normal" font-weight="normal" text-decoration="undefined" x="889.0703125" y="310.5" text-anchor="middle" dominant-baseline="central" transform="matrix(1 0 0 1 -404 -22)">Нет</text></g></g><g><rect fill="#ffffff" stroke="none" x="432" y="396" width="272" height="56" transform="matrix(1 0 0 1 -404 -22)"/></g><g><path fill="none" stroke="#000000" paint-order="fill stroke markers" d=" M 28 374 L 300 374 L 300 430 L 28 430 L 28 374 Z Z" stroke-miterlimit="10" stroke-dasharray=""/></g><g><g><path fill="none" stroke="none"/><text fill="#000000" stroke="none" font-family="Arial" font-size="13px" font-style="normal" font-weight="normal" text-decoration="undefined" x="568" y="412.5" text-anchor="middle" dominant-baseline="central" transform="matrix(1 0 0 1 -404 -22)">Извлечь информацию о пользователе</text></g></g><g><path fill="none" stroke="#000000" paint-order="fill stroke markers" d=" M 154 240 L 154 374" stroke-miterlimit="10" stroke-dasharray=""/></g><g><path fill="#000000" stroke="none" paint-order="stroke fill markers" d=" M 149.790482243984 363.83732514237585 L 154 374 L 158.209517756016 363.83732514237585"/></g><g><path fill="none" stroke="#000000" paint-order="fill stroke markers" d=" M 149.790482243984 363.83732514237585 L 154 374 L 158.209517756016 363.83732514237585 L 149.790482243984 363.83732514237585" stroke-miterlimit="10" stroke-dasharray=""/></g><g><path fill="#ffffff" stroke="none" paint-order="stroke fill markers" d=" M 56 464 L 290 464 L 244 504 L 10 504 L 56 464"/></g><g><path fill="none" stroke="#000000" paint-order="fill stroke markers" d=" M 56 464 L 290 464 L 244 504 L 10 504 L 56 464 L 56 464" stroke-miterlimit="10" stroke-dasharray=""/></g><g><g><path fill="none" stroke="none"/><text fill="#000000" stroke="none" font-family="Arial" font-size="13px" font-style="normal" font-weight="normal" text-decoration="undefined" x="554" y="502.5" text-anchor="middle" dominant-baseline="central" transform="matrix(1 0 0 1 -404 -22)">GetAccountResponse</text></g></g><g><path fill="none" stroke="#000000" paint-order="fill stroke markers" d=" M 163 430 L 163 464" stroke-miterlimit="10" stroke-dasharray=""/></g><g><path fill="#000000" stroke="none" paint-order="stroke fill markers" d=" M 158.790482243984 453.83732514237585 L 163 464 L 167.209517756016 453.83732514237585"/></g><g><path fill="none" stroke="#000000" paint-order="fill stroke markers" d=" M 158.790482243984 453.83732514237585 L 163 464 L 167.209517756016 453.83732514237585 L 158.790482243984 453.83732514237585" stroke-miterlimit="10" stroke-dasharray=""/></g><g><path fill="none" stroke="#000000" paint-order="fill stroke markers" d=" M 257 330 L 257 374" stroke-miterlimit="10" stroke-dasharray=""/></g><g><path fill="#000000" stroke="none" paint-order="stroke fill markers" d=" M 252.790482243984 363.83732514237585 L 257 374 L 261.209517756016 363.83732514237585"/></g><g><path fill="none" stroke="#000000" paint-order="fill stroke markers" d=" M 252.790482243984 363.83732514237585 L 257 374 L 261.209517756016 363.83732514237585 L 252.790482243984 363.83732514237585" stroke-miterlimit="10" stroke-dasharray=""/></g><g><path fill="none" stroke="#000000" paint-order="fill stroke markers" d=" M 160 47 L 160 90" stroke-miterlimit="10" stroke-dasharray=""/></g><g><path fill="#000000" stroke="none" paint-order="stroke fill markers" d=" M 155.790482243984 79.83732514237585 L 160 90 L 164.209517756016 79.83732514237585"/></g><g><path fill="none" stroke="#000000" paint-order="fill stroke markers" d=" M 155.790482243984 79.83732514237585 L 160 90 L 164.209517756016 79.83732514237585 L 155.790482243984 79.83732514237585" stroke-miterlimit="10" stroke-dasharray=""/></g><g><path fill="none" stroke="#000000" paint-order="fill stroke markers" d=" M 396 69 L 396 82 L 396 82 A 8 8 0 0 1 388 90 L 284 90" stroke-miterlimit="10" stroke-dasharray=""/></g><g><path fill="#000000" stroke="none" paint-order="stroke fill markers" d=" M 294.1626748576241 85.79048224398402 L 284 90 L 294.1626748576241 94.20951775601598"/></g><g><path fill="none" stroke="#000000" paint-order="fill stroke markers" d=" M 294.1626748576241 85.79048224398402 L 284 90 L 294.1626748576241 94.20951775601598 L 294.1626748576241 85.79048224398402" stroke-miterlimit="10" stroke-dasharray=""/></g><g><path fill="#ffffff" stroke="none" paint-order="stroke fill markers" d=" M 28 140 L 281.9453125 140 Q 299.9453125 140 299.9453125 158 L 299.9453125 158 Q 299.9453125 176 281.9453125 176 L 28 176 Q 10 176 10 158 L 10 158 Q 10 140 28 140 Z"/></g><g><path fill="none" stroke="#000000" paint-order="fill stroke markers" d=" M 28 140 L 281.9453125 140 Q 299.9453125 140 299.9453125 158 L 299.9453125 158 Q 299.9453125 176 281.9453125 176 L 28 176 Q 10 176 10 158 L 10 158 Q 10 140 28 140 Z" stroke-miterlimit="10" stroke-dasharray=""/></g><g><g><path fill="none" stroke="none"/><text fill="#000000" stroke="none" font-family="Arial" font-size="16px" font-style="normal" font-weight="normal" text-decoration="undefined" x="558.97265625" y="180" text-anchor="middle" dominant-baseline="central" transform="matrix(1 0 0 1 -404 -22)">Указанный аккаунт не заблокирован</text></g></g><g><path fill="none" stroke="#000000" paint-order="fill stroke markers" d=" M 150 123 L 150 140" stroke-miterlimit="10" stroke-dasharray=""/></g><g><path fill="#000000" stroke="none" paint-order="stroke fill markers" d=" M 145.790482243984 129.83732514237585 L 150 140 L 154.209517756016 129.83732514237585"/></g><g><path fill="none" stroke="#000000" paint-order="fill stroke markers" d=" M 145.790482243984 129.83732514237585 L 150 140 L 154.209517756016 129.83732514237585 L 145.790482243984 129.83732514237585" stroke-miterlimit="10" stroke-dasharray=""/></g><g><path fill="none" stroke="#000000" paint-order="fill stroke markers" d=" M 153 176 L 153 194" stroke-miterlimit="10" stroke-dasharray=""/></g><g><path fill="#000000" stroke="none" paint-order="stroke fill markers" d=" M 148.790482243984 183.83732514237585 L 153 194 L 157.209517756016 183.83732514237585"/></g><g><path fill="none" stroke="#000000" paint-order="fill stroke markers" d=" M 148.790482243984 183.83732514237585 L 153 194 L 157.209517756016 183.83732514237585 L 148.790482243984 183.83732514237585" stroke-miterlimit="10" stroke-dasharray=""/></g></g></svg>