<svg version="1.1" xmlns="http://www.w3.org/2000/svg" xmlns:xlink="http://www.w3.org/1999/xlink" width="542" height="668"><defs/><g><g><path fill="#ffffff" stroke="none" paint-order="stroke fill markers" d=" M 172 44 L 208 10 L 352 10 L 388 44 L 352 78 L 208 78 L 172 44"/></g><g><path fill="none" stroke="#000000" paint-order="fill stroke markers" d=" M 172 44 L 208 10 L 352 10 L 388 44 L 352 78 L 208 78 L 172 44 L 172 44" stroke-miterlimit="10" stroke-dasharray=""/></g><g><g><path fill="none" stroke="none"/><text fill="#000000" stroke="none" font-family="Arial" font-size="16px" font-style="normal" font-weight="normal" text-decoration="undefined" x="738" y="108" text-anchor="middle" dominant-baseline="central" transform="matrix(1 0 0 1 -458 -80)">Участник</text><text fill="#000000" stroke="none" font-family="Arial" font-size="16px" font-style="normal" font-weight="normal" text-decoration="undefined" x="738" y="124" text-anchor="middle" dominant-baseline="central" transform="matrix(1 0 0 1 -458 -80)">пропустил</text><text fill="#000000" stroke="none" font-family="Arial" font-size="16px" font-style="normal" font-weight="normal" text-decoration="undefined" x="738" y="140" text-anchor="middle" dominant-baseline="central" transform="matrix(1 0 0 1 -458 -80)">челлендж</text></g></g><g><path fill="#ffffff" stroke="none" paint-order="stroke fill markers" d=" M 97 118 L 532 118 L 445 154 L 10 154 L 97 118"/></g><g><path fill="none" stroke="#000000" paint-order="fill stroke markers" d=" M 97 118 L 532 118 L 445 154 L 10 154 L 97 118 L 97 118" stroke-miterlimit="10" stroke-dasharray=""/></g><g><g><path fill="none" stroke="none"/><text fill="#000000" stroke="none" font-family="Arial" font-size="16px" font-style="normal" font-weight="normal" text-decoration="undefined" x="729" y="216" text-anchor="middle" dominant-baseline="central" transform="matrix(1 0 0 1 -458 -80)">MemberSkippedChallangeTriggerModel</text></g></g><g><path fill="none" stroke="#000000" paint-order="fill stroke markers" d=" M 277 78 L 277 118" stroke-miterlimit="10" stroke-dasharray=""/></g><g><path fill="#000000" stroke="none" paint-order="stroke fill markers" d=" M 272.790482243984 107.83732514237585 L 277 118 L 281.209517756016 107.83732514237585"/></g><g><path fill="none" stroke="#000000" paint-order="fill stroke markers" d=" M 272.790482243984 107.83732514237585 L 277 118 L 281.209517756016 107.83732514237585 L 272.790482243984 107.83732514237585" stroke-miterlimit="10" stroke-dasharray=""/></g><g><rect fill="#ffffff" stroke="none" x="504" y="288" width="432" height="52" transform="matrix(1 0 0 1 -458 -80)"/></g><g><path fill="none" stroke="#000000" paint-order="fill stroke markers" d=" M 46 208 L 478 208 L 478 260 L 46 260 L 46 208 Z Z" stroke-miterlimit="10" stroke-dasharray=""/></g><g><g><path fill="none" stroke="none"/><text fill="#000000" stroke="none" font-family="Arial" font-size="16px" font-style="normal" font-weight="normal" text-decoration="undefined" x="720" y="306" text-anchor="middle" dominant-baseline="central" transform="matrix(1 0 0 1 -458 -80)">Извлечь все вызовы к участнику по указанному</text><text fill="#000000" stroke="none" font-family="Arial" font-size="16px" font-style="normal" font-weight="normal" text-decoration="undefined" x="720" y="322" text-anchor="middle" dominant-baseline="central" transform="matrix(1 0 0 1 -458 -80)">челленджу </text></g></g><g><rect fill="#ffffff" stroke="none" x="504" y="378" width="432" height="52" transform="matrix(1 0 0 1 -458 -80)"/></g><g><path fill="none" stroke="#000000" paint-order="fill stroke markers" d=" M 46 298 L 478 298 L 478 350 L 46 350 L 46 298 Z Z" stroke-miterlimit="10" stroke-dasharray=""/></g><g><g><path fill="none" stroke="none"/><text fill="#000000" stroke="none" font-family="Arial" font-size="16px" font-style="normal" font-weight="normal" text-decoration="undefined" x="720" y="396" text-anchor="middle" dominant-baseline="central" transform="matrix(1 0 0 1 -458 -80)">Вернуть коины инициаторам которые создавали вызов</text></g></g><g><rect fill="#ffffff" stroke="none" x="504" y="468" width="432" height="36" transform="matrix(1 0 0 1 -458 -80)"/></g><g><path fill="none" stroke="#000000" paint-order="fill stroke markers" d=" M 46 388 L 478 388 L 478 424 L 46 424 L 46 388 Z Z" stroke-miterlimit="10" stroke-dasharray=""/></g><g><g><path fill="none" stroke="none"/><text fill="#000000" stroke="none" font-family="Arial" font-size="16px" font-style="normal" font-weight="normal" text-decoration="undefined" x="720" y="486" text-anchor="middle" dominant-baseline="central" transform="matrix(1 0 0 1 -458 -80)">Добавить транзакции инициаторам на возврат средств</text></g></g><g><rect fill="#ffffff" stroke="none" x="504" y="540" width="432" height="36" transform="matrix(1 0 0 1 -458 -80)"/></g><g><path fill="none" stroke="#000000" paint-order="fill stroke markers" d=" M 46 460 L 478 460 L 478 496 L 46 496 L 46 460 Z Z" stroke-miterlimit="10" stroke-dasharray=""/></g><g><g><path fill="none" stroke="none"/><text fill="#000000" stroke="none" font-family="Arial" font-size="16px" font-style="normal" font-weight="normal" text-decoration="undefined" x="720" y="558" text-anchor="middle" dominant-baseline="central" transform="matrix(1 0 0 1 -458 -80)">Отправить уведомление об возврате средств </text></g></g><g><rect fill="#FFFFFF" stroke="none" x="504" y="612" width="432" height="54" transform="matrix(1 0 0 1 -458 -80)"/></g><g><path fill="none" stroke="#000000" paint-order="fill stroke markers" d=" M 46 532 L 478 532 L 478 586 L 46 586 L 46 532 Z Z" stroke-miterlimit="10" stroke-dasharray=""/></g><g><g><path fill="none" stroke="none"/><text fill="#000000" stroke="none" font-family="Arial" font-size="16px" font-style="normal" font-weight="normal" text-decoration="undefined" x="720" y="630" text-anchor="middle" dominant-baseline="central" transform="matrix(1 0 0 1 -458 -80)">Удалить запись в таблице ожидания выполнения</text><text fill="#000000" stroke="none" font-family="Arial" font-size="16px" font-style="normal" font-weight="normal" text-decoration="undefined" x="720" y="646" text-anchor="middle" dominant-baseline="central" transform="matrix(1 0 0 1 -458 -80)">задания</text></g></g><g><rect fill="#ffffff" stroke="none" x="504" y="684" width="432" height="54" transform="matrix(1 0 0 1 -458 -80)"/></g><g><path fill="none" stroke="#000000" paint-order="fill stroke markers" d=" M 46 604 L 478 604 L 478 658 L 46 658 L 46 604 Z Z" stroke-miterlimit="10" stroke-dasharray=""/></g><g><g><path fill="none" stroke="none"/><text fill="#000000" stroke="none" font-family="Arial" font-size="16px" font-style="normal" font-weight="normal" text-decoration="undefined" x="720" y="702" text-anchor="middle" dominant-baseline="central" transform="matrix(1 0 0 1 -458 -80)">Добавить запись в историю вызовов об провале для</text><text fill="#000000" stroke="none" font-family="Arial" font-size="16px" font-style="normal" font-weight="normal" text-decoration="undefined" x="720" y="718" text-anchor="middle" dominant-baseline="central" transform="matrix(1 0 0 1 -458 -80)">участника</text></g></g><g><path fill="none" stroke="#000000" paint-order="fill stroke markers" d=" M 269 154 L 269 208" stroke-miterlimit="10" stroke-dasharray=""/></g><g><path fill="#000000" stroke="none" paint-order="stroke fill markers" d=" M 264.790482243984 197.83732514237585 L 269 208 L 273.209517756016 197.83732514237585"/></g><g><path fill="none" stroke="#000000" paint-order="fill stroke markers" d=" M 264.790482243984 197.83732514237585 L 269 208 L 273.209517756016 197.83732514237585 L 264.790482243984 197.83732514237585" stroke-miterlimit="10" stroke-dasharray=""/></g><g><path fill="none" stroke="#000000" paint-order="fill stroke markers" d=" M 262 260 L 262 298" stroke-miterlimit="10" stroke-dasharray=""/></g><g><path fill="#000000" stroke="none" paint-order="stroke fill markers" d=" M 257.790482243984 287.83732514237585 L 262 298 L 266.209517756016 287.83732514237585"/></g><g><path fill="none" stroke="#000000" paint-order="fill stroke markers" d=" M 257.790482243984 287.83732514237585 L 262 298 L 266.209517756016 287.83732514237585 L 257.790482243984 287.83732514237585" stroke-miterlimit="10" stroke-dasharray=""/></g><g><path fill="none" stroke="#000000" paint-order="fill stroke markers" d=" M 262 350 L 262 388" stroke-miterlimit="10" stroke-dasharray=""/></g><g><path fill="#000000" stroke="none" paint-order="stroke fill markers" d=" M 257.790482243984 377.83732514237585 L 262 388 L 266.209517756016 377.83732514237585"/></g><g><path fill="none" stroke="#000000" paint-order="fill stroke markers" d=" M 257.790482243984 377.83732514237585 L 262 388 L 266.209517756016 377.83732514237585 L 257.790482243984 377.83732514237585" stroke-miterlimit="10" stroke-dasharray=""/></g><g><path fill="none" stroke="#000000" paint-order="fill stroke markers" d=" M 262 424 L 262 460" stroke-miterlimit="10" stroke-dasharray=""/></g><g><path fill="#000000" stroke="none" paint-order="stroke fill markers" d=" M 257.790482243984 449.8373251423759 L 262 460 L 266.209517756016 449.8373251423759"/></g><g><path fill="none" stroke="#000000" paint-order="fill stroke markers" d=" M 257.790482243984 449.8373251423759 L 262 460 L 266.209517756016 449.8373251423759 L 257.790482243984 449.8373251423759" stroke-miterlimit="10" stroke-dasharray=""/></g><g><path fill="none" stroke="#000000" paint-order="fill stroke markers" d=" M 262 496 L 262 532" stroke-miterlimit="10" stroke-dasharray=""/></g><g><path fill="#000000" stroke="none" paint-order="stroke fill markers" d=" M 257.790482243984 521.8373251423759 L 262 532 L 266.209517756016 521.8373251423759"/></g><g><path fill="none" stroke="#000000" paint-order="fill stroke markers" d=" M 257.790482243984 521.8373251423759 L 262 532 L 266.209517756016 521.8373251423759 L 257.790482243984 521.8373251423759" stroke-miterlimit="10" stroke-dasharray=""/></g><g><path fill="none" stroke="#000000" paint-order="fill stroke markers" d=" M 262 586 L 262 604" stroke-miterlimit="10" stroke-dasharray=""/></g><g><path fill="#000000" stroke="none" paint-order="stroke fill markers" d=" M 257.790482243984 593.8373251423759 L 262 604 L 266.209517756016 593.8373251423759"/></g><g><path fill="none" stroke="#000000" paint-order="fill stroke markers" d=" M 257.790482243984 593.8373251423759 L 262 604 L 266.209517756016 593.8373251423759 L 257.790482243984 593.8373251423759" stroke-miterlimit="10" stroke-dasharray=""/></g></g></svg>