<svg version="1.1" xmlns="http://www.w3.org/2000/svg" xmlns:xlink="http://www.w3.org/1999/xlink" width="703.484375" height="1046"><defs/><g><g><rect fill="#ffffff" stroke="none" x="486" y="72" width="414" height="36" transform="matrix(1 0 0 1 -458 -62)"/></g><g><path fill="#ffffff" stroke="none" paint-order="stroke fill markers" d=" M 442 10 A 18 18 0 0 1 442 46"/></g><g><path fill="none" stroke="#000000" paint-order="fill stroke markers" d=" M 28 10 L 28 46" stroke-miterlimit="10" stroke-dasharray=""/></g><g><path fill="none" stroke="#000000" paint-order="fill stroke markers" d=" M 28 10 L 442 10" stroke-miterlimit="10" stroke-dasharray=""/></g><g><path fill="none" stroke="#000000" paint-order="fill stroke markers" d=" M 28 46 L 442 46" stroke-miterlimit="10" stroke-dasharray=""/></g><g><path fill="none" stroke="#000000" paint-order="fill stroke markers" d=" M 442 10 A 18 18 0 0 1 442 46" stroke-miterlimit="10" stroke-dasharray=""/></g><g><g><path fill="none" stroke="none"/><text fill="#000000" stroke="none" font-family="Arial" font-size="16px" font-style="normal" font-weight="normal" text-decoration="undefined" x="658" y="90" text-anchor="middle" dominant-baseline="central" transform="matrix(1 0 0 1 -458 -62)">POST /wallet/cards/create-form</text></g></g><g><path fill="#ffffff" stroke="none" paint-order="stroke fill markers" d=" M 94 100 L 424 100 L 358 136 L 28 136 L 94 100"/></g><g><path fill="none" stroke="#000000" paint-order="fill stroke markers" d=" M 94 100 L 424 100 L 358 136 L 28 136 L 94 100 L 94 100" stroke-miterlimit="10" stroke-dasharray=""/></g><g><g><path fill="none" stroke="none"/><text fill="#000000" stroke="none" font-family="Arial" font-size="16px" font-style="normal" font-weight="normal" text-decoration="undefined" x="684" y="180" text-anchor="middle" dominant-baseline="central" transform="matrix(1 0 0 1 -458 -62)">PostWalletCardsCreateFormRequest</text></g></g><g><path fill="#ffffff" stroke="none" paint-order="stroke fill markers" d=" M 89 1000 L 395.953125 1000 L 334.953125 1036 L 28 1036 L 89 1000"/></g><g><path fill="none" stroke="#000000" paint-order="fill stroke markers" d=" M 89 1000 L 395.953125 1000 L 334.953125 1036 L 28 1036 L 89 1000 L 89 1000" stroke-miterlimit="10" stroke-dasharray=""/></g><g><g><path fill="none" stroke="none"/><text fill="#000000" stroke="none" font-family="Arial" font-size="16px" font-style="normal" font-weight="normal" text-decoration="undefined" x="669.9765625" y="1080" text-anchor="middle" dominant-baseline="central" transform="matrix(1 0 0 1 -458 -62)">PostWalletCardsCreateFormResponse</text></g></g><g><path fill="#ffffff" stroke="#000000" paint-order="fill stroke markers" d=" M 550 44 L 573 10 L 670.484375 10 Q 693.484375 10 693.484375 44 Q 693.484375 78 670.484375 78 L 573 78 L 550 44 Z" stroke-miterlimit="10" stroke-dasharray=""/></g><g><g><path fill="none" stroke="none"/><text fill="#000000" stroke="none" font-family="Arial" font-size="16px" font-style="normal" font-weight="normal" text-decoration="undefined" x="1079.7421875" y="90" text-anchor="middle" dominant-baseline="central" transform="matrix(1 0 0 1 -458 -62)">Заголовки</text><text fill="#000000" stroke="none" font-family="Arial" font-size="16px" font-style="normal" font-weight="normal" text-decoration="undefined" x="1079.7421875" y="106" text-anchor="middle" dominant-baseline="central" transform="matrix(1 0 0 1 -458 -62)">запроса</text><text fill="#000000" stroke="none" font-family="Arial" font-size="16px" font-style="normal" font-weight="normal" text-decoration="undefined" x="1079.7421875" y="122" text-anchor="middle" dominant-baseline="central" transform="matrix(1 0 0 1 -458 -62)">(Авторизирован)</text></g></g><g><path fill="#ffffff" stroke="none" paint-order="stroke fill markers" d=" M 72 172 L 380 172 Q 406 172 406 198 L 406 198 Q 406 224 380 224 L 72 224 Q 46 224 46 198 L 46 198 Q 46 172 72 172 Z"/></g><g><path fill="none" stroke="#000000" paint-order="fill stroke markers" d=" M 72 172 L 380 172 Q 406 172 406 198 L 406 198 Q 406 224 380 224 L 72 224 Q 46 224 46 198 L 46 198 Q 46 172 72 172 Z" stroke-miterlimit="10" stroke-dasharray=""/></g><g><g><path fill="none" stroke="none"/><text fill="#000000" stroke="none" font-family="Arial" font-size="16px" font-style="normal" font-weight="normal" text-decoration="undefined" x="684" y="252" text-anchor="middle" dominant-baseline="central" transform="matrix(1 0 0 1 -458 -62)">количество привязанных карта &lt;</text><text fill="#000000" stroke="none" font-family="Arial" font-size="16px" font-style="normal" font-weight="normal" text-decoration="undefined" x="684" y="268" text-anchor="middle" dominant-baseline="central" transform="matrix(1 0 0 1 -458 -62)">допустимого количества </text></g></g><g><path fill="#ffffff" stroke="none" paint-order="stroke fill markers" d=" M 136 312 L 218.7109375 280 L 301.421875 312 L 218.7109375 344 L 136 312"/></g><g><path fill="none" stroke="#000000" paint-order="fill stroke markers" d=" M 136 312 L 218.7109375 280 L 301.421875 312 L 218.7109375 344 L 136 312 L 136 312" stroke-miterlimit="10" stroke-dasharray=""/></g><g><g><path fill="none" stroke="none"/><text fill="#000000" stroke="none" font-family="Arial" font-size="16px" font-style="normal" font-weight="normal" text-decoration="undefined" x="676.7109375" y="366" text-anchor="middle" dominant-baseline="central" transform="matrix(1 0 0 1 -458 -62)">Платёжная</text><text fill="#000000" stroke="none" font-family="Arial" font-size="16px" font-style="normal" font-weight="normal" text-decoration="undefined" x="676.7109375" y="382" text-anchor="middle" dominant-baseline="central" transform="matrix(1 0 0 1 -458 -62)">система</text></g></g><g><path fill="#ffffff" stroke="none" paint-order="stroke fill markers" d=" M 406 420 L 476.2578125 388 L 546.515625 420 L 476.2578125 452 L 406 420"/></g><g><path fill="none" stroke="#000000" paint-order="fill stroke markers" d=" M 406 420 L 476.2578125 388 L 546.515625 420 L 476.2578125 452 L 406 420 L 406 420" stroke-miterlimit="10" stroke-dasharray=""/></g><g><g><path fill="none" stroke="none"/><text fill="#000000" stroke="none" font-family="Arial" font-size="16px" font-style="normal" font-weight="normal" text-decoration="undefined" x="934.2578125" y="474" text-anchor="middle" dominant-baseline="central" transform="matrix(1 0 0 1 -458 -62)">Есть ли</text><text fill="#000000" stroke="none" font-family="Arial" font-size="16px" font-style="normal" font-weight="normal" text-decoration="undefined" x="934.2578125" y="490" text-anchor="middle" dominant-baseline="central" transform="matrix(1 0 0 1 -458 -62)">Customer</text></g></g><g><rect fill="#ffffff" stroke="none" x="882" y="540" width="89.3515625" height="52" transform="matrix(1 0 0 1 -458 -62)"/></g><g><path fill="none" stroke="#000000" paint-order="fill stroke markers" d=" M 424 478 L 513.3515625 478 L 513.3515625 530 L 424 530 L 424 478 Z Z" stroke-miterlimit="10" stroke-dasharray=""/></g><g><g><path fill="none" stroke="none"/><text fill="#000000" stroke="none" font-family="Arial" font-size="16px" font-style="normal" font-weight="normal" text-decoration="undefined" x="926.67578125" y="558" text-anchor="middle" dominant-baseline="central" transform="matrix(1 0 0 1 -458 -62)">Создать</text><text fill="#000000" stroke="none" font-family="Arial" font-size="16px" font-style="normal" font-weight="normal" text-decoration="undefined" x="926.67578125" y="574" text-anchor="middle" dominant-baseline="central" transform="matrix(1 0 0 1 -458 -62)">Customer</text></g></g><g><rect fill="#ffffff" stroke="none" x="882" y="612" width="96.1328125" height="84" transform="matrix(1 0 0 1 -458 -62)"/></g><g><path fill="none" stroke="#000000" paint-order="fill stroke markers" d=" M 424 550 L 520.1328125 550 L 520.1328125 634 L 424 634 L 424 550 Z Z" stroke-miterlimit="10" stroke-dasharray=""/></g><g><g><path fill="none" stroke="none"/><text fill="#000000" stroke="none" font-family="Arial" font-size="16px" font-style="normal" font-weight="normal" text-decoration="undefined" x="930.06640625" y="630" text-anchor="middle" dominant-baseline="central" transform="matrix(1 0 0 1 -458 -62)">сохранить</text><text fill="#000000" stroke="none" font-family="Arial" font-size="16px" font-style="normal" font-weight="normal" text-decoration="undefined" x="930.06640625" y="646" text-anchor="middle" dominant-baseline="central" transform="matrix(1 0 0 1 -458 -62)">в</text><text fill="#000000" stroke="none" font-family="Arial" font-size="16px" font-style="normal" font-weight="normal" text-decoration="undefined" x="930.06640625" y="662" text-anchor="middle" dominant-baseline="central" transform="matrix(1 0 0 1 -458 -62)">Customer</text><text fill="#000000" stroke="none" font-family="Arial" font-size="16px" font-style="normal" font-weight="normal" text-decoration="undefined" x="930.06640625" y="678" text-anchor="middle" dominant-baseline="central" transform="matrix(1 0 0 1 -458 -62)">в БД</text></g></g><g><path fill="none" stroke="#000000" paint-order="fill stroke markers" d=" M 473 452 L 473 478" stroke-miterlimit="10" stroke-dasharray=""/></g><g><path fill="#000000" stroke="none" paint-order="stroke fill markers" d=" M 468.790482243984 467.8373251423759 L 473 478 L 477.209517756016 467.8373251423759"/></g><g><path fill="none" stroke="#000000" paint-order="fill stroke markers" d=" M 468.790482243984 467.8373251423759 L 473 478 L 477.209517756016 467.8373251423759 L 468.790482243984 467.8373251423759" stroke-miterlimit="10" stroke-dasharray=""/></g><g><rect fill="#ffffff" stroke="none" x="933" y="518" width="24.53125" height="16" transform="matrix(1 0 0 1 -458 -62)"/></g><g><g><path fill="none" stroke="none"/><text fill="#000000" stroke="none" font-family="Arial" font-size="16px" font-style="normal" font-weight="normal" text-decoration="undefined" x="945.265625" y="526" text-anchor="middle" dominant-baseline="central" transform="matrix(1 0 0 1 -458 -62)">нет</text></g></g><g><path fill="none" stroke="#000000" paint-order="fill stroke markers" d=" M 469 530 L 469 550" stroke-miterlimit="10" stroke-dasharray=""/></g><g><path fill="#000000" stroke="none" paint-order="stroke fill markers" d=" M 464.790482243984 539.8373251423759 L 469 550 L 473.209517756016 539.8373251423759"/></g><g><path fill="none" stroke="#000000" paint-order="fill stroke markers" d=" M 464.790482243984 539.8373251423759 L 469 550 L 473.209517756016 539.8373251423759 L 464.790482243984 539.8373251423759" stroke-miterlimit="10" stroke-dasharray=""/></g><g><rect fill="#ffffff" stroke="none" x="882" y="738" width="109.8203125" height="84" transform="matrix(1 0 0 1 -458 -62)"/></g><g><path fill="none" stroke="#000000" paint-order="fill stroke markers" d=" M 424 676 L 533.8203125 676 L 533.8203125 760 L 424 760 L 424 676 Z Z" stroke-miterlimit="10" stroke-dasharray=""/></g><g><g><path fill="none" stroke="none"/><text fill="#000000" stroke="none" font-family="Arial" font-size="16px" font-style="normal" font-weight="normal" text-decoration="undefined" x="936.91015625" y="756" text-anchor="middle" dominant-baseline="central" transform="matrix(1 0 0 1 -458 -62)">Запрос в</text><text fill="#000000" stroke="none" font-family="Arial" font-size="16px" font-style="normal" font-weight="normal" text-decoration="undefined" x="936.91015625" y="772" text-anchor="middle" dominant-baseline="central" transform="matrix(1 0 0 1 -458 -62)">Stirpe на</text><text fill="#000000" stroke="none" font-family="Arial" font-size="16px" font-style="normal" font-weight="normal" text-decoration="undefined" x="936.91015625" y="788" text-anchor="middle" dominant-baseline="central" transform="matrix(1 0 0 1 -458 -62)">создание</text><text fill="#000000" stroke="none" font-family="Arial" font-size="16px" font-style="normal" font-weight="normal" text-decoration="undefined" x="936.91015625" y="804" text-anchor="middle" dominant-baseline="central" transform="matrix(1 0 0 1 -458 -62)">client_secret</text></g></g><g><rect fill="#ffffff" stroke="none" x="882" y="846" width="108.5" height="116" transform="matrix(1 0 0 1 -458 -62)"/></g><g><path fill="none" stroke="#000000" paint-order="fill stroke markers" d=" M 424 784 L 532.5 784 L 532.5 900 L 424 900 L 424 784 Z Z" stroke-miterlimit="10" stroke-dasharray=""/></g><g><g><path fill="none" stroke="none"/><text fill="#000000" stroke="none" font-family="Arial" font-size="16px" font-style="normal" font-weight="normal" text-decoration="undefined" x="936.25" y="864" text-anchor="middle" dominant-baseline="central" transform="matrix(1 0 0 1 -458 -62)">Генерируем</text><text fill="#000000" stroke="none" font-family="Arial" font-size="16px" font-style="normal" font-weight="normal" text-decoration="undefined" x="936.25" y="880" text-anchor="middle" dominant-baseline="central" transform="matrix(1 0 0 1 -458 -62)">Url для</text><text fill="#000000" stroke="none" font-family="Arial" font-size="16px" font-style="normal" font-weight="normal" text-decoration="undefined" x="936.25" y="896" text-anchor="middle" dominant-baseline="central" transform="matrix(1 0 0 1 -458 -62)">перехода</text><text fill="#000000" stroke="none" font-family="Arial" font-size="16px" font-style="normal" font-weight="normal" text-decoration="undefined" x="936.25" y="912" text-anchor="middle" dominant-baseline="central" transform="matrix(1 0 0 1 -458 -62)">на форму</text><text fill="#000000" stroke="none" font-family="Arial" font-size="16px" font-style="normal" font-weight="normal" text-decoration="undefined" x="936.25" y="928" text-anchor="middle" dominant-baseline="central" transform="matrix(1 0 0 1 -458 -62)">заполнения</text><text fill="#000000" stroke="none" font-family="Arial" font-size="16px" font-style="normal" font-weight="normal" text-decoration="undefined" x="936.25" y="944" text-anchor="middle" dominant-baseline="central" transform="matrix(1 0 0 1 -458 -62)">карты</text></g></g><g><path fill="none" stroke="#000000" paint-order="fill stroke markers" d=" M 547 452 L 614 452 L 614 452 A 8 8 0 0 1 622 460 L 622 668 L 622 668 A 8 8 0 0 1 614 676 L 534 676" stroke-miterlimit="10" stroke-dasharray=""/></g><g><path fill="#000000" stroke="none" paint-order="stroke fill markers" d=" M 544.1626748576241 671.790482243984 L 534 676 L 544.1626748576241 680.209517756016"/></g><g><path fill="none" stroke="#000000" paint-order="fill stroke markers" d=" M 544.1626748576241 671.790482243984 L 534 676 L 544.1626748576241 680.209517756016 L 544.1626748576241 671.790482243984" stroke-miterlimit="10" stroke-dasharray=""/></g><g><rect fill="#ffffff" stroke="none" x="1086" y="617" width="19.734375" height="16" transform="matrix(1 0 0 1 -458 -62)"/></g><g><g><path fill="none" stroke="none"/><text fill="#000000" stroke="none" font-family="Arial" font-size="16px" font-style="normal" font-weight="normal" text-decoration="undefined" x="1095.8671875" y="625" text-anchor="middle" dominant-baseline="central" transform="matrix(1 0 0 1 -458 -62)">Да</text></g></g><g><path fill="none" stroke="#000000" paint-order="fill stroke markers" d=" M 478 760 L 478 784" stroke-miterlimit="10" stroke-dasharray=""/></g><g><path fill="#000000" stroke="none" paint-order="stroke fill markers" d=" M 473.790482243984 773.8373251423759 L 478 784 L 482.209517756016 773.8373251423759"/></g><g><path fill="none" stroke="#000000" paint-order="fill stroke markers" d=" M 473.790482243984 773.8373251423759 L 478 784 L 482.209517756016 773.8373251423759 L 473.790482243984 773.8373251423759" stroke-miterlimit="10" stroke-dasharray=""/></g><g><path fill="none" stroke="#000000" paint-order="fill stroke markers" d=" M 474 634 L 474 676" stroke-miterlimit="10" stroke-dasharray=""/></g><g><path fill="#000000" stroke="none" paint-order="stroke fill markers" d=" M 469.790482243984 665.8373251423759 L 474 676 L 478.209517756016 665.8373251423759"/></g><g><path fill="none" stroke="#000000" paint-order="fill stroke markers" d=" M 469.790482243984 665.8373251423759 L 474 676 L 478.209517756016 665.8373251423759 L 469.790482243984 665.8373251423759" stroke-miterlimit="10" stroke-dasharray=""/></g><g><path fill="none" stroke="#000000" paint-order="fill stroke markers" d=" M 424 900 L 424 992 L 424 992 A 8 8 0 0 1 416 1000 L 396 1000" stroke-miterlimit="10" stroke-dasharray=""/></g><g><path fill="#000000" stroke="none" paint-order="stroke fill markers" d=" M 406.1626748576241 995.7904822439841 L 396 1000 L 406.1626748576241 1004.2095177560159"/></g><g><path fill="none" stroke="#000000" paint-order="fill stroke markers" d=" M 406.1626748576241 995.7904822439841 L 396 1000 L 406.1626748576241 1004.2095177560159 L 406.1626748576241 995.7904822439841" stroke-miterlimit="10" stroke-dasharray=""/></g><g><path fill="none" stroke="#000000" paint-order="fill stroke markers" d=" M 284 344 L 284 380 L 284 380 A 8 8 0 0 0 292 388 L 406 388" stroke-miterlimit="10" stroke-dasharray=""/></g><g><path fill="#000000" stroke="none" paint-order="stroke fill markers" d=" M 395.8373251423759 392.209517756016 L 406 388 L 395.8373251423758 383.790482243984"/></g><g><path fill="none" stroke="#000000" paint-order="fill stroke markers" d=" M 395.8373251423759 392.209517756016 L 406 388 L 395.8373251423758 383.790482243984 L 395.8373251423759 392.209517756016" stroke-miterlimit="10" stroke-dasharray=""/></g><g><rect fill="#ffffff" stroke="none" x="723" y="427" width="39.125" height="16" transform="matrix(1 0 0 1 -458 -62)"/></g><g><g><path fill="none" stroke="none"/><text fill="#000000" stroke="none" font-family="Arial" font-size="16px" font-style="normal" font-weight="normal" text-decoration="undefined" x="742.5625" y="435" text-anchor="middle" dominant-baseline="central" transform="matrix(1 0 0 1 -458 -62)">stripe</text></g></g><g><rect fill="#ffffff" stroke="none" x="468" y="468" width="98.21875" height="132" transform="matrix(1 0 0 1 -458 -62)"/></g><g><path fill="none" stroke="#000000" paint-order="fill stroke markers" d=" M 10 406 L 108.21875 406 L 108.21875 538 L 10 538 L 10 406 Z Z" stroke-miterlimit="10" stroke-dasharray=""/></g><g><g><path fill="none" stroke="none"/><text fill="#000000" stroke="none" font-family="Arial" font-size="16px" font-style="normal" font-weight="normal" text-decoration="undefined" x="517.109375" y="486" text-anchor="middle" dominant-baseline="central" transform="matrix(1 0 0 1 -458 -62)">Запрос в</text><text fill="#000000" stroke="none" font-family="Arial" font-size="16px" font-style="normal" font-weight="normal" text-decoration="undefined" x="517.109375" y="502" text-anchor="middle" dominant-baseline="central" transform="matrix(1 0 0 1 -458 -62)">LiqPay</text><text fill="#000000" stroke="none" font-family="Arial" font-size="16px" font-style="normal" font-weight="normal" text-decoration="undefined" x="517.109375" y="518" text-anchor="middle" dominant-baseline="central" transform="matrix(1 0 0 1 -458 -62)">для</text><text fill="#000000" stroke="none" font-family="Arial" font-size="16px" font-style="normal" font-weight="normal" text-decoration="undefined" x="517.109375" y="534" text-anchor="middle" dominant-baseline="central" transform="matrix(1 0 0 1 -458 -62)">получения</text><text fill="#000000" stroke="none" font-family="Arial" font-size="16px" font-style="normal" font-weight="normal" text-decoration="undefined" x="517.109375" y="550" text-anchor="middle" dominant-baseline="central" transform="matrix(1 0 0 1 -458 -62)">формы</text><text fill="#000000" stroke="none" font-family="Arial" font-size="16px" font-style="normal" font-weight="normal" text-decoration="undefined" x="517.109375" y="566" text-anchor="middle" dominant-baseline="central" transform="matrix(1 0 0 1 -458 -62)">ввода</text><text fill="#000000" stroke="none" font-family="Arial" font-size="16px" font-style="normal" font-weight="normal" text-decoration="undefined" x="517.109375" y="582" text-anchor="middle" dominant-baseline="central" transform="matrix(1 0 0 1 -458 -62)">карты</text></g></g><g><path fill="none" stroke="#000000" paint-order="fill stroke markers" d=" M 186 344 L 186 414 L 186 414 A 8 8 0 0 1 178 422 L 108 422" stroke-miterlimit="10" stroke-dasharray=""/></g><g><path fill="#000000" stroke="none" paint-order="stroke fill markers" d=" M 118.1626748576241 417.790482243984 L 108 422 L 118.1626748576241 426.209517756016"/></g><g><path fill="none" stroke="#000000" paint-order="fill stroke markers" d=" M 118.1626748576241 417.790482243984 L 108 422 L 118.1626748576241 426.209517756016 L 118.1626748576241 417.790482243984" stroke-miterlimit="10" stroke-dasharray=""/></g><g><rect fill="#ffffff" stroke="none" x="619" y="491" width="48.921875" height="16" transform="matrix(1 0 0 1 -458 -62)"/></g><g><g><path fill="none" stroke="none"/><text fill="#000000" stroke="none" font-family="Arial" font-size="16px" font-style="normal" font-weight="normal" text-decoration="undefined" x="643.4609375" y="499" text-anchor="middle" dominant-baseline="central" transform="matrix(1 0 0 1 -458 -62)">LiqPay</text></g></g><g><path fill="none" stroke="#000000" paint-order="fill stroke markers" d=" M 77 538 L 77 1000" stroke-miterlimit="10" stroke-dasharray=""/></g><g><path fill="#000000" stroke="none" paint-order="stroke fill markers" d=" M 72.790482243984 989.8373251423759 L 77 1000 L 81.209517756016 989.8373251423759"/></g><g><path fill="none" stroke="#000000" paint-order="fill stroke markers" d=" M 72.790482243984 989.8373251423759 L 77 1000 L 81.209517756016 989.8373251423759 L 72.790482243984 989.8373251423759" stroke-miterlimit="10" stroke-dasharray=""/></g><g><path fill="none" stroke="#000000" paint-order="fill stroke markers" d=" M 224 224 L 224 280" stroke-miterlimit="10" stroke-dasharray=""/></g><g><path fill="#000000" stroke="none" paint-order="stroke fill markers" d=" M 219.790482243984 269.83732514237585 L 224 280 L 228.209517756016 269.83732514237585"/></g><g><path fill="none" stroke="#000000" paint-order="fill stroke markers" d=" M 219.790482243984 269.83732514237585 L 224 280 L 228.209517756016 269.83732514237585 L 219.790482243984 269.83732514237585" stroke-miterlimit="10" stroke-dasharray=""/></g><g><path fill="none" stroke="#000000" paint-order="fill stroke markers" d=" M 226 136 L 226 172" stroke-miterlimit="10" stroke-dasharray=""/></g><g><path fill="#000000" stroke="none" paint-order="stroke fill markers" d=" M 221.790482243984 161.83732514237585 L 226 172 L 230.209517756016 161.83732514237585"/></g><g><path fill="none" stroke="#000000" paint-order="fill stroke markers" d=" M 221.790482243984 161.83732514237585 L 226 172 L 230.209517756016 161.83732514237585 L 221.790482243984 161.83732514237585" stroke-miterlimit="10" stroke-dasharray=""/></g><g><path fill="none" stroke="#000000" paint-order="fill stroke markers" d=" M 240 46 L 240 100" stroke-miterlimit="10" stroke-dasharray=""/></g><g><path fill="#000000" stroke="none" paint-order="stroke fill markers" d=" M 235.790482243984 89.83732514237585 L 240 100 L 244.209517756016 89.83732514237585"/></g><g><path fill="none" stroke="#000000" paint-order="fill stroke markers" d=" M 235.790482243984 89.83732514237585 L 240 100 L 244.209517756016 89.83732514237585 L 235.790482243984 89.83732514237585" stroke-miterlimit="10" stroke-dasharray=""/></g><g><path fill="none" stroke="#000000" paint-order="fill stroke markers" d=" M 550 78 L 550 92 L 550 92 A 8 8 0 0 1 542 100 L 424 100" stroke-miterlimit="10" stroke-dasharray=""/></g><g><path fill="#000000" stroke="none" paint-order="stroke fill markers" d=" M 434.1626748576241 95.790482243984 L 424 100 L 434.1626748576241 104.209517756016"/></g><g><path fill="none" stroke="#000000" paint-order="fill stroke markers" d=" M 434.1626748576241 95.790482243984 L 424 100 L 434.1626748576241 104.209517756016 L 434.1626748576241 95.790482243984" stroke-miterlimit="10" stroke-dasharray=""/></g></g></svg>