<svg version="1.1" xmlns="http://www.w3.org/2000/svg" xmlns:xlink="http://www.w3.org/1999/xlink" width="685.484375" height="398"><defs/><g><g><rect fill="#ffffff" stroke="none" x="342" y="72" width="342" height="36" transform="matrix(1 0 0 1 -314 -44)"/></g><g><path fill="#ffffff" stroke="none" paint-order="stroke fill markers" d=" M 370 28 A 18 18 0 0 1 370 64"/></g><g><path fill="none" stroke="#000000" paint-order="fill stroke markers" d=" M 28 28 L 28 64" stroke-miterlimit="10" stroke-dasharray=""/></g><g><path fill="none" stroke="#000000" paint-order="fill stroke markers" d=" M 28 28 L 370 28" stroke-miterlimit="10" stroke-dasharray=""/></g><g><path fill="none" stroke="#000000" paint-order="fill stroke markers" d=" M 28 64 L 370 64" stroke-miterlimit="10" stroke-dasharray=""/></g><g><path fill="none" stroke="#000000" paint-order="fill stroke markers" d=" M 370 28 A 18 18 0 0 1 370 64" stroke-miterlimit="10" stroke-dasharray=""/></g><g><g><path fill="none" stroke="none"/><text fill="#000000" stroke="none" font-family="Arial" font-size="16px" font-style="normal" font-weight="normal" text-decoration="undefined" x="487" y="90" text-anchor="middle" dominant-baseline="central" transform="matrix(1 0 0 1 -314 -44)">POST /wallet/purchase-link</text></g></g><g><path fill="#ffffff" stroke="#000000" paint-order="fill stroke markers" d=" M 532 44 L 555 10 L 652.484375 10 Q 675.484375 10 675.484375 44 Q 675.484375 78 652.484375 78 L 555 78 L 532 44 Z" stroke-miterlimit="10" stroke-dasharray=""/></g><g><g><path fill="none" stroke="none"/><text fill="#000000" stroke="none" font-family="Arial" font-size="16px" font-style="normal" font-weight="normal" text-decoration="undefined" x="917.7421875" y="72" text-anchor="middle" dominant-baseline="central" transform="matrix(1 0 0 1 -314 -44)">Заголовки</text><text fill="#000000" stroke="none" font-family="Arial" font-size="16px" font-style="normal" font-weight="normal" text-decoration="undefined" x="917.7421875" y="88" text-anchor="middle" dominant-baseline="central" transform="matrix(1 0 0 1 -314 -44)">запроса</text><text fill="#000000" stroke="none" font-family="Arial" font-size="16px" font-style="normal" font-weight="normal" text-decoration="undefined" x="917.7421875" y="104" text-anchor="middle" dominant-baseline="central" transform="matrix(1 0 0 1 -314 -44)">(Авторизирован)</text></g></g><g><path fill="#ffffff" stroke="none" paint-order="stroke fill markers" d=" M 85 136 L 370 136 L 313 172 L 28 172 L 85 136"/></g><g><path fill="none" stroke="#000000" paint-order="fill stroke markers" d=" M 85 136 L 370 136 L 313 172 L 28 172 L 85 136 L 85 136" stroke-miterlimit="10" stroke-dasharray=""/></g><g><g><path fill="none" stroke="none"/><text fill="#000000" stroke="none" font-family="Arial" font-size="16px" font-style="normal" font-weight="normal" text-decoration="undefined" x="513" y="198" text-anchor="middle" dominant-baseline="central" transform="matrix(1 0 0 1 -314 -44)">PostWalletPurchaseLinkRequest</text></g></g><g><path fill="#ffffff" stroke="none" paint-order="stroke fill markers" d=" M 70 352 L 370 352 L 310 388 L 10 388 L 70 352"/></g><g><path fill="none" stroke="#000000" paint-order="fill stroke markers" d=" M 70 352 L 370 352 L 310 388 L 10 388 L 70 352 L 70 352" stroke-miterlimit="10" stroke-dasharray=""/></g><g><g><path fill="none" stroke="none"/><text fill="#000000" stroke="none" font-family="Arial" font-size="16px" font-style="normal" font-weight="normal" text-decoration="undefined" x="504" y="414" text-anchor="middle" dominant-baseline="central" transform="matrix(1 0 0 1 -314 -44)">PostWalletPurchaseLinkResponse</text></g></g><g><rect fill="#ffffff" stroke="none" x="324" y="270" width="396" height="52" transform="matrix(1 0 0 1 -314 -44)"/></g><g><path fill="none" stroke="#000000" paint-order="fill stroke markers" d=" M 10 226 L 406 226 L 406 278 L 10 278 L 10 226 Z Z" stroke-miterlimit="10" stroke-dasharray=""/></g><g><g><path fill="none" stroke="none"/><text fill="#000000" stroke="none" font-family="Arial" font-size="16px" font-style="normal" font-weight="normal" text-decoration="undefined" x="522" y="288" text-anchor="middle" dominant-baseline="central" transform="matrix(1 0 0 1 -314 -44)">Сгенерировать ссылку редирект через платёжную</text><text fill="#000000" stroke="none" font-family="Arial" font-size="16px" font-style="normal" font-weight="normal" text-decoration="undefined" x="522" y="304" text-anchor="middle" dominant-baseline="central" transform="matrix(1 0 0 1 -314 -44)">систему </text></g></g><g><path fill="none" stroke="#000000" paint-order="fill stroke markers" d=" M 207 64 L 207 136" stroke-miterlimit="10" stroke-dasharray=""/></g><g><path fill="#000000" stroke="none" paint-order="stroke fill markers" d=" M 202.790482243984 125.83732514237585 L 207 136 L 211.209517756016 125.83732514237585"/></g><g><path fill="none" stroke="#000000" paint-order="fill stroke markers" d=" M 202.790482243984 125.83732514237585 L 207 136 L 211.209517756016 125.83732514237585 L 202.790482243984 125.83732514237585" stroke-miterlimit="10" stroke-dasharray=""/></g><g><path fill="none" stroke="#000000" paint-order="fill stroke markers" d=" M 532 78 L 532 128 L 532 128 A 8 8 0 0 1 524 136 L 370 136" stroke-miterlimit="10" stroke-dasharray=""/></g><g><path fill="#000000" stroke="none" paint-order="stroke fill markers" d=" M 380.1626748576241 131.790482243984 L 370 136 L 380.1626748576241 140.209517756016"/></g><g><path fill="none" stroke="#000000" paint-order="fill stroke markers" d=" M 380.1626748576241 131.790482243984 L 370 136 L 380.1626748576241 140.209517756016 L 380.1626748576241 131.790482243984" stroke-miterlimit="10" stroke-dasharray=""/></g><g><path fill="none" stroke="#000000" paint-order="fill stroke markers" d=" M 200 172 L 200 226" stroke-miterlimit="10" stroke-dasharray=""/></g><g><path fill="#000000" stroke="none" paint-order="stroke fill markers" d=" M 195.790482243984 215.83732514237585 L 200 226 L 204.209517756016 215.83732514237585"/></g><g><path fill="none" stroke="#000000" paint-order="fill stroke markers" d=" M 195.790482243984 215.83732514237585 L 200 226 L 204.209517756016 215.83732514237585 L 195.790482243984 215.83732514237585" stroke-miterlimit="10" stroke-dasharray=""/></g><g><path fill="none" stroke="#000000" paint-order="fill stroke markers" d=" M 206 278 L 206 352" stroke-miterlimit="10" stroke-dasharray=""/></g><g><path fill="#000000" stroke="none" paint-order="stroke fill markers" d=" M 201.790482243984 341.83732514237585 L 206 352 L 210.209517756016 341.83732514237585"/></g><g><path fill="none" stroke="#000000" paint-order="fill stroke markers" d=" M 201.790482243984 341.83732514237585 L 206 352 L 210.209517756016 341.83732514237585 L 201.790482243984 341.83732514237585" stroke-miterlimit="10" stroke-dasharray=""/></g></g></svg>