<svg version="1.1" xmlns="http://www.w3.org/2000/svg" xmlns:xlink="http://www.w3.org/1999/xlink" width="1028" height="1334"><defs/><g><g><rect fill="#ffffff" stroke="none" x="360" y="72" width="172" height="52" transform="matrix(1 0 0 1 -278 -62)"/></g><g><path fill="#ffffff" stroke="none" paint-order="stroke fill markers" d=" M 254 10 A 26 26 0 0 1 254 62"/></g><g><path fill="none" stroke="#000000" paint-order="fill stroke markers" d=" M 82 10 L 82 62" stroke-miterlimit="10" stroke-dasharray=""/></g><g><path fill="none" stroke="#000000" paint-order="fill stroke markers" d=" M 82 10 L 254 10" stroke-miterlimit="10" stroke-dasharray=""/></g><g><path fill="none" stroke="#000000" paint-order="fill stroke markers" d=" M 82 62 L 254 62" stroke-miterlimit="10" stroke-dasharray=""/></g><g><path fill="none" stroke="#000000" paint-order="fill stroke markers" d=" M 254 10 A 26 26 0 0 1 254 62" stroke-miterlimit="10" stroke-dasharray=""/></g><g><g><path fill="none" stroke="none"/><text fill="#000000" stroke="none" font-family="Arial" font-size="16px" font-style="normal" font-weight="normal" text-decoration="undefined" x="444.25" y="90" text-anchor="middle" dominant-baseline="central" transform="matrix(1 0 0 1 -278 -62)">GET /search</text></g></g><g><path fill="#ffffff" stroke="#000000" paint-order="fill stroke markers" d=" M 352 44 L 375 10 L 472.484375 10 Q 495.484375 10 495.484375 44 Q 495.484375 78 472.484375 78 L 375 78 L 352 44 Z" stroke-miterlimit="10" stroke-dasharray=""/></g><g><g><path fill="none" stroke="none"/><text fill="#000000" stroke="none" font-family="Arial" font-size="16px" font-style="normal" font-weight="normal" text-decoration="undefined" x="701.7421875" y="90" text-anchor="middle" dominant-baseline="central" transform="matrix(1 0 0 1 -278 -62)">Заголовки</text><text fill="#000000" stroke="none" font-family="Arial" font-size="16px" font-style="normal" font-weight="normal" text-decoration="undefined" x="701.7421875" y="106" text-anchor="middle" dominant-baseline="central" transform="matrix(1 0 0 1 -278 -62)">запроса</text><text fill="#000000" stroke="none" font-family="Arial" font-size="16px" font-style="normal" font-weight="normal" text-decoration="undefined" x="701.7421875" y="122" text-anchor="middle" dominant-baseline="central" transform="matrix(1 0 0 1 -278 -62)">(Авторизирован)</text></g></g><g><path fill="#ffffff" stroke="none" paint-order="stroke fill markers" d=" M 76 118 L 316 118 L 268 154 L 28 154 L 76 118"/></g><g><path fill="none" stroke="#000000" paint-order="fill stroke markers" d=" M 76 118 L 316 118 L 268 154 L 28 154 L 76 118 L 76 118" stroke-miterlimit="10" stroke-dasharray=""/></g><g><g><path fill="none" stroke="none"/><text fill="#000000" stroke="none" font-family="Arial" font-size="16px" font-style="normal" font-weight="normal" text-decoration="undefined" x="450" y="198" text-anchor="middle" dominant-baseline="central" transform="matrix(1 0 0 1 -278 -62)">GetSearchRequest</text></g></g><g><path fill="#ffffff" stroke="none" paint-order="stroke fill markers" d=" M 82 362 L 172 298 L 262 362 L 172 426 L 82 362"/></g><g><path fill="none" stroke="#000000" paint-order="fill stroke markers" d=" M 82 362 L 172 298 L 262 362 L 172 426 L 82 362 L 82 362" stroke-miterlimit="10" stroke-dasharray=""/></g><g><g><path fill="none" stroke="none"/><text fill="#000000" stroke="none" font-family="Arial" font-size="16px" font-style="normal" font-weight="normal" text-decoration="undefined" x="450" y="400" text-anchor="middle" dominant-baseline="central" transform="matrix(1 0 0 1 -278 -62)">Chellenge in</text><text fill="#000000" stroke="none" font-family="Arial" font-size="16px" font-style="normal" font-weight="normal" text-decoration="undefined" x="450" y="416" text-anchor="middle" dominant-baseline="central" transform="matrix(1 0 0 1 -278 -62)">Types OR</text><text fill="#000000" stroke="none" font-family="Arial" font-size="16px" font-style="normal" font-weight="normal" text-decoration="undefined" x="450" y="432" text-anchor="middle" dominant-baseline="central" transform="matrix(1 0 0 1 -278 -62)">Types is</text><text fill="#000000" stroke="none" font-family="Arial" font-size="16px" font-style="normal" font-weight="normal" text-decoration="undefined" x="450" y="448" text-anchor="middle" dominant-baseline="central" transform="matrix(1 0 0 1 -278 -62)">empty</text></g></g><g><path fill="#ffffff" stroke="none" paint-order="stroke fill markers" d=" M 46 580 L 145 532 L 244 580 L 145 628 L 46 580"/></g><g><path fill="none" stroke="#000000" paint-order="fill stroke markers" d=" M 46 580 L 145 532 L 244 580 L 145 628 L 46 580 L 46 580" stroke-miterlimit="10" stroke-dasharray=""/></g><g><g><path fill="none" stroke="none"/><text fill="#000000" stroke="none" font-family="Arial" font-size="16px" font-style="normal" font-weight="normal" text-decoration="undefined" x="423" y="626" text-anchor="middle" dominant-baseline="central" transform="matrix(1 0 0 1 -278 -62)">User in Types</text><text fill="#000000" stroke="none" font-family="Arial" font-size="16px" font-style="normal" font-weight="normal" text-decoration="undefined" x="423" y="642" text-anchor="middle" dominant-baseline="central" transform="matrix(1 0 0 1 -278 -62)">OR Types is</text><text fill="#000000" stroke="none" font-family="Arial" font-size="16px" font-style="normal" font-weight="normal" text-decoration="undefined" x="423" y="658" text-anchor="middle" dominant-baseline="central" transform="matrix(1 0 0 1 -278 -62)">empty</text></g></g><g><path fill="#ffffff" stroke="none" paint-order="stroke fill markers" d=" M 46 776 L 145 712 L 244 776 L 145 840 L 46 776"/></g><g><path fill="none" stroke="#000000" paint-order="fill stroke markers" d=" M 46 776 L 145 712 L 244 776 L 145 840 L 46 776 L 46 776" stroke-miterlimit="10" stroke-dasharray=""/></g><g><g><path fill="none" stroke="none"/><text fill="#000000" stroke="none" font-family="Arial" font-size="16px" font-style="normal" font-weight="normal" text-decoration="undefined" x="423" y="814" text-anchor="middle" dominant-baseline="central" transform="matrix(1 0 0 1 -278 -62)">Comunity in</text><text fill="#000000" stroke="none" font-family="Arial" font-size="16px" font-style="normal" font-weight="normal" text-decoration="undefined" x="423" y="830" text-anchor="middle" dominant-baseline="central" transform="matrix(1 0 0 1 -278 -62)">Types OR</text><text fill="#000000" stroke="none" font-family="Arial" font-size="16px" font-style="normal" font-weight="normal" text-decoration="undefined" x="423" y="846" text-anchor="middle" dominant-baseline="central" transform="matrix(1 0 0 1 -278 -62)">Types is</text><text fill="#000000" stroke="none" font-family="Arial" font-size="16px" font-style="normal" font-weight="normal" text-decoration="undefined" x="423" y="862" text-anchor="middle" dominant-baseline="central" transform="matrix(1 0 0 1 -278 -62)">empty</text></g></g><g><path fill="#ffffff" stroke="none" paint-order="stroke fill markers" d=" M 10 940 L 146.9765625 892 L 283.953125 940 L 146.9765625 988 L 10 940"/></g><g><path fill="none" stroke="#000000" paint-order="fill stroke markers" d=" M 10 940 L 146.9765625 892 L 283.953125 940 L 146.9765625 988 L 10 940 L 10 940" stroke-miterlimit="10" stroke-dasharray=""/></g><g><g><path fill="none" stroke="none"/><text fill="#000000" stroke="none" font-family="Arial" font-size="16px" font-style="normal" font-weight="normal" text-decoration="undefined" x="424.9765625" y="986" text-anchor="middle" dominant-baseline="central" transform="matrix(1 0 0 1 -278 -62)">TemplateChellenge</text><text fill="#000000" stroke="none" font-family="Arial" font-size="16px" font-style="normal" font-weight="normal" text-decoration="undefined" x="424.9765625" y="1002" text-anchor="middle" dominant-baseline="central" transform="matrix(1 0 0 1 -278 -62)">in Types OR Types</text><text fill="#000000" stroke="none" font-family="Arial" font-size="16px" font-style="normal" font-weight="normal" text-decoration="undefined" x="424.9765625" y="1018" text-anchor="middle" dominant-baseline="central" transform="matrix(1 0 0 1 -278 -62)">is empty</text></g></g><g><rect fill="#ffffff" stroke="none" x="648" y="432" width="234" height="52" transform="matrix(1 0 0 1 -278 -62)"/></g><g><path fill="none" stroke="#000000" paint-order="fill stroke markers" d=" M 370 370 L 604 370 L 604 422 L 370 422 L 370 370 Z Z" stroke-miterlimit="10" stroke-dasharray=""/></g><g><g><path fill="none" stroke="none"/><text fill="#000000" stroke="none" font-family="Arial" font-size="16px" font-style="normal" font-weight="normal" text-decoration="undefined" x="765" y="450" text-anchor="middle" dominant-baseline="central" transform="matrix(1 0 0 1 -278 -62)">Поиск по челленджам</text><text fill="#000000" stroke="none" font-family="Arial" font-size="16px" font-style="normal" font-weight="normal" text-decoration="undefined" x="765" y="466" text-anchor="middle" dominant-baseline="central" transform="matrix(1 0 0 1 -278 -62)">(Диаграмма)</text></g></g><g><rect fill="#ffffff" stroke="none" x="630" y="612" width="252" height="52" transform="matrix(1 0 0 1 -278 -62)"/></g><g><path fill="none" stroke="#000000" paint-order="fill stroke markers" d=" M 352 550 L 604 550 L 604 602 L 352 602 L 352 550 Z Z" stroke-miterlimit="10" stroke-dasharray=""/></g><g><g><path fill="none" stroke="none"/><text fill="#000000" stroke="none" font-family="Arial" font-size="16px" font-style="normal" font-weight="normal" text-decoration="undefined" x="756" y="630" text-anchor="middle" dominant-baseline="central" transform="matrix(1 0 0 1 -278 -62)">Поиск по пользователям</text><text fill="#000000" stroke="none" font-family="Arial" font-size="16px" font-style="normal" font-weight="normal" text-decoration="undefined" x="756" y="646" text-anchor="middle" dominant-baseline="central" transform="matrix(1 0 0 1 -278 -62)">(Диаграмма)</text></g></g><g><rect fill="#ffffff" stroke="none" x="630" y="792" width="288" height="52" transform="matrix(1 0 0 1 -278 -62)"/></g><g><path fill="none" stroke="#000000" paint-order="fill stroke markers" d=" M 352 730 L 640 730 L 640 782 L 352 782 L 352 730 Z Z" stroke-miterlimit="10" stroke-dasharray=""/></g><g><g><path fill="none" stroke="none"/><text fill="#000000" stroke="none" font-family="Arial" font-size="16px" font-style="normal" font-weight="normal" text-decoration="undefined" x="774" y="810" text-anchor="middle" dominant-baseline="central" transform="matrix(1 0 0 1 -278 -62)">Поиск по сообществам</text><text fill="#000000" stroke="none" font-family="Arial" font-size="16px" font-style="normal" font-weight="normal" text-decoration="undefined" x="774" y="826" text-anchor="middle" dominant-baseline="central" transform="matrix(1 0 0 1 -278 -62)">(Диаграмма)</text></g></g><g><rect fill="#ffffff" stroke="none" x="648" y="972" width="306" height="52" transform="matrix(1 0 0 1 -278 -62)"/></g><g><path fill="none" stroke="#000000" paint-order="fill stroke markers" d=" M 370 910 L 676 910 L 676 962 L 370 962 L 370 910 Z Z" stroke-miterlimit="10" stroke-dasharray=""/></g><g><g><path fill="none" stroke="none"/><text fill="#000000" stroke="none" font-family="Arial" font-size="16px" font-style="normal" font-weight="normal" text-decoration="undefined" x="801" y="990" text-anchor="middle" dominant-baseline="central" transform="matrix(1 0 0 1 -278 -62)">Поиск по шаблонам челленджей</text><text fill="#000000" stroke="none" font-family="Arial" font-size="16px" font-style="normal" font-weight="normal" text-decoration="undefined" x="801" y="1006" text-anchor="middle" dominant-baseline="central" transform="matrix(1 0 0 1 -278 -62)">(Диаграмма)</text></g></g><g><path fill="#ffffff" stroke="none" paint-order="stroke fill markers" d=" M 70 1288 L 280 1288 L 238 1324 L 28 1324 L 70 1288"/></g><g><path fill="none" stroke="#000000" paint-order="fill stroke markers" d=" M 70 1288 L 280 1288 L 238 1324 L 28 1324 L 70 1288 L 70 1288" stroke-miterlimit="10" stroke-dasharray=""/></g><g><g><path fill="none" stroke="none"/><text fill="#000000" stroke="none" font-family="Arial" font-size="16px" font-style="normal" font-weight="normal" text-decoration="undefined" x="432" y="1368" text-anchor="middle" dominant-baseline="central" transform="matrix(1 0 0 1 -278 -62)">GetSearchResponse</text></g></g><g><path fill="#ffffff" stroke="none" paint-order="stroke fill markers" d=" M 328 1036 L 568 1036 L 520 1072 L 280 1072 L 328 1036"/></g><g><path fill="none" stroke="#000000" paint-order="fill stroke markers" d=" M 328 1036 L 568 1036 L 520 1072 L 280 1072 L 328 1036 L 328 1036" stroke-miterlimit="10" stroke-dasharray=""/></g><g><g><path fill="none" stroke="none"/><text fill="#000000" stroke="none" font-family="Arial" font-size="16px" font-style="normal" font-weight="normal" text-decoration="undefined" x="702" y="1116" text-anchor="middle" dominant-baseline="central" transform="matrix(1 0 0 1 -278 -62)">UserSearchDTO</text></g></g><g><path fill="#ffffff" stroke="none" paint-order="stroke fill markers" d=" M 469 1108 L 694 1108 L 649 1144 L 424 1144 L 469 1108"/></g><g><path fill="none" stroke="#000000" paint-order="fill stroke markers" d=" M 469 1108 L 694 1108 L 649 1144 L 424 1144 L 469 1108 L 469 1108" stroke-miterlimit="10" stroke-dasharray=""/></g><g><g><path fill="none" stroke="none"/><text fill="#000000" stroke="none" font-family="Arial" font-size="16px" font-style="normal" font-weight="normal" text-decoration="undefined" x="837" y="1188" text-anchor="middle" dominant-baseline="central" transform="matrix(1 0 0 1 -278 -62)">ComunitySearchDTO</text></g></g><g><path fill="#ffffff" stroke="none" paint-order="stroke fill markers" d=" M 568 1162 L 838 1162 L 784 1198 L 514 1198 L 568 1162"/></g><g><path fill="none" stroke="#000000" paint-order="fill stroke markers" d=" M 568 1162 L 838 1162 L 784 1198 L 514 1198 L 568 1162 L 568 1162" stroke-miterlimit="10" stroke-dasharray=""/></g><g><g><path fill="none" stroke="none"/><text fill="#000000" stroke="none" font-family="Arial" font-size="16px" font-style="normal" font-weight="normal" text-decoration="undefined" x="954" y="1242" text-anchor="middle" dominant-baseline="central" transform="matrix(1 0 0 1 -278 -62)">TemplateChallengeSearchDTO</text></g></g><g><path fill="#ffffff" stroke="none" paint-order="stroke fill markers" d=" M 676 1234 L 946 1234 L 892 1270 L 622 1270 L 676 1234"/></g><g><path fill="none" stroke="#000000" paint-order="fill stroke markers" d=" M 676 1234 L 946 1234 L 892 1270 L 622 1270 L 676 1234 L 676 1234" stroke-miterlimit="10" stroke-dasharray=""/></g><g><g><path fill="none" stroke="none"/><text fill="#000000" stroke="none" font-family="Arial" font-size="16px" font-style="normal" font-weight="normal" text-decoration="undefined" x="1062" y="1314" text-anchor="middle" dominant-baseline="central" transform="matrix(1 0 0 1 -278 -62)">ChellengeSearchDTO</text></g></g><g><path fill="none" stroke="#000000" paint-order="fill stroke markers" d=" M 370 1072 L 370 1280 L 370 1280 A 8 8 0 0 1 362 1288 L 280 1288" stroke-miterlimit="10" stroke-dasharray=""/></g><g><path fill="#000000" stroke="none" paint-order="stroke fill markers" d=" M 290.1626748576241 1283.7904822439841 L 280 1288 L 290.1626748576241 1292.2095177560159"/></g><g><path fill="none" stroke="#000000" paint-order="fill stroke markers" d=" M 290.1626748576241 1283.7904822439841 L 280 1288 L 290.1626748576241 1292.2095177560159 L 290.1626748576241 1283.7904822439841" stroke-miterlimit="10" stroke-dasharray=""/></g><g><path fill="none" stroke="#000000" paint-order="fill stroke markers" d=" M 460 1144 L 460 1280 L 460 1280 A 8 8 0 0 1 452 1288 L 280 1288" stroke-miterlimit="10" stroke-dasharray=""/></g><g><path fill="#000000" stroke="none" paint-order="stroke fill markers" d=" M 290.1626748576241 1283.7904822439841 L 280 1288 L 290.1626748576241 1292.2095177560159"/></g><g><path fill="none" stroke="#000000" paint-order="fill stroke markers" d=" M 290.1626748576241 1283.7904822439841 L 280 1288 L 290.1626748576241 1292.2095177560159 L 290.1626748576241 1283.7904822439841" stroke-miterlimit="10" stroke-dasharray=""/></g><g><path fill="none" stroke="#000000" paint-order="fill stroke markers" d=" M 514 1180 L 234 1180 L 234 1180 A 8 8 0 0 0 226 1188 L 226 1288" stroke-miterlimit="10" stroke-dasharray=""/></g><g><path fill="#000000" stroke="none" paint-order="stroke fill markers" d=" M 221.790482243984 1277.837325142376 L 226 1288 L 230.209517756016 1277.837325142376"/></g><g><path fill="none" stroke="#000000" paint-order="fill stroke markers" d=" M 221.790482243984 1277.837325142376 L 226 1288 L 230.209517756016 1277.837325142376 L 221.790482243984 1277.837325142376" stroke-miterlimit="10" stroke-dasharray=""/></g><g><path fill="none" stroke="#000000" paint-order="fill stroke markers" d=" M 766 1270 L 766 1280 L 766 1280 A 8 8 0 0 1 758 1288 L 280 1288" stroke-miterlimit="10" stroke-dasharray=""/></g><g><path fill="#000000" stroke="none" paint-order="stroke fill markers" d=" M 290.1626748576241 1283.7904822439841 L 280 1288 L 290.1626748576241 1292.2095177560159"/></g><g><path fill="none" stroke="#000000" paint-order="fill stroke markers" d=" M 290.1626748576241 1283.7904822439841 L 280 1288 L 290.1626748576241 1292.2095177560159 L 290.1626748576241 1283.7904822439841" stroke-miterlimit="10" stroke-dasharray=""/></g><g><path fill="none" stroke="#000000" paint-order="fill stroke markers" d=" M 179 62 L 179 118" stroke-miterlimit="10" stroke-dasharray=""/></g><g><path fill="#000000" stroke="none" paint-order="stroke fill markers" d=" M 174.790482243984 107.83732514237585 L 179 118 L 183.209517756016 107.83732514237585"/></g><g><path fill="none" stroke="#000000" paint-order="fill stroke markers" d=" M 174.790482243984 107.83732514237585 L 179 118 L 183.209517756016 107.83732514237585 L 174.790482243984 107.83732514237585" stroke-miterlimit="10" stroke-dasharray=""/></g><g><path fill="none" stroke="#000000" paint-order="fill stroke markers" d=" M 352 78 L 352 110 L 352 110 A 8 8 0 0 1 344 118 L 316 118" stroke-miterlimit="10" stroke-dasharray=""/></g><g><path fill="#000000" stroke="none" paint-order="stroke fill markers" d=" M 326.1626748576241 113.790482243984 L 316 118 L 326.1626748576241 122.209517756016"/></g><g><path fill="none" stroke="#000000" paint-order="fill stroke markers" d=" M 326.1626748576241 113.790482243984 L 316 118 L 326.1626748576241 122.209517756016 L 326.1626748576241 113.790482243984" stroke-miterlimit="10" stroke-dasharray=""/></g><g><path fill="none" stroke="#000000" paint-order="fill stroke markers" d=" M 262 370 L 370 370" stroke-miterlimit="10" stroke-dasharray=""/></g><g><path fill="#000000" stroke="none" paint-order="stroke fill markers" d=" M 359.8373251423759 374.209517756016 L 370 370 L 359.8373251423758 365.790482243984"/></g><g><path fill="none" stroke="#000000" paint-order="fill stroke markers" d=" M 359.8373251423759 374.209517756016 L 370 370 L 359.8373251423758 365.790482243984 L 359.8373251423759 374.209517756016" stroke-miterlimit="10" stroke-dasharray=""/></g><g><rect fill="#ffffff" stroke="none" x="585" y="409" width="19.734375" height="16" transform="matrix(1 0 0 1 -278 -62)"/></g><g><g><path fill="none" stroke="none"/><text fill="#000000" stroke="none" font-family="Arial" font-size="16px" font-style="normal" font-weight="normal" text-decoration="undefined" x="594.8671875" y="417" text-anchor="middle" dominant-baseline="central" transform="matrix(1 0 0 1 -278 -62)">Да</text></g></g><g><path fill="none" stroke="#000000" paint-order="fill stroke markers" d=" M 152 426 L 152 532" stroke-miterlimit="10" stroke-dasharray=""/></g><g><path fill="#000000" stroke="none" paint-order="stroke fill markers" d=" M 147.790482243984 521.8373251423759 L 152 532 L 156.209517756016 521.8373251423759"/></g><g><path fill="none" stroke="#000000" paint-order="fill stroke markers" d=" M 147.790482243984 521.8373251423759 L 152 532 L 156.209517756016 521.8373251423759 L 147.790482243984 521.8373251423759" stroke-miterlimit="10" stroke-dasharray=""/></g><g><rect fill="#ffffff" stroke="none" x="431" y="532" width="27.25" height="16" transform="matrix(1 0 0 1 -278 -62)"/></g><g><g><path fill="none" stroke="none"/><text fill="#000000" stroke="none" font-family="Arial" font-size="16px" font-style="normal" font-weight="normal" text-decoration="undefined" x="444.625" y="540" text-anchor="middle" dominant-baseline="central" transform="matrix(1 0 0 1 -278 -62)">Нет</text></g></g><g><path fill="none" stroke="#000000" paint-order="fill stroke markers" d=" M 505 422 L 505 452 L 505 452 A 8 8 0 0 1 497 460 L 234 460 L 234 460 A 8 8 0 0 0 226 468 L 226 532" stroke-miterlimit="10" stroke-dasharray=""/></g><g><path fill="#000000" stroke="none" paint-order="stroke fill markers" d=" M 221.790482243984 521.8373251423759 L 226 532 L 230.209517756016 521.8373251423759"/></g><g><path fill="none" stroke="#000000" paint-order="fill stroke markers" d=" M 221.790482243984 521.8373251423759 L 226 532 L 230.209517756016 521.8373251423759 L 221.790482243984 521.8373251423759" stroke-miterlimit="10" stroke-dasharray=""/></g><g><path fill="none" stroke="#000000" paint-order="fill stroke markers" d=" M 244 565 L 352 565" stroke-miterlimit="10" stroke-dasharray=""/></g><g><path fill="#000000" stroke="none" paint-order="stroke fill markers" d=" M 341.8373251423759 569.209517756016 L 352 565 L 341.8373251423758 560.790482243984"/></g><g><path fill="none" stroke="#000000" paint-order="fill stroke markers" d=" M 341.8373251423759 569.209517756016 L 352 565 L 341.8373251423758 560.790482243984 L 341.8373251423759 569.209517756016" stroke-miterlimit="10" stroke-dasharray=""/></g><g><rect fill="#ffffff" stroke="none" x="567" y="604" width="19.734375" height="16" transform="matrix(1 0 0 1 -278 -62)"/></g><g><g><path fill="none" stroke="none"/><text fill="#000000" stroke="none" font-family="Arial" font-size="16px" font-style="normal" font-weight="normal" text-decoration="undefined" x="576.8671875" y="612" text-anchor="middle" dominant-baseline="central" transform="matrix(1 0 0 1 -278 -62)">Да</text></g></g><g><path fill="none" stroke="#000000" paint-order="fill stroke markers" d=" M 145 628 L 145 712" stroke-miterlimit="10" stroke-dasharray=""/></g><g><path fill="#000000" stroke="none" paint-order="stroke fill markers" d=" M 140.790482243984 701.8373251423759 L 145 712 L 149.209517756016 701.8373251423759"/></g><g><path fill="none" stroke="#000000" paint-order="fill stroke markers" d=" M 140.790482243984 701.8373251423759 L 145 712 L 149.209517756016 701.8373251423759 L 140.790482243984 701.8373251423759" stroke-miterlimit="10" stroke-dasharray=""/></g><g><rect fill="#ffffff" stroke="none" x="424" y="723" width="27.25" height="16" transform="matrix(1 0 0 1 -278 -62)"/></g><g><g><path fill="none" stroke="none"/><text fill="#000000" stroke="none" font-family="Arial" font-size="16px" font-style="normal" font-weight="normal" text-decoration="undefined" x="437.625" y="731" text-anchor="middle" dominant-baseline="central" transform="matrix(1 0 0 1 -278 -62)">Нет</text></g></g><g><path fill="none" stroke="#000000" paint-order="fill stroke markers" d=" M 352 602 L 352 632 L 352 632 A 8 8 0 0 1 344 640 L 198 640 L 198 640 A 8 8 0 0 0 190 648 L 190 712" stroke-miterlimit="10" stroke-dasharray=""/></g><g><path fill="#000000" stroke="none" paint-order="stroke fill markers" d=" M 185.790482243984 701.8373251423759 L 190 712 L 194.209517756016 701.8373251423759"/></g><g><path fill="none" stroke="#000000" paint-order="fill stroke markers" d=" M 185.790482243984 701.8373251423759 L 190 712 L 194.209517756016 701.8373251423759 L 185.790482243984 701.8373251423759" stroke-miterlimit="10" stroke-dasharray=""/></g><g><path fill="none" stroke="#000000" paint-order="fill stroke markers" d=" M 145 840 L 145 892" stroke-miterlimit="10" stroke-dasharray=""/></g><g><path fill="#000000" stroke="none" paint-order="stroke fill markers" d=" M 140.790482243984 881.8373251423759 L 145 892 L 149.209517756016 881.8373251423759"/></g><g><path fill="none" stroke="#000000" paint-order="fill stroke markers" d=" M 140.790482243984 881.8373251423759 L 145 892 L 149.209517756016 881.8373251423759 L 140.790482243984 881.8373251423759" stroke-miterlimit="10" stroke-dasharray=""/></g><g><rect fill="#ffffff" stroke="none" x="424" y="919" width="27.25" height="16" transform="matrix(1 0 0 1 -278 -62)"/></g><g><g><path fill="none" stroke="none"/><text fill="#000000" stroke="none" font-family="Arial" font-size="16px" font-style="normal" font-weight="normal" text-decoration="undefined" x="437.625" y="927" text-anchor="middle" dominant-baseline="central" transform="matrix(1 0 0 1 -278 -62)">Нет</text></g></g><g><path fill="none" stroke="#000000" paint-order="fill stroke markers" d=" M 244 746 L 352 746" stroke-miterlimit="10" stroke-dasharray=""/></g><g><path fill="#000000" stroke="none" paint-order="stroke fill markers" d=" M 341.8373251423759 750.209517756016 L 352 746 L 341.8373251423758 741.790482243984"/></g><g><path fill="none" stroke="#000000" paint-order="fill stroke markers" d=" M 341.8373251423759 750.209517756016 L 352 746 L 341.8373251423758 741.790482243984 L 341.8373251423759 750.209517756016" stroke-miterlimit="10" stroke-dasharray=""/></g><g><rect fill="#ffffff" stroke="none" x="567" y="785" width="19.734375" height="16" transform="matrix(1 0 0 1 -278 -62)"/></g><g><g><path fill="none" stroke="none"/><text fill="#000000" stroke="none" font-family="Arial" font-size="16px" font-style="normal" font-weight="normal" text-decoration="undefined" x="576.8671875" y="793" text-anchor="middle" dominant-baseline="central" transform="matrix(1 0 0 1 -278 -62)">Да</text></g></g><g><path fill="none" stroke="#000000" paint-order="fill stroke markers" d=" M 352 782 L 352 776 L 352 776 A 8 8 0 0 1 344 784 L 270 784 L 270 784 A 8 8 0 0 0 262 792 L 262 892" stroke-miterlimit="10" stroke-dasharray=""/></g><g><path fill="#000000" stroke="none" paint-order="stroke fill markers" d=" M 257.790482243984 881.8373251423759 L 262 892 L 266.209517756016 881.8373251423759"/></g><g><path fill="none" stroke="#000000" paint-order="fill stroke markers" d=" M 257.790482243984 881.8373251423759 L 262 892 L 266.209517756016 881.8373251423759 L 257.790482243984 881.8373251423759" stroke-miterlimit="10" stroke-dasharray=""/></g><g><path fill="none" stroke="#000000" paint-order="fill stroke markers" d=" M 284 946 L 370 946" stroke-miterlimit="10" stroke-dasharray=""/></g><g><path fill="#000000" stroke="none" paint-order="stroke fill markers" d=" M 359.8373251423759 950.209517756016 L 370 946 L 359.8373251423758 941.790482243984"/></g><g><path fill="none" stroke="#000000" paint-order="fill stroke markers" d=" M 359.8373251423759 950.209517756016 L 370 946 L 359.8373251423758 941.790482243984 L 359.8373251423759 950.209517756016" stroke-miterlimit="10" stroke-dasharray=""/></g><g><rect fill="#ffffff" stroke="none" x="596" y="985" width="19.734375" height="16" transform="matrix(1 0 0 1 -278 -62)"/></g><g><g><path fill="none" stroke="none"/><text fill="#000000" stroke="none" font-family="Arial" font-size="16px" font-style="normal" font-weight="normal" text-decoration="undefined" x="605.8671875" y="993" text-anchor="middle" dominant-baseline="central" transform="matrix(1 0 0 1 -278 -62)">Да</text></g></g><g><path fill="none" stroke="#000000" paint-order="fill stroke markers" d=" M 523 962 L 523 992 L 523 992 A 8 8 0 0 1 515 1000 L 180 1000 L 180 1000 A 8 8 0 0 0 172 1008 L 172 1288" stroke-miterlimit="10" stroke-dasharray=""/></g><g><path fill="#000000" stroke="none" paint-order="stroke fill markers" d=" M 167.790482243984 1277.837325142376 L 172 1288 L 176.209517756016 1277.837325142376"/></g><g><path fill="none" stroke="#000000" paint-order="fill stroke markers" d=" M 167.790482243984 1277.837325142376 L 172 1288 L 176.209517756016 1277.837325142376 L 167.790482243984 1277.837325142376" stroke-miterlimit="10" stroke-dasharray=""/></g><g><path fill="none" stroke="#000000" paint-order="fill stroke markers" d=" M 100 988 L 100 1288" stroke-miterlimit="10" stroke-dasharray=""/></g><g><path fill="#000000" stroke="none" paint-order="stroke fill markers" d=" M 95.790482243984 1277.837325142376 L 100 1288 L 104.209517756016 1277.837325142376"/></g><g><path fill="none" stroke="#000000" paint-order="fill stroke markers" d=" M 95.790482243984 1277.837325142376 L 100 1288 L 104.209517756016 1277.837325142376 L 95.790482243984 1277.837325142376" stroke-miterlimit="10" stroke-dasharray=""/></g><g><rect fill="#ffffff" stroke="none" x="380" y="1191" width="27.25" height="16" transform="matrix(1 0 0 1 -278 -62)"/></g><g><g><path fill="none" stroke="none"/><text fill="#000000" stroke="none" font-family="Arial" font-size="16px" font-style="normal" font-weight="normal" text-decoration="undefined" x="393.625" y="1199" text-anchor="middle" dominant-baseline="central" transform="matrix(1 0 0 1 -278 -62)">Нет</text></g></g><g><path fill="#ffffff" stroke="none" paint-order="stroke fill markers" d=" M 64 208 L 298 208 Q 316 208 316 226 L 316 226 Q 316 244 298 244 L 64 244 Q 46 244 46 226 L 46 226 Q 46 208 64 208 Z"/></g><g><path fill="none" stroke="#000000" paint-order="fill stroke markers" d=" M 64 208 L 298 208 Q 316 208 316 226 L 316 226 Q 316 244 298 244 L 64 244 Q 46 244 46 226 L 46 226 Q 46 208 64 208 Z" stroke-miterlimit="10" stroke-dasharray=""/></g><g><g><path fill="none" stroke="none"/><text fill="#000000" stroke="none" font-family="Arial" font-size="16px" font-style="normal" font-weight="normal" text-decoration="undefined" x="459" y="288" text-anchor="middle" dominant-baseline="central" transform="matrix(1 0 0 1 -278 -62)">Поля запросы заполнены</text></g></g><g><path fill="none" stroke="#000000" paint-order="fill stroke markers" d=" M 174 154 L 174 208" stroke-miterlimit="10" stroke-dasharray=""/></g><g><path fill="#000000" stroke="none" paint-order="stroke fill markers" d=" M 169.790482243984 197.83732514237585 L 174 208 L 178.209517756016 197.83732514237585"/></g><g><path fill="none" stroke="#000000" paint-order="fill stroke markers" d=" M 169.790482243984 197.83732514237585 L 174 208 L 178.209517756016 197.83732514237585 L 169.790482243984 197.83732514237585" stroke-miterlimit="10" stroke-dasharray=""/></g><g><path fill="none" stroke="#000000" paint-order="fill stroke markers" d=" M 179 244 L 179 298" stroke-miterlimit="10" stroke-dasharray=""/></g><g><path fill="#000000" stroke="none" paint-order="stroke fill markers" d=" M 174.790482243984 287.83732514237585 L 179 298 L 183.209517756016 287.83732514237585"/></g><g><path fill="none" stroke="#000000" paint-order="fill stroke markers" d=" M 174.790482243984 287.83732514237585 L 179 298 L 183.209517756016 287.83732514237585 L 174.790482243984 287.83732514237585" stroke-miterlimit="10" stroke-dasharray=""/></g><g><path fill="#ffffff" stroke="none" paint-order="stroke fill markers" d=" M 778 1000 L 1018 1000 L 970 1036 L 730 1036 L 778 1000"/></g><g><path fill="none" stroke="#000000" paint-order="fill stroke markers" d=" M 778 1000 L 1018 1000 L 970 1036 L 730 1036 L 778 1000 L 778 1000" stroke-miterlimit="10" stroke-dasharray=""/></g><g><g><path fill="none" stroke="none"/><text fill="#000000" stroke="none" font-family="Arial" font-size="16px" font-style="normal" font-weight="normal" text-decoration="undefined" x="1152" y="1080" text-anchor="middle" dominant-baseline="central" transform="matrix(1 0 0 1 -278 -62)">ASearchDTO</text></g></g><g><path fill="none" stroke="#000000" paint-order="fill stroke markers" d=" M 568 1036 L 730 1036" stroke-miterlimit="10" stroke-dasharray=""/></g><g><path fill="#000000" stroke="none" paint-order="stroke fill markers" d=" M 719.8373251423759 1040.2095177560159 L 730 1036 L 719.8373251423758 1031.7904822439841"/></g><g><path fill="none" stroke="#000000" paint-order="fill stroke markers" d=" M 719.8373251423759 1040.2095177560159 L 730 1036 L 719.8373251423758 1031.7904822439841 L 719.8373251423759 1040.2095177560159" stroke-miterlimit="10" stroke-dasharray=""/></g><g><rect fill="#ffffff" stroke="none" x="902" y="1075" width="51.578125" height="16" transform="matrix(1 0 0 1 -278 -62)"/></g><g><g><path fill="none" stroke="none"/><text fill="#000000" stroke="none" font-family="Arial" font-size="16px" font-style="normal" font-weight="normal" text-decoration="undefined" x="927.7890625" y="1083" text-anchor="middle" dominant-baseline="central" transform="matrix(1 0 0 1 -278 -62)">inherits</text></g></g><g><path fill="none" stroke="#000000" paint-order="fill stroke markers" d=" M 694 1127 L 794 1127 L 794 1127 A 8 8 0 0 0 802 1119 L 802 1036" stroke-miterlimit="10" stroke-dasharray=""/></g><g><path fill="#000000" stroke="none" paint-order="stroke fill markers" d=" M 806.2095177560159 1046.162674857624 L 802 1036 L 797.7904822439841 1046.162674857624"/></g><g><path fill="none" stroke="#000000" paint-order="fill stroke markers" d=" M 806.2095177560159 1046.162674857624 L 802 1036 L 797.7904822439841 1046.162674857624 L 806.2095177560159 1046.162674857624" stroke-miterlimit="10" stroke-dasharray=""/></g><g><rect fill="#ffffff" stroke="none" x="1040" y="1180" width="51.578125" height="16" transform="matrix(1 0 0 1 -278 -62)"/></g><g><g><path fill="none" stroke="none"/><text fill="#000000" stroke="none" font-family="Arial" font-size="16px" font-style="normal" font-weight="normal" text-decoration="undefined" x="1065.7890625" y="1188" text-anchor="middle" dominant-baseline="central" transform="matrix(1 0 0 1 -278 -62)">inherits</text></g></g><g><path fill="none" stroke="#000000" paint-order="fill stroke markers" d=" M 838 1180 L 848 1180 L 848 1180 A 8 8 0 0 0 856 1172 L 856 1036" stroke-miterlimit="10" stroke-dasharray=""/></g><g><path fill="#000000" stroke="none" paint-order="stroke fill markers" d=" M 860.2095177560159 1046.162674857624 L 856 1036 L 851.7904822439841 1046.162674857624"/></g><g><path fill="none" stroke="#000000" paint-order="fill stroke markers" d=" M 860.2095177560159 1046.162674857624 L 856 1036 L 851.7904822439841 1046.162674857624 L 860.2095177560159 1046.162674857624" stroke-miterlimit="10" stroke-dasharray=""/></g><g><rect fill="#ffffff" stroke="none" x="1094" y="1233" width="51.578125" height="16" transform="matrix(1 0 0 1 -278 -62)"/></g><g><g><path fill="none" stroke="none"/><text fill="#000000" stroke="none" font-family="Arial" font-size="16px" font-style="normal" font-weight="normal" text-decoration="undefined" x="1119.7890625" y="1241" text-anchor="middle" dominant-baseline="central" transform="matrix(1 0 0 1 -278 -62)">inherits</text></g></g><g><path fill="none" stroke="#000000" paint-order="fill stroke markers" d=" M 892 1234 L 892 1036" stroke-miterlimit="10" stroke-dasharray=""/></g><g><path fill="#000000" stroke="none" paint-order="stroke fill markers" d=" M 896.2095177560159 1046.162674857624 L 892 1036 L 887.7904822439841 1046.162674857624"/></g><g><path fill="none" stroke="#000000" paint-order="fill stroke markers" d=" M 896.2095177560159 1046.162674857624 L 892 1036 L 887.7904822439841 1046.162674857624 L 896.2095177560159 1046.162674857624" stroke-miterlimit="10" stroke-dasharray=""/></g><g><rect fill="#ffffff" stroke="none" x="1170" y="1170" width="51.578125" height="16" transform="matrix(1 0 0 1 -278 -62)"/></g><g><g><path fill="none" stroke="none"/><text fill="#000000" stroke="none" font-family="Arial" font-size="16px" font-style="normal" font-weight="normal" text-decoration="undefined" x="1195.7890625" y="1178" text-anchor="middle" dominant-baseline="central" transform="matrix(1 0 0 1 -278 -62)">inherits</text></g></g></g></svg>