<svg version="1.1" xmlns="http://www.w3.org/2000/svg" xmlns:xlink="http://www.w3.org/1999/xlink" width="523.484375" height="398"><defs/><g><g><rect fill="#ffffff" stroke="none" x="288" y="36" width="194.078125" height="52" transform="matrix(1 0 0 1 -206 -8)"/></g><g><path fill="#ffffff" stroke="none" paint-order="stroke fill markers" d=" M 276.078125 28 A 26 26 0 0 1 276.078125 80"/></g><g><path fill="none" stroke="#000000" paint-order="fill stroke markers" d=" M 82 28 L 82 80" stroke-miterlimit="10" stroke-dasharray=""/></g><g><path fill="none" stroke="#000000" paint-order="fill stroke markers" d=" M 82 28 L 276.078125 28" stroke-miterlimit="10" stroke-dasharray=""/></g><g><path fill="none" stroke="#000000" paint-order="fill stroke markers" d=" M 82 80 L 276.078125 80" stroke-miterlimit="10" stroke-dasharray=""/></g><g><path fill="none" stroke="#000000" paint-order="fill stroke markers" d=" M 276.078125 28 A 26 26 0 0 1 276.078125 80" stroke-miterlimit="10" stroke-dasharray=""/></g><g><g><path fill="none" stroke="none"/><text fill="#000000" stroke="none" font-family="Arial" font-size="16px" font-style="normal" font-weight="normal" text-decoration="undefined" x="380.529296875" y="54" text-anchor="middle" dominant-baseline="central" transform="matrix(1 0 0 1 -206 -8)">GET</text><text fill="#000000" stroke="none" font-family="Arial" font-size="16px" font-style="normal" font-weight="normal" text-decoration="undefined" x="380.529296875" y="70" text-anchor="middle" dominant-baseline="central" transform="matrix(1 0 0 1 -206 -8)">/communities/{communityId}</text></g></g><g><path fill="#ffffff" stroke="#000000" paint-order="fill stroke markers" d=" M 370 44 L 393 10 L 490.484375 10 Q 513.484375 10 513.484375 44 Q 513.484375 78 490.484375 78 L 393 78 L 370 44 Z" stroke-miterlimit="10" stroke-dasharray=""/></g><g><g><path fill="none" stroke="none"/><text fill="#000000" stroke="none" font-family="Arial" font-size="16px" font-style="normal" font-weight="normal" text-decoration="undefined" x="647.7421875" y="36" text-anchor="middle" dominant-baseline="central" transform="matrix(1 0 0 1 -206 -8)">Заголовки</text><text fill="#000000" stroke="none" font-family="Arial" font-size="16px" font-style="normal" font-weight="normal" text-decoration="undefined" x="647.7421875" y="52" text-anchor="middle" dominant-baseline="central" transform="matrix(1 0 0 1 -206 -8)">запроса</text><text fill="#000000" stroke="none" font-family="Arial" font-size="16px" font-style="normal" font-weight="normal" text-decoration="undefined" x="647.7421875" y="68" text-anchor="middle" dominant-baseline="central" transform="matrix(1 0 0 1 -206 -8)">(Авторизирован)</text></g></g><g><path fill="#ffffff" stroke="none" paint-order="stroke fill markers" d=" M 103 100 L 298 100 L 259 136 L 64 136 L 103 100"/></g><g><path fill="none" stroke="#000000" paint-order="fill stroke markers" d=" M 103 100 L 298 100 L 259 136 L 64 136 L 103 100 L 103 100" stroke-miterlimit="10" stroke-dasharray=""/></g><g><g><path fill="none" stroke="none"/><text fill="#000000" stroke="none" font-family="Arial" font-size="16px" font-style="normal" font-weight="normal" text-decoration="undefined" x="387" y="126" text-anchor="middle" dominant-baseline="central" transform="matrix(1 0 0 1 -206 -8)">GetComunityRequest</text></g></g><g><path fill="#ffffff" stroke="none" paint-order="stroke fill markers" d=" M 72 172 L 272 172 Q 298 172 298 198 L 298 198 Q 298 224 272 224 L 72 224 Q 46 224 46 198 L 46 198 Q 46 172 72 172 Z"/></g><g><path fill="none" stroke="#000000" paint-order="fill stroke markers" d=" M 72 172 L 272 172 Q 298 172 298 198 L 298 198 Q 298 224 272 224 L 72 224 Q 46 224 46 198 L 46 198 Q 46 172 72 172 Z" stroke-miterlimit="10" stroke-dasharray=""/></g><g><g><path fill="none" stroke="none"/><text fill="#000000" stroke="none" font-family="Arial" font-size="16px" font-style="normal" font-weight="normal" text-decoration="undefined" x="378" y="198" text-anchor="middle" dominant-baseline="central" transform="matrix(1 0 0 1 -206 -8)">Роль пользователя в</text><text fill="#000000" stroke="none" font-family="Arial" font-size="16px" font-style="normal" font-weight="normal" text-decoration="undefined" x="378" y="214" text-anchor="middle" dominant-baseline="central" transform="matrix(1 0 0 1 -206 -8)">сообществе "Участник"</text></g></g><g><rect fill="#ffffff" stroke="none" x="252" y="270" width="252" height="54" transform="matrix(1 0 0 1 -206 -8)"/></g><g><path fill="none" stroke="#000000" paint-order="fill stroke markers" d=" M 46 262 L 298 262 L 298 316 L 46 316 L 46 262 Z Z" stroke-miterlimit="10" stroke-dasharray=""/></g><g><g><path fill="none" stroke="none"/><text fill="#000000" stroke="none" font-family="Arial" font-size="16px" font-style="normal" font-weight="normal" text-decoration="undefined" x="378" y="288" text-anchor="middle" dominant-baseline="central" transform="matrix(1 0 0 1 -206 -8)">Извлечь информацию о</text><text fill="#000000" stroke="none" font-family="Arial" font-size="16px" font-style="normal" font-weight="normal" text-decoration="undefined" x="378" y="304" text-anchor="middle" dominant-baseline="central" transform="matrix(1 0 0 1 -206 -8)">сообществе</text></g></g><g><path fill="#ffffff" stroke="none" paint-order="stroke fill markers" d=" M 64 352 L 334 352 L 280 388 L 10 388 L 64 352"/></g><g><path fill="none" stroke="#000000" paint-order="fill stroke markers" d=" M 64 352 L 334 352 L 280 388 L 10 388 L 64 352 L 64 352" stroke-miterlimit="10" stroke-dasharray=""/></g><g><g><path fill="none" stroke="none"/><text fill="#000000" stroke="none" font-family="Arial" font-size="16px" font-style="normal" font-weight="normal" text-decoration="undefined" x="378" y="378" text-anchor="middle" dominant-baseline="central" transform="matrix(1 0 0 1 -206 -8)">GetComunityResponce</text></g></g><g><path fill="none" stroke="#000000" paint-order="fill stroke markers" d=" M 370 78 L 370 92 L 370 92 A 8 8 0 0 1 362 100 L 298 100" stroke-miterlimit="10" stroke-dasharray=""/></g><g><path fill="#000000" stroke="none" paint-order="stroke fill markers" d=" M 308.1626748576241 95.79048224398402 L 298 100 L 308.1626748576241 104.20951775601598"/></g><g><path fill="none" stroke="#000000" paint-order="fill stroke markers" d=" M 308.1626748576241 95.79048224398402 L 298 100 L 308.1626748576241 104.20951775601598 L 308.1626748576241 95.79048224398402" stroke-miterlimit="10" stroke-dasharray=""/></g><g><path fill="none" stroke="#000000" paint-order="fill stroke markers" d=" M 188 80 L 188 100" stroke-miterlimit="10" stroke-dasharray=""/></g><g><path fill="#000000" stroke="none" paint-order="stroke fill markers" d=" M 183.790482243984 89.83732514237585 L 188 100 L 192.209517756016 89.83732514237585"/></g><g><path fill="none" stroke="#000000" paint-order="fill stroke markers" d=" M 183.790482243984 89.83732514237585 L 188 100 L 192.209517756016 89.83732514237585 L 183.790482243984 89.83732514237585" stroke-miterlimit="10" stroke-dasharray=""/></g><g><path fill="none" stroke="#000000" paint-order="fill stroke markers" d=" M 179 136 L 179 172" stroke-miterlimit="10" stroke-dasharray=""/></g><g><path fill="#000000" stroke="none" paint-order="stroke fill markers" d=" M 174.790482243984 161.83732514237585 L 179 172 L 183.209517756016 161.83732514237585"/></g><g><path fill="none" stroke="#000000" paint-order="fill stroke markers" d=" M 174.790482243984 161.83732514237585 L 179 172 L 183.209517756016 161.83732514237585 L 174.790482243984 161.83732514237585" stroke-miterlimit="10" stroke-dasharray=""/></g><g><path fill="none" stroke="#000000" paint-order="fill stroke markers" d=" M 172 224 L 172 262" stroke-miterlimit="10" stroke-dasharray=""/></g><g><path fill="#000000" stroke="none" paint-order="stroke fill markers" d=" M 167.790482243984 251.83732514237585 L 172 262 L 176.209517756016 251.83732514237585"/></g><g><path fill="none" stroke="#000000" paint-order="fill stroke markers" d=" M 167.790482243984 251.83732514237585 L 172 262 L 176.209517756016 251.83732514237585 L 167.790482243984 251.83732514237585" stroke-miterlimit="10" stroke-dasharray=""/></g><g><path fill="none" stroke="#000000" paint-order="fill stroke markers" d=" M 172 316 L 172 352" stroke-miterlimit="10" stroke-dasharray=""/></g><g><path fill="#000000" stroke="none" paint-order="stroke fill markers" d=" M 167.790482243984 341.83732514237585 L 172 352 L 176.209517756016 341.83732514237585"/></g><g><path fill="none" stroke="#000000" paint-order="fill stroke markers" d=" M 167.790482243984 341.83732514237585 L 172 352 L 176.209517756016 341.83732514237585 L 167.790482243984 341.83732514237585" stroke-miterlimit="10" stroke-dasharray=""/></g></g></svg>