<svg version="1.1" xmlns="http://www.w3.org/2000/svg" xmlns:xlink="http://www.w3.org/1999/xlink" width="668" height="506"><defs/><g><g><rect fill="#ffffff" stroke="none" x="342" y="72" width="298" height="52" transform="matrix(1 0 0 1 -296 -62)"/></g><g><path fill="#ffffff" stroke="none" paint-order="stroke fill markers" d=" M 344 10 A 26 26 0 0 1 344 62"/></g><g><path fill="none" stroke="#000000" paint-order="fill stroke markers" d=" M 46 10 L 46 62" stroke-miterlimit="10" stroke-dasharray=""/></g><g><path fill="none" stroke="#000000" paint-order="fill stroke markers" d=" M 46 10 L 344 10" stroke-miterlimit="10" stroke-dasharray=""/></g><g><path fill="none" stroke="#000000" paint-order="fill stroke markers" d=" M 46 62 L 344 62" stroke-miterlimit="10" stroke-dasharray=""/></g><g><path fill="none" stroke="#000000" paint-order="fill stroke markers" d=" M 344 10 A 26 26 0 0 1 344 62" stroke-miterlimit="10" stroke-dasharray=""/></g><g><g><path fill="none" stroke="none"/><text fill="#000000" stroke="none" font-family="Arial" font-size="16px" font-style="normal" font-weight="normal" text-decoration="undefined" x="473.5" y="90" text-anchor="middle" dominant-baseline="central" transform="matrix(1 0 0 1 -296 -62)">GET</text><text fill="#000000" stroke="none" font-family="Arial" font-size="16px" font-style="normal" font-weight="normal" text-decoration="undefined" x="473.5" y="106" text-anchor="middle" dominant-baseline="central" transform="matrix(1 0 0 1 -296 -62)">/communities/{communityId}/members</text></g></g><g><path fill="#ffffff" stroke="none" paint-order="stroke fill markers" d=" M 73 118 L 388 118 L 325 154 L 10 154 L 73 118"/></g><g><path fill="none" stroke="#000000" paint-order="fill stroke markers" d=" M 73 118 L 388 118 L 325 154 L 10 154 L 73 118 L 73 118" stroke-miterlimit="10" stroke-dasharray=""/></g><g><g><path fill="none" stroke="none"/><text fill="#000000" stroke="none" font-family="Arial" font-size="16px" font-style="normal" font-weight="normal" text-decoration="undefined" x="495" y="198" text-anchor="middle" dominant-baseline="central" transform="matrix(1 0 0 1 -296 -62)">GetCommunityMembersRequest</text></g></g><g><path fill="#ffffff" stroke="none" paint-order="stroke fill markers" d=" M 118 460 L 388 460 L 334 496 L 64 496 L 118 460"/></g><g><path fill="none" stroke="#000000" paint-order="fill stroke markers" d=" M 118 460 L 388 460 L 334 496 L 64 496 L 118 460 L 118 460" stroke-miterlimit="10" stroke-dasharray=""/></g><g><g><path fill="none" stroke="none"/><text fill="#000000" stroke="none" font-family="Arial" font-size="16px" font-style="normal" font-weight="normal" text-decoration="undefined" x="522" y="540" text-anchor="middle" dominant-baseline="central" transform="matrix(1 0 0 1 -296 -62)">GetCommunityMembersResponse</text></g></g><g><path fill="#ffffff" stroke="none" paint-order="stroke fill markers" d=" M 433 388 L 658 388 L 613 424 L 388 424 L 433 388"/></g><g><path fill="none" stroke="#000000" paint-order="fill stroke markers" d=" M 433 388 L 658 388 L 613 424 L 388 424 L 433 388 L 433 388" stroke-miterlimit="10" stroke-dasharray=""/></g><g><g><path fill="none" stroke="none"/><text fill="#000000" stroke="none" font-family="Arial" font-size="16px" font-style="normal" font-weight="normal" text-decoration="undefined" x="819" y="468" text-anchor="middle" dominant-baseline="central" transform="matrix(1 0 0 1 -296 -62)">CommunityMemberDTO</text></g></g><g><path fill="#ffffff" stroke="#000000" paint-order="fill stroke markers" d=" M 478 44 L 501 10 L 598.484375 10 Q 621.484375 10 621.484375 44 Q 621.484375 78 598.484375 78 L 501 78 L 478 44 Z" stroke-miterlimit="10" stroke-dasharray=""/></g><g><g><path fill="none" stroke="none"/><text fill="#000000" stroke="none" font-family="Arial" font-size="16px" font-style="normal" font-weight="normal" text-decoration="undefined" x="845.7421875" y="90" text-anchor="middle" dominant-baseline="central" transform="matrix(1 0 0 1 -296 -62)">Заголовки</text><text fill="#000000" stroke="none" font-family="Arial" font-size="16px" font-style="normal" font-weight="normal" text-decoration="undefined" x="845.7421875" y="106" text-anchor="middle" dominant-baseline="central" transform="matrix(1 0 0 1 -296 -62)">запроса</text><text fill="#000000" stroke="none" font-family="Arial" font-size="16px" font-style="normal" font-weight="normal" text-decoration="undefined" x="845.7421875" y="122" text-anchor="middle" dominant-baseline="central" transform="matrix(1 0 0 1 -296 -62)">(Авторизирован)</text></g></g><g><path fill="#ffffff" stroke="none" paint-order="stroke fill markers" d=" M 64 208 L 380.21875 208 Q 398.21875 208 398.21875 226 L 398.21875 226 Q 398.21875 244 380.21875 244 L 64 244 Q 46 244 46 226 L 46 226 Q 46 208 64 208 Z"/></g><g><path fill="none" stroke="#000000" paint-order="fill stroke markers" d=" M 64 208 L 380.21875 208 Q 398.21875 208 398.21875 226 L 398.21875 226 Q 398.21875 244 380.21875 244 L 64 244 Q 46 244 46 226 L 46 226 Q 46 208 64 208 Z" stroke-miterlimit="10" stroke-dasharray=""/></g><g><g><path fill="none" stroke="none"/><text fill="#000000" stroke="none" font-family="Arial" font-size="16px" font-style="normal" font-weight="normal" text-decoration="undefined" x="518.109375" y="288" text-anchor="middle" dominant-baseline="central" transform="matrix(1 0 0 1 -296 -62)">Роль пользователя в сообществе "Участник"</text></g></g><g><rect fill="#ffffff" stroke="none" x="342" y="360" width="342" height="54" transform="matrix(1 0 0 1 -296 -62)"/></g><g><path fill="none" stroke="#000000" paint-order="fill stroke markers" d=" M 46 298 L 388 298 L 388 352 L 46 352 L 46 298 Z Z" stroke-miterlimit="10" stroke-dasharray=""/></g><g><g><path fill="none" stroke="none"/><text fill="#000000" stroke="none" font-family="Arial" font-size="16px" font-style="normal" font-weight="normal" text-decoration="undefined" x="513" y="378" text-anchor="middle" dominant-baseline="central" transform="matrix(1 0 0 1 -296 -62)">Извлечь всех участников</text></g></g><g><path fill="none" stroke="#000000" paint-order="fill stroke markers" d=" M 206 62 L 206 118" stroke-miterlimit="10" stroke-dasharray=""/></g><g><path fill="#000000" stroke="none" paint-order="stroke fill markers" d=" M 201.790482243984 107.83732514237585 L 206 118 L 210.209517756016 107.83732514237585"/></g><g><path fill="none" stroke="#000000" paint-order="fill stroke markers" d=" M 201.790482243984 107.83732514237585 L 206 118 L 210.209517756016 107.83732514237585 L 201.790482243984 107.83732514237585" stroke-miterlimit="10" stroke-dasharray=""/></g><g><path fill="none" stroke="#000000" paint-order="fill stroke markers" d=" M 495 78 L 495 114 L 495 114 A 8 8 0 0 1 487 122 L 388 122" stroke-miterlimit="10" stroke-dasharray=""/></g><g><path fill="#000000" stroke="none" paint-order="stroke fill markers" d=" M 398.1626748576241 117.790482243984 L 388 122 L 398.1626748576241 126.209517756016"/></g><g><path fill="none" stroke="#000000" paint-order="fill stroke markers" d=" M 398.1626748576241 117.790482243984 L 388 122 L 398.1626748576241 126.209517756016 L 398.1626748576241 117.790482243984" stroke-miterlimit="10" stroke-dasharray=""/></g><g><path fill="none" stroke="#000000" paint-order="fill stroke markers" d=" M 204 154 L 204 208" stroke-miterlimit="10" stroke-dasharray=""/></g><g><path fill="#000000" stroke="none" paint-order="stroke fill markers" d=" M 199.790482243984 197.83732514237585 L 204 208 L 208.209517756016 197.83732514237585"/></g><g><path fill="none" stroke="#000000" paint-order="fill stroke markers" d=" M 199.790482243984 197.83732514237585 L 204 208 L 208.209517756016 197.83732514237585 L 199.790482243984 197.83732514237585" stroke-miterlimit="10" stroke-dasharray=""/></g><g><path fill="none" stroke="#000000" paint-order="fill stroke markers" d=" M 221 244 L 221 298" stroke-miterlimit="10" stroke-dasharray=""/></g><g><path fill="#000000" stroke="none" paint-order="stroke fill markers" d=" M 216.790482243984 287.83732514237585 L 221 298 L 225.209517756016 287.83732514237585"/></g><g><path fill="none" stroke="#000000" paint-order="fill stroke markers" d=" M 216.790482243984 287.83732514237585 L 221 298 L 225.209517756016 287.83732514237585 L 216.790482243984 287.83732514237585" stroke-miterlimit="10" stroke-dasharray=""/></g><g><path fill="none" stroke="#000000" paint-order="fill stroke markers" d=" M 219 352 L 219 460" stroke-miterlimit="10" stroke-dasharray=""/></g><g><path fill="#000000" stroke="none" paint-order="stroke fill markers" d=" M 214.790482243984 449.83732514237585 L 219 460 L 223.209517756016 449.83732514237585"/></g><g><path fill="none" stroke="#000000" paint-order="fill stroke markers" d=" M 214.790482243984 449.83732514237585 L 219 460 L 223.209517756016 449.83732514237585 L 214.790482243984 449.83732514237585" stroke-miterlimit="10" stroke-dasharray=""/></g><g><path fill="none" stroke="#000000" paint-order="fill stroke markers" d=" M 449 424 L 449 452 L 449 452 A 8 8 0 0 1 441 460 L 388 460" stroke-miterlimit="10" stroke-dasharray=""/></g><g><path fill="#000000" stroke="none" paint-order="stroke fill markers" d=" M 398.1626748576241 455.790482243984 L 388 460 L 398.1626748576241 464.209517756016"/></g><g><path fill="none" stroke="#000000" paint-order="fill stroke markers" d=" M 398.1626748576241 455.790482243984 L 388 460 L 398.1626748576241 464.209517756016 L 398.1626748576241 455.790482243984" stroke-miterlimit="10" stroke-dasharray=""/></g></g></svg>