<svg version="1.1" xmlns="http://www.w3.org/2000/svg" xmlns:xlink="http://www.w3.org/1999/xlink" width="884" height="560"><defs/><g><g><rect fill="#ffffff" stroke="none" x="288" y="72" width="380.828125" height="52" transform="matrix(1 0 0 1 -278 -44)"/></g><g><path fill="#ffffff" stroke="none" paint-order="stroke fill markers" d=" M 390.828125 28 A 26 26 0 0 1 390.828125 80"/></g><g><path fill="none" stroke="#000000" paint-order="fill stroke markers" d=" M 10 28 L 10 80" stroke-miterlimit="10" stroke-dasharray=""/></g><g><path fill="none" stroke="#000000" paint-order="fill stroke markers" d=" M 10 28 L 390.828125 28" stroke-miterlimit="10" stroke-dasharray=""/></g><g><path fill="none" stroke="#000000" paint-order="fill stroke markers" d=" M 10 80 L 390.828125 80" stroke-miterlimit="10" stroke-dasharray=""/></g><g><path fill="none" stroke="#000000" paint-order="fill stroke markers" d=" M 390.828125 28 A 26 26 0 0 1 390.828125 80" stroke-miterlimit="10" stroke-dasharray=""/></g><g><g><path fill="none" stroke="none"/><text fill="#000000" stroke="none" font-family="Arial" font-size="16px" font-style="normal" font-weight="normal" text-decoration="undefined" x="450.560546875" y="98" text-anchor="middle" dominant-baseline="central" transform="matrix(1 0 0 1 -278 -44)">GET /communities/{comunityId}/challenges</text></g></g><g><path fill="#ffffff" stroke="none" paint-order="stroke fill markers" d=" M 46 208 L 362.21875 208 Q 380.21875 208 380.21875 226 L 380.21875 226 Q 380.21875 244 362.21875 244 L 46 244 Q 28 244 28 226 L 28 226 Q 28 208 46 208 Z"/></g><g><path fill="none" stroke="#000000" paint-order="fill stroke markers" d=" M 46 208 L 362.21875 208 Q 380.21875 208 380.21875 226 L 380.21875 226 Q 380.21875 244 362.21875 244 L 46 244 Q 28 244 28 226 L 28 226 Q 28 208 46 208 Z" stroke-miterlimit="10" stroke-dasharray=""/></g><g><g><path fill="none" stroke="none"/><text fill="#000000" stroke="none" font-family="Arial" font-size="16px" font-style="normal" font-weight="normal" text-decoration="undefined" x="482.109375" y="270" text-anchor="middle" dominant-baseline="central" transform="matrix(1 0 0 1 -278 -44)">Роль пользователя в сообществе "Участник"</text></g></g><g><path fill="#ffffff" stroke="none" paint-order="stroke fill markers" d=" M 76 118 L 406 118 L 340 154 L 10 154 L 76 118"/></g><g><path fill="none" stroke="#000000" paint-order="fill stroke markers" d=" M 76 118 L 406 118 L 340 154 L 10 154 L 76 118 L 76 118" stroke-miterlimit="10" stroke-dasharray=""/></g><g><g><path fill="none" stroke="none"/><text fill="#000000" stroke="none" font-family="Arial" font-size="16px" font-style="normal" font-weight="normal" text-decoration="undefined" x="486" y="180" text-anchor="middle" dominant-baseline="central" transform="matrix(1 0 0 1 -278 -44)">GetCommunitiesChallengesRequest</text></g></g><g><rect fill="#ffffff" stroke="none" x="306" y="342" width="360" height="36" transform="matrix(1 0 0 1 -278 -44)"/></g><g><path fill="none" stroke="#000000" paint-order="fill stroke markers" d=" M 28 298 L 388 298 L 388 334 L 28 334 L 28 298 Z Z" stroke-miterlimit="10" stroke-dasharray=""/></g><g><g><path fill="none" stroke="none"/><text fill="#000000" stroke="none" font-family="Arial" font-size="16px" font-style="normal" font-weight="normal" text-decoration="undefined" x="486" y="360" text-anchor="middle" dominant-baseline="central" transform="matrix(1 0 0 1 -278 -44)">Извлечь список всех открытых челленджей</text></g></g><g><path fill="#ffffff" stroke="none" paint-order="stroke fill markers" d=" M 70 514 L 370 514 L 310 550 L 10 550 L 70 514"/></g><g><path fill="none" stroke="#000000" paint-order="fill stroke markers" d=" M 70 514 L 370 514 L 310 550 L 10 550 L 70 514 L 70 514" stroke-miterlimit="10" stroke-dasharray=""/></g><g><g><path fill="none" stroke="none"/><text fill="#000000" stroke="none" font-family="Arial" font-size="16px" font-style="normal" font-weight="normal" text-decoration="undefined" x="468" y="576" text-anchor="middle" dominant-baseline="central" transform="matrix(1 0 0 1 -278 -44)">GetCommunitiesChallengesResponse</text></g></g><g><path fill="#ffffff" stroke="none" paint-order="stroke fill markers" d=" M 403 442 L 658 442 L 607 478 L 352 478 L 403 442"/></g><g><path fill="none" stroke="#000000" paint-order="fill stroke markers" d=" M 403 442 L 658 442 L 607 478 L 352 478 L 403 442 L 403 442" stroke-miterlimit="10" stroke-dasharray=""/></g><g><g><path fill="none" stroke="none"/><text fill="#000000" stroke="none" font-family="Arial" font-size="16px" font-style="normal" font-weight="normal" text-decoration="undefined" x="783" y="504" text-anchor="middle" dominant-baseline="central" transform="matrix(1 0 0 1 -278 -44)">ChallengesDTO</text></g></g><g><path fill="#ffffff" stroke="none" paint-order="stroke fill markers" d=" M 634 352 L 874 352 L 826 388 L 586 388 L 634 352"/></g><g><path fill="none" stroke="#000000" paint-order="fill stroke markers" d=" M 634 352 L 874 352 L 826 388 L 586 388 L 634 352 L 634 352" stroke-miterlimit="10" stroke-dasharray=""/></g><g><g><path fill="none" stroke="none"/><text fill="#000000" stroke="none" font-family="Arial" font-size="16px" font-style="normal" font-weight="normal" text-decoration="undefined" x="1008" y="414" text-anchor="middle" dominant-baseline="central" transform="matrix(1 0 0 1 -278 -44)">ChallengeMembersDTO</text></g></g><g><path fill="none" stroke="#000000" paint-order="fill stroke markers" d=" M 674 388 L 674 434 L 674 434 A 8 8 0 0 1 666 442 L 658 442" stroke-miterlimit="10" stroke-dasharray=""/></g><g><path fill="#000000" stroke="none" paint-order="stroke fill markers" d=" M 668.1626748576241 437.790482243984 L 658 442 L 668.1626748576241 446.209517756016"/></g><g><path fill="none" stroke="#000000" paint-order="fill stroke markers" d=" M 668.1626748576241 437.790482243984 L 658 442 L 668.1626748576241 446.209517756016 L 668.1626748576241 437.790482243984" stroke-miterlimit="10" stroke-dasharray=""/></g><g><path fill="none" stroke="#000000" paint-order="fill stroke markers" d=" M 426 478 L 426 506 L 426 506 A 8 8 0 0 1 418 514 L 370 514" stroke-miterlimit="10" stroke-dasharray=""/></g><g><path fill="#000000" stroke="none" paint-order="stroke fill markers" d=" M 380.1626748576241 509.790482243984 L 370 514 L 380.1626748576241 518.209517756016"/></g><g><path fill="none" stroke="#000000" paint-order="fill stroke markers" d=" M 380.1626748576241 509.790482243984 L 370 514 L 380.1626748576241 518.209517756016 L 380.1626748576241 509.790482243984" stroke-miterlimit="10" stroke-dasharray=""/></g><g><path fill="#ffffff" stroke="#000000" paint-order="fill stroke markers" d=" M 532 44 L 555 10 L 652.484375 10 Q 675.484375 10 675.484375 44 Q 675.484375 78 652.484375 78 L 555 78 L 532 44 Z" stroke-miterlimit="10" stroke-dasharray=""/></g><g><g><path fill="none" stroke="none"/><text fill="#000000" stroke="none" font-family="Arial" font-size="16px" font-style="normal" font-weight="normal" text-decoration="undefined" x="881.7421875" y="72" text-anchor="middle" dominant-baseline="central" transform="matrix(1 0 0 1 -278 -44)">Заголовки</text><text fill="#000000" stroke="none" font-family="Arial" font-size="16px" font-style="normal" font-weight="normal" text-decoration="undefined" x="881.7421875" y="88" text-anchor="middle" dominant-baseline="central" transform="matrix(1 0 0 1 -278 -44)">запроса</text><text fill="#000000" stroke="none" font-family="Arial" font-size="16px" font-style="normal" font-weight="normal" text-decoration="undefined" x="881.7421875" y="104" text-anchor="middle" dominant-baseline="central" transform="matrix(1 0 0 1 -278 -44)">(Авторизирован)</text></g></g><g><path fill="none" stroke="#000000" paint-order="fill stroke markers" d=" M 211 80 L 211 118" stroke-miterlimit="10" stroke-dasharray=""/></g><g><path fill="#000000" stroke="none" paint-order="stroke fill markers" d=" M 206.790482243984 107.83732514237585 L 211 118 L 215.209517756016 107.83732514237585"/></g><g><path fill="none" stroke="#000000" paint-order="fill stroke markers" d=" M 206.790482243984 107.83732514237585 L 211 118 L 215.209517756016 107.83732514237585 L 206.790482243984 107.83732514237585" stroke-miterlimit="10" stroke-dasharray=""/></g><g><path fill="none" stroke="#000000" paint-order="fill stroke markers" d=" M 532 78 L 532 110 L 532 110 A 8 8 0 0 1 524 118 L 406 118" stroke-miterlimit="10" stroke-dasharray=""/></g><g><path fill="#000000" stroke="none" paint-order="stroke fill markers" d=" M 416.1626748576241 113.790482243984 L 406 118 L 416.1626748576241 122.209517756016"/></g><g><path fill="none" stroke="#000000" paint-order="fill stroke markers" d=" M 416.1626748576241 113.790482243984 L 406 118 L 416.1626748576241 122.209517756016 L 416.1626748576241 113.790482243984" stroke-miterlimit="10" stroke-dasharray=""/></g><g><path fill="none" stroke="#000000" paint-order="fill stroke markers" d=" M 207 154 L 207 208" stroke-miterlimit="10" stroke-dasharray=""/></g><g><path fill="#000000" stroke="none" paint-order="stroke fill markers" d=" M 202.790482243984 197.83732514237585 L 207 208 L 211.209517756016 197.83732514237585"/></g><g><path fill="none" stroke="#000000" paint-order="fill stroke markers" d=" M 202.790482243984 197.83732514237585 L 207 208 L 211.209517756016 197.83732514237585 L 202.790482243984 197.83732514237585" stroke-miterlimit="10" stroke-dasharray=""/></g><g><path fill="none" stroke="#000000" paint-order="fill stroke markers" d=" M 207 334 L 207 514" stroke-miterlimit="10" stroke-dasharray=""/></g><g><path fill="#000000" stroke="none" paint-order="stroke fill markers" d=" M 202.790482243984 503.8373251423759 L 207 514 L 211.209517756016 503.8373251423759"/></g><g><path fill="none" stroke="#000000" paint-order="fill stroke markers" d=" M 202.790482243984 503.8373251423759 L 207 514 L 211.209517756016 503.8373251423759 L 202.790482243984 503.8373251423759" stroke-miterlimit="10" stroke-dasharray=""/></g><g><path fill="none" stroke="#000000" paint-order="fill stroke markers" d=" M 205 244 L 205 298" stroke-miterlimit="10" stroke-dasharray=""/></g><g><path fill="#000000" stroke="none" paint-order="stroke fill markers" d=" M 200.790482243984 287.83732514237585 L 205 298 L 209.209517756016 287.83732514237585"/></g><g><path fill="none" stroke="#000000" paint-order="fill stroke markers" d=" M 200.790482243984 287.83732514237585 L 205 298 L 209.209517756016 287.83732514237585 L 200.790482243984 287.83732514237585" stroke-miterlimit="10" stroke-dasharray=""/></g></g></svg>