<svg version="1.1" xmlns="http://www.w3.org/2000/svg" xmlns:xlink="http://www.w3.org/1999/xlink" width="866" height="1136"><defs/><g><g><rect fill="#ffffff" stroke="none" x="288" y="72" width="234" height="36" transform="matrix(1 0 0 1 -260 -26)"/></g><g><path fill="#ffffff" stroke="none" paint-order="stroke fill markers" d=" M 262 46 A 18 18 0 0 1 262 82"/></g><g><path fill="none" stroke="#000000" paint-order="fill stroke markers" d=" M 28 46 L 28 82" stroke-miterlimit="10" stroke-dasharray=""/></g><g><path fill="none" stroke="#000000" paint-order="fill stroke markers" d=" M 28 46 L 262 46" stroke-miterlimit="10" stroke-dasharray=""/></g><g><path fill="none" stroke="#000000" paint-order="fill stroke markers" d=" M 28 82 L 262 82" stroke-miterlimit="10" stroke-dasharray=""/></g><g><path fill="none" stroke="#000000" paint-order="fill stroke markers" d=" M 262 46 A 18 18 0 0 1 262 82" stroke-miterlimit="10" stroke-dasharray=""/></g><g><g><path fill="none" stroke="none"/><text fill="#000000" stroke="none" font-family="Arial" font-size="16px" font-style="normal" font-weight="normal" text-decoration="undefined" x="392.5" y="90" text-anchor="middle" dominant-baseline="central" transform="matrix(1 0 0 1 -260 -26)">POST /communities</text></g></g><g><path fill="#ffffff" stroke="#000000" paint-order="fill stroke markers" d=" M 352 44 L 375 10 L 472.484375 10 Q 495.484375 10 495.484375 44 Q 495.484375 78 472.484375 78 L 375 78 L 352 44 Z" stroke-miterlimit="10" stroke-dasharray=""/></g><g><g><path fill="none" stroke="none"/><text fill="#000000" stroke="none" font-family="Arial" font-size="16px" font-style="normal" font-weight="normal" text-decoration="undefined" x="683.7421875" y="54" text-anchor="middle" dominant-baseline="central" transform="matrix(1 0 0 1 -260 -26)">Заголовки</text><text fill="#000000" stroke="none" font-family="Arial" font-size="16px" font-style="normal" font-weight="normal" text-decoration="undefined" x="683.7421875" y="70" text-anchor="middle" dominant-baseline="central" transform="matrix(1 0 0 1 -260 -26)">запроса</text><text fill="#000000" stroke="none" font-family="Arial" font-size="16px" font-style="normal" font-weight="normal" text-decoration="undefined" x="683.7421875" y="86" text-anchor="middle" dominant-baseline="central" transform="matrix(1 0 0 1 -260 -26)">(Авторизирован)</text></g></g><g><path fill="#ffffff" stroke="none" paint-order="stroke fill markers" d=" M 52 118 L 262 118 L 220 154 L 10 154 L 52 118"/></g><g><path fill="none" stroke="#000000" paint-order="fill stroke markers" d=" M 52 118 L 262 118 L 220 154 L 10 154 L 52 118 L 52 118" stroke-miterlimit="10" stroke-dasharray=""/></g><g><g><path fill="none" stroke="none"/><text fill="#000000" stroke="none" font-family="Arial" font-size="16px" font-style="normal" font-weight="normal" text-decoration="undefined" x="396" y="162" text-anchor="middle" dominant-baseline="central" transform="matrix(1 0 0 1 -260 -26)">PostComunityRequest</text></g></g><g><rect fill="#ffffff" stroke="none" x="270" y="522" width="288" height="36" transform="matrix(1 0 0 1 -260 -26)"/></g><g><path fill="none" stroke="#000000" paint-order="fill stroke markers" d=" M 10 496 L 298 496 L 298 532 L 10 532 L 10 496 Z Z" stroke-miterlimit="10" stroke-dasharray=""/></g><g><g><path fill="none" stroke="none"/><text fill="#000000" stroke="none" font-family="Arial" font-size="16px" font-style="normal" font-weight="normal" text-decoration="undefined" x="414" y="540" text-anchor="middle" dominant-baseline="central" transform="matrix(1 0 0 1 -260 -26)">Создать новое сообщество</text></g></g><g><rect fill="#ffffff" stroke="none" x="828" y="936" width="288" height="52" transform="matrix(1 0 0 1 -260 -26)"/></g><g><path fill="none" stroke="#000000" paint-order="fill stroke markers" d=" M 568 910 L 856 910 L 856 962 L 568 962 L 568 910 Z Z" stroke-miterlimit="10" stroke-dasharray=""/></g><g><g><path fill="none" stroke="none"/><text fill="#000000" stroke="none" font-family="Arial" font-size="16px" font-style="normal" font-weight="normal" text-decoration="undefined" x="972" y="954" text-anchor="middle" dominant-baseline="central" transform="matrix(1 0 0 1 -260 -26)">Отправить приглашение стать</text><text fill="#000000" stroke="none" font-family="Arial" font-size="16px" font-style="normal" font-weight="normal" text-decoration="undefined" x="972" y="970" text-anchor="middle" dominant-baseline="central" transform="matrix(1 0 0 1 -260 -26)">аккаунтом оплаты в сообществе</text></g></g><g><path fill="#ffffff" stroke="none" paint-order="stroke fill markers" d=" M 316 826 L 399.2109375 730 L 482.421875 826 L 399.2109375 922 L 316 826"/></g><g><path fill="none" stroke="#000000" paint-order="fill stroke markers" d=" M 316 826 L 399.2109375 730 L 482.421875 826 L 399.2109375 922 L 316 826 L 316 826" stroke-miterlimit="10" stroke-dasharray=""/></g><g><g><path fill="none" stroke="none"/><text fill="#000000" stroke="none" font-family="Arial" font-size="16px" font-style="normal" font-weight="normal" text-decoration="undefined" x="659.2109375" y="812" text-anchor="middle" dominant-baseline="central" transform="matrix(1 0 0 1 -260 -26)">Ид</text><text fill="#000000" stroke="none" font-family="Arial" font-size="16px" font-style="normal" font-weight="normal" text-decoration="undefined" x="659.2109375" y="828" text-anchor="middle" dominant-baseline="central" transform="matrix(1 0 0 1 -260 -26)">аккаунта</text><text fill="#000000" stroke="none" font-family="Arial" font-size="16px" font-style="normal" font-weight="normal" text-decoration="undefined" x="659.2109375" y="844" text-anchor="middle" dominant-baseline="central" transform="matrix(1 0 0 1 -260 -26)">оплаты</text><text fill="#000000" stroke="none" font-family="Arial" font-size="16px" font-style="normal" font-weight="normal" text-decoration="undefined" x="659.2109375" y="860" text-anchor="middle" dominant-baseline="central" transform="matrix(1 0 0 1 -260 -26)">отличается</text><text fill="#000000" stroke="none" font-family="Arial" font-size="16px" font-style="normal" font-weight="normal" text-decoration="undefined" x="659.2109375" y="876" text-anchor="middle" dominant-baseline="central" transform="matrix(1 0 0 1 -260 -26)">от ид</text><text fill="#000000" stroke="none" font-family="Arial" font-size="16px" font-style="normal" font-weight="normal" text-decoration="undefined" x="659.2109375" y="892" text-anchor="middle" dominant-baseline="central" transform="matrix(1 0 0 1 -260 -26)">создателя</text></g></g><g><path fill="#ffffff" stroke="none" paint-order="stroke fill markers" d=" M 486 208 L 812 208 Q 838 208 838 234 L 838 234 Q 838 260 812 260 L 486 260 Q 460 260 460 234 L 460 234 Q 460 208 486 208 Z"/></g><g><path fill="none" stroke="#000000" paint-order="fill stroke markers" d=" M 486 208 L 812 208 Q 838 208 838 234 L 838 234 Q 838 260 812 260 L 486 260 Q 460 260 460 234 L 460 234 Q 460 208 486 208 Z" stroke-miterlimit="10" stroke-dasharray=""/></g><g><g><path fill="none" stroke="none"/><text fill="#000000" stroke="none" font-family="Arial" font-size="16px" font-style="normal" font-weight="normal" text-decoration="undefined" x="909" y="252" text-anchor="middle" dominant-baseline="central" transform="matrix(1 0 0 1 -260 -26)">Существует выбранный аккаунт</text></g></g><g><path fill="none" stroke="#000000" paint-order="fill stroke markers" d=" M 482 922 L 482 920 L 482 920 A 8 8 0 0 0 490 928 L 568 928" stroke-miterlimit="10" stroke-dasharray=""/></g><g><path fill="#000000" stroke="none" paint-order="stroke fill markers" d=" M 557.8373251423759 932.209517756016 L 568 928 L 557.8373251423758 923.790482243984"/></g><g><path fill="none" stroke="#000000" paint-order="fill stroke markers" d=" M 557.8373251423759 932.209517756016 L 568 928 L 557.8373251423758 923.790482243984 L 557.8373251423759 932.209517756016" stroke-miterlimit="10" stroke-dasharray=""/></g><g><rect fill="#ffffff" stroke="none" x="733" y="931" width="19.734375" height="16" transform="matrix(1 0 0 1 -260 -26)"/></g><g><g><path fill="none" stroke="none"/><text fill="#000000" stroke="none" font-family="Arial" font-size="16px" font-style="normal" font-weight="normal" text-decoration="undefined" x="742.8671875" y="939" text-anchor="middle" dominant-baseline="central" transform="matrix(1 0 0 1 -260 -26)">Да</text></g></g><g><path fill="none" stroke="#000000" paint-order="fill stroke markers" d=" M 423 78 L 423 110 L 423 110 A 8 8 0 0 1 415 118 L 262 118" stroke-miterlimit="10" stroke-dasharray=""/></g><g><path fill="#000000" stroke="none" paint-order="stroke fill markers" d=" M 272.1626748576241 113.790482243984 L 262 118 L 272.1626748576241 122.209517756016"/></g><g><path fill="none" stroke="#000000" paint-order="fill stroke markers" d=" M 272.1626748576241 113.790482243984 L 262 118 L 272.1626748576241 122.209517756016 L 272.1626748576241 113.790482243984" stroke-miterlimit="10" stroke-dasharray=""/></g><g><path fill="none" stroke="#000000" paint-order="fill stroke markers" d=" M 150 82 L 150 118" stroke-miterlimit="10" stroke-dasharray=""/></g><g><path fill="#000000" stroke="none" paint-order="stroke fill markers" d=" M 145.790482243984 107.83732514237585 L 150 118 L 154.209517756016 107.83732514237585"/></g><g><path fill="none" stroke="#000000" paint-order="fill stroke markers" d=" M 145.790482243984 107.83732514237585 L 150 118 L 154.209517756016 107.83732514237585 L 145.790482243984 107.83732514237585" stroke-miterlimit="10" stroke-dasharray=""/></g><g><path fill="#ffffff" stroke="none" paint-order="stroke fill markers" d=" M 79 1090 L 244 1090 L 211 1126 L 46 1126 L 79 1090"/></g><g><path fill="none" stroke="#000000" paint-order="fill stroke markers" d=" M 79 1090 L 244 1090 L 211 1126 L 46 1126 L 79 1090 L 79 1090" stroke-miterlimit="10" stroke-dasharray=""/></g><g><g><path fill="none" stroke="none"/><text fill="#000000" stroke="none" font-family="Arial" font-size="16px" font-style="normal" font-weight="normal" text-decoration="undefined" x="405" y="1134" text-anchor="middle" dominant-baseline="central" transform="matrix(1 0 0 1 -260 -26)">NoBodyResponse</text></g></g><g><path fill="none" stroke="#000000" paint-order="fill stroke markers" d=" M 712 962 L 712 1100 L 712 1100 A 8 8 0 0 1 704 1108 L 244 1108" stroke-miterlimit="10" stroke-dasharray=""/></g><g><path fill="#000000" stroke="none" paint-order="stroke fill markers" d=" M 254.1626748576241 1103.7904822439841 L 244 1108 L 254.1626748576241 1112.2095177560159"/></g><g><path fill="none" stroke="#000000" paint-order="fill stroke markers" d=" M 254.1626748576241 1103.7904822439841 L 244 1108 L 254.1626748576241 1112.2095177560159 L 254.1626748576241 1103.7904822439841" stroke-miterlimit="10" stroke-dasharray=""/></g><g><path fill="#ffffff" stroke="none" paint-order="stroke fill markers" d=" M 450 388 L 812 388 Q 838 388 838 414 L 838 414 Q 838 440 812 440 L 450 440 Q 424 440 424 414 L 424 414 Q 424 388 450 388 Z"/></g><g><path fill="none" stroke="#000000" paint-order="fill stroke markers" d=" M 450 388 L 812 388 Q 838 388 838 414 L 838 414 Q 838 440 812 440 L 450 440 Q 424 440 424 414 L 424 414 Q 424 388 450 388 Z" stroke-miterlimit="10" stroke-dasharray=""/></g><g><g><path fill="none" stroke="none"/><text fill="#000000" stroke="none" font-family="Arial" font-size="16px" font-style="normal" font-weight="normal" text-decoration="undefined" x="891" y="432" text-anchor="middle" dominant-baseline="central" transform="matrix(1 0 0 1 -260 -26)">Не заблокирована ли возможность у выбранного</text><text fill="#000000" stroke="none" font-family="Arial" font-size="16px" font-style="normal" font-weight="normal" text-decoration="undefined" x="891" y="448" text-anchor="middle" dominant-baseline="central" transform="matrix(1 0 0 1 -260 -26)">юзера быть аккаунтом для оплаты в сообществе</text></g></g><g><path fill="none" stroke="#000000" paint-order="fill stroke markers" d=" M 424 440 L 162 440 L 162 440 A 8 8 0 0 0 154 448 L 154 496" stroke-miterlimit="10" stroke-dasharray=""/></g><g><path fill="#000000" stroke="none" paint-order="stroke fill markers" d=" M 149.790482243984 485.83732514237585 L 154 496 L 158.209517756016 485.83732514237585"/></g><g><path fill="none" stroke="#000000" paint-order="fill stroke markers" d=" M 149.790482243984 485.83732514237585 L 154 496 L 158.209517756016 485.83732514237585 L 149.790482243984 485.83732514237585" stroke-miterlimit="10" stroke-dasharray=""/></g><g><path fill="#ffffff" stroke="none" paint-order="stroke fill markers" d=" M 522 298 L 781 298 Q 807 298 807 324 L 807 324 Q 807 350 781 350 L 522 350 Q 496 350 496 324 L 496 324 Q 496 298 522 298 Z"/></g><g><path fill="none" stroke="#000000" paint-order="fill stroke markers" d=" M 522 298 L 781 298 Q 807 298 807 324 L 807 324 Q 807 350 781 350 L 522 350 Q 496 350 496 324 L 496 324 Q 496 298 522 298 Z" stroke-miterlimit="10" stroke-dasharray=""/></g><g><g><path fill="none" stroke="none"/><text fill="#000000" stroke="none" font-family="Arial" font-size="16px" font-style="normal" font-weight="normal" text-decoration="undefined" x="911.5" y="342" text-anchor="middle" dominant-baseline="central" transform="matrix(1 0 0 1 -260 -26)">Не заблокировал ли пользователь</text><text fill="#000000" stroke="none" font-family="Arial" font-size="16px" font-style="normal" font-weight="normal" text-decoration="undefined" x="911.5" y="358" text-anchor="middle" dominant-baseline="central" transform="matrix(1 0 0 1 -260 -26)">этот юзер ид</text></g></g><g><path fill="none" stroke="#000000" paint-order="fill stroke markers" d=" M 640 350 L 640 388" stroke-miterlimit="10" stroke-dasharray=""/></g><g><path fill="#000000" stroke="none" paint-order="stroke fill markers" d=" M 635.790482243984 377.83732514237585 L 640 388 L 644.209517756016 377.83732514237585"/></g><g><path fill="none" stroke="#000000" paint-order="fill stroke markers" d=" M 635.790482243984 377.83732514237585 L 640 388 L 644.209517756016 377.83732514237585 L 635.790482243984 377.83732514237585" stroke-miterlimit="10" stroke-dasharray=""/></g><g><rect fill="#ffffff" stroke="none" x="558" y="1008" width="216" height="54" transform="matrix(1 0 0 1 -260 -26)"/></g><g><path fill="none" stroke="#000000" paint-order="fill stroke markers" d=" M 298 982 L 514 982 L 514 1036 L 298 1036 L 298 982 Z Z" stroke-miterlimit="10" stroke-dasharray=""/></g><g><g><path fill="none" stroke="none"/><text fill="#000000" stroke="none" font-family="Arial" font-size="16px" font-style="normal" font-weight="normal" text-decoration="undefined" x="666" y="1026" text-anchor="middle" dominant-baseline="central" transform="matrix(1 0 0 1 -260 -26)">Установить аккаунт для</text><text fill="#000000" stroke="none" font-family="Arial" font-size="16px" font-style="normal" font-weight="normal" text-decoration="undefined" x="666" y="1042" text-anchor="middle" dominant-baseline="central" transform="matrix(1 0 0 1 -260 -26)">оплаты</text></g></g><g><path fill="none" stroke="#000000" paint-order="fill stroke markers" d=" M 402 922 L 402 982" stroke-miterlimit="10" stroke-dasharray=""/></g><g><path fill="#000000" stroke="none" paint-order="stroke fill markers" d=" M 397.790482243984 971.8373251423759 L 402 982 L 406.209517756016 971.8373251423759"/></g><g><path fill="none" stroke="#000000" paint-order="fill stroke markers" d=" M 397.790482243984 971.8373251423759 L 402 982 L 406.209517756016 971.8373251423759 L 397.790482243984 971.8373251423759" stroke-miterlimit="10" stroke-dasharray=""/></g><g><rect fill="#ffffff" stroke="none" x="663" y="969" width="27.25" height="16" transform="matrix(1 0 0 1 -260 -26)"/></g><g><g><path fill="none" stroke="none"/><text fill="#000000" stroke="none" font-family="Arial" font-size="16px" font-style="normal" font-weight="normal" text-decoration="undefined" x="676.625" y="977" text-anchor="middle" dominant-baseline="central" transform="matrix(1 0 0 1 -260 -26)">Нет</text></g></g><g><path fill="none" stroke="#000000" paint-order="fill stroke markers" d=" M 298 1009 L 160 1009 L 160 1009 A 8 8 0 0 0 152 1017 L 152 1090" stroke-miterlimit="10" stroke-dasharray=""/></g><g><path fill="#000000" stroke="none" paint-order="stroke fill markers" d=" M 147.790482243984 1079.837325142376 L 152 1090 L 156.209517756016 1079.837325142376"/></g><g><path fill="none" stroke="#000000" paint-order="fill stroke markers" d=" M 147.790482243984 1079.837325142376 L 152 1090 L 156.209517756016 1079.837325142376 L 147.790482243984 1079.837325142376" stroke-miterlimit="10" stroke-dasharray=""/></g><g><path fill="none" stroke="#000000" paint-order="fill stroke markers" d=" M 649 260 L 649 298" stroke-miterlimit="10" stroke-dasharray=""/></g><g><path fill="#000000" stroke="none" paint-order="stroke fill markers" d=" M 644.790482243984 287.83732514237585 L 649 298 L 653.209517756016 287.83732514237585"/></g><g><path fill="none" stroke="#000000" paint-order="fill stroke markers" d=" M 644.790482243984 287.83732514237585 L 649 298 L 653.209517756016 287.83732514237585 L 644.790482243984 287.83732514237585" stroke-miterlimit="10" stroke-dasharray=""/></g><g><path fill="#ffffff" stroke="none" paint-order="stroke fill markers" d=" M 98 208 L 218.078125 208 Q 252.078125 208 252.078125 242 L 252.078125 242 Q 252.078125 276 218.078125 276 L 98 276 Q 64 276 64 242 L 64 242 Q 64 208 98 208 Z"/></g><g><path fill="none" stroke="#000000" paint-order="fill stroke markers" d=" M 98 208 L 218.078125 208 Q 252.078125 208 252.078125 242 L 252.078125 242 Q 252.078125 276 218.078125 276 L 98 276 Q 64 276 64 242 L 64 242 Q 64 208 98 208 Z" stroke-miterlimit="10" stroke-dasharray=""/></g><g><g><path fill="none" stroke="none"/><text fill="#000000" stroke="none" font-family="Arial" font-size="16px" font-style="normal" font-weight="normal" text-decoration="undefined" x="418.0390625" y="252" text-anchor="middle" dominant-baseline="central" transform="matrix(1 0 0 1 -260 -26)">Указано поле</text><text fill="#000000" stroke="none" font-family="Arial" font-size="16px" font-style="normal" font-weight="normal" text-decoration="undefined" x="418.0390625" y="268" text-anchor="middle" dominant-baseline="central" transform="matrix(1 0 0 1 -260 -26)">PaymentUserAccountId</text></g></g><g><path fill="none" stroke="#000000" paint-order="fill stroke markers" d=" M 252 208 L 460 208" stroke-miterlimit="10" stroke-dasharray=""/></g><g><path fill="#000000" stroke="none" paint-order="stroke fill markers" d=" M 449.8373251423759 212.209517756016 L 460 208 L 449.8373251423758 203.790482243984"/></g><g><path fill="none" stroke="#000000" paint-order="fill stroke markers" d=" M 449.8373251423759 212.209517756016 L 460 208 L 449.8373251423758 203.790482243984 L 449.8373251423759 212.209517756016" stroke-miterlimit="10" stroke-dasharray=""/></g><g><rect fill="#ffffff" stroke="none" x="607" y="211" width="19.734375" height="16" transform="matrix(1 0 0 1 -260 -26)"/></g><g><g><path fill="none" stroke="none"/><text fill="#000000" stroke="none" font-family="Arial" font-size="16px" font-style="normal" font-weight="normal" text-decoration="undefined" x="616.8671875" y="219" text-anchor="middle" dominant-baseline="central" transform="matrix(1 0 0 1 -260 -26)">Да</text></g></g><g><path fill="none" stroke="#000000" paint-order="fill stroke markers" d=" M 143 154 L 143 208" stroke-miterlimit="10" stroke-dasharray=""/></g><g><path fill="#000000" stroke="none" paint-order="stroke fill markers" d=" M 138.790482243984 197.83732514237585 L 143 208 L 147.209517756016 197.83732514237585"/></g><g><path fill="none" stroke="#000000" paint-order="fill stroke markers" d=" M 138.790482243984 197.83732514237585 L 143 208 L 147.209517756016 197.83732514237585 L 138.790482243984 197.83732514237585" stroke-miterlimit="10" stroke-dasharray=""/></g><g><path fill="none" stroke="#000000" paint-order="fill stroke markers" d=" M 118 276 L 118 496" stroke-miterlimit="10" stroke-dasharray=""/></g><g><path fill="#000000" stroke="none" paint-order="stroke fill markers" d=" M 113.790482243984 485.83732514237585 L 118 496 L 122.209517756016 485.83732514237585"/></g><g><path fill="none" stroke="#000000" paint-order="fill stroke markers" d=" M 113.790482243984 485.83732514237585 L 118 496 L 122.209517756016 485.83732514237585 L 113.790482243984 485.83732514237585" stroke-miterlimit="10" stroke-dasharray=""/></g><g><rect fill="#ffffff" stroke="none" x="380" y="403" width="27.25" height="16" transform="matrix(1 0 0 1 -260 -26)"/></g><g><g><path fill="none" stroke="none"/><text fill="#000000" stroke="none" font-family="Arial" font-size="16px" font-style="normal" font-weight="normal" text-decoration="undefined" x="393.625" y="411" text-anchor="middle" dominant-baseline="central" transform="matrix(1 0 0 1 -260 -26)">Нет</text></g></g><g><path fill="#ffffff" stroke="none" paint-order="stroke fill markers" d=" M 10 640 L 178.078125 586 L 346.15625 640 L 178.078125 694 L 10 640"/></g><g><path fill="none" stroke="#000000" paint-order="fill stroke markers" d=" M 10 640 L 178.078125 586 L 346.15625 640 L 178.078125 694 L 10 640 L 10 640" stroke-miterlimit="10" stroke-dasharray=""/></g><g><g><path fill="none" stroke="none"/><text fill="#000000" stroke="none" font-family="Arial" font-size="16px" font-style="normal" font-weight="normal" text-decoration="undefined" x="438.078125" y="658" text-anchor="middle" dominant-baseline="central" transform="matrix(1 0 0 1 -260 -26)">Указан</text><text fill="#000000" stroke="none" font-family="Arial" font-size="16px" font-style="normal" font-weight="normal" text-decoration="undefined" x="438.078125" y="674" text-anchor="middle" dominant-baseline="central" transform="matrix(1 0 0 1 -260 -26)">PaymentUserAccountId</text></g></g><g><path fill="none" stroke="#000000" paint-order="fill stroke markers" d=" M 157 532 L 157 586" stroke-miterlimit="10" stroke-dasharray=""/></g><g><path fill="#000000" stroke="none" paint-order="stroke fill markers" d=" M 152.790482243984 575.8373251423759 L 157 586 L 161.209517756016 575.8373251423759"/></g><g><path fill="none" stroke="#000000" paint-order="fill stroke markers" d=" M 152.790482243984 575.8373251423759 L 157 586 L 161.209517756016 575.8373251423759 L 152.790482243984 575.8373251423759" stroke-miterlimit="10" stroke-dasharray=""/></g><g><path fill="none" stroke="#000000" paint-order="fill stroke markers" d=" M 242 694 L 242 748 L 242 748 A 8 8 0 0 0 250 756 L 316 756" stroke-miterlimit="10" stroke-dasharray=""/></g><g><path fill="#000000" stroke="none" paint-order="stroke fill markers" d=" M 305.8373251423759 760.209517756016 L 316 756 L 305.8373251423758 751.790482243984"/></g><g><path fill="none" stroke="#000000" paint-order="fill stroke markers" d=" M 305.8373251423759 760.209517756016 L 316 756 L 305.8373251423758 751.790482243984 L 305.8373251423759 760.209517756016" stroke-miterlimit="10" stroke-dasharray=""/></g><g><rect fill="#ffffff" stroke="none" x="493" y="759" width="19.734375" height="16" transform="matrix(1 0 0 1 -260 -26)"/></g><g><g><path fill="none" stroke="none"/><text fill="#000000" stroke="none" font-family="Arial" font-size="16px" font-style="normal" font-weight="normal" text-decoration="undefined" x="502.8671875" y="767" text-anchor="middle" dominant-baseline="central" transform="matrix(1 0 0 1 -260 -26)">Да</text></g></g><g><path fill="none" stroke="#000000" paint-order="fill stroke markers" d=" M 100 694 L 100 1090" stroke-miterlimit="10" stroke-dasharray=""/></g><g><path fill="#000000" stroke="none" paint-order="stroke fill markers" d=" M 95.790482243984 1079.837325142376 L 100 1090 L 104.209517756016 1079.837325142376"/></g><g><path fill="none" stroke="#000000" paint-order="fill stroke markers" d=" M 95.790482243984 1079.837325142376 L 100 1090 L 104.209517756016 1079.837325142376 L 95.790482243984 1079.837325142376" stroke-miterlimit="10" stroke-dasharray=""/></g><g><rect fill="#ffffff" stroke="none" x="362" y="909" width="27.25" height="16" transform="matrix(1 0 0 1 -260 -26)"/></g><g><g><path fill="none" stroke="none"/><text fill="#000000" stroke="none" font-family="Arial" font-size="16px" font-style="normal" font-weight="normal" text-decoration="undefined" x="375.625" y="917" text-anchor="middle" dominant-baseline="central" transform="matrix(1 0 0 1 -260 -26)">Нет</text></g></g></g></svg>