<svg version="1.1" xmlns="http://www.w3.org/2000/svg" xmlns:xlink="http://www.w3.org/1999/xlink" width="2042.23828125" height="1550"><defs/><g><g><path fill="none" stroke="#000000" paint-order="fill stroke markers" d=" M 448.23828125 10 L 1600.23828125 10 L 1600.23828125 1540 L 448.23828125 1540 L 448.23828125 10 Z Z" stroke-miterlimit="10" stroke-dasharray=""/></g><g><path fill="none" stroke="#000000" paint-order="fill stroke markers" d=" M 448.23828125 36 L 1600.23828125 36" stroke-miterlimit="10" stroke-dasharray=""/></g><g><g><path fill="none" stroke="none"/><text fill="#000000" stroke="none" font-family="Arial" font-size="16px" font-style="normal" font-weight="normal" text-decoration="undefined" x="1080" y="23" text-anchor="middle" dominant-baseline="text-before-edge" transform="matrix(1 0 0 1 -55.76171875 -8)">Процесс снятия средств</text></g></g><g><path fill="#C0C0C0" stroke="none" paint-order="stroke fill markers" d=" M 1265.23828125 87 C 1265.23828125 78.1634432 1272.40172445 71 1281.23828125 71 C 1290.07483805 71 1297.23828125 78.1634432 1297.23828125 87 C 1297.23828125 95.8365568 1290.07483805 103 1281.23828125 103 C 1272.40172445 103 1265.23828125 95.8365568 1265.23828125 87 Z" fill-opacity="0.2"/></g><g><path fill="#ffffff" stroke="none" paint-order="stroke fill markers" d=" M 1258.23828125 80 C 1258.23828125 71.1634432 1265.40172445 64 1274.23828125 64 C 1283.07483805 64 1290.23828125 71.1634432 1290.23828125 80 C 1290.23828125 88.8365568 1283.07483805 96 1274.23828125 96 C 1265.40172445 96 1258.23828125 88.8365568 1258.23828125 80 Z"/></g><g><path fill="none" stroke="#000000" paint-order="fill stroke markers" d=" M 1258.23828125 80 C 1258.23828125 71.1634432 1265.40172445 64 1274.23828125 64 C 1283.07483805 64 1290.23828125 71.1634432 1290.23828125 80 C 1290.23828125 88.8365568 1283.07483805 96 1274.23828125 96 C 1265.40172445 96 1258.23828125 88.8365568 1258.23828125 80 Z" stroke-miterlimit="10" stroke-dasharray=""/></g><g><rect fill="#ffffff" stroke="none" x="1094.05078125" y="116" width="471.8984375" height="16" transform="matrix(1 0 0 1 -55.76171875 -8)"/></g><g><g><path fill="none" stroke="none"/><text fill="#000000" stroke="none" font-family="Arial" font-size="16px" font-style="normal" font-weight="normal" text-decoration="undefined" x="1330" y="124" text-anchor="middle" dominant-baseline="central" transform="matrix(1 0 0 1 -55.76171875 -8)">Пользователь в течении указаного промежутка не скинул отчёт</text></g></g><g><path fill="#C0C0C0" stroke="none" paint-order="stroke fill markers" d=" M 1265.23828125 512 L 1301.23828125 485 L 1337.23828125 512 L 1301.23828125 539 L 1265.23828125 512" fill-opacity="0.2"/></g><g><path fill="#ffffff" stroke="none" paint-order="stroke fill markers" d=" M 1258.23828125 505 L 1294.23828125 478 L 1330.23828125 505 L 1294.23828125 532 L 1258.23828125 505"/></g><g><path fill="none" stroke="#000000" paint-order="fill stroke markers" d=" M 1258.23828125 505 L 1294.23828125 478 L 1330.23828125 505 L 1294.23828125 532 L 1258.23828125 505 L 1258.23828125 505" stroke-miterlimit="10" stroke-dasharray=""/></g><g><rect fill="#ffffff" stroke="none" x="1132.81640625" y="541" width="434.3671875" height="16" transform="matrix(1 0 0 1 -55.76171875 -8)"/></g><g><g><path fill="none" stroke="none"/><text fill="#000000" stroke="none" font-family="Arial" font-size="16px" font-style="normal" font-weight="normal" text-decoration="undefined" x="1350" y="549" text-anchor="middle" dominant-baseline="central" transform="matrix(1 0 0 1 -55.76171875 -8)">У Пользователя есть коины на счету для оплаты пропуска</text></g></g><g><path fill="#C0C0C0" stroke="none" paint-order="stroke fill markers" d=" M 1041.23828125 575 L 1165.23828125 575 Q 1175.23828125 575 1175.23828125 585 L 1175.23828125 601 Q 1175.23828125 611 1165.23828125 611 L 1041.23828125 611 Q 1031.23828125 611 1031.23828125 601 L 1031.23828125 585 Q 1031.23828125 575 1041.23828125 575 Z" fill-opacity="0.2"/></g><g><path fill="#ffffff" stroke="none" paint-order="stroke fill markers" d=" M 1034.23828125 568 L 1158.23828125 568 Q 1168.23828125 568 1168.23828125 578 L 1168.23828125 594 Q 1168.23828125 604 1158.23828125 604 L 1034.23828125 604 Q 1024.23828125 604 1024.23828125 594 L 1024.23828125 578 Q 1024.23828125 568 1034.23828125 568 Z"/></g><g><path fill="none" stroke="#000000" paint-order="fill stroke markers" d=" M 1034.23828125 568 L 1158.23828125 568 Q 1168.23828125 568 1168.23828125 578 L 1168.23828125 594 Q 1168.23828125 604 1158.23828125 604 L 1034.23828125 604 Q 1024.23828125 604 1024.23828125 594 L 1024.23828125 578 Q 1024.23828125 568 1034.23828125 568 Z" stroke-miterlimit="10" stroke-dasharray=""/></g><g><g><path fill="none" stroke="none"/><text fill="#000000" stroke="none" font-family="Arial" font-size="16px" font-style="normal" font-weight="normal" text-decoration="undefined" x="1152" y="594" text-anchor="middle" dominant-baseline="central" transform="matrix(1 0 0 1 -55.76171875 -8)">Снять коины </text></g></g><g><path fill="#C0C0C0" stroke="none" paint-order="stroke fill markers" d=" M 1383.23828125 593 L 1543.23828125 593 Q 1553.23828125 593 1553.23828125 603 L 1553.23828125 625 Q 1553.23828125 635 1543.23828125 635 L 1383.23828125 635 Q 1373.23828125 635 1373.23828125 625 L 1373.23828125 603 Q 1373.23828125 593 1383.23828125 593 Z" fill-opacity="0.2"/></g><g><path fill="#ffffff" stroke="none" paint-order="stroke fill markers" d=" M 1376.23828125 586 L 1536.23828125 586 Q 1546.23828125 586 1546.23828125 596 L 1546.23828125 618 Q 1546.23828125 628 1536.23828125 628 L 1376.23828125 628 Q 1366.23828125 628 1366.23828125 618 L 1366.23828125 596 Q 1366.23828125 586 1376.23828125 586 Z"/></g><g><path fill="none" stroke="#000000" paint-order="fill stroke markers" d=" M 1376.23828125 586 L 1536.23828125 586 Q 1546.23828125 586 1546.23828125 596 L 1546.23828125 618 Q 1546.23828125 628 1536.23828125 628 L 1376.23828125 628 Q 1366.23828125 628 1366.23828125 618 L 1366.23828125 596 Q 1366.23828125 586 1376.23828125 586 Z" stroke-miterlimit="10" stroke-dasharray=""/></g><g><g><path fill="none" stroke="none"/><text fill="#000000" stroke="none" font-family="Arial" font-size="16px" font-style="normal" font-weight="normal" text-decoration="undefined" x="1512" y="607" text-anchor="middle" dominant-baseline="central" transform="matrix(1 0 0 1 -55.76171875 -8)">Активировать</text><text fill="#000000" stroke="none" font-family="Arial" font-size="16px" font-style="normal" font-weight="normal" text-decoration="undefined" x="1512" y="623" text-anchor="middle" dominant-baseline="central" transform="matrix(1 0 0 1 -55.76171875 -8)">заморозку</text></g></g><g><path fill="none" stroke="#000000" paint-order="fill stroke markers" d=" M 1258.23828125 532 L 1258.23828125 578 L 1258.23828125 578 A 8 8 0 0 1 1250.23828125 586 L 1168.23828125 586" stroke-miterlimit="10" stroke-dasharray=""/></g><g><path fill="#000000" stroke="none" paint-order="stroke fill markers" d=" M 1178.400956107624 581.790482243984 L 1168.23828125 586 L 1178.400956107624 590.209517756016"/></g><g><path fill="none" stroke="#000000" paint-order="fill stroke markers" d=" M 1178.400956107624 581.790482243984 L 1168.23828125 586 L 1178.400956107624 590.209517756016 L 1178.400956107624 581.790482243984" stroke-miterlimit="10" stroke-dasharray=""/></g><g><rect fill="#ffffff" stroke="none" x="1304" y="601" width="19.734375" height="16" transform="matrix(1 0 0 1 -55.76171875 -8)"/></g><g><g><path fill="none" stroke="none"/><text fill="#000000" stroke="none" font-family="Arial" font-size="16px" font-style="normal" font-weight="normal" text-decoration="undefined" x="1313.8671875" y="609" text-anchor="middle" dominant-baseline="central" transform="matrix(1 0 0 1 -55.76171875 -8)">Да</text></g></g><g><path fill="#C0C0C0" stroke="none" paint-order="stroke fill markers" d=" M 1383.23828125 683 L 1543.23828125 683 Q 1553.23828125 683 1553.23828125 693 L 1553.23828125 731 Q 1553.23828125 741 1543.23828125 741 L 1383.23828125 741 Q 1373.23828125 741 1373.23828125 731 L 1373.23828125 693 Q 1373.23828125 683 1383.23828125 683 Z" fill-opacity="0.2"/></g><g><path fill="#ffffff" stroke="none" paint-order="stroke fill markers" d=" M 1376.23828125 676 L 1536.23828125 676 Q 1546.23828125 676 1546.23828125 686 L 1546.23828125 724 Q 1546.23828125 734 1536.23828125 734 L 1376.23828125 734 Q 1366.23828125 734 1366.23828125 724 L 1366.23828125 686 Q 1366.23828125 676 1376.23828125 676 Z"/></g><g><path fill="none" stroke="#000000" paint-order="fill stroke markers" d=" M 1376.23828125 676 L 1536.23828125 676 Q 1546.23828125 676 1546.23828125 686 L 1546.23828125 724 Q 1546.23828125 734 1536.23828125 734 L 1376.23828125 734 Q 1366.23828125 734 1366.23828125 724 L 1366.23828125 686 Q 1366.23828125 676 1376.23828125 676 Z" stroke-miterlimit="10" stroke-dasharray=""/></g><g><g><path fill="none" stroke="none"/><text fill="#000000" stroke="none" font-family="Arial" font-size="16px" font-style="normal" font-weight="normal" text-decoration="undefined" x="1512" y="697" text-anchor="middle" dominant-baseline="central" transform="matrix(1 0 0 1 -55.76171875 -8)">Отправить</text><text fill="#000000" stroke="none" font-family="Arial" font-size="16px" font-style="normal" font-weight="normal" text-decoration="undefined" x="1512" y="713" text-anchor="middle" dominant-baseline="central" transform="matrix(1 0 0 1 -55.76171875 -8)">уведомление об</text><text fill="#000000" stroke="none" font-family="Arial" font-size="16px" font-style="normal" font-weight="normal" text-decoration="undefined" x="1512" y="729" text-anchor="middle" dominant-baseline="central" transform="matrix(1 0 0 1 -55.76171875 -8)">заморозке</text></g></g><g><path fill="none" stroke="#000000" paint-order="fill stroke markers" d=" M 1456.23828125 628 L 1456.23828125 676" stroke-miterlimit="10" stroke-dasharray=""/></g><g><path fill="#000000" stroke="none" paint-order="stroke fill markers" d=" M 1452.0287634939841 665.8373251423759 L 1456.23828125 676 L 1460.4477990060159 665.8373251423759"/></g><g><path fill="none" stroke="#000000" paint-order="fill stroke markers" d=" M 1452.0287634939841 665.8373251423759 L 1456.23828125 676 L 1460.4477990060159 665.8373251423759 L 1452.0287634939841 665.8373251423759" stroke-miterlimit="10" stroke-dasharray=""/></g><g><path fill="#C0C0C0" stroke="none" paint-order="stroke fill markers" d=" M 1221.23828125 161 L 1345.23828125 161 Q 1355.23828125 161 1355.23828125 171 L 1355.23828125 193 Q 1355.23828125 203 1345.23828125 203 L 1221.23828125 203 Q 1211.23828125 203 1211.23828125 193 L 1211.23828125 171 Q 1211.23828125 161 1221.23828125 161 Z" fill-opacity="0.2"/></g><g><path fill="#ffffff" stroke="none" paint-order="stroke fill markers" d=" M 1214.23828125 154 L 1338.23828125 154 Q 1348.23828125 154 1348.23828125 164 L 1348.23828125 186 Q 1348.23828125 196 1338.23828125 196 L 1214.23828125 196 Q 1204.23828125 196 1204.23828125 186 L 1204.23828125 164 Q 1204.23828125 154 1214.23828125 154 Z"/></g><g><path fill="none" stroke="#000000" paint-order="fill stroke markers" d=" M 1214.23828125 154 L 1338.23828125 154 Q 1348.23828125 154 1348.23828125 164 L 1348.23828125 186 Q 1348.23828125 196 1338.23828125 196 L 1214.23828125 196 Q 1204.23828125 196 1204.23828125 186 L 1204.23828125 164 Q 1204.23828125 154 1214.23828125 154 Z" stroke-miterlimit="10" stroke-dasharray=""/></g><g><g><path fill="none" stroke="none"/><text fill="#000000" stroke="none" font-family="Arial" font-size="16px" font-style="normal" font-weight="normal" text-decoration="undefined" x="1332" y="175" text-anchor="middle" dominant-baseline="central" transform="matrix(1 0 0 1 -55.76171875 -8)">Зафиксировать</text><text fill="#000000" stroke="none" font-family="Arial" font-size="16px" font-style="normal" font-weight="normal" text-decoration="undefined" x="1332" y="191" text-anchor="middle" dominant-baseline="central" transform="matrix(1 0 0 1 -55.76171875 -8)">пропуск</text></g></g><g><path fill="none" stroke="#000000" paint-order="fill stroke markers" d=" M 1312.23828125 532 L 1312.23828125 578 L 1312.23828125 578 A 8 8 0 0 0 1320.23828125 586 L 1366.23828125 586" stroke-miterlimit="10" stroke-dasharray=""/></g><g><path fill="#000000" stroke="none" paint-order="stroke fill markers" d=" M 1356.075606392376 590.209517756016 L 1366.23828125 586 L 1356.075606392376 581.790482243984"/></g><g><path fill="none" stroke="#000000" paint-order="fill stroke markers" d=" M 1356.075606392376 590.209517756016 L 1366.23828125 586 L 1356.075606392376 581.790482243984 L 1356.075606392376 590.209517756016" stroke-miterlimit="10" stroke-dasharray=""/></g><g><rect fill="#ffffff" stroke="none" x="1355" y="571" width="27.25" height="16" transform="matrix(1 0 0 1 -55.76171875 -8)"/></g><g><g><path fill="none" stroke="none"/><text fill="#000000" stroke="none" font-family="Arial" font-size="16px" font-style="normal" font-weight="normal" text-decoration="undefined" x="1368.625" y="579" text-anchor="middle" dominant-baseline="central" transform="matrix(1 0 0 1 -55.76171875 -8)">Нет</text></g></g><g><path fill="none" stroke="#000000" paint-order="fill stroke markers" d=" M 1294.23828125 196 L 1294.23828125 280" stroke-miterlimit="10" stroke-dasharray=""/></g><g><path fill="#000000" stroke="none" paint-order="stroke fill markers" d=" M 1290.0287634939841 269.83732514237585 L 1294.23828125 280 L 1298.4477990060159 269.83732514237585"/></g><g><path fill="none" stroke="#000000" paint-order="fill stroke markers" d=" M 1290.0287634939841 269.83732514237585 L 1294.23828125 280 L 1298.4477990060159 269.83732514237585 L 1290.0287634939841 269.83732514237585" stroke-miterlimit="10" stroke-dasharray=""/></g><g><path fill="#C0C0C0" stroke="none" paint-order="stroke fill markers" d=" M 1157.23828125 915 L 1265.23828125 899 L 1373.23828125 915 L 1265.23828125 931 L 1157.23828125 915" fill-opacity="0.2"/></g><g><path fill="#ffffff" stroke="none" paint-order="stroke fill markers" d=" M 1150.23828125 908 L 1258.23828125 892 L 1366.23828125 908 L 1258.23828125 924 L 1150.23828125 908"/></g><g><path fill="none" stroke="#000000" paint-order="fill stroke markers" d=" M 1150.23828125 908 L 1258.23828125 892 L 1366.23828125 908 L 1258.23828125 924 L 1150.23828125 908 L 1150.23828125 908" stroke-miterlimit="10" stroke-dasharray=""/></g><g><rect fill="#ffffff" stroke="none" x="1164.89453125" y="944" width="298.2109375" height="16" transform="matrix(1 0 0 1 -55.76171875 -8)"/></g><g><g><path fill="none" stroke="none"/><text fill="#000000" stroke="none" font-family="Arial" font-size="16px" font-style="normal" font-weight="normal" text-decoration="undefined" x="1314" y="952" text-anchor="middle" dominant-baseline="central" transform="matrix(1 0 0 1 -55.76171875 -8)">Зафиксировано пропуски 3 раза подряд</text></g></g><g><path fill="none" stroke="#000000" paint-order="fill stroke markers" d=" M 1150.23828125 908 L 1014.23828125 908 L 1014.23828125 908 A 8 8 0 0 1 1006.23828125 900 L 1006.23828125 88 L 1006.23828125 88 A 8 8 0 0 1 1014.23828125 80 L 1258.23828125 80" stroke-miterlimit="10" stroke-dasharray=""/></g><g><path fill="#000000" stroke="none" paint-order="stroke fill markers" d=" M 1248.075606392376 84.20951775601598 L 1258.23828125 80 L 1248.075606392376 75.79048224398402"/></g><g><path fill="none" stroke="#000000" paint-order="fill stroke markers" d=" M 1248.075606392376 84.20951775601598 L 1258.23828125 80 L 1248.075606392376 75.79048224398402 L 1248.075606392376 84.20951775601598" stroke-miterlimit="10" stroke-dasharray=""/></g><g><rect fill="#ffffff" stroke="none" x="1134" y="738" width="27.25" height="16" transform="matrix(1 0 0 1 -55.76171875 -8)"/></g><g><g><path fill="none" stroke="none"/><text fill="#000000" stroke="none" font-family="Arial" font-size="16px" font-style="normal" font-weight="normal" text-decoration="undefined" x="1147.625" y="746" text-anchor="middle" dominant-baseline="central" transform="matrix(1 0 0 1 -55.76171875 -8)">Нет</text></g></g><g><path fill="#C0C0C0" stroke="none" paint-order="stroke fill markers" d=" M 1383.23828125 773 L 1543.23828125 773 Q 1553.23828125 773 1553.23828125 783 L 1553.23828125 805 Q 1553.23828125 815 1543.23828125 815 L 1383.23828125 815 Q 1373.23828125 815 1373.23828125 805 L 1373.23828125 783 Q 1373.23828125 773 1383.23828125 773 Z" fill-opacity="0.2"/></g><g><path fill="#ffffff" stroke="none" paint-order="stroke fill markers" d=" M 1376.23828125 766 L 1536.23828125 766 Q 1546.23828125 766 1546.23828125 776 L 1546.23828125 798 Q 1546.23828125 808 1536.23828125 808 L 1376.23828125 808 Q 1366.23828125 808 1366.23828125 798 L 1366.23828125 776 Q 1366.23828125 766 1376.23828125 766 Z"/></g><g><path fill="none" stroke="#000000" paint-order="fill stroke markers" d=" M 1376.23828125 766 L 1536.23828125 766 Q 1546.23828125 766 1546.23828125 776 L 1546.23828125 798 Q 1546.23828125 808 1536.23828125 808 L 1376.23828125 808 Q 1366.23828125 808 1366.23828125 798 L 1366.23828125 776 Q 1366.23828125 766 1376.23828125 766 Z" stroke-miterlimit="10" stroke-dasharray=""/></g><g><g><path fill="none" stroke="none"/><text fill="#000000" stroke="none" font-family="Arial" font-size="16px" font-style="normal" font-weight="normal" text-decoration="undefined" x="1512" y="787" text-anchor="middle" dominant-baseline="central" transform="matrix(1 0 0 1 -55.76171875 -8)">Добавить задачу на</text><text fill="#000000" stroke="none" font-family="Arial" font-size="16px" font-style="normal" font-weight="normal" text-decoration="undefined" x="1512" y="803" text-anchor="middle" dominant-baseline="central" transform="matrix(1 0 0 1 -55.76171875 -8)">отключение аккаунта</text></g></g><g><path fill="none" stroke="#000000" paint-order="fill stroke markers" d=" M 1456.23828125 734 L 1456.23828125 766" stroke-miterlimit="10" stroke-dasharray=""/></g><g><path fill="#000000" stroke="none" paint-order="stroke fill markers" d=" M 1452.0287634939841 755.8373251423759 L 1456.23828125 766 L 1460.4477990060159 755.8373251423759"/></g><g><path fill="none" stroke="#000000" paint-order="fill stroke markers" d=" M 1452.0287634939841 755.8373251423759 L 1456.23828125 766 L 1460.4477990060159 755.8373251423759 L 1452.0287634939841 755.8373251423759" stroke-miterlimit="10" stroke-dasharray=""/></g><g><path fill="#C0C0C0" stroke="none" paint-order="stroke fill markers" d=" M 1041.23828125 755 L 1165.23828125 755 Q 1175.23828125 755 1175.23828125 765 L 1175.23828125 803 Q 1175.23828125 813 1165.23828125 813 L 1041.23828125 813 Q 1031.23828125 813 1031.23828125 803 L 1031.23828125 765 Q 1031.23828125 755 1041.23828125 755 Z" fill-opacity="0.2"/></g><g><path fill="#ffffff" stroke="none" paint-order="stroke fill markers" d=" M 1034.23828125 748 L 1158.23828125 748 Q 1168.23828125 748 1168.23828125 758 L 1168.23828125 796 Q 1168.23828125 806 1158.23828125 806 L 1034.23828125 806 Q 1024.23828125 806 1024.23828125 796 L 1024.23828125 758 Q 1024.23828125 748 1034.23828125 748 Z"/></g><g><path fill="none" stroke="#000000" paint-order="fill stroke markers" d=" M 1034.23828125 748 L 1158.23828125 748 Q 1168.23828125 748 1168.23828125 758 L 1168.23828125 796 Q 1168.23828125 806 1158.23828125 806 L 1034.23828125 806 Q 1024.23828125 806 1024.23828125 796 L 1024.23828125 758 Q 1024.23828125 748 1034.23828125 748 Z" stroke-miterlimit="10" stroke-dasharray=""/></g><g><g><path fill="none" stroke="none"/><text fill="#000000" stroke="none" font-family="Arial" font-size="16px" font-style="normal" font-weight="normal" text-decoration="undefined" x="1152" y="769" text-anchor="middle" dominant-baseline="central" transform="matrix(1 0 0 1 -55.76171875 -8)">Отправить</text><text fill="#000000" stroke="none" font-family="Arial" font-size="16px" font-style="normal" font-weight="normal" text-decoration="undefined" x="1152" y="785" text-anchor="middle" dominant-baseline="central" transform="matrix(1 0 0 1 -55.76171875 -8)">уведомление о</text><text fill="#000000" stroke="none" font-family="Arial" font-size="16px" font-style="normal" font-weight="normal" text-decoration="undefined" x="1152" y="801" text-anchor="middle" dominant-baseline="central" transform="matrix(1 0 0 1 -55.76171875 -8)">снятии коинов</text></g></g><g><path fill="none" stroke="#000000" paint-order="fill stroke markers" d=" M 1096.23828125 604 L 1096.23828125 748" stroke-miterlimit="10" stroke-dasharray=""/></g><g><path fill="#000000" stroke="none" paint-order="stroke fill markers" d=" M 1092.0287634939841 737.8373251423759 L 1096.23828125 748 L 1100.4477990060159 737.8373251423759"/></g><g><path fill="none" stroke="#000000" paint-order="fill stroke markers" d=" M 1092.0287634939841 737.8373251423759 L 1096.23828125 748 L 1100.4477990060159 737.8373251423759 L 1092.0287634939841 737.8373251423759" stroke-miterlimit="10" stroke-dasharray=""/></g><g><path fill="none" stroke="#000000" paint-order="fill stroke markers" d=" M 1168.23828125 759 L 1250.23828125 759 L 1250.23828125 759 A 8 8 0 0 1 1258.23828125 767 L 1258.23828125 892" stroke-miterlimit="10" stroke-dasharray=""/></g><g><path fill="#000000" stroke="none" paint-order="stroke fill markers" d=" M 1254.0287634939841 881.8373251423759 L 1258.23828125 892 L 1262.4477990060159 881.8373251423759"/></g><g><path fill="none" stroke="#000000" paint-order="fill stroke markers" d=" M 1254.0287634939841 881.8373251423759 L 1258.23828125 892 L 1262.4477990060159 881.8373251423759 L 1254.0287634939841 881.8373251423759" stroke-miterlimit="10" stroke-dasharray=""/></g><g><path fill="#C0C0C0" stroke="none" paint-order="stroke fill markers" d=" M 1167.23828125 1007 L 1345.23828125 1007 Q 1355.23828125 1007 1355.23828125 1017 L 1355.23828125 1023 Q 1355.23828125 1033 1345.23828125 1033 L 1167.23828125 1033 Q 1157.23828125 1033 1157.23828125 1023 L 1157.23828125 1017 Q 1157.23828125 1007 1167.23828125 1007 Z" fill-opacity="0.2"/></g><g><path fill="#ffffff" stroke="none" paint-order="stroke fill markers" d=" M 1160.23828125 1000 L 1338.23828125 1000 Q 1348.23828125 1000 1348.23828125 1010 L 1348.23828125 1016 Q 1348.23828125 1026 1338.23828125 1026 L 1160.23828125 1026 Q 1150.23828125 1026 1150.23828125 1016 L 1150.23828125 1010 Q 1150.23828125 1000 1160.23828125 1000 Z"/></g><g><path fill="none" stroke="#000000" paint-order="fill stroke markers" d=" M 1160.23828125 1000 L 1338.23828125 1000 Q 1348.23828125 1000 1348.23828125 1010 L 1348.23828125 1016 Q 1348.23828125 1026 1338.23828125 1026 L 1160.23828125 1026 Q 1150.23828125 1026 1150.23828125 1016 L 1150.23828125 1010 Q 1150.23828125 1000 1160.23828125 1000 Z" stroke-miterlimit="10" stroke-dasharray=""/></g><g><g><path fill="none" stroke="none"/><text fill="#000000" stroke="none" font-family="Arial" font-size="16px" font-style="normal" font-weight="normal" text-decoration="undefined" x="1305" y="1021" text-anchor="middle" dominant-baseline="central" transform="matrix(1 0 0 1 -55.76171875 -8)">Активировать заморозку</text></g></g><g><path fill="#C0C0C0" stroke="none" paint-order="stroke fill markers" d=" M 1167.23828125 1079 L 1345.23828125 1079 Q 1355.23828125 1079 1355.23828125 1089 L 1355.23828125 1111 Q 1355.23828125 1121 1345.23828125 1121 L 1167.23828125 1121 Q 1157.23828125 1121 1157.23828125 1111 L 1157.23828125 1089 Q 1157.23828125 1079 1167.23828125 1079 Z" fill-opacity="0.2"/></g><g><path fill="#ffffff" stroke="none" paint-order="stroke fill markers" d=" M 1160.23828125 1072 L 1338.23828125 1072 Q 1348.23828125 1072 1348.23828125 1082 L 1348.23828125 1104 Q 1348.23828125 1114 1338.23828125 1114 L 1160.23828125 1114 Q 1150.23828125 1114 1150.23828125 1104 L 1150.23828125 1082 Q 1150.23828125 1072 1160.23828125 1072 Z"/></g><g><path fill="none" stroke="#000000" paint-order="fill stroke markers" d=" M 1160.23828125 1072 L 1338.23828125 1072 Q 1348.23828125 1072 1348.23828125 1082 L 1348.23828125 1104 Q 1348.23828125 1114 1338.23828125 1114 L 1160.23828125 1114 Q 1150.23828125 1114 1150.23828125 1104 L 1150.23828125 1082 Q 1150.23828125 1072 1160.23828125 1072 Z" stroke-miterlimit="10" stroke-dasharray=""/></g><g><g><path fill="none" stroke="none"/><text fill="#000000" stroke="none" font-family="Arial" font-size="16px" font-style="normal" font-weight="normal" text-decoration="undefined" x="1305" y="1093" text-anchor="middle" dominant-baseline="central" transform="matrix(1 0 0 1 -55.76171875 -8)">отправить уведомление о</text><text fill="#000000" stroke="none" font-family="Arial" font-size="16px" font-style="normal" font-weight="normal" text-decoration="undefined" x="1305" y="1109" text-anchor="middle" dominant-baseline="central" transform="matrix(1 0 0 1 -55.76171875 -8)">заморозке</text></g></g><g><path fill="none" stroke="#000000" paint-order="fill stroke markers" d=" M 1257.23828125 924 L 1257.23828125 1000" stroke-miterlimit="10" stroke-dasharray=""/></g><g><path fill="#000000" stroke="none" paint-order="stroke fill markers" d=" M 1253.0287634939841 989.8373251423759 L 1257.23828125 1000 L 1261.4477990060159 989.8373251423759"/></g><g><path fill="none" stroke="#000000" paint-order="fill stroke markers" d=" M 1253.0287634939841 989.8373251423759 L 1257.23828125 1000 L 1261.4477990060159 989.8373251423759 L 1253.0287634939841 989.8373251423759" stroke-miterlimit="10" stroke-dasharray=""/></g><g><rect fill="#ffffff" stroke="none" x="1318" y="961" width="19.734375" height="16" transform="matrix(1 0 0 1 -55.76171875 -8)"/></g><g><g><path fill="none" stroke="none"/><text fill="#000000" stroke="none" font-family="Arial" font-size="16px" font-style="normal" font-weight="normal" text-decoration="undefined" x="1327.8671875" y="969" text-anchor="middle" dominant-baseline="central" transform="matrix(1 0 0 1 -55.76171875 -8)">Да</text></g></g><g><path fill="none" stroke="#000000" paint-order="fill stroke markers" d=" M 1249.23828125 1026 L 1249.23828125 1072" stroke-miterlimit="10" stroke-dasharray=""/></g><g><path fill="#000000" stroke="none" paint-order="stroke fill markers" d=" M 1245.0287634939841 1061.837325142376 L 1249.23828125 1072 L 1253.4477990060159 1061.837325142376"/></g><g><path fill="none" stroke="#000000" paint-order="fill stroke markers" d=" M 1245.0287634939841 1061.837325142376 L 1249.23828125 1072 L 1253.4477990060159 1061.837325142376 L 1245.0287634939841 1061.837325142376" stroke-miterlimit="10" stroke-dasharray=""/></g><g><path fill="none" stroke="#000000" paint-order="fill stroke markers" d=" M 1600.23828125 10 L 2032.23828125 10 L 2032.23828125 1540 L 1600.23828125 1540 L 1600.23828125 10 Z Z" stroke-miterlimit="10" stroke-dasharray=""/></g><g><path fill="none" stroke="#000000" paint-order="fill stroke markers" d=" M 1600.23828125 36 L 2032.23828125 36" stroke-miterlimit="10" stroke-dasharray=""/></g><g><g><path fill="none" stroke="none"/><text fill="#000000" stroke="none" font-family="Arial" font-size="16px" font-style="normal" font-weight="normal" text-decoration="undefined" x="1872" y="23" text-anchor="middle" dominant-baseline="text-before-edge" transform="matrix(1 0 0 1 -55.76171875 -8)">Процесс отключения аккаунта</text></g></g><g><path fill="none" stroke="#000000" paint-order="fill stroke markers" d=" M 1274.23828125 96 L 1274.23828125 154" stroke-miterlimit="10" stroke-dasharray=""/></g><g><path fill="#000000" stroke="none" paint-order="stroke fill markers" d=" M 1270.0287634939841 143.83732514237585 L 1274.23828125 154 L 1278.4477990060159 143.83732514237585"/></g><g><path fill="none" stroke="#000000" paint-order="fill stroke markers" d=" M 1270.0287634939841 143.83732514237585 L 1274.23828125 154 L 1278.4477990060159 143.83732514237585 L 1270.0287634939841 143.83732514237585" stroke-miterlimit="10" stroke-dasharray=""/></g><g><path fill="#C0C0C0" stroke="none" paint-order="stroke fill markers" d=" M 1805.23828125 539 C 1805.23828125 529.0588736 1813.29715485 521 1823.23828125 521 C 1833.17940765 521 1841.23828125 529.0588736 1841.23828125 539 C 1841.23828125 548.9411264 1833.17940765 557 1823.23828125 557 C 1813.29715485 557 1805.23828125 548.9411264 1805.23828125 539 Z" fill-opacity="0.2"/></g><g><path fill="#ffffff" stroke="none" paint-order="stroke fill markers" d=" M 1798.23828125 532 C 1798.23828125 522.0588736 1806.29715485 514 1816.23828125 514 C 1826.17940765 514 1834.23828125 522.0588736 1834.23828125 532 C 1834.23828125 541.9411264 1826.17940765 550 1816.23828125 550 C 1806.29715485 550 1798.23828125 541.9411264 1798.23828125 532 Z"/></g><g><path fill="none" stroke="#000000" paint-order="fill stroke markers" d=" M 1798.23828125 532 C 1798.23828125 522.0588736 1806.29715485 514 1816.23828125 514 C 1826.17940765 514 1834.23828125 522.0588736 1834.23828125 532 C 1834.23828125 541.9411264 1826.17940765 550 1816.23828125 550 C 1806.29715485 550 1798.23828125 541.9411264 1798.23828125 532 Z" stroke-miterlimit="10" stroke-dasharray=""/></g><g><rect fill="#ffffff" stroke="none" x="1807.0859375" y="568" width="129.828125" height="16" transform="matrix(1 0 0 1 -55.76171875 -8)"/></g><g><g><path fill="none" stroke="none"/><text fill="#000000" stroke="none" font-family="Arial" font-size="16px" font-style="normal" font-weight="normal" text-decoration="undefined" x="1872" y="576" text-anchor="middle" dominant-baseline="central" transform="matrix(1 0 0 1 -55.76171875 -8)">Прошло 24 часа</text></g></g><g><path fill="#C0C0C0" stroke="none" paint-order="stroke fill markers" d=" M 1725.23828125 629 L 1939.23828125 629 Q 1949.23828125 629 1949.23828125 639 L 1949.23828125 661 Q 1949.23828125 671 1939.23828125 671 L 1725.23828125 671 Q 1715.23828125 671 1715.23828125 661 L 1715.23828125 639 Q 1715.23828125 629 1725.23828125 629 Z" fill-opacity="0.2"/></g><g><path fill="#ffffff" stroke="none" paint-order="stroke fill markers" d=" M 1718.23828125 622 L 1932.23828125 622 Q 1942.23828125 622 1942.23828125 632 L 1942.23828125 654 Q 1942.23828125 664 1932.23828125 664 L 1718.23828125 664 Q 1708.23828125 664 1708.23828125 654 L 1708.23828125 632 Q 1708.23828125 622 1718.23828125 622 Z"/></g><g><path fill="none" stroke="#000000" paint-order="fill stroke markers" d=" M 1718.23828125 622 L 1932.23828125 622 Q 1942.23828125 622 1942.23828125 632 L 1942.23828125 654 Q 1942.23828125 664 1932.23828125 664 L 1718.23828125 664 Q 1708.23828125 664 1708.23828125 654 L 1708.23828125 632 Q 1708.23828125 622 1718.23828125 622 Z" stroke-miterlimit="10" stroke-dasharray=""/></g><g><g><path fill="none" stroke="none"/><text fill="#000000" stroke="none" font-family="Arial" font-size="16px" font-style="normal" font-weight="normal" text-decoration="undefined" x="1881" y="643" text-anchor="middle" dominant-baseline="central" transform="matrix(1 0 0 1 -55.76171875 -8)">Получить задачу на</text><text fill="#000000" stroke="none" font-family="Arial" font-size="16px" font-style="normal" font-weight="normal" text-decoration="undefined" x="1881" y="659" text-anchor="middle" dominant-baseline="central" transform="matrix(1 0 0 1 -55.76171875 -8)">отключение аккаунта</text></g></g><g><path fill="#C0C0C0" stroke="none" paint-order="stroke fill markers" d=" M 1707.23828125 701 L 1939.23828125 701 Q 1949.23828125 701 1949.23828125 711 L 1949.23828125 733 Q 1949.23828125 743 1939.23828125 743 L 1707.23828125 743 Q 1697.23828125 743 1697.23828125 733 L 1697.23828125 711 Q 1697.23828125 701 1707.23828125 701 Z" fill-opacity="0.2"/></g><g><path fill="#ffffff" stroke="none" paint-order="stroke fill markers" d=" M 1700.23828125 694 L 1932.23828125 694 Q 1942.23828125 694 1942.23828125 704 L 1942.23828125 726 Q 1942.23828125 736 1932.23828125 736 L 1700.23828125 736 Q 1690.23828125 736 1690.23828125 726 L 1690.23828125 704 Q 1690.23828125 694 1700.23828125 694 Z"/></g><g><path fill="none" stroke="#000000" paint-order="fill stroke markers" d=" M 1700.23828125 694 L 1932.23828125 694 Q 1942.23828125 694 1942.23828125 704 L 1942.23828125 726 Q 1942.23828125 736 1932.23828125 736 L 1700.23828125 736 Q 1690.23828125 736 1690.23828125 726 L 1690.23828125 704 Q 1690.23828125 694 1700.23828125 694 Z" stroke-miterlimit="10" stroke-dasharray=""/></g><g><g><path fill="none" stroke="none"/><text fill="#000000" stroke="none" font-family="Arial" font-size="16px" font-style="normal" font-weight="normal" text-decoration="undefined" x="1872" y="715" text-anchor="middle" dominant-baseline="central" transform="matrix(1 0 0 1 -55.76171875 -8)">Извлечь список неоплаченных</text><text fill="#000000" stroke="none" font-family="Arial" font-size="16px" font-style="normal" font-weight="normal" text-decoration="undefined" x="1872" y="731" text-anchor="middle" dominant-baseline="central" transform="matrix(1 0 0 1 -55.76171875 -8)">штрафов</text></g></g><g><path fill="#C0C0C0" stroke="none" paint-order="stroke fill markers" d=" M 1787.23828125 791 L 1814.23828125 773 L 1841.23828125 791 L 1814.23828125 809 L 1787.23828125 791" fill-opacity="0.2"/></g><g><path fill="#ffffff" stroke="none" paint-order="stroke fill markers" d=" M 1780.23828125 784 L 1807.23828125 766 L 1834.23828125 784 L 1807.23828125 802 L 1780.23828125 784"/></g><g><path fill="none" stroke="#000000" paint-order="fill stroke markers" d=" M 1780.23828125 784 L 1807.23828125 766 L 1834.23828125 784 L 1807.23828125 802 L 1780.23828125 784 L 1780.23828125 784" stroke-miterlimit="10" stroke-dasharray=""/></g><g><rect fill="#ffffff" stroke="none" x="1755.921875" y="820" width="214.15625" height="16" transform="matrix(1 0 0 1 -55.76171875 -8)"/></g><g><g><path fill="none" stroke="none"/><text fill="#000000" stroke="none" font-family="Arial" font-size="16px" font-style="normal" font-weight="normal" text-decoration="undefined" x="1863" y="828" text-anchor="middle" dominant-baseline="central" transform="matrix(1 0 0 1 -55.76171875 -8)">Есть неоплаченные штрафы</text></g></g><g><path fill="#C0C0C0" stroke="none" paint-order="stroke fill markers" d=" M 1635.23828125 881 L 1795.23828125 881 Q 1805.23828125 881 1805.23828125 891 L 1805.23828125 929 Q 1805.23828125 939 1795.23828125 939 L 1635.23828125 939 Q 1625.23828125 939 1625.23828125 929 L 1625.23828125 891 Q 1625.23828125 881 1635.23828125 881 Z" fill-opacity="0.2"/></g><g><path fill="#ffffff" stroke="none" paint-order="stroke fill markers" d=" M 1628.23828125 874 L 1788.23828125 874 Q 1798.23828125 874 1798.23828125 884 L 1798.23828125 922 Q 1798.23828125 932 1788.23828125 932 L 1628.23828125 932 Q 1618.23828125 932 1618.23828125 922 L 1618.23828125 884 Q 1618.23828125 874 1628.23828125 874 Z"/></g><g><path fill="none" stroke="#000000" paint-order="fill stroke markers" d=" M 1628.23828125 874 L 1788.23828125 874 Q 1798.23828125 874 1798.23828125 884 L 1798.23828125 922 Q 1798.23828125 932 1788.23828125 932 L 1628.23828125 932 Q 1618.23828125 932 1618.23828125 922 L 1618.23828125 884 Q 1618.23828125 874 1628.23828125 874 Z" stroke-miterlimit="10" stroke-dasharray=""/></g><g><g><path fill="none" stroke="none"/><text fill="#000000" stroke="none" font-family="Arial" font-size="16px" font-style="normal" font-weight="normal" text-decoration="undefined" x="1764" y="903" text-anchor="middle" dominant-baseline="central" transform="matrix(1 0 0 1 -55.76171875 -8)">Вывести пользователя</text><text fill="#000000" stroke="none" font-family="Arial" font-size="16px" font-style="normal" font-weight="normal" text-decoration="undefined" x="1764" y="919" text-anchor="middle" dominant-baseline="central" transform="matrix(1 0 0 1 -55.76171875 -8)">из всех КД</text></g></g><g><path fill="#C0C0C0" stroke="none" paint-order="stroke fill markers" d=" M 1635.23828125 971 L 1795.23828125 971 Q 1805.23828125 971 1805.23828125 981 L 1805.23828125 1019 Q 1805.23828125 1029 1795.23828125 1029 L 1635.23828125 1029 Q 1625.23828125 1029 1625.23828125 1019 L 1625.23828125 981 Q 1625.23828125 971 1635.23828125 971 Z" fill-opacity="0.2"/></g><g><path fill="#ffffff" stroke="none" paint-order="stroke fill markers" d=" M 1628.23828125 964 L 1788.23828125 964 Q 1798.23828125 964 1798.23828125 974 L 1798.23828125 1012 Q 1798.23828125 1022 1788.23828125 1022 L 1628.23828125 1022 Q 1618.23828125 1022 1618.23828125 1012 L 1618.23828125 974 Q 1618.23828125 964 1628.23828125 964 Z"/></g><g><path fill="none" stroke="#000000" paint-order="fill stroke markers" d=" M 1628.23828125 964 L 1788.23828125 964 Q 1798.23828125 964 1798.23828125 974 L 1798.23828125 1012 Q 1798.23828125 1022 1788.23828125 1022 L 1628.23828125 1022 Q 1618.23828125 1022 1618.23828125 1012 L 1618.23828125 974 Q 1618.23828125 964 1628.23828125 964 Z" stroke-miterlimit="10" stroke-dasharray=""/></g><g><g><path fill="none" stroke="none"/><text fill="#000000" stroke="none" font-family="Arial" font-size="16px" font-style="normal" font-weight="normal" text-decoration="undefined" x="1764" y="985" text-anchor="middle" dominant-baseline="central" transform="matrix(1 0 0 1 -55.76171875 -8)">Отправить</text><text fill="#000000" stroke="none" font-family="Arial" font-size="16px" font-style="normal" font-weight="normal" text-decoration="undefined" x="1764" y="1001" text-anchor="middle" dominant-baseline="central" transform="matrix(1 0 0 1 -55.76171875 -8)">уведомление об</text><text fill="#000000" stroke="none" font-family="Arial" font-size="16px" font-style="normal" font-weight="normal" text-decoration="undefined" x="1764" y="1017" text-anchor="middle" dominant-baseline="central" transform="matrix(1 0 0 1 -55.76171875 -8)">отключении аккаунта</text></g></g><g><path fill="none" stroke="#000000" paint-order="fill stroke markers" d=" M 1780.23828125 802 L 1698.23828125 802 L 1698.23828125 802 A 8 8 0 0 0 1690.23828125 810 L 1690.23828125 874" stroke-miterlimit="10" stroke-dasharray=""/></g><g><path fill="#000000" stroke="none" paint-order="stroke fill markers" d=" M 1686.0287634939841 863.8373251423759 L 1690.23828125 874 L 1694.4477990060159 863.8373251423759"/></g><g><path fill="none" stroke="#000000" paint-order="fill stroke markers" d=" M 1686.0287634939841 863.8373251423759 L 1690.23828125 874 L 1694.4477990060159 863.8373251423759 L 1686.0287634939841 863.8373251423759" stroke-miterlimit="10" stroke-dasharray=""/></g><g><rect fill="#ffffff" stroke="none" x="1750" y="801" width="21.5078125" height="16" transform="matrix(1 0 0 1 -55.76171875 -8)"/></g><g><g><path fill="none" stroke="none"/><text fill="#000000" stroke="none" font-family="Arial" font-size="16px" font-style="normal" font-weight="normal" text-decoration="undefined" x="1760.75390625" y="809" text-anchor="middle" dominant-baseline="central" transform="matrix(1 0 0 1 -55.76171875 -8)">Да</text></g></g><g><path fill="none" stroke="#000000" paint-order="fill stroke markers" d=" M 1708.23828125 932 L 1708.23828125 964" stroke-miterlimit="10" stroke-dasharray=""/></g><g><path fill="#000000" stroke="none" paint-order="stroke fill markers" d=" M 1704.0287634939841 953.8373251423759 L 1708.23828125 964 L 1712.4477990060159 953.8373251423759"/></g><g><path fill="none" stroke="#000000" paint-order="fill stroke markers" d=" M 1704.0287634939841 953.8373251423759 L 1708.23828125 964 L 1712.4477990060159 953.8373251423759 L 1704.0287634939841 953.8373251423759" stroke-miterlimit="10" stroke-dasharray=""/></g><g><path fill="none" stroke="#000000" paint-order="fill stroke markers" d=" M 1546.23828125 784 L 1628.23828125 784 L 1628.23828125 784 A 8 8 0 0 0 1636.23828125 776 L 1636.23828125 558 L 1636.23828125 558 A 8 8 0 0 1 1644.23828125 550 L 1798.23828125 550" stroke-miterlimit="10" stroke-dasharray=""/></g><g><path fill="#000000" stroke="none" paint-order="stroke fill markers" d=" M 1788.075606392376 554.209517756016 L 1798.23828125 550 L 1788.075606392376 545.790482243984"/></g><g><path fill="none" stroke="#000000" paint-order="fill stroke markers" d=" M 1788.075606392376 554.209517756016 L 1798.23828125 550 L 1788.075606392376 545.790482243984 L 1788.075606392376 554.209517756016" stroke-miterlimit="10" stroke-dasharray=""/></g><g><path fill="none" stroke="#000000" paint-order="fill stroke markers" d=" M 1817.23828125 550 L 1817.23828125 622" stroke-miterlimit="10" stroke-dasharray=""/></g><g><path fill="#000000" stroke="none" paint-order="stroke fill markers" d=" M 1813.0287634939841 611.8373251423759 L 1817.23828125 622 L 1821.4477990060159 611.8373251423759"/></g><g><path fill="none" stroke="#000000" paint-order="fill stroke markers" d=" M 1813.0287634939841 611.8373251423759 L 1817.23828125 622 L 1821.4477990060159 611.8373251423759 L 1813.0287634939841 611.8373251423759" stroke-miterlimit="10" stroke-dasharray=""/></g><g><path fill="none" stroke="#000000" paint-order="fill stroke markers" d=" M 1813.23828125 736 L 1813.23828125 766" stroke-miterlimit="10" stroke-dasharray=""/></g><g><path fill="#000000" stroke="none" paint-order="stroke fill markers" d=" M 1809.0287634939841 755.8373251423759 L 1813.23828125 766 L 1817.4477990060159 755.8373251423759"/></g><g><path fill="none" stroke="#000000" paint-order="fill stroke markers" d=" M 1809.0287634939841 755.8373251423759 L 1813.23828125 766 L 1817.4477990060159 755.8373251423759 L 1809.0287634939841 755.8373251423759" stroke-miterlimit="10" stroke-dasharray=""/></g><g><path fill="none" stroke="#000000" paint-order="fill stroke markers" d=" M 1822.23828125 664 L 1822.23828125 694" stroke-miterlimit="10" stroke-dasharray=""/></g><g><path fill="#000000" stroke="none" paint-order="stroke fill markers" d=" M 1818.0287634939841 683.8373251423759 L 1822.23828125 694 L 1826.4477990060159 683.8373251423759"/></g><g><path fill="none" stroke="#000000" paint-order="fill stroke markers" d=" M 1818.0287634939841 683.8373251423759 L 1822.23828125 694 L 1826.4477990060159 683.8373251423759 L 1818.0287634939841 683.8373251423759" stroke-miterlimit="10" stroke-dasharray=""/></g><g><path fill="#C0C0C0" stroke="none" paint-order="stroke fill markers" d=" M 1715.23828125 1293 C 1715.23828125 1284.1634432 1722.40172445 1277 1731.23828125 1277 C 1740.07483805 1277 1747.23828125 1284.1634432 1747.23828125 1293 C 1747.23828125 1301.8365568 1740.07483805 1309 1731.23828125 1309 C 1722.40172445 1309 1715.23828125 1301.8365568 1715.23828125 1293 Z" fill-opacity="0.2"/></g><g><path fill="#ffffff" stroke="none" paint-order="stroke fill markers" d=" M 1708.23828125 1286 C 1708.23828125 1277.1634432 1715.40172445 1270 1724.23828125 1270 C 1733.07483805 1270 1740.23828125 1277.1634432 1740.23828125 1286 C 1740.23828125 1294.8365568 1733.07483805 1302 1724.23828125 1302 C 1715.40172445 1302 1708.23828125 1294.8365568 1708.23828125 1286 Z"/></g><g><path fill="none" stroke="#000000" paint-order="fill stroke markers" d=" M 1708.23828125 1286 C 1708.23828125 1277.1634432 1715.40172445 1270 1724.23828125 1270 C 1733.07483805 1270 1740.23828125 1277.1634432 1740.23828125 1286 C 1740.23828125 1294.8365568 1733.07483805 1302 1724.23828125 1302 C 1715.40172445 1302 1708.23828125 1294.8365568 1708.23828125 1286 Z" stroke-miterlimit="10" stroke-width="3" stroke-dasharray=""/></g><g><rect fill="#ffffff" stroke="none" x="1711.546875" y="1322" width="136.90625" height="16" transform="matrix(1 0 0 1 -55.76171875 -8)"/></g><g><g><path fill="none" stroke="none"/><text fill="#000000" stroke="none" font-family="Arial" font-size="16px" font-style="normal" font-weight="normal" text-decoration="undefined" x="1780" y="1330" text-anchor="middle" dominant-baseline="central" transform="matrix(1 0 0 1 -55.76171875 -8)">Аккаунт отключён </text></g></g><g><path fill="#C0C0C0" stroke="none" paint-order="stroke fill markers" d=" M 1211.23828125 1293 C 1211.23828125 1284.1634432 1218.40172445 1277 1227.23828125 1277 C 1236.07483805 1277 1243.23828125 1284.1634432 1243.23828125 1293 C 1243.23828125 1301.8365568 1236.07483805 1309 1227.23828125 1309 C 1218.40172445 1309 1211.23828125 1301.8365568 1211.23828125 1293 Z" fill-opacity="0.2"/></g><g><path fill="#ffffff" stroke="none" paint-order="stroke fill markers" d=" M 1204.23828125 1286 C 1204.23828125 1277.1634432 1211.40172445 1270 1220.23828125 1270 C 1229.07483805 1270 1236.23828125 1277.1634432 1236.23828125 1286 C 1236.23828125 1294.8365568 1229.07483805 1302 1220.23828125 1302 C 1211.40172445 1302 1204.23828125 1294.8365568 1204.23828125 1286 Z"/></g><g><path fill="none" stroke="#000000" paint-order="fill stroke markers" d=" M 1204.23828125 1286 C 1204.23828125 1277.1634432 1211.40172445 1270 1220.23828125 1270 C 1229.07483805 1270 1236.23828125 1277.1634432 1236.23828125 1286 C 1236.23828125 1294.8365568 1229.07483805 1302 1220.23828125 1302 C 1211.40172445 1302 1204.23828125 1294.8365568 1204.23828125 1286 Z" stroke-miterlimit="10" stroke-width="3" stroke-dasharray=""/></g><g><rect fill="#ffffff" stroke="none" x="1203.73046875" y="1322" width="144.5390625" height="16" transform="matrix(1 0 0 1 -55.76171875 -8)"/></g><g><g><path fill="none" stroke="none"/><text fill="#000000" stroke="none" font-family="Arial" font-size="16px" font-style="normal" font-weight="normal" text-decoration="undefined" x="1276" y="1330" text-anchor="middle" dominant-baseline="central" transform="matrix(1 0 0 1 -55.76171875 -8)">Аккаунт заморожен</text></g></g><g><path fill="none" stroke="#000000" paint-order="fill stroke markers" d=" M 1248.23828125 1114 L 1248.23828125 1262 L 1248.23828125 1262 A 8 8 0 0 1 1240.23828125 1270 L 1236.23828125 1270" stroke-miterlimit="10" stroke-dasharray=""/></g><g><path fill="#000000" stroke="none" paint-order="stroke fill markers" d=" M 1246.400956107624 1265.7904822439841 L 1236.23828125 1270 L 1246.400956107624 1274.2095177560159"/></g><g><path fill="none" stroke="#000000" paint-order="fill stroke markers" d=" M 1246.400956107624 1265.7904822439841 L 1236.23828125 1270 L 1246.400956107624 1274.2095177560159 L 1246.400956107624 1265.7904822439841" stroke-miterlimit="10" stroke-dasharray=""/></g><g><path fill="#C0C0C0" stroke="none" paint-order="stroke fill markers" d=" M 1895.23828125 1329 C 1895.23828125 1320.1634432 1902.40172445 1313 1911.23828125 1313 C 1920.07483805 1313 1927.23828125 1320.1634432 1927.23828125 1329 C 1927.23828125 1337.8365568 1920.07483805 1345 1911.23828125 1345 C 1902.40172445 1345 1895.23828125 1337.8365568 1895.23828125 1329 Z" fill-opacity="0.2"/></g><g><path fill="#ffffff" stroke="none" paint-order="stroke fill markers" d=" M 1888.23828125 1322 C 1888.23828125 1313.1634432 1895.40172445 1306 1904.23828125 1306 C 1913.07483805 1306 1920.23828125 1313.1634432 1920.23828125 1322 C 1920.23828125 1330.8365568 1913.07483805 1338 1904.23828125 1338 C 1895.40172445 1338 1888.23828125 1330.8365568 1888.23828125 1322 Z"/></g><g><path fill="none" stroke="#000000" paint-order="fill stroke markers" d=" M 1888.23828125 1322 C 1888.23828125 1313.1634432 1895.40172445 1306 1904.23828125 1306 C 1913.07483805 1306 1920.23828125 1313.1634432 1920.23828125 1322 C 1920.23828125 1330.8365568 1913.07483805 1338 1904.23828125 1338 C 1895.40172445 1338 1888.23828125 1330.8365568 1888.23828125 1322 Z" stroke-miterlimit="10" stroke-width="3" stroke-dasharray=""/></g><g><rect fill="#ffffff" stroke="none" x="1841.5859375" y="1358" width="236.828125" height="16" transform="matrix(1 0 0 1 -55.76171875 -8)"/></g><g><g><path fill="none" stroke="none"/><text fill="#000000" stroke="none" font-family="Arial" font-size="16px" font-style="normal" font-weight="normal" text-decoration="undefined" x="1960" y="1366" text-anchor="middle" dominant-baseline="central" transform="matrix(1 0 0 1 -55.76171875 -8)">Отключение аккаунта отменено</text></g></g><g><path fill="none" stroke="#000000" paint-order="fill stroke markers" d=" M 1710.23828125 1022 L 1710.23828125 1270" stroke-miterlimit="10" stroke-dasharray=""/></g><g><path fill="#000000" stroke="none" paint-order="stroke fill markers" d=" M 1706.0287634939841 1259.837325142376 L 1710.23828125 1270 L 1714.4477990060159 1259.837325142376"/></g><g><path fill="none" stroke="#000000" paint-order="fill stroke markers" d=" M 1706.0287634939841 1259.837325142376 L 1710.23828125 1270 L 1714.4477990060159 1259.837325142376 L 1706.0287634939841 1259.837325142376" stroke-miterlimit="10" stroke-dasharray=""/></g><g><path fill="none" stroke="#000000" paint-order="fill stroke markers" d=" M 1834.23828125 802 L 1934.23828125 802 L 1934.23828125 802 A 8 8 0 0 1 1942.23828125 810 L 1942.23828125 1298 L 1942.23828125 1298 A 8 8 0 0 1 1934.23828125 1306 L 1920.23828125 1306" stroke-miterlimit="10" stroke-dasharray=""/></g><g><path fill="#000000" stroke="none" paint-order="stroke fill markers" d=" M 1930.400956107624 1301.7904822439841 L 1920.23828125 1306 L 1930.400956107624 1310.2095177560159"/></g><g><path fill="none" stroke="#000000" paint-order="fill stroke markers" d=" M 1930.400956107624 1301.7904822439841 L 1920.23828125 1306 L 1930.400956107624 1310.2095177560159 L 1930.400956107624 1301.7904822439841" stroke-miterlimit="10" stroke-dasharray=""/></g><g><rect fill="#ffffff" stroke="none" x="2000" y="1053" width="27.25" height="16" transform="matrix(1 0 0 1 -55.76171875 -8)"/></g><g><g><path fill="none" stroke="none"/><text fill="#000000" stroke="none" font-family="Arial" font-size="16px" font-style="normal" font-weight="normal" text-decoration="undefined" x="2013.625" y="1061" text-anchor="middle" dominant-baseline="central" transform="matrix(1 0 0 1 -55.76171875 -8)">Нет</text></g></g><g><path fill="#C0C0C0" stroke="none" paint-order="stroke fill markers" d=" M 1265.23828125 305 L 1283.23828125 287 L 1301.23828125 305 L 1283.23828125 323 L 1265.23828125 305" fill-opacity="0.2"/></g><g><path fill="#ffffff" stroke="none" paint-order="stroke fill markers" d=" M 1258.23828125 298 L 1276.23828125 280 L 1294.23828125 298 L 1276.23828125 316 L 1258.23828125 298"/></g><g><path fill="none" stroke="#000000" paint-order="fill stroke markers" d=" M 1258.23828125 298 L 1276.23828125 280 L 1294.23828125 298 L 1276.23828125 316 L 1258.23828125 298 L 1258.23828125 298" stroke-miterlimit="10" stroke-dasharray=""/></g><g><rect fill="#ffffff" stroke="none" x="1141.09375" y="334" width="381.8125" height="16" transform="matrix(1 0 0 1 -55.76171875 -8)"/></g><g><g><path fill="none" stroke="none"/><text fill="#000000" stroke="none" font-family="Arial" font-size="16px" font-style="normal" font-weight="normal" text-decoration="undefined" x="1332" y="342" text-anchor="middle" dominant-baseline="central" transform="matrix(1 0 0 1 -55.76171875 -8)">У сообщества указан аккаунт для оплаты штрафов</text></g></g><g><path fill="none" stroke="#000000" paint-order="fill stroke markers" d=" M 1278.23828125 316 L 1278.23828125 478" stroke-miterlimit="10" stroke-dasharray=""/></g><g><path fill="#000000" stroke="none" paint-order="stroke fill markers" d=" M 1274.0287634939841 467.83732514237585 L 1278.23828125 478 L 1282.4477990060159 467.83732514237585"/></g><g><path fill="none" stroke="#000000" paint-order="fill stroke markers" d=" M 1274.0287634939841 467.83732514237585 L 1278.23828125 478 L 1282.4477990060159 467.83732514237585 L 1274.0287634939841 467.83732514237585" stroke-miterlimit="10" stroke-dasharray=""/></g><g><rect fill="#ffffff" stroke="none" x="1335" y="396" width="27.25" height="16" transform="matrix(1 0 0 1 -55.76171875 -8)"/></g><g><g><path fill="none" stroke="none"/><text fill="#000000" stroke="none" font-family="Arial" font-size="16px" font-style="normal" font-weight="normal" text-decoration="undefined" x="1348.625" y="404" text-anchor="middle" dominant-baseline="central" transform="matrix(1 0 0 1 -55.76171875 -8)">Нет</text></g></g><g><path fill="#C0C0C0" stroke="none" paint-order="stroke fill markers" d=" M 807.23828125 593 L 931.23828125 593 Q 941.23828125 593 941.23828125 603 L 941.23828125 641 Q 941.23828125 651 931.23828125 651 L 807.23828125 651 Q 797.23828125 651 797.23828125 641 L 797.23828125 603 Q 797.23828125 593 807.23828125 593 Z" fill-opacity="0.2"/></g><g><path fill="#ffffff" stroke="none" paint-order="stroke fill markers" d=" M 800.23828125 586 L 924.23828125 586 Q 934.23828125 586 934.23828125 596 L 934.23828125 634 Q 934.23828125 644 924.23828125 644 L 800.23828125 644 Q 790.23828125 644 790.23828125 634 L 790.23828125 596 Q 790.23828125 586 800.23828125 586 Z"/></g><g><path fill="none" stroke="#000000" paint-order="fill stroke markers" d=" M 800.23828125 586 L 924.23828125 586 Q 934.23828125 586 934.23828125 596 L 934.23828125 634 Q 934.23828125 644 924.23828125 644 L 800.23828125 644 Q 790.23828125 644 790.23828125 634 L 790.23828125 596 Q 790.23828125 586 800.23828125 586 Z" stroke-miterlimit="10" stroke-dasharray=""/></g><g><g><path fill="none" stroke="none"/><text fill="#000000" stroke="none" font-family="Arial" font-size="16px" font-style="normal" font-weight="normal" text-decoration="undefined" x="918" y="607" text-anchor="middle" dominant-baseline="central" transform="matrix(1 0 0 1 -55.76171875 -8)">Снимаем коины с</text><text fill="#000000" stroke="none" font-family="Arial" font-size="16px" font-style="normal" font-weight="normal" text-decoration="undefined" x="918" y="623" text-anchor="middle" dominant-baseline="central" transform="matrix(1 0 0 1 -55.76171875 -8)">аккаунта для</text><text fill="#000000" stroke="none" font-family="Arial" font-size="16px" font-style="normal" font-weight="normal" text-decoration="undefined" x="918" y="639" text-anchor="middle" dominant-baseline="central" transform="matrix(1 0 0 1 -55.76171875 -8)">оплаты</text></g></g><g><path fill="#C0C0C0" stroke="none" paint-order="stroke fill markers" d=" M 725.23828125 512 L 752.23828125 485 L 779.23828125 512 L 752.23828125 539 L 725.23828125 512" fill-opacity="0.2"/></g><g><path fill="#ffffff" stroke="none" paint-order="stroke fill markers" d=" M 718.23828125 505 L 745.23828125 478 L 772.23828125 505 L 745.23828125 532 L 718.23828125 505"/></g><g><path fill="none" stroke="#000000" paint-order="fill stroke markers" d=" M 718.23828125 505 L 745.23828125 478 L 772.23828125 505 L 745.23828125 532 L 718.23828125 505 L 718.23828125 505" stroke-miterlimit="10" stroke-dasharray=""/></g><g><rect fill="#ffffff" stroke="none" x="676.9765625" y="541" width="248.046875" height="16" transform="matrix(1 0 0 1 -55.76171875 -8)"/></g><g><g><path fill="none" stroke="none"/><text fill="#000000" stroke="none" font-family="Arial" font-size="16px" font-style="normal" font-weight="normal" text-decoration="undefined" x="801" y="549" text-anchor="middle" dominant-baseline="central" transform="matrix(1 0 0 1 -55.76171875 -8)">У аккаунт для оплаты есть коины</text></g></g><g><path fill="#C0C0C0" stroke="none" paint-order="stroke fill markers" d=" M 789.23828125 701 L 931.23828125 701 Q 941.23828125 701 941.23828125 711 L 941.23828125 781 Q 941.23828125 791 931.23828125 791 L 789.23828125 791 Q 779.23828125 791 779.23828125 781 L 779.23828125 711 Q 779.23828125 701 789.23828125 701 Z" fill-opacity="0.2"/></g><g><path fill="#ffffff" stroke="none" paint-order="stroke fill markers" d=" M 782.23828125 694 L 924.23828125 694 Q 934.23828125 694 934.23828125 704 L 934.23828125 774 Q 934.23828125 784 924.23828125 784 L 782.23828125 784 Q 772.23828125 784 772.23828125 774 L 772.23828125 704 Q 772.23828125 694 782.23828125 694 Z"/></g><g><path fill="none" stroke="#000000" paint-order="fill stroke markers" d=" M 782.23828125 694 L 924.23828125 694 Q 934.23828125 694 934.23828125 704 L 934.23828125 774 Q 934.23828125 784 924.23828125 784 L 782.23828125 784 Q 772.23828125 784 772.23828125 774 L 772.23828125 704 Q 772.23828125 694 782.23828125 694 Z" stroke-miterlimit="10" stroke-dasharray=""/></g><g><g><path fill="none" stroke="none"/><text fill="#000000" stroke="none" font-family="Arial" font-size="16px" font-style="normal" font-weight="normal" text-decoration="undefined" x="909" y="715" text-anchor="middle" dominant-baseline="central" transform="matrix(1 0 0 1 -55.76171875 -8)">Отправляем</text><text fill="#000000" stroke="none" font-family="Arial" font-size="16px" font-style="normal" font-weight="normal" text-decoration="undefined" x="909" y="731" text-anchor="middle" dominant-baseline="central" transform="matrix(1 0 0 1 -55.76171875 -8)">уведомление</text><text fill="#000000" stroke="none" font-family="Arial" font-size="16px" font-style="normal" font-weight="normal" text-decoration="undefined" x="909" y="747" text-anchor="middle" dominant-baseline="central" transform="matrix(1 0 0 1 -55.76171875 -8)">пользователю</text><text fill="#000000" stroke="none" font-family="Arial" font-size="16px" font-style="normal" font-weight="normal" text-decoration="undefined" x="909" y="763" text-anchor="middle" dominant-baseline="central" transform="matrix(1 0 0 1 -55.76171875 -8)">который пропустил</text><text fill="#000000" stroke="none" font-family="Arial" font-size="16px" font-style="normal" font-weight="normal" text-decoration="undefined" x="909" y="779" text-anchor="middle" dominant-baseline="central" transform="matrix(1 0 0 1 -55.76171875 -8)">челледж</text></g></g><g><path fill="none" stroke="#000000" paint-order="fill stroke markers" d=" M 772.23828125 532 L 772.23828125 578 L 772.23828125 578 A 8 8 0 0 0 780.23828125 586 L 790.23828125 586" stroke-miterlimit="10" stroke-dasharray=""/></g><g><path fill="#000000" stroke="none" paint-order="stroke fill markers" d=" M 780.0756063923759 590.209517756016 L 790.23828125 586 L 780.0756063923758 581.790482243984"/></g><g><path fill="none" stroke="#000000" paint-order="fill stroke markers" d=" M 780.0756063923759 590.209517756016 L 790.23828125 586 L 780.0756063923758 581.790482243984 L 780.0756063923759 590.209517756016" stroke-miterlimit="10" stroke-dasharray=""/></g><g><rect fill="#ffffff" stroke="none" x="819" y="571" width="19.734375" height="16" transform="matrix(1 0 0 1 -55.76171875 -8)"/></g><g><g><path fill="none" stroke="none"/><text fill="#000000" stroke="none" font-family="Arial" font-size="16px" font-style="normal" font-weight="normal" text-decoration="undefined" x="828.8671875" y="579" text-anchor="middle" dominant-baseline="central" transform="matrix(1 0 0 1 -55.76171875 -8)">Да</text></g></g><g><path fill="none" stroke="#000000" paint-order="fill stroke markers" d=" M 860.23828125 644 L 860.23828125 694" stroke-miterlimit="10" stroke-dasharray=""/></g><g><path fill="#000000" stroke="none" paint-order="stroke fill markers" d=" M 856.028763493984 683.8373251423759 L 860.23828125 694 L 864.447799006016 683.8373251423759"/></g><g><path fill="none" stroke="#000000" paint-order="fill stroke markers" d=" M 856.028763493984 683.8373251423759 L 860.23828125 694 L 864.447799006016 683.8373251423759 L 856.028763493984 683.8373251423759" stroke-miterlimit="10" stroke-dasharray=""/></g><g><path fill="none" stroke="#000000" paint-order="fill stroke markers" d=" M 934.23828125 784 L 934.23828125 830 L 934.23828125 830 A 8 8 0 0 0 942.23828125 838 L 1196.23828125 838 L 1196.23828125 838 A 8 8 0 0 1 1204.23828125 846 L 1204.23828125 892" stroke-miterlimit="10" stroke-dasharray=""/></g><g><path fill="#000000" stroke="none" paint-order="stroke fill markers" d=" M 1200.0287634939841 881.8373251423759 L 1204.23828125 892 L 1208.4477990060159 881.8373251423759"/></g><g><path fill="none" stroke="#000000" paint-order="fill stroke markers" d=" M 1200.0287634939841 881.8373251423759 L 1204.23828125 892 L 1208.4477990060159 881.8373251423759 L 1200.0287634939841 881.8373251423759" stroke-miterlimit="10" stroke-dasharray=""/></g><g><path fill="#C0C0C0" stroke="none" paint-order="stroke fill markers" d=" M 501.23828125 575 L 661.23828125 575 Q 671.23828125 575 671.23828125 585 L 671.23828125 623 Q 671.23828125 633 661.23828125 633 L 501.23828125 633 Q 491.23828125 633 491.23828125 623 L 491.23828125 585 Q 491.23828125 575 501.23828125 575 Z" fill-opacity="0.2"/></g><g><path fill="#ffffff" stroke="none" paint-order="stroke fill markers" d=" M 494.23828125 568 L 654.23828125 568 Q 664.23828125 568 664.23828125 578 L 664.23828125 616 Q 664.23828125 626 654.23828125 626 L 494.23828125 626 Q 484.23828125 626 484.23828125 616 L 484.23828125 578 Q 484.23828125 568 494.23828125 568 Z"/></g><g><path fill="none" stroke="#000000" paint-order="fill stroke markers" d=" M 494.23828125 568 L 654.23828125 568 Q 664.23828125 568 664.23828125 578 L 664.23828125 616 Q 664.23828125 626 654.23828125 626 L 494.23828125 626 Q 484.23828125 626 484.23828125 616 L 484.23828125 578 Q 484.23828125 568 494.23828125 568 Z" stroke-miterlimit="10" stroke-dasharray=""/></g><g><g><path fill="none" stroke="none"/><text fill="#000000" stroke="none" font-family="Arial" font-size="16px" font-style="normal" font-weight="normal" text-decoration="undefined" x="630" y="589" text-anchor="middle" dominant-baseline="central" transform="matrix(1 0 0 1 -55.76171875 -8)">Отправить сообщество</text><text fill="#000000" stroke="none" font-family="Arial" font-size="16px" font-style="normal" font-weight="normal" text-decoration="undefined" x="630" y="605" text-anchor="middle" dominant-baseline="central" transform="matrix(1 0 0 1 -55.76171875 -8)">на заморозку через 24</text><text fill="#000000" stroke="none" font-family="Arial" font-size="16px" font-style="normal" font-weight="normal" text-decoration="undefined" x="630" y="621" text-anchor="middle" dominant-baseline="central" transform="matrix(1 0 0 1 -55.76171875 -8)">часа в очередь</text></g></g><g><path fill="#C0C0C0" stroke="none" paint-order="stroke fill markers" d=" M 483.23828125 701 L 661.23828125 701 Q 671.23828125 701 671.23828125 711 L 671.23828125 765 Q 671.23828125 775 661.23828125 775 L 483.23828125 775 Q 473.23828125 775 473.23828125 765 L 473.23828125 711 Q 473.23828125 701 483.23828125 701 Z" fill-opacity="0.2"/></g><g><path fill="#ffffff" stroke="none" paint-order="stroke fill markers" d=" M 476.23828125 694 L 654.23828125 694 Q 664.23828125 694 664.23828125 704 L 664.23828125 758 Q 664.23828125 768 654.23828125 768 L 476.23828125 768 Q 466.23828125 768 466.23828125 758 L 466.23828125 704 Q 466.23828125 694 476.23828125 694 Z"/></g><g><path fill="none" stroke="#000000" paint-order="fill stroke markers" d=" M 476.23828125 694 L 654.23828125 694 Q 664.23828125 694 664.23828125 704 L 664.23828125 758 Q 664.23828125 768 654.23828125 768 L 476.23828125 768 Q 466.23828125 768 466.23828125 758 L 466.23828125 704 Q 466.23828125 694 476.23828125 694 Z" stroke-miterlimit="10" stroke-dasharray=""/></g><g><g><path fill="none" stroke="none"/><text fill="#000000" stroke="none" font-family="Arial" font-size="16px" font-style="normal" font-weight="normal" text-decoration="undefined" x="621" y="715" text-anchor="middle" dominant-baseline="central" transform="matrix(1 0 0 1 -55.76171875 -8)">Отправляем уведомление</text><text fill="#000000" stroke="none" font-family="Arial" font-size="16px" font-style="normal" font-weight="normal" text-decoration="undefined" x="621" y="731" text-anchor="middle" dominant-baseline="central" transform="matrix(1 0 0 1 -55.76171875 -8)">указанному аккаунт</text><text fill="#000000" stroke="none" font-family="Arial" font-size="16px" font-style="normal" font-weight="normal" text-decoration="undefined" x="621" y="747" text-anchor="middle" dominant-baseline="central" transform="matrix(1 0 0 1 -55.76171875 -8)">оплаты о недостатке</text><text fill="#000000" stroke="none" font-family="Arial" font-size="16px" font-style="normal" font-weight="normal" text-decoration="undefined" x="621" y="763" text-anchor="middle" dominant-baseline="central" transform="matrix(1 0 0 1 -55.76171875 -8)">средств</text></g></g><g><path fill="none" stroke="#000000" paint-order="fill stroke markers" d=" M 572.23828125 626 L 572.23828125 694" stroke-miterlimit="10" stroke-dasharray=""/></g><g><path fill="#000000" stroke="none" paint-order="stroke fill markers" d=" M 568.028763493984 683.8373251423759 L 572.23828125 694 L 576.447799006016 683.8373251423759"/></g><g><path fill="none" stroke="#000000" paint-order="fill stroke markers" d=" M 568.028763493984 683.8373251423759 L 572.23828125 694 L 576.447799006016 683.8373251423759 L 568.028763493984 683.8373251423759" stroke-miterlimit="10" stroke-dasharray=""/></g><g><path fill="none" stroke="#000000" paint-order="fill stroke markers" d=" M 718.23828125 532 L 718.23828125 587 L 718.23828125 587 A 8 8 0 0 1 710.23828125 595 L 664.23828125 595" stroke-miterlimit="10" stroke-dasharray=""/></g><g><path fill="#000000" stroke="none" paint-order="stroke fill markers" d=" M 674.4009561076241 590.790482243984 L 664.23828125 595 L 674.4009561076241 599.209517756016"/></g><g><path fill="none" stroke="#000000" paint-order="fill stroke markers" d=" M 674.4009561076241 590.790482243984 L 664.23828125 595 L 674.4009561076241 599.209517756016 L 674.4009561076241 590.790482243984" stroke-miterlimit="10" stroke-dasharray=""/></g><g><rect fill="#ffffff" stroke="none" x="760" y="610" width="27.25" height="16" transform="matrix(1 0 0 1 -55.76171875 -8)"/></g><g><g><path fill="none" stroke="none"/><text fill="#000000" stroke="none" font-family="Arial" font-size="16px" font-style="normal" font-weight="normal" text-decoration="undefined" x="773.625" y="618" text-anchor="middle" dominant-baseline="central" transform="matrix(1 0 0 1 -55.76171875 -8)">Нет</text></g></g><g><path fill="none" stroke="#000000" paint-order="fill stroke markers" d=" M 1258.23828125 316 L 744.23828125 316 L 744.23828125 316 A 8 8 0 0 0 736.23828125 324 L 736.23828125 478" stroke-miterlimit="10" stroke-dasharray=""/></g><g><path fill="#000000" stroke="none" paint-order="stroke fill markers" d=" M 732.028763493984 467.83732514237585 L 736.23828125 478 L 740.447799006016 467.83732514237585"/></g><g><path fill="none" stroke="#000000" paint-order="fill stroke markers" d=" M 732.028763493984 467.83732514237585 L 736.23828125 478 L 740.447799006016 467.83732514237585 L 732.028763493984 467.83732514237585" stroke-miterlimit="10" stroke-dasharray=""/></g><g><rect fill="#ffffff" stroke="none" x="1152" y="306" width="19.734375" height="16" transform="matrix(1 0 0 1 -55.76171875 -8)"/></g><g><g><path fill="none" stroke="none"/><text fill="#000000" stroke="none" font-family="Arial" font-size="16px" font-style="normal" font-weight="normal" text-decoration="undefined" x="1161.8671875" y="314" text-anchor="middle" dominant-baseline="central" transform="matrix(1 0 0 1 -55.76171875 -8)">Да</text></g></g><g><path fill="none" stroke="#000000" paint-order="fill stroke markers" d=" M 16.23828125 10 L 448.23828125 10 L 448.23828125 1540 L 16.23828125 1540 L 16.23828125 10 Z Z" stroke-miterlimit="10" stroke-dasharray=""/></g><g><path fill="none" stroke="#000000" paint-order="fill stroke markers" d=" M 16.23828125 36 L 448.23828125 36" stroke-miterlimit="10" stroke-dasharray=""/></g><g><g><path fill="none" stroke="none"/><text fill="#000000" stroke="none" font-family="Arial" font-size="16px" font-style="normal" font-weight="normal" text-decoration="undefined" x="288" y="23" text-anchor="middle" dominant-baseline="text-before-edge" transform="matrix(1 0 0 1 -55.76171875 -8)">Процесс заморозки сообщества</text></g></g><g><path fill="#C0C0C0" stroke="none" paint-order="stroke fill markers" d=" M 203.23828125 609 C 203.23828125 600.1634432 210.40172445000002 593 219.23828125 593 C 228.07483804999998 593 235.23828125 600.1634432 235.23828125 609 C 235.23828125 617.8365568 228.07483804999998 625 219.23828125 625 C 210.40172445000002 625 203.23828125 617.8365568 203.23828125 609 Z" fill-opacity="0.2"/></g><g><path fill="#ffffff" stroke="none" paint-order="stroke fill markers" d=" M 196.23828125 602 C 196.23828125 593.1634432 203.40172445000002 586 212.23828125 586 C 221.07483804999998 586 228.23828125 593.1634432 228.23828125 602 C 228.23828125 610.8365568 221.07483804999998 618 212.23828125 618 C 203.40172445000002 618 196.23828125 610.8365568 196.23828125 602 Z"/></g><g><path fill="none" stroke="#000000" paint-order="fill stroke markers" d=" M 196.23828125 602 C 196.23828125 593.1634432 203.40172445000002 586 212.23828125 586 C 221.07483804999998 586 228.23828125 593.1634432 228.23828125 602 C 228.23828125 610.8365568 221.07483804999998 618 212.23828125 618 C 203.40172445000002 618 196.23828125 610.8365568 196.23828125 602 Z" stroke-miterlimit="10" stroke-dasharray=""/></g><g><rect fill="#ffffff" stroke="none" x="119.94140625" y="638" width="296.1171875" height="16" transform="matrix(1 0 0 1 -55.76171875 -8)"/></g><g><g><path fill="none" stroke="none"/><text fill="#000000" stroke="none" font-family="Arial" font-size="16px" font-style="normal" font-weight="normal" text-decoration="undefined" x="268" y="646" text-anchor="middle" dominant-baseline="central" transform="matrix(1 0 0 1 -55.76171875 -8)">Прошло 24 часа с момента добавления</text></g></g><g><path fill="none" stroke="#000000" paint-order="fill stroke markers" d=" M 484.23828125 620 L 236.23828125 620 L 236.23828125 620 A 8 8 0 0 1 228.23828125 612 L 228.23828125 618" stroke-miterlimit="10" stroke-dasharray=""/></g><g><path fill="#000000" stroke="none" paint-order="stroke fill markers" d=" M 232.447799006016 628.1626748576241 L 228.23828125 618 L 224.028763493984 628.1626748576241"/></g><g><path fill="none" stroke="#000000" paint-order="fill stroke markers" d=" M 232.447799006016 628.1626748576241 L 228.23828125 618 L 224.028763493984 628.1626748576241 L 232.447799006016 628.1626748576241" stroke-miterlimit="10" stroke-dasharray=""/></g><g><path fill="#C0C0C0" stroke="none" paint-order="stroke fill markers" d=" M 105.23828125 719 L 337.23828125 719 Q 347.23828125 719 347.23828125 729 L 347.23828125 751 Q 347.23828125 761 337.23828125 761 L 105.23828125 761 Q 95.23828125 761 95.23828125 751 L 95.23828125 729 Q 95.23828125 719 105.23828125 719 Z" fill-opacity="0.2"/></g><g><path fill="#ffffff" stroke="none" paint-order="stroke fill markers" d=" M 98.23828125 712 L 330.23828125 712 Q 340.23828125 712 340.23828125 722 L 340.23828125 744 Q 340.23828125 754 330.23828125 754 L 98.23828125 754 Q 88.23828125 754 88.23828125 744 L 88.23828125 722 Q 88.23828125 712 98.23828125 712 Z"/></g><g><path fill="none" stroke="#000000" paint-order="fill stroke markers" d=" M 98.23828125 712 L 330.23828125 712 Q 340.23828125 712 340.23828125 722 L 340.23828125 744 Q 340.23828125 754 330.23828125 754 L 98.23828125 754 Q 88.23828125 754 88.23828125 744 L 88.23828125 722 Q 88.23828125 712 98.23828125 712 Z" stroke-miterlimit="10" stroke-dasharray=""/></g><g><g><path fill="none" stroke="none"/><text fill="#000000" stroke="none" font-family="Arial" font-size="16px" font-style="normal" font-weight="normal" text-decoration="undefined" x="270" y="733" text-anchor="middle" dominant-baseline="central" transform="matrix(1 0 0 1 -55.76171875 -8)">Получить задачу на заморозку</text><text fill="#000000" stroke="none" font-family="Arial" font-size="16px" font-style="normal" font-weight="normal" text-decoration="undefined" x="270" y="749" text-anchor="middle" dominant-baseline="central" transform="matrix(1 0 0 1 -55.76171875 -8)">сообщества</text></g></g><g><path fill="#C0C0C0" stroke="none" paint-order="stroke fill markers" d=" M 105.23828125 827 L 337.23828125 827 Q 347.23828125 827 347.23828125 837 L 347.23828125 859 Q 347.23828125 869 337.23828125 869 L 105.23828125 869 Q 95.23828125 869 95.23828125 859 L 95.23828125 837 Q 95.23828125 827 105.23828125 827 Z" fill-opacity="0.2"/></g><g><path fill="#ffffff" stroke="none" paint-order="stroke fill markers" d=" M 98.23828125 820 L 330.23828125 820 Q 340.23828125 820 340.23828125 830 L 340.23828125 852 Q 340.23828125 862 330.23828125 862 L 98.23828125 862 Q 88.23828125 862 88.23828125 852 L 88.23828125 830 Q 88.23828125 820 98.23828125 820 Z"/></g><g><path fill="none" stroke="#000000" paint-order="fill stroke markers" d=" M 98.23828125 820 L 330.23828125 820 Q 340.23828125 820 340.23828125 830 L 340.23828125 852 Q 340.23828125 862 330.23828125 862 L 98.23828125 862 Q 88.23828125 862 88.23828125 852 L 88.23828125 830 Q 88.23828125 820 98.23828125 820 Z" stroke-miterlimit="10" stroke-dasharray=""/></g><g><g><path fill="none" stroke="none"/><text fill="#000000" stroke="none" font-family="Arial" font-size="16px" font-style="normal" font-weight="normal" text-decoration="undefined" x="270" y="841" text-anchor="middle" dominant-baseline="central" transform="matrix(1 0 0 1 -55.76171875 -8)">Извлечь информацию с аккаунта</text><text fill="#000000" stroke="none" font-family="Arial" font-size="16px" font-style="normal" font-weight="normal" text-decoration="undefined" x="270" y="857" text-anchor="middle" dominant-baseline="central" transform="matrix(1 0 0 1 -55.76171875 -8)">и баланс счёта</text></g></g><g><path fill="#C0C0C0" stroke="none" paint-order="stroke fill markers" d=" M 149.23828125 951 L 212.23828125 935 L 275.23828125 951 L 212.23828125 967 L 149.23828125 951" fill-opacity="0.2"/></g><g><path fill="#ffffff" stroke="none" paint-order="stroke fill markers" d=" M 142.23828125 944 L 205.23828125 928 L 268.23828125 944 L 205.23828125 960 L 142.23828125 944"/></g><g><path fill="none" stroke="#000000" paint-order="fill stroke markers" d=" M 142.23828125 944 L 205.23828125 928 L 268.23828125 944 L 205.23828125 960 L 142.23828125 944 L 142.23828125 944" stroke-miterlimit="10" stroke-dasharray=""/></g><g><rect fill="#ffffff" stroke="none" x="95.5" y="980" width="331" height="16" transform="matrix(1 0 0 1 -55.76171875 -8)"/></g><g><g><path fill="none" stroke="none"/><text fill="#000000" stroke="none" font-family="Arial" font-size="16px" font-style="normal" font-weight="normal" text-decoration="undefined" x="261" y="988" text-anchor="middle" dominant-baseline="central" transform="matrix(1 0 0 1 -55.76171875 -8)">Средств хватает для оплаты всех пропусков</text></g></g><g><path fill="#C0C0C0" stroke="none" paint-order="stroke fill markers" d=" M 51.23828125 1061 L 193.23828125 1061 Q 203.23828125 1061 203.23828125 1071 L 203.23828125 1109 Q 203.23828125 1119 193.23828125 1119 L 51.23828125 1119 Q 41.23828125 1119 41.23828125 1109 L 41.23828125 1071 Q 41.23828125 1061 51.23828125 1061 Z" fill-opacity="0.2"/></g><g><path fill="#ffffff" stroke="none" paint-order="stroke fill markers" d=" M 44.23828125 1054 L 186.23828125 1054 Q 196.23828125 1054 196.23828125 1064 L 196.23828125 1102 Q 196.23828125 1112 186.23828125 1112 L 44.23828125 1112 Q 34.23828125 1112 34.23828125 1102 L 34.23828125 1064 Q 34.23828125 1054 44.23828125 1054 Z"/></g><g><path fill="none" stroke="#000000" paint-order="fill stroke markers" d=" M 44.23828125 1054 L 186.23828125 1054 Q 196.23828125 1054 196.23828125 1064 L 196.23828125 1102 Q 196.23828125 1112 186.23828125 1112 L 44.23828125 1112 Q 34.23828125 1112 34.23828125 1102 L 34.23828125 1064 Q 34.23828125 1054 44.23828125 1054 Z" stroke-miterlimit="10" stroke-dasharray=""/></g><g><g><path fill="none" stroke="none"/><text fill="#000000" stroke="none" font-family="Arial" font-size="16px" font-style="normal" font-weight="normal" text-decoration="undefined" x="171" y="1075" text-anchor="middle" dominant-baseline="central" transform="matrix(1 0 0 1 -55.76171875 -8)">Замораживаем все</text><text fill="#000000" stroke="none" font-family="Arial" font-size="16px" font-style="normal" font-weight="normal" text-decoration="undefined" x="171" y="1091" text-anchor="middle" dominant-baseline="central" transform="matrix(1 0 0 1 -55.76171875 -8)">челленджи в</text><text fill="#000000" stroke="none" font-family="Arial" font-size="16px" font-style="normal" font-weight="normal" text-decoration="undefined" x="171" y="1107" text-anchor="middle" dominant-baseline="central" transform="matrix(1 0 0 1 -55.76171875 -8)">сообществе</text></g></g><g><path fill="#C0C0C0" stroke="none" paint-order="stroke fill markers" d=" M 95.23828125 1401 C 95.23828125 1392.1634432 102.40172444999999 1385 111.23828125 1385 C 120.07483805000001 1385 127.23828125 1392.1634432 127.23828125 1401 C 127.23828125 1409.8365568 120.07483805000001 1417 111.23828125 1417 C 102.40172444999999 1417 95.23828125 1409.8365568 95.23828125 1401 Z" fill-opacity="0.2"/></g><g><path fill="#ffffff" stroke="none" paint-order="stroke fill markers" d=" M 88.23828125 1394 C 88.23828125 1385.1634432 95.40172444999999 1378 104.23828125 1378 C 113.07483805000001 1378 120.23828125 1385.1634432 120.23828125 1394 C 120.23828125 1402.8365568 113.07483805000001 1410 104.23828125 1410 C 95.40172444999999 1410 88.23828125 1402.8365568 88.23828125 1394 Z"/></g><g><path fill="none" stroke="#000000" paint-order="fill stroke markers" d=" M 88.23828125 1394 C 88.23828125 1385.1634432 95.40172444999999 1378 104.23828125 1378 C 113.07483805000001 1378 120.23828125 1385.1634432 120.23828125 1394 C 120.23828125 1402.8365568 113.07483805000001 1410 104.23828125 1410 C 95.40172444999999 1410 88.23828125 1402.8365568 88.23828125 1394 Z" stroke-miterlimit="10" stroke-width="3" stroke-dasharray=""/></g><g><rect fill="#ffffff" stroke="none" x="65.76171875" y="1430" width="188.4765625" height="16" transform="matrix(1 0 0 1 -55.76171875 -8)"/></g><g><g><path fill="none" stroke="none"/><text fill="#000000" stroke="none" font-family="Arial" font-size="16px" font-style="normal" font-weight="normal" text-decoration="undefined" x="160" y="1438" text-anchor="middle" dominant-baseline="central" transform="matrix(1 0 0 1 -55.76171875 -8)">Сообщество заморожено</text></g></g><g><path fill="#C0C0C0" stroke="none" paint-order="stroke fill markers" d=" M 51.23828125 1133 L 229.23828125 1133 Q 239.23828125 1133 239.23828125 1143 L 239.23828125 1213 Q 239.23828125 1223 229.23828125 1223 L 51.23828125 1223 Q 41.23828125 1223 41.23828125 1213 L 41.23828125 1143 Q 41.23828125 1133 51.23828125 1133 Z" fill-opacity="0.2"/></g><g><path fill="#ffffff" stroke="none" paint-order="stroke fill markers" d=" M 44.23828125 1126 L 222.23828125 1126 Q 232.23828125 1126 232.23828125 1136 L 232.23828125 1206 Q 232.23828125 1216 222.23828125 1216 L 44.23828125 1216 Q 34.23828125 1216 34.23828125 1206 L 34.23828125 1136 Q 34.23828125 1126 44.23828125 1126 Z"/></g><g><path fill="none" stroke="#000000" paint-order="fill stroke markers" d=" M 44.23828125 1126 L 222.23828125 1126 Q 232.23828125 1126 232.23828125 1136 L 232.23828125 1206 Q 232.23828125 1216 222.23828125 1216 L 44.23828125 1216 Q 34.23828125 1216 34.23828125 1206 L 34.23828125 1136 Q 34.23828125 1126 44.23828125 1126 Z" stroke-miterlimit="10" stroke-dasharray=""/></g><g><g><path fill="none" stroke="none"/><text fill="#000000" stroke="none" font-family="Arial" font-size="16px" font-style="normal" font-weight="normal" text-decoration="undefined" x="189" y="1147" text-anchor="middle" dominant-baseline="central" transform="matrix(1 0 0 1 -55.76171875 -8)">Отправляем уведомление</text><text fill="#000000" stroke="none" font-family="Arial" font-size="16px" font-style="normal" font-weight="normal" text-decoration="undefined" x="189" y="1163" text-anchor="middle" dominant-baseline="central" transform="matrix(1 0 0 1 -55.76171875 -8)">создателю группы, что кд</text><text fill="#000000" stroke="none" font-family="Arial" font-size="16px" font-style="normal" font-weight="normal" text-decoration="undefined" x="189" y="1179" text-anchor="middle" dominant-baseline="central" transform="matrix(1 0 0 1 -55.76171875 -8)">заморожены. Так как у</text><text fill="#000000" stroke="none" font-family="Arial" font-size="16px" font-style="normal" font-weight="normal" text-decoration="undefined" x="189" y="1195" text-anchor="middle" dominant-baseline="central" transform="matrix(1 0 0 1 -55.76171875 -8)">аккаунт оплаты нету</text><text fill="#000000" stroke="none" font-family="Arial" font-size="16px" font-style="normal" font-weight="normal" text-decoration="undefined" x="189" y="1211" text-anchor="middle" dominant-baseline="central" transform="matrix(1 0 0 1 -55.76171875 -8)">средств</text></g></g><g><path fill="#C0C0C0" stroke="none" paint-order="stroke fill markers" d=" M 303.23828125 1061 L 427.23828125 1061 Q 437.23828125 1061 437.23828125 1071 L 437.23828125 1109 Q 437.23828125 1119 427.23828125 1119 L 303.23828125 1119 Q 293.23828125 1119 293.23828125 1109 L 293.23828125 1071 Q 293.23828125 1061 303.23828125 1061 Z" fill-opacity="0.2"/></g><g><path fill="#ffffff" stroke="none" paint-order="stroke fill markers" d=" M 296.23828125 1054 L 420.23828125 1054 Q 430.23828125 1054 430.23828125 1064 L 430.23828125 1102 Q 430.23828125 1112 420.23828125 1112 L 296.23828125 1112 Q 286.23828125 1112 286.23828125 1102 L 286.23828125 1064 Q 286.23828125 1054 296.23828125 1054 Z"/></g><g><path fill="none" stroke="#000000" paint-order="fill stroke markers" d=" M 296.23828125 1054 L 420.23828125 1054 Q 430.23828125 1054 430.23828125 1064 L 430.23828125 1102 Q 430.23828125 1112 420.23828125 1112 L 296.23828125 1112 Q 286.23828125 1112 286.23828125 1102 L 286.23828125 1064 Q 286.23828125 1054 296.23828125 1054 Z" stroke-miterlimit="10" stroke-dasharray=""/></g><g><g><path fill="none" stroke="none"/><text fill="#000000" stroke="none" font-family="Arial" font-size="16px" font-style="normal" font-weight="normal" text-decoration="undefined" x="414" y="1075" text-anchor="middle" dominant-baseline="central" transform="matrix(1 0 0 1 -55.76171875 -8)">Снимаем средства</text><text fill="#000000" stroke="none" font-family="Arial" font-size="16px" font-style="normal" font-weight="normal" text-decoration="undefined" x="414" y="1091" text-anchor="middle" dominant-baseline="central" transform="matrix(1 0 0 1 -55.76171875 -8)">со счёта для</text><text fill="#000000" stroke="none" font-family="Arial" font-size="16px" font-style="normal" font-weight="normal" text-decoration="undefined" x="414" y="1107" text-anchor="middle" dominant-baseline="central" transform="matrix(1 0 0 1 -55.76171875 -8)">оплаты пропусков</text></g></g><g><path fill="#C0C0C0" stroke="none" paint-order="stroke fill markers" d=" M 285.23828125 1151 L 427.23828125 1151 Q 437.23828125 1151 437.23828125 1161 L 437.23828125 1215 Q 437.23828125 1225 427.23828125 1225 L 285.23828125 1225 Q 275.23828125 1225 275.23828125 1215 L 275.23828125 1161 Q 275.23828125 1151 285.23828125 1151 Z" fill-opacity="0.2"/></g><g><path fill="#ffffff" stroke="none" paint-order="stroke fill markers" d=" M 278.23828125 1144 L 420.23828125 1144 Q 430.23828125 1144 430.23828125 1154 L 430.23828125 1208 Q 430.23828125 1218 420.23828125 1218 L 278.23828125 1218 Q 268.23828125 1218 268.23828125 1208 L 268.23828125 1154 Q 268.23828125 1144 278.23828125 1144 Z"/></g><g><path fill="none" stroke="#000000" paint-order="fill stroke markers" d=" M 278.23828125 1144 L 420.23828125 1144 Q 430.23828125 1144 430.23828125 1154 L 430.23828125 1208 Q 430.23828125 1218 420.23828125 1218 L 278.23828125 1218 Q 268.23828125 1218 268.23828125 1208 L 268.23828125 1154 Q 268.23828125 1144 278.23828125 1144 Z" stroke-miterlimit="10" stroke-dasharray=""/></g><g><g><path fill="none" stroke="none"/><text fill="#000000" stroke="none" font-family="Arial" font-size="16px" font-style="normal" font-weight="normal" text-decoration="undefined" x="405" y="1165" text-anchor="middle" dominant-baseline="central" transform="matrix(1 0 0 1 -55.76171875 -8)">Отправляем</text><text fill="#000000" stroke="none" font-family="Arial" font-size="16px" font-style="normal" font-weight="normal" text-decoration="undefined" x="405" y="1181" text-anchor="middle" dominant-baseline="central" transform="matrix(1 0 0 1 -55.76171875 -8)">уведомление об</text><text fill="#000000" stroke="none" font-family="Arial" font-size="16px" font-style="normal" font-weight="normal" text-decoration="undefined" x="405" y="1197" text-anchor="middle" dominant-baseline="central" transform="matrix(1 0 0 1 -55.76171875 -8)">успешной оплате</text><text fill="#000000" stroke="none" font-family="Arial" font-size="16px" font-style="normal" font-weight="normal" text-decoration="undefined" x="405" y="1213" text-anchor="middle" dominant-baseline="central" transform="matrix(1 0 0 1 -55.76171875 -8)">пропусков</text></g></g><g><path fill="#C0C0C0" stroke="none" paint-order="stroke fill markers" d=" M 483.23828125 827 L 661.23828125 827 Q 671.23828125 827 671.23828125 837 L 671.23828125 891 Q 671.23828125 901 661.23828125 901 L 483.23828125 901 Q 473.23828125 901 473.23828125 891 L 473.23828125 837 Q 473.23828125 827 483.23828125 827 Z" fill-opacity="0.2"/></g><g><path fill="#ffffff" stroke="none" paint-order="stroke fill markers" d=" M 476.23828125 820 L 654.23828125 820 Q 664.23828125 820 664.23828125 830 L 664.23828125 884 Q 664.23828125 894 654.23828125 894 L 476.23828125 894 Q 466.23828125 894 466.23828125 884 L 466.23828125 830 Q 466.23828125 820 476.23828125 820 Z"/></g><g><path fill="none" stroke="#000000" paint-order="fill stroke markers" d=" M 476.23828125 820 L 654.23828125 820 Q 664.23828125 820 664.23828125 830 L 664.23828125 884 Q 664.23828125 894 654.23828125 894 L 476.23828125 894 Q 466.23828125 894 466.23828125 884 L 466.23828125 830 Q 466.23828125 820 476.23828125 820 Z" stroke-miterlimit="10" stroke-dasharray=""/></g><g><g><path fill="none" stroke="none"/><text fill="#000000" stroke="none" font-family="Arial" font-size="16px" font-style="normal" font-weight="normal" text-decoration="undefined" x="621" y="841" text-anchor="middle" dominant-baseline="central" transform="matrix(1 0 0 1 -55.76171875 -8)">Отправляем уведомление</text><text fill="#000000" stroke="none" font-family="Arial" font-size="16px" font-style="normal" font-weight="normal" text-decoration="undefined" x="621" y="857" text-anchor="middle" dominant-baseline="central" transform="matrix(1 0 0 1 -55.76171875 -8)">создателю сообщества,</text><text fill="#000000" stroke="none" font-family="Arial" font-size="16px" font-style="normal" font-weight="normal" text-decoration="undefined" x="621" y="873" text-anchor="middle" dominant-baseline="central" transform="matrix(1 0 0 1 -55.76171875 -8)">что сообщество будет</text><text fill="#000000" stroke="none" font-family="Arial" font-size="16px" font-style="normal" font-weight="normal" text-decoration="undefined" x="621" y="889" text-anchor="middle" dominant-baseline="central" transform="matrix(1 0 0 1 -55.76171875 -8)">скоро заморожено</text></g></g><g><path fill="none" stroke="#000000" paint-order="fill stroke markers" d=" M 212.23828125 618 L 212.23828125 712" stroke-miterlimit="10" stroke-dasharray=""/></g><g><path fill="#000000" stroke="none" paint-order="stroke fill markers" d=" M 208.028763493984 701.8373251423759 L 212.23828125 712 L 216.447799006016 701.8373251423759"/></g><g><path fill="none" stroke="#000000" paint-order="fill stroke markers" d=" M 208.028763493984 701.8373251423759 L 212.23828125 712 L 216.447799006016 701.8373251423759 L 208.028763493984 701.8373251423759" stroke-miterlimit="10" stroke-dasharray=""/></g><g><path fill="none" stroke="#000000" paint-order="fill stroke markers" d=" M 214.23828125 754 L 214.23828125 820" stroke-miterlimit="10" stroke-dasharray=""/></g><g><path fill="#000000" stroke="none" paint-order="stroke fill markers" d=" M 210.028763493984 809.8373251423759 L 214.23828125 820 L 218.447799006016 809.8373251423759"/></g><g><path fill="none" stroke="#000000" paint-order="fill stroke markers" d=" M 210.028763493984 809.8373251423759 L 214.23828125 820 L 218.447799006016 809.8373251423759 L 210.028763493984 809.8373251423759" stroke-miterlimit="10" stroke-dasharray=""/></g><g><path fill="none" stroke="#000000" paint-order="fill stroke markers" d=" M 212.23828125 862 L 212.23828125 928" stroke-miterlimit="10" stroke-dasharray=""/></g><g><path fill="#000000" stroke="none" paint-order="stroke fill markers" d=" M 208.028763493984 917.8373251423759 L 212.23828125 928 L 216.447799006016 917.8373251423759"/></g><g><path fill="none" stroke="#000000" paint-order="fill stroke markers" d=" M 208.028763493984 917.8373251423759 L 212.23828125 928 L 216.447799006016 917.8373251423759 L 208.028763493984 917.8373251423759" stroke-miterlimit="10" stroke-dasharray=""/></g><g><path fill="none" stroke="#000000" paint-order="fill stroke markers" d=" M 195.23828125 960 L 195.23828125 1054" stroke-miterlimit="10" stroke-dasharray=""/></g><g><path fill="#000000" stroke="none" paint-order="stroke fill markers" d=" M 191.028763493984 1043.837325142376 L 195.23828125 1054 L 199.447799006016 1043.837325142376"/></g><g><path fill="none" stroke="#000000" paint-order="fill stroke markers" d=" M 191.028763493984 1043.837325142376 L 195.23828125 1054 L 199.447799006016 1043.837325142376 L 191.028763493984 1043.837325142376" stroke-miterlimit="10" stroke-dasharray=""/></g><g><path fill="none" stroke="#000000" paint-order="fill stroke markers" d=" M 121.23828125 1112 L 121.23828125 1126" stroke-miterlimit="10" stroke-dasharray=""/></g><g><path fill="#000000" stroke="none" paint-order="stroke fill markers" d=" M 117.028763493984 1115.837325142376 L 121.23828125 1126 L 125.447799006016 1115.837325142376"/></g><g><path fill="none" stroke="#000000" paint-order="fill stroke markers" d=" M 117.028763493984 1115.837325142376 L 121.23828125 1126 L 125.447799006016 1115.837325142376 L 117.028763493984 1115.837325142376" stroke-miterlimit="10" stroke-dasharray=""/></g><g><path fill="none" stroke="#000000" paint-order="fill stroke markers" d=" M 223.23828125 960 L 223.23828125 1046 L 223.23828125 1046 A 8 8 0 0 0 231.23828125 1054 L 286.23828125 1054" stroke-miterlimit="10" stroke-dasharray=""/></g><g><path fill="#000000" stroke="none" paint-order="stroke fill markers" d=" M 276.07560639237585 1058.2095177560159 L 286.23828125 1054 L 276.07560639237585 1049.7904822439841"/></g><g><path fill="none" stroke="#000000" paint-order="fill stroke markers" d=" M 276.07560639237585 1058.2095177560159 L 286.23828125 1054 L 276.07560639237585 1049.7904822439841 L 276.07560639237585 1058.2095177560159" stroke-miterlimit="10" stroke-dasharray=""/></g><g><path fill="none" stroke="#000000" paint-order="fill stroke markers" d=" M 355.23828125 1112 L 355.23828125 1144" stroke-miterlimit="10" stroke-dasharray=""/></g><g><path fill="#000000" stroke="none" paint-order="stroke fill markers" d=" M 351.028763493984 1133.837325142376 L 355.23828125 1144 L 359.447799006016 1133.837325142376"/></g><g><path fill="none" stroke="#000000" paint-order="fill stroke markers" d=" M 351.028763493984 1133.837325142376 L 355.23828125 1144 L 359.447799006016 1133.837325142376 L 351.028763493984 1133.837325142376" stroke-miterlimit="10" stroke-dasharray=""/></g><g><path fill="none" stroke="#000000" paint-order="fill stroke markers" d=" M 127.23828125 1216 L 127.23828125 1370 L 127.23828125 1370 A 8 8 0 0 1 119.23828125 1378 L 120.23828125 1378" stroke-miterlimit="10" stroke-dasharray=""/></g><g><path fill="#000000" stroke="none" paint-order="stroke fill markers" d=" M 130.40095610762415 1373.7904822439841 L 120.23828125 1378 L 130.40095610762415 1382.2095177560159"/></g><g><path fill="none" stroke="#000000" paint-order="fill stroke markers" d=" M 130.40095610762415 1373.7904822439841 L 120.23828125 1378 L 130.40095610762415 1382.2095177560159 L 130.40095610762415 1373.7904822439841" stroke-miterlimit="10" stroke-dasharray=""/></g><g><path fill="none" stroke="#000000" paint-order="fill stroke markers" d=" M 565.23828125 768 L 565.23828125 820" stroke-miterlimit="10" stroke-dasharray=""/></g><g><path fill="#000000" stroke="none" paint-order="stroke fill markers" d=" M 561.028763493984 809.8373251423759 L 565.23828125 820 L 569.447799006016 809.8373251423759"/></g><g><path fill="none" stroke="#000000" paint-order="fill stroke markers" d=" M 561.028763493984 809.8373251423759 L 565.23828125 820 L 569.447799006016 809.8373251423759 L 561.028763493984 809.8373251423759" stroke-miterlimit="10" stroke-dasharray=""/></g><g><path fill="#C0C0C0" stroke="none" paint-order="stroke fill markers" d=" M 329.23828125 1401 C 329.23828125 1392.1634432 336.40172445 1385 345.23828125 1385 C 354.07483805 1385 361.23828125 1392.1634432 361.23828125 1401 C 361.23828125 1409.8365568 354.07483805 1417 345.23828125 1417 C 336.40172445 1417 329.23828125 1409.8365568 329.23828125 1401 Z" fill-opacity="0.2"/></g><g><path fill="#ffffff" stroke="none" paint-order="stroke fill markers" d=" M 322.23828125 1394 C 322.23828125 1385.1634432 329.40172445 1378 338.23828125 1378 C 347.07483805 1378 354.23828125 1385.1634432 354.23828125 1394 C 354.23828125 1402.8365568 347.07483805 1410 338.23828125 1410 C 329.40172445 1410 322.23828125 1402.8365568 322.23828125 1394 Z"/></g><g><path fill="none" stroke="#000000" paint-order="fill stroke markers" d=" M 322.23828125 1394 C 322.23828125 1385.1634432 329.40172445 1378 338.23828125 1378 C 347.07483805 1378 354.23828125 1385.1634432 354.23828125 1394 C 354.23828125 1402.8365568 347.07483805 1410 338.23828125 1410 C 329.40172445 1410 322.23828125 1402.8365568 322.23828125 1394 Z" stroke-miterlimit="10" stroke-width="3" stroke-dasharray=""/></g><g><rect fill="#ffffff" stroke="none" x="262.96875" y="1430" width="262.0625" height="16" transform="matrix(1 0 0 1 -55.76171875 -8)"/></g><g><g><path fill="none" stroke="none"/><text fill="#000000" stroke="none" font-family="Arial" font-size="16px" font-style="normal" font-weight="normal" text-decoration="undefined" x="394" y="1438" text-anchor="middle" dominant-baseline="central" transform="matrix(1 0 0 1 -55.76171875 -8)">заморозка сообщества отменена</text></g></g><g><path fill="none" stroke="#000000" paint-order="fill stroke markers" d=" M 347.23828125 1218 L 347.23828125 1378" stroke-miterlimit="10" stroke-dasharray=""/></g><g><path fill="#000000" stroke="none" paint-order="stroke fill markers" d=" M 343.028763493984 1367.837325142376 L 347.23828125 1378 L 351.447799006016 1367.837325142376"/></g><g><path fill="none" stroke="#000000" paint-order="fill stroke markers" d=" M 343.028763493984 1367.837325142376 L 347.23828125 1378 L 351.447799006016 1367.837325142376 L 343.028763493984 1367.837325142376" stroke-miterlimit="10" stroke-dasharray=""/></g></g></svg>