<svg version="1.1" xmlns="http://www.w3.org/2000/svg" xmlns:xlink="http://www.w3.org/1999/xlink" width="830" height="434"><defs/><g><g><rect fill="#ffffff" stroke="none" x="306" y="108" width="342" height="36" transform="matrix(1 0 0 1 -260 -62)"/></g><g><path fill="#ffffff" stroke="none" paint-order="stroke fill markers" d=" M 388 46 A 18 18 0 0 1 388 82"/></g><g><path fill="none" stroke="#000000" paint-order="fill stroke markers" d=" M 46 46 L 46 82" stroke-miterlimit="10" stroke-dasharray=""/></g><g><path fill="none" stroke="#000000" paint-order="fill stroke markers" d=" M 46 46 L 388 46" stroke-miterlimit="10" stroke-dasharray=""/></g><g><path fill="none" stroke="#000000" paint-order="fill stroke markers" d=" M 46 82 L 388 82" stroke-miterlimit="10" stroke-dasharray=""/></g><g><path fill="none" stroke="#000000" paint-order="fill stroke markers" d=" M 388 46 A 18 18 0 0 1 388 82" stroke-miterlimit="10" stroke-dasharray=""/></g><g><g><path fill="none" stroke="none"/><text fill="#000000" stroke="none" font-family="Arial" font-size="16px" font-style="normal" font-weight="normal" text-decoration="undefined" x="451" y="126" text-anchor="middle" dominant-baseline="central" transform="matrix(1 0 0 1 -260 -62)">GET /accounts/me/challenges</text></g></g><g><path fill="#ffffff" stroke="none" paint-order="stroke fill markers" d=" M 76 136 L 406 136 L 340 172 L 10 172 L 76 136"/></g><g><path fill="none" stroke="#000000" paint-order="fill stroke markers" d=" M 76 136 L 406 136 L 340 172 L 10 172 L 76 136 L 76 136" stroke-miterlimit="10" stroke-dasharray=""/></g><g><g><path fill="none" stroke="none"/><text fill="#000000" stroke="none" font-family="Arial" font-size="16px" font-style="normal" font-weight="normal" text-decoration="undefined" x="468" y="216" text-anchor="middle" dominant-baseline="central" transform="matrix(1 0 0 1 -260 -62)">GetMyChallengesRequest</text></g></g><g><path fill="#ffffff" stroke="none" paint-order="stroke fill markers" d=" M 67 388 L 352 388 L 295 424 L 10 424 L 67 388"/></g><g><path fill="none" stroke="#000000" paint-order="fill stroke markers" d=" M 67 388 L 352 388 L 295 424 L 10 424 L 67 388 L 67 388" stroke-miterlimit="10" stroke-dasharray=""/></g><g><g><path fill="none" stroke="none"/><text fill="#000000" stroke="none" font-family="Arial" font-size="16px" font-style="normal" font-weight="normal" text-decoration="undefined" x="441" y="468" text-anchor="middle" dominant-baseline="central" transform="matrix(1 0 0 1 -260 -62)">GetMyChallengesResponse</text></g></g><g><path fill="#ffffff" stroke="none" paint-order="stroke fill markers" d=" M 496 370 L 766 370 L 712 406 L 442 406 L 496 370"/></g><g><path fill="none" stroke="#000000" paint-order="fill stroke markers" d=" M 496 370 L 766 370 L 712 406 L 442 406 L 496 370 L 496 370" stroke-miterlimit="10" stroke-dasharray=""/></g><g><g><path fill="none" stroke="none"/><text fill="#000000" stroke="none" font-family="Arial" font-size="16px" font-style="normal" font-weight="normal" text-decoration="undefined" x="864" y="450" text-anchor="middle" dominant-baseline="central" transform="matrix(1 0 0 1 -260 -62)">ChallengeSummaryDTO</text></g></g><g><path fill="#ffffff" stroke="none" paint-order="stroke fill markers" d=" M 565 262 L 820 262 L 769 298 L 514 298 L 565 262"/></g><g><path fill="none" stroke="#000000" paint-order="fill stroke markers" d=" M 565 262 L 820 262 L 769 298 L 514 298 L 565 262 L 565 262" stroke-miterlimit="10" stroke-dasharray=""/></g><g><g><path fill="none" stroke="none"/><text fill="#000000" stroke="none" font-family="Arial" font-size="16px" font-style="normal" font-weight="normal" text-decoration="undefined" x="927" y="342" text-anchor="middle" dominant-baseline="central" transform="matrix(1 0 0 1 -260 -62)">ChallengeMemberStatusDTO</text></g></g><g><rect fill="#ffffff" stroke="none" x="288" y="324" width="324" height="52" transform="matrix(1 0 0 1 -260 -62)"/></g><g><path fill="none" stroke="#000000" paint-order="fill stroke markers" d=" M 28 262 L 352 262 L 352 314 L 28 314 L 28 262 Z Z" stroke-miterlimit="10" stroke-dasharray=""/></g><g><g><path fill="none" stroke="none"/><text fill="#000000" stroke="none" font-family="Arial" font-size="16px" font-style="normal" font-weight="normal" text-decoration="undefined" x="450" y="342" text-anchor="middle" dominant-baseline="central" transform="matrix(1 0 0 1 -260 -62)">Получение списка челленджей, в</text><text fill="#000000" stroke="none" font-family="Arial" font-size="16px" font-style="normal" font-weight="normal" text-decoration="undefined" x="450" y="358" text-anchor="middle" dominant-baseline="central" transform="matrix(1 0 0 1 -260 -62)">которых участвует пользователь</text></g></g><g><path fill="#ffffff" stroke="#000000" paint-order="fill stroke markers" d=" M 514 44 L 537 10 L 634.484375 10 Q 657.484375 10 657.484375 44 Q 657.484375 78 634.484375 78 L 537 78 L 514 44 Z" stroke-miterlimit="10" stroke-dasharray=""/></g><g><g><path fill="none" stroke="none"/><text fill="#000000" stroke="none" font-family="Arial" font-size="16px" font-style="normal" font-weight="normal" text-decoration="undefined" x="845.7421875" y="90" text-anchor="middle" dominant-baseline="central" transform="matrix(1 0 0 1 -260 -62)">Заголовки</text><text fill="#000000" stroke="none" font-family="Arial" font-size="16px" font-style="normal" font-weight="normal" text-decoration="undefined" x="845.7421875" y="106" text-anchor="middle" dominant-baseline="central" transform="matrix(1 0 0 1 -260 -62)">запроса</text><text fill="#000000" stroke="none" font-family="Arial" font-size="16px" font-style="normal" font-weight="normal" text-decoration="undefined" x="845.7421875" y="122" text-anchor="middle" dominant-baseline="central" transform="matrix(1 0 0 1 -260 -62)">(Авторизирован)</text></g></g><g><path fill="none" stroke="#000000" paint-order="fill stroke markers" d=" M 222 82 L 222 136" stroke-miterlimit="10" stroke-dasharray=""/></g><g><path fill="#000000" stroke="none" paint-order="stroke fill markers" d=" M 217.790482243984 125.83732514237585 L 222 136 L 226.209517756016 125.83732514237585"/></g><g><path fill="none" stroke="#000000" paint-order="fill stroke markers" d=" M 217.790482243984 125.83732514237585 L 222 136 L 226.209517756016 125.83732514237585 L 217.790482243984 125.83732514237585" stroke-miterlimit="10" stroke-dasharray=""/></g><g><path fill="none" stroke="#000000" paint-order="fill stroke markers" d=" M 206 172 L 206 262" stroke-miterlimit="10" stroke-dasharray=""/></g><g><path fill="#000000" stroke="none" paint-order="stroke fill markers" d=" M 201.790482243984 251.83732514237585 L 206 262 L 210.209517756016 251.83732514237585"/></g><g><path fill="none" stroke="#000000" paint-order="fill stroke markers" d=" M 201.790482243984 251.83732514237585 L 206 262 L 210.209517756016 251.83732514237585 L 201.790482243984 251.83732514237585" stroke-miterlimit="10" stroke-dasharray=""/></g><g><path fill="none" stroke="#000000" paint-order="fill stroke markers" d=" M 514 78 L 514 128 L 514 128 A 8 8 0 0 1 506 136 L 406 136" stroke-miterlimit="10" stroke-dasharray=""/></g><g><path fill="#000000" stroke="none" paint-order="stroke fill markers" d=" M 416.1626748576241 131.790482243984 L 406 136 L 416.1626748576241 140.209517756016"/></g><g><path fill="none" stroke="#000000" paint-order="fill stroke markers" d=" M 416.1626748576241 131.790482243984 L 406 136 L 416.1626748576241 140.209517756016 L 416.1626748576241 131.790482243984" stroke-miterlimit="10" stroke-dasharray=""/></g><g><path fill="none" stroke="#000000" paint-order="fill stroke markers" d=" M 189 314 L 189 388" stroke-miterlimit="10" stroke-dasharray=""/></g><g><path fill="#000000" stroke="none" paint-order="stroke fill markers" d=" M 184.790482243984 377.83732514237585 L 189 388 L 193.209517756016 377.83732514237585"/></g><g><path fill="none" stroke="#000000" paint-order="fill stroke markers" d=" M 184.790482243984 377.83732514237585 L 189 388 L 193.209517756016 377.83732514237585 L 184.790482243984 377.83732514237585" stroke-miterlimit="10" stroke-dasharray=""/></g><g><path fill="none" stroke="#000000" paint-order="fill stroke markers" d=" M 514 298 L 514 370" stroke-miterlimit="10" stroke-dasharray=""/></g><g><path fill="#000000" stroke="none" paint-order="stroke fill markers" d=" M 509.790482243984 359.83732514237585 L 514 370 L 518.209517756016 359.83732514237585"/></g><g><path fill="none" stroke="#000000" paint-order="fill stroke markers" d=" M 509.790482243984 359.83732514237585 L 514 370 L 518.209517756016 359.83732514237585 L 509.790482243984 359.83732514237585" stroke-miterlimit="10" stroke-dasharray=""/></g><g><path fill="none" stroke="#000000" paint-order="fill stroke markers" d=" M 442 388 L 352 388" stroke-miterlimit="10" stroke-dasharray=""/></g><g><path fill="#000000" stroke="none" paint-order="stroke fill markers" d=" M 362.1626748576241 383.790482243984 L 352 388 L 362.1626748576241 392.209517756016"/></g><g><path fill="none" stroke="#000000" paint-order="fill stroke markers" d=" M 362.1626748576241 383.790482243984 L 352 388 L 362.1626748576241 392.209517756016 L 362.1626748576241 383.790482243984" stroke-miterlimit="10" stroke-dasharray=""/></g></g></svg>