<svg version="1.1" xmlns="http://www.w3.org/2000/svg" xmlns:xlink="http://www.w3.org/1999/xlink" width="920" height="326"><defs/><g><g><rect fill="#ffffff" stroke="none" x="72" y="71" width="443.4453125" height="52" transform="matrix(1 0 0 1 -62 -44)"/></g><g><path fill="#ffffff" stroke="none" paint-order="stroke fill markers" d=" M 453.4453125 27 A 26 26 0 0 1 453.4453125 79"/></g><g><path fill="none" stroke="#000000" paint-order="fill stroke markers" d=" M 10 27 L 10 79" stroke-miterlimit="10" stroke-dasharray=""/></g><g><path fill="none" stroke="#000000" paint-order="fill stroke markers" d=" M 10 27 L 453.4453125 27" stroke-miterlimit="10" stroke-dasharray=""/></g><g><path fill="none" stroke="#000000" paint-order="fill stroke markers" d=" M 10 79 L 453.4453125 79" stroke-miterlimit="10" stroke-dasharray=""/></g><g><path fill="none" stroke="#000000" paint-order="fill stroke markers" d=" M 453.4453125 27 A 26 26 0 0 1 453.4453125 79" stroke-miterlimit="10" stroke-dasharray=""/></g><g><g><path fill="none" stroke="none"/><text fill="#000000" stroke="none" font-family="Arial" font-size="16px" font-style="normal" font-weight="normal" text-decoration="undefined" x="258.0419921875" y="89" text-anchor="middle" dominant-baseline="central" transform="matrix(1 0 0 1 -62 -44)">GET</text><text fill="#000000" stroke="none" font-family="Arial" font-size="16px" font-style="normal" font-weight="normal" text-decoration="undefined" x="258.0419921875" y="105" text-anchor="middle" dominant-baseline="central" transform="matrix(1 0 0 1 -62 -44)">/communities/payment-account-invitation/accounts</text></g></g><g><path fill="#ffffff" stroke="#000000" paint-order="fill stroke markers" d=" M 535 44 L 558 10 L 655.484375 10 Q 678.484375 10 678.484375 44 Q 678.484375 78 655.484375 78 L 558 78 L 535 44 Z" stroke-miterlimit="10" stroke-dasharray=""/></g><g><g><path fill="none" stroke="none"/><text fill="#000000" stroke="none" font-family="Arial" font-size="16px" font-style="normal" font-weight="normal" text-decoration="undefined" x="668.7421875" y="72" text-anchor="middle" dominant-baseline="central" transform="matrix(1 0 0 1 -62 -44)">Заголовки</text><text fill="#000000" stroke="none" font-family="Arial" font-size="16px" font-style="normal" font-weight="normal" text-decoration="undefined" x="668.7421875" y="88" text-anchor="middle" dominant-baseline="central" transform="matrix(1 0 0 1 -62 -44)">запроса</text><text fill="#000000" stroke="none" font-family="Arial" font-size="16px" font-style="normal" font-weight="normal" text-decoration="undefined" x="668.7421875" y="104" text-anchor="middle" dominant-baseline="central" transform="matrix(1 0 0 1 -62 -44)">(Авторизирован)</text></g></g><g><path fill="#ffffff" stroke="none" paint-order="stroke fill markers" d=" M 211 100 L 406 100 L 367 136 L 172 136 L 211 100"/></g><g><path fill="none" stroke="#000000" paint-order="fill stroke markers" d=" M 211 100 L 406 100 L 367 136 L 172 136 L 211 100 L 211 100" stroke-miterlimit="10" stroke-dasharray=""/></g><g><g><path fill="none" stroke="none"/><text fill="#000000" stroke="none" font-family="Arial" font-size="16px" font-style="normal" font-weight="normal" text-decoration="undefined" x="351" y="162" text-anchor="middle" dominant-baseline="central" transform="matrix(1 0 0 1 -62 -44)">Request</text></g></g><g><rect fill="#ffffff" stroke="none" x="234" y="216" width="252" height="68" transform="matrix(1 0 0 1 -62 -44)"/></g><g><path fill="none" stroke="#000000" paint-order="fill stroke markers" d=" M 172 172 L 424 172 L 424 240 L 172 240 L 172 172 Z Z" stroke-miterlimit="10" stroke-dasharray=""/></g><g><g><path fill="none" stroke="none"/><text fill="#000000" stroke="none" font-family="Arial" font-size="16px" font-style="normal" font-weight="normal" text-decoration="undefined" x="360" y="234" text-anchor="middle" dominant-baseline="central" transform="matrix(1 0 0 1 -62 -44)">Извлечь все активные</text><text fill="#000000" stroke="none" font-family="Arial" font-size="16px" font-style="normal" font-weight="normal" text-decoration="undefined" x="360" y="250" text-anchor="middle" dominant-baseline="central" transform="matrix(1 0 0 1 -62 -44)">приглашения стать аккаунтом</text><text fill="#000000" stroke="none" font-family="Arial" font-size="16px" font-style="normal" font-weight="normal" text-decoration="undefined" x="360" y="266" text-anchor="middle" dominant-baseline="central" transform="matrix(1 0 0 1 -62 -44)">оплаты</text></g></g><g><path fill="#ffffff" stroke="none" paint-order="stroke fill markers" d=" M 187 280 L 442 280 L 391 316 L 136 316 L 187 280"/></g><g><path fill="none" stroke="#000000" paint-order="fill stroke markers" d=" M 187 280 L 442 280 L 391 316 L 136 316 L 187 280 L 187 280" stroke-miterlimit="10" stroke-dasharray=""/></g><g><g><path fill="none" stroke="none"/><text fill="#000000" stroke="none" font-family="Arial" font-size="16px" font-style="normal" font-weight="normal" text-decoration="undefined" x="351" y="342" text-anchor="middle" dominant-baseline="central" transform="matrix(1 0 0 1 -62 -44)">GetComunityInviteResponse</text></g></g><g><path fill="#ffffff" stroke="none" paint-order="stroke fill markers" d=" M 517 190 L 712 190 L 673 226 L 478 226 L 517 190"/></g><g><path fill="none" stroke="#000000" paint-order="fill stroke markers" d=" M 517 190 L 712 190 L 673 226 L 478 226 L 517 190 L 517 190" stroke-miterlimit="10" stroke-dasharray=""/></g><g><g><path fill="none" stroke="none"/><text fill="#000000" stroke="none" font-family="Arial" font-size="16px" font-style="normal" font-weight="normal" text-decoration="undefined" x="657" y="252" text-anchor="middle" dominant-baseline="central" transform="matrix(1 0 0 1 -62 -44)">ComunityInviteItem</text></g></g><g><path fill="none" stroke="#000000" paint-order="fill stroke markers" d=" M 519 226 L 519 272 L 519 272 A 8 8 0 0 1 511 280 L 442 280" stroke-miterlimit="10" stroke-dasharray=""/></g><g><path fill="#000000" stroke="none" paint-order="stroke fill markers" d=" M 452.1626748576241 275.790482243984 L 442 280 L 452.1626748576241 284.209517756016"/></g><g><path fill="none" stroke="#000000" paint-order="fill stroke markers" d=" M 452.1626748576241 275.790482243984 L 442 280 L 452.1626748576241 284.209517756016 L 452.1626748576241 275.790482243984" stroke-miterlimit="10" stroke-dasharray=""/></g><g><path fill="none" stroke="#000000" paint-order="fill stroke markers" d=" M 535 78 L 535 92 L 535 92 A 8 8 0 0 1 527 100 L 406 100" stroke-miterlimit="10" stroke-dasharray=""/></g><g><path fill="#000000" stroke="none" paint-order="stroke fill markers" d=" M 416.16267485762415 95.790482243984 L 406 100 L 416.16267485762415 104.209517756016"/></g><g><path fill="none" stroke="#000000" paint-order="fill stroke markers" d=" M 416.16267485762415 95.790482243984 L 406 100 L 416.16267485762415 104.209517756016 L 416.16267485762415 95.790482243984" stroke-miterlimit="10" stroke-dasharray=""/></g><g><path fill="none" stroke="#000000" paint-order="fill stroke markers" d=" M 303 79 L 303 100" stroke-miterlimit="10" stroke-dasharray=""/></g><g><path fill="#000000" stroke="none" paint-order="stroke fill markers" d=" M 298.790482243984 89.83732514237585 L 303 100 L 307.209517756016 89.83732514237585"/></g><g><path fill="none" stroke="#000000" paint-order="fill stroke markers" d=" M 298.790482243984 89.83732514237585 L 303 100 L 307.209517756016 89.83732514237585 L 298.790482243984 89.83732514237585" stroke-miterlimit="10" stroke-dasharray=""/></g><g><path fill="none" stroke="#000000" paint-order="fill stroke markers" d=" M 291 136 L 291 172" stroke-miterlimit="10" stroke-dasharray=""/></g><g><path fill="#000000" stroke="none" paint-order="stroke fill markers" d=" M 286.790482243984 161.83732514237585 L 291 172 L 295.209517756016 161.83732514237585"/></g><g><path fill="none" stroke="#000000" paint-order="fill stroke markers" d=" M 286.790482243984 161.83732514237585 L 291 172 L 295.209517756016 161.83732514237585 L 286.790482243984 161.83732514237585" stroke-miterlimit="10" stroke-dasharray=""/></g><g><path fill="none" stroke="#000000" paint-order="fill stroke markers" d=" M 295 240 L 295 280" stroke-miterlimit="10" stroke-dasharray=""/></g><g><path fill="#000000" stroke="none" paint-order="stroke fill markers" d=" M 290.790482243984 269.83732514237585 L 295 280 L 299.209517756016 269.83732514237585"/></g><g><path fill="none" stroke="#000000" paint-order="fill stroke markers" d=" M 290.790482243984 269.83732514237585 L 295 280 L 299.209517756016 269.83732514237585 L 290.790482243984 269.83732514237585" stroke-miterlimit="10" stroke-dasharray=""/></g><g><path fill="#FFADAD" stroke="none" paint-order="stroke fill markers" d=" M 694 100 L 899 100 L 909 110 L 909 175 L 694 175 L 694 100"/></g><g><path fill="none" stroke="#000000" paint-order="fill stroke markers" d=" M 694 100 L 899 100 L 909 110 L 909 175 L 694 175 L 694 100 L 694 100" stroke-miterlimit="10" stroke-dasharray=""/></g><g><path fill="none" stroke="#000000" paint-order="fill stroke markers" d=" M 899 100 L 899 110 L 909 110 L 899 100" stroke-miterlimit="10" stroke-dasharray=""/></g><g><g><path fill="none" stroke="none"/><text fill="#000000" stroke="none" font-family="Arial" font-size="16px" font-style="normal" font-weight="normal" text-decoration="undefined" x="761" y="149" text-anchor="start" dominant-baseline="text-before-edge" transform="matrix(1 0 0 1 -62 -44)">как лучше сделать. Сюда</text><text fill="#000000" stroke="none" font-family="Arial" font-size="16px" font-style="normal" font-weight="normal" text-decoration="undefined" x="761" y="165" text-anchor="start" dominant-baseline="text-before-edge" transform="matrix(1 0 0 1 -62 -44)">модель комюнити</text><text fill="#000000" stroke="none" font-family="Arial" font-size="16px" font-style="normal" font-weight="normal" text-decoration="undefined" x="761" y="181" text-anchor="start" dominant-baseline="text-before-edge" transform="matrix(1 0 0 1 -62 -44)">поместить, или просто её</text><text fill="#000000" stroke="none" font-family="Arial" font-size="16px" font-style="normal" font-weight="normal" text-decoration="undefined" x="761" y="197" text-anchor="start" dominant-baseline="text-before-edge" transform="matrix(1 0 0 1 -62 -44)">ид отправлять</text></g></g><g><path fill="none" stroke="#000000" paint-order="fill stroke markers" d=" M 693 175 L 651 189" stroke-miterlimit="10" stroke-dasharray="3"/></g></g></svg>