<svg version="1.1" xmlns="http://www.w3.org/2000/svg" xmlns:xlink="http://www.w3.org/1999/xlink" width="1784" height="1204.71875"><defs/><g><g><path fill="none" stroke="#000000" paint-order="fill stroke markers" d=" M 10 10 L 1774 10 L 1774 334 L 10 334 L 10 10 Z Z" stroke-miterlimit="10" stroke-dasharray=""/></g><g><path fill="none" stroke="#000000" paint-order="fill stroke markers" d=" M 36 10 L 36 334" stroke-miterlimit="10" stroke-dasharray=""/></g><g><g><path fill="none" stroke="none"/><text fill="#000000" stroke="none" font-family="Arial" font-size="16px" font-style="normal" font-weight="normal" text-decoration="undefined" x="0" y="0" text-anchor="middle" dominant-baseline="text-before-edge" transform="matrix(6.123233995736766e-17 -1 1 6.123233995736766e-17 15 172)">Пользователь</text></g></g><g><path fill="none" stroke="#000000" paint-order="fill stroke markers" d=" M 10 406 L 1774 406 L 1774 766 L 10 766 L 10 406 Z Z" stroke-miterlimit="10" stroke-dasharray=""/></g><g><path fill="none" stroke="#000000" paint-order="fill stroke markers" d=" M 36 406 L 36 766" stroke-miterlimit="10" stroke-dasharray=""/></g><g><g><path fill="none" stroke="none"/><text fill="#000000" stroke="none" font-family="Arial" font-size="16px" font-style="normal" font-weight="normal" text-decoration="undefined" x="0" y="0" text-anchor="middle" dominant-baseline="text-before-edge" transform="matrix(6.123233995736766e-17 -1 1 6.123233995736766e-17 15 586)">Api</text></g></g><g><path fill="#C0C0C0" stroke="none" paint-order="stroke fill markers" d=" M 107 123 C 107 114.16344319999999 114.16344319999999 107 123 107 C 131.8365568 107 139 114.16344319999999 139 123 C 139 131.8365568 131.8365568 139 123 139 C 114.16344319999999 139 107 131.8365568 107 123 Z" fill-opacity="0.2"/></g><g><path fill="#ffffff" stroke="none" paint-order="stroke fill markers" d=" M 100 116 C 100 107.16344319999999 107.16344319999999 100 116 100 C 124.83655680000001 100 132 107.16344319999999 132 116 C 132 124.83655680000001 124.83655680000001 132 116 132 C 107.16344319999999 132 100 124.83655680000001 100 116 Z"/></g><g><path fill="none" stroke="#000000" paint-order="fill stroke markers" d=" M 100 116 C 100 107.16344319999999 107.16344319999999 100 116 100 C 124.83655680000001 100 132 107.16344319999999 132 116 C 132 124.83655680000001 124.83655680000001 132 116 132 C 107.16344319999999 132 100 124.83655680000001 100 116 Z" stroke-miterlimit="10" stroke-dasharray=""/></g><g><rect fill="#ffffff" stroke="none" x="133.21484375" y="215" width="89.5703125" height="80" transform="matrix(1 0 0 1 -62 -62)"/></g><g><g><path fill="none" stroke="none"/><text fill="#000000" stroke="none" font-family="Arial" font-size="16px" font-style="normal" font-weight="normal" text-decoration="undefined" x="178" y="223" text-anchor="middle" dominant-baseline="central" transform="matrix(1 0 0 1 -62 -62)">Переход по</text><text fill="#000000" stroke="none" font-family="Arial" font-size="16px" font-style="normal" font-weight="normal" text-decoration="undefined" x="178" y="239" text-anchor="middle" dominant-baseline="central" transform="matrix(1 0 0 1 -62 -62)">ссылке</text><text fill="#000000" stroke="none" font-family="Arial" font-size="16px" font-style="normal" font-weight="normal" text-decoration="undefined" x="178" y="255" text-anchor="middle" dominant-baseline="central" transform="matrix(1 0 0 1 -62 -62)">вступления</text><text fill="#000000" stroke="none" font-family="Arial" font-size="16px" font-style="normal" font-weight="normal" text-decoration="undefined" x="178" y="271" text-anchor="middle" dominant-baseline="central" transform="matrix(1 0 0 1 -62 -62)">в</text><text fill="#000000" stroke="none" font-family="Arial" font-size="16px" font-style="normal" font-weight="normal" text-decoration="undefined" x="178" y="287" text-anchor="middle" dominant-baseline="central" transform="matrix(1 0 0 1 -62 -62)">сообщество</text></g></g><g><path fill="#C0C0C0" stroke="none" paint-order="stroke fill markers" d=" M 377 125 L 399.4 125 L 409 134.6 L 409 165 L 377 165" fill-opacity="0.2"/></g><g><path fill="#ffffff" stroke="none" paint-order="stroke fill markers" d=" M 370 118 L 392.4 118 L 402 127.6 L 402 158 L 370 158"/></g><g><path fill="none" stroke="#000000" paint-order="fill stroke markers" d=" M 370 118 L 392.4 118 L 402 127.6 L 402 158 L 370 158 L 370 118" stroke-miterlimit="10" stroke-dasharray=""/></g><g><path fill="none" stroke="#000000" paint-order="fill stroke markers" d=" M 392.4 118 L 392.4 127.6 L 402 127.6 L 392.4 118" stroke-miterlimit="10" stroke-dasharray=""/></g><g><rect fill="#ffffff" stroke="none" x="400.30078125" y="233" width="95.3984375" height="64" transform="matrix(1 0 0 1 -62 -62)"/></g><g><g><path fill="none" stroke="none"/><text fill="#000000" stroke="none" font-family="Arial" font-size="16px" font-style="normal" font-weight="normal" text-decoration="undefined" x="448" y="241" text-anchor="middle" dominant-baseline="central" transform="matrix(1 0 0 1 -62 -62)">Модал</text><text fill="#000000" stroke="none" font-family="Arial" font-size="16px" font-style="normal" font-weight="normal" text-decoration="undefined" x="448" y="257" text-anchor="middle" dominant-baseline="central" transform="matrix(1 0 0 1 -62 -62)">информация</text><text fill="#000000" stroke="none" font-family="Arial" font-size="16px" font-style="normal" font-weight="normal" text-decoration="undefined" x="448" y="273" text-anchor="middle" dominant-baseline="central" transform="matrix(1 0 0 1 -62 -62)">про</text><text fill="#000000" stroke="none" font-family="Arial" font-size="16px" font-style="normal" font-weight="normal" text-decoration="undefined" x="448" y="289" text-anchor="middle" dominant-baseline="central" transform="matrix(1 0 0 1 -62 -62)">сообщество</text></g></g><g><path fill="#C0C0C0" stroke="none" paint-order="stroke fill markers" d=" M 207 485 L 295.734375 485 Q 305.734375 485 305.734375 495 L 305.734375 549 Q 305.734375 559 295.734375 559 L 207 559 Q 197 559 197 549 L 197 495 Q 197 485 207 485 Z" fill-opacity="0.2"/></g><g><path fill="#ffffff" stroke="none" paint-order="stroke fill markers" d=" M 200 478 L 288.734375 478 Q 298.734375 478 298.734375 488 L 298.734375 542 Q 298.734375 552 288.734375 552 L 200 552 Q 190 552 190 542 L 190 488 Q 190 478 200 478 Z"/></g><g><path fill="none" stroke="#000000" paint-order="fill stroke markers" d=" M 200 478 L 288.734375 478 Q 298.734375 478 298.734375 488 L 298.734375 542 Q 298.734375 552 288.734375 552 L 200 552 Q 190 552 190 542 L 190 488 Q 190 478 200 478 Z" stroke-miterlimit="10" stroke-dasharray=""/></g><g><g><path fill="none" stroke="none"/><text fill="#000000" stroke="none" font-family="Arial" font-size="16px" font-style="normal" font-weight="normal" text-decoration="undefined" x="306.3671875" y="553" text-anchor="middle" dominant-baseline="central" transform="matrix(1 0 0 1 -62 -62)">Извлекаем</text><text fill="#000000" stroke="none" font-family="Arial" font-size="16px" font-style="normal" font-weight="normal" text-decoration="undefined" x="306.3671875" y="569" text-anchor="middle" dominant-baseline="central" transform="matrix(1 0 0 1 -62 -62)">информацию</text><text fill="#000000" stroke="none" font-family="Arial" font-size="16px" font-style="normal" font-weight="normal" text-decoration="undefined" x="306.3671875" y="585" text-anchor="middle" dominant-baseline="central" transform="matrix(1 0 0 1 -62 -62)">про</text><text fill="#000000" stroke="none" font-family="Arial" font-size="16px" font-style="normal" font-weight="normal" text-decoration="undefined" x="306.3671875" y="601" text-anchor="middle" dominant-baseline="central" transform="matrix(1 0 0 1 -62 -62)">сообщество</text></g></g><g><path fill="#C0C0C0" stroke="none" paint-order="stroke fill markers" d=" M 593 141 L 609 125 L 625 141 L 609 157 L 593 141" fill-opacity="0.2"/></g><g><path fill="#ffffff" stroke="none" paint-order="stroke fill markers" d=" M 586 134 L 602 118 L 618 134 L 602 150 L 586 134"/></g><g><path fill="none" stroke="#000000" paint-order="fill stroke markers" d=" M 586 134 L 602 118 L 618 134 L 602 150 L 586 134 L 586 134" stroke-miterlimit="10" stroke-dasharray=""/></g><g><rect fill="#ffffff" stroke="none" x="619.21484375" y="233" width="89.5703125" height="64" transform="matrix(1 0 0 1 -62 -62)"/></g><g><g><path fill="none" stroke="none"/><text fill="#000000" stroke="none" font-family="Arial" font-size="16px" font-style="normal" font-weight="normal" text-decoration="undefined" x="664" y="241" text-anchor="middle" dominant-baseline="central" transform="matrix(1 0 0 1 -62 -62)">Является</text><text fill="#000000" stroke="none" font-family="Arial" font-size="16px" font-style="normal" font-weight="normal" text-decoration="undefined" x="664" y="257" text-anchor="middle" dominant-baseline="central" transform="matrix(1 0 0 1 -62 -62)">ли</text><text fill="#000000" stroke="none" font-family="Arial" font-size="16px" font-style="normal" font-weight="normal" text-decoration="undefined" x="664" y="273" text-anchor="middle" dominant-baseline="central" transform="matrix(1 0 0 1 -62 -62)">сообщество</text><text fill="#000000" stroke="none" font-family="Arial" font-size="16px" font-style="normal" font-weight="normal" text-decoration="undefined" x="664" y="289" text-anchor="middle" dominant-baseline="central" transform="matrix(1 0 0 1 -62 -62)">публичным</text></g></g><g><path fill="#C0C0C0" stroke="none" paint-order="stroke fill markers" d=" M 801 53 L 912.8046875 53 Q 922.8046875 53 922.8046875 63 L 922.8046875 101 Q 922.8046875 111 912.8046875 111 L 801 111 Q 791 111 791 101 L 791 63 Q 791 53 801 53 Z" fill-opacity="0.2"/></g><g><path fill="#ffffff" stroke="none" paint-order="stroke fill markers" d=" M 794 46 L 905.8046875 46 Q 915.8046875 46 915.8046875 56 L 915.8046875 94 Q 915.8046875 104 905.8046875 104 L 794 104 Q 784 104 784 94 L 784 56 Q 784 46 794 46 Z"/></g><g><path fill="none" stroke="#000000" paint-order="fill stroke markers" d=" M 794 46 L 905.8046875 46 Q 915.8046875 46 915.8046875 56 L 915.8046875 94 Q 915.8046875 104 905.8046875 104 L 794 104 Q 784 104 784 94 L 784 56 Q 784 46 794 46 Z" stroke-miterlimit="10" stroke-dasharray=""/></g><g><path fill="none" stroke="#000000" paint-order="fill stroke markers" d=" M 794 55 C 794 53.3431456 795.3431456 52 797 52 C 798.6568544 52 800 53.3431456 800 55 C 800 56.6568544 798.6568544 58 797 58 C 795.3431456 58 794 56.6568544 794 55 Z" stroke-miterlimit="10" stroke-dasharray=""/></g><g><path fill="none" stroke="#000000" paint-order="fill stroke markers" d=" M 792 59 L 802 59 L 802 66 L 792 66 L 792 59 Z Z" stroke-miterlimit="10" stroke-dasharray=""/></g><g><g><path fill="none" stroke="none"/><text fill="#000000" stroke="none" font-family="Arial" font-size="16px" font-style="normal" font-weight="normal" text-decoration="undefined" x="911.90234375" y="121" text-anchor="middle" dominant-baseline="central" transform="matrix(1 0 0 1 -62 -62)">Нажать кнопку</text><text fill="#000000" stroke="none" font-family="Arial" font-size="16px" font-style="normal" font-weight="normal" text-decoration="undefined" x="911.90234375" y="137" text-anchor="middle" dominant-baseline="central" transform="matrix(1 0 0 1 -62 -62)">"Вступить в</text><text fill="#000000" stroke="none" font-family="Arial" font-size="16px" font-style="normal" font-weight="normal" text-decoration="undefined" x="911.90234375" y="153" text-anchor="middle" dominant-baseline="central" transform="matrix(1 0 0 1 -62 -62)">сообщество"</text></g></g><g><path fill="#C0C0C0" stroke="none" paint-order="stroke fill markers" d=" M 801 215 L 912.8046875 215 Q 922.8046875 215 922.8046875 225 L 922.8046875 279 Q 922.8046875 289 912.8046875 289 L 801 289 Q 791 289 791 279 L 791 225 Q 791 215 801 215 Z" fill-opacity="0.2"/></g><g><path fill="#ffffff" stroke="none" paint-order="stroke fill markers" d=" M 794 208 L 905.8046875 208 Q 915.8046875 208 915.8046875 218 L 915.8046875 272 Q 915.8046875 282 905.8046875 282 L 794 282 Q 784 282 784 272 L 784 218 Q 784 208 794 208 Z"/></g><g><path fill="none" stroke="#000000" paint-order="fill stroke markers" d=" M 794 208 L 905.8046875 208 Q 915.8046875 208 915.8046875 218 L 915.8046875 272 Q 915.8046875 282 905.8046875 282 L 794 282 Q 784 282 784 272 L 784 218 Q 784 208 794 208 Z" stroke-miterlimit="10" stroke-dasharray=""/></g><g><path fill="none" stroke="#000000" paint-order="fill stroke markers" d=" M 794 217 C 794 215.3431456 795.3431456 214 797 214 C 798.6568544 214 800 215.3431456 800 217 C 800 218.6568544 798.6568544 220 797 220 C 795.3431456 220 794 218.6568544 794 217 Z" stroke-miterlimit="10" stroke-dasharray=""/></g><g><path fill="none" stroke="#000000" paint-order="fill stroke markers" d=" M 792 221 L 802 221 L 802 228 L 792 228 L 792 221 Z Z" stroke-miterlimit="10" stroke-dasharray=""/></g><g><g><path fill="none" stroke="none"/><text fill="#000000" stroke="none" font-family="Arial" font-size="16px" font-style="normal" font-weight="normal" text-decoration="undefined" x="911.90234375" y="283" text-anchor="middle" dominant-baseline="central" transform="matrix(1 0 0 1 -62 -62)">Нажать кнопку</text><text fill="#000000" stroke="none" font-family="Arial" font-size="16px" font-style="normal" font-weight="normal" text-decoration="undefined" x="911.90234375" y="299" text-anchor="middle" dominant-baseline="central" transform="matrix(1 0 0 1 -62 -62)">"Отправить</text><text fill="#000000" stroke="none" font-family="Arial" font-size="16px" font-style="normal" font-weight="normal" text-decoration="undefined" x="911.90234375" y="315" text-anchor="middle" dominant-baseline="central" transform="matrix(1 0 0 1 -62 -62)">заявку на</text><text fill="#000000" stroke="none" font-family="Arial" font-size="16px" font-style="normal" font-weight="normal" text-decoration="undefined" x="911.90234375" y="331" text-anchor="middle" dominant-baseline="central" transform="matrix(1 0 0 1 -62 -62)">вступление"</text></g></g><g><path fill="#C0C0C0" stroke="none" paint-order="stroke fill markers" d=" M 999 665 L 1077.0234375 665 Q 1087.0234375 665 1087.0234375 675 L 1087.0234375 713 Q 1087.0234375 723 1077.0234375 723 L 999 723 Q 989 723 989 713 L 989 675 Q 989 665 999 665 Z" fill-opacity="0.2"/></g><g><path fill="#ffffff" stroke="none" paint-order="stroke fill markers" d=" M 992 658 L 1070.0234375 658 Q 1080.0234375 658 1080.0234375 668 L 1080.0234375 706 Q 1080.0234375 716 1070.0234375 716 L 992 716 Q 982 716 982 706 L 982 668 Q 982 658 992 658 Z"/></g><g><path fill="none" stroke="#000000" paint-order="fill stroke markers" d=" M 992 658 L 1070.0234375 658 Q 1080.0234375 658 1080.0234375 668 L 1080.0234375 706 Q 1080.0234375 716 1070.0234375 716 L 992 716 Q 982 716 982 706 L 982 668 Q 982 658 992 658 Z" stroke-miterlimit="10" stroke-dasharray=""/></g><g><g><path fill="none" stroke="none"/><text fill="#000000" stroke="none" font-family="Arial" font-size="16px" font-style="normal" font-weight="normal" text-decoration="undefined" x="1093.01171875" y="733" text-anchor="middle" dominant-baseline="central" transform="matrix(1 0 0 1 -62 -62)">Создать</text><text fill="#000000" stroke="none" font-family="Arial" font-size="16px" font-style="normal" font-weight="normal" text-decoration="undefined" x="1093.01171875" y="749" text-anchor="middle" dominant-baseline="central" transform="matrix(1 0 0 1 -62 -62)">заявку на</text><text fill="#000000" stroke="none" font-family="Arial" font-size="16px" font-style="normal" font-weight="normal" text-decoration="undefined" x="1093.01171875" y="765" text-anchor="middle" dominant-baseline="central" transform="matrix(1 0 0 1 -62 -62)">вступление</text></g></g><g><path fill="#C0C0C0" stroke="none" paint-order="stroke fill markers" d=" M 1125 665 L 1214.0078125 665 Q 1224.0078125 665 1224.0078125 675 L 1224.0078125 729 Q 1224.0078125 739 1214.0078125 739 L 1125 739 Q 1115 739 1115 729 L 1115 675 Q 1115 665 1125 665 Z" fill-opacity="0.2"/></g><g><path fill="#ffffff" stroke="none" paint-order="stroke fill markers" d=" M 1118 658 L 1207.0078125 658 Q 1217.0078125 658 1217.0078125 668 L 1217.0078125 722 Q 1217.0078125 732 1207.0078125 732 L 1118 732 Q 1108 732 1108 722 L 1108 668 Q 1108 658 1118 658 Z"/></g><g><path fill="none" stroke="#000000" paint-order="fill stroke markers" d=" M 1118 658 L 1207.0078125 658 Q 1217.0078125 658 1217.0078125 668 L 1217.0078125 722 Q 1217.0078125 732 1207.0078125 732 L 1118 732 Q 1108 732 1108 722 L 1108 668 Q 1108 658 1118 658 Z" stroke-miterlimit="10" stroke-dasharray=""/></g><g><g><path fill="none" stroke="none"/><text fill="#000000" stroke="none" font-family="Arial" font-size="16px" font-style="normal" font-weight="normal" text-decoration="undefined" x="1224.50390625" y="733" text-anchor="middle" dominant-baseline="central" transform="matrix(1 0 0 1 -62 -62)">Отправить</text><text fill="#000000" stroke="none" font-family="Arial" font-size="16px" font-style="normal" font-weight="normal" text-decoration="undefined" x="1224.50390625" y="749" text-anchor="middle" dominant-baseline="central" transform="matrix(1 0 0 1 -62 -62)">уведомление</text><text fill="#000000" stroke="none" font-family="Arial" font-size="16px" font-style="normal" font-weight="normal" text-decoration="undefined" x="1224.50390625" y="765" text-anchor="middle" dominant-baseline="central" transform="matrix(1 0 0 1 -62 -62)">о новой</text><text fill="#000000" stroke="none" font-family="Arial" font-size="16px" font-style="normal" font-weight="normal" text-decoration="undefined" x="1224.50390625" y="781" text-anchor="middle" dominant-baseline="central" transform="matrix(1 0 0 1 -62 -62)">заявки</text></g></g><g><path fill="#C0C0C0" stroke="none" paint-order="stroke fill markers" d=" M 1053 467 L 1144.3203125 467 Q 1154.3203125 467 1154.3203125 477 L 1154.3203125 531 Q 1154.3203125 541 1144.3203125 541 L 1053 541 Q 1043 541 1043 531 L 1043 477 Q 1043 467 1053 467 Z" fill-opacity="0.2"/></g><g><path fill="#ffffff" stroke="none" paint-order="stroke fill markers" d=" M 1046 460 L 1137.3203125 460 Q 1147.3203125 460 1147.3203125 470 L 1147.3203125 524 Q 1147.3203125 534 1137.3203125 534 L 1046 534 Q 1036 534 1036 524 L 1036 470 Q 1036 460 1046 460 Z"/></g><g><path fill="none" stroke="#000000" paint-order="fill stroke markers" d=" M 1046 460 L 1137.3203125 460 Q 1147.3203125 460 1147.3203125 470 L 1147.3203125 524 Q 1147.3203125 534 1137.3203125 534 L 1046 534 Q 1036 534 1036 524 L 1036 470 Q 1036 460 1046 460 Z" stroke-miterlimit="10" stroke-dasharray=""/></g><g><g><path fill="none" stroke="none"/><text fill="#000000" stroke="none" font-family="Arial" font-size="16px" font-style="normal" font-weight="normal" text-decoration="undefined" x="1153.66015625" y="543" text-anchor="middle" dominant-baseline="central" transform="matrix(1 0 0 1 -62 -62)">Добавить</text><text fill="#000000" stroke="none" font-family="Arial" font-size="16px" font-style="normal" font-weight="normal" text-decoration="undefined" x="1153.66015625" y="559" text-anchor="middle" dominant-baseline="central" transform="matrix(1 0 0 1 -62 -62)">пользователя</text><text fill="#000000" stroke="none" font-family="Arial" font-size="16px" font-style="normal" font-weight="normal" text-decoration="undefined" x="1153.66015625" y="575" text-anchor="middle" dominant-baseline="central" transform="matrix(1 0 0 1 -62 -62)">в Сообщество</text></g></g><g><path fill="#ffffff" stroke="none" paint-order="stroke fill markers" d=" M 712 442 L 830.890625 442 L 840.890625 452 L 840.890625 613 L 712 613 L 712 442"/></g><g><path fill="none" stroke="#000000" paint-order="fill stroke markers" d=" M 712 442 L 830.890625 442 L 840.890625 452 L 840.890625 613 L 712 613 L 712 442 L 712 442" stroke-miterlimit="10" stroke-dasharray=""/></g><g><path fill="none" stroke="#000000" paint-order="fill stroke markers" d=" M 830.890625 442 L 830.890625 452 L 840.890625 452 L 830.890625 442" stroke-miterlimit="10" stroke-dasharray=""/></g><g><g><path fill="none" stroke="none"/><text fill="#000000" stroke="none" font-family="Arial" font-size="16px" font-style="normal" font-weight="normal" text-decoration="undefined" x="779" y="509" text-anchor="start" dominant-baseline="text-before-edge" transform="matrix(1 0 0 1 -62 -62)">question: Нужно</text><text fill="#000000" stroke="none" font-family="Arial" font-size="16px" font-style="normal" font-weight="normal" text-decoration="undefined" x="779" y="525" text-anchor="start" dominant-baseline="text-before-edge" transform="matrix(1 0 0 1 -62 -62)">ли тут</text><text fill="#000000" stroke="none" font-family="Arial" font-size="16px" font-style="normal" font-weight="normal" text-decoration="undefined" x="779" y="541" text-anchor="start" dominant-baseline="text-before-edge" transform="matrix(1 0 0 1 -62 -62)">отправлять</text><text fill="#000000" stroke="none" font-family="Arial" font-size="16px" font-style="normal" font-weight="normal" text-decoration="undefined" x="779" y="557" text-anchor="start" dominant-baseline="text-before-edge" transform="matrix(1 0 0 1 -62 -62)">уведомление о</text><text fill="#000000" stroke="none" font-family="Arial" font-size="16px" font-style="normal" font-weight="normal" text-decoration="undefined" x="779" y="573" text-anchor="start" dominant-baseline="text-before-edge" transform="matrix(1 0 0 1 -62 -62)">том что</text><text fill="#000000" stroke="none" font-family="Arial" font-size="16px" font-style="normal" font-weight="normal" text-decoration="undefined" x="779" y="589" text-anchor="start" dominant-baseline="text-before-edge" transform="matrix(1 0 0 1 -62 -62)">появился</text><text fill="#000000" stroke="none" font-family="Arial" font-size="16px" font-style="normal" font-weight="normal" text-decoration="undefined" x="779" y="605" text-anchor="start" dominant-baseline="text-before-edge" transform="matrix(1 0 0 1 -62 -62)">новый</text><text fill="#000000" stroke="none" font-family="Arial" font-size="16px" font-style="normal" font-weight="normal" text-decoration="undefined" x="779" y="621" text-anchor="start" dominant-baseline="text-before-edge" transform="matrix(1 0 0 1 -62 -62)">пользователь?</text></g></g><g><path fill="none" stroke="#000000" paint-order="fill stroke markers" d=" M 1035 503 L 843 521" stroke-miterlimit="10" stroke-dasharray="3"/></g><g><path fill="none" stroke="#000000" paint-order="fill stroke markers" d=" M 10 838 L 1774 838 L 1774 978.71875 L 10 978.71875 L 10 838 Z Z" stroke-miterlimit="10" stroke-dasharray=""/></g><g><path fill="none" stroke="#000000" paint-order="fill stroke markers" d=" M 36 838 L 36 978.71875" stroke-miterlimit="10" stroke-dasharray=""/></g><g><g><path fill="none" stroke="none"/><text fill="#000000" stroke="none" font-family="Arial" font-size="16px" font-style="normal" font-weight="normal" text-decoration="undefined" x="0" y="0" text-anchor="middle" dominant-baseline="text-before-edge" transform="matrix(6.123233995736766e-17 -1 1 6.123233995736766e-17 15 908.359375)">База данных</text></g></g><g><path fill="none" stroke="#000000" paint-order="fill stroke markers" d=" M 10 1054 L 1774 1054 L 1774 1194.71875 L 10 1194.71875 L 10 1054 Z Z" stroke-miterlimit="10" stroke-dasharray=""/></g><g><path fill="none" stroke="#000000" paint-order="fill stroke markers" d=" M 36 1054 L 36 1194.71875" stroke-miterlimit="10" stroke-dasharray=""/></g><g><g><path fill="none" stroke="none"/><text fill="#000000" stroke="none" font-family="Arial" font-size="16px" font-style="normal" font-weight="normal" text-decoration="undefined" x="0" y="0" text-anchor="middle" dominant-baseline="text-before-edge" transform="matrix(6.123233995736766e-17 -1 1 6.123233995736766e-17 15 1124.359375)">Уведомления</text></g></g><g><path fill="#C0C0C0" stroke="none" paint-order="stroke fill markers" d=" M 1403 71 L 1425.4 71 L 1435 80.6 L 1435 111 L 1403 111" fill-opacity="0.2"/></g><g><path fill="#ffffff" stroke="none" paint-order="stroke fill markers" d=" M 1396 64 L 1418.4 64 L 1428 73.6 L 1428 104 L 1396 104"/></g><g><path fill="none" stroke="#000000" paint-order="fill stroke markers" d=" M 1396 64 L 1418.4 64 L 1428 73.6 L 1428 104 L 1396 104 L 1396 64" stroke-miterlimit="10" stroke-dasharray=""/></g><g><path fill="none" stroke="#000000" paint-order="fill stroke markers" d=" M 1418.4 64 L 1418.4 73.6 L 1428 73.6 L 1418.4 64" stroke-miterlimit="10" stroke-dasharray=""/></g><g><rect fill="#ffffff" stroke="none" x="1404.42578125" y="174" width="139.1484375" height="16" transform="matrix(1 0 0 1 -62 -62)"/></g><g><g><path fill="none" stroke="none"/><text fill="#000000" stroke="none" font-family="Arial" font-size="16px" font-style="normal" font-weight="normal" text-decoration="undefined" x="1474" y="182" text-anchor="middle" dominant-baseline="central" transform="matrix(1 0 0 1 -62 -62)">Экран сообщества</text></g></g><g><path fill="#C0C0C0" stroke="none" paint-order="stroke fill markers" d=" M 1403 215 L 1425.4 215 L 1435 224.60000000000002 L 1435 255 L 1403 255" fill-opacity="0.2"/></g><g><path fill="#ffffff" stroke="none" paint-order="stroke fill markers" d=" M 1396 208 L 1418.4 208 L 1428 217.60000000000002 L 1428 248 L 1396 248"/></g><g><path fill="none" stroke="#000000" paint-order="fill stroke markers" d=" M 1396 208 L 1418.4 208 L 1428 217.60000000000002 L 1428 248 L 1396 248 L 1396 208" stroke-miterlimit="10" stroke-dasharray=""/></g><g><path fill="none" stroke="#000000" paint-order="fill stroke markers" d=" M 1418.4 208 L 1418.4 217.60000000000002 L 1428 217.60000000000002 L 1418.4 208" stroke-miterlimit="10" stroke-dasharray=""/></g><g><rect fill="#ffffff" stroke="none" x="1406.41796875" y="318" width="135.1640625" height="16" transform="matrix(1 0 0 1 -62 -62)"/></g><g><g><path fill="none" stroke="none"/><text fill="#000000" stroke="none" font-family="Arial" font-size="16px" font-style="normal" font-weight="normal" text-decoration="undefined" x="1474" y="326" text-anchor="middle" dominant-baseline="central" transform="matrix(1 0 0 1 -62 -62)">Главный экран</text></g></g><g><path fill="none" stroke="#000000" paint-order="fill stroke markers" d=" M 132 132 L 182 132 L 182 132 A 8 8 0 0 1 190 140 L 190 478" stroke-miterlimit="10" stroke-dasharray=""/></g><g><path fill="#000000" stroke="none" paint-order="stroke fill markers" d=" M 185.790482243984 467.8373251423759 L 190 478 L 194.209517756016 467.8373251423759"/></g><g><path fill="none" stroke="#000000" paint-order="fill stroke markers" d=" M 185.790482243984 467.8373251423759 L 190 478 L 194.209517756016 467.8373251423759 L 185.790482243984 467.8373251423759" stroke-miterlimit="10" stroke-dasharray=""/></g><g><path fill="none" stroke="#000000" paint-order="fill stroke markers" d=" M 299 478 L 308 478 L 308 478 A 8 8 0 0 0 316 470 L 316 166 L 316 166 A 8 8 0 0 1 324 158 L 370 158" stroke-miterlimit="10" stroke-dasharray=""/></g><g><path fill="#000000" stroke="none" paint-order="stroke fill markers" d=" M 359.83732514237585 162.209517756016 L 370 158 L 359.83732514237585 153.790482243984"/></g><g><path fill="none" stroke="#000000" paint-order="fill stroke markers" d=" M 359.83732514237585 162.209517756016 L 370 158 L 359.83732514237585 153.790482243984 L 359.83732514237585 162.209517756016" stroke-miterlimit="10" stroke-dasharray=""/></g><g><path fill="none" stroke="#000000" paint-order="fill stroke markers" d=" M 299 552 L 299 560 L 299 560 A 8 8 0 0 1 307 552 L 299 838" stroke-miterlimit="10" stroke-dasharray=""/></g><g><path fill="#000000" stroke="none" paint-order="stroke fill markers" d=" M 294.790482243984 827.8373251423759 L 299 838 L 303.209517756016 827.8373251423759"/></g><g><path fill="none" stroke="#000000" paint-order="fill stroke markers" d=" M 294.790482243984 827.8373251423759 L 299 838 L 303.209517756016 827.8373251423759 L 294.790482243984 827.8373251423759" stroke-miterlimit="10" stroke-dasharray=""/></g><g><path fill="none" stroke="#000000" paint-order="fill stroke markers" d=" M 402 138 L 586 138" stroke-miterlimit="10" stroke-dasharray=""/></g><g><path fill="#000000" stroke="none" paint-order="stroke fill markers" d=" M 575.8373251423759 142.209517756016 L 586 138 L 575.8373251423758 133.790482243984"/></g><g><path fill="none" stroke="#000000" paint-order="fill stroke markers" d=" M 575.8373251423759 142.209517756016 L 586 138 L 575.8373251423758 133.790482243984 L 575.8373251423759 142.209517756016" stroke-miterlimit="10" stroke-dasharray=""/></g><g><path fill="none" stroke="#000000" paint-order="fill stroke markers" d=" M 618 150 L 704 150 L 704 150 A 8 8 0 0 1 712 158 L 712 208 L 712 208 A 8 8 0 0 0 720 216 L 784 216" stroke-miterlimit="10" stroke-dasharray=""/></g><g><path fill="#000000" stroke="none" paint-order="stroke fill markers" d=" M 773.8373251423759 220.209517756016 L 784 216 L 773.8373251423758 211.790482243984"/></g><g><path fill="none" stroke="#000000" paint-order="fill stroke markers" d=" M 773.8373251423759 220.209517756016 L 784 216 L 773.8373251423758 211.790482243984 L 773.8373251423759 220.209517756016" stroke-miterlimit="10" stroke-dasharray=""/></g><g><rect fill="#ffffff" stroke="none" x="775" y="236" width="27.25" height="16" transform="matrix(1 0 0 1 -62 -62)"/></g><g><g><path fill="none" stroke="none"/><text fill="#000000" stroke="none" font-family="Arial" font-size="16px" font-style="normal" font-weight="normal" text-decoration="undefined" x="788.625" y="244" text-anchor="middle" dominant-baseline="central" transform="matrix(1 0 0 1 -62 -62)">Нет</text></g></g><g><path fill="none" stroke="#000000" paint-order="fill stroke markers" d=" M 618 130 L 776 130 L 776 130 A 8 8 0 0 0 784 122 L 784 104" stroke-miterlimit="10" stroke-dasharray=""/></g><g><path fill="#000000" stroke="none" paint-order="stroke fill markers" d=" M 788.209517756016 114.16267485762415 L 784 104 L 779.790482243984 114.16267485762415"/></g><g><path fill="none" stroke="#000000" paint-order="fill stroke markers" d=" M 788.209517756016 114.16267485762415 L 784 104 L 779.790482243984 114.16267485762415 L 788.209517756016 114.16267485762415" stroke-miterlimit="10" stroke-dasharray=""/></g><g><rect fill="#ffffff" stroke="none" x="822" y="183" width="19.734375" height="16" transform="matrix(1 0 0 1 -62 -62)"/></g><g><g><path fill="none" stroke="none"/><text fill="#000000" stroke="none" font-family="Arial" font-size="16px" font-style="normal" font-weight="normal" text-decoration="undefined" x="831.8671875" y="191" text-anchor="middle" dominant-baseline="central" transform="matrix(1 0 0 1 -62 -62)">Да</text></g></g><g><path fill="none" stroke="#000000" paint-order="fill stroke markers" d=" M 864 282 L 864 650 L 864 650 A 8 8 0 0 0 872 658 L 982 658" stroke-miterlimit="10" stroke-dasharray=""/></g><g><path fill="#000000" stroke="none" paint-order="stroke fill markers" d=" M 971.8373251423759 662.209517756016 L 982 658 L 971.8373251423759 653.790482243984"/></g><g><path fill="none" stroke="#000000" paint-order="fill stroke markers" d=" M 971.8373251423759 662.209517756016 L 982 658 L 971.8373251423759 653.790482243984 L 971.8373251423759 662.209517756016" stroke-miterlimit="10" stroke-dasharray=""/></g><g><path fill="none" stroke="#000000" paint-order="fill stroke markers" d=" M 1008 716 L 1008 838" stroke-miterlimit="10" stroke-dasharray=""/></g><g><path fill="#000000" stroke="none" paint-order="stroke fill markers" d=" M 1003.7904822439841 827.8373251423759 L 1008 838 L 1012.2095177560159 827.8373251423759"/></g><g><path fill="none" stroke="#000000" paint-order="fill stroke markers" d=" M 1003.7904822439841 827.8373251423759 L 1008 838 L 1012.2095177560159 827.8373251423759 L 1003.7904822439841 827.8373251423759" stroke-miterlimit="10" stroke-dasharray=""/></g><g><path fill="none" stroke="#000000" paint-order="fill stroke markers" d=" M 1080 692 L 1108 692" stroke-miterlimit="10" stroke-dasharray=""/></g><g><path fill="#000000" stroke="none" paint-order="stroke fill markers" d=" M 1097.837325142376 696.209517756016 L 1108 692 L 1097.837325142376 687.790482243984"/></g><g><path fill="none" stroke="#000000" paint-order="fill stroke markers" d=" M 1097.837325142376 696.209517756016 L 1108 692 L 1097.837325142376 687.790482243984 L 1097.837325142376 696.209517756016" stroke-miterlimit="10" stroke-dasharray=""/></g><g><path fill="none" stroke="#000000" paint-order="fill stroke markers" d=" M 1136 732 L 1136 1054" stroke-miterlimit="10" stroke-dasharray=""/></g><g><path fill="#000000" stroke="none" paint-order="stroke fill markers" d=" M 1131.7904822439841 1043.837325142376 L 1136 1054 L 1140.2095177560159 1043.837325142376"/></g><g><path fill="none" stroke="#000000" paint-order="fill stroke markers" d=" M 1131.7904822439841 1043.837325142376 L 1136 1054 L 1140.2095177560159 1043.837325142376 L 1131.7904822439841 1043.837325142376" stroke-miterlimit="10" stroke-dasharray=""/></g><g><path fill="none" stroke="#000000" paint-order="fill stroke markers" d=" M 1217 658 L 1393 658 L 1393 658 A 8 8 0 0 0 1401 650 L 1401 248" stroke-miterlimit="10" stroke-dasharray=""/></g><g><path fill="#000000" stroke="none" paint-order="stroke fill markers" d=" M 1405.2095177560159 258.16267485762415 L 1401 248 L 1396.7904822439841 258.16267485762415"/></g><g><path fill="none" stroke="#000000" paint-order="fill stroke markers" d=" M 1405.2095177560159 258.16267485762415 L 1401 248 L 1396.7904822439841 258.16267485762415 L 1405.2095177560159 258.16267485762415" stroke-miterlimit="10" stroke-dasharray=""/></g><g><path fill="none" stroke="#000000" paint-order="fill stroke markers" d=" M 916 104 L 974 104 L 974 104 A 8 8 0 0 1 982 112 L 982 452 L 982 452 A 8 8 0 0 0 990 460 L 1036 460" stroke-miterlimit="10" stroke-dasharray=""/></g><g><path fill="#000000" stroke="none" paint-order="stroke fill markers" d=" M 1025.837325142376 464.209517756016 L 1036 460 L 1025.837325142376 455.790482243984"/></g><g><path fill="none" stroke="#000000" paint-order="fill stroke markers" d=" M 1025.837325142376 464.209517756016 L 1036 460 L 1025.837325142376 455.790482243984 L 1025.837325142376 464.209517756016" stroke-miterlimit="10" stroke-dasharray=""/></g><g><path fill="none" stroke="#000000" paint-order="fill stroke markers" d=" M 1147 460 L 1262 460 L 1262 460 A 8 8 0 0 0 1270 452 L 1270 112 L 1270 112 A 8 8 0 0 1 1278 104 L 1396 104" stroke-miterlimit="10" stroke-dasharray=""/></g><g><path fill="#000000" stroke="none" paint-order="stroke fill markers" d=" M 1385.837325142376 108.209517756016 L 1396 104 L 1385.837325142376 99.790482243984"/></g><g><path fill="none" stroke="#000000" paint-order="fill stroke markers" d=" M 1385.837325142376 108.209517756016 L 1396 104 L 1385.837325142376 99.790482243984 L 1385.837325142376 108.209517756016" stroke-miterlimit="10" stroke-dasharray=""/></g><g><path fill="#C0C0C0" stroke="none" paint-order="stroke fill markers" d=" M 1601 177 C 1601 168.1634432 1608.1634432 161 1617 161 C 1625.8365568 161 1633 168.1634432 1633 177 C 1633 185.8365568 1625.8365568 193 1617 193 C 1608.1634432 193 1601 185.8365568 1601 177 Z" fill-opacity="0.2"/></g><g><path fill="#ffffff" stroke="none" paint-order="stroke fill markers" d=" M 1594 170 C 1594 161.1634432 1601.1634432 154 1610 154 C 1618.8365568 154 1626 161.1634432 1626 170 C 1626 178.8365568 1618.8365568 186 1610 186 C 1601.1634432 186 1594 178.8365568 1594 170 Z"/></g><g><path fill="none" stroke="#000000" paint-order="fill stroke markers" d=" M 1594 170 C 1594 161.1634432 1601.1634432 154 1610 154 C 1618.8365568 154 1626 161.1634432 1626 170 C 1626 178.8365568 1618.8365568 186 1610 186 C 1601.1634432 186 1594 178.8365568 1594 170 Z" stroke-miterlimit="10" stroke-width="3" stroke-dasharray=""/></g><g><rect fill="#ffffff" stroke="none" x="1637.41796875" y="251" width="85.1640625" height="48" transform="matrix(1 0 0 1 -62 -62)"/></g><g><g><path fill="none" stroke="none"/><text fill="#000000" stroke="none" font-family="Arial" font-size="16px" font-style="normal" font-weight="normal" text-decoration="undefined" x="1680" y="259" text-anchor="middle" dominant-baseline="central" transform="matrix(1 0 0 1 -62 -62)">Процесс</text><text fill="#000000" stroke="none" font-family="Arial" font-size="16px" font-style="normal" font-weight="normal" text-decoration="undefined" x="1680" y="275" text-anchor="middle" dominant-baseline="central" transform="matrix(1 0 0 1 -62 -62)">вступления</text><text fill="#000000" stroke="none" font-family="Arial" font-size="16px" font-style="normal" font-weight="normal" text-decoration="undefined" x="1680" y="291" text-anchor="middle" dominant-baseline="central" transform="matrix(1 0 0 1 -62 -62)">завершон</text></g></g><g><path fill="none" stroke="#000000" paint-order="fill stroke markers" d=" M 1428 104 L 1514 104 L 1514 104 A 8 8 0 0 1 1522 112 L 1522 155 L 1522 155 A 8 8 0 0 0 1530 163 L 1594 163" stroke-miterlimit="10" stroke-dasharray=""/></g><g><path fill="#000000" stroke="none" paint-order="stroke fill markers" d=" M 1583.837325142376 167.209517756016 L 1594 163 L 1583.837325142376 158.790482243984"/></g><g><path fill="none" stroke="#000000" paint-order="fill stroke markers" d=" M 1583.837325142376 167.209517756016 L 1594 163 L 1583.837325142376 158.790482243984 L 1583.837325142376 167.209517756016" stroke-miterlimit="10" stroke-dasharray=""/></g><g><path fill="none" stroke="#000000" paint-order="fill stroke markers" d=" M 1428 223 L 1496 223 L 1496 223 A 8 8 0 0 0 1504 215 L 1504 194 L 1504 194 A 8 8 0 0 1 1512 186 L 1594 186" stroke-miterlimit="10" stroke-dasharray=""/></g><g><path fill="#000000" stroke="none" paint-order="stroke fill markers" d=" M 1583.837325142376 190.209517756016 L 1594 186 L 1583.837325142376 181.790482243984"/></g><g><path fill="none" stroke="#000000" paint-order="fill stroke markers" d=" M 1583.837325142376 190.209517756016 L 1594 186 L 1583.837325142376 181.790482243984 L 1583.837325142376 190.209517756016" stroke-miterlimit="10" stroke-dasharray=""/></g></g></svg>