<svg version="1.1" xmlns="http://www.w3.org/2000/svg" xmlns:xlink="http://www.w3.org/1999/xlink" width="757.484375" height="560"><defs/><g><g><rect fill="#ffffff" stroke="none" x="252" y="108" width="478.828125" height="36" transform="matrix(1 0 0 1 -224 -62)"/></g><g><path fill="#ffffff" stroke="none" paint-order="stroke fill markers" d=" M 506.828125 46 A 18 18 0 0 1 506.828125 82"/></g><g><path fill="none" stroke="#000000" paint-order="fill stroke markers" d=" M 28 46 L 28 82" stroke-miterlimit="10" stroke-dasharray=""/></g><g><path fill="none" stroke="#000000" paint-order="fill stroke markers" d=" M 28 46 L 506.828125 46" stroke-miterlimit="10" stroke-dasharray=""/></g><g><path fill="none" stroke="#000000" paint-order="fill stroke markers" d=" M 28 82 L 506.828125 82" stroke-miterlimit="10" stroke-dasharray=""/></g><g><path fill="none" stroke="#000000" paint-order="fill stroke markers" d=" M 506.828125 46 A 18 18 0 0 1 506.828125 82" stroke-miterlimit="10" stroke-dasharray=""/></g><g><g><path fill="none" stroke="none"/><text fill="#000000" stroke="none" font-family="Arial" font-size="16px" font-style="normal" font-weight="normal" text-decoration="undefined" x="448.310546875" y="126" text-anchor="middle" dominant-baseline="central" transform="matrix(1 0 0 1 -224 -62)">POST /communities/{comunityId}/join</text></g></g><g><path fill="#ffffff" stroke="#000000" paint-order="fill stroke markers" d=" M 604 44 L 627 10 L 724.484375 10 Q 747.484375 10 747.484375 44 Q 747.484375 78 724.484375 78 L 627 78 L 604 44 Z" stroke-miterlimit="10" stroke-dasharray=""/></g><g><g><path fill="none" stroke="none"/><text fill="#000000" stroke="none" font-family="Arial" font-size="16px" font-style="normal" font-weight="normal" text-decoration="undefined" x="899.7421875" y="90" text-anchor="middle" dominant-baseline="central" transform="matrix(1 0 0 1 -224 -62)">Заголовки</text><text fill="#000000" stroke="none" font-family="Arial" font-size="16px" font-style="normal" font-weight="normal" text-decoration="undefined" x="899.7421875" y="106" text-anchor="middle" dominant-baseline="central" transform="matrix(1 0 0 1 -224 -62)">запроса</text><text fill="#000000" stroke="none" font-family="Arial" font-size="16px" font-style="normal" font-weight="normal" text-decoration="undefined" x="899.7421875" y="122" text-anchor="middle" dominant-baseline="central" transform="matrix(1 0 0 1 -224 -62)">(Авторизирован)</text></g></g><g><path fill="#ffffff" stroke="none" paint-order="stroke fill markers" d=" M 115 136 L 460 136 L 391 172 L 46 172 L 115 136"/></g><g><path fill="none" stroke="#000000" paint-order="fill stroke markers" d=" M 115 136 L 460 136 L 391 172 L 46 172 L 115 136 L 115 136" stroke-miterlimit="10" stroke-dasharray=""/></g><g><g><path fill="none" stroke="none"/><text fill="#000000" stroke="none" font-family="Arial" font-size="16px" font-style="normal" font-weight="normal" text-decoration="undefined" x="477" y="216" text-anchor="middle" dominant-baseline="central" transform="matrix(1 0 0 1 -224 -62)">PostCommunitiesJoinRequest</text></g></g><g><rect fill="#ffffff" stroke="none" x="252" y="486" width="468" height="36" transform="matrix(1 0 0 1 -224 -62)"/></g><g><path fill="none" stroke="#000000" paint-order="fill stroke markers" d=" M 28 424 L 496 424 L 496 460 L 28 460 L 28 424 Z Z" stroke-miterlimit="10" stroke-dasharray=""/></g><g><g><path fill="none" stroke="none"/><text fill="#000000" stroke="none" font-family="Arial" font-size="16px" font-style="normal" font-weight="normal" text-decoration="undefined" x="486" y="504" text-anchor="middle" dominant-baseline="central" transform="matrix(1 0 0 1 -224 -62)">Добавить пользователя в сообщество</text></g></g><g><path fill="#ffffff" stroke="none" paint-order="stroke fill markers" d=" M 136 208 L 372.046875 208 Q 390.046875 208 390.046875 226 L 390.046875 226 Q 390.046875 244 372.046875 244 L 136 244 Q 118 244 118 226 L 118 226 Q 118 208 136 208 Z"/></g><g><path fill="none" stroke="#000000" paint-order="fill stroke markers" d=" M 136 208 L 372.046875 208 Q 390.046875 208 390.046875 226 L 390.046875 226 Q 390.046875 244 372.046875 244 L 136 244 Q 118 244 118 226 L 118 226 Q 118 208 136 208 Z" stroke-miterlimit="10" stroke-dasharray=""/></g><g><g><path fill="none" stroke="none"/><text fill="#000000" stroke="none" font-family="Arial" font-size="16px" font-style="normal" font-weight="normal" text-decoration="undefined" x="478.0234375" y="288" text-anchor="middle" dominant-baseline="central" transform="matrix(1 0 0 1 -224 -62)">Сообщество является публичным</text></g></g><g><path fill="#ffffff" stroke="none" paint-order="stroke fill markers" d=" M 88 514 L 478 514 L 400 550 L 10 550 L 88 514"/></g><g><path fill="none" stroke="#000000" paint-order="fill stroke markers" d=" M 88 514 L 478 514 L 400 550 L 10 550 L 88 514 L 88 514" stroke-miterlimit="10" stroke-dasharray=""/></g><g><g><path fill="none" stroke="none"/><text fill="#000000" stroke="none" font-family="Arial" font-size="16px" font-style="normal" font-weight="normal" text-decoration="undefined" x="468" y="594" text-anchor="middle" dominant-baseline="central" transform="matrix(1 0 0 1 -224 -62)">NoBodyResponse</text></g></g><g><path fill="none" stroke="#000000" paint-order="fill stroke markers" d=" M 271 82 L 271 136" stroke-miterlimit="10" stroke-dasharray=""/></g><g><path fill="#000000" stroke="none" paint-order="stroke fill markers" d=" M 266.790482243984 125.83732514237585 L 271 136 L 275.209517756016 125.83732514237585"/></g><g><path fill="none" stroke="#000000" paint-order="fill stroke markers" d=" M 266.790482243984 125.83732514237585 L 271 136 L 275.209517756016 125.83732514237585 L 266.790482243984 125.83732514237585" stroke-miterlimit="10" stroke-dasharray=""/></g><g><path fill="none" stroke="#000000" paint-order="fill stroke markers" d=" M 604 78 L 604 128 L 604 128 A 8 8 0 0 1 596 136 L 460 136" stroke-miterlimit="10" stroke-dasharray=""/></g><g><path fill="#000000" stroke="none" paint-order="stroke fill markers" d=" M 470.1626748576241 131.790482243984 L 460 136 L 470.1626748576241 140.209517756016"/></g><g><path fill="none" stroke="#000000" paint-order="fill stroke markers" d=" M 470.1626748576241 131.790482243984 L 460 136 L 470.1626748576241 140.209517756016 L 470.1626748576241 131.790482243984" stroke-miterlimit="10" stroke-dasharray=""/></g><g><path fill="none" stroke="#000000" paint-order="fill stroke markers" d=" M 253 172 L 253 208" stroke-miterlimit="10" stroke-dasharray=""/></g><g><path fill="#000000" stroke="none" paint-order="stroke fill markers" d=" M 248.790482243984 197.83732514237585 L 253 208 L 257.209517756016 197.83732514237585"/></g><g><path fill="none" stroke="#000000" paint-order="fill stroke markers" d=" M 248.790482243984 197.83732514237585 L 253 208 L 257.209517756016 197.83732514237585 L 248.790482243984 197.83732514237585" stroke-miterlimit="10" stroke-dasharray=""/></g><g><path fill="none" stroke="#000000" paint-order="fill stroke markers" d=" M 241 460 L 241 514" stroke-miterlimit="10" stroke-dasharray=""/></g><g><path fill="#000000" stroke="none" paint-order="stroke fill markers" d=" M 236.790482243984 503.8373251423759 L 241 514 L 245.209517756016 503.8373251423759"/></g><g><path fill="none" stroke="#000000" paint-order="fill stroke markers" d=" M 236.790482243984 503.8373251423759 L 241 514 L 245.209517756016 503.8373251423759 L 236.790482243984 503.8373251423759" stroke-miterlimit="10" stroke-dasharray=""/></g><g><path fill="#ffffff" stroke="none" paint-order="stroke fill markers" d=" M 64 280 L 429.3046875 280 Q 447.3046875 280 447.3046875 298 L 447.3046875 298 Q 447.3046875 316 429.3046875 316 L 64 316 Q 46 316 46 298 L 46 298 Q 46 280 64 280 Z"/></g><g><path fill="none" stroke="#000000" paint-order="fill stroke markers" d=" M 64 280 L 429.3046875 280 Q 447.3046875 280 447.3046875 298 L 447.3046875 298 Q 447.3046875 316 429.3046875 316 L 64 316 Q 46 316 46 298 L 46 298 Q 46 280 64 280 Z" stroke-miterlimit="10" stroke-dasharray=""/></g><g><g><path fill="none" stroke="none"/><text fill="#000000" stroke="none" font-family="Arial" font-size="16px" font-style="normal" font-weight="normal" text-decoration="undefined" x="470.65234375" y="360" text-anchor="middle" dominant-baseline="central" transform="matrix(1 0 0 1 -224 -62)">Пользователь не является участником сообщества</text></g></g><g><path fill="#ffffff" stroke="none" paint-order="stroke fill markers" d=" M 82 352 L 406.296875 352 Q 424.296875 352 424.296875 370 L 424.296875 370 Q 424.296875 388 406.296875 388 L 82 388 Q 64 388 64 370 L 64 370 Q 64 352 82 352 Z"/></g><g><path fill="none" stroke="#000000" paint-order="fill stroke markers" d=" M 82 352 L 406.296875 352 Q 424.296875 352 424.296875 370 L 424.296875 370 Q 424.296875 388 406.296875 388 L 82 388 Q 64 388 64 370 L 64 370 Q 64 352 82 352 Z" stroke-miterlimit="10" stroke-dasharray=""/></g><g><g><path fill="none" stroke="none"/><text fill="#000000" stroke="none" font-family="Arial" font-size="16px" font-style="normal" font-weight="normal" text-decoration="undefined" x="468.1484375" y="432" text-anchor="middle" dominant-baseline="central" transform="matrix(1 0 0 1 -224 -62)">Пользователь не заблокирован в сообществе</text></g></g><g><path fill="none" stroke="#000000" paint-order="fill stroke markers" d=" M 257 244 L 257 280" stroke-miterlimit="10" stroke-dasharray=""/></g><g><path fill="#000000" stroke="none" paint-order="stroke fill markers" d=" M 252.790482243984 269.83732514237585 L 257 280 L 261.209517756016 269.83732514237585"/></g><g><path fill="none" stroke="#000000" paint-order="fill stroke markers" d=" M 252.790482243984 269.83732514237585 L 257 280 L 261.209517756016 269.83732514237585 L 252.790482243984 269.83732514237585" stroke-miterlimit="10" stroke-dasharray=""/></g><g><path fill="none" stroke="#000000" paint-order="fill stroke markers" d=" M 265 316 L 265 352" stroke-miterlimit="10" stroke-dasharray=""/></g><g><path fill="#000000" stroke="none" paint-order="stroke fill markers" d=" M 260.790482243984 341.83732514237585 L 265 352 L 269.209517756016 341.83732514237585"/></g><g><path fill="none" stroke="#000000" paint-order="fill stroke markers" d=" M 260.790482243984 341.83732514237585 L 265 352 L 269.209517756016 341.83732514237585 L 260.790482243984 341.83732514237585" stroke-miterlimit="10" stroke-dasharray=""/></g><g><path fill="none" stroke="#000000" paint-order="fill stroke markers" d=" M 262 388 L 262 424" stroke-miterlimit="10" stroke-dasharray=""/></g><g><path fill="#000000" stroke="none" paint-order="stroke fill markers" d=" M 257.790482243984 413.83732514237585 L 262 424 L 266.209517756016 413.83732514237585"/></g><g><path fill="none" stroke="#000000" paint-order="fill stroke markers" d=" M 257.790482243984 413.83732514237585 L 262 424 L 266.209517756016 413.83732514237585 L 257.790482243984 413.83732514237585" stroke-miterlimit="10" stroke-dasharray=""/></g></g></svg>