<svg version="1.1" xmlns="http://www.w3.org/2000/svg" xmlns:xlink="http://www.w3.org/1999/xlink" width="428.0234375" height="736"><defs/><g><g><path fill="#C0C0C0" stroke="none" paint-order="stroke fill markers" d=" M 338.4296875 34 C 338.4296875 24.611158400000022 346.0408459 17 355.4296875 17 C 364.8185291 17 372.4296875 24.611158400000022 372.4296875 34 C 372.4296875 43.38884159999998 364.8185291 51 355.4296875 51 C 346.0408459 51 338.4296875 43.38884159999998 338.4296875 34 Z" fill-opacity="0.2"/></g><g><path fill="#C0C0C0" stroke="none" paint-order="stroke fill markers" d=" M 311 59 L 399.859375 59 Q 405.859375 59 405.859375 65 L 405.859375 145 Q 405.859375 151 399.859375 151 L 311 151 Q 305 151 305 145 L 305 65 Q 305 59 311 59 Z" fill-opacity="0.2"/></g><g><path fill="#38bcff" stroke="none" paint-order="stroke fill markers" d=" M 331.4296875 27 C 331.4296875 17.611158400000022 339.0408459 10 348.4296875 10 C 357.8185291 10 365.4296875 17.611158400000022 365.4296875 27 C 365.4296875 36.38884159999998 357.8185291 44 348.4296875 44 C 339.0408459 44 331.4296875 36.38884159999998 331.4296875 27 Z"/></g><g><path fill="none" stroke="#000000" paint-order="fill stroke markers" d=" M 331.4296875 27 C 331.4296875 17.611158400000022 339.0408459 10 348.4296875 10 C 357.8185291 10 365.4296875 17.611158400000022 365.4296875 27 C 365.4296875 36.38884159999998 357.8185291 44 348.4296875 44 C 339.0408459 44 331.4296875 36.38884159999998 331.4296875 27 Z" stroke-miterlimit="10" stroke-dasharray=""/></g><g><path fill="#38bcff" stroke="none" paint-order="stroke fill markers" d=" M 304 52 L 392.859375 52 Q 398.859375 52 398.859375 58 L 398.859375 138 Q 398.859375 144 392.859375 144 L 304 144 Q 298 144 298 138 L 298 58 Q 298 52 304 52 Z"/></g><g><path fill="none" stroke="#000000" paint-order="fill stroke markers" d=" M 304 52 L 392.859375 52 Q 398.859375 52 398.859375 58 L 398.859375 138 Q 398.859375 144 392.859375 144 L 304 144 Q 298 144 298 138 L 298 58 Q 298 52 304 52 Z" stroke-miterlimit="10" stroke-dasharray=""/></g><g><g><path fill="none" stroke="none"/><text fill="#000000" stroke="none" font-family="Arial" font-size="16px" font-style="normal" font-weight="bold" text-decoration="undefined" x="698.4296875" y="364" text-anchor="middle" dominant-baseline="central" transform="matrix(1 0 0 1 -350 -296)">Создатель</text><text fill="#000000" stroke="none" font-family="Arial" font-size="16px" font-style="normal" font-weight="bold" text-decoration="undefined" x="698.4296875" y="380" text-anchor="middle" dominant-baseline="central" transform="matrix(1 0 0 1 -350 -296)">шаблона</text><text fill="#000000" stroke="none" font-family="Arial" font-size="16px" font-style="normal" font-weight="bold" text-decoration="undefined" x="698.4296875" y="396" text-anchor="middle" dominant-baseline="central" transform="matrix(1 0 0 1 -350 -296)">КД</text></g></g><g><g><path fill="none" stroke="none"/><text fill="#000000" stroke="none" font-family="Arial" font-size="16px" font-style="normal" font-weight="normal" text-decoration="undefined" x="698.4296875" y="414" text-anchor="middle" dominant-baseline="central" transform="matrix(1 0 0 1 -350 -296)">[Person]</text></g></g><g><g><path fill="none" stroke="none"/></g></g><g><path fill="#C0C0C0" stroke="none" paint-order="stroke fill markers" d=" M 311 233 L 419.0234375 233 Q 425.0234375 233 425.0234375 239 L 425.0234375 353 Q 425.0234375 359 419.0234375 359 L 311 359 Q 305 359 305 353 L 305 239 Q 305 233 311 233 Z" fill-opacity="0.2"/></g><g><path fill="#a3e0ff" stroke="none" paint-order="stroke fill markers" d=" M 304 226 L 412.0234375 226 Q 418.0234375 226 418.0234375 232 L 418.0234375 346 Q 418.0234375 352 412.0234375 352 L 304 352 Q 298 352 298 346 L 298 232 Q 298 226 304 226 Z"/></g><g><path fill="none" stroke="#000000" paint-order="fill stroke markers" d=" M 304 226 L 412.0234375 226 Q 418.0234375 226 418.0234375 232 L 418.0234375 346 Q 418.0234375 352 412.0234375 352 L 304 352 Q 298 352 298 346 L 298 232 Q 298 226 304 226 Z" stroke-miterlimit="10" stroke-dasharray=""/></g><g><path fill="none" stroke="#000000" paint-order="fill stroke markers" d=" M 298 238 L 418.0234375 238" stroke-miterlimit="10" stroke-dasharray=""/></g><g><path fill="none" stroke="#000000" paint-order="fill stroke markers" d=" M 298 336 L 418.0234375 336" stroke-miterlimit="10" stroke-dasharray=""/></g><g><path fill="none" stroke="#000000" paint-order="fill stroke markers" d=" M 354 344 C 354 341.7908608 355.7908608 340 358 340 C 360.2091392 340 362 341.7908608 362 344 C 362 346.2091392 360.2091392 348 358 348 C 355.7908608 348 354 346.2091392 354 344 Z" stroke-miterlimit="10" stroke-dasharray=""/></g><g><g><path fill="none" stroke="none"/><text fill="#000000" stroke="none" font-family="Arial" font-size="16px" font-style="normal" font-weight="bold" text-decoration="undefined" x="708.01171875" y="546" text-anchor="middle" dominant-baseline="central" transform="matrix(1 0 0 1 -350 -296)">Мобильное</text><text fill="#000000" stroke="none" font-family="Arial" font-size="16px" font-style="normal" font-weight="bold" text-decoration="undefined" x="708.01171875" y="562" text-anchor="middle" dominant-baseline="central" transform="matrix(1 0 0 1 -350 -296)">приложение</text><text fill="#000000" stroke="none" font-family="Arial" font-size="16px" font-style="normal" font-weight="bold" text-decoration="undefined" x="708.01171875" y="578" text-anchor="middle" dominant-baseline="central" transform="matrix(1 0 0 1 -350 -296)">Taction</text></g></g><g><g><path fill="none" stroke="none"/><text fill="#000000" stroke="none" font-family="Arial" font-size="16px" font-style="normal" font-weight="normal" text-decoration="undefined" x="708.01171875" y="596" text-anchor="middle" dominant-baseline="central" transform="matrix(1 0 0 1 -350 -296)">[Container]</text></g></g><g><g><path fill="none" stroke="none"/></g></g><g><path fill="none" stroke="#000000" paint-order="fill stroke markers" d=" M 351 145 L 355 225" stroke-miterlimit="10" stroke-dasharray="3"/></g><g><path fill="#000000" stroke="none" paint-order="stroke fill markers" d=" M 350.28823453146583 215.06021800191127 L 355 225 L 358.6967659402035 214.63979143147435"/></g><g><path fill="none" stroke="#000000" paint-order="fill stroke markers" d=" M 350.28823453146583 215.06021800191127 L 355 225 L 358.6967659402035 214.63979143147435 L 350.28823453146583 215.06021800191127" stroke-miterlimit="10" stroke-dasharray=""/></g><g><path fill="#C0C0C0" stroke="none" paint-order="stroke fill markers" d=" M 311 449 L 419.0234375 449 Q 425.0234375 449 425.0234375 455 L 425.0234375 519 Q 425.0234375 525 419.0234375 525 L 311 525 Q 305 525 305 519 L 305 455 Q 305 449 311 449 Z" fill-opacity="0.2"/></g><g><path fill="#a3e0ff" stroke="none" paint-order="stroke fill markers" d=" M 304 442 L 412.0234375 442 Q 418.0234375 442 418.0234375 448 L 418.0234375 512 Q 418.0234375 518 412.0234375 518 L 304 518 Q 298 518 298 512 L 298 448 Q 298 442 304 442 Z"/></g><g><path fill="none" stroke="#000000" paint-order="fill stroke markers" d=" M 304 442 L 412.0234375 442 Q 418.0234375 442 418.0234375 448 L 418.0234375 512 Q 418.0234375 518 412.0234375 518 L 304 518 Q 298 518 298 512 L 298 448 Q 298 442 304 442 Z" stroke-miterlimit="10" stroke-dasharray=""/></g><g><g><path fill="none" stroke="none"/><text fill="#000000" stroke="none" font-family="Arial" font-size="16px" font-style="normal" font-weight="bold" text-decoration="undefined" x="708.01171875" y="754" text-anchor="middle" dominant-baseline="central" transform="matrix(1 0 0 1 -350 -296)">Api сервер</text></g></g><g><g><path fill="none" stroke="none"/><text fill="#000000" stroke="none" font-family="Arial" font-size="16px" font-style="normal" font-weight="normal" text-decoration="undefined" x="708.01171875" y="772" text-anchor="middle" dominant-baseline="central" transform="matrix(1 0 0 1 -350 -296)">[Container:</text><text fill="#000000" stroke="none" font-family="Arial" font-size="16px" font-style="normal" font-weight="normal" text-decoration="undefined" x="708.01171875" y="788" text-anchor="middle" dominant-baseline="central" transform="matrix(1 0 0 1 -350 -296)">ASP.NET]</text></g></g><g><g><path fill="none" stroke="none"/></g></g><g><path fill="none" stroke="#000000" paint-order="fill stroke markers" d=" M 358 353 L 358 441" stroke-miterlimit="10" stroke-dasharray="3"/></g><g><path fill="#000000" stroke="none" paint-order="stroke fill markers" d=" M 353.790482243984 430.8373251423759 L 358 441 L 362.209517756016 430.8373251423759"/></g><g><path fill="none" stroke="#000000" paint-order="fill stroke markers" d=" M 353.790482243984 430.8373251423759 L 358 441 L 362.209517756016 430.8373251423759 L 353.790482243984 430.8373251423759" stroke-miterlimit="10" stroke-dasharray=""/></g><g><path fill="#C0C0C0" stroke="none" paint-order="stroke fill markers" d=" M 305 626 C 305 617.715728 331.86815866250004 611 365.01171875 611 C 398.15527883749996 611 425.0234375 617.715728 425.0234375 626 L 425.0234375 718 C 425.0234375 726.284272 398.15527883749996 733 365.01171875 733 C 331.86815866250004 733 305 726.284272 305 718 L 305 626 Z" fill-opacity="0.2"/></g><g><path fill="#a3e0ff" stroke="#000000" paint-order="fill stroke markers" d=" M 298 619 C 298 610.715728 324.86815866250004 604 358.01171875 604 C 391.15527883749996 604 418.0234375 610.715728 418.0234375 619 L 418.0234375 711 C 418.0234375 719.284272 391.15527883749996 726 358.01171875 726 C 324.86815866250004 726 298 719.284272 298 711 L 298 619 Z" stroke-miterlimit="10" stroke-dasharray=""/></g><g><path fill="none" stroke="#000000" paint-order="fill stroke markers" d=" M 298 619 C 298 627.284272 324.86815866250004 634 358.01171875 634 C 391.15527883749996 634 418.0234375 627.284272 418.0234375 619" stroke-miterlimit="10" stroke-dasharray=""/></g><g><g><path fill="none" stroke="none"/><text fill="#000000" stroke="none" font-family="Arial" font-size="16px" font-style="normal" font-weight="bold" text-decoration="undefined" x="708.01171875" y="946" text-anchor="middle" dominant-baseline="central" transform="matrix(1 0 0 1 -350 -296)">База данных</text><text fill="#000000" stroke="none" font-family="Arial" font-size="16px" font-style="normal" font-weight="bold" text-decoration="undefined" x="708.01171875" y="962" text-anchor="middle" dominant-baseline="central" transform="matrix(1 0 0 1 -350 -296)">Main</text></g></g><g><g><path fill="none" stroke="none"/><text fill="#000000" stroke="none" font-family="Arial" font-size="16px" font-style="normal" font-weight="normal" text-decoration="undefined" x="708.01171875" y="980" text-anchor="middle" dominant-baseline="central" transform="matrix(1 0 0 1 -350 -296)">[Container:</text><text fill="#000000" stroke="none" font-family="Arial" font-size="16px" font-style="normal" font-weight="normal" text-decoration="undefined" x="708.01171875" y="996" text-anchor="middle" dominant-baseline="central" transform="matrix(1 0 0 1 -350 -296)">MsSQL]</text></g></g><g><g><path fill="none" stroke="none"/></g></g><g><path fill="none" stroke="#000000" paint-order="fill stroke markers" d=" M 358 519 L 358 603" stroke-miterlimit="10" stroke-dasharray="3"/></g><g><path fill="#000000" stroke="none" paint-order="stroke fill markers" d=" M 353.790482243984 592.8373251423759 L 358 603 L 362.209517756016 592.8373251423759"/></g><g><path fill="none" stroke="#000000" paint-order="fill stroke markers" d=" M 353.790482243984 592.8373251423759 L 358 603 L 362.209517756016 592.8373251423759 L 353.790482243984 592.8373251423759" stroke-miterlimit="10" stroke-dasharray=""/></g><g><path fill="#C0C0C0" stroke="none" paint-order="stroke fill markers" d=" M 23 629 L 131.0234375 629 Q 137.0234375 629 137.0234375 635 L 137.0234375 699 Q 137.0234375 705 131.0234375 705 L 23 705 Q 17 705 17 699 L 17 635 Q 17 629 23 629 Z" fill-opacity="0.2"/></g><g><path fill="#a3e0ff" stroke="none" paint-order="stroke fill markers" d=" M 16 622 L 124.0234375 622 Q 130.0234375 622 130.0234375 628 L 130.0234375 692 Q 130.0234375 698 124.0234375 698 L 16 698 Q 10 698 10 692 L 10 628 Q 10 622 16 622 Z"/></g><g><path fill="none" stroke="#000000" paint-order="fill stroke markers" d=" M 16 622 L 124.0234375 622 Q 130.0234375 622 130.0234375 628 L 130.0234375 692 Q 130.0234375 698 124.0234375 698 L 16 698 Q 10 698 10 692 L 10 628 Q 10 622 16 622 Z" stroke-miterlimit="10" stroke-dasharray=""/></g><g><g><path fill="none" stroke="none"/><text fill="#000000" stroke="none" font-family="Arial" font-size="16px" font-style="normal" font-weight="bold" text-decoration="undefined" x="420.01171875" y="934" text-anchor="middle" dominant-baseline="central" transform="matrix(1 0 0 1 -350 -296)">Blob</text></g></g><g><g><path fill="none" stroke="none"/><text fill="#000000" stroke="none" font-family="Arial" font-size="16px" font-style="normal" font-weight="normal" text-decoration="undefined" x="420.01171875" y="952" text-anchor="middle" dominant-baseline="central" transform="matrix(1 0 0 1 -350 -296)">[Container:</text><text fill="#000000" stroke="none" font-family="Arial" font-size="16px" font-style="normal" font-weight="normal" text-decoration="undefined" x="420.01171875" y="968" text-anchor="middle" dominant-baseline="central" transform="matrix(1 0 0 1 -350 -296)">Azure.Blob]</text></g></g><g><g><path fill="none" stroke="none"/></g></g><g><path fill="none" stroke="#000000" paint-order="fill stroke markers" d=" M 297 518 L 131 622" stroke-miterlimit="10" stroke-dasharray="3"/></g><g><path fill="#000000" stroke="none" paint-order="stroke fill markers" d=" M 137.37719485922088 613.037222209185 L 131 622 L 141.84699868405653 620.1717167757496"/></g><g><path fill="none" stroke="#000000" paint-order="fill stroke markers" d=" M 137.37719485922088 613.037222209185 L 131 622 L 141.84699868405653 620.1717167757496 L 137.37719485922088 613.037222209185" stroke-miterlimit="10" stroke-dasharray=""/></g><g><path fill="none" stroke="#000000" paint-order="fill stroke markers" d=" M 308 353 L 100 621" stroke-miterlimit="10" stroke-dasharray="3"/></g><g><path fill="#000000" stroke="none" paint-order="stroke fill markers" d=" M 102.9055168316545 610.390665810666 L 100 621 L 109.55644280366693 615.5525785053621"/></g><g><path fill="none" stroke="#000000" paint-order="fill stroke markers" d=" M 102.9055168316545 610.390665810666 L 100 621 L 109.55644280366693 615.5525785053621 L 102.9055168316545 610.390665810666" stroke-miterlimit="10" stroke-dasharray=""/></g></g></svg>