<svg version="1.1" xmlns="http://www.w3.org/2000/svg" xmlns:xlink="http://www.w3.org/1999/xlink" width="637.3359375" height="416"><defs/><g><g><rect fill="#ffffff" stroke="none" x="252" y="72" width="381.0859375" height="52" transform="matrix(1 0 0 1 -224 -62)"/></g><g><path fill="#ffffff" stroke="none" paint-order="stroke fill markers" d=" M 409.0859375 10 A 26 26 0 0 1 409.0859375 62"/></g><g><path fill="none" stroke="#000000" paint-order="fill stroke markers" d=" M 28 10 L 28 62" stroke-miterlimit="10" stroke-dasharray=""/></g><g><path fill="none" stroke="#000000" paint-order="fill stroke markers" d=" M 28 10 L 409.0859375 10" stroke-miterlimit="10" stroke-dasharray=""/></g><g><path fill="none" stroke="#000000" paint-order="fill stroke markers" d=" M 28 62 L 409.0859375 62" stroke-miterlimit="10" stroke-dasharray=""/></g><g><path fill="none" stroke="#000000" paint-order="fill stroke markers" d=" M 409.0859375 10 A 26 26 0 0 1 409.0859375 62" stroke-miterlimit="10" stroke-dasharray=""/></g><g><g><path fill="none" stroke="none"/><text fill="#000000" stroke="none" font-family="Arial" font-size="16px" font-style="normal" font-weight="normal" text-decoration="undefined" x="414.6572265625" y="90" text-anchor="middle" dominant-baseline="central" transform="matrix(1 0 0 1 -224 -62)">POST</text><text fill="#000000" stroke="none" font-family="Arial" font-size="16px" font-style="normal" font-weight="normal" text-decoration="undefined" x="414.6572265625" y="106" text-anchor="middle" dominant-baseline="central" transform="matrix(1 0 0 1 -224 -62)">/moderations/accounts/{accountId}/unblock</text></g></g><g><path fill="#ffffff" stroke="#000000" paint-order="fill stroke markers" d=" M 514 44 L 532 10 L 609.3359375 10 Q 627.3359375 10 627.3359375 44 Q 627.3359375 78 609.3359375 78 L 532 78 L 514 44 Z" stroke-miterlimit="10" stroke-dasharray=""/></g><g><g><path fill="none" stroke="none"/><text fill="#000000" stroke="none" font-family="Arial" font-size="16px" font-style="normal" font-weight="normal" text-decoration="undefined" x="794.66796875" y="90" text-anchor="middle" dominant-baseline="central" transform="matrix(1 0 0 1 -224 -62)">Заголовки</text><text fill="#000000" stroke="none" font-family="Arial" font-size="16px" font-style="normal" font-weight="normal" text-decoration="undefined" x="794.66796875" y="106" text-anchor="middle" dominant-baseline="central" transform="matrix(1 0 0 1 -224 -62)">запроса</text><text fill="#000000" stroke="none" font-family="Arial" font-size="16px" font-style="normal" font-weight="normal" text-decoration="undefined" x="794.66796875" y="122" text-anchor="middle" dominant-baseline="central" transform="matrix(1 0 0 1 -224 -62)">(Модератор)</text></g></g><g><path fill="#ffffff" stroke="none" paint-order="stroke fill markers" d=" M 28 172 L 391.4296875 172 Q 409.4296875 172 409.4296875 190 L 409.4296875 190 Q 409.4296875 208 391.4296875 208 L 28 208 Q 10 208 10 190 L 10 190 Q 10 172 28 172 Z"/></g><g><path fill="none" stroke="#000000" paint-order="fill stroke markers" d=" M 28 172 L 391.4296875 172 Q 409.4296875 172 409.4296875 190 L 409.4296875 190 Q 409.4296875 208 391.4296875 208 L 28 208 Q 10 208 10 190 L 10 190 Q 10 172 28 172 Z" stroke-miterlimit="10" stroke-dasharray=""/></g><g><g><path fill="none" stroke="none"/><text fill="#000000" stroke="none" font-family="Arial" font-size="16px" font-style="normal" font-weight="normal" text-decoration="undefined" x="433.71484375" y="252" text-anchor="middle" dominant-baseline="central" transform="matrix(1 0 0 1 -224 -62)">Пользователь является модератором приложения </text></g></g><g><path fill="#ffffff" stroke="none" paint-order="stroke fill markers" d=" M 115 100 L 370 100 L 319 136 L 64 136 L 115 100"/></g><g><path fill="none" stroke="#000000" paint-order="fill stroke markers" d=" M 115 100 L 370 100 L 319 136 L 64 136 L 115 100 L 115 100" stroke-miterlimit="10" stroke-dasharray=""/></g><g><g><path fill="none" stroke="none"/><text fill="#000000" stroke="none" font-family="Arial" font-size="16px" font-style="normal" font-weight="normal" text-decoration="undefined" x="441" y="180" text-anchor="middle" dominant-baseline="central" transform="matrix(1 0 0 1 -224 -62)">PostModerationAccountRequest</text></g></g><g><path fill="#ffffff" stroke="none" paint-order="stroke fill markers" d=" M 28 226 L 388 226 Q 406 226 406 244 L 406 244 Q 406 262 388 262 L 28 262 Q 10 262 10 244 L 10 244 Q 10 226 28 226 Z"/></g><g><path fill="none" stroke="#000000" paint-order="fill stroke markers" d=" M 28 226 L 388 226 Q 406 226 406 244 L 406 244 Q 406 262 388 262 L 28 262 Q 10 262 10 244 L 10 244 Q 10 226 28 226 Z" stroke-miterlimit="10" stroke-dasharray=""/></g><g><g><path fill="none" stroke="none"/><text fill="#000000" stroke="none" font-family="Arial" font-size="16px" font-style="normal" font-weight="normal" text-decoration="undefined" x="432" y="306" text-anchor="middle" dominant-baseline="central" transform="matrix(1 0 0 1 -224 -62)">Пользователь не заблокирован</text></g></g><g><rect fill="#ffffff" stroke="none" x="252" y="360" width="360" height="36" transform="matrix(1 0 0 1 -224 -62)"/></g><g><path fill="none" stroke="#000000" paint-order="fill stroke markers" d=" M 28 298 L 388 298 L 388 334 L 28 334 L 28 298 Z Z" stroke-miterlimit="10" stroke-dasharray=""/></g><g><g><path fill="none" stroke="none"/><text fill="#000000" stroke="none" font-family="Arial" font-size="16px" font-style="normal" font-weight="normal" text-decoration="undefined" x="432" y="378" text-anchor="middle" dominant-baseline="central" transform="matrix(1 0 0 1 -224 -62)">Разблокировать пользователя</text></g></g><g><path fill="#ffffff" stroke="none" paint-order="stroke fill markers" d=" M 85 370 L 370 370 L 313 406 L 28 406 L 85 370"/></g><g><path fill="none" stroke="#000000" paint-order="fill stroke markers" d=" M 85 370 L 370 370 L 313 406 L 28 406 L 85 370 L 85 370" stroke-miterlimit="10" stroke-dasharray=""/></g><g><g><path fill="none" stroke="none"/><text fill="#000000" stroke="none" font-family="Arial" font-size="16px" font-style="normal" font-weight="normal" text-decoration="undefined" x="423" y="450" text-anchor="middle" dominant-baseline="central" transform="matrix(1 0 0 1 -224 -62)">NoBodyResponse</text></g></g><g><path fill="none" stroke="#000000" paint-order="fill stroke markers" d=" M 227 62 L 227 100" stroke-miterlimit="10" stroke-dasharray=""/></g><g><path fill="#000000" stroke="none" paint-order="stroke fill markers" d=" M 222.790482243984 89.83732514237585 L 227 100 L 231.209517756016 89.83732514237585"/></g><g><path fill="none" stroke="#000000" paint-order="fill stroke markers" d=" M 222.790482243984 89.83732514237585 L 227 100 L 231.209517756016 89.83732514237585 L 222.790482243984 89.83732514237585" stroke-miterlimit="10" stroke-dasharray=""/></g><g><path fill="none" stroke="#000000" paint-order="fill stroke markers" d=" M 514 78 L 514 92 L 514 92 A 8 8 0 0 1 506 100 L 370 100" stroke-miterlimit="10" stroke-dasharray=""/></g><g><path fill="#000000" stroke="none" paint-order="stroke fill markers" d=" M 380.1626748576241 95.790482243984 L 370 100 L 380.1626748576241 104.209517756016"/></g><g><path fill="none" stroke="#000000" paint-order="fill stroke markers" d=" M 380.1626748576241 95.790482243984 L 370 100 L 380.1626748576241 104.209517756016 L 380.1626748576241 95.790482243984" stroke-miterlimit="10" stroke-dasharray=""/></g><g><path fill="none" stroke="#000000" paint-order="fill stroke markers" d=" M 215 136 L 215 172" stroke-miterlimit="10" stroke-dasharray=""/></g><g><path fill="#000000" stroke="none" paint-order="stroke fill markers" d=" M 210.790482243984 161.83732514237585 L 215 172 L 219.209517756016 161.83732514237585"/></g><g><path fill="none" stroke="#000000" paint-order="fill stroke markers" d=" M 210.790482243984 161.83732514237585 L 215 172 L 219.209517756016 161.83732514237585 L 210.790482243984 161.83732514237585" stroke-miterlimit="10" stroke-dasharray=""/></g><g><path fill="none" stroke="#000000" paint-order="fill stroke markers" d=" M 209 208 L 209 226" stroke-miterlimit="10" stroke-dasharray=""/></g><g><path fill="#000000" stroke="none" paint-order="stroke fill markers" d=" M 204.790482243984 215.83732514237585 L 209 226 L 213.209517756016 215.83732514237585"/></g><g><path fill="none" stroke="#000000" paint-order="fill stroke markers" d=" M 204.790482243984 215.83732514237585 L 209 226 L 213.209517756016 215.83732514237585 L 204.790482243984 215.83732514237585" stroke-miterlimit="10" stroke-dasharray=""/></g><g><path fill="none" stroke="#000000" paint-order="fill stroke markers" d=" M 208 262 L 208 298" stroke-miterlimit="10" stroke-dasharray=""/></g><g><path fill="#000000" stroke="none" paint-order="stroke fill markers" d=" M 203.790482243984 287.83732514237585 L 208 298 L 212.209517756016 287.83732514237585"/></g><g><path fill="none" stroke="#000000" paint-order="fill stroke markers" d=" M 203.790482243984 287.83732514237585 L 208 298 L 212.209517756016 287.83732514237585 L 203.790482243984 287.83732514237585" stroke-miterlimit="10" stroke-dasharray=""/></g><g><path fill="none" stroke="#000000" paint-order="fill stroke markers" d=" M 206 334 L 206 370" stroke-miterlimit="10" stroke-dasharray=""/></g><g><path fill="#000000" stroke="none" paint-order="stroke fill markers" d=" M 201.790482243984 359.83732514237585 L 206 370 L 210.209517756016 359.83732514237585"/></g><g><path fill="none" stroke="#000000" paint-order="fill stroke markers" d=" M 201.790482243984 359.83732514237585 L 206 370 L 210.209517756016 359.83732514237585 L 201.790482243984 359.83732514237585" stroke-miterlimit="10" stroke-dasharray=""/></g></g></svg>