<svg version="1.1" xmlns="http://www.w3.org/2000/svg" xmlns:xlink="http://www.w3.org/1999/xlink" width="1352" height="1910"><defs/><g><g><rect fill="#ffffff" stroke="none" x="342" y="54" width="378" height="36" transform="matrix(1 0 0 1 -134 -26)"/></g><g><path fill="#ffffff" stroke="none" paint-order="stroke fill markers" d=" M 586 28 A 18 18 0 0 1 586 64"/></g><g><path fill="none" stroke="#000000" paint-order="fill stroke markers" d=" M 208 28 L 208 64" stroke-miterlimit="10" stroke-dasharray=""/></g><g><path fill="none" stroke="#000000" paint-order="fill stroke markers" d=" M 208 28 L 586 28" stroke-miterlimit="10" stroke-dasharray=""/></g><g><path fill="none" stroke="#000000" paint-order="fill stroke markers" d=" M 208 64 L 586 64" stroke-miterlimit="10" stroke-dasharray=""/></g><g><path fill="none" stroke="#000000" paint-order="fill stroke markers" d=" M 586 28 A 18 18 0 0 1 586 64" stroke-miterlimit="10" stroke-dasharray=""/></g><g><g><path fill="none" stroke="none"/><text fill="#000000" stroke="none" font-family="Arial" font-size="16px" font-style="normal" font-weight="normal" text-decoration="undefined" x="500.5" y="72" text-anchor="middle" dominant-baseline="central" transform="matrix(1 0 0 1 -134 -26)">GET /challenges/{challengeId}/reports</text></g></g><g><path fill="#ffffff" stroke="#000000" paint-order="fill stroke markers" d=" M 658 44 L 681 10 L 778.484375 10 Q 801.484375 10 801.484375 44 Q 801.484375 78 778.484375 78 L 681 78 L 658 44 Z" stroke-miterlimit="10" stroke-dasharray=""/></g><g><g><path fill="none" stroke="none"/><text fill="#000000" stroke="none" font-family="Arial" font-size="16px" font-style="normal" font-weight="normal" text-decoration="undefined" x="863.7421875" y="54" text-anchor="middle" dominant-baseline="central" transform="matrix(1 0 0 1 -134 -26)">Заголовки</text><text fill="#000000" stroke="none" font-family="Arial" font-size="16px" font-style="normal" font-weight="normal" text-decoration="undefined" x="863.7421875" y="70" text-anchor="middle" dominant-baseline="central" transform="matrix(1 0 0 1 -134 -26)">запроса</text><text fill="#000000" stroke="none" font-family="Arial" font-size="16px" font-style="normal" font-weight="normal" text-decoration="undefined" x="863.7421875" y="86" text-anchor="middle" dominant-baseline="central" transform="matrix(1 0 0 1 -134 -26)">(Авторизирован)</text></g></g><g><path fill="#ffffff" stroke="none" paint-order="stroke fill markers" d=" M 244 118 L 604 118 L 532 154 L 172 154 L 244 118"/></g><g><path fill="none" stroke="#000000" paint-order="fill stroke markers" d=" M 244 118 L 604 118 L 532 154 L 172 154 L 244 118 L 244 118" stroke-miterlimit="10" stroke-dasharray=""/></g><g><g><path fill="none" stroke="none"/><text fill="#000000" stroke="none" font-family="Arial" font-size="16px" font-style="normal" font-weight="normal" text-decoration="undefined" x="522" y="162" text-anchor="middle" dominant-baseline="central" transform="matrix(1 0 0 1 -134 -26)">GetChallangesReportsRequest</text></g></g><g><path fill="#ffffff" stroke="none" paint-order="stroke fill markers" d=" M 190 208 L 586 208 Q 604 208 604 226 L 604 226 Q 604 244 586 244 L 190 244 Q 172 244 172 226 L 172 226 Q 172 208 190 208 Z"/></g><g><path fill="none" stroke="#000000" paint-order="fill stroke markers" d=" M 190 208 L 586 208 Q 604 208 604 226 L 604 226 Q 604 244 586 244 L 190 244 Q 172 244 172 226 L 172 226 Q 172 208 190 208 Z" stroke-miterlimit="10" stroke-dasharray=""/></g><g><g><path fill="none" stroke="none"/><text fill="#000000" stroke="none" font-family="Arial" font-size="16px" font-style="normal" font-weight="normal" text-decoration="undefined" x="522" y="252" text-anchor="middle" dominant-baseline="central" transform="matrix(1 0 0 1 -134 -26)">Аккаунт является участником челленджа</text></g></g><g><rect fill="#ffffff" stroke="none" x="288" y="324" width="486" height="36" transform="matrix(1 0 0 1 -134 -26)"/></g><g><path fill="none" stroke="#000000" paint-order="fill stroke markers" d=" M 154 298 L 640 298 L 640 334 L 154 334 L 154 298 Z Z" stroke-miterlimit="10" stroke-dasharray=""/></g><g><g><path fill="none" stroke="none"/><text fill="#000000" stroke="none" font-family="Arial" font-size="16px" font-style="normal" font-weight="normal" text-decoration="undefined" x="531" y="342" text-anchor="middle" dominant-baseline="central" transform="matrix(1 0 0 1 -134 -26)">Извлекаем отчёты из базы данных</text></g></g><g><rect fill="#ffffff" stroke="none" x="306" y="1728" width="414" height="36" transform="matrix(1 0 0 1 -134 -26)"/></g><g><path fill="none" stroke="#000000" paint-order="fill stroke markers" d=" M 172 1702 L 586 1702 L 586 1738 L 172 1738 L 172 1702 Z Z" stroke-miterlimit="10" stroke-dasharray=""/></g><g><g><path fill="none" stroke="none"/><text fill="#000000" stroke="none" font-family="Arial" font-size="16px" font-style="normal" font-weight="normal" text-decoration="undefined" x="513" y="1746" text-anchor="middle" dominant-baseline="central" transform="matrix(1 0 0 1 -134 -26)">Формируем ответ клиенту</text></g></g><g><rect fill="#ffffff" stroke="none" x="324" y="432" width="396" height="36" transform="matrix(1 0 0 1 -134 -26)"/></g><g><path fill="none" stroke="#000000" paint-order="fill stroke markers" d=" M 190 406 L 586 406 L 586 442 L 190 442 L 190 406 Z Z" stroke-miterlimit="10" stroke-dasharray=""/></g><g><g><path fill="none" stroke="none"/><text fill="#000000" stroke="none" font-family="Arial" font-size="16px" font-style="normal" font-weight="normal" text-decoration="undefined" x="522" y="450" text-anchor="middle" dominant-baseline="central" transform="matrix(1 0 0 1 -134 -26)">Извлекаем медиа отчёта</text></g></g><g><path fill="#ffffff" stroke="none" paint-order="stroke fill markers" d=" M 298 562 L 388 514 L 478 562 L 388 610 L 298 562"/></g><g><path fill="none" stroke="#000000" paint-order="fill stroke markers" d=" M 298 562 L 388 514 L 478 562 L 388 610 L 298 562 L 298 562" stroke-miterlimit="10" stroke-dasharray=""/></g><g><g><path fill="none" stroke="none"/><text fill="#000000" stroke="none" font-family="Arial" font-size="16px" font-style="normal" font-weight="normal" text-decoration="undefined" x="522" y="572" text-anchor="middle" dominant-baseline="central" transform="matrix(1 0 0 1 -134 -26)">Тип медиа</text><text fill="#000000" stroke="none" font-family="Arial" font-size="16px" font-style="normal" font-weight="normal" text-decoration="undefined" x="522" y="588" text-anchor="middle" dominant-baseline="central" transform="matrix(1 0 0 1 -134 -26)">является</text><text fill="#000000" stroke="none" font-family="Arial" font-size="16px" font-style="normal" font-weight="normal" text-decoration="undefined" x="522" y="604" text-anchor="middle" dominant-baseline="central" transform="matrix(1 0 0 1 -134 -26)">Видео</text></g></g><g><rect fill="#ffffff" stroke="none" x="648" y="612" width="324" height="52" transform="matrix(1 0 0 1 -134 -26)"/></g><g><path fill="none" stroke="#000000" paint-order="fill stroke markers" d=" M 514 586 L 838 586 L 838 638 L 514 638 L 514 586 Z Z" stroke-miterlimit="10" stroke-dasharray=""/></g><g><g><path fill="none" stroke="none"/><text fill="#000000" stroke="none" font-family="Arial" font-size="16px" font-style="normal" font-weight="normal" text-decoration="undefined" x="810" y="630" text-anchor="middle" dominant-baseline="central" transform="matrix(1 0 0 1 -134 -26)">Извликаем ссылку на стриминг видео из</text><text fill="#000000" stroke="none" font-family="Arial" font-size="16px" font-style="normal" font-weight="normal" text-decoration="undefined" x="810" y="646" text-anchor="middle" dominant-baseline="central" transform="matrix(1 0 0 1 -134 -26)">базы</text></g></g><g><path fill="#ffffff" stroke="none" paint-order="stroke fill markers" d=" M 514 708 L 676 676 L 838 708 L 676 740 L 514 708"/></g><g><path fill="none" stroke="#000000" paint-order="fill stroke markers" d=" M 514 708 L 676 676 L 838 708 L 676 740 L 514 708 L 514 708" stroke-miterlimit="10" stroke-dasharray=""/></g><g><g><path fill="none" stroke="none"/><text fill="#000000" stroke="none" font-family="Arial" font-size="16px" font-style="normal" font-weight="normal" text-decoration="undefined" x="810" y="726" text-anchor="middle" dominant-baseline="central" transform="matrix(1 0 0 1 -134 -26)">Ссылка есть и она</text><text fill="#000000" stroke="none" font-family="Arial" font-size="16px" font-style="normal" font-weight="normal" text-decoration="undefined" x="810" y="742" text-anchor="middle" dominant-baseline="central" transform="matrix(1 0 0 1 -134 -26)">младше 24 часов</text></g></g><g><rect fill="#ffffff" stroke="none" x="810" y="846" width="288" height="52" transform="matrix(1 0 0 1 -134 -26)"/></g><g><path fill="none" stroke="#000000" paint-order="fill stroke markers" d=" M 676 820 L 964 820 L 964 872 L 676 872 L 676 820 Z Z" stroke-miterlimit="10" stroke-dasharray=""/></g><g><g><path fill="none" stroke="none"/><text fill="#000000" stroke="none" font-family="Arial" font-size="16px" font-style="normal" font-weight="normal" text-decoration="undefined" x="954" y="864" text-anchor="middle" dominant-baseline="central" transform="matrix(1 0 0 1 -134 -26)">Генерируем новую ссылку для</text><text fill="#000000" stroke="none" font-family="Arial" font-size="16px" font-style="normal" font-weight="normal" text-decoration="undefined" x="954" y="880" text-anchor="middle" dominant-baseline="central" transform="matrix(1 0 0 1 -134 -26)">потоковой загрузки видео</text></g></g><g><path fill="#ffffff" stroke="none" paint-order="stroke fill markers" d=" M 280 1048 L 388 1000 L 496 1048 L 388 1096 L 280 1048"/></g><g><path fill="none" stroke="#000000" paint-order="fill stroke markers" d=" M 280 1048 L 388 1000 L 496 1048 L 388 1096 L 280 1048 L 280 1048" stroke-miterlimit="10" stroke-dasharray=""/></g><g><g><path fill="none" stroke="none"/><text fill="#000000" stroke="none" font-family="Arial" font-size="16px" font-style="normal" font-weight="normal" text-decoration="undefined" x="522" y="1058" text-anchor="middle" dominant-baseline="central" transform="matrix(1 0 0 1 -134 -26)">Тип медиа</text><text fill="#000000" stroke="none" font-family="Arial" font-size="16px" font-style="normal" font-weight="normal" text-decoration="undefined" x="522" y="1074" text-anchor="middle" dominant-baseline="central" transform="matrix(1 0 0 1 -134 -26)">является</text><text fill="#000000" stroke="none" font-family="Arial" font-size="16px" font-style="normal" font-weight="normal" text-decoration="undefined" x="522" y="1090" text-anchor="middle" dominant-baseline="central" transform="matrix(1 0 0 1 -134 -26)">Аудио</text></g></g><g><rect fill="#ffffff" stroke="none" x="684" y="1116" width="252" height="52" transform="matrix(1 0 0 1 -134 -26)"/></g><g><path fill="none" stroke="#000000" paint-order="fill stroke markers" d=" M 550 1090 L 802 1090 L 802 1142 L 550 1142 L 550 1090 Z Z" stroke-miterlimit="10" stroke-dasharray=""/></g><g><g><path fill="none" stroke="none"/><text fill="#000000" stroke="none" font-family="Arial" font-size="16px" font-style="normal" font-weight="normal" text-decoration="undefined" x="810" y="1134" text-anchor="middle" dominant-baseline="central" transform="matrix(1 0 0 1 -134 -26)">Извлекаем ссылку на</text><text fill="#000000" stroke="none" font-family="Arial" font-size="16px" font-style="normal" font-weight="normal" text-decoration="undefined" x="810" y="1150" text-anchor="middle" dominant-baseline="central" transform="matrix(1 0 0 1 -134 -26)">стриминг аудио из базы</text></g></g><g><path fill="#ffffff" stroke="none" paint-order="stroke fill markers" d=" M 550 1228 L 685 1180 L 820 1228 L 685 1276 L 550 1228"/></g><g><path fill="none" stroke="#000000" paint-order="fill stroke markers" d=" M 550 1228 L 685 1180 L 820 1228 L 685 1276 L 550 1228 L 550 1228" stroke-miterlimit="10" stroke-dasharray=""/></g><g><g><path fill="none" stroke="none"/><text fill="#000000" stroke="none" font-family="Arial" font-size="16px" font-style="normal" font-weight="normal" text-decoration="undefined" x="819" y="1238" text-anchor="middle" dominant-baseline="central" transform="matrix(1 0 0 1 -134 -26)">Ссылка есть и</text><text fill="#000000" stroke="none" font-family="Arial" font-size="16px" font-style="normal" font-weight="normal" text-decoration="undefined" x="819" y="1254" text-anchor="middle" dominant-baseline="central" transform="matrix(1 0 0 1 -134 -26)">она младше 24</text><text fill="#000000" stroke="none" font-family="Arial" font-size="16px" font-style="normal" font-weight="normal" text-decoration="undefined" x="819" y="1270" text-anchor="middle" dominant-baseline="central" transform="matrix(1 0 0 1 -134 -26)">часов</text></g></g><g><rect fill="#ffffff" stroke="none" x="702" y="1350" width="288" height="52" transform="matrix(1 0 0 1 -134 -26)"/></g><g><path fill="none" stroke="#000000" paint-order="fill stroke markers" d=" M 568 1324 L 856 1324 L 856 1376 L 568 1376 L 568 1324 Z Z" stroke-miterlimit="10" stroke-dasharray=""/></g><g><g><path fill="none" stroke="none"/><text fill="#000000" stroke="none" font-family="Arial" font-size="16px" font-style="normal" font-weight="normal" text-decoration="undefined" x="846" y="1368" text-anchor="middle" dominant-baseline="central" transform="matrix(1 0 0 1 -134 -26)">Генерируем новую ссылку для</text><text fill="#000000" stroke="none" font-family="Arial" font-size="16px" font-style="normal" font-weight="normal" text-decoration="undefined" x="846" y="1384" text-anchor="middle" dominant-baseline="central" transform="matrix(1 0 0 1 -134 -26)">потоковой загрузки аудио</text></g></g><g><path fill="#ffffff" stroke="none" paint-order="stroke fill markers" d=" M 262 1444 L 370 1396 L 478 1444 L 370 1492 L 262 1444"/></g><g><path fill="none" stroke="#000000" paint-order="fill stroke markers" d=" M 262 1444 L 370 1396 L 478 1444 L 370 1492 L 262 1444 L 262 1444" stroke-miterlimit="10" stroke-dasharray=""/></g><g><g><path fill="none" stroke="none"/><text fill="#000000" stroke="none" font-family="Arial" font-size="16px" font-style="normal" font-weight="normal" text-decoration="undefined" x="504" y="1454" text-anchor="middle" dominant-baseline="central" transform="matrix(1 0 0 1 -134 -26)">Все медиа</text><text fill="#000000" stroke="none" font-family="Arial" font-size="16px" font-style="normal" font-weight="normal" text-decoration="undefined" x="504" y="1470" text-anchor="middle" dominant-baseline="central" transform="matrix(1 0 0 1 -134 -26)">файлы</text><text fill="#000000" stroke="none" font-family="Arial" font-size="16px" font-style="normal" font-weight="normal" text-decoration="undefined" x="504" y="1486" text-anchor="middle" dominant-baseline="central" transform="matrix(1 0 0 1 -134 -26)">обработаны</text></g></g><g><path fill="#ffffff" stroke="none" paint-order="stroke fill markers" d=" M 244 1626 L 379 1594 L 514 1626 L 379 1658 L 244 1626"/></g><g><path fill="none" stroke="#000000" paint-order="fill stroke markers" d=" M 244 1626 L 379 1594 L 514 1626 L 379 1658 L 244 1626 L 244 1626" stroke-miterlimit="10" stroke-dasharray=""/></g><g><g><path fill="none" stroke="none"/><text fill="#000000" stroke="none" font-family="Arial" font-size="16px" font-style="normal" font-weight="normal" text-decoration="undefined" x="513" y="1644" text-anchor="middle" dominant-baseline="central" transform="matrix(1 0 0 1 -134 -26)">Все отчёты</text><text fill="#000000" stroke="none" font-family="Arial" font-size="16px" font-style="normal" font-weight="normal" text-decoration="undefined" x="513" y="1660" text-anchor="middle" dominant-baseline="central" transform="matrix(1 0 0 1 -134 -26)">обработаны </text></g></g><g><path fill="none" stroke="#000000" paint-order="fill stroke markers" d=" M 402 64 L 402 118" stroke-miterlimit="10" stroke-dasharray=""/></g><g><path fill="#000000" stroke="none" paint-order="stroke fill markers" d=" M 397.790482243984 107.83732514237585 L 402 118 L 406.209517756016 107.83732514237585"/></g><g><path fill="none" stroke="#000000" paint-order="fill stroke markers" d=" M 397.790482243984 107.83732514237585 L 402 118 L 406.209517756016 107.83732514237585 L 397.790482243984 107.83732514237585" stroke-miterlimit="10" stroke-dasharray=""/></g><g><path fill="none" stroke="#000000" paint-order="fill stroke markers" d=" M 658 78 L 658 110 L 658 110 A 8 8 0 0 1 650 118 L 604 118" stroke-miterlimit="10" stroke-dasharray=""/></g><g><path fill="#000000" stroke="none" paint-order="stroke fill markers" d=" M 614.1626748576241 113.790482243984 L 604 118 L 614.1626748576241 122.209517756016"/></g><g><path fill="none" stroke="#000000" paint-order="fill stroke markers" d=" M 614.1626748576241 113.790482243984 L 604 118 L 614.1626748576241 122.209517756016 L 614.1626748576241 113.790482243984" stroke-miterlimit="10" stroke-dasharray=""/></g><g><path fill="none" stroke="#000000" paint-order="fill stroke markers" d=" M 388 154 L 388 208" stroke-miterlimit="10" stroke-dasharray=""/></g><g><path fill="#000000" stroke="none" paint-order="stroke fill markers" d=" M 383.790482243984 197.83732514237585 L 388 208 L 392.209517756016 197.83732514237585"/></g><g><path fill="none" stroke="#000000" paint-order="fill stroke markers" d=" M 383.790482243984 197.83732514237585 L 388 208 L 392.209517756016 197.83732514237585 L 383.790482243984 197.83732514237585" stroke-miterlimit="10" stroke-dasharray=""/></g><g><path fill="none" stroke="#000000" paint-order="fill stroke markers" d=" M 390 244 L 390 298" stroke-miterlimit="10" stroke-dasharray=""/></g><g><path fill="#000000" stroke="none" paint-order="stroke fill markers" d=" M 385.790482243984 287.83732514237585 L 390 298 L 394.209517756016 287.83732514237585"/></g><g><path fill="none" stroke="#000000" paint-order="fill stroke markers" d=" M 385.790482243984 287.83732514237585 L 390 298 L 394.209517756016 287.83732514237585 L 385.790482243984 287.83732514237585" stroke-miterlimit="10" stroke-dasharray=""/></g><g><path fill="none" stroke="#000000" paint-order="fill stroke markers" d=" M 396 334 L 396 406" stroke-miterlimit="10" stroke-dasharray=""/></g><g><path fill="#000000" stroke="none" paint-order="stroke fill markers" d=" M 391.790482243984 395.83732514237585 L 396 406 L 400.209517756016 395.83732514237585"/></g><g><path fill="none" stroke="#000000" paint-order="fill stroke markers" d=" M 391.790482243984 395.83732514237585 L 396 406 L 400.209517756016 395.83732514237585 L 391.790482243984 395.83732514237585" stroke-miterlimit="10" stroke-dasharray=""/></g><g><path fill="none" stroke="#000000" paint-order="fill stroke markers" d=" M 388 442 L 388 514" stroke-miterlimit="10" stroke-dasharray=""/></g><g><path fill="#000000" stroke="none" paint-order="stroke fill markers" d=" M 383.790482243984 503.8373251423759 L 388 514 L 392.209517756016 503.8373251423759"/></g><g><path fill="none" stroke="#000000" paint-order="fill stroke markers" d=" M 383.790482243984 503.8373251423759 L 388 514 L 392.209517756016 503.8373251423759 L 383.790482243984 503.8373251423759" stroke-miterlimit="10" stroke-dasharray=""/></g><g><path fill="none" stroke="#000000" paint-order="fill stroke markers" d=" M 478 550 L 668 550 L 668 550 A 8 8 0 0 1 676 558 L 676 586" stroke-miterlimit="10" stroke-dasharray=""/></g><g><path fill="#000000" stroke="none" paint-order="stroke fill markers" d=" M 671.790482243984 575.8373251423759 L 676 586 L 680.209517756016 575.8373251423759"/></g><g><path fill="none" stroke="#000000" paint-order="fill stroke markers" d=" M 671.790482243984 575.8373251423759 L 676 586 L 680.209517756016 575.8373251423759 L 671.790482243984 575.8373251423759" stroke-miterlimit="10" stroke-dasharray=""/></g><g><rect fill="#ffffff" stroke="none" x="815" y="567" width="19.734375" height="16" transform="matrix(1 0 0 1 -134 -26)"/></g><g><g><path fill="none" stroke="none"/><text fill="#000000" stroke="none" font-family="Arial" font-size="16px" font-style="normal" font-weight="normal" text-decoration="undefined" x="824.8671875" y="575" text-anchor="middle" dominant-baseline="central" transform="matrix(1 0 0 1 -134 -26)">Да</text></g></g><g><path fill="none" stroke="#000000" paint-order="fill stroke markers" d=" M 676 638 L 676 676" stroke-miterlimit="10" stroke-dasharray=""/></g><g><path fill="#000000" stroke="none" paint-order="stroke fill markers" d=" M 671.790482243984 665.8373251423759 L 676 676 L 680.209517756016 665.8373251423759"/></g><g><path fill="none" stroke="#000000" paint-order="fill stroke markers" d=" M 671.790482243984 665.8373251423759 L 676 676 L 680.209517756016 665.8373251423759 L 671.790482243984 665.8373251423759" stroke-miterlimit="10" stroke-dasharray=""/></g><g><path fill="none" stroke="#000000" paint-order="fill stroke markers" d=" M 721 740 L 721 820" stroke-miterlimit="10" stroke-dasharray=""/></g><g><path fill="#000000" stroke="none" paint-order="stroke fill markers" d=" M 716.790482243984 809.8373251423759 L 721 820 L 725.209517756016 809.8373251423759"/></g><g><path fill="none" stroke="#000000" paint-order="fill stroke markers" d=" M 716.790482243984 809.8373251423759 L 721 820 L 725.209517756016 809.8373251423759 L 716.790482243984 809.8373251423759" stroke-miterlimit="10" stroke-dasharray=""/></g><g><rect fill="#ffffff" stroke="none" x="856" y="797" width="27.25" height="16" transform="matrix(1 0 0 1 -134 -26)"/></g><g><g><path fill="none" stroke="none"/><text fill="#000000" stroke="none" font-family="Arial" font-size="16px" font-style="normal" font-weight="normal" text-decoration="undefined" x="869.625" y="805" text-anchor="middle" dominant-baseline="central" transform="matrix(1 0 0 1 -134 -26)">Нет</text></g></g><g><path fill="none" stroke="#000000" paint-order="fill stroke markers" d=" M 514 740 L 396 740 L 396 740 A 8 8 0 0 0 388 748 L 388 1000" stroke-miterlimit="10" stroke-dasharray=""/></g><g><path fill="#000000" stroke="none" paint-order="stroke fill markers" d=" M 383.790482243984 989.8373251423759 L 388 1000 L 392.209517756016 989.8373251423759"/></g><g><path fill="none" stroke="#000000" paint-order="fill stroke markers" d=" M 383.790482243984 989.8373251423759 L 388 1000 L 392.209517756016 989.8373251423759 L 383.790482243984 989.8373251423759" stroke-miterlimit="10" stroke-dasharray=""/></g><g><rect fill="#ffffff" stroke="none" x="576" y="738" width="19.734375" height="16" transform="matrix(1 0 0 1 -134 -26)"/></g><g><g><path fill="none" stroke="none"/><text fill="#000000" stroke="none" font-family="Arial" font-size="16px" font-style="normal" font-weight="normal" text-decoration="undefined" x="585.8671875" y="746" text-anchor="middle" dominant-baseline="central" transform="matrix(1 0 0 1 -134 -26)">Да</text></g></g><g><path fill="none" stroke="#000000" paint-order="fill stroke markers" d=" M 676 820 L 396 820 L 396 820 A 8 8 0 0 0 388 828 L 388 1000" stroke-miterlimit="10" stroke-dasharray=""/></g><g><path fill="#000000" stroke="none" paint-order="stroke fill markers" d=" M 383.790482243984 989.8373251423759 L 388 1000 L 392.209517756016 989.8373251423759"/></g><g><path fill="none" stroke="#000000" paint-order="fill stroke markers" d=" M 383.790482243984 989.8373251423759 L 388 1000 L 392.209517756016 989.8373251423759 L 383.790482243984 989.8373251423759" stroke-miterlimit="10" stroke-dasharray=""/></g><g><path fill="none" stroke="#000000" paint-order="fill stroke markers" d=" M 388 610 L 388 1000" stroke-miterlimit="10" stroke-dasharray=""/></g><g><path fill="#000000" stroke="none" paint-order="stroke fill markers" d=" M 383.790482243984 989.8373251423759 L 388 1000 L 392.209517756016 989.8373251423759"/></g><g><path fill="none" stroke="#000000" paint-order="fill stroke markers" d=" M 383.790482243984 989.8373251423759 L 388 1000 L 392.209517756016 989.8373251423759 L 383.790482243984 989.8373251423759" stroke-miterlimit="10" stroke-dasharray=""/></g><g><rect fill="#ffffff" stroke="none" x="486" y="665" width="27.25" height="16" transform="matrix(1 0 0 1 -134 -26)"/></g><g><g><path fill="none" stroke="none"/><text fill="#000000" stroke="none" font-family="Arial" font-size="16px" font-style="normal" font-weight="normal" text-decoration="undefined" x="499.625" y="673" text-anchor="middle" dominant-baseline="central" transform="matrix(1 0 0 1 -134 -26)">Нет</text></g></g><g><path fill="none" stroke="#000000" paint-order="fill stroke markers" d=" M 496 1054 L 668 1054 L 668 1054 A 8 8 0 0 1 676 1062 L 676 1090" stroke-miterlimit="10" stroke-dasharray=""/></g><g><path fill="#000000" stroke="none" paint-order="stroke fill markers" d=" M 671.790482243984 1079.837325142376 L 676 1090 L 680.209517756016 1079.837325142376"/></g><g><path fill="none" stroke="#000000" paint-order="fill stroke markers" d=" M 671.790482243984 1079.837325142376 L 676 1090 L 680.209517756016 1079.837325142376 L 671.790482243984 1079.837325142376" stroke-miterlimit="10" stroke-dasharray=""/></g><g><rect fill="#ffffff" stroke="none" x="815" y="1071" width="19.734375" height="16" transform="matrix(1 0 0 1 -134 -26)"/></g><g><g><path fill="none" stroke="none"/><text fill="#000000" stroke="none" font-family="Arial" font-size="16px" font-style="normal" font-weight="normal" text-decoration="undefined" x="824.8671875" y="1079" text-anchor="middle" dominant-baseline="central" transform="matrix(1 0 0 1 -134 -26)">Да</text></g></g><g><path fill="none" stroke="#000000" paint-order="fill stroke markers" d=" M 678 1142 L 678 1180" stroke-miterlimit="10" stroke-dasharray=""/></g><g><path fill="#000000" stroke="none" paint-order="stroke fill markers" d=" M 673.790482243984 1169.837325142376 L 678 1180 L 682.209517756016 1169.837325142376"/></g><g><path fill="none" stroke="#000000" paint-order="fill stroke markers" d=" M 673.790482243984 1169.837325142376 L 678 1180 L 682.209517756016 1169.837325142376 L 673.790482243984 1169.837325142376" stroke-miterlimit="10" stroke-dasharray=""/></g><g><path fill="none" stroke="#000000" paint-order="fill stroke markers" d=" M 676 1276 L 676 1324" stroke-miterlimit="10" stroke-dasharray=""/></g><g><path fill="#000000" stroke="none" paint-order="stroke fill markers" d=" M 671.790482243984 1313.837325142376 L 676 1324 L 680.209517756016 1313.837325142376"/></g><g><path fill="none" stroke="#000000" paint-order="fill stroke markers" d=" M 671.790482243984 1313.837325142376 L 676 1324 L 680.209517756016 1313.837325142376 L 671.790482243984 1313.837325142376" stroke-miterlimit="10" stroke-dasharray=""/></g><g><rect fill="#ffffff" stroke="none" x="811" y="1317" width="27.25" height="16" transform="matrix(1 0 0 1 -134 -26)"/></g><g><g><path fill="none" stroke="none"/><text fill="#000000" stroke="none" font-family="Arial" font-size="16px" font-style="normal" font-weight="normal" text-decoration="undefined" x="824.625" y="1325" text-anchor="middle" dominant-baseline="central" transform="matrix(1 0 0 1 -134 -26)">Нет</text></g></g><g><path fill="none" stroke="#000000" paint-order="fill stroke markers" d=" M 550 1216 L 396 1216 L 396 1216 A 8 8 0 0 0 388 1224 L 388 1396" stroke-miterlimit="10" stroke-dasharray=""/></g><g><path fill="#000000" stroke="none" paint-order="stroke fill markers" d=" M 383.790482243984 1385.837325142376 L 388 1396 L 392.209517756016 1385.837325142376"/></g><g><path fill="none" stroke="#000000" paint-order="fill stroke markers" d=" M 383.790482243984 1385.837325142376 L 388 1396 L 392.209517756016 1385.837325142376 L 383.790482243984 1385.837325142376" stroke-miterlimit="10" stroke-dasharray=""/></g><g><rect fill="#ffffff" stroke="none" x="594" y="1206" width="19.734375" height="16" transform="matrix(1 0 0 1 -134 -26)"/></g><g><g><path fill="none" stroke="none"/><text fill="#000000" stroke="none" font-family="Arial" font-size="16px" font-style="normal" font-weight="normal" text-decoration="undefined" x="603.8671875" y="1214" text-anchor="middle" dominant-baseline="central" transform="matrix(1 0 0 1 -134 -26)">Да</text></g></g><g><path fill="none" stroke="#000000" paint-order="fill stroke markers" d=" M 568 1342 L 396 1342 L 396 1342 A 8 8 0 0 0 388 1350 L 388 1396" stroke-miterlimit="10" stroke-dasharray=""/></g><g><path fill="#000000" stroke="none" paint-order="stroke fill markers" d=" M 383.790482243984 1385.837325142376 L 388 1396 L 392.209517756016 1385.837325142376"/></g><g><path fill="none" stroke="#000000" paint-order="fill stroke markers" d=" M 383.790482243984 1385.837325142376 L 388 1396 L 392.209517756016 1385.837325142376 L 383.790482243984 1385.837325142376" stroke-miterlimit="10" stroke-dasharray=""/></g><g><path fill="none" stroke="#000000" paint-order="fill stroke markers" d=" M 386 1096 L 386 1396" stroke-miterlimit="10" stroke-dasharray=""/></g><g><path fill="#000000" stroke="none" paint-order="stroke fill markers" d=" M 381.790482243984 1385.837325142376 L 386 1396 L 390.209517756016 1385.837325142376"/></g><g><path fill="none" stroke="#000000" paint-order="fill stroke markers" d=" M 381.790482243984 1385.837325142376 L 386 1396 L 390.209517756016 1385.837325142376 L 381.790482243984 1385.837325142376" stroke-miterlimit="10" stroke-dasharray=""/></g><g><rect fill="#ffffff" stroke="none" x="522" y="1152" width="27.25" height="16" transform="matrix(1 0 0 1 -134 -26)"/></g><g><g><path fill="none" stroke="none"/><text fill="#000000" stroke="none" font-family="Arial" font-size="16px" font-style="normal" font-weight="normal" text-decoration="undefined" x="535.625" y="1160" text-anchor="middle" dominant-baseline="central" transform="matrix(1 0 0 1 -134 -26)">Нет</text></g></g><g><path fill="none" stroke="#000000" paint-order="fill stroke markers" d=" M 372 1492 L 372 1594" stroke-miterlimit="10" stroke-dasharray=""/></g><g><path fill="#000000" stroke="none" paint-order="stroke fill markers" d=" M 367.790482243984 1583.837325142376 L 372 1594 L 376.209517756016 1583.837325142376"/></g><g><path fill="none" stroke="#000000" paint-order="fill stroke markers" d=" M 367.790482243984 1583.837325142376 L 372 1594 L 376.209517756016 1583.837325142376 L 367.790482243984 1583.837325142376" stroke-miterlimit="10" stroke-dasharray=""/></g><g><path fill="none" stroke="#000000" paint-order="fill stroke markers" d=" M 262 1450 L 108 1450 L 108 1450 A 8 8 0 0 1 100 1442 L 100 618 L 100 618 A 8 8 0 0 1 108 610 L 298 610" stroke-miterlimit="10" stroke-dasharray=""/></g><g><path fill="#000000" stroke="none" paint-order="stroke fill markers" d=" M 287.83732514237585 614.209517756016 L 298 610 L 287.83732514237585 605.790482243984"/></g><g><path fill="none" stroke="#000000" paint-order="fill stroke markers" d=" M 287.83732514237585 614.209517756016 L 298 610 L 287.83732514237585 605.790482243984 L 287.83732514237585 614.209517756016" stroke-miterlimit="10" stroke-dasharray=""/></g><g><path fill="none" stroke="#000000" paint-order="fill stroke markers" d=" M 244 1594 L 18 1594 L 18 1594 A 8 8 0 0 1 10 1586 L 10 450 L 10 450 A 8 8 0 0 1 18 442 L 190 442" stroke-miterlimit="10" stroke-dasharray=""/></g><g><path fill="#000000" stroke="none" paint-order="stroke fill markers" d=" M 179.83732514237585 446.209517756016 L 190 442 L 179.83732514237585 437.790482243984"/></g><g><path fill="none" stroke="#000000" paint-order="fill stroke markers" d=" M 179.83732514237585 446.209517756016 L 190 442 L 179.83732514237585 437.790482243984 L 179.83732514237585 446.209517756016" stroke-miterlimit="10" stroke-dasharray=""/></g><g><path fill="none" stroke="#000000" paint-order="fill stroke markers" d=" M 375 1658 L 375 1702" stroke-miterlimit="10" stroke-dasharray=""/></g><g><path fill="#000000" stroke="none" paint-order="stroke fill markers" d=" M 370.790482243984 1691.837325142376 L 375 1702 L 379.209517756016 1691.837325142376"/></g><g><path fill="none" stroke="#000000" paint-order="fill stroke markers" d=" M 370.790482243984 1691.837325142376 L 375 1702 L 379.209517756016 1691.837325142376 L 370.790482243984 1691.837325142376" stroke-miterlimit="10" stroke-dasharray=""/></g><g><path fill="#ffffff" stroke="none" paint-order="stroke fill markers" d=" M 1000 928 L 1331 928 L 1341 938 L 1341 971 L 1000 971 L 1000 928"/></g><g><path fill="none" stroke="#000000" paint-order="fill stroke markers" d=" M 1000 928 L 1331 928 L 1341 938 L 1341 971 L 1000 971 L 1000 928 L 1000 928" stroke-miterlimit="10" stroke-dasharray=""/></g><g><path fill="none" stroke="#000000" paint-order="fill stroke markers" d=" M 1331 928 L 1331 938 L 1341 938 L 1331 928" stroke-miterlimit="10" stroke-dasharray=""/></g><g><g><path fill="none" stroke="none"/><text fill="#000000" stroke="none" font-family="Arial" font-size="16px" font-style="normal" font-weight="normal" text-decoration="undefined" x="1139" y="959" text-anchor="start" dominant-baseline="text-before-edge" transform="matrix(1 0 0 1 -134 -26)">логика с использованием Azure Media</text><text fill="#000000" stroke="none" font-family="Arial" font-size="16px" font-style="normal" font-weight="normal" text-decoration="undefined" x="1139" y="975" text-anchor="start" dominant-baseline="text-before-edge" transform="matrix(1 0 0 1 -134 -26)">Serivce для потоковой загрузки видео</text></g></g><g><path fill="none" stroke="#000000" paint-order="fill stroke markers" d=" M 743 1323 L 1145 973" stroke-miterlimit="10" stroke-dasharray="3"/></g><g><path fill="none" stroke="#000000" paint-order="fill stroke markers" d=" M 911 873 L 1093 927" stroke-miterlimit="10" stroke-dasharray="3"/></g><g><path fill="#FFFFFF" stroke="none" paint-order="stroke fill markers" d=" M 175 1864 L 550 1864 L 475 1900 L 100 1900 L 175 1864"/></g><g><path fill="none" stroke="#000000" paint-order="fill stroke markers" d=" M 175 1864 L 550 1864 L 475 1900 L 100 1900 L 175 1864 L 175 1864" stroke-miterlimit="10" stroke-dasharray=""/></g><g><g><path fill="none" stroke="none"/><text fill="#000000" stroke="none" font-family="Arial" font-size="16px" font-style="normal" font-weight="normal" text-decoration="undefined" x="459" y="1908" text-anchor="middle" dominant-baseline="central" transform="matrix(1 0 0 1 -134 -26)">GetChallangesReportsRequest</text></g></g><g><path fill="none" stroke="#000000" paint-order="fill stroke markers" d=" M 370 1738 L 370 1864" stroke-miterlimit="10" stroke-dasharray=""/></g><g><path fill="#000000" stroke="none" paint-order="stroke fill markers" d=" M 365.790482243984 1853.837325142376 L 370 1864 L 374.209517756016 1853.837325142376"/></g><g><path fill="none" stroke="#000000" paint-order="fill stroke markers" d=" M 365.790482243984 1853.837325142376 L 370 1864 L 374.209517756016 1853.837325142376 L 365.790482243984 1853.837325142376" stroke-miterlimit="10" stroke-dasharray=""/></g><g><path fill="#ffffff" stroke="none" paint-order="stroke fill markers" d=" M 670 1756 L 910 1756 L 862 1792 L 622 1792 L 670 1756"/></g><g><path fill="none" stroke="#000000" paint-order="fill stroke markers" d=" M 670 1756 L 910 1756 L 862 1792 L 622 1792 L 670 1756 L 670 1756" stroke-miterlimit="10" stroke-dasharray=""/></g><g><g><path fill="none" stroke="none"/><text fill="#000000" stroke="none" font-family="Arial" font-size="16px" font-style="normal" font-weight="normal" text-decoration="undefined" x="900" y="1800" text-anchor="middle" dominant-baseline="central" transform="matrix(1 0 0 1 -134 -26)">ChallangesReportImageDTO</text></g></g><g><path fill="#ffffff" stroke="none" paint-order="stroke fill markers" d=" M 1015 1702 L 1270 1702 L 1219 1738 L 964 1738 L 1015 1702"/></g><g><path fill="none" stroke="#000000" paint-order="fill stroke markers" d=" M 1015 1702 L 1270 1702 L 1219 1738 L 964 1738 L 1015 1702 L 1015 1702" stroke-miterlimit="10" stroke-dasharray=""/></g><g><g><path fill="none" stroke="none"/><text fill="#000000" stroke="none" font-family="Arial" font-size="16px" font-style="normal" font-weight="normal" text-decoration="undefined" x="1251" y="1746" text-anchor="middle" dominant-baseline="central" transform="matrix(1 0 0 1 -134 -26)">AChallangesReportEntityDTO</text></g></g><g><path fill="#ffffff" stroke="none" paint-order="stroke fill markers" d=" M 691 1792 L 946 1792 L 895 1828 L 640 1828 L 691 1792"/></g><g><path fill="none" stroke="#000000" paint-order="fill stroke markers" d=" M 691 1792 L 946 1792 L 895 1828 L 640 1828 L 691 1792 L 691 1792" stroke-miterlimit="10" stroke-dasharray=""/></g><g><g><path fill="none" stroke="none"/><text fill="#000000" stroke="none" font-family="Arial" font-size="16px" font-style="normal" font-weight="normal" text-decoration="undefined" x="927" y="1836" text-anchor="middle" dominant-baseline="central" transform="matrix(1 0 0 1 -134 -26)">ChallangesReportVideoDTO</text></g></g><g><path fill="#ffffff" stroke="none" paint-order="stroke fill markers" d=" M 721 1828 L 946 1828 L 901 1864 L 676 1864 L 721 1828"/></g><g><path fill="none" stroke="#000000" paint-order="fill stroke markers" d=" M 721 1828 L 946 1828 L 901 1864 L 676 1864 L 721 1828 L 721 1828" stroke-miterlimit="10" stroke-dasharray=""/></g><g><g><path fill="none" stroke="none"/><text fill="#000000" stroke="none" font-family="Arial" font-size="16px" font-style="normal" font-weight="normal" text-decoration="undefined" x="945" y="1872" text-anchor="middle" dominant-baseline="central" transform="matrix(1 0 0 1 -134 -26)">ChallangesReportFileDTO</text></g></g><g><path fill="#ffffff" stroke="none" paint-order="stroke fill markers" d=" M 742 1864 L 982 1864 L 934 1900 L 694 1900 L 742 1864"/></g><g><path fill="none" stroke="#000000" paint-order="fill stroke markers" d=" M 742 1864 L 982 1864 L 934 1900 L 694 1900 L 742 1864 L 742 1864" stroke-miterlimit="10" stroke-dasharray=""/></g><g><g><path fill="none" stroke="none"/><text fill="#000000" stroke="none" font-family="Arial" font-size="16px" font-style="normal" font-weight="normal" text-decoration="undefined" x="972" y="1908" text-anchor="middle" dominant-baseline="central" transform="matrix(1 0 0 1 -134 -26)">ChallangesReportTextDTO</text></g></g><g><path fill="none" stroke="#000000" paint-order="fill stroke markers" d=" M 1000 1738 L 1000 1748 L 1000 1748 A 8 8 0 0 1 992 1756 L 910 1756" stroke-miterlimit="10" stroke-dasharray=""/></g><g><path fill="#000000" stroke="none" paint-order="stroke fill markers" d=" M 920.1626748576241 1751.7904822439841 L 910 1756 L 920.1626748576241 1760.2095177560159"/></g><g><path fill="none" stroke="#000000" paint-order="fill stroke markers" d=" M 920.1626748576241 1751.7904822439841 L 910 1756 L 920.1626748576241 1760.2095177560159 L 920.1626748576241 1751.7904822439841" stroke-miterlimit="10" stroke-dasharray=""/></g><g><path fill="none" stroke="#000000" paint-order="fill stroke markers" d=" M 1036 1738 L 1036 1784 L 1036 1784 A 8 8 0 0 1 1028 1792 L 946 1792" stroke-miterlimit="10" stroke-dasharray=""/></g><g><path fill="#000000" stroke="none" paint-order="stroke fill markers" d=" M 956.1626748576241 1787.7904822439841 L 946 1792 L 956.1626748576241 1796.2095177560159"/></g><g><path fill="none" stroke="#000000" paint-order="fill stroke markers" d=" M 956.1626748576241 1787.7904822439841 L 946 1792 L 956.1626748576241 1796.2095177560159 L 956.1626748576241 1787.7904822439841" stroke-miterlimit="10" stroke-dasharray=""/></g><g><path fill="none" stroke="#000000" paint-order="fill stroke markers" d=" M 1073 1738 L 1073 1820 L 1073 1820 A 8 8 0 0 1 1065 1828 L 946 1828" stroke-miterlimit="10" stroke-dasharray=""/></g><g><path fill="#000000" stroke="none" paint-order="stroke fill markers" d=" M 956.1626748576241 1823.7904822439841 L 946 1828 L 956.1626748576241 1832.2095177560159"/></g><g><path fill="none" stroke="#000000" paint-order="fill stroke markers" d=" M 956.1626748576241 1823.7904822439841 L 946 1828 L 956.1626748576241 1832.2095177560159 L 956.1626748576241 1823.7904822439841" stroke-miterlimit="10" stroke-dasharray=""/></g><g><path fill="none" stroke="#000000" paint-order="fill stroke markers" d=" M 1108 1738 L 1108 1856 L 1108 1856 A 8 8 0 0 1 1100 1864 L 982 1864" stroke-miterlimit="10" stroke-dasharray=""/></g><g><path fill="#000000" stroke="none" paint-order="stroke fill markers" d=" M 992.1626748576241 1859.7904822439841 L 982 1864 L 992.1626748576241 1868.2095177560159"/></g><g><path fill="none" stroke="#000000" paint-order="fill stroke markers" d=" M 992.1626748576241 1859.7904822439841 L 982 1864 L 992.1626748576241 1868.2095177560159 L 992.1626748576241 1859.7904822439841" stroke-miterlimit="10" stroke-dasharray=""/></g><g><path fill="none" stroke="#000000" paint-order="fill stroke markers" d=" M 622 1792 L 594 1792 L 594 1792 A 8 8 0 0 0 586 1800 L 586 1856 L 586 1856 A 8 8 0 0 1 578 1864 L 550 1864" stroke-miterlimit="10" stroke-dasharray=""/></g><g><path fill="#000000" stroke="none" paint-order="stroke fill markers" d=" M 560.1626748576241 1859.7904822439841 L 550 1864 L 560.1626748576241 1868.2095177560159"/></g><g><path fill="none" stroke="#000000" paint-order="fill stroke markers" d=" M 560.1626748576241 1859.7904822439841 L 550 1864 L 560.1626748576241 1868.2095177560159 L 560.1626748576241 1859.7904822439841" stroke-miterlimit="10" stroke-dasharray=""/></g><g><path fill="none" stroke="#000000" paint-order="fill stroke markers" d=" M 640 1828 L 612 1828 L 612 1828 A 8 8 0 0 0 604 1836 L 604 1856 L 604 1856 A 8 8 0 0 1 596 1864 L 550 1864" stroke-miterlimit="10" stroke-dasharray=""/></g><g><path fill="#000000" stroke="none" paint-order="stroke fill markers" d=" M 560.1626748576241 1859.7904822439841 L 550 1864 L 560.1626748576241 1868.2095177560159"/></g><g><path fill="none" stroke="#000000" paint-order="fill stroke markers" d=" M 560.1626748576241 1859.7904822439841 L 550 1864 L 560.1626748576241 1868.2095177560159 L 560.1626748576241 1859.7904822439841" stroke-miterlimit="10" stroke-dasharray=""/></g><g><path fill="none" stroke="#000000" paint-order="fill stroke markers" d=" M 676 1864 L 550 1864" stroke-miterlimit="10" stroke-dasharray=""/></g><g><path fill="#000000" stroke="none" paint-order="stroke fill markers" d=" M 560.1626748576241 1859.7904822439841 L 550 1864 L 560.1626748576241 1868.2095177560159"/></g><g><path fill="none" stroke="#000000" paint-order="fill stroke markers" d=" M 560.1626748576241 1859.7904822439841 L 550 1864 L 560.1626748576241 1868.2095177560159 L 560.1626748576241 1859.7904822439841" stroke-miterlimit="10" stroke-dasharray=""/></g><g><path fill="none" stroke="#000000" paint-order="fill stroke markers" d=" M 694 1882 L 550 1882" stroke-miterlimit="10" stroke-dasharray=""/></g><g><path fill="#000000" stroke="none" paint-order="stroke fill markers" d=" M 560.1626748576241 1877.7904822439841 L 550 1882 L 560.1626748576241 1886.2095177560159"/></g><g><path fill="none" stroke="#000000" paint-order="fill stroke markers" d=" M 560.1626748576241 1877.7904822439841 L 550 1882 L 560.1626748576241 1886.2095177560159 L 560.1626748576241 1877.7904822439841" stroke-miterlimit="10" stroke-dasharray=""/></g></g></svg>