<svg version="1.1" xmlns="http://www.w3.org/2000/svg" xmlns:xlink="http://www.w3.org/1999/xlink" width="685.484375" height="830"><defs/><g><g><path fill="#ffffff" stroke="none" paint-order="stroke fill markers" d=" M 56 514 L 391 514 Q 419 514 419 542 L 419 542 Q 419 570 391 570 L 56 570 Q 28 570 28 542 L 28 542 Q 28 514 56 514 Z"/></g><g><path fill="none" stroke="#000000" paint-order="fill stroke markers" d=" M 56 514 L 391 514 Q 419 514 419 542 L 419 542 Q 419 570 391 570 L 56 570 Q 28 570 28 542 L 28 542 Q 28 514 56 514 Z" stroke-miterlimit="10" stroke-dasharray=""/></g><g><g><path fill="none" stroke="none"/><text fill="#000000" stroke="none" font-family="Arial" font-size="16px" font-style="normal" font-weight="normal" text-decoration="undefined" x="519.5" y="594" text-anchor="middle" dominant-baseline="central" transform="matrix(1 0 0 1 -296 -62)">Не заблокирована ли возможность у выбранного</text><text fill="#000000" stroke="none" font-family="Arial" font-size="16px" font-style="normal" font-weight="normal" text-decoration="undefined" x="519.5" y="610" text-anchor="middle" dominant-baseline="central" transform="matrix(1 0 0 1 -296 -62)">юзера быть аккаунтом для оплаты в сообществе</text></g></g><g><path fill="#ffffff" stroke="none" paint-order="stroke fill markers" d=" M 145 424 L 325 424 Q 352 424 352 451 L 352 451 Q 352 478 325 478 L 145 478 Q 118 478 118 451 L 118 451 Q 118 424 145 424 Z"/></g><g><path fill="none" stroke="#000000" paint-order="fill stroke markers" d=" M 145 424 L 325 424 Q 352 424 352 451 L 352 451 Q 352 478 325 478 L 145 478 Q 118 478 118 451 L 118 451 Q 118 424 145 424 Z" stroke-miterlimit="10" stroke-dasharray=""/></g><g><g><path fill="none" stroke="none"/><text fill="#000000" stroke="none" font-family="Arial" font-size="16px" font-style="normal" font-weight="normal" text-decoration="undefined" x="531" y="504" text-anchor="middle" dominant-baseline="central" transform="matrix(1 0 0 1 -296 -62)">Не заблокировал ли</text><text fill="#000000" stroke="none" font-family="Arial" font-size="16px" font-style="normal" font-weight="normal" text-decoration="undefined" x="531" y="520" text-anchor="middle" dominant-baseline="central" transform="matrix(1 0 0 1 -296 -62)">пользователь этот юзер ид</text></g></g><g><path fill="none" stroke="#000000" paint-order="fill stroke markers" d=" M 231 478 L 231 514" stroke-miterlimit="10" stroke-dasharray=""/></g><g><path fill="#000000" stroke="none" paint-order="stroke fill markers" d=" M 226.790482243984 503.8373251423759 L 231 514 L 235.209517756016 503.8373251423759"/></g><g><path fill="none" stroke="#000000" paint-order="fill stroke markers" d=" M 226.790482243984 503.8373251423759 L 231 514 L 235.209517756016 503.8373251423759 L 226.790482243984 503.8373251423759" stroke-miterlimit="10" stroke-dasharray=""/></g><g><rect fill="#ffffff" stroke="none" x="306" y="72" width="462.1328125" height="52" transform="matrix(1 0 0 1 -296 -62)"/></g><g><path fill="#ffffff" stroke="none" paint-order="stroke fill markers" d=" M 472.1328125 10 A 26 26 0 0 1 472.1328125 62"/></g><g><path fill="none" stroke="#000000" paint-order="fill stroke markers" d=" M 10 10 L 10 62" stroke-miterlimit="10" stroke-dasharray=""/></g><g><path fill="none" stroke="#000000" paint-order="fill stroke markers" d=" M 10 10 L 472.1328125 10" stroke-miterlimit="10" stroke-dasharray=""/></g><g><path fill="none" stroke="#000000" paint-order="fill stroke markers" d=" M 10 62 L 472.1328125 62" stroke-miterlimit="10" stroke-dasharray=""/></g><g><path fill="none" stroke="#000000" paint-order="fill stroke markers" d=" M 472.1328125 10 A 26 26 0 0 1 472.1328125 62" stroke-miterlimit="10" stroke-dasharray=""/></g><g><g><path fill="none" stroke="none"/><text fill="#000000" stroke="none" font-family="Arial" font-size="16px" font-style="normal" font-weight="normal" text-decoration="undefined" x="499.0498046875" y="90" text-anchor="middle" dominant-baseline="central" transform="matrix(1 0 0 1 -296 -62)">POST</text><text fill="#000000" stroke="none" font-family="Arial" font-size="16px" font-style="normal" font-weight="normal" text-decoration="undefined" x="499.0498046875" y="106" text-anchor="middle" dominant-baseline="central" transform="matrix(1 0 0 1 -296 -62)">/communities/payment-account-invitation/initiator</text></g></g><g><path fill="#ffffff" stroke="none" paint-order="stroke fill markers" d=" M 102 118 L 472.828125 118 L 398.828125 154 L 28 154 L 102 118"/></g><g><path fill="none" stroke="#000000" paint-order="fill stroke markers" d=" M 102 118 L 472.828125 118 L 398.828125 154 L 28 154 L 102 118 L 102 118" stroke-miterlimit="10" stroke-dasharray=""/></g><g><g><path fill="none" stroke="none"/><text fill="#000000" stroke="none" font-family="Arial" font-size="16px" font-style="normal" font-weight="normal" text-decoration="undefined" x="546.4140625" y="198" text-anchor="middle" dominant-baseline="central" transform="matrix(1 0 0 1 -296 -62)">PostCreatePaymentAccountInvitationRequest</text></g></g><g><path fill="#ffffff" stroke="#000000" paint-order="fill stroke markers" d=" M 532 44 L 555 10 L 652.484375 10 Q 675.484375 10 675.484375 44 Q 675.484375 78 652.484375 78 L 555 78 L 532 44 Z" stroke-miterlimit="10" stroke-dasharray=""/></g><g><g><path fill="none" stroke="none"/><text fill="#000000" stroke="none" font-family="Arial" font-size="16px" font-style="normal" font-weight="normal" text-decoration="undefined" x="899.7421875" y="90" text-anchor="middle" dominant-baseline="central" transform="matrix(1 0 0 1 -296 -62)">Заголовки</text><text fill="#000000" stroke="none" font-family="Arial" font-size="16px" font-style="normal" font-weight="normal" text-decoration="undefined" x="899.7421875" y="106" text-anchor="middle" dominant-baseline="central" transform="matrix(1 0 0 1 -296 -62)">запроса</text><text fill="#000000" stroke="none" font-family="Arial" font-size="16px" font-style="normal" font-weight="normal" text-decoration="undefined" x="899.7421875" y="122" text-anchor="middle" dominant-baseline="central" transform="matrix(1 0 0 1 -296 -62)">(Авторизирован)</text></g></g><g><rect fill="#ffffff" stroke="none" x="324" y="684" width="414" height="36" transform="matrix(1 0 0 1 -296 -62)"/></g><g><path fill="none" stroke="#000000" paint-order="fill stroke markers" d=" M 28 622 L 442 622 L 442 658 L 28 658 L 28 622 Z Z" stroke-miterlimit="10" stroke-dasharray=""/></g><g><g><path fill="none" stroke="none"/><text fill="#000000" stroke="none" font-family="Arial" font-size="16px" font-style="normal" font-weight="normal" text-decoration="undefined" x="531" y="702" text-anchor="middle" dominant-baseline="central" transform="matrix(1 0 0 1 -296 -62)">Создать приглашение стать аккаунтов для оплаты</text></g></g><g><path fill="#ffffff" stroke="none" paint-order="stroke fill markers" d=" M 126 298 L 362 298 Q 388 298 388 324 L 388 324 Q 388 350 362 350 L 126 350 Q 100 350 100 324 L 100 324 Q 100 298 126 298 Z"/></g><g><path fill="none" stroke="#000000" paint-order="fill stroke markers" d=" M 126 298 L 362 298 Q 388 298 388 324 L 388 324 Q 388 350 362 350 L 126 350 Q 100 350 100 324 L 100 324 Q 100 298 126 298 Z" stroke-miterlimit="10" stroke-dasharray=""/></g><g><g><path fill="none" stroke="none"/><text fill="#000000" stroke="none" font-family="Arial" font-size="16px" font-style="normal" font-weight="normal" text-decoration="undefined" x="540" y="378" text-anchor="middle" dominant-baseline="central" transform="matrix(1 0 0 1 -296 -62)">У сообщества нету пользователей</text><text fill="#000000" stroke="none" font-family="Arial" font-size="16px" font-style="normal" font-weight="normal" text-decoration="undefined" x="540" y="394" text-anchor="middle" dominant-baseline="central" transform="matrix(1 0 0 1 -296 -62)">с активным приглашением</text></g></g><g><rect fill="#ffffff" stroke="none" x="324" y="756" width="414" height="52" transform="matrix(1 0 0 1 -296 -62)"/></g><g><path fill="none" stroke="#000000" paint-order="fill stroke markers" d=" M 28 694 L 442 694 L 442 746 L 28 746 L 28 694 Z Z" stroke-miterlimit="10" stroke-dasharray=""/></g><g><g><path fill="none" stroke="none"/><text fill="#000000" stroke="none" font-family="Arial" font-size="16px" font-style="normal" font-weight="normal" text-decoration="undefined" x="531" y="774" text-anchor="middle" dominant-baseline="central" transform="matrix(1 0 0 1 -296 -62)">Отправить уведомление пользователю о</text><text fill="#000000" stroke="none" font-family="Arial" font-size="16px" font-style="normal" font-weight="normal" text-decoration="undefined" x="531" y="790" text-anchor="middle" dominant-baseline="central" transform="matrix(1 0 0 1 -296 -62)">приглашении </text></g></g><g><path fill="#ffffff" stroke="none" paint-order="stroke fill markers" d=" M 97 784 L 442 784 L 373 820 L 28 820 L 97 784"/></g><g><path fill="none" stroke="#000000" paint-order="fill stroke markers" d=" M 97 784 L 442 784 L 373 820 L 28 820 L 97 784 L 97 784" stroke-miterlimit="10" stroke-dasharray=""/></g><g><g><path fill="none" stroke="none"/><text fill="#000000" stroke="none" font-family="Arial" font-size="16px" font-style="normal" font-weight="normal" text-decoration="undefined" x="531" y="864" text-anchor="middle" dominant-baseline="central" transform="matrix(1 0 0 1 -296 -62)">NoBodyResponse</text></g></g><g><path fill="none" stroke="#000000" paint-order="fill stroke markers" d=" M 253 62 L 253 118" stroke-miterlimit="10" stroke-dasharray=""/></g><g><path fill="#000000" stroke="none" paint-order="stroke fill markers" d=" M 248.790482243984 107.83732514237585 L 253 118 L 257.209517756016 107.83732514237585"/></g><g><path fill="none" stroke="#000000" paint-order="fill stroke markers" d=" M 248.790482243984 107.83732514237585 L 253 118 L 257.209517756016 107.83732514237585 L 248.790482243984 107.83732514237585" stroke-miterlimit="10" stroke-dasharray=""/></g><g><path fill="none" stroke="#000000" paint-order="fill stroke markers" d=" M 532 78 L 532 110 L 532 110 A 8 8 0 0 1 524 118 L 473 118" stroke-miterlimit="10" stroke-dasharray=""/></g><g><path fill="#000000" stroke="none" paint-order="stroke fill markers" d=" M 483.1626748576241 113.790482243984 L 473 118 L 483.1626748576241 122.209517756016"/></g><g><path fill="none" stroke="#000000" paint-order="fill stroke markers" d=" M 483.1626748576241 113.790482243984 L 473 118 L 483.1626748576241 122.209517756016 L 483.1626748576241 113.790482243984" stroke-miterlimit="10" stroke-dasharray=""/></g><g><path fill="none" stroke="#000000" paint-order="fill stroke markers" d=" M 226 350 L 226 424" stroke-miterlimit="10" stroke-dasharray=""/></g><g><path fill="#000000" stroke="none" paint-order="stroke fill markers" d=" M 221.790482243984 413.83732514237585 L 226 424 L 230.209517756016 413.83732514237585"/></g><g><path fill="none" stroke="#000000" paint-order="fill stroke markers" d=" M 221.790482243984 413.83732514237585 L 226 424 L 230.209517756016 413.83732514237585 L 221.790482243984 413.83732514237585" stroke-miterlimit="10" stroke-dasharray=""/></g><g><path fill="none" stroke="#000000" paint-order="fill stroke markers" d=" M 226 570 L 226 622" stroke-miterlimit="10" stroke-dasharray=""/></g><g><path fill="#000000" stroke="none" paint-order="stroke fill markers" d=" M 221.790482243984 611.8373251423759 L 226 622 L 230.209517756016 611.8373251423759"/></g><g><path fill="none" stroke="#000000" paint-order="fill stroke markers" d=" M 221.790482243984 611.8373251423759 L 226 622 L 230.209517756016 611.8373251423759 L 221.790482243984 611.8373251423759" stroke-miterlimit="10" stroke-dasharray=""/></g><g><path fill="none" stroke="#000000" paint-order="fill stroke markers" d=" M 235 658 L 235 694" stroke-miterlimit="10" stroke-dasharray=""/></g><g><path fill="#000000" stroke="none" paint-order="stroke fill markers" d=" M 230.790482243984 683.8373251423759 L 235 694 L 239.209517756016 683.8373251423759"/></g><g><path fill="none" stroke="#000000" paint-order="fill stroke markers" d=" M 230.790482243984 683.8373251423759 L 235 694 L 239.209517756016 683.8373251423759 L 230.790482243984 683.8373251423759" stroke-miterlimit="10" stroke-dasharray=""/></g><g><path fill="none" stroke="#000000" paint-order="fill stroke markers" d=" M 235 746 L 235 784" stroke-miterlimit="10" stroke-dasharray=""/></g><g><path fill="#000000" stroke="none" paint-order="stroke fill markers" d=" M 230.790482243984 773.8373251423759 L 235 784 L 239.209517756016 773.8373251423759"/></g><g><path fill="none" stroke="#000000" paint-order="fill stroke markers" d=" M 230.790482243984 773.8373251423759 L 235 784 L 239.209517756016 773.8373251423759 L 230.790482243984 773.8373251423759" stroke-miterlimit="10" stroke-dasharray=""/></g><g><path fill="#ffffff" stroke="none" paint-order="stroke fill markers" d=" M 127 190 L 397 190 Q 424 190 424 217 L 424 217 Q 424 244 397 244 L 127 244 Q 100 244 100 217 L 100 217 Q 100 190 127 190 Z"/></g><g><path fill="none" stroke="#000000" paint-order="fill stroke markers" d=" M 127 190 L 397 190 Q 424 190 424 217 L 424 217 Q 424 244 397 244 L 127 244 Q 100 244 100 217 L 100 217 Q 100 190 127 190 Z" stroke-miterlimit="10" stroke-dasharray=""/></g><g><g><path fill="none" stroke="none"/><text fill="#000000" stroke="none" font-family="Arial" font-size="16px" font-style="normal" font-weight="normal" text-decoration="undefined" x="558" y="270" text-anchor="middle" dominant-baseline="central" transform="matrix(1 0 0 1 -296 -62)">Существует выбранный аккаунт</text></g></g><g><path fill="none" stroke="#000000" paint-order="fill stroke markers" d=" M 259 244 L 259 298" stroke-miterlimit="10" stroke-dasharray=""/></g><g><path fill="#000000" stroke="none" paint-order="stroke fill markers" d=" M 254.790482243984 287.83732514237585 L 259 298 L 263.209517756016 287.83732514237585"/></g><g><path fill="none" stroke="#000000" paint-order="fill stroke markers" d=" M 254.790482243984 287.83732514237585 L 259 298 L 263.209517756016 287.83732514237585 L 254.790482243984 287.83732514237585" stroke-miterlimit="10" stroke-dasharray=""/></g><g><path fill="none" stroke="#000000" paint-order="fill stroke markers" d=" M 249 154 L 249 190" stroke-miterlimit="10" stroke-dasharray=""/></g><g><path fill="#000000" stroke="none" paint-order="stroke fill markers" d=" M 244.790482243984 179.83732514237585 L 249 190 L 253.209517756016 179.83732514237585"/></g><g><path fill="none" stroke="#000000" paint-order="fill stroke markers" d=" M 244.790482243984 179.83732514237585 L 249 190 L 253.209517756016 179.83732514237585 L 244.790482243984 179.83732514237585" stroke-miterlimit="10" stroke-dasharray=""/></g></g></svg>