<svg version="1.1" xmlns="http://www.w3.org/2000/svg" xmlns:xlink="http://www.w3.org/1999/xlink" width="882" height="2289"><defs/><g><g><path fill="#C0C0C0" stroke="none" paint-order="stroke fill markers" d=" M 249.4609375 83 C 249.4609375 46.5492032 306.0969103 17 375.9609375 17 C 445.8249647 17 502.4609375 46.5492032 502.4609375 83 C 502.4609375 119.4507968 445.8249647 149 375.9609375 149 C 306.0969103 149 249.4609375 119.4507968 249.4609375 83 Z" fill-opacity="0.2"/></g><g><path fill="#ffffff" stroke="none" paint-order="stroke fill markers" d=" M 242.4609375 76 C 242.4609375 39.5492032 299.0969103 10 368.9609375 10 C 438.8249647 10 495.4609375 39.5492032 495.4609375 76 C 495.4609375 112.4507968 438.8249647 142 368.9609375 142 C 299.0969103 142 242.4609375 112.4507968 242.4609375 76 Z"/></g><g><path fill="none" stroke="#000000" paint-order="fill stroke markers" d=" M 242.4609375 76 C 242.4609375 39.5492032 299.0969103 10 368.9609375 10 C 438.8249647 10 495.4609375 39.5492032 495.4609375 76 C 495.4609375 112.4507968 438.8249647 142 368.9609375 142 C 299.0969103 142 242.4609375 112.4507968 242.4609375 76 Z" stroke-miterlimit="10" stroke-dasharray=""/></g><g><g><path fill="none" stroke="none"/><text fill="#000000" stroke="none" font-family="Arial" font-size="16px" font-style="normal" font-weight="bold" text-decoration="undefined" x="378.9609375" y="54" text-anchor="middle" dominant-baseline="central" transform="matrix(1 0 0 1 -10 -10)">Активация</text><text fill="#000000" stroke="none" font-family="Arial" font-size="16px" font-style="normal" font-weight="bold" text-decoration="undefined" x="378.9609375" y="70" text-anchor="middle" dominant-baseline="central" transform="matrix(1 0 0 1 -10 -10)">бесплатной</text><text fill="#000000" stroke="none" font-family="Arial" font-size="16px" font-style="normal" font-weight="bold" text-decoration="undefined" x="378.9609375" y="86" text-anchor="middle" dominant-baseline="central" transform="matrix(1 0 0 1 -10 -10)">заморозки раз в</text><text fill="#000000" stroke="none" font-family="Arial" font-size="16px" font-style="normal" font-weight="bold" text-decoration="undefined" x="378.9609375" y="102" text-anchor="middle" dominant-baseline="central" transform="matrix(1 0 0 1 -10 -10)">месяц</text></g></g><g><g><path fill="none" stroke="none"/><text fill="#000000" stroke="none" font-family="Arial" font-size="16px" font-style="normal" font-weight="normal" text-decoration="undefined" x="378.9609375" y="120" text-anchor="middle" dominant-baseline="central" transform="matrix(1 0 0 1 -10 -10)">(from PUC: Заморозка)</text></g></g><g><path fill="#C0C0C0" stroke="none" paint-order="stroke fill markers" d=" M 249.4609375 234 C 249.4609375 203.624336 306.0969103 179 375.9609375 179 C 445.8249647 179 502.4609375 203.624336 502.4609375 234 C 502.4609375 264.37566400000003 445.8249647 289 375.9609375 289 C 306.0969103 289 249.4609375 264.37566400000003 249.4609375 234 Z" fill-opacity="0.2"/></g><g><path fill="#ffffff" stroke="none" paint-order="stroke fill markers" d=" M 242.4609375 227 C 242.4609375 196.624336 299.0969103 172 368.9609375 172 C 438.8249647 172 495.4609375 196.624336 495.4609375 227 C 495.4609375 257.37566400000003 438.8249647 282 368.9609375 282 C 299.0969103 282 242.4609375 257.37566400000003 242.4609375 227 Z"/></g><g><path fill="none" stroke="#000000" paint-order="fill stroke markers" d=" M 242.4609375 227 C 242.4609375 196.624336 299.0969103 172 368.9609375 172 C 438.8249647 172 495.4609375 196.624336 495.4609375 227 C 495.4609375 257.37566400000003 438.8249647 282 368.9609375 282 C 299.0969103 282 242.4609375 257.37566400000003 242.4609375 227 Z" stroke-miterlimit="10" stroke-dasharray=""/></g><g><g><path fill="none" stroke="none"/><text fill="#000000" stroke="none" font-family="Arial" font-size="16px" font-style="normal" font-weight="bold" text-decoration="undefined" x="378.9609375" y="213" text-anchor="middle" dominant-baseline="central" transform="matrix(1 0 0 1 -10 -10)">Покупка заморозки</text><text fill="#000000" stroke="none" font-family="Arial" font-size="16px" font-style="normal" font-weight="bold" text-decoration="undefined" x="378.9609375" y="229" text-anchor="middle" dominant-baseline="central" transform="matrix(1 0 0 1 -10 -10)">за цифровую</text><text fill="#000000" stroke="none" font-family="Arial" font-size="16px" font-style="normal" font-weight="bold" text-decoration="undefined" x="378.9609375" y="245" text-anchor="middle" dominant-baseline="central" transform="matrix(1 0 0 1 -10 -10)">валюту</text></g></g><g><g><path fill="none" stroke="none"/><text fill="#000000" stroke="none" font-family="Arial" font-size="16px" font-style="normal" font-weight="normal" text-decoration="undefined" x="378.9609375" y="263" text-anchor="middle" dominant-baseline="central" transform="matrix(1 0 0 1 -10 -10)">(from PUC: Заморозка)</text></g></g><g><path fill="#C0C0C0" stroke="none" paint-order="stroke fill markers" d=" M 249.4609375 525 C 249.4609375 488.5492032 306.0969103 459 375.9609375 459 C 445.8249647 459 502.4609375 488.5492032 502.4609375 525 C 502.4609375 561.4507968 445.8249647 591 375.9609375 591 C 306.0969103 591 249.4609375 561.4507968 249.4609375 525 Z" fill-opacity="0.2"/></g><g><path fill="#ffffff" stroke="none" paint-order="stroke fill markers" d=" M 242.4609375 518 C 242.4609375 481.5492032 299.0969103 452 368.9609375 452 C 438.8249647 452 495.4609375 481.5492032 495.4609375 518 C 495.4609375 554.4507968 438.8249647 584 368.9609375 584 C 299.0969103 584 242.4609375 554.4507968 242.4609375 518 Z"/></g><g><path fill="none" stroke="#000000" paint-order="fill stroke markers" d=" M 242.4609375 518 C 242.4609375 481.5492032 299.0969103 452 368.9609375 452 C 438.8249647 452 495.4609375 481.5492032 495.4609375 518 C 495.4609375 554.4507968 438.8249647 584 368.9609375 584 C 299.0969103 584 242.4609375 554.4507968 242.4609375 518 Z" stroke-miterlimit="10" stroke-dasharray=""/></g><g><g><path fill="none" stroke="none"/><text fill="#000000" stroke="none" font-family="Arial" font-size="16px" font-style="normal" font-weight="bold" text-decoration="undefined" x="378.9609375" y="496" text-anchor="middle" dominant-baseline="central" transform="matrix(1 0 0 1 -10 -10)">Разморозка</text><text fill="#000000" stroke="none" font-family="Arial" font-size="16px" font-style="normal" font-weight="bold" text-decoration="undefined" x="378.9609375" y="512" text-anchor="middle" dominant-baseline="central" transform="matrix(1 0 0 1 -10 -10)">челенджей по</text><text fill="#000000" stroke="none" font-family="Arial" font-size="16px" font-style="normal" font-weight="bold" text-decoration="undefined" x="378.9609375" y="528" text-anchor="middle" dominant-baseline="central" transform="matrix(1 0 0 1 -10 -10)">собственному</text><text fill="#000000" stroke="none" font-family="Arial" font-size="16px" font-style="normal" font-weight="bold" text-decoration="undefined" x="378.9609375" y="544" text-anchor="middle" dominant-baseline="central" transform="matrix(1 0 0 1 -10 -10)">желанию</text></g></g><g><g><path fill="none" stroke="none"/><text fill="#000000" stroke="none" font-family="Arial" font-size="16px" font-style="normal" font-weight="normal" text-decoration="undefined" x="378.9609375" y="562" text-anchor="middle" dominant-baseline="central" transform="matrix(1 0 0 1 -10 -10)">(from PUC: Заморозка)</text></g></g><g><path fill="#C0C0C0" stroke="none" paint-order="stroke fill markers" d=" M 249.4609375 676 C 249.4609375 645.624336 306.0969103 621 375.9609375 621 C 445.8249647 621 502.4609375 645.624336 502.4609375 676 C 502.4609375 706.375664 445.8249647 731 375.9609375 731 C 306.0969103 731 249.4609375 706.375664 249.4609375 676 Z" fill-opacity="0.2"/></g><g><path fill="#00D8B4" stroke="none" paint-order="stroke fill markers" d=" M 242.4609375 669 C 242.4609375 638.624336 299.0969103 614 368.9609375 614 C 438.8249647 614 495.4609375 638.624336 495.4609375 669 C 495.4609375 699.375664 438.8249647 724 368.9609375 724 C 299.0969103 724 242.4609375 699.375664 242.4609375 669 Z"/></g><g><path fill="none" stroke="#000000" paint-order="fill stroke markers" d=" M 242.4609375 669 C 242.4609375 638.624336 299.0969103 614 368.9609375 614 C 438.8249647 614 495.4609375 638.624336 495.4609375 669 C 495.4609375 699.375664 438.8249647 724 368.9609375 724 C 299.0969103 724 242.4609375 699.375664 242.4609375 669 Z" stroke-miterlimit="10" stroke-dasharray=""/></g><g><g><path fill="none" stroke="none"/><text fill="#000000" stroke="none" font-family="Arial" font-size="16px" font-style="normal" font-weight="bold" text-decoration="undefined" x="378.9609375" y="655" text-anchor="middle" dominant-baseline="central" transform="matrix(1 0 0 1 -10 -10)">Просмотр истории</text><text fill="#000000" stroke="none" font-family="Arial" font-size="16px" font-style="normal" font-weight="bold" text-decoration="undefined" x="378.9609375" y="671" text-anchor="middle" dominant-baseline="central" transform="matrix(1 0 0 1 -10 -10)">использования</text><text fill="#000000" stroke="none" font-family="Arial" font-size="16px" font-style="normal" font-weight="bold" text-decoration="undefined" x="378.9609375" y="687" text-anchor="middle" dominant-baseline="central" transform="matrix(1 0 0 1 -10 -10)">заморозок</text></g></g><g><g><path fill="none" stroke="none"/><text fill="#000000" stroke="none" font-family="Arial" font-size="16px" font-style="normal" font-weight="normal" text-decoration="undefined" x="378.9609375" y="705" text-anchor="middle" dominant-baseline="central" transform="matrix(1 0 0 1 -10 -10)">(from PUC: Заморозка)</text></g></g><g><path fill="#ffffff" stroke="none" paint-order="stroke fill markers" d=" M 62.89046875 703.85 C 62.89046875 698.96227952 66.848271118 695 71.73046875 695 C 76.612666382 695 80.57046875 698.96227952 80.57046875 703.85 C 80.57046875 708.73772048 76.612666382 712.7 71.73046875 712.7 C 66.848271118 712.7 62.89046875 708.73772048 62.89046875 703.85 Z"/></g><g><path fill="none" stroke="#000000" paint-order="fill stroke markers" d=" M 62.89046875 703.85 C 62.89046875 698.96227952 66.848271118 695 71.73046875 695 C 76.612666382 695 80.57046875 698.96227952 80.57046875 703.85 C 80.57046875 708.73772048 76.612666382 712.7 71.73046875 712.7 C 66.848271118 712.7 62.89046875 708.73772048 62.89046875 703.85 Z" stroke-miterlimit="10" stroke-dasharray=""/></g><g><path fill="none" stroke="#000000" paint-order="fill stroke markers" d=" M 71.73046875 712.7 L 71.73046875 730.3" stroke-miterlimit="10" stroke-dasharray=""/></g><g><path fill="none" stroke="#000000" paint-order="fill stroke markers" d=" M 62.37046875 719.3 L 81.09046875 719.3" stroke-miterlimit="10" stroke-dasharray=""/></g><g><path fill="none" stroke="#000000" paint-order="fill stroke markers" d=" M 71.73046875 730.3 L 58.73046875 748" stroke-miterlimit="10" stroke-dasharray=""/></g><g><path fill="none" stroke="#000000" paint-order="fill stroke markers" d=" M 71.73046875 730.3 L 84.73046875 748" stroke-miterlimit="10" stroke-dasharray=""/></g><g><g><path fill="none" stroke="none"/><text fill="#000000" stroke="none" font-family="Arial" font-size="16px" font-style="normal" font-weight="bold" text-decoration="undefined" x="82.23046875" y="774" text-anchor="middle" dominant-baseline="central" transform="matrix(1 0 0 1 -10 -10)">Пользователь</text></g></g><g><g><path fill="none" stroke="none"/><text fill="#000000" stroke="none" font-family="Arial" font-size="16px" font-style="normal" font-weight="normal" text-decoration="undefined" x="82.23046875" y="792" text-anchor="middle" dominant-baseline="central" transform="matrix(1 0 0 1 -10 -10)">(from Actors)</text></g></g><g><path fill="#ffffff" stroke="none" paint-order="stroke fill markers" d=" M 62.89046875 2095.6 C 62.89046875 2090.71227952 66.848271118 2086.75 71.73046875 2086.75 C 76.612666382 2086.75 80.57046875 2090.71227952 80.57046875 2095.6 C 80.57046875 2100.48772048 76.612666382 2104.45 71.73046875 2104.45 C 66.848271118 2104.45 62.89046875 2100.48772048 62.89046875 2095.6 Z"/></g><g><path fill="none" stroke="#000000" paint-order="fill stroke markers" d=" M 62.89046875 2095.6 C 62.89046875 2090.71227952 66.848271118 2086.75 71.73046875 2086.75 C 76.612666382 2086.75 80.57046875 2090.71227952 80.57046875 2095.6 C 80.57046875 2100.48772048 76.612666382 2104.45 71.73046875 2104.45 C 66.848271118 2104.45 62.89046875 2100.48772048 62.89046875 2095.6 Z" stroke-miterlimit="10" stroke-dasharray=""/></g><g><path fill="none" stroke="#000000" paint-order="fill stroke markers" d=" M 71.73046875 2104.45 L 71.73046875 2122.05" stroke-miterlimit="10" stroke-dasharray=""/></g><g><path fill="none" stroke="#000000" paint-order="fill stroke markers" d=" M 62.37046875 2111.05 L 81.09046875 2111.05" stroke-miterlimit="10" stroke-dasharray=""/></g><g><path fill="none" stroke="#000000" paint-order="fill stroke markers" d=" M 71.73046875 2122.05 L 58.73046875 2139.75" stroke-miterlimit="10" stroke-dasharray=""/></g><g><path fill="none" stroke="#000000" paint-order="fill stroke markers" d=" M 71.73046875 2122.05 L 84.73046875 2139.75" stroke-miterlimit="10" stroke-dasharray=""/></g><g><g><path fill="none" stroke="none"/><text fill="#000000" stroke="none" font-family="Arial" font-size="16px" font-style="normal" font-weight="bold" text-decoration="undefined" x="82.23046875" y="2165.75" text-anchor="middle" dominant-baseline="central" transform="matrix(1 0 0 1 -10 -10)">Система</text></g></g><g><g><path fill="none" stroke="none"/><text fill="#000000" stroke="none" font-family="Arial" font-size="16px" font-style="normal" font-weight="normal" text-decoration="undefined" x="82.23046875" y="2183.75" text-anchor="middle" dominant-baseline="central" transform="matrix(1 0 0 1 -10 -10)">(from Actors)</text></g></g><g><path fill="none" stroke="#000000" paint-order="fill stroke markers" d=" M 77 693 Q 148 76 241 76" stroke-miterlimit="10" stroke-dasharray=""/></g><g><path fill="none" stroke="#000000" paint-order="fill stroke markers" d=" M 79 693 Q 148 227 241 227" stroke-miterlimit="10" stroke-dasharray=""/></g><g><path fill="none" stroke="#000000" paint-order="fill stroke markers" d=" M 88 693 Q 148 518 241 518" stroke-miterlimit="10" stroke-dasharray=""/></g><g><path fill="none" stroke="#000000" paint-order="fill stroke markers" d=" M 123 693 Q 148 669 241 669" stroke-miterlimit="10" stroke-dasharray=""/></g><g><path fill="#C0C0C0" stroke="none" paint-order="stroke fill markers" d=" M 249.4609375 1140 C 249.4609375 1109.624336 306.0969103 1085 375.9609375 1085 C 445.8249647 1085 502.4609375 1109.624336 502.4609375 1140 C 502.4609375 1170.375664 445.8249647 1195 375.9609375 1195 C 306.0969103 1195 249.4609375 1170.375664 249.4609375 1140 Z" fill-opacity="0.2"/></g><g><path fill="#ffffff" stroke="none" paint-order="stroke fill markers" d=" M 242.4609375 1133 C 242.4609375 1102.624336 299.0969103 1078 368.9609375 1078 C 438.8249647 1078 495.4609375 1102.624336 495.4609375 1133 C 495.4609375 1163.375664 438.8249647 1188 368.9609375 1188 C 299.0969103 1188 242.4609375 1163.375664 242.4609375 1133 Z"/></g><g><path fill="none" stroke="#000000" paint-order="fill stroke markers" d=" M 242.4609375 1133 C 242.4609375 1102.624336 299.0969103 1078 368.9609375 1078 C 438.8249647 1078 495.4609375 1102.624336 495.4609375 1133 C 495.4609375 1163.375664 438.8249647 1188 368.9609375 1188 C 299.0969103 1188 242.4609375 1163.375664 242.4609375 1133 Z" stroke-miterlimit="10" stroke-dasharray=""/></g><g><g><path fill="none" stroke="none"/><text fill="#000000" stroke="none" font-family="Arial" font-size="16px" font-style="normal" font-weight="bold" text-decoration="undefined" x="378.9609375" y="1119" text-anchor="middle" dominant-baseline="central" transform="matrix(1 0 0 1 -10 -10)">Отображения</text><text fill="#000000" stroke="none" font-family="Arial" font-size="16px" font-style="normal" font-weight="bold" text-decoration="undefined" x="378.9609375" y="1135" text-anchor="middle" dominant-baseline="central" transform="matrix(1 0 0 1 -10 -10)">информации о</text><text fill="#000000" stroke="none" font-family="Arial" font-size="16px" font-style="normal" font-weight="bold" text-decoration="undefined" x="378.9609375" y="1151" text-anchor="middle" dominant-baseline="central" transform="matrix(1 0 0 1 -10 -10)">замарозке</text></g></g><g><g><path fill="none" stroke="none"/><text fill="#000000" stroke="none" font-family="Arial" font-size="16px" font-style="normal" font-weight="normal" text-decoration="undefined" x="378.9609375" y="1169" text-anchor="middle" dominant-baseline="central" transform="matrix(1 0 0 1 -10 -10)">(from PUC: Заморозка)</text></g></g><g><path fill="#C0C0C0" stroke="none" paint-order="stroke fill markers" d=" M 249.4609375 1291 C 249.4609375 1254.5492032 306.0969103 1225 375.9609375 1225 C 445.8249647 1225 502.4609375 1254.5492032 502.4609375 1291 C 502.4609375 1327.4507968 445.8249647 1357 375.9609375 1357 C 306.0969103 1357 249.4609375 1327.4507968 249.4609375 1291 Z" fill-opacity="0.2"/></g><g><path fill="#ffffff" stroke="none" paint-order="stroke fill markers" d=" M 242.4609375 1284 C 242.4609375 1247.5492032 299.0969103 1218 368.9609375 1218 C 438.8249647 1218 495.4609375 1247.5492032 495.4609375 1284 C 495.4609375 1320.4507968 438.8249647 1350 368.9609375 1350 C 299.0969103 1350 242.4609375 1320.4507968 242.4609375 1284 Z"/></g><g><path fill="none" stroke="#000000" paint-order="fill stroke markers" d=" M 242.4609375 1284 C 242.4609375 1247.5492032 299.0969103 1218 368.9609375 1218 C 438.8249647 1218 495.4609375 1247.5492032 495.4609375 1284 C 495.4609375 1320.4507968 438.8249647 1350 368.9609375 1350 C 299.0969103 1350 242.4609375 1320.4507968 242.4609375 1284 Z" stroke-miterlimit="10" stroke-dasharray=""/></g><g><g><path fill="none" stroke="none"/><text fill="#000000" stroke="none" font-family="Arial" font-size="16px" font-style="normal" font-weight="bold" text-decoration="undefined" x="378.9609375" y="1262" text-anchor="middle" dominant-baseline="central" transform="matrix(1 0 0 1 -10 -10)">Отображать</text><text fill="#000000" stroke="none" font-family="Arial" font-size="16px" font-style="normal" font-weight="bold" text-decoration="undefined" x="378.9609375" y="1278" text-anchor="middle" dominant-baseline="central" transform="matrix(1 0 0 1 -10 -10)">челленджи которые</text><text fill="#000000" stroke="none" font-family="Arial" font-size="16px" font-style="normal" font-weight="bold" text-decoration="undefined" x="378.9609375" y="1294" text-anchor="middle" dominant-baseline="central" transform="matrix(1 0 0 1 -10 -10)">заморожены в</text><text fill="#000000" stroke="none" font-family="Arial" font-size="16px" font-style="normal" font-weight="bold" text-decoration="undefined" x="378.9609375" y="1310" text-anchor="middle" dominant-baseline="central" transform="matrix(1 0 0 1 -10 -10)">данный момент</text></g></g><g><g><path fill="none" stroke="none"/><text fill="#000000" stroke="none" font-family="Arial" font-size="16px" font-style="normal" font-weight="normal" text-decoration="undefined" x="378.9609375" y="1328" text-anchor="middle" dominant-baseline="central" transform="matrix(1 0 0 1 -10 -10)">(from PUC: Заморозка)</text></g></g><g><path fill="none" stroke="#000000" paint-order="fill stroke markers" d=" M 81 796 Q 148 1133 241 1133" stroke-miterlimit="10" stroke-dasharray=""/></g><g><path fill="none" stroke="#000000" paint-order="fill stroke markers" d=" M 78 796 Q 148 1284 241 1284" stroke-miterlimit="10" stroke-dasharray=""/></g><g><path fill="#C0C0C0" stroke="none" paint-order="stroke fill markers" d=" M 249.4609375 1453 C 249.4609375 1416.5492032 306.0969103 1387 375.9609375 1387 C 445.8249647 1387 502.4609375 1416.5492032 502.4609375 1453 C 502.4609375 1489.4507968 445.8249647 1519 375.9609375 1519 C 306.0969103 1519 249.4609375 1489.4507968 249.4609375 1453 Z" fill-opacity="0.2"/></g><g><path fill="#ffffff" stroke="none" paint-order="stroke fill markers" d=" M 242.4609375 1446 C 242.4609375 1409.5492032 299.0969103 1380 368.9609375 1380 C 438.8249647 1380 495.4609375 1409.5492032 495.4609375 1446 C 495.4609375 1482.4507968 438.8249647 1512 368.9609375 1512 C 299.0969103 1512 242.4609375 1482.4507968 242.4609375 1446 Z"/></g><g><path fill="none" stroke="#000000" paint-order="fill stroke markers" d=" M 242.4609375 1446 C 242.4609375 1409.5492032 299.0969103 1380 368.9609375 1380 C 438.8249647 1380 495.4609375 1409.5492032 495.4609375 1446 C 495.4609375 1482.4507968 438.8249647 1512 368.9609375 1512 C 299.0969103 1512 242.4609375 1482.4507968 242.4609375 1446 Z" stroke-miterlimit="10" stroke-dasharray=""/></g><g><g><path fill="none" stroke="none"/><text fill="#000000" stroke="none" font-family="Arial" font-size="16px" font-style="normal" font-weight="bold" text-decoration="undefined" x="378.9609375" y="1424" text-anchor="middle" dominant-baseline="central" transform="matrix(1 0 0 1 -10 -10)">Отображение</text><text fill="#000000" stroke="none" font-family="Arial" font-size="16px" font-style="normal" font-weight="bold" text-decoration="undefined" x="378.9609375" y="1440" text-anchor="middle" dominant-baseline="central" transform="matrix(1 0 0 1 -10 -10)">участников которые</text><text fill="#000000" stroke="none" font-family="Arial" font-size="16px" font-style="normal" font-weight="bold" text-decoration="undefined" x="378.9609375" y="1456" text-anchor="middle" dominant-baseline="central" transform="matrix(1 0 0 1 -10 -10)">находятся в</text><text fill="#000000" stroke="none" font-family="Arial" font-size="16px" font-style="normal" font-weight="bold" text-decoration="undefined" x="378.9609375" y="1472" text-anchor="middle" dominant-baseline="central" transform="matrix(1 0 0 1 -10 -10)">заморозке</text></g></g><g><g><path fill="none" stroke="none"/><text fill="#000000" stroke="none" font-family="Arial" font-size="16px" font-style="normal" font-weight="normal" text-decoration="undefined" x="378.9609375" y="1490" text-anchor="middle" dominant-baseline="central" transform="matrix(1 0 0 1 -10 -10)">(from PUC: Заморозка)</text></g></g><g><path fill="none" stroke="#000000" paint-order="fill stroke markers" d=" M 77 796 Q 148 1446 241 1446" stroke-miterlimit="10" stroke-dasharray=""/></g><g><path fill="#C0C0C0" stroke="none" paint-order="stroke fill markers" d=" M 170.4609375 2231 C 170.4609375 2200.624336 227.0969103 2176 296.9609375 2176 C 366.8249647 2176 423.4609375 2200.624336 423.4609375 2231 C 423.4609375 2261.375664 366.8249647 2286 296.9609375 2286 C 227.0969103 2286 170.4609375 2261.375664 170.4609375 2231 Z" fill-opacity="0.2"/></g><g><path fill="#ffffff" stroke="none" paint-order="stroke fill markers" d=" M 163.4609375 2224 C 163.4609375 2193.624336 220.0969103 2169 289.9609375 2169 C 359.8249647 2169 416.4609375 2193.624336 416.4609375 2224 C 416.4609375 2254.375664 359.8249647 2279 289.9609375 2279 C 220.0969103 2279 163.4609375 2254.375664 163.4609375 2224 Z"/></g><g><path fill="none" stroke="#000000" paint-order="fill stroke markers" d=" M 163.4609375 2224 C 163.4609375 2193.624336 220.0969103 2169 289.9609375 2169 C 359.8249647 2169 416.4609375 2193.624336 416.4609375 2224 C 416.4609375 2254.375664 359.8249647 2279 289.9609375 2279 C 220.0969103 2279 163.4609375 2254.375664 163.4609375 2224 Z" stroke-miterlimit="10" stroke-dasharray=""/></g><g><g><path fill="none" stroke="none"/><text fill="#000000" stroke="none" font-family="Arial" font-size="16px" font-style="normal" font-weight="bold" text-decoration="undefined" x="299.9609375" y="2210" text-anchor="middle" dominant-baseline="central" transform="matrix(1 0 0 1 -10 -10)">Начисление</text><text fill="#000000" stroke="none" font-family="Arial" font-size="16px" font-style="normal" font-weight="bold" text-decoration="undefined" x="299.9609375" y="2226" text-anchor="middle" dominant-baseline="central" transform="matrix(1 0 0 1 -10 -10)">бесплатной</text><text fill="#000000" stroke="none" font-family="Arial" font-size="16px" font-style="normal" font-weight="bold" text-decoration="undefined" x="299.9609375" y="2242" text-anchor="middle" dominant-baseline="central" transform="matrix(1 0 0 1 -10 -10)">заморозки</text></g></g><g><g><path fill="none" stroke="none"/><text fill="#000000" stroke="none" font-family="Arial" font-size="16px" font-style="normal" font-weight="normal" text-decoration="undefined" x="299.9609375" y="2260" text-anchor="middle" dominant-baseline="central" transform="matrix(1 0 0 1 -10 -10)">(from PUC: Заморозка)</text></g></g><g><path fill="none" stroke="#000000" paint-order="fill stroke markers" d=" M 124 2172 Q 148 2189 162 2193" stroke-miterlimit="10" stroke-dasharray=""/></g><g><path fill="#ffffff" stroke="none" paint-order="stroke fill markers" d=" M 530 1574 L 861 1574 L 871 1584 L 871 1635 L 530 1635 L 530 1574"/></g><g><path fill="none" stroke="#000000" paint-order="fill stroke markers" d=" M 530 1574 L 861 1574 L 871 1584 L 871 1635 L 530 1635 L 530 1574 L 530 1574" stroke-miterlimit="10" stroke-dasharray=""/></g><g><path fill="none" stroke="#000000" paint-order="fill stroke markers" d=" M 861 1574 L 861 1584 L 871 1584 L 861 1574" stroke-miterlimit="10" stroke-dasharray=""/></g><g><g><path fill="none" stroke="none"/><text fill="#000000" stroke="none" font-family="Arial" font-size="16px" font-style="normal" font-weight="normal" text-decoration="undefined" x="545" y="1589" text-anchor="start" dominant-baseline="text-before-edge" transform="matrix(1 0 0 1 -10 -10)">Вопрос: Что если все заморозятся в группе?</text></g></g><g><g><path fill="none" stroke="none"/><text fill="#000000" stroke="none" font-family="Arial" font-size="16px" font-style="normal" font-weight="normal" text-decoration="undefined" x="545" y="1607" text-anchor="start" dominant-baseline="text-before-edge" transform="matrix(1 0 0 1 -10 -10)">Ответ: Группа будет дальше существовать</text></g></g></g></svg>