<svg version="1.1" xmlns="http://www.w3.org/2000/svg" xmlns:xlink="http://www.w3.org/1999/xlink" width="1208" height="776"><defs/><g><g><rect fill="#ffffff" stroke="none" x="306" y="72" width="306" height="36" transform="matrix(1 0 0 1 -242 -44)"/></g><g><path fill="#ffffff" stroke="none" paint-order="stroke fill markers" d=" M 370 28 A 18 18 0 0 1 370 64"/></g><g><path fill="none" stroke="#000000" paint-order="fill stroke markers" d=" M 64 28 L 64 64" stroke-miterlimit="10" stroke-dasharray=""/></g><g><path fill="none" stroke="#000000" paint-order="fill stroke markers" d=" M 64 28 L 370 28" stroke-miterlimit="10" stroke-dasharray=""/></g><g><path fill="none" stroke="#000000" paint-order="fill stroke markers" d=" M 64 64 L 370 64" stroke-miterlimit="10" stroke-dasharray=""/></g><g><path fill="none" stroke="#000000" paint-order="fill stroke markers" d=" M 370 28 A 18 18 0 0 1 370 64" stroke-miterlimit="10" stroke-dasharray=""/></g><g><g><path fill="none" stroke="none"/><text fill="#000000" stroke="none" font-family="Arial" font-size="16px" font-style="normal" font-weight="normal" text-decoration="undefined" x="437.5" y="90" text-anchor="middle" dominant-baseline="central" transform="matrix(1 0 0 1 -242 -44)">GET /accounts/me/invitations</text></g></g><g><path fill="#ffffff" stroke="#000000" paint-order="fill stroke markers" d=" M 478 44 L 501 10 L 598.484375 10 Q 621.484375 10 621.484375 44 Q 621.484375 78 598.484375 78 L 501 78 L 478 44 Z" stroke-miterlimit="10" stroke-dasharray=""/></g><g><g><path fill="none" stroke="none"/><text fill="#000000" stroke="none" font-family="Arial" font-size="16px" font-style="normal" font-weight="normal" text-decoration="undefined" x="791.7421875" y="72" text-anchor="middle" dominant-baseline="central" transform="matrix(1 0 0 1 -242 -44)">Заголовки</text><text fill="#000000" stroke="none" font-family="Arial" font-size="16px" font-style="normal" font-weight="normal" text-decoration="undefined" x="791.7421875" y="88" text-anchor="middle" dominant-baseline="central" transform="matrix(1 0 0 1 -242 -44)">запроса</text><text fill="#000000" stroke="none" font-family="Arial" font-size="16px" font-style="normal" font-weight="normal" text-decoration="undefined" x="791.7421875" y="104" text-anchor="middle" dominant-baseline="central" transform="matrix(1 0 0 1 -242 -44)">(Авторизирован)</text></g></g><g><path fill="#ffffff" stroke="none" paint-order="stroke fill markers" d=" M 73 136 L 388 136 L 325 172 L 10 172 L 73 136"/></g><g><path fill="none" stroke="#000000" paint-order="fill stroke markers" d=" M 73 136 L 388 136 L 325 172 L 10 172 L 73 136 L 73 136" stroke-miterlimit="10" stroke-dasharray=""/></g><g><g><path fill="none" stroke="none"/><text fill="#000000" stroke="none" font-family="Arial" font-size="16px" font-style="normal" font-weight="normal" text-decoration="undefined" x="441" y="198" text-anchor="middle" dominant-baseline="central" transform="matrix(1 0 0 1 -242 -44)">GetAccountMeInvitationRequest</text></g></g><g><path fill="#ffffff" stroke="none" paint-order="stroke fill markers" d=" M 82 292 L 190 244 L 298 292 L 190 340 L 82 292"/></g><g><path fill="none" stroke="#000000" paint-order="fill stroke markers" d=" M 82 292 L 190 244 L 298 292 L 190 340 L 82 292 L 82 292" stroke-miterlimit="10" stroke-dasharray=""/></g><g><g><path fill="none" stroke="none"/><text fill="#000000" stroke="none" font-family="Arial" font-size="16px" font-style="normal" font-weight="normal" text-decoration="undefined" x="432" y="320" text-anchor="middle" dominant-baseline="central" transform="matrix(1 0 0 1 -242 -44)">Chellenge in</text><text fill="#000000" stroke="none" font-family="Arial" font-size="16px" font-style="normal" font-weight="normal" text-decoration="undefined" x="432" y="336" text-anchor="middle" dominant-baseline="central" transform="matrix(1 0 0 1 -242 -44)">Types OR</text><text fill="#000000" stroke="none" font-family="Arial" font-size="16px" font-style="normal" font-weight="normal" text-decoration="undefined" x="432" y="352" text-anchor="middle" dominant-baseline="central" transform="matrix(1 0 0 1 -242 -44)">Types is empty</text></g></g><g><path fill="#ffffff" stroke="none" paint-order="stroke fill markers" d=" M 64 472 L 181 424 L 298 472 L 181 520 L 64 472"/></g><g><path fill="none" stroke="#000000" paint-order="fill stroke markers" d=" M 64 472 L 181 424 L 298 472 L 181 520 L 64 472 L 64 472" stroke-miterlimit="10" stroke-dasharray=""/></g><g><g><path fill="none" stroke="none"/><text fill="#000000" stroke="none" font-family="Arial" font-size="16px" font-style="normal" font-weight="normal" text-decoration="undefined" x="423" y="500" text-anchor="middle" dominant-baseline="central" transform="matrix(1 0 0 1 -242 -44)">Comunity in</text><text fill="#000000" stroke="none" font-family="Arial" font-size="16px" font-style="normal" font-weight="normal" text-decoration="undefined" x="423" y="516" text-anchor="middle" dominant-baseline="central" transform="matrix(1 0 0 1 -242 -44)">Types OR</text><text fill="#000000" stroke="none" font-family="Arial" font-size="16px" font-style="normal" font-weight="normal" text-decoration="undefined" x="423" y="532" text-anchor="middle" dominant-baseline="central" transform="matrix(1 0 0 1 -242 -44)">Types is empty</text></g></g><g><rect fill="#ffffff" stroke="none" x="612" y="324" width="252" height="36" transform="matrix(1 0 0 1 -242 -44)"/></g><g><path fill="none" stroke="#000000" paint-order="fill stroke markers" d=" M 370 280 L 622 280 L 622 316 L 370 316 L 370 280 Z Z" stroke-miterlimit="10" stroke-dasharray=""/></g><g><g><path fill="none" stroke="none"/><text fill="#000000" stroke="none" font-family="Arial" font-size="16px" font-style="normal" font-weight="normal" text-decoration="undefined" x="738" y="342" text-anchor="middle" dominant-baseline="central" transform="matrix(1 0 0 1 -242 -44)">Выборка по челленджам</text></g></g><g><rect fill="#ffffff" stroke="none" x="612" y="486" width="252" height="36" transform="matrix(1 0 0 1 -242 -44)"/></g><g><path fill="none" stroke="#000000" paint-order="fill stroke markers" d=" M 370 442 L 622 442 L 622 478 L 370 478 L 370 442 Z Z" stroke-miterlimit="10" stroke-dasharray=""/></g><g><g><path fill="none" stroke="none"/><text fill="#000000" stroke="none" font-family="Arial" font-size="16px" font-style="normal" font-weight="normal" text-decoration="undefined" x="738" y="504" text-anchor="middle" dominant-baseline="central" transform="matrix(1 0 0 1 -242 -44)">Выборка по сообществам</text></g></g><g><path fill="#ffffff" stroke="none" paint-order="stroke fill markers" d=" M 100 730 L 370 730 L 316 766 L 46 766 L 100 730"/></g><g><path fill="none" stroke="#000000" paint-order="fill stroke markers" d=" M 100 730 L 370 730 L 316 766 L 46 766 L 100 730 L 100 730" stroke-miterlimit="10" stroke-dasharray=""/></g><g><g><path fill="none" stroke="none"/><text fill="#000000" stroke="none" font-family="Arial" font-size="16px" font-style="normal" font-weight="normal" text-decoration="undefined" x="450" y="792" text-anchor="middle" dominant-baseline="central" transform="matrix(1 0 0 1 -242 -44)">GetAccountMeInvitationResponse</text></g></g><g><path fill="#ffffff" stroke="none" paint-order="stroke fill markers" d=" M 547 568 L 802 568 L 751 604 L 496 604 L 547 568"/></g><g><path fill="none" stroke="#000000" paint-order="fill stroke markers" d=" M 547 568 L 802 568 L 751 604 L 496 604 L 547 568 L 547 568" stroke-miterlimit="10" stroke-dasharray=""/></g><g><g><path fill="none" stroke="none"/><text fill="#000000" stroke="none" font-family="Arial" font-size="16px" font-style="normal" font-weight="normal" text-decoration="undefined" x="891" y="630" text-anchor="middle" dominant-baseline="central" transform="matrix(1 0 0 1 -242 -44)">ChallengeInvitationDTO</text></g></g><g><path fill="#ffffff" stroke="none" paint-order="stroke fill markers" d=" M 541 640 L 766 640 L 721 676 L 496 676 L 541 640"/></g><g><path fill="none" stroke="#000000" paint-order="fill stroke markers" d=" M 541 640 L 766 640 L 721 676 L 496 676 L 541 640 L 541 640" stroke-miterlimit="10" stroke-dasharray=""/></g><g><g><path fill="none" stroke="none"/><text fill="#000000" stroke="none" font-family="Arial" font-size="16px" font-style="normal" font-weight="normal" text-decoration="undefined" x="873" y="702" text-anchor="middle" dominant-baseline="central" transform="matrix(1 0 0 1 -242 -44)">ComunityInvationDTO</text></g></g><g><path fill="#ffffff" stroke="none" paint-order="stroke fill markers" d=" M 943 568 L 1198 568 L 1147 604 L 892 604 L 943 568"/></g><g><path fill="none" stroke="#000000" paint-order="fill stroke markers" d=" M 943 568 L 1198 568 L 1147 604 L 892 604 L 943 568 L 943 568" stroke-miterlimit="10" stroke-dasharray=""/></g><g><g><path fill="none" stroke="none"/><text fill="#000000" stroke="none" font-family="Arial" font-size="16px" font-style="normal" font-weight="normal" text-decoration="undefined" x="1287" y="630" text-anchor="middle" dominant-baseline="central" transform="matrix(1 0 0 1 -242 -44)">AInvitationDTO</text></g></g><g><path fill="none" stroke="#000000" paint-order="fill stroke markers" d=" M 802 586 L 892 586" stroke-miterlimit="10" stroke-dasharray=""/></g><g><path fill="#000000" stroke="none" paint-order="stroke fill markers" d=" M 881.8373251423759 590.209517756016 L 892 586 L 881.8373251423759 581.790482243984"/></g><g><path fill="none" stroke="#000000" paint-order="fill stroke markers" d=" M 881.8373251423759 590.209517756016 L 892 586 L 881.8373251423759 581.790482243984 L 881.8373251423759 590.209517756016" stroke-miterlimit="10" stroke-dasharray=""/></g><g><path fill="none" stroke="#000000" paint-order="fill stroke markers" d=" M 766 652 L 884 652 L 884 652 A 8 8 0 0 0 892 644 L 892 604" stroke-miterlimit="10" stroke-dasharray=""/></g><g><path fill="#000000" stroke="none" paint-order="stroke fill markers" d=" M 896.2095177560159 614.1626748576241 L 892 604 L 887.7904822439841 614.1626748576241"/></g><g><path fill="none" stroke="#000000" paint-order="fill stroke markers" d=" M 896.2095177560159 614.1626748576241 L 892 604 L 887.7904822439841 614.1626748576241 L 896.2095177560159 614.1626748576241" stroke-miterlimit="10" stroke-dasharray=""/></g><g><path fill="none" stroke="#000000" paint-order="fill stroke markers" d=" M 496 604 L 450 604 L 450 604 A 8 8 0 0 0 442 612 L 442 722 L 442 722 A 8 8 0 0 1 434 730 L 370 730" stroke-miterlimit="10" stroke-dasharray=""/></g><g><path fill="#000000" stroke="none" paint-order="stroke fill markers" d=" M 380.1626748576241 725.790482243984 L 370 730 L 380.1626748576241 734.209517756016"/></g><g><path fill="none" stroke="#000000" paint-order="fill stroke markers" d=" M 380.1626748576241 725.790482243984 L 370 730 L 380.1626748576241 734.209517756016 L 380.1626748576241 725.790482243984" stroke-miterlimit="10" stroke-dasharray=""/></g><g><path fill="none" stroke="#000000" paint-order="fill stroke markers" d=" M 546 676 L 546 722 L 546 722 A 8 8 0 0 1 538 730 L 370 730" stroke-miterlimit="10" stroke-dasharray=""/></g><g><path fill="#000000" stroke="none" paint-order="stroke fill markers" d=" M 380.1626748576241 725.790482243984 L 370 730 L 380.1626748576241 734.209517756016"/></g><g><path fill="none" stroke="#000000" paint-order="fill stroke markers" d=" M 380.1626748576241 725.790482243984 L 370 730 L 380.1626748576241 734.209517756016 L 380.1626748576241 725.790482243984" stroke-miterlimit="10" stroke-dasharray=""/></g><g><path fill="none" stroke="#000000" paint-order="fill stroke markers" d=" M 201 520 L 201 730" stroke-miterlimit="10" stroke-dasharray=""/></g><g><path fill="#000000" stroke="none" paint-order="stroke fill markers" d=" M 196.790482243984 719.8373251423759 L 201 730 L 205.209517756016 719.8373251423759"/></g><g><path fill="none" stroke="#000000" paint-order="fill stroke markers" d=" M 196.790482243984 719.8373251423759 L 201 730 L 205.209517756016 719.8373251423759 L 196.790482243984 719.8373251423759" stroke-miterlimit="10" stroke-dasharray=""/></g><g><rect fill="#ffffff" stroke="none" x="442" y="660" width="32" height="16" transform="matrix(1 0 0 1 -242 -44)"/></g><g><g><path fill="none" stroke="none"/><text fill="#000000" stroke="none" font-family="Arial" font-size="16px" font-style="normal" font-weight="normal" text-decoration="undefined" x="458" y="668" text-anchor="middle" dominant-baseline="central" transform="matrix(1 0 0 1 -242 -44)">НЕТ</text></g></g><g><path fill="none" stroke="#000000" paint-order="fill stroke markers" d=" M 298 467 L 370 467" stroke-miterlimit="10" stroke-dasharray=""/></g><g><path fill="#000000" stroke="none" paint-order="stroke fill markers" d=" M 359.8373251423759 471.209517756016 L 370 467 L 359.8373251423758 462.790482243984"/></g><g><path fill="none" stroke="#000000" paint-order="fill stroke markers" d=" M 359.8373251423759 471.209517756016 L 370 467 L 359.8373251423758 462.790482243984 L 359.8373251423759 471.209517756016" stroke-miterlimit="10" stroke-dasharray=""/></g><g><rect fill="#ffffff" stroke="none" x="565" y="488" width="22.46875" height="16" transform="matrix(1 0 0 1 -242 -44)"/></g><g><g><path fill="none" stroke="none"/><text fill="#000000" stroke="none" font-family="Arial" font-size="16px" font-style="normal" font-weight="normal" text-decoration="undefined" x="576.234375" y="496" text-anchor="middle" dominant-baseline="central" transform="matrix(1 0 0 1 -242 -44)">ДА</text></g></g><g><path fill="none" stroke="#000000" paint-order="fill stroke markers" d=" M 406 478 L 406 722 L 406 722 A 8 8 0 0 1 398 730 L 370 730" stroke-miterlimit="10" stroke-dasharray=""/></g><g><path fill="#000000" stroke="none" paint-order="stroke fill markers" d=" M 380.1626748576241 725.790482243984 L 370 730 L 380.1626748576241 734.209517756016"/></g><g><path fill="none" stroke="#000000" paint-order="fill stroke markers" d=" M 380.1626748576241 725.790482243984 L 370 730 L 380.1626748576241 734.209517756016 L 380.1626748576241 725.790482243984" stroke-miterlimit="10" stroke-dasharray=""/></g><g><path fill="none" stroke="#000000" paint-order="fill stroke markers" d=" M 192 340 L 192 424" stroke-miterlimit="10" stroke-dasharray=""/></g><g><path fill="#000000" stroke="none" paint-order="stroke fill markers" d=" M 187.790482243984 413.83732514237585 L 192 424 L 196.209517756016 413.83732514237585"/></g><g><path fill="none" stroke="#000000" paint-order="fill stroke markers" d=" M 187.790482243984 413.83732514237585 L 192 424 L 196.209517756016 413.83732514237585 L 187.790482243984 413.83732514237585" stroke-miterlimit="10" stroke-dasharray=""/></g><g><rect fill="#ffffff" stroke="none" x="432" y="417" width="32" height="16" transform="matrix(1 0 0 1 -242 -44)"/></g><g><g><path fill="none" stroke="none"/><text fill="#000000" stroke="none" font-family="Arial" font-size="16px" font-style="normal" font-weight="normal" text-decoration="undefined" x="448" y="425" text-anchor="middle" dominant-baseline="central" transform="matrix(1 0 0 1 -242 -44)">НЕТ</text></g></g><g><path fill="none" stroke="#000000" paint-order="fill stroke markers" d=" M 298 296 L 370 296" stroke-miterlimit="10" stroke-dasharray=""/></g><g><path fill="#000000" stroke="none" paint-order="stroke fill markers" d=" M 359.8373251423759 300.209517756016 L 370 296 L 359.8373251423758 291.790482243984"/></g><g><path fill="none" stroke="#000000" paint-order="fill stroke markers" d=" M 359.8373251423759 300.209517756016 L 370 296 L 359.8373251423758 291.790482243984 L 359.8373251423759 300.209517756016" stroke-miterlimit="10" stroke-dasharray=""/></g><g><rect fill="#ffffff" stroke="none" x="565" y="317" width="22.46875" height="16" transform="matrix(1 0 0 1 -242 -44)"/></g><g><g><path fill="none" stroke="none"/><text fill="#000000" stroke="none" font-family="Arial" font-size="16px" font-style="normal" font-weight="normal" text-decoration="undefined" x="576.234375" y="325" text-anchor="middle" dominant-baseline="central" transform="matrix(1 0 0 1 -242 -44)">ДА</text></g></g><g><path fill="none" stroke="#000000" paint-order="fill stroke markers" d=" M 465 316 L 465 416 L 465 416 A 8 8 0 0 1 457 424 L 298 424" stroke-miterlimit="10" stroke-dasharray=""/></g><g><path fill="#000000" stroke="none" paint-order="stroke fill markers" d=" M 308.1626748576241 419.790482243984 L 298 424 L 308.1626748576241 428.209517756016"/></g><g><path fill="none" stroke="#000000" paint-order="fill stroke markers" d=" M 308.1626748576241 419.790482243984 L 298 424 L 308.1626748576241 428.209517756016 L 308.1626748576241 419.790482243984" stroke-miterlimit="10" stroke-dasharray=""/></g><g><path fill="none" stroke="#000000" paint-order="fill stroke markers" d=" M 222 64 L 222 136" stroke-miterlimit="10" stroke-dasharray=""/></g><g><path fill="#000000" stroke="none" paint-order="stroke fill markers" d=" M 217.790482243984 125.83732514237585 L 222 136 L 226.209517756016 125.83732514237585"/></g><g><path fill="none" stroke="#000000" paint-order="fill stroke markers" d=" M 217.790482243984 125.83732514237585 L 222 136 L 226.209517756016 125.83732514237585 L 217.790482243984 125.83732514237585" stroke-miterlimit="10" stroke-dasharray=""/></g><g><path fill="none" stroke="#000000" paint-order="fill stroke markers" d=" M 198 172 L 198 244" stroke-miterlimit="10" stroke-dasharray=""/></g><g><path fill="#000000" stroke="none" paint-order="stroke fill markers" d=" M 193.790482243984 233.83732514237585 L 198 244 L 202.209517756016 233.83732514237585"/></g><g><path fill="none" stroke="#000000" paint-order="fill stroke markers" d=" M 193.790482243984 233.83732514237585 L 198 244 L 202.209517756016 233.83732514237585 L 193.790482243984 233.83732514237585" stroke-miterlimit="10" stroke-dasharray=""/></g><g><path fill="none" stroke="#000000" paint-order="fill stroke markers" d=" M 478 78 L 478 128 L 478 128 A 8 8 0 0 1 470 136 L 388 136" stroke-miterlimit="10" stroke-dasharray=""/></g><g><path fill="#000000" stroke="none" paint-order="stroke fill markers" d=" M 398.1626748576241 131.790482243984 L 388 136 L 398.1626748576241 140.209517756016"/></g><g><path fill="none" stroke="#000000" paint-order="fill stroke markers" d=" M 398.1626748576241 131.790482243984 L 388 136 L 398.1626748576241 140.209517756016 L 398.1626748576241 131.790482243984" stroke-miterlimit="10" stroke-dasharray=""/></g></g></svg>