<svg version="1.1" xmlns="http://www.w3.org/2000/svg" xmlns:xlink="http://www.w3.org/1999/xlink" width="577.484375" height="578"><defs/><g><g><rect fill="#ffffff" stroke="none" x="342" y="90" width="280" height="52" transform="matrix(1 0 0 1 -296 -62)"/></g><g><path fill="#ffffff" stroke="none" paint-order="stroke fill markers" d=" M 326 28 A 26 26 0 0 1 326 80"/></g><g><path fill="none" stroke="#000000" paint-order="fill stroke markers" d=" M 46 28 L 46 80" stroke-miterlimit="10" stroke-dasharray=""/></g><g><path fill="none" stroke="#000000" paint-order="fill stroke markers" d=" M 46 28 L 326 28" stroke-miterlimit="10" stroke-dasharray=""/></g><g><path fill="none" stroke="#000000" paint-order="fill stroke markers" d=" M 46 80 L 326 80" stroke-miterlimit="10" stroke-dasharray=""/></g><g><path fill="none" stroke="#000000" paint-order="fill stroke markers" d=" M 326 28 A 26 26 0 0 1 326 80" stroke-miterlimit="10" stroke-dasharray=""/></g><g><g><path fill="none" stroke="none"/><text fill="#000000" stroke="none" font-family="Arial" font-size="16px" font-style="normal" font-weight="normal" text-decoration="undefined" x="466.75" y="108" text-anchor="middle" dominant-baseline="central" transform="matrix(1 0 0 1 -296 -62)">POST</text><text fill="#000000" stroke="none" font-family="Arial" font-size="16px" font-style="normal" font-weight="normal" text-decoration="undefined" x="466.75" y="124" text-anchor="middle" dominant-baseline="central" transform="matrix(1 0 0 1 -296 -62)">/challenges/{challengeId}/invitations</text></g></g><g><path fill="#ffffff" stroke="#000000" paint-order="fill stroke markers" d=" M 424 44 L 447 10 L 544.484375 10 Q 567.484375 10 567.484375 44 Q 567.484375 78 544.484375 78 L 447 78 L 424 44 Z" stroke-miterlimit="10" stroke-dasharray=""/></g><g><g><path fill="none" stroke="none"/><text fill="#000000" stroke="none" font-family="Arial" font-size="16px" font-style="normal" font-weight="normal" text-decoration="undefined" x="791.7421875" y="90" text-anchor="middle" dominant-baseline="central" transform="matrix(1 0 0 1 -296 -62)">Заголовки</text><text fill="#000000" stroke="none" font-family="Arial" font-size="16px" font-style="normal" font-weight="normal" text-decoration="undefined" x="791.7421875" y="106" text-anchor="middle" dominant-baseline="central" transform="matrix(1 0 0 1 -296 -62)">запроса</text><text fill="#000000" stroke="none" font-family="Arial" font-size="16px" font-style="normal" font-weight="normal" text-decoration="undefined" x="791.7421875" y="122" text-anchor="middle" dominant-baseline="central" transform="matrix(1 0 0 1 -296 -62)">(Авторизирован)</text></g></g><g><path fill="#ffffff" stroke="none" paint-order="stroke fill markers" d=" M 85 136 L 370 136 L 313 172 L 28 172 L 85 136"/></g><g><path fill="none" stroke="#000000" paint-order="fill stroke markers" d=" M 85 136 L 370 136 L 313 172 L 28 172 L 85 136 L 85 136" stroke-miterlimit="10" stroke-dasharray=""/></g><g><g><path fill="none" stroke="none"/><text fill="#000000" stroke="none" font-family="Arial" font-size="16px" font-style="normal" font-weight="normal" text-decoration="undefined" x="495" y="216" text-anchor="middle" dominant-baseline="central" transform="matrix(1 0 0 1 -296 -62)">PostChallengeInvitionRequest</text></g></g><g><path fill="#ffffff" stroke="none" paint-order="stroke fill markers" d=" M 28 208 L 384.6328125 208 Q 402.6328125 208 402.6328125 226 L 402.6328125 226 Q 402.6328125 244 384.6328125 244 L 28 244 Q 10 244 10 226 L 10 226 Q 10 208 28 208 Z"/></g><g><path fill="none" stroke="#000000" paint-order="fill stroke markers" d=" M 28 208 L 384.6328125 208 Q 402.6328125 208 402.6328125 226 L 402.6328125 226 Q 402.6328125 244 384.6328125 244 L 28 244 Q 10 244 10 226 L 10 226 Q 10 208 28 208 Z" stroke-miterlimit="10" stroke-dasharray=""/></g><g><g><path fill="none" stroke="none"/><text fill="#000000" stroke="none" font-family="Arial" font-size="16px" font-style="normal" font-weight="normal" text-decoration="undefined" x="502.31640625" y="288" text-anchor="middle" dominant-baseline="central" transform="matrix(1 0 0 1 -296 -62)">Роль пользователя в челлендже "Администратор"</text></g></g><g><path fill="#ffffff" stroke="none" paint-order="stroke fill markers" d=" M 54 352 L 362 352 Q 388 352 388 378 L 388 378 Q 388 404 362 404 L 54 404 Q 28 404 28 378 L 28 378 Q 28 352 54 352 Z"/></g><g><path fill="none" stroke="#000000" paint-order="fill stroke markers" d=" M 54 352 L 362 352 Q 388 352 388 378 L 388 378 Q 388 404 362 404 L 54 404 Q 28 404 28 378 L 28 378 Q 28 352 54 352 Z" stroke-miterlimit="10" stroke-dasharray=""/></g><g><g><path fill="none" stroke="none"/><text fill="#000000" stroke="none" font-family="Arial" font-size="16px" font-style="normal" font-weight="normal" text-decoration="undefined" x="504" y="432" text-anchor="middle" dominant-baseline="central" transform="matrix(1 0 0 1 -296 -62)">У указаного аккаунта нету активных</text><text fill="#000000" stroke="none" font-family="Arial" font-size="16px" font-style="normal" font-weight="normal" text-decoration="undefined" x="504" y="448" text-anchor="middle" dominant-baseline="central" transform="matrix(1 0 0 1 -296 -62)">приглашений на вступление в этот челлендж</text></g></g><g><path fill="#ffffff" stroke="none" paint-order="stroke fill markers" d=" M 28 280 L 385.828125 280 Q 403.828125 280 403.828125 298 L 403.828125 298 Q 403.828125 316 385.828125 316 L 28 316 Q 10 316 10 298 L 10 298 Q 10 280 28 280 Z"/></g><g><path fill="none" stroke="#000000" paint-order="fill stroke markers" d=" M 28 280 L 385.828125 280 Q 403.828125 280 403.828125 298 L 403.828125 298 Q 403.828125 316 385.828125 316 L 28 316 Q 10 316 10 298 L 10 298 Q 10 280 28 280 Z" stroke-miterlimit="10" stroke-dasharray=""/></g><g><g><path fill="none" stroke="none"/><text fill="#000000" stroke="none" font-family="Arial" font-size="16px" font-style="normal" font-weight="normal" text-decoration="undefined" x="502.9140625" y="360" text-anchor="middle" dominant-baseline="central" transform="matrix(1 0 0 1 -296 -62)">Указанный аккаунт не заблокирован в челлендже </text></g></g><g><rect fill="#ffffff" stroke="none" x="324" y="504" width="360" height="36" transform="matrix(1 0 0 1 -296 -62)"/></g><g><path fill="none" stroke="#000000" paint-order="fill stroke markers" d=" M 28 442 L 388 442 L 388 478 L 28 478 L 28 442 Z Z" stroke-miterlimit="10" stroke-dasharray=""/></g><g><g><path fill="none" stroke="none"/><text fill="#000000" stroke="none" font-family="Arial" font-size="16px" font-style="normal" font-weight="normal" text-decoration="undefined" x="504" y="522" text-anchor="middle" dominant-baseline="central" transform="matrix(1 0 0 1 -296 -62)">Отправить приглашение на вступление</text></g></g><g><path fill="#ffffff" stroke="none" paint-order="stroke fill markers" d=" M 88 532 L 388 532 L 328 568 L 28 568 L 88 532"/></g><g><path fill="none" stroke="#000000" paint-order="fill stroke markers" d=" M 88 532 L 388 532 L 328 568 L 28 568 L 88 532 L 88 532" stroke-miterlimit="10" stroke-dasharray=""/></g><g><g><path fill="none" stroke="none"/><text fill="#000000" stroke="none" font-family="Arial" font-size="16px" font-style="normal" font-weight="normal" text-decoration="undefined" x="504" y="612" text-anchor="middle" dominant-baseline="central" transform="matrix(1 0 0 1 -296 -62)">CreatedResponse</text></g></g><g><path fill="none" stroke="#000000" paint-order="fill stroke markers" d=" M 199 80 L 199 136" stroke-miterlimit="10" stroke-dasharray=""/></g><g><path fill="#000000" stroke="none" paint-order="stroke fill markers" d=" M 194.790482243984 125.83732514237585 L 199 136 L 203.209517756016 125.83732514237585"/></g><g><path fill="none" stroke="#000000" paint-order="fill stroke markers" d=" M 194.790482243984 125.83732514237585 L 199 136 L 203.209517756016 125.83732514237585 L 194.790482243984 125.83732514237585" stroke-miterlimit="10" stroke-dasharray=""/></g><g><path fill="none" stroke="#000000" paint-order="fill stroke markers" d=" M 424 78 L 424 128 L 424 128 A 8 8 0 0 1 416 136 L 370 136" stroke-miterlimit="10" stroke-dasharray=""/></g><g><path fill="#000000" stroke="none" paint-order="stroke fill markers" d=" M 380.1626748576241 131.790482243984 L 370 136 L 380.1626748576241 140.209517756016"/></g><g><path fill="none" stroke="#000000" paint-order="fill stroke markers" d=" M 380.1626748576241 131.790482243984 L 370 136 L 380.1626748576241 140.209517756016 L 380.1626748576241 131.790482243984" stroke-miterlimit="10" stroke-dasharray=""/></g><g><path fill="none" stroke="#000000" paint-order="fill stroke markers" d=" M 201 172 L 201 208" stroke-miterlimit="10" stroke-dasharray=""/></g><g><path fill="#000000" stroke="none" paint-order="stroke fill markers" d=" M 196.790482243984 197.83732514237585 L 201 208 L 205.209517756016 197.83732514237585"/></g><g><path fill="none" stroke="#000000" paint-order="fill stroke markers" d=" M 196.790482243984 197.83732514237585 L 201 208 L 205.209517756016 197.83732514237585 L 196.790482243984 197.83732514237585" stroke-miterlimit="10" stroke-dasharray=""/></g><g><path fill="none" stroke="#000000" paint-order="fill stroke markers" d=" M 206 244 L 206 280" stroke-miterlimit="10" stroke-dasharray=""/></g><g><path fill="#000000" stroke="none" paint-order="stroke fill markers" d=" M 201.790482243984 269.83732514237585 L 206 280 L 210.209517756016 269.83732514237585"/></g><g><path fill="none" stroke="#000000" paint-order="fill stroke markers" d=" M 201.790482243984 269.83732514237585 L 206 280 L 210.209517756016 269.83732514237585 L 201.790482243984 269.83732514237585" stroke-miterlimit="10" stroke-dasharray=""/></g><g><path fill="none" stroke="#000000" paint-order="fill stroke markers" d=" M 206 316 L 206 352" stroke-miterlimit="10" stroke-dasharray=""/></g><g><path fill="#000000" stroke="none" paint-order="stroke fill markers" d=" M 201.790482243984 341.83732514237585 L 206 352 L 210.209517756016 341.83732514237585"/></g><g><path fill="none" stroke="#000000" paint-order="fill stroke markers" d=" M 201.790482243984 341.83732514237585 L 206 352 L 210.209517756016 341.83732514237585 L 201.790482243984 341.83732514237585" stroke-miterlimit="10" stroke-dasharray=""/></g><g><path fill="none" stroke="#000000" paint-order="fill stroke markers" d=" M 208 404 L 208 442" stroke-miterlimit="10" stroke-dasharray=""/></g><g><path fill="#000000" stroke="none" paint-order="stroke fill markers" d=" M 203.790482243984 431.83732514237585 L 208 442 L 212.209517756016 431.83732514237585"/></g><g><path fill="none" stroke="#000000" paint-order="fill stroke markers" d=" M 203.790482243984 431.83732514237585 L 208 442 L 212.209517756016 431.83732514237585 L 203.790482243984 431.83732514237585" stroke-miterlimit="10" stroke-dasharray=""/></g><g><path fill="none" stroke="#000000" paint-order="fill stroke markers" d=" M 208 478 L 208 532" stroke-miterlimit="10" stroke-dasharray=""/></g><g><path fill="#000000" stroke="none" paint-order="stroke fill markers" d=" M 203.790482243984 521.8373251423759 L 208 532 L 212.209517756016 521.8373251423759"/></g><g><path fill="none" stroke="#000000" paint-order="fill stroke markers" d=" M 203.790482243984 521.8373251423759 L 208 532 L 212.209517756016 521.8373251423759 L 203.790482243984 521.8373251423759" stroke-miterlimit="10" stroke-dasharray=""/></g></g></svg>