<svg version="1.1" xmlns="http://www.w3.org/2000/svg" xmlns:xlink="http://www.w3.org/1999/xlink" width="883.484375" height="830"><defs/><g><g><rect fill="#ffffff" stroke="none" x="252" y="72" width="586" height="52" transform="matrix(1 0 0 1 -242 -62)"/></g><g><path fill="#ffffff" stroke="none" paint-order="stroke fill markers" d=" M 596 10 A 26 26 0 0 1 596 62"/></g><g><path fill="none" stroke="#000000" paint-order="fill stroke markers" d=" M 10 10 L 10 62" stroke-miterlimit="10" stroke-dasharray=""/></g><g><path fill="none" stroke="#000000" paint-order="fill stroke markers" d=" M 10 10 L 596 10" stroke-miterlimit="10" stroke-dasharray=""/></g><g><path fill="none" stroke="#000000" paint-order="fill stroke markers" d=" M 10 62 L 596 62" stroke-miterlimit="10" stroke-dasharray=""/></g><g><path fill="none" stroke="#000000" paint-order="fill stroke markers" d=" M 596 10 A 26 26 0 0 1 596 62" stroke-miterlimit="10" stroke-dasharray=""/></g><g><g><path fill="none" stroke="none"/><text fill="#000000" stroke="none" font-family="Arial" font-size="16px" font-style="normal" font-weight="normal" text-decoration="undefined" x="491.5" y="90" text-anchor="middle" dominant-baseline="central" transform="matrix(1 0 0 1 -242 -62)">POST</text><text fill="#000000" stroke="none" font-family="Arial" font-size="16px" font-style="normal" font-weight="normal" text-decoration="undefined" x="491.5" y="106" text-anchor="middle" dominant-baseline="central" transform="matrix(1 0 0 1 -242 -62)">/challenges/{challengeId}/members/{accountId}/motivations</text></g></g><g><path fill="#ffffff" stroke="#000000" paint-order="fill stroke markers" d=" M 730 44 L 753 10 L 850.484375 10 Q 873.484375 10 873.484375 44 Q 873.484375 78 850.484375 78 L 753 78 L 730 44 Z" stroke-miterlimit="10" stroke-dasharray=""/></g><g><g><path fill="none" stroke="none"/><text fill="#000000" stroke="none" font-family="Arial" font-size="16px" font-style="normal" font-weight="normal" text-decoration="undefined" x="1043.7421875" y="90" text-anchor="middle" dominant-baseline="central" transform="matrix(1 0 0 1 -242 -62)">Заголовки</text><text fill="#000000" stroke="none" font-family="Arial" font-size="16px" font-style="normal" font-weight="normal" text-decoration="undefined" x="1043.7421875" y="106" text-anchor="middle" dominant-baseline="central" transform="matrix(1 0 0 1 -242 -62)">запроса</text><text fill="#000000" stroke="none" font-family="Arial" font-size="16px" font-style="normal" font-weight="normal" text-decoration="undefined" x="1043.7421875" y="122" text-anchor="middle" dominant-baseline="central" transform="matrix(1 0 0 1 -242 -62)">(Авторизирован)</text></g></g><g><path fill="#ffffff" stroke="none" paint-order="stroke fill markers" d=" M 136 172 L 425.6796875 172 Q 443.6796875 172 443.6796875 190 L 443.6796875 190 Q 443.6796875 208 425.6796875 208 L 136 208 Q 118 208 118 190 L 118 190 Q 118 172 136 172 Z"/></g><g><path fill="none" stroke="#000000" paint-order="fill stroke markers" d=" M 136 172 L 425.6796875 172 Q 443.6796875 172 443.6796875 190 L 443.6796875 190 Q 443.6796875 208 425.6796875 208 L 136 208 Q 118 208 118 190 L 118 190 Q 118 172 136 172 Z" stroke-miterlimit="10" stroke-dasharray=""/></g><g><g><path fill="none" stroke="none"/><text fill="#000000" stroke="none" font-family="Arial" font-size="16px" font-style="normal" font-weight="normal" text-decoration="undefined" x="522.83984375" y="252" text-anchor="middle" dominant-baseline="central" transform="matrix(1 0 0 1 -242 -62)">Аккаунт является участником челленджа</text></g></g><g><path fill="#ffffff" stroke="none" paint-order="stroke fill markers" d=" M 64 226 L 478 226 Q 496 226 496 244 L 496 244 Q 496 262 478 262 L 64 262 Q 46 262 46 244 L 46 244 Q 46 226 64 226 Z"/></g><g><path fill="none" stroke="#000000" paint-order="fill stroke markers" d=" M 64 226 L 478 226 Q 496 226 496 244 L 496 244 Q 496 262 478 262 L 64 262 Q 46 262 46 244 L 46 244 Q 46 226 64 226 Z" stroke-miterlimit="10" stroke-dasharray=""/></g><g><g><path fill="none" stroke="none"/><text fill="#000000" stroke="none" font-family="Arial" font-size="16px" font-style="normal" font-weight="normal" text-decoration="undefined" x="513" y="306" text-anchor="middle" dominant-baseline="central" transform="matrix(1 0 0 1 -242 -62)">Указанный memberId является участником</text></g></g><g><path fill="#ffffff" stroke="none" paint-order="stroke fill markers" d=" M 136 100 L 496 100 L 424 136 L 64 136 L 136 100"/></g><g><path fill="none" stroke="#000000" paint-order="fill stroke markers" d=" M 136 100 L 496 100 L 424 136 L 64 136 L 136 100 L 136 100" stroke-miterlimit="10" stroke-dasharray=""/></g><g><g><path fill="none" stroke="none"/><text fill="#000000" stroke="none" font-family="Arial" font-size="16px" font-style="normal" font-weight="normal" text-decoration="undefined" x="522" y="180" text-anchor="middle" dominant-baseline="central" transform="matrix(1 0 0 1 -242 -62)">PostChallengesMembersMotivationsRequest</text></g></g><g><path fill="#ffffff" stroke="none" paint-order="stroke fill markers" d=" M 100 784 L 550 784 L 460 820 L 10 820 L 100 784"/></g><g><path fill="none" stroke="#000000" paint-order="fill stroke markers" d=" M 100 784 L 550 784 L 460 820 L 10 820 L 100 784 L 100 784" stroke-miterlimit="10" stroke-dasharray=""/></g><g><g><path fill="none" stroke="none"/><text fill="#000000" stroke="none" font-family="Arial" font-size="16px" font-style="normal" font-weight="normal" text-decoration="undefined" x="522" y="864" text-anchor="middle" dominant-baseline="central" transform="matrix(1 0 0 1 -242 -62)">CreatedResponse</text></g></g><g><rect fill="#ffffff" stroke="none" x="288" y="666" width="468" height="36" transform="matrix(1 0 0 1 -242 -62)"/></g><g><path fill="none" stroke="#000000" paint-order="fill stroke markers" d=" M 46 604 L 514 604 L 514 640 L 46 640 L 46 604 Z Z" stroke-miterlimit="10" stroke-dasharray=""/></g><g><g><path fill="none" stroke="none"/><text fill="#000000" stroke="none" font-family="Arial" font-size="16px" font-style="normal" font-weight="normal" text-decoration="undefined" x="522" y="684" text-anchor="middle" dominant-baseline="central" transform="matrix(1 0 0 1 -242 -62)">Добавить мотивацию для участника</text></g></g><g><rect fill="#ffffff" stroke="none" x="288" y="432" width="468" height="68" transform="matrix(1 0 0 1 -242 -62)"/></g><g><path fill="none" stroke="#000000" paint-order="fill stroke markers" d=" M 46 370 L 514 370 L 514 438 L 46 438 L 46 370 Z Z" stroke-miterlimit="10" stroke-dasharray=""/></g><g><g><path fill="none" stroke="none"/><text fill="#000000" stroke="none" font-family="Arial" font-size="16px" font-style="normal" font-weight="normal" text-decoration="undefined" x="522" y="450" text-anchor="middle" dominant-baseline="central" transform="matrix(1 0 0 1 -242 -62)">Снять коины со счёта инициатора мотивации и создать</text><text fill="#000000" stroke="none" font-family="Arial" font-size="16px" font-style="normal" font-weight="normal" text-decoration="undefined" x="522" y="466" text-anchor="middle" dominant-baseline="central" transform="matrix(1 0 0 1 -242 -62)">запись в таблице ожидания выполнения задания, с</text><text fill="#000000" stroke="none" font-family="Arial" font-size="16px" font-style="normal" font-weight="normal" text-decoration="undefined" x="522" y="482" text-anchor="middle" dominant-baseline="central" transform="matrix(1 0 0 1 -242 -62)">указанной суммой коинов</text></g></g><g><path fill="#ffffff" stroke="none" paint-order="stroke fill markers" d=" M 64 298 L 478 298 Q 496 298 496 316 L 496 316 Q 496 334 478 334 L 64 334 Q 46 334 46 316 L 46 316 Q 46 298 64 298 Z"/></g><g><path fill="none" stroke="#000000" paint-order="fill stroke markers" d=" M 64 298 L 478 298 Q 496 298 496 316 L 496 316 Q 496 334 478 334 L 64 334 Q 46 334 46 316 L 46 316 Q 46 298 64 298 Z" stroke-miterlimit="10" stroke-dasharray=""/></g><g><g><path fill="none" stroke="none"/><text fill="#000000" stroke="none" font-family="Arial" font-size="16px" font-style="normal" font-weight="normal" text-decoration="undefined" x="513" y="378" text-anchor="middle" dominant-baseline="central" transform="matrix(1 0 0 1 -242 -62)">Достаточно коинов на счету у аккаунта инициатора</text></g></g><g><rect fill="#ffffff" stroke="none" x="288" y="738" width="468" height="36" transform="matrix(1 0 0 1 -242 -62)"/></g><g><path fill="none" stroke="#000000" paint-order="fill stroke markers" d=" M 46 676 L 514 676 L 514 712 L 46 712 L 46 676 Z Z" stroke-miterlimit="10" stroke-dasharray=""/></g><g><g><path fill="none" stroke="none"/><text fill="#000000" stroke="none" font-family="Arial" font-size="16px" font-style="normal" font-weight="normal" text-decoration="undefined" x="522" y="756" text-anchor="middle" dominant-baseline="central" transform="matrix(1 0 0 1 -242 -62)">Отправить уведомление участнику о новой мотивации</text></g></g><g><path fill="none" stroke="#000000" paint-order="fill stroke markers" d=" M 280 62 L 280 100" stroke-miterlimit="10" stroke-dasharray=""/></g><g><path fill="#000000" stroke="none" paint-order="stroke fill markers" d=" M 275.790482243984 89.83732514237585 L 280 100 L 284.209517756016 89.83732514237585"/></g><g><path fill="none" stroke="#000000" paint-order="fill stroke markers" d=" M 275.790482243984 89.83732514237585 L 280 100 L 284.209517756016 89.83732514237585 L 275.790482243984 89.83732514237585" stroke-miterlimit="10" stroke-dasharray=""/></g><g><path fill="none" stroke="#000000" paint-order="fill stroke markers" d=" M 730 78 L 730 92 L 730 92 A 8 8 0 0 1 722 100 L 496 100" stroke-miterlimit="10" stroke-dasharray=""/></g><g><path fill="#000000" stroke="none" paint-order="stroke fill markers" d=" M 506.1626748576241 95.790482243984 L 496 100 L 506.1626748576241 104.209517756016"/></g><g><path fill="none" stroke="#000000" paint-order="fill stroke markers" d=" M 506.1626748576241 95.790482243984 L 496 100 L 506.1626748576241 104.209517756016 L 506.1626748576241 95.790482243984" stroke-miterlimit="10" stroke-dasharray=""/></g><g><path fill="none" stroke="#000000" paint-order="fill stroke markers" d=" M 280 136 L 280 172" stroke-miterlimit="10" stroke-dasharray=""/></g><g><path fill="#000000" stroke="none" paint-order="stroke fill markers" d=" M 275.790482243984 161.83732514237585 L 280 172 L 284.209517756016 161.83732514237585"/></g><g><path fill="none" stroke="#000000" paint-order="fill stroke markers" d=" M 275.790482243984 161.83732514237585 L 280 172 L 284.209517756016 161.83732514237585 L 275.790482243984 161.83732514237585" stroke-miterlimit="10" stroke-dasharray=""/></g><g><path fill="none" stroke="#000000" paint-order="fill stroke markers" d=" M 277 208 L 277 226" stroke-miterlimit="10" stroke-dasharray=""/></g><g><path fill="#000000" stroke="none" paint-order="stroke fill markers" d=" M 272.790482243984 215.83732514237585 L 277 226 L 281.209517756016 215.83732514237585"/></g><g><path fill="none" stroke="#000000" paint-order="fill stroke markers" d=" M 272.790482243984 215.83732514237585 L 277 226 L 281.209517756016 215.83732514237585 L 272.790482243984 215.83732514237585" stroke-miterlimit="10" stroke-dasharray=""/></g><g><path fill="none" stroke="#000000" paint-order="fill stroke markers" d=" M 271 262 L 271 298" stroke-miterlimit="10" stroke-dasharray=""/></g><g><path fill="#000000" stroke="none" paint-order="stroke fill markers" d=" M 266.790482243984 287.83732514237585 L 271 298 L 275.209517756016 287.83732514237585"/></g><g><path fill="none" stroke="#000000" paint-order="fill stroke markers" d=" M 266.790482243984 287.83732514237585 L 271 298 L 275.209517756016 287.83732514237585 L 266.790482243984 287.83732514237585" stroke-miterlimit="10" stroke-dasharray=""/></g><g><path fill="none" stroke="#000000" paint-order="fill stroke markers" d=" M 273 334 L 273 370" stroke-miterlimit="10" stroke-dasharray=""/></g><g><path fill="#000000" stroke="none" paint-order="stroke fill markers" d=" M 268.790482243984 359.83732514237585 L 273 370 L 277.209517756016 359.83732514237585"/></g><g><path fill="none" stroke="#000000" paint-order="fill stroke markers" d=" M 268.790482243984 359.83732514237585 L 273 370 L 277.209517756016 359.83732514237585 L 268.790482243984 359.83732514237585" stroke-miterlimit="10" stroke-dasharray=""/></g><g><path fill="none" stroke="#000000" paint-order="fill stroke markers" d=" M 280 640 L 280 676" stroke-miterlimit="10" stroke-dasharray=""/></g><g><path fill="#000000" stroke="none" paint-order="stroke fill markers" d=" M 275.790482243984 665.8373251423759 L 280 676 L 284.209517756016 665.8373251423759"/></g><g><path fill="none" stroke="#000000" paint-order="fill stroke markers" d=" M 275.790482243984 665.8373251423759 L 280 676 L 284.209517756016 665.8373251423759 L 275.790482243984 665.8373251423759" stroke-miterlimit="10" stroke-dasharray=""/></g><g><rect fill="#ffffff" stroke="none" x="288" y="558" width="468" height="36" transform="matrix(1 0 0 1 -242 -62)"/></g><g><path fill="none" stroke="#000000" paint-order="fill stroke markers" d=" M 46 496 L 514 496 L 514 532 L 46 532 L 46 496 Z Z" stroke-miterlimit="10" stroke-dasharray=""/></g><g><g><path fill="none" stroke="none"/><text fill="#000000" stroke="none" font-family="Arial" font-size="16px" font-style="normal" font-weight="normal" text-decoration="undefined" x="522" y="576" text-anchor="middle" dominant-baseline="central" transform="matrix(1 0 0 1 -242 -62)">Добавить транзакцию о снятии средств </text></g></g><g><path fill="none" stroke="#000000" paint-order="fill stroke markers" d=" M 280 438 L 280 496" stroke-miterlimit="10" stroke-dasharray=""/></g><g><path fill="#000000" stroke="none" paint-order="stroke fill markers" d=" M 275.790482243984 485.8373251423759 L 280 496 L 284.209517756016 485.8373251423759"/></g><g><path fill="none" stroke="#000000" paint-order="fill stroke markers" d=" M 275.790482243984 485.8373251423759 L 280 496 L 284.209517756016 485.8373251423759 L 275.790482243984 485.8373251423759" stroke-miterlimit="10" stroke-dasharray=""/></g><g><path fill="none" stroke="#000000" paint-order="fill stroke markers" d=" M 280 532 L 280 604" stroke-miterlimit="10" stroke-dasharray=""/></g><g><path fill="#000000" stroke="none" paint-order="stroke fill markers" d=" M 275.790482243984 593.8373251423759 L 280 604 L 284.209517756016 593.8373251423759"/></g><g><path fill="none" stroke="#000000" paint-order="fill stroke markers" d=" M 275.790482243984 593.8373251423759 L 280 604 L 284.209517756016 593.8373251423759 L 275.790482243984 593.8373251423759" stroke-miterlimit="10" stroke-dasharray=""/></g><g><path fill="none" stroke="#000000" paint-order="fill stroke markers" d=" M 280 712 L 280 784" stroke-miterlimit="10" stroke-dasharray=""/></g><g><path fill="#000000" stroke="none" paint-order="stroke fill markers" d=" M 275.790482243984 773.8373251423759 L 280 784 L 284.209517756016 773.8373251423759"/></g><g><path fill="none" stroke="#000000" paint-order="fill stroke markers" d=" M 275.790482243984 773.8373251423759 L 280 784 L 284.209517756016 773.8373251423759 L 275.790482243984 773.8373251423759" stroke-miterlimit="10" stroke-dasharray=""/></g></g></svg>