<svg version="1.1" xmlns="http://www.w3.org/2000/svg" xmlns:xlink="http://www.w3.org/1999/xlink" width="685.484375" height="470"><defs/><g><g><rect fill="#ffffff" stroke="none" x="180" y="72" width="451.3125" height="52" transform="matrix(1 0 0 1 -170 -62)"/></g><g><path fill="#ffffff" stroke="none" paint-order="stroke fill markers" d=" M 461.3125 10 A 26 26 0 0 1 461.3125 62"/></g><g><path fill="none" stroke="#000000" paint-order="fill stroke markers" d=" M 10 10 L 10 62" stroke-miterlimit="10" stroke-dasharray=""/></g><g><path fill="none" stroke="#000000" paint-order="fill stroke markers" d=" M 10 10 L 461.3125 10" stroke-miterlimit="10" stroke-dasharray=""/></g><g><path fill="none" stroke="#000000" paint-order="fill stroke markers" d=" M 10 62 L 461.3125 62" stroke-miterlimit="10" stroke-dasharray=""/></g><g><path fill="none" stroke="#000000" paint-order="fill stroke markers" d=" M 461.3125 10 A 26 26 0 0 1 461.3125 62" stroke-miterlimit="10" stroke-dasharray=""/></g><g><g><path fill="none" stroke="none"/><text fill="#000000" stroke="none" font-family="Arial" font-size="16px" font-style="normal" font-weight="normal" text-decoration="undefined" x="368.9921875" y="90" text-anchor="middle" dominant-baseline="central" transform="matrix(1 0 0 1 -170 -62)">PATCH</text><text fill="#000000" stroke="none" font-family="Arial" font-size="16px" font-style="normal" font-weight="normal" text-decoration="undefined" x="368.9921875" y="106" text-anchor="middle" dominant-baseline="central" transform="matrix(1 0 0 1 -170 -62)">/templates/{templateId}/assessments/{assesmentId}</text></g></g><g><path fill="#ffffff" stroke="none" paint-order="stroke fill markers" d=" M 145 82 L 460 82 L 397 118 L 82 118 L 145 82"/></g><g><path fill="none" stroke="#000000" paint-order="fill stroke markers" d=" M 145 82 L 460 82 L 397 118 L 82 118 L 145 82 L 145 82" stroke-miterlimit="10" stroke-dasharray=""/></g><g><g><path fill="none" stroke="none"/><text fill="#000000" stroke="none" font-family="Arial" font-size="16px" font-style="normal" font-weight="normal" text-decoration="undefined" x="441" y="162" text-anchor="middle" dominant-baseline="central" transform="matrix(1 0 0 1 -170 -62)">PatchTemplateAssessmentsRequest</text></g></g><g><rect fill="#ffffff" stroke="none" x="270" y="396" width="324" height="36" transform="matrix(1 0 0 1 -170 -62)"/></g><g><path fill="none" stroke="#000000" paint-order="fill stroke markers" d=" M 100 334 L 424 334 L 424 370 L 100 370 L 100 334 Z Z" stroke-miterlimit="10" stroke-dasharray=""/></g><g><g><path fill="none" stroke="none"/><text fill="#000000" stroke="none" font-family="Arial" font-size="16px" font-style="normal" font-weight="normal" text-decoration="undefined" x="432" y="414" text-anchor="middle" dominant-baseline="central" transform="matrix(1 0 0 1 -170 -62)">Обновить оценку шаблона</text></g></g><g><path fill="#ffffff" stroke="none" paint-order="stroke fill markers" d=" M 100 424 L 460 424 L 388 460 L 28 460 L 100 424"/></g><g><path fill="none" stroke="#000000" paint-order="fill stroke markers" d=" M 100 424 L 460 424 L 388 460 L 28 460 L 100 424 L 100 424" stroke-miterlimit="10" stroke-dasharray=""/></g><g><g><path fill="none" stroke="none"/><text fill="#000000" stroke="none" font-family="Arial" font-size="16px" font-style="normal" font-weight="normal" text-decoration="undefined" x="414" y="504" text-anchor="middle" dominant-baseline="central" transform="matrix(1 0 0 1 -170 -62)">NoBodyResponse</text></g></g><g><path fill="#ffffff" stroke="none" paint-order="stroke fill markers" d=" M 126 172 L 416 172 Q 442 172 442 198 L 442 198 Q 442 224 416 224 L 126 224 Q 100 224 100 198 L 100 198 Q 100 172 126 172 Z"/></g><g><path fill="none" stroke="#000000" paint-order="fill stroke markers" d=" M 126 172 L 416 172 Q 442 172 442 198 L 442 198 Q 442 224 416 224 L 126 224 Q 100 224 100 198 L 100 198 Q 100 172 126 172 Z" stroke-miterlimit="10" stroke-dasharray=""/></g><g><g><path fill="none" stroke="none"/><text fill="#000000" stroke="none" font-family="Arial" font-size="16px" font-style="normal" font-weight="normal" text-decoration="undefined" x="441" y="252" text-anchor="middle" dominant-baseline="central" transform="matrix(1 0 0 1 -170 -62)">Пользователь является владельцем</text><text fill="#000000" stroke="none" font-family="Arial" font-size="16px" font-style="normal" font-weight="normal" text-decoration="undefined" x="441" y="268" text-anchor="middle" dominant-baseline="central" transform="matrix(1 0 0 1 -170 -62)">указанной оценки </text></g></g><g><path fill="#ffffff" stroke="#000000" paint-order="fill stroke markers" d=" M 532 44 L 555 10 L 652.484375 10 Q 675.484375 10 675.484375 44 Q 675.484375 78 652.484375 78 L 555 78 L 532 44 Z" stroke-miterlimit="10" stroke-dasharray=""/></g><g><g><path fill="none" stroke="none"/><text fill="#000000" stroke="none" font-family="Arial" font-size="16px" font-style="normal" font-weight="normal" text-decoration="undefined" x="773.7421875" y="90" text-anchor="middle" dominant-baseline="central" transform="matrix(1 0 0 1 -170 -62)">Заголовки</text><text fill="#000000" stroke="none" font-family="Arial" font-size="16px" font-style="normal" font-weight="normal" text-decoration="undefined" x="773.7421875" y="106" text-anchor="middle" dominant-baseline="central" transform="matrix(1 0 0 1 -170 -62)">запроса</text><text fill="#000000" stroke="none" font-family="Arial" font-size="16px" font-style="normal" font-weight="normal" text-decoration="undefined" x="773.7421875" y="122" text-anchor="middle" dominant-baseline="central" transform="matrix(1 0 0 1 -170 -62)">(Авторизирован)</text></g></g><g><path fill="none" stroke="#000000" paint-order="fill stroke markers" d=" M 284 62 L 284 82" stroke-miterlimit="10" stroke-dasharray=""/></g><g><path fill="#000000" stroke="none" paint-order="stroke fill markers" d=" M 279.790482243984 71.83732514237585 L 284 82 L 288.209517756016 71.83732514237585"/></g><g><path fill="none" stroke="#000000" paint-order="fill stroke markers" d=" M 279.790482243984 71.83732514237585 L 284 82 L 288.209517756016 71.83732514237585 L 279.790482243984 71.83732514237585" stroke-miterlimit="10" stroke-dasharray=""/></g><g><path fill="none" stroke="#000000" paint-order="fill stroke markers" d=" M 532 78 L 532 110 L 532 110 A 8 8 0 0 1 524 118 L 460 118" stroke-miterlimit="10" stroke-dasharray=""/></g><g><path fill="#000000" stroke="none" paint-order="stroke fill markers" d=" M 470.1626748576241 113.790482243984 L 460 118 L 470.1626748576241 122.209517756016"/></g><g><path fill="none" stroke="#000000" paint-order="fill stroke markers" d=" M 470.1626748576241 113.790482243984 L 460 118 L 470.1626748576241 122.209517756016 L 470.1626748576241 113.790482243984" stroke-miterlimit="10" stroke-dasharray=""/></g><g><path fill="none" stroke="#000000" paint-order="fill stroke markers" d=" M 271 118 L 271 172" stroke-miterlimit="10" stroke-dasharray=""/></g><g><path fill="#000000" stroke="none" paint-order="stroke fill markers" d=" M 266.790482243984 161.83732514237585 L 271 172 L 275.209517756016 161.83732514237585"/></g><g><path fill="none" stroke="#000000" paint-order="fill stroke markers" d=" M 266.790482243984 161.83732514237585 L 271 172 L 275.209517756016 161.83732514237585 L 266.790482243984 161.83732514237585" stroke-miterlimit="10" stroke-dasharray=""/></g><g><path fill="none" stroke="#000000" paint-order="fill stroke markers" d=" M 262 224 L 262 244" stroke-miterlimit="10" stroke-dasharray=""/></g><g><path fill="#000000" stroke="none" paint-order="stroke fill markers" d=" M 257.790482243984 233.83732514237585 L 262 244 L 266.209517756016 233.83732514237585"/></g><g><path fill="none" stroke="#000000" paint-order="fill stroke markers" d=" M 257.790482243984 233.83732514237585 L 262 244 L 266.209517756016 233.83732514237585 L 257.790482243984 233.83732514237585" stroke-miterlimit="10" stroke-dasharray=""/></g><g><path fill="none" stroke="#000000" paint-order="fill stroke markers" d=" M 284 370 L 284 424" stroke-miterlimit="10" stroke-dasharray=""/></g><g><path fill="#000000" stroke="none" paint-order="stroke fill markers" d=" M 279.790482243984 413.83732514237585 L 284 424 L 288.209517756016 413.83732514237585"/></g><g><path fill="none" stroke="#000000" paint-order="fill stroke markers" d=" M 279.790482243984 413.83732514237585 L 284 424 L 288.209517756016 413.83732514237585 L 279.790482243984 413.83732514237585" stroke-miterlimit="10" stroke-dasharray=""/></g><g><path fill="#ffffff" stroke="none" paint-order="stroke fill markers" d=" M 118 244 L 449.2109375 244 Q 467.2109375 244 467.2109375 262 L 467.2109375 262 Q 467.2109375 280 449.2109375 280 L 118 280 Q 100 280 100 262 L 100 262 Q 100 244 118 244 Z"/></g><g><path fill="none" stroke="#000000" paint-order="fill stroke markers" d=" M 118 244 L 449.2109375 244 Q 467.2109375 244 467.2109375 262 L 467.2109375 262 Q 467.2109375 280 449.2109375 280 L 118 280 Q 100 280 100 262 L 100 262 Q 100 244 118 244 Z" stroke-miterlimit="10" stroke-dasharray=""/></g><g><g><path fill="none" stroke="none"/><text fill="#000000" stroke="none" font-family="Arial" font-size="16px" font-style="normal" font-weight="normal" text-decoration="undefined" x="453.60546875" y="324" text-anchor="middle" dominant-baseline="central" transform="matrix(1 0 0 1 -170 -62)">Кол-во символов в тексте комментария &lt; 1000</text></g></g><g><path fill="none" stroke="#000000" paint-order="fill stroke markers" d=" M 264 280 L 264 334" stroke-miterlimit="10" stroke-dasharray=""/></g><g><path fill="#000000" stroke="none" paint-order="stroke fill markers" d=" M 259.790482243984 323.83732514237585 L 264 334 L 268.209517756016 323.83732514237585"/></g><g><path fill="none" stroke="#000000" paint-order="fill stroke markers" d=" M 259.790482243984 323.83732514237585 L 264 334 L 268.209517756016 323.83732514237585 L 259.790482243984 323.83732514237585" stroke-miterlimit="10" stroke-dasharray=""/></g></g></svg>