<svg version="1.1" xmlns="http://www.w3.org/2000/svg" xmlns:xlink="http://www.w3.org/1999/xlink" width="484.3310546875" height="405"><defs/><g><g><rect fill="#ffffff" stroke="none" x="360" y="48" width="225" height="46" transform="matrix(1 0 0 1 -326 -22)"/></g><g><path fill="#ffffff" stroke="none" paint-order="stroke fill markers" d=" M 259 26 A 23 23 0 0 1 259 72"/></g><g><path fill="none" stroke="#000000" paint-order="fill stroke markers" d=" M 34 26 L 34 72" stroke-miterlimit="10" stroke-dasharray=""/></g><g><path fill="none" stroke="#000000" paint-order="fill stroke markers" d=" M 34 26 L 259 26" stroke-miterlimit="10" stroke-dasharray=""/></g><g><path fill="none" stroke="#000000" paint-order="fill stroke markers" d=" M 34 72 L 259 72" stroke-miterlimit="10" stroke-dasharray=""/></g><g><path fill="none" stroke="#000000" paint-order="fill stroke markers" d=" M 259 26 A 23 23 0 0 1 259 72" stroke-miterlimit="10" stroke-dasharray=""/></g><g><g><path fill="none" stroke="none"/><text fill="#000000" stroke="none" font-family="Arial" font-size="13px" font-style="normal" font-weight="normal" text-decoration="undefined" x="463" y="64.5" text-anchor="middle" dominant-baseline="central" transform="matrix(1 0 0 1 -326 -22)">POST</text><text fill="#000000" stroke="none" font-family="Arial" font-size="13px" font-style="normal" font-weight="normal" text-decoration="undefined" x="463" y="77.5" text-anchor="middle" dominant-baseline="central" transform="matrix(1 0 0 1 -326 -22)">/accounts/me/cancel-delete</text></g></g><g><path fill="#ffffff" stroke="#000000" paint-order="fill stroke markers" d=" M 354 39.5 L 374 10 L 454.3310546875 10 Q 474.3310546875 10 474.3310546875 39.5 Q 474.3310546875 69 454.3310546875 69 L 374 69 L 354 39.5 Z" stroke-miterlimit="10" stroke-dasharray=""/></g><g><g><path fill="none" stroke="none"/><text fill="#000000" stroke="none" font-family="Arial" font-size="13px" font-style="normal" font-weight="normal" text-decoration="undefined" x="740.16552734375" y="48.5" text-anchor="middle" dominant-baseline="central" transform="matrix(1 0 0 1 -326 -22)">Заголовки</text><text fill="#000000" stroke="none" font-family="Arial" font-size="13px" font-style="normal" font-weight="normal" text-decoration="undefined" x="740.16552734375" y="61.5" text-anchor="middle" dominant-baseline="central" transform="matrix(1 0 0 1 -326 -22)">запроса</text><text fill="#000000" stroke="none" font-family="Arial" font-size="13px" font-style="normal" font-weight="normal" text-decoration="undefined" x="740.16552734375" y="74.5" text-anchor="middle" dominant-baseline="central" transform="matrix(1 0 0 1 -326 -22)">(Авторизирован)</text></g></g><g><path fill="#ffffff" stroke="none" paint-order="stroke fill markers" d=" M 55 90 L 282 90 L 237 123 L 10 123 L 55 90"/></g><g><path fill="none" stroke="#000000" paint-order="fill stroke markers" d=" M 55 90 L 282 90 L 237 123 L 10 123 L 55 90 L 55 90" stroke-miterlimit="10" stroke-dasharray=""/></g><g><g><path fill="none" stroke="none"/><text fill="#000000" stroke="none" font-family="Arial" font-size="13px" font-style="normal" font-weight="normal" text-decoration="undefined" x="472" y="128.5" text-anchor="middle" dominant-baseline="central" transform="matrix(1 0 0 1 -326 -22)">Request</text></g></g><g><path fill="#ffffff" stroke="none" paint-order="stroke fill markers" d=" M 57 146 L 227 146 Q 250 146 250 169 L 250 169 Q 250 192 227 192 L 57 192 Q 34 192 34 169 L 34 169 Q 34 146 57 146 Z"/></g><g><path fill="none" stroke="#000000" paint-order="fill stroke markers" d=" M 57 146 L 227 146 Q 250 146 250 169 L 250 169 Q 250 192 227 192 L 57 192 Q 34 192 34 169 L 34 169 Q 34 146 57 146 Z" stroke-miterlimit="10" stroke-dasharray=""/></g><g><g><path fill="none" stroke="none"/><text fill="#000000" stroke="none" font-family="Arial" font-size="13px" font-style="normal" font-weight="normal" text-decoration="undefined" x="468" y="184.5" text-anchor="middle" dominant-baseline="central" transform="matrix(1 0 0 1 -326 -22)">Аккаунт находится в статусе</text><text fill="#000000" stroke="none" font-family="Arial" font-size="13px" font-style="normal" font-weight="normal" text-decoration="undefined" x="468" y="197.5" text-anchor="middle" dominant-baseline="central" transform="matrix(1 0 0 1 -326 -22)">"ожидает удаление"</text></g></g><g><rect fill="#ffffff" stroke="none" x="360" y="248" width="216" height="33" transform="matrix(1 0 0 1 -326 -22)"/></g><g><path fill="none" stroke="#000000" paint-order="fill stroke markers" d=" M 34 226 L 250 226 L 250 259 L 34 259 L 34 226 Z Z" stroke-miterlimit="10" stroke-dasharray=""/></g><g><g><path fill="none" stroke="none"/><text fill="#000000" stroke="none" font-family="Arial" font-size="13px" font-style="normal" font-weight="normal" text-decoration="undefined" x="468" y="264.5" text-anchor="middle" dominant-baseline="central" transform="matrix(1 0 0 1 -326 -22)">Удалить из списка на удаление</text></g></g><g><rect fill="#ffffff" stroke="none" x="360" y="296" width="216" height="59" transform="matrix(1 0 0 1 -326 -22)"/></g><g><path fill="none" stroke="#000000" paint-order="fill stroke markers" d=" M 34 274 L 250 274 L 250 333 L 34 333 L 34 274 Z Z" stroke-miterlimit="10" stroke-dasharray=""/></g><g><g><path fill="none" stroke="none"/><text fill="#000000" stroke="none" font-family="Arial" font-size="13px" font-style="normal" font-weight="normal" text-decoration="undefined" x="468" y="312.5" text-anchor="middle" dominant-baseline="central" transform="matrix(1 0 0 1 -326 -22)">Отправить уведомления</text><text fill="#000000" stroke="none" font-family="Arial" font-size="13px" font-style="normal" font-weight="normal" text-decoration="undefined" x="468" y="325.5" text-anchor="middle" dominant-baseline="central" transform="matrix(1 0 0 1 -326 -22)">"Удаление аккаунт было</text><text fill="#000000" stroke="none" font-family="Arial" font-size="13px" font-style="normal" font-weight="normal" text-decoration="undefined" x="468" y="338.5" text-anchor="middle" dominant-baseline="central" transform="matrix(1 0 0 1 -326 -22)">прервано"</text></g></g><g><path fill="#ffffff" stroke="none" paint-order="stroke fill markers" d=" M 52 362 L 266 362 L 224 395 L 10 395 L 52 362"/></g><g><path fill="none" stroke="#000000" paint-order="fill stroke markers" d=" M 52 362 L 266 362 L 224 395 L 10 395 L 52 362 L 52 362" stroke-miterlimit="10" stroke-dasharray=""/></g><g><g><path fill="none" stroke="none"/><text fill="#000000" stroke="none" font-family="Arial" font-size="13px" font-style="normal" font-weight="normal" text-decoration="undefined" x="464" y="400.5" text-anchor="middle" dominant-baseline="central" transform="matrix(1 0 0 1 -326 -22)">NoBodyResponse</text></g></g><g><path fill="none" stroke="#000000" paint-order="fill stroke markers" d=" M 155 72 L 155 90" stroke-miterlimit="10" stroke-dasharray=""/></g><g><path fill="#000000" stroke="none" paint-order="stroke fill markers" d=" M 150.790482243984 79.83732514237585 L 155 90 L 159.209517756016 79.83732514237585"/></g><g><path fill="none" stroke="#000000" paint-order="fill stroke markers" d=" M 150.790482243984 79.83732514237585 L 155 90 L 159.209517756016 79.83732514237585 L 150.790482243984 79.83732514237585" stroke-miterlimit="10" stroke-dasharray=""/></g><g><path fill="none" stroke="#000000" paint-order="fill stroke markers" d=" M 354 69 L 354 82 L 354 82 A 8 8 0 0 1 346 90 L 282 90" stroke-miterlimit="10" stroke-dasharray=""/></g><g><path fill="#000000" stroke="none" paint-order="stroke fill markers" d=" M 292.1626748576241 85.79048224398402 L 282 90 L 292.1626748576241 94.20951775601598"/></g><g><path fill="none" stroke="#000000" paint-order="fill stroke markers" d=" M 292.1626748576241 85.79048224398402 L 282 90 L 292.1626748576241 94.20951775601598 L 292.1626748576241 85.79048224398402" stroke-miterlimit="10" stroke-dasharray=""/></g><g><path fill="none" stroke="#000000" paint-order="fill stroke markers" d=" M 145 123 L 145 146" stroke-miterlimit="10" stroke-dasharray=""/></g><g><path fill="#000000" stroke="none" paint-order="stroke fill markers" d=" M 140.790482243984 135.83732514237585 L 145 146 L 149.209517756016 135.83732514237585"/></g><g><path fill="none" stroke="#000000" paint-order="fill stroke markers" d=" M 140.790482243984 135.83732514237585 L 145 146 L 149.209517756016 135.83732514237585 L 140.790482243984 135.83732514237585" stroke-miterlimit="10" stroke-dasharray=""/></g><g><path fill="none" stroke="#000000" paint-order="fill stroke markers" d=" M 142 192 L 142 226" stroke-miterlimit="10" stroke-dasharray=""/></g><g><path fill="#000000" stroke="none" paint-order="stroke fill markers" d=" M 137.790482243984 215.83732514237585 L 142 226 L 146.209517756016 215.83732514237585"/></g><g><path fill="none" stroke="#000000" paint-order="fill stroke markers" d=" M 137.790482243984 215.83732514237585 L 142 226 L 146.209517756016 215.83732514237585 L 137.790482243984 215.83732514237585" stroke-miterlimit="10" stroke-dasharray=""/></g><g><path fill="none" stroke="#000000" paint-order="fill stroke markers" d=" M 142 259 L 142 274" stroke-miterlimit="10" stroke-dasharray=""/></g><g><path fill="#000000" stroke="none" paint-order="stroke fill markers" d=" M 137.790482243984 263.83732514237585 L 142 274 L 146.209517756016 263.83732514237585"/></g><g><path fill="none" stroke="#000000" paint-order="fill stroke markers" d=" M 137.790482243984 263.83732514237585 L 142 274 L 146.209517756016 263.83732514237585 L 137.790482243984 263.83732514237585" stroke-miterlimit="10" stroke-dasharray=""/></g><g><path fill="none" stroke="#000000" paint-order="fill stroke markers" d=" M 140 333 L 140 362" stroke-miterlimit="10" stroke-dasharray=""/></g><g><path fill="#000000" stroke="none" paint-order="stroke fill markers" d=" M 135.790482243984 351.83732514237585 L 140 362 L 144.209517756016 351.83732514237585"/></g><g><path fill="none" stroke="#000000" paint-order="fill stroke markers" d=" M 135.790482243984 351.83732514237585 L 140 362 L 144.209517756016 351.83732514237585 L 135.790482243984 351.83732514237585" stroke-miterlimit="10" stroke-dasharray=""/></g></g></svg>