<svg version="1.1" xmlns="http://www.w3.org/2000/svg" xmlns:xlink="http://www.w3.org/1999/xlink" width="1784" height="1568"><defs/><g><g><path fill="none" stroke="#000000" paint-order="fill stroke markers" d=" M 10 10 L 1774 10 L 1774 496 L 10 496 L 10 10 Z Z" stroke-miterlimit="10" stroke-dasharray=""/></g><g><path fill="none" stroke="#000000" paint-order="fill stroke markers" d=" M 36 10 L 36 496" stroke-miterlimit="10" stroke-dasharray=""/></g><g><g><path fill="none" stroke="none"/><text fill="#000000" stroke="none" font-family="Arial" font-size="16px" font-style="normal" font-weight="normal" text-decoration="undefined" x="0" y="0" text-anchor="middle" dominant-baseline="text-before-edge" transform="matrix(6.123233995736766e-17 -1 1 6.123233995736766e-17 15 253)">пользователь</text></g></g><g><path fill="none" stroke="#000000" paint-order="fill stroke markers" d=" M 10 532 L 150.71875 532 L 150.71875 1000 L 10 1000 L 10 532 Z Z" stroke-miterlimit="10" stroke-dasharray=""/></g><g><path fill="none" stroke="#000000" paint-order="fill stroke markers" d=" M 36 532 L 36 1000" stroke-miterlimit="10" stroke-dasharray=""/></g><g><g><path fill="none" stroke="none"/><text fill="#000000" stroke="none" font-family="Arial" font-size="16px" font-style="normal" font-weight="normal" text-decoration="undefined" x="0" y="0" text-anchor="middle" dominant-baseline="text-before-edge" transform="matrix(6.123233995736766e-17 -1 1 6.123233995736766e-17 15 766)">API</text></g></g><g><path fill="none" stroke="#000000" paint-order="fill stroke markers" d=" M 10 1036 L 150.71875 1036 L 150.71875 1558 L 10 1558 L 10 1036 Z Z" stroke-miterlimit="10" stroke-dasharray=""/></g><g><path fill="none" stroke="#000000" paint-order="fill stroke markers" d=" M 36 1036 L 36 1558" stroke-miterlimit="10" stroke-dasharray=""/></g><g><g><path fill="none" stroke="none"/><text fill="#000000" stroke="none" font-family="Arial" font-size="16px" font-style="normal" font-weight="normal" text-decoration="undefined" x="0" y="0" text-anchor="middle" dominant-baseline="text-before-edge" transform="matrix(6.123233995736766e-17 -1 1 6.123233995736766e-17 15 1297)">Data Base</text></g></g><g><path fill="#C0C0C0" stroke="none" paint-order="stroke fill markers" d=" M 143 213 C 143 204.1634432 150.1634432 197 159 197 C 167.83655679999998 197 175 204.1634432 175 213 C 175 221.83655679999998 167.83655679999998 229 159 229 C 150.1634432 229 143 221.83655679999998 143 213 Z" fill-opacity="0.2"/></g><g><path fill="#ffffff" stroke="none" paint-order="stroke fill markers" d=" M 136 206 C 136 197.1634432 143.1634432 190 152 190 C 160.83655679999998 190 168 197.1634432 168 206 C 168 214.83655679999998 160.83655679999998 222 152 222 C 143.1634432 222 136 214.83655679999998 136 206 Z"/></g><g><path fill="none" stroke="#000000" paint-order="fill stroke markers" d=" M 136 206 C 136 197.1634432 143.1634432 190 152 190 C 160.83655679999998 190 168 197.1634432 168 206 C 168 214.83655679999998 160.83655679999998 222 152 222 C 143.1634432 222 136 214.83655679999998 136 206 Z" stroke-miterlimit="10" stroke-dasharray=""/></g><g><rect fill="#ffffff" stroke="none" x="144.27734375" y="278" width="211.4453125" height="16" transform="matrix(1 0 0 1 -98 -44)"/></g><g><g><path fill="none" stroke="none"/><text fill="#000000" stroke="none" font-family="Arial" font-size="16px" font-style="normal" font-weight="normal" text-decoration="undefined" x="250" y="286" text-anchor="middle" dominant-baseline="central" transform="matrix(1 0 0 1 -98 -44)">Нажал кнопку выполнить КД</text></g></g><g><path fill="#C0C0C0" stroke="none" paint-order="stroke fill markers" d=" M 413 197 L 435.4 197 L 445 206.6 L 445 237 L 413 237" fill-opacity="0.2"/></g><g><path fill="#ffffff" stroke="none" paint-order="stroke fill markers" d=" M 406 190 L 428.4 190 L 438 199.6 L 438 230 L 406 230"/></g><g><path fill="none" stroke="#000000" paint-order="fill stroke markers" d=" M 406 190 L 428.4 190 L 438 199.6 L 438 230 L 406 230 L 406 190" stroke-miterlimit="10" stroke-dasharray=""/></g><g><path fill="none" stroke="#000000" paint-order="fill stroke markers" d=" M 428.4 190 L 428.4 199.6 L 438 199.6 L 428.4 190" stroke-miterlimit="10" stroke-dasharray=""/></g><g><rect fill="#ffffff" stroke="none" x="445.31640625" y="282" width="149.3671875" height="16" transform="matrix(1 0 0 1 -98 -44)"/></g><g><g><path fill="none" stroke="none"/><text fill="#000000" stroke="none" font-family="Arial" font-size="16px" font-style="normal" font-weight="normal" text-decoration="undefined" x="520" y="290" text-anchor="middle" dominant-baseline="central" transform="matrix(1 0 0 1 -98 -44)">Экран записи видео</text></g></g><g><path fill="none" stroke="#000000" paint-order="fill stroke markers" d=" M 168 210 L 406 210" stroke-miterlimit="10" stroke-dasharray=""/></g><g><path fill="#000000" stroke="none" paint-order="stroke fill markers" d=" M 395.83732514237585 214.209517756016 L 406 210 L 395.83732514237585 205.790482243984"/></g><g><path fill="none" stroke="#000000" paint-order="fill stroke markers" d=" M 395.83732514237585 214.209517756016 L 406 210 L 395.83732514237585 205.790482243984 L 395.83732514237585 214.209517756016" stroke-miterlimit="10" stroke-dasharray=""/></g><g><path fill="#C0C0C0" stroke="none" paint-order="stroke fill markers" d=" M 873 197 L 984.8046875 197 Q 994.8046875 197 994.8046875 207 L 994.8046875 229 Q 994.8046875 239 984.8046875 239 L 873 239 Q 863 239 863 229 L 863 207 Q 863 197 873 197 Z" fill-opacity="0.2"/></g><g><path fill="#ffffff" stroke="none" paint-order="stroke fill markers" d=" M 866 190 L 977.8046875 190 Q 987.8046875 190 987.8046875 200 L 987.8046875 222 Q 987.8046875 232 977.8046875 232 L 866 232 Q 856 232 856 222 L 856 200 Q 856 190 866 190 Z"/></g><g><path fill="none" stroke="#000000" paint-order="fill stroke markers" d=" M 866 190 L 977.8046875 190 Q 987.8046875 190 987.8046875 200 L 987.8046875 222 Q 987.8046875 232 977.8046875 232 L 866 232 Q 856 232 856 222 L 856 200 Q 856 190 866 190 Z" stroke-miterlimit="10" stroke-dasharray=""/></g><g><path fill="none" stroke="#000000" paint-order="fill stroke markers" d=" M 866 199 C 866 197.3431456 867.3431456 196 869 196 C 870.6568544 196 872 197.3431456 872 199 C 872 200.6568544 870.6568544 202 869 202 C 867.3431456 202 866 200.6568544 866 199 Z" stroke-miterlimit="10" stroke-dasharray=""/></g><g><path fill="none" stroke="#000000" paint-order="fill stroke markers" d=" M 864 203 L 874 203 L 874 210 L 864 210 L 864 203 Z Z" stroke-miterlimit="10" stroke-dasharray=""/></g><g><g><path fill="none" stroke="none"/><text fill="#000000" stroke="none" font-family="Arial" font-size="16px" font-style="normal" font-weight="normal" text-decoration="undefined" x="1019.90234375" y="247" text-anchor="middle" dominant-baseline="central" transform="matrix(1 0 0 1 -98 -44)">Начать запись</text><text fill="#000000" stroke="none" font-family="Arial" font-size="16px" font-style="normal" font-weight="normal" text-decoration="undefined" x="1019.90234375" y="263" text-anchor="middle" dominant-baseline="central" transform="matrix(1 0 0 1 -98 -44)">видео</text></g></g><g><path fill="#C0C0C0" stroke="none" paint-order="stroke fill markers" d=" M 693 107 L 804.8046875 107 Q 814.8046875 107 814.8046875 117 L 814.8046875 139 Q 814.8046875 149 804.8046875 149 L 693 149 Q 683 149 683 139 L 683 117 Q 683 107 693 107 Z" fill-opacity="0.2"/></g><g><path fill="#ffffff" stroke="none" paint-order="stroke fill markers" d=" M 686 100 L 797.8046875 100 Q 807.8046875 100 807.8046875 110 L 807.8046875 132 Q 807.8046875 142 797.8046875 142 L 686 142 Q 676 142 676 132 L 676 110 Q 676 100 686 100 Z"/></g><g><path fill="none" stroke="#000000" paint-order="fill stroke markers" d=" M 686 100 L 797.8046875 100 Q 807.8046875 100 807.8046875 110 L 807.8046875 132 Q 807.8046875 142 797.8046875 142 L 686 142 Q 676 142 676 132 L 676 110 Q 676 100 686 100 Z" stroke-miterlimit="10" stroke-dasharray=""/></g><g><path fill="none" stroke="#000000" paint-order="fill stroke markers" d=" M 686 109 C 686 107.34314560000001 687.3431456 106 689 106 C 690.6568544 106 692 107.34314560000001 692 109 C 692 110.65685439999999 690.6568544 112 689 112 C 687.3431456 112 686 110.65685439999999 686 109 Z" stroke-miterlimit="10" stroke-dasharray=""/></g><g><path fill="none" stroke="#000000" paint-order="fill stroke markers" d=" M 684 113 L 694 113 L 694 120 L 684 120 L 684 113 Z Z" stroke-miterlimit="10" stroke-dasharray=""/></g><g><g><path fill="none" stroke="none"/><text fill="#000000" stroke="none" font-family="Arial" font-size="16px" font-style="normal" font-weight="normal" text-decoration="undefined" x="839.90234375" y="157" text-anchor="middle" dominant-baseline="central" transform="matrix(1 0 0 1 -98 -44)">Наложить</text><text fill="#000000" stroke="none" font-family="Arial" font-size="16px" font-style="normal" font-weight="normal" text-decoration="undefined" x="839.90234375" y="173" text-anchor="middle" dominant-baseline="central" transform="matrix(1 0 0 1 -98 -44)">фильтры</text></g></g><g><path fill="#C0C0C0" stroke="none" paint-order="stroke fill markers" d=" M 585 53 L 696.8046875 53 Q 706.8046875 53 706.8046875 63 L 706.8046875 69 Q 706.8046875 79 696.8046875 79 L 585 79 Q 575 79 575 69 L 575 63 Q 575 53 585 53 Z" fill-opacity="0.2"/></g><g><path fill="#ffffff" stroke="none" paint-order="stroke fill markers" d=" M 578 46 L 689.8046875 46 Q 699.8046875 46 699.8046875 56 L 699.8046875 62 Q 699.8046875 72 689.8046875 72 L 578 72 Q 568 72 568 62 L 568 56 Q 568 46 578 46 Z"/></g><g><path fill="none" stroke="#000000" paint-order="fill stroke markers" d=" M 578 46 L 689.8046875 46 Q 699.8046875 46 699.8046875 56 L 699.8046875 62 Q 699.8046875 72 689.8046875 72 L 578 72 Q 568 72 568 62 L 568 56 Q 568 46 578 46 Z" stroke-miterlimit="10" stroke-dasharray=""/></g><g><path fill="none" stroke="#000000" paint-order="fill stroke markers" d=" M 578 55 C 578 53.3431456 579.3431456 52 581 52 C 582.6568544 52 584 53.3431456 584 55 C 584 56.6568544 582.6568544 58 581 58 C 579.3431456 58 578 56.6568544 578 55 Z" stroke-miterlimit="10" stroke-dasharray=""/></g><g><path fill="none" stroke="#000000" paint-order="fill stroke markers" d=" M 576 59 L 586 59 L 586 66 L 576 66 L 576 59 Z Z" stroke-miterlimit="10" stroke-dasharray=""/></g><g><g><path fill="none" stroke="none"/><text fill="#000000" stroke="none" font-family="Arial" font-size="16px" font-style="normal" font-weight="normal" text-decoration="undefined" x="731.90234375" y="103" text-anchor="middle" dominant-baseline="central" transform="matrix(1 0 0 1 -98 -44)">Выбрать маску</text></g></g><g><path fill="#C0C0C0" stroke="none" paint-order="stroke fill markers" d=" M 1197 197 L 1308.8046875 197 Q 1318.8046875 197 1318.8046875 207 L 1318.8046875 229 Q 1318.8046875 239 1308.8046875 239 L 1197 239 Q 1187 239 1187 229 L 1187 207 Q 1187 197 1197 197 Z" fill-opacity="0.2"/></g><g><path fill="#ffffff" stroke="none" paint-order="stroke fill markers" d=" M 1190 190 L 1301.8046875 190 Q 1311.8046875 190 1311.8046875 200 L 1311.8046875 222 Q 1311.8046875 232 1301.8046875 232 L 1190 232 Q 1180 232 1180 222 L 1180 200 Q 1180 190 1190 190 Z"/></g><g><path fill="none" stroke="#000000" paint-order="fill stroke markers" d=" M 1190 190 L 1301.8046875 190 Q 1311.8046875 190 1311.8046875 200 L 1311.8046875 222 Q 1311.8046875 232 1301.8046875 232 L 1190 232 Q 1180 232 1180 222 L 1180 200 Q 1180 190 1190 190 Z" stroke-miterlimit="10" stroke-dasharray=""/></g><g><path fill="none" stroke="#000000" paint-order="fill stroke markers" d=" M 1190 199 C 1190 197.3431456 1191.3431456 196 1193 196 C 1194.6568544 196 1196 197.3431456 1196 199 C 1196 200.6568544 1194.6568544 202 1193 202 C 1191.3431456 202 1190 200.6568544 1190 199 Z" stroke-miterlimit="10" stroke-dasharray=""/></g><g><path fill="none" stroke="#000000" paint-order="fill stroke markers" d=" M 1188 203 L 1198 203 L 1198 210 L 1188 210 L 1188 203 Z Z" stroke-miterlimit="10" stroke-dasharray=""/></g><g><g><path fill="none" stroke="none"/><text fill="#000000" stroke="none" font-family="Arial" font-size="16px" font-style="normal" font-weight="normal" text-decoration="undefined" x="1343.90234375" y="247" text-anchor="middle" dominant-baseline="central" transform="matrix(1 0 0 1 -98 -44)">Завершить</text><text fill="#000000" stroke="none" font-family="Arial" font-size="16px" font-style="normal" font-weight="normal" text-decoration="undefined" x="1343.90234375" y="263" text-anchor="middle" dominant-baseline="central" transform="matrix(1 0 0 1 -98 -44)">запись видео</text></g></g></g></svg>