<svg version="1.1" xmlns="http://www.w3.org/2000/svg" xmlns:xlink="http://www.w3.org/1999/xlink" width="1892" height="1233.546875"><defs/><g><g><path fill="none" stroke="#000000" paint-order="fill stroke markers" d=" M 10 10 L 1882 10 L 1882 424 L 10 424 L 10 10 Z Z" stroke-miterlimit="10" stroke-dasharray=""/></g><g><path fill="none" stroke="#000000" paint-order="fill stroke markers" d=" M 36 10 L 36 424" stroke-miterlimit="10" stroke-dasharray=""/></g><g><g><path fill="none" stroke="none"/><text fill="#000000" stroke="none" font-family="Arial" font-size="16px" font-style="normal" font-weight="normal" text-decoration="undefined" x="0" y="0" text-anchor="middle" dominant-baseline="text-before-edge" transform="matrix(6.123233995736766e-17 -1 1 6.123233995736766e-17 15 217)">Админ сообщества</text></g></g><g><path fill="#C0C0C0" stroke="none" paint-order="stroke fill markers" d=" M 161 231 C 161 222.16344320000002 168.1634432 215 177 215 C 185.8365568 215 193 222.16344320000002 193 231 C 193 239.83655679999998 185.8365568 247 177 247 C 168.1634432 247 161 239.83655679999998 161 231 Z" fill-opacity="0.2"/></g><g><path fill="#ffffff" stroke="none" paint-order="stroke fill markers" d=" M 154 224 C 154 215.16344320000002 161.1634432 208 170 208 C 178.8365568 208 186 215.16344320000002 186 224 C 186 232.83655679999998 178.8365568 240 170 240 C 161.1634432 240 154 232.83655679999998 154 224 Z"/></g><g><path fill="none" stroke="#000000" paint-order="fill stroke markers" d=" M 154 224 C 154 215.16344320000002 161.1634432 208 170 208 C 178.8365568 208 186 215.16344320000002 186 224 C 186 232.83655679999998 178.8365568 240 170 240 C 161.1634432 240 154 232.83655679999998 154 224 Z" stroke-miterlimit="10" stroke-dasharray=""/></g><g><rect fill="#ffffff" stroke="none" x="148.216796875" y="323" width="167.56640625" height="48" transform="matrix(1 0 0 1 -62 -62)"/></g><g><g><path fill="none" stroke="none"/><text fill="#000000" stroke="none" font-family="Arial" font-size="16px" font-style="normal" font-weight="normal" text-decoration="undefined" x="232" y="331" text-anchor="middle" dominant-baseline="central" transform="matrix(1 0 0 1 -62 -62)">Открыл окно заявок</text><text fill="#000000" stroke="none" font-family="Arial" font-size="16px" font-style="normal" font-weight="normal" text-decoration="undefined" x="232" y="347" text-anchor="middle" dominant-baseline="central" transform="matrix(1 0 0 1 -62 -62)">на вступление в</text><text fill="#000000" stroke="none" font-family="Arial" font-size="16px" font-style="normal" font-weight="normal" text-decoration="undefined" x="232" y="363" text-anchor="middle" dominant-baseline="central" transform="matrix(1 0 0 1 -62 -62)">сообществе</text></g></g><g><path fill="#C0C0C0" stroke="none" paint-order="stroke fill markers" d=" M 513 215 L 673 215 Q 683 215 683 225 L 683 259 Q 683 269 673 269 L 513 269 Q 503 269 503 259 L 503 225 Q 503 215 513 215 Z" fill-opacity="0.2"/></g><g><path fill="#ffffff" stroke="none" paint-order="stroke fill markers" d=" M 506 208 L 666 208 Q 676 208 676 218 L 676 252 Q 676 262 666 262 L 506 262 Q 496 262 496 252 L 496 218 Q 496 208 506 208 Z"/></g><g><path fill="none" stroke="#000000" paint-order="fill stroke markers" d=" M 506 208 L 666 208 Q 676 208 676 218 L 676 252 Q 676 262 666 262 L 506 262 Q 496 262 496 252 L 496 218 Q 496 208 506 208 Z" stroke-miterlimit="10" stroke-dasharray=""/></g><g><path fill="none" stroke="#000000" paint-order="fill stroke markers" d=" M 506 217 C 506 215.3431456 507.34314559999996 214 509 214 C 510.65685440000004 214 512 215.3431456 512 217 C 512 218.6568544 510.65685440000004 220 509 220 C 507.34314559999996 220 506 218.6568544 506 217 Z" stroke-miterlimit="10" stroke-dasharray=""/></g><g><path fill="none" stroke="#000000" paint-order="fill stroke markers" d=" M 504 221 L 514 221 L 514 228 L 504 228 L 504 221 Z Z" stroke-miterlimit="10" stroke-dasharray=""/></g><g><g><path fill="none" stroke="none"/><text fill="#000000" stroke="none" font-family="Arial" font-size="16px" font-style="normal" font-weight="normal" text-decoration="undefined" x="648" y="289" text-anchor="middle" dominant-baseline="central" transform="matrix(1 0 0 1 -62 -62)">Выбирает заявку на</text><text fill="#000000" stroke="none" font-family="Arial" font-size="16px" font-style="normal" font-weight="normal" text-decoration="undefined" x="648" y="305" text-anchor="middle" dominant-baseline="central" transform="matrix(1 0 0 1 -62 -62)">вступление</text></g></g><g><path fill="#C0C0C0" stroke="none" paint-order="stroke fill markers" d=" M 377 215 L 399.4 215 L 409 224.60000000000002 L 409 255 L 377 255" fill-opacity="0.2"/></g><g><path fill="#ffffff" stroke="none" paint-order="stroke fill markers" d=" M 370 208 L 392.4 208 L 402 217.60000000000002 L 402 248 L 370 248"/></g><g><path fill="none" stroke="#000000" paint-order="fill stroke markers" d=" M 370 208 L 392.4 208 L 402 217.60000000000002 L 402 248 L 370 248 L 370 208" stroke-miterlimit="10" stroke-dasharray=""/></g><g><path fill="none" stroke="#000000" paint-order="fill stroke markers" d=" M 392.4 208 L 392.4 217.60000000000002 L 402 217.60000000000002 L 392.4 208" stroke-miterlimit="10" stroke-dasharray=""/></g><g><rect fill="#ffffff" stroke="none" x="380.41796875" y="318" width="135.1640625" height="16" transform="matrix(1 0 0 1 -62 -62)"/></g><g><g><path fill="none" stroke="none"/><text fill="#000000" stroke="none" font-family="Arial" font-size="16px" font-style="normal" font-weight="normal" text-decoration="undefined" x="448" y="326" text-anchor="middle" dominant-baseline="central" transform="matrix(1 0 0 1 -62 -62)">Список заявок</text></g></g><g><path fill="#C0C0C0" stroke="none" paint-order="stroke fill markers" d=" M 1053 215 L 1164.8046875 215 Q 1174.8046875 215 1174.8046875 225 L 1174.8046875 247 Q 1174.8046875 257 1164.8046875 257 L 1053 257 Q 1043 257 1043 247 L 1043 225 Q 1043 215 1053 215 Z" fill-opacity="0.2"/></g><g><path fill="#ffffff" stroke="none" paint-order="stroke fill markers" d=" M 1046 208 L 1157.8046875 208 Q 1167.8046875 208 1167.8046875 218 L 1167.8046875 240 Q 1167.8046875 250 1157.8046875 250 L 1046 250 Q 1036 250 1036 240 L 1036 218 Q 1036 208 1046 208 Z"/></g><g><path fill="none" stroke="#000000" paint-order="fill stroke markers" d=" M 1046 208 L 1157.8046875 208 Q 1167.8046875 208 1167.8046875 218 L 1167.8046875 240 Q 1167.8046875 250 1157.8046875 250 L 1046 250 Q 1036 250 1036 240 L 1036 218 Q 1036 208 1046 208 Z" stroke-miterlimit="10" stroke-dasharray=""/></g><g><path fill="none" stroke="#000000" paint-order="fill stroke markers" d=" M 1046 217 C 1046 215.3431456 1047.3431456 214 1049 214 C 1050.6568544 214 1052 215.3431456 1052 217 C 1052 218.6568544 1050.6568544 220 1049 220 C 1047.3431456 220 1046 218.6568544 1046 217 Z" stroke-miterlimit="10" stroke-dasharray=""/></g><g><path fill="none" stroke="#000000" paint-order="fill stroke markers" d=" M 1044 221 L 1054 221 L 1054 228 L 1044 228 L 1044 221 Z Z" stroke-miterlimit="10" stroke-dasharray=""/></g><g><g><path fill="none" stroke="none"/><text fill="#000000" stroke="none" font-family="Arial" font-size="16px" font-style="normal" font-weight="normal" text-decoration="undefined" x="1163.90234375" y="283" text-anchor="middle" dominant-baseline="central" transform="matrix(1 0 0 1 -62 -62)">Нажимает</text><text fill="#000000" stroke="none" font-family="Arial" font-size="16px" font-style="normal" font-weight="normal" text-decoration="undefined" x="1163.90234375" y="299" text-anchor="middle" dominant-baseline="central" transform="matrix(1 0 0 1 -62 -62)">"Подтвредить"</text></g></g><g><path fill="#C0C0C0" stroke="none" paint-order="stroke fill markers" d=" M 1323 305 L 1501 305 Q 1511 305 1511 315 L 1511 367 Q 1511 377 1501 377 L 1323 377 Q 1313 377 1313 367 L 1313 315 Q 1313 305 1323 305 Z" fill-opacity="0.2"/></g><g><path fill="#ffffff" stroke="none" paint-order="stroke fill markers" d=" M 1316 298 L 1494 298 Q 1504 298 1504 308 L 1504 360 Q 1504 370 1494 370 L 1316 370 Q 1306 370 1306 360 L 1306 308 Q 1306 298 1316 298 Z"/></g><g><path fill="none" stroke="#000000" paint-order="fill stroke markers" d=" M 1316 298 L 1494 298 Q 1504 298 1504 308 L 1504 360 Q 1504 370 1494 370 L 1316 370 Q 1306 370 1306 360 L 1306 308 Q 1306 298 1316 298 Z" stroke-miterlimit="10" stroke-dasharray=""/></g><g><path fill="none" stroke="#000000" paint-order="fill stroke markers" d=" M 1316 307 C 1316 305.3431456 1317.3431456 304 1319 304 C 1320.6568544 304 1322 305.3431456 1322 307 C 1322 308.6568544 1320.6568544 310 1319 310 C 1317.3431456 310 1316 308.6568544 1316 307 Z" stroke-miterlimit="10" stroke-dasharray=""/></g><g><path fill="none" stroke="#000000" paint-order="fill stroke markers" d=" M 1314 311 L 1324 311 L 1324 318 L 1314 318 L 1314 311 Z Z" stroke-miterlimit="10" stroke-dasharray=""/></g><g><g><path fill="none" stroke="none"/><text fill="#000000" stroke="none" font-family="Arial" font-size="16px" font-style="normal" font-weight="normal" text-decoration="undefined" x="1467" y="396" text-anchor="middle" dominant-baseline="central" transform="matrix(1 0 0 1 -62 -62)">Нажимает "Отменить"</text></g></g><g><path fill="#C0C0C0" stroke="none" paint-order="stroke fill markers" d=" M 747 143 L 925 143 Q 935 143 935 153 L 935 205 Q 935 215 925 215 L 747 215 Q 737 215 737 205 L 737 153 Q 737 143 747 143 Z" fill-opacity="0.2"/></g><g><path fill="#ffffff" stroke="none" paint-order="stroke fill markers" d=" M 740 136 L 918 136 Q 928 136 928 146 L 928 198 Q 928 208 918 208 L 740 208 Q 730 208 730 198 L 730 146 Q 730 136 740 136 Z"/></g><g><path fill="none" stroke="#000000" paint-order="fill stroke markers" d=" M 740 136 L 918 136 Q 928 136 928 146 L 928 198 Q 928 208 918 208 L 740 208 Q 730 208 730 198 L 730 146 Q 730 136 740 136 Z" stroke-miterlimit="10" stroke-dasharray=""/></g><g><path fill="none" stroke="#000000" paint-order="fill stroke markers" d=" M 740 145 C 740 143.3431456 741.3431456 142 743 142 C 744.6568544 142 746 143.3431456 746 145 C 746 146.6568544 744.6568544 148 743 148 C 741.3431456 148 740 146.6568544 740 145 Z" stroke-miterlimit="10" stroke-dasharray=""/></g><g><path fill="none" stroke="#000000" paint-order="fill stroke markers" d=" M 738 149 L 748 149 L 748 156 L 738 156 L 738 149 Z Z" stroke-miterlimit="10" stroke-dasharray=""/></g><g><g><path fill="none" stroke="none"/><text fill="#000000" stroke="none" font-family="Arial" font-size="16px" font-style="normal" font-weight="normal" text-decoration="undefined" x="891" y="226" text-anchor="middle" dominant-baseline="central" transform="matrix(1 0 0 1 -62 -62)">Нажимает "открыть</text><text fill="#000000" stroke="none" font-family="Arial" font-size="16px" font-style="normal" font-weight="normal" text-decoration="undefined" x="891" y="242" text-anchor="middle" dominant-baseline="central" transform="matrix(1 0 0 1 -62 -62)">профиль пользователя"</text></g></g><g><path fill="#C0C0C0" stroke="none" paint-order="stroke fill markers" d=" M 1781 195 C 1781 186.1634432 1788.1634432 179 1797 179 C 1805.8365568 179 1813 186.1634432 1813 195 C 1813 203.83655679999998 1805.8365568 211 1797 211 C 1788.1634432 211 1781 203.83655679999998 1781 195 Z" fill-opacity="0.2"/></g><g><path fill="#ffffff" stroke="none" paint-order="stroke fill markers" d=" M 1774 188 C 1774 179.1634432 1781.1634432 172 1790 172 C 1798.8365568 172 1806 179.1634432 1806 188 C 1806 196.83655679999998 1798.8365568 204 1790 204 C 1781.1634432 204 1774 196.83655679999998 1774 188 Z"/></g><g><path fill="none" stroke="#000000" paint-order="fill stroke markers" d=" M 1774 188 C 1774 179.1634432 1781.1634432 172 1790 172 C 1798.8365568 172 1806 179.1634432 1806 188 C 1806 196.83655679999998 1798.8365568 204 1790 204 C 1781.1634432 204 1774 196.83655679999998 1774 188 Z" stroke-miterlimit="10" stroke-width="3" stroke-dasharray=""/></g><g><rect fill="#ffffff" stroke="none" x="1768.51953125" y="278" width="166.9609375" height="16" transform="matrix(1 0 0 1 -62 -62)"/></g><g><g><path fill="none" stroke="none"/><text fill="#000000" stroke="none" font-family="Arial" font-size="16px" font-style="normal" font-weight="normal" text-decoration="undefined" x="1852" y="286" text-anchor="middle" dominant-baseline="central" transform="matrix(1 0 0 1 -62 -62)">Обработка завершена</text></g></g><g><path fill="none" stroke="#000000" paint-order="fill stroke markers" d=" M 10 460 L 1882 460 L 1882 784 L 10 784 L 10 460 Z Z" stroke-miterlimit="10" stroke-dasharray=""/></g><g><path fill="none" stroke="#000000" paint-order="fill stroke markers" d=" M 36 460 L 36 784" stroke-miterlimit="10" stroke-dasharray=""/></g><g><g><path fill="none" stroke="none"/><text fill="#000000" stroke="none" font-family="Arial" font-size="16px" font-style="normal" font-weight="normal" text-decoration="undefined" x="0" y="0" text-anchor="middle" dominant-baseline="text-before-edge" transform="matrix(6.123233995736766e-17 -1 1 6.123233995736766e-17 15 622)">API</text></g></g><g><path fill="#C0C0C0" stroke="none" paint-order="stroke fill markers" d=" M 837 539 L 928.5546875 539 Q 938.5546875 539 938.5546875 549 L 938.5546875 587 Q 938.5546875 597 928.5546875 597 L 837 597 Q 827 597 827 587 L 827 549 Q 827 539 837 539 Z" fill-opacity="0.2"/></g><g><path fill="#ffffff" stroke="none" paint-order="stroke fill markers" d=" M 830 532 L 921.5546875 532 Q 931.5546875 532 931.5546875 542 L 931.5546875 580 Q 931.5546875 590 921.5546875 590 L 830 590 Q 820 590 820 580 L 820 542 Q 820 532 830 532 Z"/></g><g><path fill="none" stroke="#000000" paint-order="fill stroke markers" d=" M 830 532 L 921.5546875 532 Q 931.5546875 532 931.5546875 542 L 931.5546875 580 Q 931.5546875 590 921.5546875 590 L 830 590 Q 820 590 820 580 L 820 542 Q 820 532 830 532 Z" stroke-miterlimit="10" stroke-dasharray=""/></g><g><g><path fill="none" stroke="none"/><text fill="#000000" stroke="none" font-family="Arial" font-size="16px" font-style="normal" font-weight="normal" text-decoration="undefined" x="937.77734375" y="607" text-anchor="middle" dominant-baseline="central" transform="matrix(1 0 0 1 -62 -62)">Извлекаем</text><text fill="#000000" stroke="none" font-family="Arial" font-size="16px" font-style="normal" font-weight="normal" text-decoration="undefined" x="937.77734375" y="623" text-anchor="middle" dominant-baseline="central" transform="matrix(1 0 0 1 -62 -62)">данные о</text><text fill="#000000" stroke="none" font-family="Arial" font-size="16px" font-style="normal" font-weight="normal" text-decoration="undefined" x="937.77734375" y="639" text-anchor="middle" dominant-baseline="central" transform="matrix(1 0 0 1 -62 -62)">пользователе</text></g></g><g><path fill="none" stroke="#000000" paint-order="fill stroke markers" d=" M 10 838 L 1882 838 L 1882 978.71875 L 10 978.71875 L 10 838 Z Z" stroke-miterlimit="10" stroke-dasharray=""/></g><g><path fill="none" stroke="#000000" paint-order="fill stroke markers" d=" M 36 838 L 36 978.71875" stroke-miterlimit="10" stroke-dasharray=""/></g><g><g><path fill="none" stroke="none"/><text fill="#000000" stroke="none" font-family="Arial" font-size="16px" font-style="normal" font-weight="normal" text-decoration="undefined" x="0" y="0" text-anchor="middle" dominant-baseline="text-before-edge" transform="matrix(6.123233995736766e-17 -1 1 6.123233995736766e-17 15 908.359375)">База данных</text></g></g><g><path fill="none" stroke="#000000" paint-order="fill stroke markers" d=" M 871 590 L 871 838" stroke-miterlimit="10" stroke-dasharray=""/></g><g><path fill="#000000" stroke="none" paint-order="stroke fill markers" d=" M 866.790482243984 827.8373251423759 L 871 838 L 875.209517756016 827.8373251423759"/></g><g><path fill="none" stroke="#000000" paint-order="fill stroke markers" d=" M 866.790482243984 827.8373251423759 L 871 838 L 875.209517756016 827.8373251423759 L 866.790482243984 827.8373251423759" stroke-miterlimit="10" stroke-dasharray=""/></g><g><path fill="none" stroke="#000000" paint-order="fill stroke markers" d=" M 882 208 L 882 532" stroke-miterlimit="10" stroke-dasharray=""/></g><g><path fill="#000000" stroke="none" paint-order="stroke fill markers" d=" M 877.790482243984 521.8373251423759 L 882 532 L 886.209517756016 521.8373251423759"/></g><g><path fill="none" stroke="#000000" paint-order="fill stroke markers" d=" M 877.790482243984 521.8373251423759 L 882 532 L 886.209517756016 521.8373251423759 L 877.790482243984 521.8373251423759" stroke-miterlimit="10" stroke-dasharray=""/></g><g><path fill="#C0C0C0" stroke="none" paint-order="stroke fill markers" d=" M 1133 71 L 1155.4 71 L 1165 80.6 L 1165 111 L 1133 111" fill-opacity="0.2"/></g><g><path fill="#ffffff" stroke="none" paint-order="stroke fill markers" d=" M 1126 64 L 1148.4 64 L 1158 73.6 L 1158 104 L 1126 104"/></g><g><path fill="none" stroke="#000000" paint-order="fill stroke markers" d=" M 1126 64 L 1148.4 64 L 1158 73.6 L 1158 104 L 1126 104 L 1126 64" stroke-miterlimit="10" stroke-dasharray=""/></g><g><path fill="none" stroke="#000000" paint-order="fill stroke markers" d=" M 1148.4 64 L 1148.4 73.6 L 1158 73.6 L 1148.4 64" stroke-miterlimit="10" stroke-dasharray=""/></g><g><rect fill="#ffffff" stroke="none" x="1040.7890625" y="174" width="326.421875" height="16" transform="matrix(1 0 0 1 -62 -62)"/></g><g><g><path fill="none" stroke="none"/><text fill="#000000" stroke="none" font-family="Arial" font-size="16px" font-style="normal" font-weight="normal" text-decoration="undefined" x="1204" y="182" text-anchor="middle" dominant-baseline="central" transform="matrix(1 0 0 1 -62 -62)">Отображается информация о пользователе</text></g></g><g><path fill="none" stroke="#000000" paint-order="fill stroke markers" d=" M 932 532 L 992 532 L 992 532 A 8 8 0 0 0 1000 524 L 1000 74 L 1000 74 A 8 8 0 0 1 1008 66 L 1126 66" stroke-miterlimit="10" stroke-dasharray=""/></g><g><path fill="#000000" stroke="none" paint-order="stroke fill markers" d=" M 1115.837325142376 70.209517756016 L 1126 66 L 1115.837325142376 61.790482243984016"/></g><g><path fill="none" stroke="#000000" paint-order="fill stroke markers" d=" M 1115.837325142376 70.209517756016 L 1126 66 L 1115.837325142376 61.790482243984016 L 1115.837325142376 70.209517756016" stroke-miterlimit="10" stroke-dasharray=""/></g><g><path fill="none" stroke="#000000" paint-order="fill stroke markers" d=" M 1126 82 L 410 82 L 410 82 A 8 8 0 0 0 402 90 L 402 208" stroke-miterlimit="10" stroke-dasharray=""/></g><g><path fill="#000000" stroke="none" paint-order="stroke fill markers" d=" M 397.790482243984 197.83732514237585 L 402 208 L 406.209517756016 197.83732514237585"/></g><g><path fill="none" stroke="#000000" paint-order="fill stroke markers" d=" M 397.790482243984 197.83732514237585 L 402 208 L 406.209517756016 197.83732514237585 L 397.790482243984 197.83732514237585" stroke-miterlimit="10" stroke-dasharray=""/></g><g><path fill="#C0C0C0" stroke="none" paint-order="stroke fill markers" d=" M 1053 503 L 1144.3203125 503 Q 1154.3203125 503 1154.3203125 513 L 1154.3203125 615 Q 1154.3203125 625 1144.3203125 625 L 1053 625 Q 1043 625 1043 615 L 1043 513 Q 1043 503 1053 503 Z" fill-opacity="0.2"/></g><g><path fill="#ffffff" stroke="none" paint-order="stroke fill markers" d=" M 1046 496 L 1137.3203125 496 Q 1147.3203125 496 1147.3203125 506 L 1147.3203125 608 Q 1147.3203125 618 1137.3203125 618 L 1046 618 Q 1036 618 1036 608 L 1036 506 Q 1036 496 1046 496 Z"/></g><g><path fill="none" stroke="#000000" paint-order="fill stroke markers" d=" M 1046 496 L 1137.3203125 496 Q 1147.3203125 496 1147.3203125 506 L 1147.3203125 608 Q 1147.3203125 618 1137.3203125 618 L 1046 618 Q 1036 618 1036 608 L 1036 506 Q 1036 496 1046 496 Z" stroke-miterlimit="10" stroke-dasharray=""/></g><g><g><path fill="none" stroke="none"/><text fill="#000000" stroke="none" font-family="Arial" font-size="16px" font-style="normal" font-weight="normal" text-decoration="undefined" x="1153.66015625" y="571" text-anchor="middle" dominant-baseline="central" transform="matrix(1 0 0 1 -62 -62)">Сделать</text><text fill="#000000" stroke="none" font-family="Arial" font-size="16px" font-style="normal" font-weight="normal" text-decoration="undefined" x="1153.66015625" y="587" text-anchor="middle" dominant-baseline="central" transform="matrix(1 0 0 1 -62 -62)">пользователя</text><text fill="#000000" stroke="none" font-family="Arial" font-size="16px" font-style="normal" font-weight="normal" text-decoration="undefined" x="1153.66015625" y="603" text-anchor="middle" dominant-baseline="central" transform="matrix(1 0 0 1 -62 -62)">частью</text><text fill="#000000" stroke="none" font-family="Arial" font-size="16px" font-style="normal" font-weight="normal" text-decoration="undefined" x="1153.66015625" y="619" text-anchor="middle" dominant-baseline="central" transform="matrix(1 0 0 1 -62 -62)">сообщества.</text><text fill="#000000" stroke="none" font-family="Arial" font-size="16px" font-style="normal" font-weight="normal" text-decoration="undefined" x="1153.66015625" y="635" text-anchor="middle" dominant-baseline="central" transform="matrix(1 0 0 1 -62 -62)">Удалить</text><text fill="#000000" stroke="none" font-family="Arial" font-size="16px" font-style="normal" font-weight="normal" text-decoration="undefined" x="1153.66015625" y="651" text-anchor="middle" dominant-baseline="central" transform="matrix(1 0 0 1 -62 -62)">заявку на</text><text fill="#000000" stroke="none" font-family="Arial" font-size="16px" font-style="normal" font-weight="normal" text-decoration="undefined" x="1153.66015625" y="667" text-anchor="middle" dominant-baseline="central" transform="matrix(1 0 0 1 -62 -62)">вступление</text></g></g><g><path fill="#C0C0C0" stroke="none" paint-order="stroke fill markers" d=" M 1197 629 L 1291.65625 629 Q 1301.65625 629 1301.65625 639 L 1301.65625 709 Q 1301.65625 719 1291.65625 719 L 1197 719 Q 1187 719 1187 709 L 1187 639 Q 1187 629 1197 629 Z" fill-opacity="0.2"/></g><g><path fill="#ffffff" stroke="none" paint-order="stroke fill markers" d=" M 1190 622 L 1284.65625 622 Q 1294.65625 622 1294.65625 632 L 1294.65625 702 Q 1294.65625 712 1284.65625 712 L 1190 712 Q 1180 712 1180 702 L 1180 632 Q 1180 622 1190 622 Z"/></g><g><path fill="none" stroke="#000000" paint-order="fill stroke markers" d=" M 1190 622 L 1284.65625 622 Q 1294.65625 622 1294.65625 632 L 1294.65625 702 Q 1294.65625 712 1284.65625 712 L 1190 712 Q 1180 712 1180 702 L 1180 632 Q 1180 622 1190 622 Z" stroke-miterlimit="10" stroke-dasharray=""/></g><g><g><path fill="none" stroke="none"/><text fill="#000000" stroke="none" font-family="Arial" font-size="16px" font-style="normal" font-weight="normal" text-decoration="undefined" x="1299.328125" y="697" text-anchor="middle" dominant-baseline="central" transform="matrix(1 0 0 1 -62 -62)">Отправить</text><text fill="#000000" stroke="none" font-family="Arial" font-size="16px" font-style="normal" font-weight="normal" text-decoration="undefined" x="1299.328125" y="713" text-anchor="middle" dominant-baseline="central" transform="matrix(1 0 0 1 -62 -62)">уведомление</text><text fill="#000000" stroke="none" font-family="Arial" font-size="16px" font-style="normal" font-weight="normal" text-decoration="undefined" x="1299.328125" y="729" text-anchor="middle" dominant-baseline="central" transform="matrix(1 0 0 1 -62 -62)">пользователю</text><text fill="#000000" stroke="none" font-family="Arial" font-size="16px" font-style="normal" font-weight="normal" text-decoration="undefined" x="1299.328125" y="745" text-anchor="middle" dominant-baseline="central" transform="matrix(1 0 0 1 -62 -62)">"Ваше заявку</text><text fill="#000000" stroke="none" font-family="Arial" font-size="16px" font-style="normal" font-weight="normal" text-decoration="undefined" x="1299.328125" y="761" text-anchor="middle" dominant-baseline="central" transform="matrix(1 0 0 1 -62 -62)">подтвердили"</text></g></g><g><path fill="none" stroke="#000000" paint-order="fill stroke markers" d=" M 10 1054 L 1882 1054 L 1882 1223.546875 L 10 1223.546875 L 10 1054 Z Z" stroke-miterlimit="10" stroke-dasharray=""/></g><g><path fill="none" stroke="#000000" paint-order="fill stroke markers" d=" M 36 1054 L 36 1223.546875" stroke-miterlimit="10" stroke-dasharray=""/></g><g><g><path fill="none" stroke="none"/><text fill="#000000" stroke="none" font-family="Arial" font-size="16px" font-style="normal" font-weight="normal" text-decoration="undefined" x="0" y="0" text-anchor="middle" dominant-baseline="text-before-edge" transform="matrix(6.123233995736766e-17 -1 1 6.123233995736766e-17 15 1138.7734375)">Сервис Уведомлений</text></g></g><g><path fill="none" stroke="#000000" paint-order="fill stroke markers" d=" M 1295 669 L 1352 669 L 1352 669 A 8 8 0 0 1 1360 677 L 1360 1054" stroke-miterlimit="10" stroke-dasharray=""/></g><g><path fill="#000000" stroke="none" paint-order="stroke fill markers" d=" M 1355.7904822439841 1043.837325142376 L 1360 1054 L 1364.2095177560159 1043.837325142376"/></g><g><path fill="none" stroke="#000000" paint-order="fill stroke markers" d=" M 1355.7904822439841 1043.837325142376 L 1360 1054 L 1364.2095177560159 1043.837325142376 L 1355.7904822439841 1043.837325142376" stroke-miterlimit="10" stroke-dasharray=""/></g><g><path fill="none" stroke="#000000" paint-order="fill stroke markers" d=" M 1136 104 L 1136 208" stroke-miterlimit="10" stroke-dasharray=""/></g><g><path fill="#000000" stroke="none" paint-order="stroke fill markers" d=" M 1131.7904822439841 197.83732514237585 L 1136 208 L 1140.2095177560159 197.83732514237585"/></g><g><path fill="none" stroke="#000000" paint-order="fill stroke markers" d=" M 1131.7904822439841 197.83732514237585 L 1136 208 L 1140.2095177560159 197.83732514237585 L 1131.7904822439841 197.83732514237585" stroke-miterlimit="10" stroke-dasharray=""/></g><g><path fill="none" stroke="#000000" paint-order="fill stroke markers" d=" M 1102 250 L 1102 496" stroke-miterlimit="10" stroke-dasharray=""/></g><g><path fill="#000000" stroke="none" paint-order="stroke fill markers" d=" M 1097.7904822439841 485.8373251423759 L 1102 496 L 1106.2095177560159 485.8373251423759"/></g><g><path fill="none" stroke="#000000" paint-order="fill stroke markers" d=" M 1097.7904822439841 485.8373251423759 L 1102 496 L 1106.2095177560159 485.8373251423759 L 1097.7904822439841 485.8373251423759" stroke-miterlimit="10" stroke-dasharray=""/></g><g><path fill="none" stroke="#000000" paint-order="fill stroke markers" d=" M 1147 618 L 1147 632 L 1147 632 A 8 8 0 0 0 1155 640 L 1180 640" stroke-miterlimit="10" stroke-dasharray=""/></g><g><path fill="#000000" stroke="none" paint-order="stroke fill markers" d=" M 1169.837325142376 644.209517756016 L 1180 640 L 1169.837325142376 635.790482243984"/></g><g><path fill="none" stroke="#000000" paint-order="fill stroke markers" d=" M 1169.837325142376 644.209517756016 L 1180 640 L 1169.837325142376 635.790482243984 L 1169.837325142376 644.209517756016" stroke-miterlimit="10" stroke-dasharray=""/></g><g><path fill="#C0C0C0" stroke="none" paint-order="stroke fill markers" d=" M 1449 521 L 1527.0234375 521 Q 1537.0234375 521 1537.0234375 531 L 1537.0234375 569 Q 1537.0234375 579 1527.0234375 579 L 1449 579 Q 1439 579 1439 569 L 1439 531 Q 1439 521 1449 521 Z" fill-opacity="0.2"/></g><g><path fill="#ffffff" stroke="none" paint-order="stroke fill markers" d=" M 1442 514 L 1520.0234375 514 Q 1530.0234375 514 1530.0234375 524 L 1530.0234375 562 Q 1530.0234375 572 1520.0234375 572 L 1442 572 Q 1432 572 1432 562 L 1432 524 Q 1432 514 1442 514 Z"/></g><g><path fill="none" stroke="#000000" paint-order="fill stroke markers" d=" M 1442 514 L 1520.0234375 514 Q 1530.0234375 514 1530.0234375 524 L 1530.0234375 562 Q 1530.0234375 572 1520.0234375 572 L 1442 572 Q 1432 572 1432 562 L 1432 524 Q 1432 514 1442 514 Z" stroke-miterlimit="10" stroke-dasharray=""/></g><g><g><path fill="none" stroke="none"/><text fill="#000000" stroke="none" font-family="Arial" font-size="16px" font-style="normal" font-weight="normal" text-decoration="undefined" x="1543.01171875" y="589" text-anchor="middle" dominant-baseline="central" transform="matrix(1 0 0 1 -62 -62)">Удалить</text><text fill="#000000" stroke="none" font-family="Arial" font-size="16px" font-style="normal" font-weight="normal" text-decoration="undefined" x="1543.01171875" y="605" text-anchor="middle" dominant-baseline="central" transform="matrix(1 0 0 1 -62 -62)">заявку на</text><text fill="#000000" stroke="none" font-family="Arial" font-size="16px" font-style="normal" font-weight="normal" text-decoration="undefined" x="1543.01171875" y="621" text-anchor="middle" dominant-baseline="central" transform="matrix(1 0 0 1 -62 -62)">вступление</text></g></g><g><path fill="none" stroke="#000000" paint-order="fill stroke markers" d=" M 1406 370 L 1406 506 L 1406 506 A 8 8 0 0 0 1414 514 L 1432 514" stroke-miterlimit="10" stroke-dasharray=""/></g><g><path fill="#000000" stroke="none" paint-order="stroke fill markers" d=" M 1421.837325142376 518.209517756016 L 1432 514 L 1421.837325142376 509.790482243984"/></g><g><path fill="none" stroke="#000000" paint-order="fill stroke markers" d=" M 1421.837325142376 518.209517756016 L 1432 514 L 1421.837325142376 509.790482243984 L 1421.837325142376 518.209517756016" stroke-miterlimit="10" stroke-dasharray=""/></g><g><path fill="none" stroke="#000000" paint-order="fill stroke markers" d=" M 1432 572 L 1432 838" stroke-miterlimit="10" stroke-dasharray=""/></g><g><path fill="#000000" stroke="none" paint-order="stroke fill markers" d=" M 1427.7904822439841 827.8373251423759 L 1432 838 L 1436.2095177560159 827.8373251423759"/></g><g><path fill="none" stroke="#000000" paint-order="fill stroke markers" d=" M 1427.7904822439841 827.8373251423759 L 1432 838 L 1436.2095177560159 827.8373251423759 L 1427.7904822439841 827.8373251423759" stroke-miterlimit="10" stroke-dasharray=""/></g><g><path fill="none" stroke="#000000" paint-order="fill stroke markers" d=" M 1295 640 L 1766 640 L 1766 640 A 8 8 0 0 0 1774 632 L 1774 204" stroke-miterlimit="10" stroke-dasharray=""/></g><g><path fill="#000000" stroke="none" paint-order="stroke fill markers" d=" M 1778.2095177560159 214.16267485762415 L 1774 204 L 1769.7904822439841 214.16267485762415"/></g><g><path fill="none" stroke="#000000" paint-order="fill stroke markers" d=" M 1778.2095177560159 214.16267485762415 L 1774 204 L 1769.7904822439841 214.16267485762415 L 1778.2095177560159 214.16267485762415" stroke-miterlimit="10" stroke-dasharray=""/></g><g><path fill="none" stroke="#000000" paint-order="fill stroke markers" d=" M 1530 514 L 1768 514 L 1768 514 A 8 8 0 0 0 1776 506 L 1776 204" stroke-miterlimit="10" stroke-dasharray=""/></g><g><path fill="#000000" stroke="none" paint-order="stroke fill markers" d=" M 1780.2095177560159 214.16267485762415 L 1776 204 L 1771.7904822439841 214.16267485762415"/></g><g><path fill="none" stroke="#000000" paint-order="fill stroke markers" d=" M 1780.2095177560159 214.16267485762415 L 1776 204 L 1771.7904822439841 214.16267485762415 L 1780.2095177560159 214.16267485762415" stroke-miterlimit="10" stroke-dasharray=""/></g><g><path fill="none" stroke="#000000" paint-order="fill stroke markers" d=" M 402 232 L 496 232" stroke-miterlimit="10" stroke-dasharray=""/></g><g><path fill="#000000" stroke="none" paint-order="stroke fill markers" d=" M 485.8373251423759 236.209517756016 L 496 232 L 485.8373251423758 227.790482243984"/></g><g><path fill="none" stroke="#000000" paint-order="fill stroke markers" d=" M 485.8373251423759 236.209517756016 L 496 232 L 485.8373251423758 227.790482243984 L 485.8373251423759 236.209517756016" stroke-miterlimit="10" stroke-dasharray=""/></g><g><path fill="none" stroke="#000000" paint-order="fill stroke markers" d=" M 676 208 L 676 180 L 676 180 A 8 8 0 0 1 684 172 L 730 172" stroke-miterlimit="10" stroke-dasharray=""/></g><g><path fill="#000000" stroke="none" paint-order="stroke fill markers" d=" M 719.8373251423759 176.209517756016 L 730 172 L 719.8373251423758 167.790482243984"/></g><g><path fill="none" stroke="#000000" paint-order="fill stroke markers" d=" M 719.8373251423759 176.209517756016 L 730 172 L 719.8373251423758 167.790482243984 L 719.8373251423759 176.209517756016" stroke-miterlimit="10" stroke-dasharray=""/></g><g><path fill="none" stroke="#000000" paint-order="fill stroke markers" d=" M 676 234 L 1036 234" stroke-miterlimit="10" stroke-dasharray=""/></g><g><path fill="#000000" stroke="none" paint-order="stroke fill markers" d=" M 1025.837325142376 238.209517756016 L 1036 234 L 1025.837325142376 229.790482243984"/></g><g><path fill="none" stroke="#000000" paint-order="fill stroke markers" d=" M 1025.837325142376 238.209517756016 L 1036 234 L 1025.837325142376 229.790482243984 L 1025.837325142376 238.209517756016" stroke-miterlimit="10" stroke-dasharray=""/></g><g><path fill="none" stroke="#000000" paint-order="fill stroke markers" d=" M 676 262 L 676 314 L 676 314 A 8 8 0 0 0 684 322 L 1306 322" stroke-miterlimit="10" stroke-dasharray=""/></g><g><path fill="#000000" stroke="none" paint-order="stroke fill markers" d=" M 1295.837325142376 326.209517756016 L 1306 322 L 1295.837325142376 317.790482243984"/></g><g><path fill="none" stroke="#000000" paint-order="fill stroke markers" d=" M 1295.837325142376 326.209517756016 L 1306 322 L 1295.837325142376 317.790482243984 L 1295.837325142376 326.209517756016" stroke-miterlimit="10" stroke-dasharray=""/></g><g><path fill="none" stroke="#000000" paint-order="fill stroke markers" d=" M 186 228 L 370 228" stroke-miterlimit="10" stroke-dasharray=""/></g><g><path fill="#000000" stroke="none" paint-order="stroke fill markers" d=" M 359.83732514237585 232.209517756016 L 370 228 L 359.83732514237585 223.790482243984"/></g><g><path fill="none" stroke="#000000" paint-order="fill stroke markers" d=" M 359.83732514237585 232.209517756016 L 370 228 L 359.83732514237585 223.790482243984 L 359.83732514237585 232.209517756016" stroke-miterlimit="10" stroke-dasharray=""/></g></g></svg>