<svg version="1.1" xmlns="http://www.w3.org/2000/svg" xmlns:xlink="http://www.w3.org/1999/xlink" width="565.4453125" height="380"><defs/><g><g><rect fill="#ffffff" stroke="none" x="216" y="72" width="356.984375" height="52" transform="matrix(1 0 0 1 -206 -62)"/></g><g><path fill="#ffffff" stroke="none" paint-order="stroke fill markers" d=" M 366.984375 10 A 26 26 0 0 1 366.984375 62"/></g><g><path fill="none" stroke="#000000" paint-order="fill stroke markers" d=" M 10 10 L 10 62" stroke-miterlimit="10" stroke-dasharray=""/></g><g><path fill="none" stroke="#000000" paint-order="fill stroke markers" d=" M 10 10 L 366.984375 10" stroke-miterlimit="10" stroke-dasharray=""/></g><g><path fill="none" stroke="#000000" paint-order="fill stroke markers" d=" M 10 62 L 366.984375 62" stroke-miterlimit="10" stroke-dasharray=""/></g><g><path fill="none" stroke="#000000" paint-order="fill stroke markers" d=" M 366.984375 10 A 26 26 0 0 1 366.984375 62" stroke-miterlimit="10" stroke-dasharray=""/></g><g><g><path fill="none" stroke="none"/><text fill="#000000" stroke="none" font-family="Arial" font-size="16px" font-style="normal" font-weight="normal" text-decoration="undefined" x="369.619140625" y="90" text-anchor="middle" dominant-baseline="central" transform="matrix(1 0 0 1 -206 -62)">POST /wallet/cards/webhook/liqpay</text></g></g><g><path fill="#ffffff" stroke="none" paint-order="stroke fill markers" d=" M 85 136 L 370 136 L 313 172 L 28 172 L 85 136"/></g><g><path fill="none" stroke="#000000" paint-order="fill stroke markers" d=" M 85 136 L 370 136 L 313 172 L 28 172 L 85 136 L 85 136" stroke-miterlimit="10" stroke-dasharray=""/></g><g><g><path fill="none" stroke="none"/><text fill="#000000" stroke="none" font-family="Arial" font-size="16px" font-style="normal" font-weight="normal" text-decoration="undefined" x="405" y="216" text-anchor="middle" dominant-baseline="central" transform="matrix(1 0 0 1 -206 -62)">LiqPayUpdate</text></g></g><g><path fill="#ffffff" stroke="#000000" paint-order="fill stroke markers" d=" M 460 44 L 475 10 L 540.4453125 10 Q 555.4453125 10 555.4453125 44 Q 555.4453125 78 540.4453125 78 L 475 78 L 460 44 Z" stroke-miterlimit="10" stroke-dasharray=""/></g><g><g><path fill="none" stroke="none"/><text fill="#000000" stroke="none" font-family="Arial" font-size="16px" font-style="normal" font-weight="normal" text-decoration="undefined" x="713.72265625" y="90" text-anchor="middle" dominant-baseline="central" transform="matrix(1 0 0 1 -206 -62)">Заголовки</text><text fill="#000000" stroke="none" font-family="Arial" font-size="16px" font-style="normal" font-weight="normal" text-decoration="undefined" x="713.72265625" y="106" text-anchor="middle" dominant-baseline="central" transform="matrix(1 0 0 1 -206 -62)">запроса</text><text fill="#000000" stroke="none" font-family="Arial" font-size="16px" font-style="normal" font-weight="normal" text-decoration="undefined" x="713.72265625" y="122" text-anchor="middle" dominant-baseline="central" transform="matrix(1 0 0 1 -206 -62)">(LiqPay)</text></g></g><g><path fill="none" stroke="#000000" paint-order="fill stroke markers" d=" M 201 62 L 201 136" stroke-miterlimit="10" stroke-dasharray=""/></g><g><path fill="#000000" stroke="none" paint-order="stroke fill markers" d=" M 196.790482243984 125.83732514237585 L 201 136 L 205.209517756016 125.83732514237585"/></g><g><path fill="none" stroke="#000000" paint-order="fill stroke markers" d=" M 196.790482243984 125.83732514237585 L 201 136 L 205.209517756016 125.83732514237585 L 196.790482243984 125.83732514237585" stroke-miterlimit="10" stroke-dasharray=""/></g><g><path fill="none" stroke="#000000" paint-order="fill stroke markers" d=" M 460 78 L 460 128 L 460 128 A 8 8 0 0 1 452 136 L 370 136" stroke-miterlimit="10" stroke-dasharray=""/></g><g><path fill="#000000" stroke="none" paint-order="stroke fill markers" d=" M 380.1626748576241 131.790482243984 L 370 136 L 380.1626748576241 140.209517756016"/></g><g><path fill="none" stroke="#000000" paint-order="fill stroke markers" d=" M 380.1626748576241 131.790482243984 L 370 136 L 380.1626748576241 140.209517756016 L 380.1626748576241 131.790482243984" stroke-miterlimit="10" stroke-dasharray=""/></g><g><path fill="#ffffff" stroke="none" paint-order="stroke fill markers" d=" M 82 334 L 352 334 L 298 370 L 28 370 L 82 334"/></g><g><path fill="none" stroke="#000000" paint-order="fill stroke markers" d=" M 82 334 L 352 334 L 298 370 L 28 370 L 82 334 L 82 334" stroke-miterlimit="10" stroke-dasharray=""/></g><g><g><path fill="none" stroke="none"/><text fill="#000000" stroke="none" font-family="Arial" font-size="16px" font-style="normal" font-weight="normal" text-decoration="undefined" x="396" y="414" text-anchor="middle" dominant-baseline="central" transform="matrix(1 0 0 1 -206 -62)">NoBodyResponse</text></g></g><g><path fill="none" stroke="#000000" paint-order="fill stroke markers" d=" M 198 172 L 198 334" stroke-miterlimit="10" stroke-dasharray=""/></g><g><path fill="#000000" stroke="none" paint-order="stroke fill markers" d=" M 193.790482243984 323.83732514237585 L 198 334 L 202.209517756016 323.83732514237585"/></g><g><path fill="none" stroke="#000000" paint-order="fill stroke markers" d=" M 193.790482243984 323.83732514237585 L 198 334 L 202.209517756016 323.83732514237585 L 193.790482243984 323.83732514237585" stroke-miterlimit="10" stroke-dasharray=""/></g></g></svg>