<svg version="1.1" xmlns="http://www.w3.org/2000/svg" xmlns:xlink="http://www.w3.org/1999/xlink" width="632" height="326"><defs/><g><g><rect fill="#ffffff" stroke="none" x="396" y="72" width="270" height="36" transform="matrix(1 0 0 1 -368 -44)"/></g><g><path fill="#ffffff" stroke="none" paint-order="stroke fill markers" d=" M 298 28 A 18 18 0 0 1 298 64"/></g><g><path fill="none" stroke="#000000" paint-order="fill stroke markers" d=" M 28 28 L 28 64" stroke-miterlimit="10" stroke-dasharray=""/></g><g><path fill="none" stroke="#000000" paint-order="fill stroke markers" d=" M 28 28 L 298 28" stroke-miterlimit="10" stroke-dasharray=""/></g><g><path fill="none" stroke="#000000" paint-order="fill stroke markers" d=" M 28 64 L 298 64" stroke-miterlimit="10" stroke-dasharray=""/></g><g><path fill="none" stroke="#000000" paint-order="fill stroke markers" d=" M 298 28 A 18 18 0 0 1 298 64" stroke-miterlimit="10" stroke-dasharray=""/></g><g><g><path fill="none" stroke="none"/><text fill="#000000" stroke="none" font-family="Arial" font-size="16px" font-style="normal" font-weight="normal" text-decoration="undefined" x="514" y="90" text-anchor="middle" dominant-baseline="central" transform="matrix(1 0 0 1 -368 -44)">GET /wallet/transactions</text></g></g><g><path fill="#ffffff" stroke="none" paint-order="stroke fill markers" d=" M 61 100 L 316 100 L 265 136 L 10 136 L 61 100"/></g><g><path fill="none" stroke="#000000" paint-order="fill stroke markers" d=" M 61 100 L 316 100 L 265 136 L 10 136 L 61 100 L 61 100" stroke-miterlimit="10" stroke-dasharray=""/></g><g><g><path fill="none" stroke="none"/><text fill="#000000" stroke="none" font-family="Arial" font-size="16px" font-style="normal" font-weight="normal" text-decoration="undefined" x="531" y="162" text-anchor="middle" dominant-baseline="central" transform="matrix(1 0 0 1 -368 -44)">GetWalletTransactionsRequest</text></g></g><g><path fill="#ffffff" stroke="#000000" paint-order="fill stroke markers" d=" M 388 44 L 411 10 L 508.484375 10 Q 531.484375 10 531.484375 44 Q 531.484375 78 508.484375 78 L 411 78 L 388 44 Z" stroke-miterlimit="10" stroke-dasharray=""/></g><g><g><path fill="none" stroke="none"/><text fill="#000000" stroke="none" font-family="Arial" font-size="16px" font-style="normal" font-weight="normal" text-decoration="undefined" x="827.7421875" y="72" text-anchor="middle" dominant-baseline="central" transform="matrix(1 0 0 1 -368 -44)">Заголовки</text><text fill="#000000" stroke="none" font-family="Arial" font-size="16px" font-style="normal" font-weight="normal" text-decoration="undefined" x="827.7421875" y="88" text-anchor="middle" dominant-baseline="central" transform="matrix(1 0 0 1 -368 -44)">запроса</text><text fill="#000000" stroke="none" font-family="Arial" font-size="16px" font-style="normal" font-weight="normal" text-decoration="undefined" x="827.7421875" y="104" text-anchor="middle" dominant-baseline="central" transform="matrix(1 0 0 1 -368 -44)">(Авторизирован)</text></g></g><g><rect fill="#ffffff" stroke="none" x="396" y="234" width="288" height="36" transform="matrix(1 0 0 1 -368 -44)"/></g><g><path fill="none" stroke="#000000" paint-order="fill stroke markers" d=" M 28 190 L 316 190 L 316 226 L 28 226 L 28 190 Z Z" stroke-miterlimit="10" stroke-dasharray=""/></g><g><g><path fill="none" stroke="none"/><text fill="#000000" stroke="none" font-family="Arial" font-size="16px" font-style="normal" font-weight="normal" text-decoration="undefined" x="540" y="252" text-anchor="middle" dominant-baseline="central" transform="matrix(1 0 0 1 -368 -44)">Извлечь транзакции </text></g></g><g><path fill="#ffffff" stroke="none" paint-order="stroke fill markers" d=" M 64 280 L 334 280 L 280 316 L 10 316 L 64 280"/></g><g><path fill="none" stroke="#000000" paint-order="fill stroke markers" d=" M 64 280 L 334 280 L 280 316 L 10 316 L 64 280 L 64 280" stroke-miterlimit="10" stroke-dasharray=""/></g><g><g><path fill="none" stroke="none"/><text fill="#000000" stroke="none" font-family="Arial" font-size="16px" font-style="normal" font-weight="normal" text-decoration="undefined" x="540" y="342" text-anchor="middle" dominant-baseline="central" transform="matrix(1 0 0 1 -368 -44)">GetWalletTransactionsResponse</text></g></g><g><path fill="#ffffff" stroke="none" paint-order="stroke fill markers" d=" M 397 226 L 622 226 L 577 262 L 352 262 L 397 226"/></g><g><path fill="none" stroke="#000000" paint-order="fill stroke markers" d=" M 397 226 L 622 226 L 577 262 L 352 262 L 397 226 L 397 226" stroke-miterlimit="10" stroke-dasharray=""/></g><g><g><path fill="none" stroke="none"/><text fill="#000000" stroke="none" font-family="Arial" font-size="16px" font-style="normal" font-weight="normal" text-decoration="undefined" x="855" y="288" text-anchor="middle" dominant-baseline="central" transform="matrix(1 0 0 1 -368 -44)">TransactionDTO</text></g></g><g><path fill="none" stroke="#000000" paint-order="fill stroke markers" d=" M 408 262 L 408 272 L 408 272 A 8 8 0 0 1 400 280 L 334 280" stroke-miterlimit="10" stroke-dasharray=""/></g><g><path fill="#000000" stroke="none" paint-order="stroke fill markers" d=" M 344.1626748576241 275.790482243984 L 334 280 L 344.1626748576241 284.209517756016"/></g><g><path fill="none" stroke="#000000" paint-order="fill stroke markers" d=" M 344.1626748576241 275.790482243984 L 334 280 L 344.1626748576241 284.209517756016 L 344.1626748576241 275.790482243984" stroke-miterlimit="10" stroke-dasharray=""/></g><g><path fill="none" stroke="#000000" paint-order="fill stroke markers" d=" M 172 226 L 172 280" stroke-miterlimit="10" stroke-dasharray=""/></g><g><path fill="#000000" stroke="none" paint-order="stroke fill markers" d=" M 167.790482243984 269.83732514237585 L 172 280 L 176.209517756016 269.83732514237585"/></g><g><path fill="none" stroke="#000000" paint-order="fill stroke markers" d=" M 167.790482243984 269.83732514237585 L 172 280 L 176.209517756016 269.83732514237585 L 167.790482243984 269.83732514237585" stroke-miterlimit="10" stroke-dasharray=""/></g><g><path fill="none" stroke="#000000" paint-order="fill stroke markers" d=" M 165 136 L 165 190" stroke-miterlimit="10" stroke-dasharray=""/></g><g><path fill="#000000" stroke="none" paint-order="stroke fill markers" d=" M 160.790482243984 179.83732514237585 L 165 190 L 169.209517756016 179.83732514237585"/></g><g><path fill="none" stroke="#000000" paint-order="fill stroke markers" d=" M 160.790482243984 179.83732514237585 L 165 190 L 169.209517756016 179.83732514237585 L 160.790482243984 179.83732514237585" stroke-miterlimit="10" stroke-dasharray=""/></g><g><path fill="none" stroke="#000000" paint-order="fill stroke markers" d=" M 170 64 L 170 100" stroke-miterlimit="10" stroke-dasharray=""/></g><g><path fill="#000000" stroke="none" paint-order="stroke fill markers" d=" M 165.790482243984 89.83732514237585 L 170 100 L 174.209517756016 89.83732514237585"/></g><g><path fill="none" stroke="#000000" paint-order="fill stroke markers" d=" M 165.790482243984 89.83732514237585 L 170 100 L 174.209517756016 89.83732514237585 L 165.790482243984 89.83732514237585" stroke-miterlimit="10" stroke-dasharray=""/></g><g><path fill="none" stroke="#000000" paint-order="fill stroke markers" d=" M 388 78 L 388 92 L 388 92 A 8 8 0 0 1 380 100 L 316 100" stroke-miterlimit="10" stroke-dasharray=""/></g><g><path fill="#000000" stroke="none" paint-order="stroke fill markers" d=" M 326.1626748576241 95.790482243984 L 316 100 L 326.1626748576241 104.209517756016"/></g><g><path fill="none" stroke="#000000" paint-order="fill stroke markers" d=" M 326.1626748576241 95.790482243984 L 316 100 L 326.1626748576241 104.209517756016 L 326.1626748576241 95.790482243984" stroke-miterlimit="10" stroke-dasharray=""/></g></g></svg>