<svg version="1.1" xmlns="http://www.w3.org/2000/svg" xmlns:xlink="http://www.w3.org/1999/xlink" width="3134" height="1172"><defs/><g><g><path fill="none" stroke="#000000" paint-order="fill stroke markers" d=" M 10 10 L 3106 10 L 3106 546.71875 L 10 546.71875 L 10 10 Z Z" stroke-miterlimit="10" stroke-dasharray=""/></g><g><path fill="none" stroke="#000000" paint-order="fill stroke markers" d=" M 36 10 L 36 546.71875" stroke-miterlimit="10" stroke-dasharray=""/></g><g><g><path fill="none" stroke="none"/><text fill="#000000" stroke="none" font-family="Arial" font-size="16px" font-style="normal" font-weight="normal" text-decoration="undefined" x="0" y="0" text-anchor="middle" dominant-baseline="text-before-edge" transform="matrix(6.123233995736766e-17 -1 1 6.123233995736766e-17 15 278.359375)">Пользователь</text></g></g><g><path fill="none" stroke="#000000" paint-order="fill stroke markers" d=" M 10 676 L 3124 676 L 3124 1162 L 10 1162 L 10 676 Z Z" stroke-miterlimit="10" stroke-dasharray=""/></g><g><path fill="none" stroke="#000000" paint-order="fill stroke markers" d=" M 36 676 L 36 1162" stroke-miterlimit="10" stroke-dasharray=""/></g><g><g><path fill="none" stroke="none"/><text fill="#000000" stroke="none" font-family="Arial" font-size="16px" font-style="normal" font-weight="normal" text-decoration="undefined" x="0" y="0" text-anchor="middle" dominant-baseline="text-before-edge" transform="matrix(6.123233995736766e-17 -1 1 6.123233995736766e-17 15 919)">Апи Сервера</text></g></g><g><path fill="#C0C0C0" stroke="none" paint-order="stroke fill markers" d=" M 179 159 C 179 150.1634432 186.16344320000002 143 195 143 C 203.83655679999998 143 211 150.1634432 211 159 C 211 167.8365568 203.83655679999998 175 195 175 C 186.16344320000002 175 179 167.8365568 179 159 Z" fill-opacity="0.2"/></g><g><path fill="#ffffff" stroke="none" paint-order="stroke fill markers" d=" M 172 152 C 172 143.1634432 179.16344320000002 136 188 136 C 196.83655679999998 136 204 143.1634432 204 152 C 204 160.8365568 196.83655679999998 168 188 168 C 179.16344320000002 168 172 160.8365568 172 152 Z"/></g><g><path fill="none" stroke="#000000" paint-order="fill stroke markers" d=" M 172 152 C 172 143.1634432 179.16344320000002 136 188 136 C 196.83655679999998 136 204 143.1634432 204 152 C 204 160.8365568 196.83655679999998 168 188 168 C 179.16344320000002 168 172 160.8365568 172 152 Z" stroke-miterlimit="10" stroke-dasharray=""/></g><g><rect fill="#ffffff" stroke="none" x="341.86328125" y="260" width="140.2734375" height="16" transform="matrix(1 0 0 1 -224 -80)"/></g><g><g><path fill="none" stroke="none"/><text fill="#000000" stroke="none" font-family="Arial" font-size="16px" font-style="normal" font-weight="normal" text-decoration="undefined" x="412" y="268" text-anchor="middle" dominant-baseline="central" transform="matrix(1 0 0 1 -224 -80)">Нашёл кд в поиске</text></g></g><g><path fill="#C0C0C0" stroke="none" paint-order="stroke fill markers" d=" M 179 339 C 179 330.1634432 186.16344320000002 323 195 323 C 203.83655679999998 323 211 330.1634432 211 339 C 211 347.8365568 203.83655679999998 355 195 355 C 186.16344320000002 355 179 347.8365568 179 339 Z" fill-opacity="0.2"/></g><g><path fill="#ffffff" stroke="none" paint-order="stroke fill markers" d=" M 172 332 C 172 323.1634432 179.16344320000002 316 188 316 C 196.83655679999998 316 204 323.1634432 204 332 C 204 340.8365568 196.83655679999998 348 188 348 C 179.16344320000002 348 172 340.8365568 172 332 Z"/></g><g><path fill="none" stroke="#000000" paint-order="fill stroke markers" d=" M 172 332 C 172 323.1634432 179.16344320000002 316 188 316 C 196.83655679999998 316 204 323.1634432 204 332 C 204 340.8365568 196.83655679999998 348 188 348 C 179.16344320000002 348 172 340.8365568 172 332 Z" stroke-miterlimit="10" stroke-dasharray=""/></g><g><rect fill="#ffffff" stroke="none" x="334.78125" y="440" width="154.4375" height="16" transform="matrix(1 0 0 1 -224 -80)"/></g><g><g><path fill="none" stroke="none"/><text fill="#000000" stroke="none" font-family="Arial" font-size="16px" font-style="normal" font-weight="normal" text-decoration="undefined" x="412" y="448" text-anchor="middle" dominant-baseline="central" transform="matrix(1 0 0 1 -224 -80)">Нашёл кд в каталоге</text></g></g><g><path fill="#C0C0C0" stroke="none" paint-order="stroke fill markers" d=" M 405 251 L 483.0234375 251 Q 493.0234375 251 493.0234375 261 L 493.0234375 299 Q 493.0234375 309 483.0234375 309 L 405 309 Q 395 309 395 299 L 395 261 Q 395 251 405 251 Z" fill-opacity="0.2"/></g><g><path fill="#ffffff" stroke="none" paint-order="stroke fill markers" d=" M 398 244 L 476.0234375 244 Q 486.0234375 244 486.0234375 254 L 486.0234375 292 Q 486.0234375 302 476.0234375 302 L 398 302 Q 388 302 388 292 L 388 254 Q 388 244 398 244 Z"/></g><g><path fill="none" stroke="#000000" paint-order="fill stroke markers" d=" M 398 244 L 476.0234375 244 Q 486.0234375 244 486.0234375 254 L 486.0234375 292 Q 486.0234375 302 476.0234375 302 L 398 302 Q 388 302 388 292 L 388 254 Q 388 244 398 244 Z" stroke-miterlimit="10" stroke-dasharray=""/></g><g><g><path fill="none" stroke="none"/><text fill="#000000" stroke="none" font-family="Arial" font-size="16px" font-style="normal" font-weight="normal" text-decoration="undefined" x="661.01171875" y="337" text-anchor="middle" dominant-baseline="central" transform="matrix(1 0 0 1 -224 -80)">Нажимает</text><text fill="#000000" stroke="none" font-family="Arial" font-size="16px" font-style="normal" font-weight="normal" text-decoration="undefined" x="661.01171875" y="353" text-anchor="middle" dominant-baseline="central" transform="matrix(1 0 0 1 -224 -80)">вступить в</text><text fill="#000000" stroke="none" font-family="Arial" font-size="16px" font-style="normal" font-weight="normal" text-decoration="undefined" x="661.01171875" y="369" text-anchor="middle" dominant-baseline="central" transform="matrix(1 0 0 1 -224 -80)">КД</text></g></g><g><path fill="#C0C0C0" stroke="none" paint-order="stroke fill markers" d=" M 549 1025 L 630.953125 1025 Q 640.953125 1025 640.953125 1035 L 640.953125 1121 Q 640.953125 1131 630.953125 1131 L 549 1131 Q 539 1131 539 1121 L 539 1035 Q 539 1025 549 1025 Z" fill-opacity="0.2"/></g><g><path fill="#ffffff" stroke="none" paint-order="stroke fill markers" d=" M 542 1018 L 623.953125 1018 Q 633.953125 1018 633.953125 1028 L 633.953125 1114 Q 633.953125 1124 623.953125 1124 L 542 1124 Q 532 1124 532 1114 L 532 1028 Q 532 1018 542 1018 Z"/></g><g><path fill="none" stroke="#000000" paint-order="fill stroke markers" d=" M 542 1018 L 623.953125 1018 Q 633.953125 1018 633.953125 1028 L 633.953125 1114 Q 633.953125 1124 623.953125 1124 L 542 1124 Q 532 1124 532 1114 L 532 1028 Q 532 1018 542 1018 Z" stroke-miterlimit="10" stroke-dasharray=""/></g><g><g><path fill="none" stroke="none"/><text fill="#000000" stroke="none" font-family="Arial" font-size="16px" font-style="normal" font-weight="normal" text-decoration="undefined" x="806.9765625" y="1111" text-anchor="middle" dominant-baseline="central" transform="matrix(1 0 0 1 -224 -80)">По ид КД</text><text fill="#000000" stroke="none" font-family="Arial" font-size="16px" font-style="normal" font-weight="normal" text-decoration="undefined" x="806.9765625" y="1127" text-anchor="middle" dominant-baseline="central" transform="matrix(1 0 0 1 -224 -80)">извлекаем из</text><text fill="#000000" stroke="none" font-family="Arial" font-size="16px" font-style="normal" font-weight="normal" text-decoration="undefined" x="806.9765625" y="1143" text-anchor="middle" dominant-baseline="central" transform="matrix(1 0 0 1 -224 -80)">базы записи</text><text fill="#000000" stroke="none" font-family="Arial" font-size="16px" font-style="normal" font-weight="normal" text-decoration="undefined" x="806.9765625" y="1159" text-anchor="middle" dominant-baseline="central" transform="matrix(1 0 0 1 -224 -80)">всех</text><text fill="#000000" stroke="none" font-family="Arial" font-size="16px" font-style="normal" font-weight="normal" text-decoration="undefined" x="806.9765625" y="1175" text-anchor="middle" dominant-baseline="central" transform="matrix(1 0 0 1 -224 -80)">запущенных</text><text fill="#000000" stroke="none" font-family="Arial" font-size="16px" font-style="normal" font-weight="normal" text-decoration="undefined" x="806.9765625" y="1191" text-anchor="middle" dominant-baseline="central" transform="matrix(1 0 0 1 -224 -80)">КД</text></g></g><g><path fill="#C0C0C0" stroke="none" paint-order="stroke fill markers" d=" M 737 267 L 753 251 L 769 267 L 753 283 L 737 267" fill-opacity="0.2"/></g><g><path fill="#ffffff" stroke="none" paint-order="stroke fill markers" d=" M 730 260 L 746 244 L 762 260 L 746 276 L 730 260"/></g><g><path fill="none" stroke="#000000" paint-order="fill stroke markers" d=" M 730 260 L 746 244 L 762 260 L 746 276 L 730 260 L 730 260" stroke-miterlimit="10" stroke-dasharray=""/></g><g><rect fill="#ffffff" stroke="none" x="823.62109375" y="368" width="292.7578125" height="16" transform="matrix(1 0 0 1 -224 -80)"/></g><g><g><path fill="none" stroke="none"/><text fill="#000000" stroke="none" font-family="Arial" font-size="16px" font-style="normal" font-weight="normal" text-decoration="undefined" x="970" y="376" text-anchor="middle" dominant-baseline="central" transform="matrix(1 0 0 1 -224 -80)">Есть ли уже запущенные публичные кд</text></g></g><g><path fill="#C0C0C0" stroke="none" paint-order="stroke fill markers" d=" M 1305 251 L 1405.453125 251 Q 1415.453125 251 1415.453125 261 L 1415.453125 315 Q 1415.453125 325 1405.453125 325 L 1305 325 Q 1295 325 1295 315 L 1295 261 Q 1295 251 1305 251 Z" fill-opacity="0.2"/></g><g><path fill="#ffffff" stroke="none" paint-order="stroke fill markers" d=" M 1298 244 L 1398.453125 244 Q 1408.453125 244 1408.453125 254 L 1408.453125 308 Q 1408.453125 318 1398.453125 318 L 1298 318 Q 1288 318 1288 308 L 1288 254 Q 1288 244 1298 244 Z"/></g><g><path fill="none" stroke="#000000" paint-order="fill stroke markers" d=" M 1298 244 L 1398.453125 244 Q 1408.453125 244 1408.453125 254 L 1408.453125 308 Q 1408.453125 318 1398.453125 318 L 1298 318 Q 1288 318 1288 308 L 1288 254 Q 1288 244 1298 244 Z" stroke-miterlimit="10" stroke-dasharray=""/></g><g><g><path fill="none" stroke="none"/><text fill="#000000" stroke="none" font-family="Arial" font-size="16px" font-style="normal" font-weight="normal" text-decoration="undefined" x="1572.2265625" y="337" text-anchor="middle" dominant-baseline="central" transform="matrix(1 0 0 1 -224 -80)">Выбирает</text><text fill="#000000" stroke="none" font-family="Arial" font-size="16px" font-style="normal" font-weight="normal" text-decoration="undefined" x="1572.2265625" y="353" text-anchor="middle" dominant-baseline="central" transform="matrix(1 0 0 1 -224 -80)">команду из</text><text fill="#000000" stroke="none" font-family="Arial" font-size="16px" font-style="normal" font-weight="normal" text-decoration="undefined" x="1572.2265625" y="369" text-anchor="middle" dominant-baseline="central" transform="matrix(1 0 0 1 -224 -80)">предложенных</text><text fill="#000000" stroke="none" font-family="Arial" font-size="16px" font-style="normal" font-weight="normal" text-decoration="undefined" x="1572.2265625" y="385" text-anchor="middle" dominant-baseline="central" transform="matrix(1 0 0 1 -224 -80)">вариантов </text></g></g><g><path fill="#C0C0C0" stroke="none" paint-order="stroke fill markers" d=" M 1007 377 L 1029.4 377 L 1039 386.6 L 1039 417 L 1007 417" fill-opacity="0.2"/></g><g><path fill="#ffffff" stroke="none" paint-order="stroke fill markers" d=" M 1000 370 L 1022.4000000000001 370 L 1032 379.6 L 1032 410 L 1000 410"/></g><g><path fill="none" stroke="#000000" paint-order="fill stroke markers" d=" M 1000 370 L 1022.4000000000001 370 L 1032 379.6 L 1032 410 L 1000 410 L 1000 370" stroke-miterlimit="10" stroke-dasharray=""/></g><g><path fill="none" stroke="#000000" paint-order="fill stroke markers" d=" M 1022.4000000000001 370 L 1022.4000000000001 379.6 L 1032 379.6 L 1022.4000000000001 370" stroke-miterlimit="10" stroke-dasharray=""/></g><g><rect fill="#ffffff" stroke="none" x="1080.2421875" y="498" width="319.515625" height="16" transform="matrix(1 0 0 1 -224 -80)"/></g><g><g><path fill="none" stroke="none"/><text fill="#000000" stroke="none" font-family="Arial" font-size="16px" font-style="normal" font-weight="normal" text-decoration="undefined" x="1240" y="506" text-anchor="middle" dominant-baseline="central" transform="matrix(1 0 0 1 -224 -80)">Сообщение о том что  нету запущенных кд</text></g></g><g><path fill="#C0C0C0" stroke="none" paint-order="stroke fill markers" d=" M 1259 375 C 1259 366.1634432 1266.1634432 359 1275 359 C 1283.8365568 359 1291 366.1634432 1291 375 C 1291 383.8365568 1283.8365568 391 1275 391 C 1266.1634432 391 1259 383.8365568 1259 375 Z" fill-opacity="0.2"/></g><g><path fill="#ffffff" stroke="none" paint-order="stroke fill markers" d=" M 1252 368 C 1252 359.1634432 1259.1634432 352 1268 352 C 1276.8365568 352 1284 359.1634432 1284 368 C 1284 376.8365568 1276.8365568 384 1268 384 C 1259.1634432 384 1252 376.8365568 1252 368 Z"/></g><g><path fill="none" stroke="#000000" paint-order="fill stroke markers" d=" M 1252 368 C 1252 359.1634432 1259.1634432 352 1268 352 C 1276.8365568 352 1284 359.1634432 1284 368 C 1284 376.8365568 1276.8365568 384 1268 384 C 1259.1634432 384 1252 376.8365568 1252 368 Z" stroke-miterlimit="10" stroke-dasharray=""/></g><g><path fill="none" stroke="#000000" paint-order="fill stroke markers" d=" M 1255 368 C 1255 360.8202976 1260.8202976 355 1268 355 C 1275.1797024 355 1281 360.8202976 1281 368 C 1281 375.1797024 1275.1797024 381 1268 381 C 1260.8202976 381 1255 375.1797024 1255 368 Z" stroke-miterlimit="10" stroke-dasharray=""/></g><g><rect fill="#ffffff" stroke="none" x="1377.28515625" y="476" width="229.4296875" height="16" transform="matrix(1 0 0 1 -224 -80)"/></g><g><g><path fill="none" stroke="none"/><text fill="#000000" stroke="none" font-family="Arial" font-size="16px" font-style="normal" font-weight="normal" text-decoration="undefined" x="1492" y="484" text-anchor="middle" dominant-baseline="central" transform="matrix(1 0 0 1 -224 -80)">Вступление не выполнено</text></g></g><g><path fill="none" stroke="#000000" paint-order="fill stroke markers" d=" M 204 168 L 204 241 L 204 241 A 8 8 0 0 0 212 249 L 388 249" stroke-miterlimit="10" stroke-dasharray=""/></g><g><path fill="#000000" stroke="none" paint-order="stroke fill markers" d=" M 377.8373251423759 253.209517756016 L 388 249 L 377.8373251423758 244.790482243984"/></g><g><path fill="none" stroke="#000000" paint-order="fill stroke markers" d=" M 377.8373251423759 253.209517756016 L 388 249 L 377.8373251423758 244.790482243984 L 377.8373251423759 253.209517756016" stroke-miterlimit="10" stroke-dasharray=""/></g><g><path fill="none" stroke="#000000" paint-order="fill stroke markers" d=" M 204 328 L 380 328 L 380 328 A 8 8 0 0 0 388 320 L 388 302" stroke-miterlimit="10" stroke-dasharray=""/></g><g><path fill="#000000" stroke="none" paint-order="stroke fill markers" d=" M 392.209517756016 312.16267485762415 L 388 302 L 383.790482243984 312.16267485762415"/></g><g><path fill="none" stroke="#000000" paint-order="fill stroke markers" d=" M 392.209517756016 312.16267485762415 L 388 302 L 383.790482243984 312.16267485762415 L 392.209517756016 312.16267485762415" stroke-miterlimit="10" stroke-dasharray=""/></g><g><path fill="none" stroke="#000000" paint-order="fill stroke markers" d=" M 442 302 L 442 1010 L 442 1010 A 8 8 0 0 0 450 1018 L 532 1018" stroke-miterlimit="10" stroke-dasharray=""/></g><g><path fill="#000000" stroke="none" paint-order="stroke fill markers" d=" M 521.8373251423759 1022.2095177560159 L 532 1018 L 521.8373251423758 1013.7904822439841"/></g><g><path fill="none" stroke="#000000" paint-order="fill stroke markers" d=" M 521.8373251423759 1022.2095177560159 L 532 1018 L 521.8373251423758 1013.7904822439841 L 521.8373251423759 1022.2095177560159" stroke-miterlimit="10" stroke-dasharray=""/></g><g><path fill="none" stroke="#000000" paint-order="fill stroke markers" d=" M 634 1018 L 735 1018 L 735 1018 A 8 8 0 0 0 743 1010 L 743 276" stroke-miterlimit="10" stroke-dasharray=""/></g><g><path fill="#000000" stroke="none" paint-order="stroke fill markers" d=" M 747.209517756016 286.16267485762415 L 743 276 L 738.790482243984 286.16267485762415"/></g><g><path fill="none" stroke="#000000" paint-order="fill stroke markers" d=" M 747.209517756016 286.16267485762415 L 743 276 L 738.790482243984 286.16267485762415 L 747.209517756016 286.16267485762415" stroke-miterlimit="10" stroke-dasharray=""/></g><g><path fill="none" stroke="#000000" paint-order="fill stroke markers" d=" M 762 256 L 1288 256" stroke-miterlimit="10" stroke-dasharray=""/></g><g><path fill="#000000" stroke="none" paint-order="stroke fill markers" d=" M 1277.837325142376 260.209517756016 L 1288 256 L 1277.837325142376 251.790482243984"/></g><g><path fill="none" stroke="#000000" paint-order="fill stroke markers" d=" M 1277.837325142376 260.209517756016 L 1288 256 L 1277.837325142376 251.790482243984 L 1277.837325142376 260.209517756016" stroke-miterlimit="10" stroke-dasharray=""/></g><g><rect fill="#ffffff" stroke="none" x="1240" y="313" width="19.734375" height="16" transform="matrix(1 0 0 1 -224 -80)"/></g><g><g><path fill="none" stroke="none"/><text fill="#000000" stroke="none" font-family="Arial" font-size="16px" font-style="normal" font-weight="normal" text-decoration="undefined" x="1249.8671875" y="321" text-anchor="middle" dominant-baseline="central" transform="matrix(1 0 0 1 -224 -80)">Да</text></g></g><g><path fill="none" stroke="#000000" paint-order="fill stroke markers" d=" M 762 276 L 762 374 L 762 374 A 8 8 0 0 0 770 382 L 1000 382" stroke-miterlimit="10" stroke-dasharray=""/></g><g><path fill="#000000" stroke="none" paint-order="stroke fill markers" d=" M 989.8373251423759 386.209517756016 L 1000 382 L 989.8373251423759 377.790482243984"/></g><g><path fill="none" stroke="#000000" paint-order="fill stroke markers" d=" M 989.8373251423759 386.209517756016 L 1000 382 L 989.8373251423759 377.790482243984 L 989.8373251423759 386.209517756016" stroke-miterlimit="10" stroke-dasharray=""/></g><g><rect fill="#ffffff" stroke="none" x="973" y="439" width="27.25" height="16" transform="matrix(1 0 0 1 -224 -80)"/></g><g><g><path fill="none" stroke="none"/><text fill="#000000" stroke="none" font-family="Arial" font-size="16px" font-style="normal" font-weight="normal" text-decoration="undefined" x="986.625" y="447" text-anchor="middle" dominant-baseline="central" transform="matrix(1 0 0 1 -224 -80)">Нет</text></g></g><g><path fill="none" stroke="#000000" paint-order="fill stroke markers" d=" M 1032 389 L 1244 389 L 1244 389 A 8 8 0 0 0 1252 381 L 1252 384" stroke-miterlimit="10" stroke-dasharray=""/></g><g><path fill="#000000" stroke="none" paint-order="stroke fill markers" d=" M 1256.2095177560159 394.16267485762415 L 1252 384 L 1247.7904822439841 394.16267485762415"/></g><g><path fill="none" stroke="#000000" paint-order="fill stroke markers" d=" M 1256.2095177560159 394.16267485762415 L 1252 384 L 1247.7904822439841 394.16267485762415 L 1256.2095177560159 394.16267485762415" stroke-miterlimit="10" stroke-dasharray=""/></g><g><path fill="#C0C0C0" stroke="none" paint-order="stroke fill markers" d=" M 1539 161 L 1617.0234375 161 Q 1627.0234375 161 1627.0234375 171 L 1627.0234375 193 Q 1627.0234375 203 1617.0234375 203 L 1539 203 Q 1529 203 1529 193 L 1529 171 Q 1529 161 1539 161 Z" fill-opacity="0.2"/></g><g><path fill="#ffffff" stroke="none" paint-order="stroke fill markers" d=" M 1532 154 L 1610.0234375 154 Q 1620.0234375 154 1620.0234375 164 L 1620.0234375 186 Q 1620.0234375 196 1610.0234375 196 L 1532 196 Q 1522 196 1522 186 L 1522 164 Q 1522 154 1532 154 Z"/></g><g><path fill="none" stroke="#000000" paint-order="fill stroke markers" d=" M 1532 154 L 1610.0234375 154 Q 1620.0234375 154 1620.0234375 164 L 1620.0234375 186 Q 1620.0234375 196 1610.0234375 196 L 1532 196 Q 1522 196 1522 186 L 1522 164 Q 1522 154 1532 154 Z" stroke-miterlimit="10" stroke-dasharray=""/></g><g><g><path fill="none" stroke="none"/><text fill="#000000" stroke="none" font-family="Arial" font-size="16px" font-style="normal" font-weight="normal" text-decoration="undefined" x="1795.01171875" y="247" text-anchor="middle" dominant-baseline="central" transform="matrix(1 0 0 1 -224 -80)">Указываем</text><text fill="#000000" stroke="none" font-family="Arial" font-size="16px" font-style="normal" font-weight="normal" text-decoration="undefined" x="1795.01171875" y="263" text-anchor="middle" dominant-baseline="central" transform="matrix(1 0 0 1 -224 -80)">Фильтры</text></g></g><g><path fill="#C0C0C0" stroke="none" paint-order="stroke fill markers" d=" M 1665 881 L 1746.953125 881 Q 1756.953125 881 1756.953125 891 L 1756.953125 1009 Q 1756.953125 1019 1746.953125 1019 L 1665 1019 Q 1655 1019 1655 1009 L 1655 891 Q 1655 881 1665 881 Z" fill-opacity="0.2"/></g><g><path fill="#ffffff" stroke="none" paint-order="stroke fill markers" d=" M 1658 874 L 1739.953125 874 Q 1749.953125 874 1749.953125 884 L 1749.953125 1002 Q 1749.953125 1012 1739.953125 1012 L 1658 1012 Q 1648 1012 1648 1002 L 1648 884 Q 1648 874 1658 874 Z"/></g><g><path fill="none" stroke="#000000" paint-order="fill stroke markers" d=" M 1658 874 L 1739.953125 874 Q 1749.953125 874 1749.953125 884 L 1749.953125 1002 Q 1749.953125 1012 1739.953125 1012 L 1658 1012 Q 1648 1012 1648 1002 L 1648 884 Q 1648 874 1658 874 Z" stroke-miterlimit="10" stroke-dasharray=""/></g><g><g><path fill="none" stroke="none"/><text fill="#000000" stroke="none" font-family="Arial" font-size="16px" font-style="normal" font-weight="normal" text-decoration="undefined" x="1922.9765625" y="967" text-anchor="middle" dominant-baseline="central" transform="matrix(1 0 0 1 -224 -80)">По ид</text><text fill="#000000" stroke="none" font-family="Arial" font-size="16px" font-style="normal" font-weight="normal" text-decoration="undefined" x="1922.9765625" y="983" text-anchor="middle" dominant-baseline="central" transform="matrix(1 0 0 1 -224 -80)">шаблона КД</text><text fill="#000000" stroke="none" font-family="Arial" font-size="16px" font-style="normal" font-weight="normal" text-decoration="undefined" x="1922.9765625" y="999" text-anchor="middle" dominant-baseline="central" transform="matrix(1 0 0 1 -224 -80)">извлекаем из</text><text fill="#000000" stroke="none" font-family="Arial" font-size="16px" font-style="normal" font-weight="normal" text-decoration="undefined" x="1922.9765625" y="1015" text-anchor="middle" dominant-baseline="central" transform="matrix(1 0 0 1 -224 -80)">базы записи</text><text fill="#000000" stroke="none" font-family="Arial" font-size="16px" font-style="normal" font-weight="normal" text-decoration="undefined" x="1922.9765625" y="1031" text-anchor="middle" dominant-baseline="central" transform="matrix(1 0 0 1 -224 -80)">всех</text><text fill="#000000" stroke="none" font-family="Arial" font-size="16px" font-style="normal" font-weight="normal" text-decoration="undefined" x="1922.9765625" y="1047" text-anchor="middle" dominant-baseline="central" transform="matrix(1 0 0 1 -224 -80)">запущенных</text><text fill="#000000" stroke="none" font-family="Arial" font-size="16px" font-style="normal" font-weight="normal" text-decoration="undefined" x="1922.9765625" y="1063" text-anchor="middle" dominant-baseline="central" transform="matrix(1 0 0 1 -224 -80)">КД с учётом</text><text fill="#000000" stroke="none" font-family="Arial" font-size="16px" font-style="normal" font-weight="normal" text-decoration="undefined" x="1922.9765625" y="1079" text-anchor="middle" dominant-baseline="central" transform="matrix(1 0 0 1 -224 -80)">фильров</text></g></g><g><path fill="#C0C0C0" stroke="none" paint-order="stroke fill markers" d=" M 1925 231 L 1941 215 L 1957 231 L 1941 247 L 1925 231" fill-opacity="0.2"/></g><g><path fill="#ffffff" stroke="none" paint-order="stroke fill markers" d=" M 1918 224 L 1934 208 L 1950 224 L 1934 240 L 1918 224"/></g><g><path fill="none" stroke="#000000" paint-order="fill stroke markers" d=" M 1918 224 L 1934 208 L 1950 224 L 1934 240 L 1918 224 L 1918 224" stroke-miterlimit="10" stroke-dasharray=""/></g><g><rect fill="#ffffff" stroke="none" x="2011.62109375" y="332" width="292.7578125" height="16" transform="matrix(1 0 0 1 -224 -80)"/></g><g><g><path fill="none" stroke="none"/><text fill="#000000" stroke="none" font-family="Arial" font-size="16px" font-style="normal" font-weight="normal" text-decoration="undefined" x="2158" y="340" text-anchor="middle" dominant-baseline="central" transform="matrix(1 0 0 1 -224 -80)">Есть ли уже запущенные публичные кд</text></g></g><g><path fill="#C0C0C0" stroke="none" paint-order="stroke fill markers" d=" M 2187 269 L 2287.453125 269 Q 2297.453125 269 2297.453125 279 L 2297.453125 349 Q 2297.453125 359 2287.453125 359 L 2187 359 Q 2177 359 2177 349 L 2177 279 Q 2177 269 2187 269 Z" fill-opacity="0.2"/></g><g><path fill="#ffffff" stroke="none" paint-order="stroke fill markers" d=" M 2180 262 L 2280.453125 262 Q 2290.453125 262 2290.453125 272 L 2290.453125 342 Q 2290.453125 352 2280.453125 352 L 2180 352 Q 2170 352 2170 342 L 2170 272 Q 2170 262 2180 262 Z"/></g><g><path fill="none" stroke="#000000" paint-order="fill stroke markers" d=" M 2180 262 L 2280.453125 262 Q 2290.453125 262 2290.453125 272 L 2290.453125 342 Q 2290.453125 352 2280.453125 352 L 2180 352 Q 2170 352 2170 342 L 2170 272 Q 2170 262 2180 262 Z" stroke-miterlimit="10" stroke-dasharray=""/></g><g><g><path fill="none" stroke="none"/><text fill="#000000" stroke="none" font-family="Arial" font-size="16px" font-style="normal" font-weight="normal" text-decoration="undefined" x="2454.2265625" y="355" text-anchor="middle" dominant-baseline="central" transform="matrix(1 0 0 1 -224 -80)">Выбирает</text><text fill="#000000" stroke="none" font-family="Arial" font-size="16px" font-style="normal" font-weight="normal" text-decoration="undefined" x="2454.2265625" y="371" text-anchor="middle" dominant-baseline="central" transform="matrix(1 0 0 1 -224 -80)">команду из</text><text fill="#000000" stroke="none" font-family="Arial" font-size="16px" font-style="normal" font-weight="normal" text-decoration="undefined" x="2454.2265625" y="387" text-anchor="middle" dominant-baseline="central" transform="matrix(1 0 0 1 -224 -80)">предложенных</text><text fill="#000000" stroke="none" font-family="Arial" font-size="16px" font-style="normal" font-weight="normal" text-decoration="undefined" x="2454.2265625" y="403" text-anchor="middle" dominant-baseline="central" transform="matrix(1 0 0 1 -224 -80)">вариантов по</text><text fill="#000000" stroke="none" font-family="Arial" font-size="16px" font-style="normal" font-weight="normal" text-decoration="undefined" x="2454.2265625" y="419" text-anchor="middle" dominant-baseline="central" transform="matrix(1 0 0 1 -224 -80)">фильтрам</text></g></g><g><path fill="#C0C0C0" stroke="none" paint-order="stroke fill markers" d=" M 2141 53 L 2163.4 53 L 2173 62.599999999999994 L 2173 93 L 2141 93" fill-opacity="0.2"/></g><g><path fill="#ffffff" stroke="none" paint-order="stroke fill markers" d=" M 2134 46 L 2156.4 46 L 2166 55.599999999999994 L 2166 86 L 2134 86"/></g><g><path fill="none" stroke="#000000" paint-order="fill stroke markers" d=" M 2134 46 L 2156.4 46 L 2166 55.599999999999994 L 2166 86 L 2134 86 L 2134 46" stroke-miterlimit="10" stroke-dasharray=""/></g><g><path fill="none" stroke="#000000" paint-order="fill stroke markers" d=" M 2156.4 46 L 2156.4 55.599999999999994 L 2166 55.599999999999994 L 2156.4 46" stroke-miterlimit="10" stroke-dasharray=""/></g><g><rect fill="#ffffff" stroke="none" x="2249.50390625" y="180" width="238.9921875" height="48" transform="matrix(1 0 0 1 -224 -80)"/></g><g><g><path fill="none" stroke="none"/><text fill="#000000" stroke="none" font-family="Arial" font-size="16px" font-style="normal" font-weight="normal" text-decoration="undefined" x="2369" y="188" text-anchor="middle" dominant-baseline="central" transform="matrix(1 0 0 1 -224 -80)">Сообщение о том что  нету</text><text fill="#000000" stroke="none" font-family="Arial" font-size="16px" font-style="normal" font-weight="normal" text-decoration="undefined" x="2369" y="204" text-anchor="middle" dominant-baseline="central" transform="matrix(1 0 0 1 -224 -80)">запущенных кд  по указанным</text><text fill="#000000" stroke="none" font-family="Arial" font-size="16px" font-style="normal" font-weight="normal" text-decoration="undefined" x="2369" y="220" text-anchor="middle" dominant-baseline="central" transform="matrix(1 0 0 1 -224 -80)">фильтрам</text></g></g><g><path fill="none" stroke="#000000" paint-order="fill stroke markers" d=" M 1348 244 L 1348 183 L 1348 183 A 8 8 0 0 1 1356 175 L 1522 175" stroke-miterlimit="10" stroke-dasharray=""/></g><g><path fill="#000000" stroke="none" paint-order="stroke fill markers" d=" M 1511.837325142376 179.209517756016 L 1522 175 L 1511.837325142376 170.790482243984"/></g><g><path fill="none" stroke="#000000" paint-order="fill stroke markers" d=" M 1511.837325142376 179.209517756016 L 1522 175 L 1511.837325142376 170.790482243984 L 1511.837325142376 179.209517756016" stroke-miterlimit="10" stroke-dasharray=""/></g><g><path fill="none" stroke="#000000" paint-order="fill stroke markers" d=" M 1557 196 L 1557 866 L 1557 866 A 8 8 0 0 0 1565 874 L 1648 874" stroke-miterlimit="10" stroke-dasharray=""/></g><g><path fill="#000000" stroke="none" paint-order="stroke fill markers" d=" M 1637.837325142376 878.209517756016 L 1648 874 L 1637.837325142376 869.790482243984"/></g><g><path fill="none" stroke="#000000" paint-order="fill stroke markers" d=" M 1637.837325142376 878.209517756016 L 1648 874 L 1637.837325142376 869.790482243984 L 1637.837325142376 878.209517756016" stroke-miterlimit="10" stroke-dasharray=""/></g><g><path fill="none" stroke="#000000" paint-order="fill stroke markers" d=" M 1750 874 L 1921 874 L 1921 874 A 8 8 0 0 0 1929 866 L 1929 240" stroke-miterlimit="10" stroke-dasharray=""/></g><g><path fill="#000000" stroke="none" paint-order="stroke fill markers" d=" M 1933.2095177560159 250.16267485762415 L 1929 240 L 1924.7904822439841 250.16267485762415"/></g><g><path fill="none" stroke="#000000" paint-order="fill stroke markers" d=" M 1933.2095177560159 250.16267485762415 L 1929 240 L 1924.7904822439841 250.16267485762415 L 1933.2095177560159 250.16267485762415" stroke-miterlimit="10" stroke-dasharray=""/></g><g><path fill="none" stroke="#000000" paint-order="fill stroke markers" d=" M 1950 240 L 1950 268 L 1950 268 A 8 8 0 0 0 1958 276 L 2170 276" stroke-miterlimit="10" stroke-dasharray=""/></g><g><path fill="#000000" stroke="none" paint-order="stroke fill markers" d=" M 2159.837325142376 280.209517756016 L 2170 276 L 2159.837325142376 271.790482243984"/></g><g><path fill="none" stroke="#000000" paint-order="fill stroke markers" d=" M 2159.837325142376 280.209517756016 L 2170 276 L 2159.837325142376 271.790482243984 L 2159.837325142376 280.209517756016" stroke-miterlimit="10" stroke-dasharray=""/></g><g><rect fill="#ffffff" stroke="none" x="2322" y="342" width="19.734375" height="16" transform="matrix(1 0 0 1 -224 -80)"/></g><g><g><path fill="none" stroke="none"/><text fill="#000000" stroke="none" font-family="Arial" font-size="16px" font-style="normal" font-weight="normal" text-decoration="undefined" x="2331.8671875" y="350" text-anchor="middle" dominant-baseline="central" transform="matrix(1 0 0 1 -224 -80)">Да</text></g></g><g><path fill="none" stroke="#000000" paint-order="fill stroke markers" d=" M 1950 212 L 2126 212 L 2126 212 A 8 8 0 0 0 2134 204 L 2134 86" stroke-miterlimit="10" stroke-dasharray=""/></g><g><path fill="#000000" stroke="none" paint-order="stroke fill markers" d=" M 2138.209517756016 96.16267485762415 L 2134 86 L 2129.790482243984 96.16267485762415"/></g><g><path fill="none" stroke="#000000" paint-order="fill stroke markers" d=" M 2138.209517756016 96.16267485762415 L 2134 86 L 2129.790482243984 96.16267485762415 L 2138.209517756016 96.16267485762415" stroke-miterlimit="10" stroke-dasharray=""/></g><g><rect fill="#ffffff" stroke="none" x="2330" y="283" width="27.25" height="16" transform="matrix(1 0 0 1 -224 -80)"/></g><g><g><path fill="none" stroke="none"/><text fill="#000000" stroke="none" font-family="Arial" font-size="16px" font-style="normal" font-weight="normal" text-decoration="undefined" x="2343.625" y="291" text-anchor="middle" dominant-baseline="central" transform="matrix(1 0 0 1 -224 -80)">Нет</text></g></g><g><path fill="#C0C0C0" stroke="none" paint-order="stroke fill markers" d=" M 2601 916 L 2692.3203125 916 Q 2702.3203125 916 2702.3203125 926 L 2702.3203125 964 Q 2702.3203125 974 2692.3203125 974 L 2601 974 Q 2591 974 2591 964 L 2591 926 Q 2591 916 2601 916 Z" fill-opacity="0.2"/></g><g><path fill="#ffffff" stroke="none" paint-order="stroke fill markers" d=" M 2594 909 L 2685.3203125 909 Q 2695.3203125 909 2695.3203125 919 L 2695.3203125 957 Q 2695.3203125 967 2685.3203125 967 L 2594 967 Q 2584 967 2584 957 L 2584 919 Q 2584 909 2594 909 Z"/></g><g><path fill="none" stroke="#000000" paint-order="fill stroke markers" d=" M 2594 909 L 2685.3203125 909 Q 2695.3203125 909 2695.3203125 919 L 2695.3203125 957 Q 2695.3203125 967 2685.3203125 967 L 2594 967 Q 2584 967 2584 957 L 2584 919 Q 2584 909 2594 909 Z" stroke-miterlimit="10" stroke-dasharray=""/></g><g><path fill="none" stroke="#000000" paint-order="fill stroke markers" d=" M 2634 952 L 2646 952 L 2646 964 L 2634 964 L 2634 952 Z Z" stroke-miterlimit="10" stroke-dasharray=""/></g><g><path fill="none" stroke="#000000" paint-order="fill stroke markers" d=" M 2636 958 L 2644 958" stroke-miterlimit="10" stroke-dasharray=""/></g><g><path fill="none" stroke="#000000" paint-order="fill stroke markers" d=" M 2640 954 L 2640 962" stroke-miterlimit="10" stroke-dasharray=""/></g><g><g><path fill="none" stroke="none"/><text fill="#000000" stroke="none" font-family="Arial" font-size="16px" font-style="normal" font-weight="normal" text-decoration="undefined" x="2863.66015625" y="1002" text-anchor="middle" dominant-baseline="central" transform="matrix(1 0 0 1 -224 -80)">Process</text><text fill="#000000" stroke="none" font-family="Arial" font-size="16px" font-style="normal" font-weight="normal" text-decoration="undefined" x="2863.66015625" y="1018" text-anchor="middle" dominant-baseline="central" transform="matrix(1 0 0 1 -224 -80)">Добавление</text><text fill="#000000" stroke="none" font-family="Arial" font-size="16px" font-style="normal" font-weight="normal" text-decoration="undefined" x="2863.66015625" y="1034" text-anchor="middle" dominant-baseline="central" transform="matrix(1 0 0 1 -224 -80)">пользователя</text></g></g><g><path fill="#C0C0C0" stroke="none" paint-order="stroke fill markers" d=" M 2933 285 C 2933 276.1634432 2940.1634432 269 2949 269 C 2957.8365568 269 2965 276.1634432 2965 285 C 2965 293.8365568 2957.8365568 301 2949 301 C 2940.1634432 301 2933 293.8365568 2933 285 Z" fill-opacity="0.2"/></g><g><path fill="#ffffff" stroke="none" paint-order="stroke fill markers" d=" M 2926 278 C 2926 269.1634432 2933.1634432 262 2942 262 C 2950.8365568 262 2958 269.1634432 2958 278 C 2958 286.8365568 2950.8365568 294 2942 294 C 2933.1634432 294 2926 286.8365568 2926 278 Z"/></g><g><path fill="none" stroke="#000000" paint-order="fill stroke markers" d=" M 2926 278 C 2926 269.1634432 2933.1634432 262 2942 262 C 2950.8365568 262 2958 269.1634432 2958 278 C 2958 286.8365568 2950.8365568 294 2942 294 C 2933.1634432 294 2926 286.8365568 2926 278 Z" stroke-miterlimit="10" stroke-width="3" stroke-dasharray=""/></g><g><rect fill="#ffffff" stroke="none" x="3103.74609375" y="386" width="124.5078125" height="16" transform="matrix(1 0 0 1 -224 -80)"/></g><g><g><path fill="none" stroke="none"/><text fill="#000000" stroke="none" font-family="Arial" font-size="16px" font-style="normal" font-weight="normal" text-decoration="undefined" x="3166" y="394" text-anchor="middle" dominant-baseline="central" transform="matrix(1 0 0 1 -224 -80)">Вступил в КД</text></g></g><g><path fill="none" stroke="#000000" paint-order="fill stroke markers" d=" M 2695 909 L 2927 909 L 2927 909 A 8 8 0 0 0 2935 901 L 2935 294" stroke-miterlimit="10" stroke-dasharray=""/></g><g><path fill="#000000" stroke="none" paint-order="stroke fill markers" d=" M 2939.209517756016 304.16267485762415 L 2935 294 L 2930.790482243984 304.16267485762415"/></g><g><path fill="none" stroke="#000000" paint-order="fill stroke markers" d=" M 2939.209517756016 304.16267485762415 L 2935 294 L 2930.790482243984 304.16267485762415 L 2939.209517756016 304.16267485762415" stroke-miterlimit="10" stroke-dasharray=""/></g><g><path fill="none" stroke="#000000" paint-order="fill stroke markers" d=" M 2448 410 L 2448 901 L 2448 901 A 8 8 0 0 0 2456 909 L 2584 909" stroke-miterlimit="10" stroke-dasharray=""/></g><g><path fill="#000000" stroke="none" paint-order="stroke fill markers" d=" M 2573.837325142376 913.209517756016 L 2584 909 L 2573.837325142376 904.790482243984"/></g><g><path fill="none" stroke="#000000" paint-order="fill stroke markers" d=" M 2573.837325142376 913.209517756016 L 2584 909 L 2573.837325142376 904.790482243984 L 2573.837325142376 913.209517756016" stroke-miterlimit="10" stroke-dasharray=""/></g><g><path fill="#C0C0C0" stroke="none" paint-order="stroke fill markers" d=" M 2439 359 L 2507.8046875 359 Q 2517.8046875 359 2517.8046875 369 L 2517.8046875 407 Q 2517.8046875 417 2507.8046875 417 L 2439 417 Q 2429 417 2429 407 L 2429 369 Q 2429 359 2439 359 Z" fill-opacity="0.2"/></g><g><path fill="#ffffff" stroke="none" paint-order="stroke fill markers" d=" M 2432 352 L 2500.8046875 352 Q 2510.8046875 352 2510.8046875 362 L 2510.8046875 400 Q 2510.8046875 410 2500.8046875 410 L 2432 410 Q 2422 410 2422 400 L 2422 362 Q 2422 352 2432 352 Z"/></g><g><path fill="none" stroke="#000000" paint-order="fill stroke markers" d=" M 2432 352 L 2500.8046875 352 Q 2510.8046875 352 2510.8046875 362 L 2510.8046875 400 Q 2510.8046875 410 2500.8046875 410 L 2432 410 Q 2422 410 2422 400 L 2422 362 Q 2422 352 2432 352 Z" stroke-miterlimit="10" stroke-dasharray=""/></g><g><path fill="none" stroke="#000000" paint-order="fill stroke markers" d=" M 2432 361 C 2432 359.3431456 2433.3431456 358 2435 358 C 2436.6568544 358 2438 359.3431456 2438 361 C 2438 362.6568544 2436.6568544 364 2435 364 C 2433.3431456 364 2432 362.6568544 2432 361 Z" stroke-miterlimit="10" stroke-dasharray=""/></g><g><path fill="none" stroke="#000000" paint-order="fill stroke markers" d=" M 2430 365 L 2440 365 L 2440 372 L 2430 372 L 2430 365 Z Z" stroke-miterlimit="10" stroke-dasharray=""/></g><g><g><path fill="none" stroke="none"/><text fill="#000000" stroke="none" font-family="Arial" font-size="16px" font-style="normal" font-weight="normal" text-decoration="undefined" x="2690.40234375" y="445" text-anchor="middle" dominant-baseline="central" transform="matrix(1 0 0 1 -224 -80)">Нажать</text><text fill="#000000" stroke="none" font-family="Arial" font-size="16px" font-style="normal" font-weight="normal" text-decoration="undefined" x="2690.40234375" y="461" text-anchor="middle" dominant-baseline="central" transform="matrix(1 0 0 1 -224 -80)">кнопку</text><text fill="#000000" stroke="none" font-family="Arial" font-size="16px" font-style="normal" font-weight="normal" text-decoration="undefined" x="2690.40234375" y="477" text-anchor="middle" dominant-baseline="central" transform="matrix(1 0 0 1 -224 -80)">"Вступить"</text></g></g><g><path fill="none" stroke="#000000" paint-order="fill stroke markers" d=" M 2290 352 L 2290 359 L 2290 359 A 8 8 0 0 0 2298 367 L 2422 367" stroke-miterlimit="10" stroke-dasharray=""/></g><g><path fill="#000000" stroke="none" paint-order="stroke fill markers" d=" M 2411.837325142376 371.209517756016 L 2422 367 L 2411.837325142376 362.790482243984"/></g><g><path fill="none" stroke="#000000" paint-order="fill stroke markers" d=" M 2411.837325142376 371.209517756016 L 2422 367 L 2411.837325142376 362.790482243984 L 2411.837325142376 371.209517756016" stroke-miterlimit="10" stroke-dasharray=""/></g></g></svg>