<svg version="1.1" xmlns="http://www.w3.org/2000/svg" xmlns:xlink="http://www.w3.org/1999/xlink" width="1045.484375" height="992"><defs/><g><g><path fill="#ffffff" stroke="none" paint-order="stroke fill markers" d=" M 397 136 L 802 136 L 721 172 L 316 172 L 397 136"/></g><g><path fill="none" stroke="#000000" paint-order="fill stroke markers" d=" M 397 136 L 802 136 L 721 172 L 316 172 L 397 136 L 397 136" stroke-miterlimit="10" stroke-dasharray=""/></g><g><g><path fill="none" stroke="none"/><text fill="#000000" stroke="none" font-family="Arial" font-size="16px" font-style="normal" font-weight="normal" text-decoration="undefined" x="639" y="198" text-anchor="middle" dominant-baseline="central" transform="matrix(1 0 0 1 -80 -44)">PostChalangesReportRequest</text></g></g><g><rect fill="#ffffff" stroke="none" x="324" y="72" width="522" height="36" transform="matrix(1 0 0 1 -80 -44)"/></g><g><path fill="#ffffff" stroke="none" paint-order="stroke fill markers" d=" M 766 28 A 18 18 0 0 1 766 64"/></g><g><path fill="none" stroke="#000000" paint-order="fill stroke markers" d=" M 244 28 L 244 64" stroke-miterlimit="10" stroke-dasharray=""/></g><g><path fill="none" stroke="#000000" paint-order="fill stroke markers" d=" M 244 28 L 766 28" stroke-miterlimit="10" stroke-dasharray=""/></g><g><path fill="none" stroke="#000000" paint-order="fill stroke markers" d=" M 244 64 L 766 64" stroke-miterlimit="10" stroke-dasharray=""/></g><g><path fill="none" stroke="#000000" paint-order="fill stroke markers" d=" M 766 28 A 18 18 0 0 1 766 64" stroke-miterlimit="10" stroke-dasharray=""/></g><g><g><path fill="none" stroke="none"/><text fill="#000000" stroke="none" font-family="Arial" font-size="16px" font-style="normal" font-weight="normal" text-decoration="undefined" x="536.5" y="90" text-anchor="middle" dominant-baseline="central" transform="matrix(1 0 0 1 -80 -44)">POST /chalanges/{chalangeId}/reports</text></g></g><g><path fill="#ffffff" stroke="none" paint-order="stroke fill markers" d=" M 340 946 L 820 946 L 724 982 L 244 982 L 340 946"/></g><g><path fill="none" stroke="#000000" paint-order="fill stroke markers" d=" M 340 946 L 820 946 L 724 982 L 244 982 L 340 946 L 340 946" stroke-miterlimit="10" stroke-dasharray=""/></g><g><g><path fill="none" stroke="none"/><text fill="#000000" stroke="none" font-family="Arial" font-size="16px" font-style="normal" font-weight="normal" text-decoration="undefined" x="612" y="1008" text-anchor="middle" dominant-baseline="central" transform="matrix(1 0 0 1 -80 -44)">NoBodyResponse</text></g></g><g><path fill="#ffffff" stroke="#000000" paint-order="fill stroke markers" d=" M 892 44 L 915 10 L 1012.484375 10 Q 1035.484375 10 1035.484375 44 Q 1035.484375 78 1012.484375 78 L 915 78 L 892 44 Z" stroke-miterlimit="10" stroke-dasharray=""/></g><g><g><path fill="none" stroke="none"/><text fill="#000000" stroke="none" font-family="Arial" font-size="16px" font-style="normal" font-weight="normal" text-decoration="undefined" x="1043.7421875" y="72" text-anchor="middle" dominant-baseline="central" transform="matrix(1 0 0 1 -80 -44)">Заголовки</text><text fill="#000000" stroke="none" font-family="Arial" font-size="16px" font-style="normal" font-weight="normal" text-decoration="undefined" x="1043.7421875" y="88" text-anchor="middle" dominant-baseline="central" transform="matrix(1 0 0 1 -80 -44)">запроса</text><text fill="#000000" stroke="none" font-family="Arial" font-size="16px" font-style="normal" font-weight="normal" text-decoration="undefined" x="1043.7421875" y="104" text-anchor="middle" dominant-baseline="central" transform="matrix(1 0 0 1 -80 -44)">(Авторизирован)</text></g></g><g><path fill="#ffffff" stroke="none" paint-order="stroke fill markers" d=" M 388 280 L 677.6796875 280 Q 695.6796875 280 695.6796875 298 L 695.6796875 298 Q 695.6796875 316 677.6796875 316 L 388 316 Q 370 316 370 298 L 370 298 Q 370 280 388 280 Z"/></g><g><path fill="none" stroke="#000000" paint-order="fill stroke markers" d=" M 388 280 L 677.6796875 280 Q 695.6796875 280 695.6796875 298 L 695.6796875 298 Q 695.6796875 316 677.6796875 316 L 388 316 Q 370 316 370 298 L 370 298 Q 370 280 388 280 Z" stroke-miterlimit="10" stroke-dasharray=""/></g><g><g><path fill="none" stroke="none"/><text fill="#000000" stroke="none" font-family="Arial" font-size="16px" font-style="normal" font-weight="normal" text-decoration="undefined" x="612.83984375" y="342" text-anchor="middle" dominant-baseline="central" transform="matrix(1 0 0 1 -80 -44)">Аккаунт является участником челленджа</text></g></g><g><path fill="#ffffff" stroke="none" paint-order="stroke fill markers" d=" M 316 352 L 766 352 Q 784 352 784 370 L 784 370 Q 784 388 766 388 L 316 388 Q 298 388 298 370 L 298 370 Q 298 352 316 352 Z"/></g><g><path fill="none" stroke="#000000" paint-order="fill stroke markers" d=" M 316 352 L 766 352 Q 784 352 784 370 L 784 370 Q 784 388 766 388 L 316 388 Q 298 388 298 370 L 298 370 Q 298 352 316 352 Z" stroke-miterlimit="10" stroke-dasharray=""/></g><g><g><path fill="none" stroke="none"/><text fill="#000000" stroke="none" font-family="Arial" font-size="16px" font-style="normal" font-weight="normal" text-decoration="undefined" x="621" y="414" text-anchor="middle" dominant-baseline="central" transform="matrix(1 0 0 1 -80 -44)">Пользователь не выполнял челлендж в текущий период</text></g></g><g><rect fill="#ffffff" stroke="none" x="396" y="864" width="450" height="36" transform="matrix(1 0 0 1 -80 -44)"/></g><g><path fill="none" stroke="#000000" paint-order="fill stroke markers" d=" M 316 820 L 766 820 L 766 856 L 316 856 L 316 820 Z Z" stroke-miterlimit="10" stroke-dasharray=""/></g><g><g><path fill="none" stroke="none"/><text fill="#000000" stroke="none" font-family="Arial" font-size="16px" font-style="normal" font-weight="normal" text-decoration="undefined" x="621" y="882" text-anchor="middle" dominant-baseline="central" transform="matrix(1 0 0 1 -80 -44)">Добавить ссылку использования к указанному файлу</text></g></g><g><path fill="#ffffff" stroke="none" paint-order="stroke fill markers" d=" M 58 100 L 298 100 L 250 136 L 10 136 L 58 100"/></g><g><path fill="none" stroke="#000000" paint-order="fill stroke markers" d=" M 58 100 L 298 100 L 250 136 L 10 136 L 58 100 L 58 100" stroke-miterlimit="10" stroke-dasharray=""/></g><g><g><path fill="none" stroke="none"/><text fill="#000000" stroke="none" font-family="Arial" font-size="16px" font-style="normal" font-weight="normal" text-decoration="undefined" x="234" y="162" text-anchor="middle" dominant-baseline="central" transform="matrix(1 0 0 1 -80 -44)">FileChalangesReporttDTO</text></g></g><g><path fill="none" stroke="#000000" paint-order="fill stroke markers" d=" M 520 64 L 520 136" stroke-miterlimit="10" stroke-dasharray=""/></g><g><path fill="#000000" stroke="none" paint-order="stroke fill markers" d=" M 515.790482243984 125.83732514237585 L 520 136 L 524.209517756016 125.83732514237585"/></g><g><path fill="none" stroke="#000000" paint-order="fill stroke markers" d=" M 515.790482243984 125.83732514237585 L 520 136 L 524.209517756016 125.83732514237585 L 515.790482243984 125.83732514237585" stroke-miterlimit="10" stroke-dasharray=""/></g><g><path fill="none" stroke="#000000" paint-order="fill stroke markers" d=" M 892 78 L 892 146 L 892 146 A 8 8 0 0 1 884 154 L 802 154" stroke-miterlimit="10" stroke-dasharray=""/></g><g><path fill="#000000" stroke="none" paint-order="stroke fill markers" d=" M 812.1626748576241 149.790482243984 L 802 154 L 812.1626748576241 158.209517756016"/></g><g><path fill="none" stroke="#000000" paint-order="fill stroke markers" d=" M 812.1626748576241 149.790482243984 L 802 154 L 812.1626748576241 158.209517756016 L 812.1626748576241 149.790482243984" stroke-miterlimit="10" stroke-dasharray=""/></g><g><path fill="none" stroke="#000000" paint-order="fill stroke markers" d=" M 289 136 L 289 146 L 289 146 A 8 8 0 0 0 297 154 L 316 154" stroke-miterlimit="10" stroke-dasharray=""/></g><g><path fill="#000000" stroke="none" paint-order="stroke fill markers" d=" M 305.83732514237585 158.209517756016 L 316 154 L 305.83732514237585 149.790482243984"/></g><g><path fill="none" stroke="#000000" paint-order="fill stroke markers" d=" M 305.83732514237585 158.209517756016 L 316 154 L 305.83732514237585 149.790482243984 L 305.83732514237585 158.209517756016" stroke-miterlimit="10" stroke-dasharray=""/></g><g><path fill="none" stroke="#000000" paint-order="fill stroke markers" d=" M 550 172 L 550 226" stroke-miterlimit="10" stroke-dasharray=""/></g><g><path fill="#000000" stroke="none" paint-order="stroke fill markers" d=" M 545.790482243984 215.83732514237585 L 550 226 L 554.209517756016 215.83732514237585"/></g><g><path fill="none" stroke="#000000" paint-order="fill stroke markers" d=" M 545.790482243984 215.83732514237585 L 550 226 L 554.209517756016 215.83732514237585 L 545.790482243984 215.83732514237585" stroke-miterlimit="10" stroke-dasharray=""/></g><g><path fill="none" stroke="#000000" paint-order="fill stroke markers" d=" M 548 316 L 548 352" stroke-miterlimit="10" stroke-dasharray=""/></g><g><path fill="#000000" stroke="none" paint-order="stroke fill markers" d=" M 543.790482243984 341.83732514237585 L 548 352 L 552.209517756016 341.83732514237585"/></g><g><path fill="none" stroke="#000000" paint-order="fill stroke markers" d=" M 543.790482243984 341.83732514237585 L 548 352 L 552.209517756016 341.83732514237585 L 543.790482243984 341.83732514237585" stroke-miterlimit="10" stroke-dasharray=""/></g><g><path fill="none" stroke="#000000" paint-order="fill stroke markers" d=" M 544 856 L 544 946" stroke-miterlimit="10" stroke-dasharray=""/></g><g><path fill="#000000" stroke="none" paint-order="stroke fill markers" d=" M 539.790482243984 935.8373251423759 L 544 946 L 548.209517756016 935.8373251423759"/></g><g><path fill="none" stroke="#000000" paint-order="fill stroke markers" d=" M 539.790482243984 935.8373251423759 L 544 946 L 548.209517756016 935.8373251423759 L 539.790482243984 935.8373251423759" stroke-miterlimit="10" stroke-dasharray=""/></g><g><path fill="#ffffff" stroke="none" paint-order="stroke fill markers" d=" M 406 595 L 550 568 L 694 595 L 550 622 L 406 595"/></g><g><path fill="none" stroke="#000000" paint-order="fill stroke markers" d=" M 406 595 L 550 568 L 694 595 L 550 622 L 406 595 L 406 595" stroke-miterlimit="10" stroke-dasharray=""/></g><g><g><path fill="none" stroke="none"/><text fill="#000000" stroke="none" font-family="Arial" font-size="16px" font-style="normal" font-weight="normal" text-decoration="undefined" x="630" y="639" text-anchor="middle" dominant-baseline="central" transform="matrix(1 0 0 1 -80 -44)">IsMain is true</text></g></g><g><path fill="#ffffff" stroke="none" paint-order="stroke fill markers" d=" M 784 710 L 811 676 L 919 676 L 946 710 L 919 744 L 811 744 L 784 710"/></g><g><path fill="none" stroke="#000000" paint-order="fill stroke markers" d=" M 784 710 L 811 676 L 919 676 L 946 710 L 919 744 L 811 744 L 784 710 L 784 710" stroke-miterlimit="10" stroke-dasharray=""/></g><g><g><path fill="none" stroke="none"/><text fill="#000000" stroke="none" font-family="Arial" font-size="16px" font-style="normal" font-weight="normal" text-decoration="undefined" x="945" y="738" text-anchor="middle" dominant-baseline="central" transform="matrix(1 0 0 1 -80 -44)">Отчёт</text><text fill="#000000" stroke="none" font-family="Arial" font-size="16px" font-style="normal" font-weight="normal" text-decoration="undefined" x="945" y="754" text-anchor="middle" dominant-baseline="central" transform="matrix(1 0 0 1 -80 -44)">челленджа</text><text fill="#000000" stroke="none" font-family="Arial" font-size="16px" font-style="normal" font-weight="normal" text-decoration="undefined" x="945" y="770" text-anchor="middle" dominant-baseline="central" transform="matrix(1 0 0 1 -80 -44)">загружен</text></g></g><g><path fill="none" stroke="#000000" paint-order="fill stroke markers" d=" M 670 622 L 670 676 L 670 676 A 8 8 0 0 0 678 684 L 784 684" stroke-miterlimit="10" stroke-dasharray=""/></g><g><path fill="#000000" stroke="none" paint-order="stroke fill markers" d=" M 773.8373251423759 688.209517756016 L 784 684 L 773.8373251423758 679.790482243984"/></g><g><path fill="none" stroke="#000000" paint-order="fill stroke markers" d=" M 773.8373251423759 688.209517756016 L 784 684 L 773.8373251423758 679.790482243984 L 773.8373251423759 688.209517756016" stroke-miterlimit="10" stroke-dasharray=""/></g><g><rect fill="#ffffff" stroke="none" x="741" y="705" width="19.734375" height="16" transform="matrix(1 0 0 1 -80 -44)"/></g><g><g><path fill="none" stroke="none"/><text fill="#000000" stroke="none" font-family="Arial" font-size="16px" font-style="normal" font-weight="normal" text-decoration="undefined" x="750.8671875" y="713" text-anchor="middle" dominant-baseline="central" transform="matrix(1 0 0 1 -80 -44)">Да</text></g></g><g><path fill="none" stroke="#000000" paint-order="fill stroke markers" d=" M 549 622 L 549 820" stroke-miterlimit="10" stroke-dasharray=""/></g><g><path fill="#000000" stroke="none" paint-order="stroke fill markers" d=" M 544.790482243984 809.8373251423759 L 549 820 L 553.209517756016 809.8373251423759"/></g><g><path fill="none" stroke="#000000" paint-order="fill stroke markers" d=" M 544.790482243984 809.8373251423759 L 549 820 L 553.209517756016 809.8373251423759 L 544.790482243984 809.8373251423759" stroke-miterlimit="10" stroke-dasharray=""/></g><g><rect fill="#ffffff" stroke="none" x="631" y="756" width="27.25" height="16" transform="matrix(1 0 0 1 -80 -44)"/></g><g><g><path fill="none" stroke="none"/><text fill="#000000" stroke="none" font-family="Arial" font-size="16px" font-style="normal" font-weight="normal" text-decoration="undefined" x="644.625" y="764" text-anchor="middle" dominant-baseline="central" transform="matrix(1 0 0 1 -80 -44)">Нет</text></g></g><g><rect fill="#ffffff" stroke="none" x="396" y="540" width="468" height="36" transform="matrix(1 0 0 1 -80 -44)"/></g><g><path fill="none" stroke="#000000" paint-order="fill stroke markers" d=" M 316 496 L 784 496 L 784 532 L 316 532 L 316 496 Z Z" stroke-miterlimit="10" stroke-dasharray=""/></g><g><g><path fill="none" stroke="none"/><text fill="#000000" stroke="none" font-family="Arial" font-size="16px" font-style="normal" font-weight="normal" text-decoration="undefined" x="630" y="558" text-anchor="middle" dominant-baseline="central" transform="matrix(1 0 0 1 -80 -44)">Добавить отчёт к челленджу</text></g></g><g><path fill="#ffffff" stroke="none" paint-order="stroke fill markers" d=" M 316 424 L 784 424 Q 802 424 802 442 L 802 442 Q 802 460 784 460 L 316 460 Q 298 460 298 442 L 298 442 Q 298 424 316 424 Z"/></g><g><path fill="none" stroke="#000000" paint-order="fill stroke markers" d=" M 316 424 L 784 424 Q 802 424 802 442 L 802 442 Q 802 460 784 460 L 316 460 Q 298 460 298 442 L 298 442 Q 298 424 316 424 Z" stroke-miterlimit="10" stroke-dasharray=""/></g><g><g><path fill="none" stroke="none"/><text fill="#000000" stroke="none" font-family="Arial" font-size="16px" font-style="normal" font-weight="normal" text-decoration="undefined" x="630" y="486" text-anchor="middle" dominant-baseline="central" transform="matrix(1 0 0 1 -80 -44)">Есть медиа с пометкой isMain = ture</text></g></g><g><path fill="none" stroke="#000000" paint-order="fill stroke markers" d=" M 543 388 L 543 424" stroke-miterlimit="10" stroke-dasharray=""/></g><g><path fill="#000000" stroke="none" paint-order="stroke fill markers" d=" M 538.790482243984 413.83732514237585 L 543 424 L 547.209517756016 413.83732514237585"/></g><g><path fill="none" stroke="#000000" paint-order="fill stroke markers" d=" M 538.790482243984 413.83732514237585 L 543 424 L 547.209517756016 413.83732514237585 L 538.790482243984 413.83732514237585" stroke-miterlimit="10" stroke-dasharray=""/></g><g><path fill="none" stroke="#000000" paint-order="fill stroke markers" d=" M 550 460 L 550 496" stroke-miterlimit="10" stroke-dasharray=""/></g><g><path fill="#000000" stroke="none" paint-order="stroke fill markers" d=" M 545.790482243984 485.8373251423759 L 550 496 L 554.209517756016 485.8373251423759"/></g><g><path fill="none" stroke="#000000" paint-order="fill stroke markers" d=" M 545.790482243984 485.8373251423759 L 550 496 L 554.209517756016 485.8373251423759 L 545.790482243984 485.8373251423759" stroke-miterlimit="10" stroke-dasharray=""/></g><g><path fill="none" stroke="#000000" paint-order="fill stroke markers" d=" M 550 532 L 550 568" stroke-miterlimit="10" stroke-dasharray=""/></g><g><path fill="#000000" stroke="none" paint-order="stroke fill markers" d=" M 545.790482243984 557.8373251423759 L 550 568 L 554.209517756016 557.8373251423759"/></g><g><path fill="none" stroke="#000000" paint-order="fill stroke markers" d=" M 545.790482243984 557.8373251423759 L 550 568 L 554.209517756016 557.8373251423759 L 545.790482243984 557.8373251423759" stroke-miterlimit="10" stroke-dasharray=""/></g><g><path fill="#ffffff" stroke="none" paint-order="stroke fill markers" d=" M 478 226 L 617.96875 226 Q 635.96875 226 635.96875 244 L 635.96875 244 Q 635.96875 262 617.96875 262 L 478 262 Q 460 262 460 244 L 460 244 Q 460 226 478 226 Z"/></g><g><path fill="none" stroke="#000000" paint-order="fill stroke markers" d=" M 478 226 L 617.96875 226 Q 635.96875 226 635.96875 244 L 635.96875 244 Q 635.96875 262 617.96875 262 L 478 262 Q 460 262 460 244 L 460 244 Q 460 226 478 226 Z" stroke-miterlimit="10" stroke-dasharray=""/></g><g><g><path fill="none" stroke="none"/><text fill="#000000" stroke="none" font-family="Arial" font-size="16px" font-style="normal" font-weight="normal" text-decoration="undefined" x="627.984375" y="288" text-anchor="middle" dominant-baseline="central" transform="matrix(1 0 0 1 -80 -44)">Сообщество активно</text></g></g><g><path fill="none" stroke="#000000" paint-order="fill stroke markers" d=" M 548 262 L 548 280" stroke-miterlimit="10" stroke-dasharray=""/></g><g><path fill="#000000" stroke="none" paint-order="stroke fill markers" d=" M 543.790482243984 269.83732514237585 L 548 280 L 552.209517756016 269.83732514237585"/></g><g><path fill="none" stroke="#000000" paint-order="fill stroke markers" d=" M 543.790482243984 269.83732514237585 L 548 280 L 552.209517756016 269.83732514237585 L 543.790482243984 269.83732514237585" stroke-miterlimit="10" stroke-dasharray=""/></g></g></svg>