<svg version="1.1" xmlns="http://www.w3.org/2000/svg" xmlns:xlink="http://www.w3.org/1999/xlink" width="655.3359375" height="398"><defs/><g><g><rect fill="#ffffff" stroke="none" x="324" y="72" width="329.3046875" height="52" transform="matrix(1 0 0 1 -260 -44)"/></g><g><path fill="#ffffff" stroke="none" paint-order="stroke fill markers" d=" M 393.3046875 28 A 26 26 0 0 1 393.3046875 80"/></g><g><path fill="none" stroke="#000000" paint-order="fill stroke markers" d=" M 64 28 L 64 80" stroke-miterlimit="10" stroke-dasharray=""/></g><g><path fill="none" stroke="#000000" paint-order="fill stroke markers" d=" M 64 28 L 393.3046875 28" stroke-miterlimit="10" stroke-dasharray=""/></g><g><path fill="none" stroke="#000000" paint-order="fill stroke markers" d=" M 64 80 L 393.3046875 80" stroke-miterlimit="10" stroke-dasharray=""/></g><g><path fill="none" stroke="#000000" paint-order="fill stroke markers" d=" M 393.3046875 28 A 26 26 0 0 1 393.3046875 80" stroke-miterlimit="10" stroke-dasharray=""/></g><g><g><path fill="none" stroke="none"/><text fill="#000000" stroke="none" font-family="Arial" font-size="16px" font-style="normal" font-weight="normal" text-decoration="undefined" x="467.2392578125" y="90" text-anchor="middle" dominant-baseline="central" transform="matrix(1 0 0 1 -260 -44)">GET</text><text fill="#000000" stroke="none" font-family="Arial" font-size="16px" font-style="normal" font-weight="normal" text-decoration="undefined" x="467.2392578125" y="106" text-anchor="middle" dominant-baseline="central" transform="matrix(1 0 0 1 -260 -44)">/moderations/accounts/{accountId}/block-status</text></g></g><g><path fill="#ffffff" stroke="#000000" paint-order="fill stroke markers" d=" M 532 44 L 550 10 L 627.3359375 10 Q 645.3359375 10 645.3359375 44 Q 645.3359375 78 627.3359375 78 L 550 78 L 532 44 Z" stroke-miterlimit="10" stroke-dasharray=""/></g><g><g><path fill="none" stroke="none"/><text fill="#000000" stroke="none" font-family="Arial" font-size="16px" font-style="normal" font-weight="normal" text-decoration="undefined" x="848.66796875" y="72" text-anchor="middle" dominant-baseline="central" transform="matrix(1 0 0 1 -260 -44)">Заголовки</text><text fill="#000000" stroke="none" font-family="Arial" font-size="16px" font-style="normal" font-weight="normal" text-decoration="undefined" x="848.66796875" y="88" text-anchor="middle" dominant-baseline="central" transform="matrix(1 0 0 1 -260 -44)">запроса</text><text fill="#000000" stroke="none" font-family="Arial" font-size="16px" font-style="normal" font-weight="normal" text-decoration="undefined" x="848.66796875" y="104" text-anchor="middle" dominant-baseline="central" transform="matrix(1 0 0 1 -260 -44)">(Модератор)</text></g></g><g><path fill="#ffffff" stroke="none" paint-order="stroke fill markers" d=" M 185 136 L 251.59375 136 L 238.59375 172 L 172 172 L 185 136"/></g><g><path fill="none" stroke="#000000" paint-order="fill stroke markers" d=" M 185 136 L 251.59375 136 L 238.59375 172 L 172 172 L 185 136 L 185 136" stroke-miterlimit="10" stroke-dasharray=""/></g><g><g><path fill="none" stroke="none"/><text fill="#000000" stroke="none" font-family="Arial" font-size="16px" font-style="normal" font-weight="normal" text-decoration="undefined" x="471.796875" y="198" text-anchor="middle" dominant-baseline="central" transform="matrix(1 0 0 1 -260 -44)">Request</text></g></g><g><path fill="#ffffff" stroke="none" paint-order="stroke fill markers" d=" M 28 208 L 391.4296875 208 Q 409.4296875 208 409.4296875 226 L 409.4296875 226 Q 409.4296875 244 391.4296875 244 L 28 244 Q 10 244 10 226 L 10 226 Q 10 208 28 208 Z"/></g><g><path fill="none" stroke="#000000" paint-order="fill stroke markers" d=" M 28 208 L 391.4296875 208 Q 409.4296875 208 409.4296875 226 L 409.4296875 226 Q 409.4296875 244 391.4296875 244 L 28 244 Q 10 244 10 226 L 10 226 Q 10 208 28 208 Z" stroke-miterlimit="10" stroke-dasharray=""/></g><g><g><path fill="none" stroke="none"/><text fill="#000000" stroke="none" font-family="Arial" font-size="16px" font-style="normal" font-weight="normal" text-decoration="undefined" x="469.71484375" y="270" text-anchor="middle" dominant-baseline="central" transform="matrix(1 0 0 1 -260 -44)">Пользователь является модератором приложения </text></g></g><g><rect fill="#ffffff" stroke="none" x="270" y="324" width="417.28125" height="36" transform="matrix(1 0 0 1 -260 -44)"/></g><g><path fill="none" stroke="#000000" paint-order="fill stroke markers" d=" M 10 280 L 427.28125 280 L 427.28125 316 L 10 316 L 10 280 Z Z" stroke-miterlimit="10" stroke-dasharray=""/></g><g><g><path fill="none" stroke="none"/><text fill="#000000" stroke="none" font-family="Arial" font-size="16px" font-style="normal" font-weight="normal" text-decoration="undefined" x="478.640625" y="342" text-anchor="middle" dominant-baseline="central" transform="matrix(1 0 0 1 -260 -44)">Извлечение информации о блокировки пользователя</text></g></g><g><path fill="#ffffff" stroke="none" paint-order="stroke fill markers" d=" M 73 352 L 388 352 L 325 388 L 10 388 L 73 352"/></g><g><path fill="none" stroke="#000000" paint-order="fill stroke markers" d=" M 73 352 L 388 352 L 325 388 L 10 388 L 73 352 L 73 352" stroke-miterlimit="10" stroke-dasharray=""/></g><g><g><path fill="none" stroke="none"/><text fill="#000000" stroke="none" font-family="Arial" font-size="16px" font-style="normal" font-weight="normal" text-decoration="undefined" x="459" y="414" text-anchor="middle" dominant-baseline="central" transform="matrix(1 0 0 1 -260 -44)">ModerationAccountBlockStatusResponse</text></g></g><g><path fill="none" stroke="#000000" paint-order="fill stroke markers" d=" M 230 80 L 230 136" stroke-miterlimit="10" stroke-dasharray=""/></g><g><path fill="#000000" stroke="none" paint-order="stroke fill markers" d=" M 225.790482243984 125.83732514237585 L 230 136 L 234.209517756016 125.83732514237585"/></g><g><path fill="none" stroke="#000000" paint-order="fill stroke markers" d=" M 225.790482243984 125.83732514237585 L 230 136 L 234.209517756016 125.83732514237585 L 225.790482243984 125.83732514237585" stroke-miterlimit="10" stroke-dasharray=""/></g><g><path fill="none" stroke="#000000" paint-order="fill stroke markers" d=" M 211 172 L 211 208" stroke-miterlimit="10" stroke-dasharray=""/></g><g><path fill="#000000" stroke="none" paint-order="stroke fill markers" d=" M 206.790482243984 197.83732514237585 L 211 208 L 215.209517756016 197.83732514237585"/></g><g><path fill="none" stroke="#000000" paint-order="fill stroke markers" d=" M 206.790482243984 197.83732514237585 L 211 208 L 215.209517756016 197.83732514237585 L 206.790482243984 197.83732514237585" stroke-miterlimit="10" stroke-dasharray=""/></g><g><path fill="none" stroke="#000000" paint-order="fill stroke markers" d=" M 211 244 L 211 280" stroke-miterlimit="10" stroke-dasharray=""/></g><g><path fill="#000000" stroke="none" paint-order="stroke fill markers" d=" M 206.790482243984 269.83732514237585 L 211 280 L 215.209517756016 269.83732514237585"/></g><g><path fill="none" stroke="#000000" paint-order="fill stroke markers" d=" M 206.790482243984 269.83732514237585 L 211 280 L 215.209517756016 269.83732514237585 L 206.790482243984 269.83732514237585" stroke-miterlimit="10" stroke-dasharray=""/></g><g><path fill="none" stroke="#000000" paint-order="fill stroke markers" d=" M 214 316 L 214 352" stroke-miterlimit="10" stroke-dasharray=""/></g><g><path fill="#000000" stroke="none" paint-order="stroke fill markers" d=" M 209.790482243984 341.83732514237585 L 214 352 L 218.209517756016 341.83732514237585"/></g><g><path fill="none" stroke="#000000" paint-order="fill stroke markers" d=" M 209.790482243984 341.83732514237585 L 214 352 L 218.209517756016 341.83732514237585 L 209.790482243984 341.83732514237585" stroke-miterlimit="10" stroke-dasharray=""/></g><g><path fill="none" stroke="#000000" paint-order="fill stroke markers" d=" M 532 78 L 532 134 L 532 134 A 8 8 0 0 1 524 142 L 252 142" stroke-miterlimit="10" stroke-dasharray=""/></g><g><path fill="#000000" stroke="none" paint-order="stroke fill markers" d=" M 262.1626748576241 137.790482243984 L 252 142 L 262.1626748576241 146.209517756016"/></g><g><path fill="none" stroke="#000000" paint-order="fill stroke markers" d=" M 262.1626748576241 137.790482243984 L 252 142 L 262.1626748576241 146.209517756016 L 262.1626748576241 137.790482243984" stroke-miterlimit="10" stroke-dasharray=""/></g></g></svg>