<svg version="1.1" xmlns="http://www.w3.org/2000/svg" xmlns:xlink="http://www.w3.org/1999/xlink" width="412" height="596"><defs/><g><g><path fill="#C0C0C0" stroke="none" paint-order="stroke fill markers" d=" M 21 44 C 21 33.2304464 48.3106272 24.5 82 24.5 C 115.6893728 24.5 143 33.2304464 143 44 C 143 54.769553599999995 115.6893728 63.5 82 63.5 C 48.3106272 63.5 21 54.769553599999995 21 44 Z" fill-opacity="0.2"/></g><g><path fill="#A3FFD1" stroke="none" paint-order="stroke fill markers" d=" M 14 37 C 14 26.230446399999998 41.3106272 17.5 75 17.5 C 108.6893728 17.5 136 26.230446399999998 136 37 C 136 47.7695536 108.6893728 56.5 75 56.5 C 41.3106272 56.5 14 47.7695536 14 37 Z"/></g><g><path fill="none" stroke="#000000" paint-order="fill stroke markers" d=" M 14 37 C 14 26.230446399999998 41.3106272 17.5 75 17.5 C 108.6893728 17.5 136 26.230446399999998 136 37 C 136 47.7695536 108.6893728 56.5 75 56.5 C 41.3106272 56.5 14 47.7695536 14 37 Z" stroke-miterlimit="10" stroke-dasharray=""/></g><g><g><path fill="none" stroke="none"/><text fill="#000000" stroke="none" font-family="Arial" font-size="16px" font-style="normal" font-weight="bold" text-decoration="undefined" x="83" y="48" text-anchor="middle" dominant-baseline="central" transform="matrix(1 0 0 1 -8 -10)">UseCase1</text></g></g><g><path fill="#C0C0C0" stroke="none" paint-order="stroke fill markers" d=" M 21 128 C 21 117.2304464 48.3106272 108.5 82 108.5 C 115.6893728 108.5 143 117.2304464 143 128 C 143 138.7695536 115.6893728 147.5 82 147.5 C 48.3106272 147.5 21 138.7695536 21 128 Z" fill-opacity="0.2"/></g><g><path fill="#FFADAD" stroke="none" paint-order="stroke fill markers" d=" M 14 121 C 14 110.2304464 41.3106272 101.5 75 101.5 C 108.6893728 101.5 136 110.2304464 136 121 C 136 131.7695536 108.6893728 140.5 75 140.5 C 41.3106272 140.5 14 131.7695536 14 121 Z"/></g><g><path fill="none" stroke="#000000" paint-order="fill stroke markers" d=" M 14 121 C 14 110.2304464 41.3106272 101.5 75 101.5 C 108.6893728 101.5 136 110.2304464 136 121 C 136 131.7695536 108.6893728 140.5 75 140.5 C 41.3106272 140.5 14 131.7695536 14 121 Z" stroke-miterlimit="10" stroke-dasharray=""/></g><g><g><path fill="none" stroke="none"/><text fill="#000000" stroke="none" font-family="Arial" font-size="16px" font-style="normal" font-weight="bold" text-decoration="undefined" x="83" y="132" text-anchor="middle" dominant-baseline="central" transform="matrix(1 0 0 1 -8 -10)">UseCase2</text></g></g><g><path fill="#C0C0C0" stroke="none" paint-order="stroke fill markers" d=" M 21 212 C 21 201.2304464 48.3106272 192.5 82 192.5 C 115.6893728 192.5 143 201.2304464 143 212 C 143 222.7695536 115.6893728 231.5 82 231.5 C 48.3106272 231.5 21 222.7695536 21 212 Z" fill-opacity="0.2"/></g><g><path fill="#ADADFF" stroke="none" paint-order="stroke fill markers" d=" M 14 205 C 14 194.2304464 41.3106272 185.5 75 185.5 C 108.6893728 185.5 136 194.2304464 136 205 C 136 215.7695536 108.6893728 224.5 75 224.5 C 41.3106272 224.5 14 215.7695536 14 205 Z"/></g><g><path fill="none" stroke="#000000" paint-order="fill stroke markers" d=" M 14 205 C 14 194.2304464 41.3106272 185.5 75 185.5 C 108.6893728 185.5 136 194.2304464 136 205 C 136 215.7695536 108.6893728 224.5 75 224.5 C 41.3106272 224.5 14 215.7695536 14 205 Z" stroke-miterlimit="10" stroke-dasharray=""/></g><g><g><path fill="none" stroke="none"/><text fill="#000000" stroke="none" font-family="Arial" font-size="16px" font-style="normal" font-weight="bold" text-decoration="undefined" x="83" y="216" text-anchor="middle" dominant-baseline="central" transform="matrix(1 0 0 1 -8 -10)">UseCase3</text></g></g><g><path fill="#ffffff" stroke="none" paint-order="stroke fill markers" d=" M 204 10 L 355 10 L 365 20 L 365 63 L 204 63 L 204 10"/></g><g><path fill="none" stroke="#000000" paint-order="fill stroke markers" d=" M 204 10 L 355 10 L 365 20 L 365 63 L 204 63 L 204 10 L 204 10" stroke-miterlimit="10" stroke-dasharray=""/></g><g><path fill="none" stroke="#000000" paint-order="fill stroke markers" d=" M 355 10 L 355 20 L 365 20 L 355 10" stroke-miterlimit="10" stroke-dasharray=""/></g><g><g><path fill="none" stroke="none"/><text fill="#000000" stroke="none" font-family="Arial" font-size="16px" font-style="normal" font-weight="normal" text-decoration="undefined" x="217" y="25" text-anchor="start" dominant-baseline="text-before-edge" transform="matrix(1 0 0 1 -8 -10)">Проектирование</text><text fill="#000000" stroke="none" font-family="Arial" font-size="16px" font-style="normal" font-weight="normal" text-decoration="undefined" x="217" y="41" text-anchor="start" dominant-baseline="text-before-edge" transform="matrix(1 0 0 1 -8 -10)">завершено</text></g></g><g><path fill="#ffffff" stroke="none" paint-order="stroke fill markers" d=" M 186 94 L 373 94 L 383 104 L 383 147 L 186 147 L 186 94"/></g><g><path fill="none" stroke="#000000" paint-order="fill stroke markers" d=" M 186 94 L 373 94 L 383 104 L 383 147 L 186 147 L 186 94 L 186 94" stroke-miterlimit="10" stroke-dasharray=""/></g><g><path fill="none" stroke="#000000" paint-order="fill stroke markers" d=" M 373 94 L 373 104 L 383 104 L 373 94" stroke-miterlimit="10" stroke-dasharray=""/></g><g><g><path fill="none" stroke="none"/><text fill="#000000" stroke="none" font-family="Arial" font-size="16px" font-style="normal" font-weight="normal" text-decoration="undefined" x="199" y="109" text-anchor="start" dominant-baseline="text-before-edge" transform="matrix(1 0 0 1 -8 -10)">Нужны ответы на</text><text fill="#000000" stroke="none" font-family="Arial" font-size="16px" font-style="normal" font-weight="normal" text-decoration="undefined" x="199" y="125" text-anchor="start" dominant-baseline="text-before-edge" transform="matrix(1 0 0 1 -8 -10)">вопросы</text></g></g><g><path fill="#ffffff" stroke="none" paint-order="stroke fill markers" d=" M 186 178 L 373 178 L 383 188 L 383 231 L 186 231 L 186 178"/></g><g><path fill="none" stroke="#000000" paint-order="fill stroke markers" d=" M 186 178 L 373 178 L 383 188 L 383 231 L 186 231 L 186 178 L 186 178" stroke-miterlimit="10" stroke-dasharray=""/></g><g><path fill="none" stroke="#000000" paint-order="fill stroke markers" d=" M 373 178 L 373 188 L 383 188 L 373 178" stroke-miterlimit="10" stroke-dasharray=""/></g><g><g><path fill="none" stroke="none"/><text fill="#000000" stroke="none" font-family="Arial" font-size="16px" font-style="normal" font-weight="normal" text-decoration="undefined" x="199" y="193" text-anchor="start" dominant-baseline="text-before-edge" transform="matrix(1 0 0 1 -8 -10)">Не завершенный </text></g></g><g><path fill="#C0C0C0" stroke="none" paint-order="stroke fill markers" d=" M 21 291 C 21 280.2304464 48.3106272 271.5 82 271.5 C 115.6893728 271.5 143 280.2304464 143 291 C 143 301.7695536 115.6893728 310.5 82 310.5 C 48.3106272 310.5 21 301.7695536 21 291 Z" fill-opacity="0.2"/></g><g><path fill="#ffffff" stroke="none" paint-order="stroke fill markers" d=" M 14 284 C 14 273.2304464 41.3106272 264.5 75 264.5 C 108.6893728 264.5 136 273.2304464 136 284 C 136 294.7695536 108.6893728 303.5 75 303.5 C 41.3106272 303.5 14 294.7695536 14 284 Z"/></g><g><path fill="none" stroke="#000000" paint-order="fill stroke markers" d=" M 14 284 C 14 273.2304464 41.3106272 264.5 75 264.5 C 108.6893728 264.5 136 273.2304464 136 284 C 136 294.7695536 108.6893728 303.5 75 303.5 C 41.3106272 303.5 14 294.7695536 14 284 Z" stroke-miterlimit="10" stroke-dasharray=""/></g><g><g><path fill="none" stroke="none"/><text fill="#000000" stroke="none" font-family="Arial" font-size="16px" font-style="normal" font-weight="bold" text-decoration="undefined" x="83" y="295" text-anchor="middle" dominant-baseline="central" transform="matrix(1 0 0 1 -8 -10)">UseCase4</text></g></g><g><path fill="#ffffff" stroke="none" paint-order="stroke fill markers" d=" M 186 262 L 373 262 L 383 272 L 383 305 L 186 305 L 186 262"/></g><g><path fill="none" stroke="#000000" paint-order="fill stroke markers" d=" M 186 262 L 373 262 L 383 272 L 383 305 L 186 305 L 186 262 L 186 262" stroke-miterlimit="10" stroke-dasharray=""/></g><g><path fill="none" stroke="#000000" paint-order="fill stroke markers" d=" M 373 262 L 373 272 L 383 272 L 373 262" stroke-miterlimit="10" stroke-dasharray=""/></g><g><g><path fill="none" stroke="none"/><text fill="#000000" stroke="none" font-family="Arial" font-size="16px" font-style="normal" font-weight="normal" text-decoration="undefined" x="199" y="277" text-anchor="start" dominant-baseline="text-before-edge" transform="matrix(1 0 0 1 -8 -10)">Не тронутый</text></g></g><g><path fill="#C0C0C0" stroke="none" paint-order="stroke fill markers" d=" M 21 373 C 21 362.2304464 48.3106272 353.5 82 353.5 C 115.6893728 353.5 143 362.2304464 143 373 C 143 383.7695536 115.6893728 392.5 82 392.5 C 48.3106272 392.5 21 383.7695536 21 373 Z" fill-opacity="0.2"/></g><g><path fill="#FFA3FF" stroke="none" paint-order="stroke fill markers" d=" M 14 366 C 14 355.2304464 41.3106272 346.5 75 346.5 C 108.6893728 346.5 136 355.2304464 136 366 C 136 376.7695536 108.6893728 385.5 75 385.5 C 41.3106272 385.5 14 376.7695536 14 366 Z"/></g><g><path fill="none" stroke="#000000" paint-order="fill stroke markers" d=" M 14 366 C 14 355.2304464 41.3106272 346.5 75 346.5 C 108.6893728 346.5 136 355.2304464 136 366 C 136 376.7695536 108.6893728 385.5 75 385.5 C 41.3106272 385.5 14 376.7695536 14 366 Z" stroke-miterlimit="10" stroke-dasharray=""/></g><g><g><path fill="none" stroke="none"/><text fill="#000000" stroke="none" font-family="Arial" font-size="16px" font-style="normal" font-weight="bold" text-decoration="undefined" x="83" y="377" text-anchor="middle" dominant-baseline="central" transform="matrix(1 0 0 1 -8 -10)">UseCase5</text></g></g><g><path fill="#ffffff" stroke="none" paint-order="stroke fill markers" d=" M 177 336 L 382 336 L 392 346 L 392 395 L 177 395 L 177 336"/></g><g><path fill="none" stroke="#000000" paint-order="fill stroke markers" d=" M 177 336 L 382 336 L 392 346 L 392 395 L 177 395 L 177 336 L 177 336" stroke-miterlimit="10" stroke-dasharray=""/></g><g><path fill="none" stroke="#000000" paint-order="fill stroke markers" d=" M 382 336 L 382 346 L 392 346 L 382 336" stroke-miterlimit="10" stroke-dasharray=""/></g><g><g><path fill="none" stroke="none"/><text fill="#000000" stroke="none" font-family="Arial" font-size="16px" font-style="normal" font-weight="normal" text-decoration="undefined" x="190" y="351" text-anchor="start" dominant-baseline="text-before-edge" transform="matrix(1 0 0 1 -8 -10)">Ждёт утверждения или</text><text fill="#000000" stroke="none" font-family="Arial" font-size="16px" font-style="normal" font-weight="normal" text-decoration="undefined" x="190" y="367" text-anchor="start" dominant-baseline="text-before-edge" transform="matrix(1 0 0 1 -8 -10)">уточнения</text><text fill="#000000" stroke="none" font-family="Arial" font-size="16px" font-style="normal" font-weight="normal" text-decoration="undefined" x="190" y="383" text-anchor="start" dominant-baseline="text-before-edge" transform="matrix(1 0 0 1 -8 -10)">функциональности</text></g></g><g><path fill="#C0C0C0" stroke="none" paint-order="stroke fill markers" d=" M 17 460 C 17 449.2304464 45.2060576 440.5 80 440.5 C 114.79394239999999 440.5 143 449.2304464 143 460 C 143 470.7695536 114.79394239999999 479.5 80 479.5 C 45.2060576 479.5 17 470.7695536 17 460 Z" fill-opacity="0.2"/></g><g><path fill="#00D8B4" stroke="none" paint-order="stroke fill markers" d=" M 10 453 C 10 442.2304464 38.2060576 433.5 73 433.5 C 107.79394239999999 433.5 136 442.2304464 136 453 C 136 463.7695536 107.79394239999999 472.5 73 472.5 C 38.2060576 472.5 10 463.7695536 10 453 Z"/></g><g><path fill="none" stroke="#000000" paint-order="fill stroke markers" d=" M 10 453 C 10 442.2304464 38.2060576 433.5 73 433.5 C 107.79394239999999 433.5 136 442.2304464 136 453 C 136 463.7695536 107.79394239999999 472.5 73 472.5 C 38.2060576 472.5 10 463.7695536 10 453 Z" stroke-miterlimit="10" stroke-dasharray=""/></g><g><g><path fill="none" stroke="none"/><text fill="#000000" stroke="none" font-family="Arial" font-size="16px" font-style="normal" font-weight="bold" text-decoration="undefined" x="81" y="464" text-anchor="middle" dominant-baseline="central" transform="matrix(1 0 0 1 -8 -10)">UseCase6</text></g></g><g><path fill="#ffffff" stroke="none" paint-order="stroke fill markers" d=" M 168 426 L 391 426 L 401 436 L 401 479 L 168 479 L 168 426"/></g><g><path fill="none" stroke="#000000" paint-order="fill stroke markers" d=" M 168 426 L 391 426 L 401 436 L 401 479 L 168 479 L 168 426 L 168 426" stroke-miterlimit="10" stroke-dasharray=""/></g><g><path fill="none" stroke="#000000" paint-order="fill stroke markers" d=" M 391 426 L 391 436 L 401 436 L 391 426" stroke-miterlimit="10" stroke-dasharray=""/></g><g><g><path fill="none" stroke="none"/><text fill="#000000" stroke="none" font-family="Arial" font-size="16px" font-style="normal" font-weight="normal" text-decoration="undefined" x="181" y="441" text-anchor="start" dominant-baseline="text-before-edge" transform="matrix(1 0 0 1 -8 -10)">Функционал на потом</text></g></g><g><path fill="#C0C0C0" stroke="none" paint-order="stroke fill markers" d=" M 21 555 C 21 544.2304464 48.3106272 535.5 82 535.5 C 115.6893728 535.5 143 544.2304464 143 555 C 143 565.7695536 115.6893728 574.5 82 574.5 C 48.3106272 574.5 21 565.7695536 21 555 Z" fill-opacity="0.2"/></g><g><path fill="#FF8056" stroke="none" paint-order="stroke fill markers" d=" M 14 548 C 14 537.2304464 41.3106272 528.5 75 528.5 C 108.6893728 528.5 136 537.2304464 136 548 C 136 558.7695536 108.6893728 567.5 75 567.5 C 41.3106272 567.5 14 558.7695536 14 548 Z"/></g><g><path fill="none" stroke="#000000" paint-order="fill stroke markers" d=" M 14 548 C 14 537.2304464 41.3106272 528.5 75 528.5 C 108.6893728 528.5 136 537.2304464 136 548 C 136 558.7695536 108.6893728 567.5 75 567.5 C 41.3106272 567.5 14 558.7695536 14 548 Z" stroke-miterlimit="10" stroke-dasharray=""/></g><g><g><path fill="none" stroke="none"/><text fill="#000000" stroke="none" font-family="Arial" font-size="16px" font-style="normal" font-weight="bold" text-decoration="undefined" x="83" y="559" text-anchor="middle" dominant-baseline="central" transform="matrix(1 0 0 1 -8 -10)">UseCase7</text></g></g><g><path fill="#ffffff" stroke="none" paint-order="stroke fill markers" d=" M 168 510 L 391 510 L 401 520 L 401 585 L 168 585 L 168 510"/></g><g><path fill="none" stroke="#000000" paint-order="fill stroke markers" d=" M 168 510 L 391 510 L 401 520 L 401 585 L 168 585 L 168 510 L 168 510" stroke-miterlimit="10" stroke-dasharray=""/></g><g><path fill="none" stroke="#000000" paint-order="fill stroke markers" d=" M 391 510 L 391 520 L 401 520 L 391 510" stroke-miterlimit="10" stroke-dasharray=""/></g><g><g><path fill="none" stroke="none"/><text fill="#000000" stroke="none" font-family="Arial" font-size="16px" font-style="normal" font-weight="normal" text-decoration="undefined" x="181" y="525" text-anchor="start" dominant-baseline="text-before-edge" transform="matrix(1 0 0 1 -8 -10)">Как работает? Нужно</text><text fill="#000000" stroke="none" font-family="Arial" font-size="16px" font-style="normal" font-weight="normal" text-decoration="undefined" x="181" y="541" text-anchor="start" dominant-baseline="text-before-edge" transform="matrix(1 0 0 1 -8 -10)">прописать бизнес процесс</text><text fill="#000000" stroke="none" font-family="Arial" font-size="16px" font-style="normal" font-weight="normal" text-decoration="undefined" x="181" y="557" text-anchor="start" dominant-baseline="text-before-edge" transform="matrix(1 0 0 1 -8 -10)">того как работает</text><text fill="#000000" stroke="none" font-family="Arial" font-size="16px" font-style="normal" font-weight="normal" text-decoration="undefined" x="181" y="573" text-anchor="start" dominant-baseline="text-before-edge" transform="matrix(1 0 0 1 -8 -10)">функционал</text></g></g><g><path fill="none" stroke="#000000" paint-order="fill stroke markers" d=" M 137 37 Q 153 37 203 37" stroke-miterlimit="10" stroke-dasharray="3"/></g><g><path fill="none" stroke="#000000" paint-order="fill stroke markers" d=" M 137 121 Q 153 121 185 121" stroke-miterlimit="10" stroke-dasharray="3"/></g><g><path fill="none" stroke="#000000" paint-order="fill stroke markers" d=" M 137 205 Q 153 205 185 205" stroke-miterlimit="10" stroke-dasharray="3"/></g><g><path fill="none" stroke="#000000" paint-order="fill stroke markers" d=" M 137 284 Q 153 284 185 284" stroke-miterlimit="10" stroke-dasharray="3"/></g><g><path fill="none" stroke="#000000" paint-order="fill stroke markers" d=" M 137 366 Q 153 366 176 366" stroke-miterlimit="10" stroke-dasharray="3"/></g><g><path fill="none" stroke="#000000" paint-order="fill stroke markers" d=" M 137 453 Q 153 453 167 453" stroke-miterlimit="10" stroke-dasharray="3"/></g><g><path fill="none" stroke="#000000" paint-order="fill stroke markers" d=" M 137 548 Q 153 548 167 548" stroke-miterlimit="10" stroke-dasharray="3"/></g></g></svg>