<svg version="1.1" xmlns="http://www.w3.org/2000/svg" xmlns:xlink="http://www.w3.org/1999/xlink" width="746.4765625" height="398"><defs/><g><g><rect fill="#ffffff" stroke="none" x="360" y="72" width="334" height="52" transform="matrix(1 0 0 1 -296 -44)"/></g><g><path fill="#ffffff" stroke="none" paint-order="stroke fill markers" d=" M 398 28 A 26 26 0 0 1 398 80"/></g><g><path fill="none" stroke="#000000" paint-order="fill stroke markers" d=" M 64 28 L 64 80" stroke-miterlimit="10" stroke-dasharray=""/></g><g><path fill="none" stroke="#000000" paint-order="fill stroke markers" d=" M 64 28 L 398 28" stroke-miterlimit="10" stroke-dasharray=""/></g><g><path fill="none" stroke="#000000" paint-order="fill stroke markers" d=" M 64 80 L 398 80" stroke-miterlimit="10" stroke-dasharray=""/></g><g><path fill="none" stroke="#000000" paint-order="fill stroke markers" d=" M 398 28 A 26 26 0 0 1 398 80" stroke-miterlimit="10" stroke-dasharray=""/></g><g><g><path fill="none" stroke="none"/><text fill="#000000" stroke="none" font-family="Arial" font-size="16px" font-style="normal" font-weight="normal" text-decoration="undefined" x="505" y="90" text-anchor="middle" dominant-baseline="central" transform="matrix(1 0 0 1 -296 -44)">GET</text><text fill="#000000" stroke="none" font-family="Arial" font-size="16px" font-style="normal" font-weight="normal" text-decoration="undefined" x="505" y="106" text-anchor="middle" dominant-baseline="central" transform="matrix(1 0 0 1 -296 -44)">/challenges/{challengeId}/block-accounts</text></g></g><g><path fill="#ffffff" stroke="none" paint-order="stroke fill markers" d=" M 85 100 L 460 100 L 385 136 L 10 136 L 85 100"/></g><g><path fill="none" stroke="#000000" paint-order="fill stroke markers" d=" M 85 100 L 460 100 L 385 136 L 10 136 L 85 100 L 85 100" stroke-miterlimit="10" stroke-dasharray=""/></g><g><g><path fill="none" stroke="none"/><text fill="#000000" stroke="none" font-family="Arial" font-size="16px" font-style="normal" font-weight="normal" text-decoration="undefined" x="531" y="162" text-anchor="middle" dominant-baseline="central" transform="matrix(1 0 0 1 -296 -44)">GetChallengesBlockAccountsRequest</text></g></g><g><path fill="#ffffff" stroke="#000000" paint-order="fill stroke markers" d=" M 496 44 L 519 10 L 616.484375 10 Q 639.484375 10 639.484375 44 Q 639.484375 78 616.484375 78 L 519 78 L 496 44 Z" stroke-miterlimit="10" stroke-dasharray=""/></g><g><g><path fill="none" stroke="none"/><text fill="#000000" stroke="none" font-family="Arial" font-size="16px" font-style="normal" font-weight="normal" text-decoration="undefined" x="863.7421875" y="72" text-anchor="middle" dominant-baseline="central" transform="matrix(1 0 0 1 -296 -44)">Заголовки</text><text fill="#000000" stroke="none" font-family="Arial" font-size="16px" font-style="normal" font-weight="normal" text-decoration="undefined" x="863.7421875" y="88" text-anchor="middle" dominant-baseline="central" transform="matrix(1 0 0 1 -296 -44)">запроса</text><text fill="#000000" stroke="none" font-family="Arial" font-size="16px" font-style="normal" font-weight="normal" text-decoration="undefined" x="863.7421875" y="104" text-anchor="middle" dominant-baseline="central" transform="matrix(1 0 0 1 -296 -44)">(Авторизирован)</text></g></g><g><path fill="#ffffff" stroke="none" paint-order="stroke fill markers" d=" M 72 172 L 412.6328125 172 Q 438.6328125 172 438.6328125 198 L 438.6328125 198 Q 438.6328125 224 412.6328125 224 L 72 224 Q 46 224 46 198 L 46 198 Q 46 172 72 172 Z"/></g><g><path fill="none" stroke="#000000" paint-order="fill stroke markers" d=" M 72 172 L 412.6328125 172 Q 438.6328125 172 438.6328125 198 L 438.6328125 198 Q 438.6328125 224 412.6328125 224 L 72 224 Q 46 224 46 198 L 46 198 Q 46 172 72 172 Z" stroke-miterlimit="10" stroke-dasharray=""/></g><g><g><path fill="none" stroke="none"/><text fill="#000000" stroke="none" font-family="Arial" font-size="16px" font-style="normal" font-weight="normal" text-decoration="undefined" x="538.31640625" y="242" text-anchor="middle" dominant-baseline="central" transform="matrix(1 0 0 1 -296 -44)">Роль пользователя в челлендже "Администратор"</text></g></g><g><rect fill="#ffffff" stroke="none" x="360" y="306" width="360" height="52" transform="matrix(1 0 0 1 -296 -44)"/></g><g><path fill="none" stroke="#000000" paint-order="fill stroke markers" d=" M 64 262 L 424 262 L 424 314 L 64 314 L 64 262 Z Z" stroke-miterlimit="10" stroke-dasharray=""/></g><g><g><path fill="none" stroke="none"/><text fill="#000000" stroke="none" font-family="Arial" font-size="16px" font-style="normal" font-weight="normal" text-decoration="undefined" x="540" y="324" text-anchor="middle" dominant-baseline="central" transform="matrix(1 0 0 1 -296 -44)">Извлечь список заблокированных</text><text fill="#000000" stroke="none" font-family="Arial" font-size="16px" font-style="normal" font-weight="normal" text-decoration="undefined" x="540" y="340" text-anchor="middle" dominant-baseline="central" transform="matrix(1 0 0 1 -296 -44)">пользователей</text></g></g><g><path fill="#ffffff" stroke="none" paint-order="stroke fill markers" d=" M 100 352 L 460 352 L 388 388 L 28 388 L 100 352"/></g><g><path fill="none" stroke="#000000" paint-order="fill stroke markers" d=" M 100 352 L 460 352 L 388 388 L 28 388 L 100 352 L 100 352" stroke-miterlimit="10" stroke-dasharray=""/></g><g><g><path fill="none" stroke="none"/><text fill="#000000" stroke="none" font-family="Arial" font-size="16px" font-style="normal" font-weight="normal" text-decoration="undefined" x="540" y="414" text-anchor="middle" dominant-baseline="central" transform="matrix(1 0 0 1 -296 -44)">GetChallengesBlockAccountsResponse</text></g></g><g><path fill="none" stroke="#000000" paint-order="fill stroke markers" d=" M 240 80 L 240 100" stroke-miterlimit="10" stroke-dasharray=""/></g><g><path fill="#000000" stroke="none" paint-order="stroke fill markers" d=" M 235.790482243984 89.83732514237585 L 240 100 L 244.209517756016 89.83732514237585"/></g><g><path fill="none" stroke="#000000" paint-order="fill stroke markers" d=" M 235.790482243984 89.83732514237585 L 240 100 L 244.209517756016 89.83732514237585 L 235.790482243984 89.83732514237585" stroke-miterlimit="10" stroke-dasharray=""/></g><g><path fill="none" stroke="#000000" paint-order="fill stroke markers" d=" M 496 78 L 496 92 L 496 92 A 8 8 0 0 1 488 100 L 460 100" stroke-miterlimit="10" stroke-dasharray=""/></g><g><path fill="#000000" stroke="none" paint-order="stroke fill markers" d=" M 470.1626748576241 95.790482243984 L 460 100 L 470.1626748576241 104.209517756016"/></g><g><path fill="none" stroke="#000000" paint-order="fill stroke markers" d=" M 470.1626748576241 95.790482243984 L 460 100 L 470.1626748576241 104.209517756016 L 470.1626748576241 95.790482243984" stroke-miterlimit="10" stroke-dasharray=""/></g><g><path fill="none" stroke="#000000" paint-order="fill stroke markers" d=" M 230 136 L 230 172" stroke-miterlimit="10" stroke-dasharray=""/></g><g><path fill="#000000" stroke="none" paint-order="stroke fill markers" d=" M 225.790482243984 161.83732514237585 L 230 172 L 234.209517756016 161.83732514237585"/></g><g><path fill="none" stroke="#000000" paint-order="fill stroke markers" d=" M 225.790482243984 161.83732514237585 L 230 172 L 234.209517756016 161.83732514237585 L 225.790482243984 161.83732514237585" stroke-miterlimit="10" stroke-dasharray=""/></g><g><path fill="none" stroke="#000000" paint-order="fill stroke markers" d=" M 243 224 L 243 262" stroke-miterlimit="10" stroke-dasharray=""/></g><g><path fill="#000000" stroke="none" paint-order="stroke fill markers" d=" M 238.790482243984 251.83732514237585 L 243 262 L 247.209517756016 251.83732514237585"/></g><g><path fill="none" stroke="#000000" paint-order="fill stroke markers" d=" M 238.790482243984 251.83732514237585 L 243 262 L 247.209517756016 251.83732514237585 L 238.790482243984 251.83732514237585" stroke-miterlimit="10" stroke-dasharray=""/></g><g><path fill="none" stroke="#000000" paint-order="fill stroke markers" d=" M 244 314 L 244 352" stroke-miterlimit="10" stroke-dasharray=""/></g><g><path fill="#000000" stroke="none" paint-order="stroke fill markers" d=" M 239.790482243984 341.83732514237585 L 244 352 L 248.209517756016 341.83732514237585"/></g><g><path fill="none" stroke="#000000" paint-order="fill stroke markers" d=" M 239.790482243984 341.83732514237585 L 244 352 L 248.209517756016 341.83732514237585 L 239.790482243984 341.83732514237585" stroke-miterlimit="10" stroke-dasharray=""/></g><g><path fill="#ffffff" stroke="none" paint-order="stroke fill markers" d=" M 506 298 L 736.4765625 298 L 690.4765625 334 L 460 334 L 506 298"/></g><g><path fill="none" stroke="#000000" paint-order="fill stroke markers" d=" M 506 298 L 736.4765625 298 L 690.4765625 334 L 460 334 L 506 298 L 506 298" stroke-miterlimit="10" stroke-dasharray=""/></g><g><g><path fill="none" stroke="none"/><text fill="#000000" stroke="none" font-family="Arial" font-size="16px" font-style="normal" font-weight="normal" text-decoration="undefined" x="894.23828125" y="360" text-anchor="middle" dominant-baseline="central" transform="matrix(1 0 0 1 -296 -44)">ChellengeBlockAccountDTO</text></g></g><g><path fill="none" stroke="#000000" paint-order="fill stroke markers" d=" M 480 334 L 480 344 L 480 344 A 8 8 0 0 1 472 352 L 460 352" stroke-miterlimit="10" stroke-dasharray=""/></g><g><path fill="#000000" stroke="none" paint-order="stroke fill markers" d=" M 470.1626748576241 347.790482243984 L 460 352 L 470.1626748576241 356.209517756016"/></g><g><path fill="none" stroke="#000000" paint-order="fill stroke markers" d=" M 470.1626748576241 347.790482243984 L 460 352 L 470.1626748576241 356.209517756016 L 470.1626748576241 347.790482243984" stroke-miterlimit="10" stroke-dasharray=""/></g></g></svg>