<svg version="1.1" xmlns="http://www.w3.org/2000/svg" xmlns:xlink="http://www.w3.org/1999/xlink" width="667.484375" height="506"><defs/><g><g><rect fill="#ffffff" stroke="none" x="324" y="72" width="334" height="52" transform="matrix(1 0 0 1 -260 -44)"/></g><g><path fill="#ffffff" stroke="none" paint-order="stroke fill markers" d=" M 398 28 A 26 26 0 0 1 398 80"/></g><g><path fill="none" stroke="#000000" paint-order="fill stroke markers" d=" M 64 28 L 64 80" stroke-miterlimit="10" stroke-dasharray=""/></g><g><path fill="none" stroke="#000000" paint-order="fill stroke markers" d=" M 64 28 L 398 28" stroke-miterlimit="10" stroke-dasharray=""/></g><g><path fill="none" stroke="#000000" paint-order="fill stroke markers" d=" M 64 80 L 398 80" stroke-miterlimit="10" stroke-dasharray=""/></g><g><path fill="none" stroke="#000000" paint-order="fill stroke markers" d=" M 398 28 A 26 26 0 0 1 398 80" stroke-miterlimit="10" stroke-dasharray=""/></g><g><g><path fill="none" stroke="none"/><text fill="#000000" stroke="none" font-family="Arial" font-size="16px" font-style="normal" font-weight="normal" text-decoration="undefined" x="469" y="90" text-anchor="middle" dominant-baseline="central" transform="matrix(1 0 0 1 -260 -44)">POST</text><text fill="#000000" stroke="none" font-family="Arial" font-size="16px" font-style="normal" font-weight="normal" text-decoration="undefined" x="469" y="106" text-anchor="middle" dominant-baseline="central" transform="matrix(1 0 0 1 -260 -44)">/challenges/{challengeId}/admin</text></g></g><g><path fill="#ffffff" stroke="#000000" paint-order="fill stroke markers" d=" M 514 44 L 537 10 L 634.484375 10 Q 657.484375 10 657.484375 44 Q 657.484375 78 634.484375 78 L 537 78 L 514 44 Z" stroke-miterlimit="10" stroke-dasharray=""/></g><g><g><path fill="none" stroke="none"/><text fill="#000000" stroke="none" font-family="Arial" font-size="16px" font-style="normal" font-weight="normal" text-decoration="undefined" x="845.7421875" y="72" text-anchor="middle" dominant-baseline="central" transform="matrix(1 0 0 1 -260 -44)">Заголовки</text><text fill="#000000" stroke="none" font-family="Arial" font-size="16px" font-style="normal" font-weight="normal" text-decoration="undefined" x="845.7421875" y="88" text-anchor="middle" dominant-baseline="central" transform="matrix(1 0 0 1 -260 -44)">запроса</text><text fill="#000000" stroke="none" font-family="Arial" font-size="16px" font-style="normal" font-weight="normal" text-decoration="undefined" x="845.7421875" y="104" text-anchor="middle" dominant-baseline="central" transform="matrix(1 0 0 1 -260 -44)">(Авторизирован)</text></g></g><g><path fill="#ffffff" stroke="none" paint-order="stroke fill markers" d=" M 124 100 L 424 100 L 364 136 L 64 136 L 124 100"/></g><g><path fill="none" stroke="#000000" paint-order="fill stroke markers" d=" M 124 100 L 424 100 L 364 136 L 64 136 L 124 100 L 124 100" stroke-miterlimit="10" stroke-dasharray=""/></g><g><g><path fill="none" stroke="none"/><text fill="#000000" stroke="none" font-family="Arial" font-size="16px" font-style="normal" font-weight="normal" text-decoration="undefined" x="504" y="162" text-anchor="middle" dominant-baseline="central" transform="matrix(1 0 0 1 -260 -44)">PostChallengeAdminRequest</text></g></g><g><path fill="#ffffff" stroke="none" paint-order="stroke fill markers" d=" M 64 172 L 414.140625 172 Q 432.140625 172 432.140625 190 L 432.140625 190 Q 432.140625 208 414.140625 208 L 64 208 Q 46 208 46 190 L 46 190 Q 46 172 64 172 Z"/></g><g><path fill="none" stroke="#000000" paint-order="fill stroke markers" d=" M 64 172 L 414.140625 172 Q 432.140625 172 432.140625 190 L 432.140625 190 Q 432.140625 208 414.140625 208 L 64 208 Q 46 208 46 190 L 46 190 Q 46 172 64 172 Z" stroke-miterlimit="10" stroke-dasharray=""/></g><g><g><path fill="none" stroke="none"/><text fill="#000000" stroke="none" font-family="Arial" font-size="16px" font-style="normal" font-weight="normal" text-decoration="undefined" x="499.0703125" y="234" text-anchor="middle" dominant-baseline="central" transform="matrix(1 0 0 1 -260 -44)">Роль пользователя в челлендже "Создатель"</text></g></g><g><path fill="#ffffff" stroke="none" paint-order="stroke fill markers" d=" M 28 244 L 460.3984375 244 Q 478.3984375 244 478.3984375 262 L 478.3984375 262 Q 478.3984375 280 460.3984375 280 L 28 280 Q 10 280 10 262 L 10 262 Q 10 244 28 244 Z"/></g><g><path fill="none" stroke="#000000" paint-order="fill stroke markers" d=" M 28 244 L 460.3984375 244 Q 478.3984375 244 478.3984375 262 L 478.3984375 262 Q 478.3984375 280 460.3984375 280 L 28 280 Q 10 280 10 262 L 10 262 Q 10 244 28 244 Z" stroke-miterlimit="10" stroke-dasharray=""/></g><g><g><path fill="none" stroke="none"/><text fill="#000000" stroke="none" font-family="Arial" font-size="16px" font-style="normal" font-weight="normal" text-decoration="undefined" x="504.19921875" y="306" text-anchor="middle" dominant-baseline="central" transform="matrix(1 0 0 1 -260 -44)">Является ли указаный пользователь участником челленджа</text></g></g><g><path fill="none" stroke="#000000" paint-order="fill stroke markers" d=" M 244 80 L 244 100" stroke-miterlimit="10" stroke-dasharray=""/></g><g><path fill="#000000" stroke="none" paint-order="stroke fill markers" d=" M 239.790482243984 89.83732514237585 L 244 100 L 248.209517756016 89.83732514237585"/></g><g><path fill="none" stroke="#000000" paint-order="fill stroke markers" d=" M 239.790482243984 89.83732514237585 L 244 100 L 248.209517756016 89.83732514237585 L 239.790482243984 89.83732514237585" stroke-miterlimit="10" stroke-dasharray=""/></g><g><path fill="none" stroke="#000000" paint-order="fill stroke markers" d=" M 514 78 L 514 92 L 514 92 A 8 8 0 0 1 506 100 L 424 100" stroke-miterlimit="10" stroke-dasharray=""/></g><g><path fill="#000000" stroke="none" paint-order="stroke fill markers" d=" M 434.1626748576241 95.790482243984 L 424 100 L 434.1626748576241 104.209517756016"/></g><g><path fill="none" stroke="#000000" paint-order="fill stroke markers" d=" M 434.1626748576241 95.790482243984 L 424 100 L 434.1626748576241 104.209517756016 L 434.1626748576241 95.790482243984" stroke-miterlimit="10" stroke-dasharray=""/></g><g><path fill="none" stroke="#000000" paint-order="fill stroke markers" d=" M 243 136 L 243 172" stroke-miterlimit="10" stroke-dasharray=""/></g><g><path fill="#000000" stroke="none" paint-order="stroke fill markers" d=" M 238.790482243984 161.83732514237585 L 243 172 L 247.209517756016 161.83732514237585"/></g><g><path fill="none" stroke="#000000" paint-order="fill stroke markers" d=" M 238.790482243984 161.83732514237585 L 243 172 L 247.209517756016 161.83732514237585 L 238.790482243984 161.83732514237585" stroke-miterlimit="10" stroke-dasharray=""/></g><g><path fill="none" stroke="#000000" paint-order="fill stroke markers" d=" M 240 208 L 240 244" stroke-miterlimit="10" stroke-dasharray=""/></g><g><path fill="#000000" stroke="none" paint-order="stroke fill markers" d=" M 235.790482243984 233.83732514237585 L 240 244 L 244.209517756016 233.83732514237585"/></g><g><path fill="none" stroke="#000000" paint-order="fill stroke markers" d=" M 235.790482243984 233.83732514237585 L 240 244 L 244.209517756016 233.83732514237585 L 235.790482243984 233.83732514237585" stroke-miterlimit="10" stroke-dasharray=""/></g><g><rect fill="#ffffff" stroke="none" x="288" y="360" width="432" height="36" transform="matrix(1 0 0 1 -260 -44)"/></g><g><path fill="none" stroke="#000000" paint-order="fill stroke markers" d=" M 28 316 L 460 316 L 460 352 L 28 352 L 28 316 Z Z" stroke-miterlimit="10" stroke-dasharray=""/></g><g><g><path fill="none" stroke="none"/><text fill="#000000" stroke="none" font-family="Arial" font-size="16px" font-style="normal" font-weight="normal" text-decoration="undefined" x="504" y="378" text-anchor="middle" dominant-baseline="central" transform="matrix(1 0 0 1 -260 -44)">Назначить админом в выбраном челлендже</text></g></g><g><rect fill="#ffffff" stroke="none" x="288" y="414" width="432" height="52" transform="matrix(1 0 0 1 -260 -44)"/></g><g><path fill="none" stroke="#000000" paint-order="fill stroke markers" d=" M 28 370 L 460 370 L 460 422 L 28 422 L 28 370 Z Z" stroke-miterlimit="10" stroke-dasharray=""/></g><g><g><path fill="none" stroke="none"/><text fill="#000000" stroke="none" font-family="Arial" font-size="16px" font-style="normal" font-weight="normal" text-decoration="undefined" x="504" y="432" text-anchor="middle" dominant-baseline="central" transform="matrix(1 0 0 1 -260 -44)">Отправить уведомление указаному пользователю что</text><text fill="#000000" stroke="none" font-family="Arial" font-size="16px" font-style="normal" font-weight="normal" text-decoration="undefined" x="504" y="448" text-anchor="middle" dominant-baseline="central" transform="matrix(1 0 0 1 -260 -44)">его сделали админом в челлендже</text></g></g><g><path fill="#ffffff" stroke="none" paint-order="stroke fill markers" d=" M 100 460 L 460 460 L 388 496 L 28 496 L 100 460"/></g><g><path fill="none" stroke="#000000" paint-order="fill stroke markers" d=" M 100 460 L 460 460 L 388 496 L 28 496 L 100 460 L 100 460" stroke-miterlimit="10" stroke-dasharray=""/></g><g><g><path fill="none" stroke="none"/><text fill="#000000" stroke="none" font-family="Arial" font-size="16px" font-style="normal" font-weight="normal" text-decoration="undefined" x="504" y="522" text-anchor="middle" dominant-baseline="central" transform="matrix(1 0 0 1 -260 -44)">NoBodyResponse</text></g></g><g><path fill="none" stroke="#000000" paint-order="fill stroke markers" d=" M 244 280 L 244 316" stroke-miterlimit="10" stroke-dasharray=""/></g><g><path fill="#000000" stroke="none" paint-order="stroke fill markers" d=" M 239.790482243984 305.83732514237585 L 244 316 L 248.209517756016 305.83732514237585"/></g><g><path fill="none" stroke="#000000" paint-order="fill stroke markers" d=" M 239.790482243984 305.83732514237585 L 244 316 L 248.209517756016 305.83732514237585 L 239.790482243984 305.83732514237585" stroke-miterlimit="10" stroke-dasharray=""/></g><g><path fill="none" stroke="#000000" paint-order="fill stroke markers" d=" M 244 352 L 244 370" stroke-miterlimit="10" stroke-dasharray=""/></g><g><path fill="#000000" stroke="none" paint-order="stroke fill markers" d=" M 239.790482243984 359.83732514237585 L 244 370 L 248.209517756016 359.83732514237585"/></g><g><path fill="none" stroke="#000000" paint-order="fill stroke markers" d=" M 239.790482243984 359.83732514237585 L 244 370 L 248.209517756016 359.83732514237585 L 239.790482243984 359.83732514237585" stroke-miterlimit="10" stroke-dasharray=""/></g><g><path fill="none" stroke="#000000" paint-order="fill stroke markers" d=" M 244 422 L 244 460" stroke-miterlimit="10" stroke-dasharray=""/></g><g><path fill="#000000" stroke="none" paint-order="stroke fill markers" d=" M 239.790482243984 449.83732514237585 L 244 460 L 248.209517756016 449.83732514237585"/></g><g><path fill="none" stroke="#000000" paint-order="fill stroke markers" d=" M 239.790482243984 449.83732514237585 L 244 460 L 248.209517756016 449.83732514237585 L 239.790482243984 449.83732514237585" stroke-miterlimit="10" stroke-dasharray=""/></g></g></svg>