<svg version="1.1" xmlns="http://www.w3.org/2000/svg" xmlns:xlink="http://www.w3.org/1999/xlink" width="793.484375" height="488"><defs/><g><g><rect fill="#ffffff" stroke="none" x="360" y="90" width="463.3125" height="52" transform="matrix(1 0 0 1 -278 -80)"/></g><g><path fill="#ffffff" stroke="none" paint-order="stroke fill markers" d=" M 545.3125 10 A 26 26 0 0 1 545.3125 62"/></g><g><path fill="none" stroke="#000000" paint-order="fill stroke markers" d=" M 82 10 L 82 62" stroke-miterlimit="10" stroke-dasharray=""/></g><g><path fill="none" stroke="#000000" paint-order="fill stroke markers" d=" M 82 10 L 545.3125 10" stroke-miterlimit="10" stroke-dasharray=""/></g><g><path fill="none" stroke="#000000" paint-order="fill stroke markers" d=" M 82 62 L 545.3125 62" stroke-miterlimit="10" stroke-dasharray=""/></g><g><path fill="none" stroke="#000000" paint-order="fill stroke markers" d=" M 545.3125 10 A 26 26 0 0 1 545.3125 62" stroke-miterlimit="10" stroke-dasharray=""/></g><g><g><path fill="none" stroke="none"/><text fill="#000000" stroke="none" font-family="Arial" font-size="16px" font-style="normal" font-weight="normal" text-decoration="undefined" x="553.4921875" y="108" text-anchor="middle" dominant-baseline="central" transform="matrix(1 0 0 1 -278 -80)">GET /wallet/cards/transactions/{transactionId}</text></g></g><g><path fill="#ffffff" stroke="none" paint-order="stroke fill markers" d=" M 109 136 L 604 136 L 505 172 L 10 172 L 109 136"/></g><g><path fill="none" stroke="#000000" paint-order="fill stroke markers" d=" M 109 136 L 604 136 L 505 172 L 10 172 L 109 136 L 109 136" stroke-miterlimit="10" stroke-dasharray=""/></g><g><g><path fill="none" stroke="none"/><text fill="#000000" stroke="none" font-family="Arial" font-size="16px" font-style="normal" font-weight="normal" text-decoration="undefined" x="585" y="234" text-anchor="middle" dominant-baseline="central" transform="matrix(1 0 0 1 -278 -80)">GetWalletCardsTransactionRequest</text></g></g><g><path fill="#ffffff" stroke="none" paint-order="stroke fill markers" d=" M 136 442 L 496 442 L 424 478 L 64 478 L 136 442"/></g><g><path fill="none" stroke="#000000" paint-order="fill stroke markers" d=" M 136 442 L 496 442 L 424 478 L 64 478 L 136 442 L 136 442" stroke-miterlimit="10" stroke-dasharray=""/></g><g><g><path fill="none" stroke="none"/><text fill="#000000" stroke="none" font-family="Arial" font-size="16px" font-style="normal" font-weight="normal" text-decoration="undefined" x="558" y="540" text-anchor="middle" dominant-baseline="central" transform="matrix(1 0 0 1 -278 -80)">GetWalletCardsTransactionResponse</text></g></g><g><path fill="#ffffff" stroke="#000000" paint-order="fill stroke markers" d=" M 640 46 L 663 12 L 760.484375 12 Q 783.484375 12 783.484375 46 Q 783.484375 80 760.484375 80 L 663 80 L 640 46 Z" stroke-miterlimit="10" stroke-dasharray=""/></g><g><g><path fill="none" stroke="none"/><text fill="#000000" stroke="none" font-family="Arial" font-size="16px" font-style="normal" font-weight="normal" text-decoration="undefined" x="989.7421875" y="110" text-anchor="middle" dominant-baseline="central" transform="matrix(1 0 0 1 -278 -80)">Заголовки</text><text fill="#000000" stroke="none" font-family="Arial" font-size="16px" font-style="normal" font-weight="normal" text-decoration="undefined" x="989.7421875" y="126" text-anchor="middle" dominant-baseline="central" transform="matrix(1 0 0 1 -278 -80)">запроса</text><text fill="#000000" stroke="none" font-family="Arial" font-size="16px" font-style="normal" font-weight="normal" text-decoration="undefined" x="989.7421875" y="142" text-anchor="middle" dominant-baseline="central" transform="matrix(1 0 0 1 -278 -80)">(Авторизирован)</text></g></g><g><path fill="none" stroke="#000000" paint-order="fill stroke markers" d=" M 640 80 L 640 146 L 640 146 A 8 8 0 0 1 632 154 L 604 154" stroke-miterlimit="10" stroke-dasharray=""/></g><g><path fill="#000000" stroke="none" paint-order="stroke fill markers" d=" M 614.1626748576241 149.790482243984 L 604 154 L 614.1626748576241 158.209517756016"/></g><g><path fill="none" stroke="#000000" paint-order="fill stroke markers" d=" M 614.1626748576241 149.790482243984 L 604 154 L 614.1626748576241 158.209517756016 L 614.1626748576241 149.790482243984" stroke-miterlimit="10" stroke-dasharray=""/></g><g><path fill="none" stroke="#000000" paint-order="fill stroke markers" d=" M 322 62 L 322 136" stroke-miterlimit="10" stroke-dasharray=""/></g><g><path fill="#000000" stroke="none" paint-order="stroke fill markers" d=" M 317.790482243984 125.83732514237585 L 322 136 L 326.209517756016 125.83732514237585"/></g><g><path fill="none" stroke="#000000" paint-order="fill stroke markers" d=" M 317.790482243984 125.83732514237585 L 322 136 L 326.209517756016 125.83732514237585 L 317.790482243984 125.83732514237585" stroke-miterlimit="10" stroke-dasharray=""/></g><g><path fill="#ffffff" stroke="none" paint-order="stroke fill markers" d=" M 136 226 L 478 226 Q 496 226 496 244 L 496 244 Q 496 262 478 262 L 136 262 Q 118 262 118 244 L 118 244 Q 118 226 136 226 Z"/></g><g><path fill="none" stroke="#000000" paint-order="fill stroke markers" d=" M 136 226 L 478 226 Q 496 226 496 244 L 496 244 Q 496 262 478 262 L 136 262 Q 118 262 118 244 L 118 244 Q 118 226 136 226 Z" stroke-miterlimit="10" stroke-dasharray=""/></g><g><g><path fill="none" stroke="none"/><text fill="#000000" stroke="none" font-family="Arial" font-size="16px" font-style="normal" font-weight="normal" text-decoration="undefined" x="585" y="324" text-anchor="middle" dominant-baseline="central" transform="matrix(1 0 0 1 -278 -80)">Пользовать является владельцем транзакции</text></g></g><g><path fill="none" stroke="#000000" paint-order="fill stroke markers" d=" M 310 172 L 310 226" stroke-miterlimit="10" stroke-dasharray=""/></g><g><path fill="#000000" stroke="none" paint-order="stroke fill markers" d=" M 305.790482243984 215.83732514237585 L 310 226 L 314.209517756016 215.83732514237585"/></g><g><path fill="none" stroke="#000000" paint-order="fill stroke markers" d=" M 305.790482243984 215.83732514237585 L 310 226 L 314.209517756016 215.83732514237585 L 305.790482243984 215.83732514237585" stroke-miterlimit="10" stroke-dasharray=""/></g><g><rect fill="#ffffff" stroke="none" x="486" y="396" width="216" height="52" transform="matrix(1 0 0 1 -278 -80)"/></g><g><path fill="none" stroke="#000000" paint-order="fill stroke markers" d=" M 208 316 L 424 316 L 424 368 L 208 368 L 208 316 Z Z" stroke-miterlimit="10" stroke-dasharray=""/></g><g><g><path fill="none" stroke="none"/><text fill="#000000" stroke="none" font-family="Arial" font-size="16px" font-style="normal" font-weight="normal" text-decoration="undefined" x="594" y="414" text-anchor="middle" dominant-baseline="central" transform="matrix(1 0 0 1 -278 -80)">Извлечь статус</text><text fill="#000000" stroke="none" font-family="Arial" font-size="16px" font-style="normal" font-weight="normal" text-decoration="undefined" x="594" y="430" text-anchor="middle" dominant-baseline="central" transform="matrix(1 0 0 1 -278 -80)">транзакции из базы</text></g></g><g><path fill="none" stroke="#000000" paint-order="fill stroke markers" d=" M 306 262 L 306 316" stroke-miterlimit="10" stroke-dasharray=""/></g><g><path fill="#000000" stroke="none" paint-order="stroke fill markers" d=" M 301.790482243984 305.83732514237585 L 306 316 L 310.209517756016 305.83732514237585"/></g><g><path fill="none" stroke="#000000" paint-order="fill stroke markers" d=" M 301.790482243984 305.83732514237585 L 306 316 L 310.209517756016 305.83732514237585 L 301.790482243984 305.83732514237585" stroke-miterlimit="10" stroke-dasharray=""/></g><g><path fill="none" stroke="#000000" paint-order="fill stroke markers" d=" M 312 368 L 312 442" stroke-miterlimit="10" stroke-dasharray=""/></g><g><path fill="#000000" stroke="none" paint-order="stroke fill markers" d=" M 307.790482243984 431.83732514237585 L 312 442 L 316.209517756016 431.83732514237585"/></g><g><path fill="none" stroke="#000000" paint-order="fill stroke markers" d=" M 307.790482243984 431.83732514237585 L 312 442 L 316.209517756016 431.83732514237585 L 307.790482243984 431.83732514237585" stroke-miterlimit="10" stroke-dasharray=""/></g></g></svg>