<svg version="1.1" xmlns="http://www.w3.org/2000/svg" xmlns:xlink="http://www.w3.org/1999/xlink" width="434" height="628"><defs/><g><g><path fill="#ffffff" stroke="none" paint-order="stroke fill markers" d=" M 118 28 L 158 10 L 321.1953125 10 L 361.1953125 28 L 321.1953125 46 L 158 46 L 118 28"/></g><g><path fill="none" stroke="#000000" paint-order="fill stroke markers" d=" M 118 28 L 158 10 L 321.1953125 10 L 361.1953125 28 L 321.1953125 46 L 158 46 L 118 28 L 118 28" stroke-miterlimit="10" stroke-dasharray=""/></g><g><g><path fill="none" stroke="none"/><text fill="#000000" stroke="none" font-family="Arial" font-size="16px" font-style="normal" font-weight="normal" text-decoration="undefined" x="607.59765625" y="72" text-anchor="middle" dominant-baseline="central" transform="matrix(1 0 0 1 -368 -44)">Участник выполнил челлендж</text></g></g><g><rect fill="#ffffff" stroke="none" x="414" y="198" width="360" height="68" transform="matrix(1 0 0 1 -368 -44)"/></g><g><path fill="none" stroke="#000000" paint-order="fill stroke markers" d=" M 46 154 L 406 154 L 406 222 L 46 222 L 46 154 Z Z" stroke-miterlimit="10" stroke-dasharray=""/></g><g><g><path fill="none" stroke="none"/><text fill="#000000" stroke="none" font-family="Arial" font-size="16px" font-style="normal" font-weight="normal" text-decoration="undefined" x="594" y="216" text-anchor="middle" dominant-baseline="central" transform="matrix(1 0 0 1 -368 -44)">Извлечь все вызов из таблицы ожидания</text><text fill="#000000" stroke="none" font-family="Arial" font-size="16px" font-style="normal" font-weight="normal" text-decoration="undefined" x="594" y="232" text-anchor="middle" dominant-baseline="central" transform="matrix(1 0 0 1 -368 -44)">выполнения задания к этому участнику по</text><text fill="#000000" stroke="none" font-family="Arial" font-size="16px" font-style="normal" font-weight="normal" text-decoration="undefined" x="594" y="248" text-anchor="middle" dominant-baseline="central" transform="matrix(1 0 0 1 -368 -44)">указанному челленджу</text></g></g><g><path fill="#ffffff" stroke="none" paint-order="stroke fill markers" d=" M 79 82 L 424 82 L 355 118 L 10 118 L 79 82"/></g><g><path fill="none" stroke="#000000" paint-order="fill stroke markers" d=" M 79 82 L 424 82 L 355 118 L 10 118 L 79 82 L 79 82" stroke-miterlimit="10" stroke-dasharray=""/></g><g><g><path fill="none" stroke="none"/><text fill="#000000" stroke="none" font-family="Arial" font-size="16px" font-style="normal" font-weight="normal" text-decoration="undefined" x="585" y="144" text-anchor="middle" dominant-baseline="central" transform="matrix(1 0 0 1 -368 -44)">MemmberСompletedChallengeTriggerModel</text></g></g><g><path fill="none" stroke="#000000" paint-order="fill stroke markers" d=" M 203 46 L 203 82" stroke-miterlimit="10" stroke-dasharray=""/></g><g><path fill="#000000" stroke="none" paint-order="stroke fill markers" d=" M 198.790482243984 71.83732514237585 L 203 82 L 207.209517756016 71.83732514237585"/></g><g><path fill="none" stroke="#000000" paint-order="fill stroke markers" d=" M 198.790482243984 71.83732514237585 L 203 82 L 207.209517756016 71.83732514237585 L 198.790482243984 71.83732514237585" stroke-miterlimit="10" stroke-dasharray=""/></g><g><rect fill="#ffffff" stroke="none" x="414" y="288" width="360" height="36" transform="matrix(1 0 0 1 -368 -44)"/></g><g><path fill="none" stroke="#000000" paint-order="fill stroke markers" d=" M 46 244 L 406 244 L 406 280 L 46 280 L 46 244 Z Z" stroke-miterlimit="10" stroke-dasharray=""/></g><g><g><path fill="none" stroke="none"/><text fill="#000000" stroke="none" font-family="Arial" font-size="16px" font-style="normal" font-weight="normal" text-decoration="undefined" x="594" y="306" text-anchor="middle" dominant-baseline="central" transform="matrix(1 0 0 1 -368 -44)">Посчитать общую сумму коинов</text></g></g><g><rect fill="#ffffff" stroke="none" x="414" y="360" width="360" height="36" transform="matrix(1 0 0 1 -368 -44)"/></g><g><path fill="none" stroke="#000000" paint-order="fill stroke markers" d=" M 46 316 L 406 316 L 406 352 L 46 352 L 46 316 Z Z" stroke-miterlimit="10" stroke-dasharray=""/></g><g><g><path fill="none" stroke="none"/><text fill="#000000" stroke="none" font-family="Arial" font-size="16px" font-style="normal" font-weight="normal" text-decoration="undefined" x="594" y="378" text-anchor="middle" dominant-baseline="central" transform="matrix(1 0 0 1 -368 -44)">Пополнить баланс участника</text></g></g><g><rect fill="#ffffff" stroke="none" x="414" y="432" width="360" height="54" transform="matrix(1 0 0 1 -368 -44)"/></g><g><path fill="none" stroke="#000000" paint-order="fill stroke markers" d=" M 46 388 L 406 388 L 406 442 L 46 442 L 46 388 Z Z" stroke-miterlimit="10" stroke-dasharray=""/></g><g><g><path fill="none" stroke="none"/><text fill="#000000" stroke="none" font-family="Arial" font-size="16px" font-style="normal" font-weight="normal" text-decoration="undefined" x="594" y="450" text-anchor="middle" dominant-baseline="central" transform="matrix(1 0 0 1 -368 -44)">Добавить транзакцию участнику о получении</text><text fill="#000000" stroke="none" font-family="Arial" font-size="16px" font-style="normal" font-weight="normal" text-decoration="undefined" x="594" y="466" text-anchor="middle" dominant-baseline="central" transform="matrix(1 0 0 1 -368 -44)">коинов за вызов</text></g></g><g><rect fill="#ffffff" stroke="none" x="414" y="522" width="360" height="52" transform="matrix(1 0 0 1 -368 -44)"/></g><g><path fill="none" stroke="#000000" paint-order="fill stroke markers" d=" M 46 478 L 406 478 L 406 530 L 46 530 L 46 478 Z Z" stroke-miterlimit="10" stroke-dasharray=""/></g><g><g><path fill="none" stroke="none"/><text fill="#000000" stroke="none" font-family="Arial" font-size="16px" font-style="normal" font-weight="normal" text-decoration="undefined" x="594" y="540" text-anchor="middle" dominant-baseline="central" transform="matrix(1 0 0 1 -368 -44)">Удалить записи из таблицы ожидания</text><text fill="#000000" stroke="none" font-family="Arial" font-size="16px" font-style="normal" font-weight="normal" text-decoration="undefined" x="594" y="556" text-anchor="middle" dominant-baseline="central" transform="matrix(1 0 0 1 -368 -44)">выполнения задания</text></g></g><g><rect fill="#ffffff" stroke="none" x="414" y="594" width="360" height="68" transform="matrix(1 0 0 1 -368 -44)"/></g><g><path fill="none" stroke="#000000" paint-order="fill stroke markers" d=" M 46 550 L 406 550 L 406 618 L 46 618 L 46 550 Z Z" stroke-miterlimit="10" stroke-dasharray=""/></g><g><g><path fill="none" stroke="none"/><text fill="#000000" stroke="none" font-family="Arial" font-size="16px" font-style="normal" font-weight="normal" text-decoration="undefined" x="594" y="612" text-anchor="middle" dominant-baseline="central" transform="matrix(1 0 0 1 -368 -44)">Добавить запись в историю вызовов об</text><text fill="#000000" stroke="none" font-family="Arial" font-size="16px" font-style="normal" font-weight="normal" text-decoration="undefined" x="594" y="628" text-anchor="middle" dominant-baseline="central" transform="matrix(1 0 0 1 -368 -44)">успешном выполнении для участника</text></g></g></g></svg>