<svg version="1.1" xmlns="http://www.w3.org/2000/svg" xmlns:xlink="http://www.w3.org/1999/xlink" width="1046" height="756"><defs/><g><g><path fill="#C0C0C0" stroke="none" paint-order="stroke fill markers" d=" M 23 17 L 1037 17 Q 1043 17 1043 23 L 1043 515 Q 1043 521 1037 521 L 23 521 Q 17 521 17 515 L 17 23 Q 17 17 23 17 Z" fill-opacity="0.2"/></g><g><path fill="#ffffff" stroke="none" paint-order="stroke fill markers" d=" M 16 10 L 1030 10 Q 1036 10 1036 16 L 1036 508 Q 1036 514 1030 514 L 16 514 Q 10 514 10 508 L 10 16 Q 10 10 16 10 Z"/></g><g><path fill="none" stroke="#000000" paint-order="fill stroke markers" d=" M 16 10 L 1030 10 Q 1036 10 1036 16 L 1036 508 Q 1036 514 1030 514 L 16 514 Q 10 514 10 508 L 10 16 Q 10 10 16 10 Z" stroke-miterlimit="10" stroke-dasharray=""/></g><g><g><path fill="none" stroke="none"/><text fill="#000000" stroke="none" font-family="Arial" font-size="16px" font-style="normal" font-weight="bold" text-decoration="undefined" x="350" y="864" text-anchor="start" dominant-baseline="central" transform="matrix(1 0 0 1 -332 -368)">Api сервер</text></g></g><g><g><path fill="none" stroke="none"/></g></g><g><g><path fill="none" stroke="none"/></g></g><g><path fill="#C0C0C0" stroke="none" paint-order="stroke fill markers" d=" M 95 53 L 217.2265625 53 Q 223.2265625 53 223.2265625 59 L 223.2265625 139 Q 223.2265625 145 217.2265625 145 L 95 145 Q 89 145 89 139 L 89 59 Q 89 53 95 53 Z" fill-opacity="0.2"/></g><g><path fill="#d8f2ff" stroke="none" paint-order="stroke fill markers" d=" M 88 46 L 210.2265625 46 Q 216.2265625 46 216.2265625 52 L 216.2265625 132 Q 216.2265625 138 210.2265625 138 L 88 138 Q 82 138 82 132 L 82 52 Q 82 46 88 46 Z"/></g><g><path fill="none" stroke="#000000" paint-order="fill stroke markers" d=" M 88 46 L 210.2265625 46 Q 216.2265625 46 216.2265625 52 L 216.2265625 132 Q 216.2265625 138 210.2265625 138 L 88 138 Q 82 138 82 132 L 82 52 Q 82 46 88 46 Z" stroke-miterlimit="10" stroke-dasharray=""/></g><g><g><path fill="none" stroke="none"/><text fill="#000000" stroke="none" font-family="Arial" font-size="16px" font-style="normal" font-weight="bold" text-decoration="undefined" x="481.11328125" y="430" text-anchor="middle" dominant-baseline="central" transform="matrix(1 0 0 1 -332 -368)">Command</text><text fill="#000000" stroke="none" font-family="Arial" font-size="16px" font-style="normal" font-weight="bold" text-decoration="undefined" x="481.11328125" y="446" text-anchor="middle" dominant-baseline="central" transform="matrix(1 0 0 1 -332 -368)">action</text><text fill="#000000" stroke="none" font-family="Arial" font-size="16px" font-style="normal" font-weight="bold" text-decoration="undefined" x="481.11328125" y="462" text-anchor="middle" dominant-baseline="central" transform="matrix(1 0 0 1 -332 -368)">controller</text></g></g><g><g><path fill="none" stroke="none"/><text fill="#000000" stroke="none" font-family="Arial" font-size="16px" font-style="normal" font-weight="normal" text-decoration="undefined" x="481.11328125" y="480" text-anchor="middle" dominant-baseline="central" transform="matrix(1 0 0 1 -332 -368)">[Component]</text></g></g><g><g><path fill="none" stroke="none"/></g></g><g><path fill="#C0C0C0" stroke="none" paint-order="stroke fill markers" d=" M 293 53 L 415.2265625 53 Q 421.2265625 53 421.2265625 59 L 421.2265625 123 Q 421.2265625 129 415.2265625 129 L 293 129 Q 287 129 287 123 L 287 59 Q 287 53 293 53 Z" fill-opacity="0.2"/></g><g><path fill="#d8f2ff" stroke="none" paint-order="stroke fill markers" d=" M 286 46 L 408.2265625 46 Q 414.2265625 46 414.2265625 52 L 414.2265625 116 Q 414.2265625 122 408.2265625 122 L 286 122 Q 280 122 280 116 L 280 52 Q 280 46 286 46 Z"/></g><g><path fill="none" stroke="#000000" paint-order="fill stroke markers" d=" M 286 46 L 408.2265625 46 Q 414.2265625 46 414.2265625 52 L 414.2265625 116 Q 414.2265625 122 408.2265625 122 L 286 122 Q 280 122 280 116 L 280 52 Q 280 46 286 46 Z" stroke-miterlimit="10" stroke-dasharray=""/></g><g><g><path fill="none" stroke="none"/><text fill="#000000" stroke="none" font-family="Arial" font-size="16px" font-style="normal" font-weight="bold" text-decoration="undefined" x="679.11328125" y="430" text-anchor="middle" dominant-baseline="central" transform="matrix(1 0 0 1 -332 -368)">User Controller</text></g></g><g><g><path fill="none" stroke="none"/><text fill="#000000" stroke="none" font-family="Arial" font-size="16px" font-style="normal" font-weight="normal" text-decoration="undefined" x="679.11328125" y="448" text-anchor="middle" dominant-baseline="central" transform="matrix(1 0 0 1 -332 -368)">[Component]</text></g></g><g><g><path fill="none" stroke="none"/></g></g><g><path fill="#C0C0C0" stroke="none" paint-order="stroke fill markers" d=" M 509 53 L 631.2265625 53 Q 637.2265625 53 637.2265625 59 L 637.2265625 123 Q 637.2265625 129 631.2265625 129 L 509 129 Q 503 129 503 123 L 503 59 Q 503 53 509 53 Z" fill-opacity="0.2"/></g><g><path fill="#d8f2ff" stroke="none" paint-order="stroke fill markers" d=" M 502 46 L 624.2265625 46 Q 630.2265625 46 630.2265625 52 L 630.2265625 116 Q 630.2265625 122 624.2265625 122 L 502 122 Q 496 122 496 116 L 496 52 Q 496 46 502 46 Z"/></g><g><path fill="none" stroke="#000000" paint-order="fill stroke markers" d=" M 502 46 L 624.2265625 46 Q 630.2265625 46 630.2265625 52 L 630.2265625 116 Q 630.2265625 122 624.2265625 122 L 502 122 Q 496 122 496 116 L 496 52 Q 496 46 502 46 Z" stroke-miterlimit="10" stroke-dasharray=""/></g><g><g><path fill="none" stroke="none"/><text fill="#000000" stroke="none" font-family="Arial" font-size="16px" font-style="normal" font-weight="bold" text-decoration="undefined" x="895.11328125" y="430" text-anchor="middle" dominant-baseline="central" transform="matrix(1 0 0 1 -332 -368)">Community</text><text fill="#000000" stroke="none" font-family="Arial" font-size="16px" font-style="normal" font-weight="bold" text-decoration="undefined" x="895.11328125" y="446" text-anchor="middle" dominant-baseline="central" transform="matrix(1 0 0 1 -332 -368)">Controller</text></g></g><g><g><path fill="none" stroke="none"/><text fill="#000000" stroke="none" font-family="Arial" font-size="16px" font-style="normal" font-weight="normal" text-decoration="undefined" x="895.11328125" y="464" text-anchor="middle" dominant-baseline="central" transform="matrix(1 0 0 1 -332 -368)">[Component]</text></g></g><g><g><path fill="none" stroke="none"/></g></g><g><path fill="#C0C0C0" stroke="none" paint-order="stroke fill markers" d=" M 95 215 L 217.2265625 215 Q 223.2265625 215 223.2265625 221 L 223.2265625 301 Q 223.2265625 307 217.2265625 307 L 95 307 Q 89 307 89 301 L 89 221 Q 89 215 95 215 Z" fill-opacity="0.2"/></g><g><path fill="#d8f2ff" stroke="none" paint-order="stroke fill markers" d=" M 88 208 L 210.2265625 208 Q 216.2265625 208 216.2265625 214 L 216.2265625 294 Q 216.2265625 300 210.2265625 300 L 88 300 Q 82 300 82 294 L 82 214 Q 82 208 88 208 Z"/></g><g><path fill="none" stroke="#000000" paint-order="fill stroke markers" d=" M 88 208 L 210.2265625 208 Q 216.2265625 208 216.2265625 214 L 216.2265625 294 Q 216.2265625 300 210.2265625 300 L 88 300 Q 82 300 82 294 L 82 214 Q 82 208 88 208 Z" stroke-miterlimit="10" stroke-dasharray=""/></g><g><g><path fill="none" stroke="none"/><text fill="#000000" stroke="none" font-family="Arial" font-size="16px" font-style="normal" font-weight="bold" text-decoration="undefined" x="481.11328125" y="592" text-anchor="middle" dominant-baseline="central" transform="matrix(1 0 0 1 -332 -368)">Command</text><text fill="#000000" stroke="none" font-family="Arial" font-size="16px" font-style="normal" font-weight="bold" text-decoration="undefined" x="481.11328125" y="608" text-anchor="middle" dominant-baseline="central" transform="matrix(1 0 0 1 -332 -368)">Action</text><text fill="#000000" stroke="none" font-family="Arial" font-size="16px" font-style="normal" font-weight="bold" text-decoration="undefined" x="481.11328125" y="624" text-anchor="middle" dominant-baseline="central" transform="matrix(1 0 0 1 -332 -368)">Manager</text></g></g><g><g><path fill="none" stroke="none"/><text fill="#000000" stroke="none" font-family="Arial" font-size="16px" font-style="normal" font-weight="normal" text-decoration="undefined" x="481.11328125" y="642" text-anchor="middle" dominant-baseline="central" transform="matrix(1 0 0 1 -332 -368)">[Component]</text></g></g><g><g><path fill="none" stroke="none"/></g></g><g><path fill="#C0C0C0" stroke="none" paint-order="stroke fill markers" d=" M 95 377 L 217.2265625 377 Q 223.2265625 377 223.2265625 383 L 223.2265625 463 Q 223.2265625 469 217.2265625 469 L 95 469 Q 89 469 89 463 L 89 383 Q 89 377 95 377 Z" fill-opacity="0.2"/></g><g><path fill="#d8f2ff" stroke="none" paint-order="stroke fill markers" d=" M 88 370 L 210.2265625 370 Q 216.2265625 370 216.2265625 376 L 216.2265625 456 Q 216.2265625 462 210.2265625 462 L 88 462 Q 82 462 82 456 L 82 376 Q 82 370 88 370 Z"/></g><g><path fill="none" stroke="#000000" paint-order="fill stroke markers" d=" M 88 370 L 210.2265625 370 Q 216.2265625 370 216.2265625 376 L 216.2265625 456 Q 216.2265625 462 210.2265625 462 L 88 462 Q 82 462 82 456 L 82 376 Q 82 370 88 370 Z" stroke-miterlimit="10" stroke-dasharray=""/></g><g><g><path fill="none" stroke="none"/><text fill="#000000" stroke="none" font-family="Arial" font-size="16px" font-style="normal" font-weight="bold" text-decoration="undefined" x="481.11328125" y="754" text-anchor="middle" dominant-baseline="central" transform="matrix(1 0 0 1 -332 -368)">Command</text><text fill="#000000" stroke="none" font-family="Arial" font-size="16px" font-style="normal" font-weight="bold" text-decoration="undefined" x="481.11328125" y="770" text-anchor="middle" dominant-baseline="central" transform="matrix(1 0 0 1 -332 -368)">action</text><text fill="#000000" stroke="none" font-family="Arial" font-size="16px" font-style="normal" font-weight="bold" text-decoration="undefined" x="481.11328125" y="786" text-anchor="middle" dominant-baseline="central" transform="matrix(1 0 0 1 -332 -368)">repository</text></g></g><g><g><path fill="none" stroke="none"/><text fill="#000000" stroke="none" font-family="Arial" font-size="16px" font-style="normal" font-weight="normal" text-decoration="undefined" x="481.11328125" y="804" text-anchor="middle" dominant-baseline="central" transform="matrix(1 0 0 1 -332 -368)">[Component]</text></g></g><g><g><path fill="none" stroke="none"/></g></g><g><path fill="none" stroke="#000000" paint-order="fill stroke markers" d=" M 149 139 L 149 207" stroke-miterlimit="10" stroke-dasharray="3"/></g><g><path fill="#000000" stroke="none" paint-order="stroke fill markers" d=" M 144.790482243984 196.8373251423759 L 149 207 L 153.209517756016 196.8373251423759"/></g><g><path fill="none" stroke="#000000" paint-order="fill stroke markers" d=" M 144.790482243984 196.8373251423759 L 149 207 L 153.209517756016 196.8373251423759 L 144.790482243984 196.8373251423759" stroke-miterlimit="10" stroke-dasharray=""/></g><g><path fill="none" stroke="#000000" paint-order="fill stroke markers" d=" M 149 301 L 149 369" stroke-miterlimit="10" stroke-dasharray="3"/></g><g><path fill="#000000" stroke="none" paint-order="stroke fill markers" d=" M 144.790482243984 358.8373251423759 L 149 369 L 153.209517756016 358.8373251423759"/></g><g><path fill="none" stroke="#000000" paint-order="fill stroke markers" d=" M 144.790482243984 358.8373251423759 L 149 369 L 153.209517756016 358.8373251423759 L 144.790482243984 358.8373251423759" stroke-miterlimit="10" stroke-dasharray=""/></g><g><path fill="#C0C0C0" stroke="none" paint-order="stroke fill markers" d=" M 107 628 C 107 618.6111584 128.102076575 611 154.1328125 611 C 180.16354842500004 611 201.265625 618.6111584 201.265625 628 L 201.265625 736 C 201.265625 745.3888416 180.16354842500004 753 154.1328125 753 C 128.102076575 753 107 745.3888416 107 736 L 107 628 Z" fill-opacity="0.2"/></g><g><path fill="#a3e0ff" stroke="#000000" paint-order="fill stroke markers" d=" M 100 621 C 100 611.6111584 121.10207657500001 604 147.1328125 604 C 173.163548425 604 194.265625 611.6111584 194.265625 621 L 194.265625 729 C 194.265625 738.3888416 173.163548425 746 147.1328125 746 C 121.10207657500001 746 100 738.3888416 100 729 L 100 621 Z" stroke-miterlimit="10" stroke-dasharray=""/></g><g><path fill="none" stroke="#000000" paint-order="fill stroke markers" d=" M 100 621 C 100 630.3888416 121.10207657500001 638 147.1328125 638 C 173.163548425 638 194.265625 630.3888416 194.265625 621" stroke-miterlimit="10" stroke-dasharray=""/></g><g><g><path fill="none" stroke="none"/><text fill="#000000" stroke="none" font-family="Arial" font-size="16px" font-style="normal" font-weight="bold" text-decoration="undefined" x="479.1328125" y="1022" text-anchor="middle" dominant-baseline="central" transform="matrix(1 0 0 1 -332 -368)">База</text><text fill="#000000" stroke="none" font-family="Arial" font-size="16px" font-style="normal" font-weight="bold" text-decoration="undefined" x="479.1328125" y="1038" text-anchor="middle" dominant-baseline="central" transform="matrix(1 0 0 1 -332 -368)">данных</text><text fill="#000000" stroke="none" font-family="Arial" font-size="16px" font-style="normal" font-weight="bold" text-decoration="undefined" x="479.1328125" y="1054" text-anchor="middle" dominant-baseline="central" transform="matrix(1 0 0 1 -332 -368)">Main</text></g></g><g><g><path fill="none" stroke="none"/><text fill="#000000" stroke="none" font-family="Arial" font-size="16px" font-style="normal" font-weight="normal" text-decoration="undefined" x="479.1328125" y="1072" text-anchor="middle" dominant-baseline="central" transform="matrix(1 0 0 1 -332 -368)">[Container:</text><text fill="#000000" stroke="none" font-family="Arial" font-size="16px" font-style="normal" font-weight="normal" text-decoration="undefined" x="479.1328125" y="1088" text-anchor="middle" dominant-baseline="central" transform="matrix(1 0 0 1 -332 -368)">MsSQL]</text></g></g><g><g><path fill="none" stroke="none"/></g></g><g><path fill="none" stroke="#000000" paint-order="fill stroke markers" d=" M 149 463 L 148 603" stroke-miterlimit="10" stroke-dasharray="3"/></g><g><path fill="#000000" stroke="none" paint-order="stroke fill markers" d=" M 143.8631783085009 592.8075171674051 L 148 603 L 152.28199905743674 592.8676516013261"/></g><g><path fill="none" stroke="#000000" paint-order="fill stroke markers" d=" M 143.8631783085009 592.8075171674051 L 148 603 L 152.28199905743674 592.8676516013261 L 143.8631783085009 592.8075171674051" stroke-miterlimit="10" stroke-dasharray=""/></g><g><path fill="#C0C0C0" stroke="none" paint-order="stroke fill markers" d=" M 725 53 L 847.2265625 53 Q 853.2265625 53 853.2265625 59 L 853.2265625 107 Q 853.2265625 113 847.2265625 113 L 725 113 Q 719 113 719 107 L 719 59 Q 719 53 725 53 Z" fill-opacity="0.2"/></g><g><path fill="#d8f2ff" stroke="none" paint-order="stroke fill markers" d=" M 718 46 L 840.2265625 46 Q 846.2265625 46 846.2265625 52 L 846.2265625 100 Q 846.2265625 106 840.2265625 106 L 718 106 Q 712 106 712 100 L 712 52 Q 712 46 718 46 Z"/></g><g><path fill="none" stroke="#000000" paint-order="fill stroke markers" d=" M 718 46 L 840.2265625 46 Q 846.2265625 46 846.2265625 52 L 846.2265625 100 Q 846.2265625 106 840.2265625 106 L 718 106 Q 712 106 712 100 L 712 52 Q 712 46 718 46 Z" stroke-miterlimit="10" stroke-dasharray=""/></g><g><g><path fill="none" stroke="none"/><text fill="#000000" stroke="none" font-family="Arial" font-size="16px" font-style="normal" font-weight="bold" text-decoration="undefined" x="1111.11328125" y="430" text-anchor="middle" dominant-baseline="central" transform="matrix(1 0 0 1 -332 -368)">File Controller</text></g></g><g><g><path fill="none" stroke="none"/><text fill="#000000" stroke="none" font-family="Arial" font-size="16px" font-style="normal" font-weight="normal" text-decoration="undefined" x="1111.11328125" y="448" text-anchor="middle" dominant-baseline="central" transform="matrix(1 0 0 1 -332 -368)">[Component]</text></g></g><g><g><path fill="none" stroke="none"/></g></g><g><path fill="#C0C0C0" stroke="none" paint-order="stroke fill markers" d=" M 725 197 L 847.2265625 197 Q 853.2265625 197 853.2265625 203 L 853.2265625 251 Q 853.2265625 257 847.2265625 257 L 725 257 Q 719 257 719 251 L 719 203 Q 719 197 725 197 Z" fill-opacity="0.2"/></g><g><path fill="#d8f2ff" stroke="none" paint-order="stroke fill markers" d=" M 718 190 L 840.2265625 190 Q 846.2265625 190 846.2265625 196 L 846.2265625 244 Q 846.2265625 250 840.2265625 250 L 718 250 Q 712 250 712 244 L 712 196 Q 712 190 718 190 Z"/></g><g><path fill="none" stroke="#000000" paint-order="fill stroke markers" d=" M 718 190 L 840.2265625 190 Q 846.2265625 190 846.2265625 196 L 846.2265625 244 Q 846.2265625 250 840.2265625 250 L 718 250 Q 712 250 712 244 L 712 196 Q 712 190 718 190 Z" stroke-miterlimit="10" stroke-dasharray=""/></g><g><g><path fill="none" stroke="none"/><text fill="#000000" stroke="none" font-family="Arial" font-size="16px" font-style="normal" font-weight="bold" text-decoration="undefined" x="1111.11328125" y="574" text-anchor="middle" dominant-baseline="central" transform="matrix(1 0 0 1 -332 -368)">File Manager</text></g></g><g><g><path fill="none" stroke="none"/><text fill="#000000" stroke="none" font-family="Arial" font-size="16px" font-style="normal" font-weight="normal" text-decoration="undefined" x="1111.11328125" y="592" text-anchor="middle" dominant-baseline="central" transform="matrix(1 0 0 1 -332 -368)">[Component]</text></g></g><g><g><path fill="none" stroke="none"/></g></g><g><path fill="#C0C0C0" stroke="none" paint-order="stroke fill markers" d=" M 725 323 L 847.2265625 323 Q 853.2265625 323 853.2265625 329 L 853.2265625 377 Q 853.2265625 383 847.2265625 383 L 725 383 Q 719 383 719 377 L 719 329 Q 719 323 725 323 Z" fill-opacity="0.2"/></g><g><path fill="#d8f2ff" stroke="none" paint-order="stroke fill markers" d=" M 718 316 L 840.2265625 316 Q 846.2265625 316 846.2265625 322 L 846.2265625 370 Q 846.2265625 376 840.2265625 376 L 718 376 Q 712 376 712 370 L 712 322 Q 712 316 718 316 Z"/></g><g><path fill="none" stroke="#000000" paint-order="fill stroke markers" d=" M 718 316 L 840.2265625 316 Q 846.2265625 316 846.2265625 322 L 846.2265625 370 Q 846.2265625 376 840.2265625 376 L 718 376 Q 712 376 712 370 L 712 322 Q 712 316 718 316 Z" stroke-miterlimit="10" stroke-dasharray=""/></g><g><g><path fill="none" stroke="none"/><text fill="#000000" stroke="none" font-family="Arial" font-size="16px" font-style="normal" font-weight="bold" text-decoration="undefined" x="1111.11328125" y="700" text-anchor="middle" dominant-baseline="central" transform="matrix(1 0 0 1 -332 -368)">File Repository</text></g></g><g><g><path fill="none" stroke="none"/><text fill="#000000" stroke="none" font-family="Arial" font-size="16px" font-style="normal" font-weight="normal" text-decoration="undefined" x="1111.11328125" y="718" text-anchor="middle" dominant-baseline="central" transform="matrix(1 0 0 1 -332 -368)">[Component]</text></g></g><g><g><path fill="none" stroke="none"/></g></g><g><path fill="none" stroke="#000000" paint-order="fill stroke markers" d=" M 779 107 L 779 189" stroke-miterlimit="10" stroke-dasharray="3"/></g><g><path fill="#000000" stroke="none" paint-order="stroke fill markers" d=" M 774.7904822439841 178.8373251423759 L 779 189 L 783.2095177560159 178.8373251423759"/></g><g><path fill="none" stroke="#000000" paint-order="fill stroke markers" d=" M 774.7904822439841 178.8373251423759 L 779 189 L 783.2095177560159 178.8373251423759 L 774.7904822439841 178.8373251423759" stroke-miterlimit="10" stroke-dasharray=""/></g><g><path fill="none" stroke="#000000" paint-order="fill stroke markers" d=" M 779 251 L 779 315" stroke-miterlimit="10" stroke-dasharray="3"/></g><g><path fill="#000000" stroke="none" paint-order="stroke fill markers" d=" M 774.7904822439841 304.8373251423759 L 779 315 L 783.2095177560159 304.8373251423759"/></g><g><path fill="none" stroke="#000000" paint-order="fill stroke markers" d=" M 774.7904822439841 304.8373251423759 L 779 315 L 783.2095177560159 304.8373251423759 L 774.7904822439841 304.8373251423759" stroke-miterlimit="10" stroke-dasharray=""/></g><g><path fill="#C0C0C0" stroke="none" paint-order="stroke fill markers" d=" M 743 629 L 829.7109375 629 Q 835.7109375 629 835.7109375 635 L 835.7109375 723 Q 835.7109375 729 829.7109375 729 L 743 729 Q 737 729 737 723 L 737 635 Q 737 629 743 629 Z" fill-opacity="0.2"/></g><g><path fill="#a3e0ff" stroke="none" paint-order="stroke fill markers" d=" M 736 622 L 822.7109375 622 Q 828.7109375 622 828.7109375 628 L 828.7109375 716 Q 828.7109375 722 822.7109375 722 L 736 722 Q 730 722 730 716 L 730 628 Q 730 622 736 622 Z"/></g><g><path fill="none" stroke="#000000" paint-order="fill stroke markers" d=" M 736 622 L 822.7109375 622 Q 828.7109375 622 828.7109375 628 L 828.7109375 716 Q 828.7109375 722 822.7109375 722 L 736 722 Q 730 722 730 716 L 730 628 Q 730 622 736 622 Z" stroke-miterlimit="10" stroke-dasharray=""/></g><g><g><path fill="none" stroke="none"/><text fill="#000000" stroke="none" font-family="Arial" font-size="16px" font-style="normal" font-weight="bold" text-decoration="undefined" x="1111.35546875" y="1006" text-anchor="middle" dominant-baseline="central" transform="matrix(1 0 0 1 -332 -368)">Blob</text></g></g><g><g><path fill="none" stroke="none"/><text fill="#000000" stroke="none" font-family="Arial" font-size="16px" font-style="normal" font-weight="normal" text-decoration="undefined" x="1111.35546875" y="1024" text-anchor="middle" dominant-baseline="central" transform="matrix(1 0 0 1 -332 -368)">[Container:</text><text fill="#000000" stroke="none" font-family="Arial" font-size="16px" font-style="normal" font-weight="normal" text-decoration="undefined" x="1111.35546875" y="1040" text-anchor="middle" dominant-baseline="central" transform="matrix(1 0 0 1 -332 -368)">Azure.Blob]</text></g></g><g><g><path fill="none" stroke="none"/></g></g><g><path fill="none" stroke="#000000" paint-order="fill stroke markers" d=" M 779 377 L 779 621" stroke-miterlimit="10" stroke-dasharray="3"/></g><g><path fill="#000000" stroke="none" paint-order="stroke fill markers" d=" M 774.7904822439841 610.8373251423759 L 779 621 L 783.2095177560159 610.8373251423759"/></g><g><path fill="none" stroke="#000000" paint-order="fill stroke markers" d=" M 774.7904822439841 610.8373251423759 L 779 621 L 783.2095177560159 610.8373251423759 L 774.7904822439841 610.8373251423759" stroke-miterlimit="10" stroke-dasharray=""/></g><g><path fill="none" stroke="#000000" paint-order="fill stroke markers" d=" M 719 377 L 195 650" stroke-miterlimit="10" stroke-dasharray="3"/></g><g><path fill="#000000" stroke="none" paint-order="stroke fill markers" d=" M 202.0678440165491 641.5711459285541 L 195 650 L 205.95782030402188 649.0376205609194"/></g><g><path fill="none" stroke="#000000" paint-order="fill stroke markers" d=" M 202.0678440165491 641.5711459285541 L 195 650 L 205.95782030402188 649.0376205609194 L 202.0678440165491 641.5711459285541" stroke-miterlimit="10" stroke-dasharray=""/></g></g></svg>