<svg version="1.1" xmlns="http://www.w3.org/2000/svg" xmlns:xlink="http://www.w3.org/1999/xlink" width="822" height="1238"><defs/><g><g><path fill="#ffffff" stroke="none" paint-order="stroke fill markers" d=" M 164 37 L 232 10 L 505.2734375 10 L 573.2734375 37 L 505.2734375 64 L 232 64 L 164 37"/></g><g><path fill="none" stroke="#000000" paint-order="fill stroke markers" d=" M 164 37 L 232 10 L 505.2734375 10 L 573.2734375 37 L 505.2734375 64 L 232 64 L 164 37 L 164 37" stroke-miterlimit="10" stroke-dasharray=""/></g><g><g><path fill="none" stroke="none"/><text fill="#000000" stroke="none" font-family="Arial" font-size="16px" font-style="normal" font-weight="normal" text-decoration="undefined" x="582.63671875" y="90" text-anchor="middle" dominant-baseline="central" transform="matrix(1 0 0 1 -214 -62)">Обучающие материалы в челендже были изменены</text></g></g><g><path fill="#ffffff" stroke="none" paint-order="stroke fill markers" d=" M 218 118 L 578 118 L 506 154 L 146 154 L 218 118"/></g><g><path fill="none" stroke="#000000" paint-order="fill stroke markers" d=" M 218 118 L 578 118 L 506 154 L 146 154 L 218 118 L 218 118" stroke-miterlimit="10" stroke-dasharray=""/></g><g><g><path fill="none" stroke="none"/><text fill="#000000" stroke="none" font-family="Arial" font-size="16px" font-style="normal" font-weight="normal" text-decoration="undefined" x="576" y="198" text-anchor="middle" dominant-baseline="central" transform="matrix(1 0 0 1 -214 -62)">TemplateTutorialChangedTriggerModel</text></g></g><g><rect fill="#ffffff" stroke="none" x="378" y="270" width="396" height="52" transform="matrix(1 0 0 1 -214 -62)"/></g><g><path fill="none" stroke="#000000" paint-order="fill stroke markers" d=" M 164 208 L 560 208 L 560 260 L 164 260 L 164 208 Z Z" stroke-miterlimit="10" stroke-dasharray=""/></g><g><g><path fill="none" stroke="none"/><text fill="#000000" stroke="none" font-family="Arial" font-size="16px" font-style="normal" font-weight="normal" text-decoration="undefined" x="576" y="288" text-anchor="middle" dominant-baseline="central" transform="matrix(1 0 0 1 -214 -62)">Поиск всех активных челленджей которые были</text><text fill="#000000" stroke="none" font-family="Arial" font-size="16px" font-style="normal" font-weight="normal" text-decoration="undefined" x="576" y="304" text-anchor="middle" dominant-baseline="central" transform="matrix(1 0 0 1 -214 -62)">запущенны из этого шаблона</text></g></g><g><rect fill="#ffffff" stroke="none" x="378" y="378" width="396" height="54" transform="matrix(1 0 0 1 -214 -62)"/></g><g><path fill="none" stroke="#000000" paint-order="fill stroke markers" d=" M 164 316 L 560 316 L 560 370 L 164 370 L 164 316 Z Z" stroke-miterlimit="10" stroke-dasharray=""/></g><g><g><path fill="none" stroke="none"/><text fill="#000000" stroke="none" font-family="Arial" font-size="16px" font-style="normal" font-weight="normal" text-decoration="undefined" x="576" y="396" text-anchor="middle" dominant-baseline="central" transform="matrix(1 0 0 1 -214 -62)">По каждому челлендже извлекаем участников</text></g></g><g><rect fill="#ffffff" stroke="none" x="378" y="486" width="396" height="54" transform="matrix(1 0 0 1 -214 -62)"/></g><g><path fill="none" stroke="#000000" paint-order="fill stroke markers" d=" M 164 424 L 560 424 L 560 478 L 164 478 L 164 424 Z Z" stroke-miterlimit="10" stroke-dasharray=""/></g><g><g><path fill="none" stroke="none"/><text fill="#000000" stroke="none" font-family="Arial" font-size="16px" font-style="normal" font-weight="normal" text-decoration="undefined" x="576" y="504" text-anchor="middle" dominant-baseline="central" transform="matrix(1 0 0 1 -214 -62)">Проходим по каждому участнику</text></g></g><g><path fill="#ffffff" stroke="none" paint-order="stroke fill markers" d=" M 254 682 L 353.046875 586 L 452.09375 682 L 353.046875 778 L 254 682"/></g><g><path fill="none" stroke="#000000" paint-order="fill stroke markers" d=" M 254 682 L 353.046875 586 L 452.09375 682 L 353.046875 778 L 254 682 L 254 682" stroke-miterlimit="10" stroke-dasharray=""/></g><g><g><path fill="none" stroke="none"/><text fill="#000000" stroke="none" font-family="Arial" font-size="16px" font-style="normal" font-weight="normal" text-decoration="undefined" x="567.046875" y="704" text-anchor="middle" dominant-baseline="central" transform="matrix(1 0 0 1 -214 -62)">Включено в</text><text fill="#000000" stroke="none" font-family="Arial" font-size="16px" font-style="normal" font-weight="normal" text-decoration="undefined" x="567.046875" y="720" text-anchor="middle" dominant-baseline="central" transform="matrix(1 0 0 1 -214 -62)">настройка</text><text fill="#000000" stroke="none" font-family="Arial" font-size="16px" font-style="normal" font-weight="normal" text-decoration="undefined" x="567.046875" y="736" text-anchor="middle" dominant-baseline="central" transform="matrix(1 0 0 1 -214 -62)">получения</text><text fill="#000000" stroke="none" font-family="Arial" font-size="16px" font-style="normal" font-weight="normal" text-decoration="undefined" x="567.046875" y="752" text-anchor="middle" dominant-baseline="central" transform="matrix(1 0 0 1 -214 -62)">уведомлений</text><text fill="#000000" stroke="none" font-family="Arial" font-size="16px" font-style="normal" font-weight="normal" text-decoration="undefined" x="567.046875" y="768" text-anchor="middle" dominant-baseline="central" transform="matrix(1 0 0 1 -214 -62)">из</text><text fill="#000000" stroke="none" font-family="Arial" font-size="16px" font-style="normal" font-weight="normal" text-decoration="undefined" x="567.046875" y="784" text-anchor="middle" dominant-baseline="central" transform="matrix(1 0 0 1 -214 -62)">челленджа</text></g></g><g><rect fill="#ffffff" stroke="none" x="720" y="810" width="306" height="52" transform="matrix(1 0 0 1 -214 -62)"/></g><g><path fill="none" stroke="#000000" paint-order="fill stroke markers" d=" M 506 748 L 812 748 L 812 800 L 506 800 L 506 748 Z Z" stroke-miterlimit="10" stroke-dasharray=""/></g><g><g><path fill="none" stroke="none"/><text fill="#000000" stroke="none" font-family="Arial" font-size="16px" font-style="normal" font-weight="normal" text-decoration="undefined" x="873" y="828" text-anchor="middle" dominant-baseline="central" transform="matrix(1 0 0 1 -214 -62)">Отправить уведомление</text><text fill="#000000" stroke="none" font-family="Arial" font-size="16px" font-style="normal" font-weight="normal" text-decoration="undefined" x="873" y="844" text-anchor="middle" dominant-baseline="central" transform="matrix(1 0 0 1 -214 -62)">пользователю</text></g></g><g><path fill="#ffffff" stroke="none" paint-order="stroke fill markers" d=" M 506 568 L 801 568 L 811 578 L 811 627 L 506 627 L 506 568"/></g><g><path fill="none" stroke="#000000" paint-order="fill stroke markers" d=" M 506 568 L 801 568 L 811 578 L 811 627 L 506 627 L 506 568 L 506 568" stroke-miterlimit="10" stroke-dasharray=""/></g><g><path fill="none" stroke="#000000" paint-order="fill stroke markers" d=" M 801 568 L 801 578 L 811 578 L 801 568" stroke-miterlimit="10" stroke-dasharray=""/></g><g><g><path fill="none" stroke="none"/><text fill="#000000" stroke="none" font-family="Arial" font-size="16px" font-style="normal" font-weight="normal" text-decoration="undefined" x="725" y="635" text-anchor="start" dominant-baseline="text-before-edge" transform="matrix(1 0 0 1 -214 -62)">Будут ли UI индикатор что есть</text><text fill="#000000" stroke="none" font-family="Arial" font-size="16px" font-style="normal" font-weight="normal" text-decoration="undefined" x="725" y="651" text-anchor="start" dominant-baseline="text-before-edge" transform="matrix(1 0 0 1 -214 -62)">обновления? (например красный круг</text><text fill="#000000" stroke="none" font-family="Arial" font-size="16px" font-style="normal" font-weight="normal" text-decoration="undefined" x="725" y="667" text-anchor="start" dominant-baseline="text-before-edge" transform="matrix(1 0 0 1 -214 -62)">возле настроек челленджа)</text></g></g><g><path fill="#ffffff" stroke="none" paint-order="stroke fill markers" d=" M 218 942 L 353 910 L 488 942 L 353 974 L 218 942"/></g><g><path fill="none" stroke="#000000" paint-order="fill stroke markers" d=" M 218 942 L 353 910 L 488 942 L 353 974 L 218 942 L 218 942" stroke-miterlimit="10" stroke-dasharray=""/></g><g><g><path fill="none" stroke="none"/><text fill="#000000" stroke="none" font-family="Arial" font-size="16px" font-style="normal" font-weight="normal" text-decoration="undefined" x="567" y="996" text-anchor="middle" dominant-baseline="central" transform="matrix(1 0 0 1 -214 -62)">Участники</text><text fill="#000000" stroke="none" font-family="Arial" font-size="16px" font-style="normal" font-weight="normal" text-decoration="undefined" x="567" y="1012" text-anchor="middle" dominant-baseline="central" transform="matrix(1 0 0 1 -214 -62)">закончились</text></g></g><g><path fill="#ffffff" stroke="none" paint-order="stroke fill markers" d=" M 200 1050 L 353 1018 L 506 1050 L 353 1082 L 200 1050"/></g><g><path fill="none" stroke="#000000" paint-order="fill stroke markers" d=" M 200 1050 L 353 1018 L 506 1050 L 353 1082 L 200 1050 L 200 1050" stroke-miterlimit="10" stroke-dasharray=""/></g><g><g><path fill="none" stroke="none"/><text fill="#000000" stroke="none" font-family="Arial" font-size="16px" font-style="normal" font-weight="normal" text-decoration="undefined" x="567" y="1104" text-anchor="middle" dominant-baseline="central" transform="matrix(1 0 0 1 -214 -62)">Челленджи</text><text fill="#000000" stroke="none" font-family="Arial" font-size="16px" font-style="normal" font-weight="normal" text-decoration="undefined" x="567" y="1120" text-anchor="middle" dominant-baseline="central" transform="matrix(1 0 0 1 -214 -62)">закончились</text></g></g><g><path fill="none" stroke="#000000" paint-order="fill stroke markers" d=" M 353 778 L 353 910" stroke-miterlimit="10" stroke-dasharray=""/></g><g><path fill="#000000" stroke="none" paint-order="stroke fill markers" d=" M 348.790482243984 899.8373251423759 L 353 910 L 357.209517756016 899.8373251423759"/></g><g><path fill="none" stroke="#000000" paint-order="fill stroke markers" d=" M 348.790482243984 899.8373251423759 L 353 910 L 357.209517756016 899.8373251423759 L 348.790482243984 899.8373251423759" stroke-miterlimit="10" stroke-dasharray=""/></g><g><rect fill="#ffffff" stroke="none" x="568" y="897" width="27.25" height="16" transform="matrix(1 0 0 1 -214 -62)"/></g><g><g><path fill="none" stroke="none"/><text fill="#000000" stroke="none" font-family="Arial" font-size="16px" font-style="normal" font-weight="normal" text-decoration="undefined" x="581.625" y="905" text-anchor="middle" dominant-baseline="central" transform="matrix(1 0 0 1 -214 -62)">Нет</text></g></g><g><path fill="none" stroke="#000000" paint-order="fill stroke markers" d=" M 353 974 L 353 1018" stroke-miterlimit="10" stroke-dasharray=""/></g><g><path fill="#000000" stroke="none" paint-order="stroke fill markers" d=" M 348.790482243984 1007.8373251423759 L 353 1018 L 357.209517756016 1007.8373251423759"/></g><g><path fill="none" stroke="#000000" paint-order="fill stroke markers" d=" M 348.790482243984 1007.8373251423759 L 353 1018 L 357.209517756016 1007.8373251423759 L 348.790482243984 1007.8373251423759" stroke-miterlimit="10" stroke-dasharray=""/></g><g><rect fill="#ffffff" stroke="none" x="572" y="1049" width="19.734375" height="16" transform="matrix(1 0 0 1 -214 -62)"/></g><g><g><path fill="none" stroke="none"/><text fill="#000000" stroke="none" font-family="Arial" font-size="16px" font-style="normal" font-weight="normal" text-decoration="undefined" x="581.8671875" y="1057" text-anchor="middle" dominant-baseline="central" transform="matrix(1 0 0 1 -214 -62)">Да</text></g></g><g><path fill="none" stroke="#000000" paint-order="fill stroke markers" d=" M 452 748 L 506 748" stroke-miterlimit="10" stroke-dasharray=""/></g><g><path fill="#000000" stroke="none" paint-order="stroke fill markers" d=" M 495.8373251423759 752.209517756016 L 506 748 L 495.8373251423758 743.790482243984"/></g><g><path fill="none" stroke="#000000" paint-order="fill stroke markers" d=" M 495.8373251423759 752.209517756016 L 506 748 L 495.8373251423758 743.790482243984 L 495.8373251423759 752.209517756016" stroke-miterlimit="10" stroke-dasharray=""/></g><g><rect fill="#ffffff" stroke="none" x="684" y="787" width="19.734375" height="16" transform="matrix(1 0 0 1 -214 -62)"/></g><g><g><path fill="none" stroke="none"/><text fill="#000000" stroke="none" font-family="Arial" font-size="16px" font-style="normal" font-weight="normal" text-decoration="undefined" x="693.8671875" y="795" text-anchor="middle" dominant-baseline="central" transform="matrix(1 0 0 1 -214 -62)">Да</text></g></g><g><path fill="none" stroke="#000000" paint-order="fill stroke markers" d=" M 612 800 L 612 902 L 612 902 A 8 8 0 0 1 604 910 L 488 910" stroke-miterlimit="10" stroke-dasharray=""/></g><g><path fill="#000000" stroke="none" paint-order="stroke fill markers" d=" M 498.1626748576241 905.790482243984 L 488 910 L 498.1626748576241 914.209517756016"/></g><g><path fill="none" stroke="#000000" paint-order="fill stroke markers" d=" M 498.1626748576241 905.790482243984 L 488 910 L 498.1626748576241 914.209517756016 L 498.1626748576241 905.790482243984" stroke-miterlimit="10" stroke-dasharray=""/></g><g><path fill="none" stroke="#000000" paint-order="fill stroke markers" d=" M 218 946 L 100 946 L 100 946 A 8 8 0 0 1 92 938 L 92 486 L 92 486 A 8 8 0 0 1 100 478 L 164 478" stroke-miterlimit="10" stroke-dasharray=""/></g><g><path fill="#000000" stroke="none" paint-order="stroke fill markers" d=" M 153.83732514237585 482.209517756016 L 164 478 L 153.83732514237585 473.790482243984"/></g><g><path fill="none" stroke="#000000" paint-order="fill stroke markers" d=" M 153.83732514237585 482.209517756016 L 164 478 L 153.83732514237585 473.790482243984 L 153.83732514237585 482.209517756016" stroke-miterlimit="10" stroke-dasharray=""/></g><g><rect fill="#ffffff" stroke="none" x="278" y="765" width="27.25" height="16" transform="matrix(1 0 0 1 -214 -62)"/></g><g><g><path fill="none" stroke="none"/><text fill="#000000" stroke="none" font-family="Arial" font-size="16px" font-style="normal" font-weight="normal" text-decoration="undefined" x="291.625" y="773" text-anchor="middle" dominant-baseline="central" transform="matrix(1 0 0 1 -214 -62)">Нет</text></g></g><g><path fill="none" stroke="#000000" paint-order="fill stroke markers" d=" M 200 1018 L 46 1018 L 46 1018 A 8 8 0 0 1 38 1010 L 38 378 L 38 378 A 8 8 0 0 1 46 370 L 164 370" stroke-miterlimit="10" stroke-dasharray=""/></g><g><path fill="#000000" stroke="none" paint-order="stroke fill markers" d=" M 153.83732514237585 374.209517756016 L 164 370 L 153.83732514237585 365.790482243984"/></g><g><path fill="none" stroke="#000000" paint-order="fill stroke markers" d=" M 153.83732514237585 374.209517756016 L 164 370 L 153.83732514237585 365.790482243984 L 153.83732514237585 374.209517756016" stroke-miterlimit="10" stroke-dasharray=""/></g><g><rect fill="#ffffff" stroke="none" x="224" y="747" width="27.25" height="16" transform="matrix(1 0 0 1 -214 -62)"/></g><g><g><path fill="none" stroke="none"/><text fill="#000000" stroke="none" font-family="Arial" font-size="16px" font-style="normal" font-weight="normal" text-decoration="undefined" x="237.625" y="755" text-anchor="middle" dominant-baseline="central" transform="matrix(1 0 0 1 -214 -62)">Нет</text></g></g><g><path fill="none" stroke="#000000" paint-order="fill stroke markers" d=" M 366 64 L 366 118" stroke-miterlimit="10" stroke-dasharray=""/></g><g><path fill="#000000" stroke="none" paint-order="stroke fill markers" d=" M 361.790482243984 107.83732514237585 L 366 118 L 370.209517756016 107.83732514237585"/></g><g><path fill="none" stroke="#000000" paint-order="fill stroke markers" d=" M 361.790482243984 107.83732514237585 L 366 118 L 370.209517756016 107.83732514237585 L 361.790482243984 107.83732514237585" stroke-miterlimit="10" stroke-dasharray=""/></g><g><path fill="none" stroke="#000000" paint-order="fill stroke markers" d=" M 362 154 L 362 208" stroke-miterlimit="10" stroke-dasharray=""/></g><g><path fill="#000000" stroke="none" paint-order="stroke fill markers" d=" M 357.790482243984 197.83732514237585 L 362 208 L 366.209517756016 197.83732514237585"/></g><g><path fill="none" stroke="#000000" paint-order="fill stroke markers" d=" M 357.790482243984 197.83732514237585 L 362 208 L 366.209517756016 197.83732514237585 L 357.790482243984 197.83732514237585" stroke-miterlimit="10" stroke-dasharray=""/></g><g><path fill="none" stroke="#000000" paint-order="fill stroke markers" d=" M 362 260 L 362 316" stroke-miterlimit="10" stroke-dasharray=""/></g><g><path fill="#000000" stroke="none" paint-order="stroke fill markers" d=" M 357.790482243984 305.83732514237585 L 362 316 L 366.209517756016 305.83732514237585"/></g><g><path fill="none" stroke="#000000" paint-order="fill stroke markers" d=" M 357.790482243984 305.83732514237585 L 362 316 L 366.209517756016 305.83732514237585 L 357.790482243984 305.83732514237585" stroke-miterlimit="10" stroke-dasharray=""/></g><g><path fill="none" stroke="#000000" paint-order="fill stroke markers" d=" M 362 370 L 362 424" stroke-miterlimit="10" stroke-dasharray=""/></g><g><path fill="#000000" stroke="none" paint-order="stroke fill markers" d=" M 357.790482243984 413.83732514237585 L 362 424 L 366.209517756016 413.83732514237585"/></g><g><path fill="none" stroke="#000000" paint-order="fill stroke markers" d=" M 357.790482243984 413.83732514237585 L 362 424 L 366.209517756016 413.83732514237585 L 357.790482243984 413.83732514237585" stroke-miterlimit="10" stroke-dasharray=""/></g><g><path fill="none" stroke="#000000" paint-order="fill stroke markers" d=" M 361 478 L 361 586" stroke-miterlimit="10" stroke-dasharray=""/></g><g><path fill="#000000" stroke="none" paint-order="stroke fill markers" d=" M 356.790482243984 575.8373251423759 L 361 586 L 365.209517756016 575.8373251423759"/></g><g><path fill="none" stroke="#000000" paint-order="fill stroke markers" d=" M 356.790482243984 575.8373251423759 L 361 586 L 365.209517756016 575.8373251423759 L 356.790482243984 575.8373251423759" stroke-miterlimit="10" stroke-dasharray=""/></g><g><path fill="#ffffff" stroke="none" paint-order="stroke fill markers" d=" M 326 1213 C 326 1204.715728 334.05887359999997 1198 344 1198 C 353.94112640000003 1198 362 1204.715728 362 1213 C 362 1221.284272 353.94112640000003 1228 344 1228 C 334.05887359999997 1228 326 1221.284272 326 1213 Z"/></g><g><path fill="none" stroke="#000000" paint-order="fill stroke markers" d=" M 326 1213 C 326 1204.715728 334.05887359999997 1198 344 1198 C 353.94112640000003 1198 362 1204.715728 362 1213 C 362 1221.284272 353.94112640000003 1228 344 1228 C 334.05887359999997 1228 326 1221.284272 326 1213 Z" stroke-miterlimit="10" stroke-dasharray=""/></g><g><g><path fill="none" stroke="none"/></g></g><g><path fill="none" stroke="#000000" paint-order="fill stroke markers" d=" M 351 1082 L 351 1198" stroke-miterlimit="10" stroke-dasharray=""/></g><g><path fill="#000000" stroke="none" paint-order="stroke fill markers" d=" M 346.790482243984 1187.837325142376 L 351 1198 L 355.209517756016 1187.837325142376"/></g><g><path fill="none" stroke="#000000" paint-order="fill stroke markers" d=" M 346.790482243984 1187.837325142376 L 351 1198 L 355.209517756016 1187.837325142376 L 346.790482243984 1187.837325142376" stroke-miterlimit="10" stroke-dasharray=""/></g><g><rect fill="#ffffff" stroke="none" x="570" y="1193" width="19.734375" height="16" transform="matrix(1 0 0 1 -214 -62)"/></g><g><g><path fill="none" stroke="none"/><text fill="#000000" stroke="none" font-family="Arial" font-size="16px" font-style="normal" font-weight="normal" text-decoration="undefined" x="579.8671875" y="1201" text-anchor="middle" dominant-baseline="central" transform="matrix(1 0 0 1 -214 -62)">Да</text></g></g></g></svg>