<svg version="1.1" xmlns="http://www.w3.org/2000/svg" xmlns:xlink="http://www.w3.org/1999/xlink" width="1334" height="1928"><defs/><g><g><path fill="none" stroke="#000000" paint-order="fill stroke markers" d=" M 10 10 L 820 10 L 820 1918 L 10 1918 L 10 10 Z Z" stroke-miterlimit="10" stroke-dasharray=""/></g><g><path fill="none" stroke="#000000" paint-order="fill stroke markers" d=" M 10 36 L 820 36" stroke-miterlimit="10" stroke-dasharray=""/></g><g><g><path fill="none" stroke="none"/><text fill="#000000" stroke="none" font-family="Arial" font-size="16px" font-style="normal" font-weight="normal" text-decoration="undefined" x="621" y="131" text-anchor="middle" dominant-baseline="text-before-edge" transform="matrix(1 0 0 1 -206 -116)">Пользователь</text></g></g><g><path fill="none" stroke="#000000" paint-order="fill stroke markers" d=" M 820 10 L 1324 10 L 1324 1918 L 820 1918 L 820 10 Z Z" stroke-miterlimit="10" stroke-dasharray=""/></g><g><path fill="none" stroke="#000000" paint-order="fill stroke markers" d=" M 820 36 L 1324 36" stroke-miterlimit="10" stroke-dasharray=""/></g><g><g><path fill="none" stroke="none"/><text fill="#000000" stroke="none" font-family="Arial" font-size="16px" font-style="normal" font-weight="normal" text-decoration="undefined" x="1278" y="131" text-anchor="middle" dominant-baseline="text-before-edge" transform="matrix(1 0 0 1 -206 -116)">Апи сервиса</text></g></g><g><path fill="#C0C0C0" stroke="none" paint-order="stroke fill markers" d=" M 485 105 C 485 96.16344319999999 492.16344319999996 89 501 89 C 509.83655680000004 89 517 96.16344319999999 517 105 C 517 113.83655680000001 509.83655680000004 121 501 121 C 492.16344319999996 121 485 113.83655680000001 485 105 Z" fill-opacity="0.2"/></g><g><path fill="#ffffff" stroke="none" paint-order="stroke fill markers" d=" M 478 98 C 478 89.16344319999999 485.16344319999996 82 494 82 C 502.83655680000004 82 510 89.16344319999999 510 98 C 510 106.83655680000001 502.83655680000004 114 494 114 C 485.16344319999996 114 478 106.83655680000001 478 98 Z"/></g><g><path fill="none" stroke="#000000" paint-order="fill stroke markers" d=" M 478 98 C 478 89.16344319999999 485.16344319999996 82 494 82 C 502.83655680000004 82 510 89.16344319999999 510 98 C 510 106.83655680000001 502.83655680000004 114 494 114 C 485.16344319999996 114 478 106.83655680000001 478 98 Z" stroke-miterlimit="10" stroke-dasharray=""/></g><g><rect fill="#ffffff" stroke="none" x="584.11328125" y="242" width="231.7734375" height="16" transform="matrix(1 0 0 1 -206 -116)"/></g><g><g><path fill="none" stroke="none"/><text fill="#000000" stroke="none" font-family="Arial" font-size="16px" font-style="normal" font-weight="normal" text-decoration="undefined" x="700" y="250" text-anchor="middle" dominant-baseline="central" transform="matrix(1 0 0 1 -206 -116)">Открытие вкладки настроек КД</text></g></g><g><path fill="#C0C0C0" stroke="none" paint-order="stroke fill markers" d=" M 413 1815 C 413 1806.1634432 420.16344319999996 1799 429 1799 C 437.83655680000004 1799 445 1806.1634432 445 1815 C 445 1823.8365568 437.83655680000004 1831 429 1831 C 420.16344319999996 1831 413 1823.8365568 413 1815 Z" fill-opacity="0.2"/></g><g><path fill="#ffffff" stroke="none" paint-order="stroke fill markers" d=" M 406 1808 C 406 1799.1634432 413.16344319999996 1792 422 1792 C 430.83655680000004 1792 438 1799.1634432 438 1808 C 438 1816.8365568 430.83655680000004 1824 422 1824 C 413.16344319999996 1824 406 1816.8365568 406 1808 Z"/></g><g><path fill="none" stroke="#000000" paint-order="fill stroke markers" d=" M 406 1808 C 406 1799.1634432 413.16344319999996 1792 422 1792 C 430.83655680000004 1792 438 1799.1634432 438 1808 C 438 1816.8365568 430.83655680000004 1824 422 1824 C 413.16344319999996 1824 406 1816.8365568 406 1808 Z" stroke-miterlimit="10" stroke-width="3" stroke-dasharray=""/></g><g><rect fill="#ffffff" stroke="none" x="538.92578125" y="1952" width="178.1484375" height="16" transform="matrix(1 0 0 1 -206 -116)"/></g><g><g><path fill="none" stroke="none"/><text fill="#000000" stroke="none" font-family="Arial" font-size="16px" font-style="normal" font-weight="normal" text-decoration="undefined" x="628" y="1960" text-anchor="middle" dominant-baseline="central" transform="matrix(1 0 0 1 -206 -116)">Завершение изменений</text></g></g><g><path fill="#C0C0C0" stroke="none" paint-order="stroke fill markers" d=" M 305 231 L 321 215 L 337 231 L 321 247 L 305 231" fill-opacity="0.2"/></g><g><path fill="#ffffff" stroke="none" paint-order="stroke fill markers" d=" M 298 224 L 314 208 L 330 224 L 314 240 L 298 224"/></g><g><path fill="none" stroke="#000000" paint-order="fill stroke markers" d=" M 298 224 L 314 208 L 330 224 L 314 240 L 298 224 L 298 224" stroke-miterlimit="10" stroke-dasharray=""/></g><g><rect fill="#ffffff" stroke="none" x="427.078125" y="368" width="185.84375" height="16" transform="matrix(1 0 0 1 -206 -116)"/></g><g><g><path fill="none" stroke="none"/><text fill="#000000" stroke="none" font-family="Arial" font-size="16px" font-style="normal" font-weight="normal" text-decoration="undefined" x="520" y="376" text-anchor="middle" dominant-baseline="central" transform="matrix(1 0 0 1 -206 -116)">Выполняет действие</text></g></g><g><path fill="#C0C0C0" stroke="none" paint-order="stroke fill markers" d=" M 495 503 L 573.0234375 503 Q 583.0234375 503 583.0234375 513 L 583.0234375 551 Q 583.0234375 561 573.0234375 561 L 495 561 Q 485 561 485 551 L 485 513 Q 485 503 495 503 Z" fill-opacity="0.2"/></g><g><path fill="#ffffff" stroke="none" paint-order="stroke fill markers" d=" M 488 496 L 566.0234375 496 Q 576.0234375 496 576.0234375 506 L 576.0234375 544 Q 576.0234375 554 566.0234375 554 L 488 554 Q 478 554 478 544 L 478 506 Q 478 496 488 496 Z"/></g><g><path fill="none" stroke="#000000" paint-order="fill stroke markers" d=" M 488 496 L 566.0234375 496 Q 576.0234375 496 576.0234375 506 L 576.0234375 544 Q 576.0234375 554 566.0234375 554 L 488 554 Q 478 554 478 544 L 478 506 Q 478 496 488 496 Z" stroke-miterlimit="10" stroke-dasharray=""/></g><g><g><path fill="none" stroke="none"/><text fill="#000000" stroke="none" font-family="Arial" font-size="16px" font-style="normal" font-weight="normal" text-decoration="undefined" x="733.01171875" y="625" text-anchor="middle" dominant-baseline="central" transform="matrix(1 0 0 1 -206 -116)">Выбирает</text><text fill="#000000" stroke="none" font-family="Arial" font-size="16px" font-style="normal" font-weight="normal" text-decoration="undefined" x="733.01171875" y="641" text-anchor="middle" dominant-baseline="central" transform="matrix(1 0 0 1 -206 -116)">фото из</text><text fill="#000000" stroke="none" font-family="Arial" font-size="16px" font-style="normal" font-weight="normal" text-decoration="undefined" x="733.01171875" y="657" text-anchor="middle" dominant-baseline="central" transform="matrix(1 0 0 1 -206 -116)">галереии</text></g></g><g><path fill="#C0C0C0" stroke="none" paint-order="stroke fill markers" d=" M 351 503 L 429.0234375 503 Q 439.0234375 503 439.0234375 513 L 439.0234375 551 Q 439.0234375 561 429.0234375 561 L 351 561 Q 341 561 341 551 L 341 513 Q 341 503 351 503 Z" fill-opacity="0.2"/></g><g><path fill="#ffffff" stroke="none" paint-order="stroke fill markers" d=" M 344 496 L 422.0234375 496 Q 432.0234375 496 432.0234375 506 L 432.0234375 544 Q 432.0234375 554 422.0234375 554 L 344 554 Q 334 554 334 544 L 334 506 Q 334 496 344 496 Z"/></g><g><path fill="none" stroke="#000000" paint-order="fill stroke markers" d=" M 344 496 L 422.0234375 496 Q 432.0234375 496 432.0234375 506 L 432.0234375 544 Q 432.0234375 554 422.0234375 554 L 344 554 Q 334 554 334 544 L 334 506 Q 334 496 344 496 Z" stroke-miterlimit="10" stroke-dasharray=""/></g><g><g><path fill="none" stroke="none"/><text fill="#000000" stroke="none" font-family="Arial" font-size="16px" font-style="normal" font-weight="normal" text-decoration="undefined" x="589.01171875" y="625" text-anchor="middle" dominant-baseline="central" transform="matrix(1 0 0 1 -206 -116)">Вводит</text><text fill="#000000" stroke="none" font-family="Arial" font-size="16px" font-style="normal" font-weight="normal" text-decoration="undefined" x="589.01171875" y="641" text-anchor="middle" dominant-baseline="central" transform="matrix(1 0 0 1 -206 -116)">новое</text><text fill="#000000" stroke="none" font-family="Arial" font-size="16px" font-style="normal" font-weight="normal" text-decoration="undefined" x="589.01171875" y="657" text-anchor="middle" dominant-baseline="central" transform="matrix(1 0 0 1 -206 -116)">название</text></g></g><g><path fill="#C0C0C0" stroke="none" paint-order="stroke fill markers" d=" M 207 503 L 285.0234375 503 Q 295.0234375 503 295.0234375 513 L 295.0234375 551 Q 295.0234375 561 285.0234375 561 L 207 561 Q 197 561 197 551 L 197 513 Q 197 503 207 503 Z" fill-opacity="0.2"/></g><g><path fill="#ffffff" stroke="none" paint-order="stroke fill markers" d=" M 200 496 L 278.0234375 496 Q 288.0234375 496 288.0234375 506 L 288.0234375 544 Q 288.0234375 554 278.0234375 554 L 200 554 Q 190 554 190 544 L 190 506 Q 190 496 200 496 Z"/></g><g><path fill="none" stroke="#000000" paint-order="fill stroke markers" d=" M 200 496 L 278.0234375 496 Q 288.0234375 496 288.0234375 506 L 288.0234375 544 Q 288.0234375 554 278.0234375 554 L 200 554 Q 190 554 190 544 L 190 506 Q 190 496 200 496 Z" stroke-miterlimit="10" stroke-dasharray=""/></g><g><g><path fill="none" stroke="none"/><text fill="#000000" stroke="none" font-family="Arial" font-size="16px" font-style="normal" font-weight="normal" text-decoration="undefined" x="445.01171875" y="625" text-anchor="middle" dominant-baseline="central" transform="matrix(1 0 0 1 -206 -116)">Вводит</text><text fill="#000000" stroke="none" font-family="Arial" font-size="16px" font-style="normal" font-weight="normal" text-decoration="undefined" x="445.01171875" y="641" text-anchor="middle" dominant-baseline="central" transform="matrix(1 0 0 1 -206 -116)">новое</text><text fill="#000000" stroke="none" font-family="Arial" font-size="16px" font-style="normal" font-weight="normal" text-decoration="undefined" x="445.01171875" y="657" text-anchor="middle" dominant-baseline="central" transform="matrix(1 0 0 1 -206 -116)">описание</text></g></g><g><path fill="#C0C0C0" stroke="none" paint-order="stroke fill markers" d=" M 63 503 L 141.0234375 503 Q 151.0234375 503 151.0234375 513 L 151.0234375 551 Q 151.0234375 561 141.0234375 561 L 63 561 Q 53 561 53 551 L 53 513 Q 53 503 63 503 Z" fill-opacity="0.2"/></g><g><path fill="#ffffff" stroke="none" paint-order="stroke fill markers" d=" M 56 496 L 134.0234375 496 Q 144.0234375 496 144.0234375 506 L 144.0234375 544 Q 144.0234375 554 134.0234375 554 L 56 554 Q 46 554 46 544 L 46 506 Q 46 496 56 496 Z"/></g><g><path fill="none" stroke="#000000" paint-order="fill stroke markers" d=" M 56 496 L 134.0234375 496 Q 144.0234375 496 144.0234375 506 L 144.0234375 544 Q 144.0234375 554 134.0234375 554 L 56 554 Q 46 554 46 544 L 46 506 Q 46 496 56 496 Z" stroke-miterlimit="10" stroke-dasharray=""/></g><g><g><path fill="none" stroke="none"/><text fill="#000000" stroke="none" font-family="Arial" font-size="16px" font-style="normal" font-weight="normal" text-decoration="undefined" x="301.01171875" y="625" text-anchor="middle" dominant-baseline="central" transform="matrix(1 0 0 1 -206 -116)">Меняет</text><text fill="#000000" stroke="none" font-family="Arial" font-size="16px" font-style="normal" font-weight="normal" text-decoration="undefined" x="301.01171875" y="641" text-anchor="middle" dominant-baseline="central" transform="matrix(1 0 0 1 -206 -116)">обучающие</text><text fill="#000000" stroke="none" font-family="Arial" font-size="16px" font-style="normal" font-weight="normal" text-decoration="undefined" x="301.01171875" y="657" text-anchor="middle" dominant-baseline="central" transform="matrix(1 0 0 1 -206 -116)">материалы</text></g></g><g><path fill="none" stroke="#000000" paint-order="fill stroke markers" d=" M 330 224 L 524 224 L 524 224 A 8 8 0 0 1 532 232 L 532 496" stroke-miterlimit="10" stroke-dasharray=""/></g><g><path fill="#000000" stroke="none" paint-order="stroke fill markers" d=" M 527.790482243984 485.8373251423759 L 532 496 L 536.209517756016 485.8373251423759"/></g><g><path fill="none" stroke="#000000" paint-order="fill stroke markers" d=" M 527.790482243984 485.8373251423759 L 532 496 L 536.209517756016 485.8373251423759 L 527.790482243984 485.8373251423759" stroke-miterlimit="10" stroke-dasharray=""/></g><g><rect fill="#ffffff" stroke="none" x="648" y="414" width="157.375" height="16" transform="matrix(1 0 0 1 -206 -116)"/></g><g><g><path fill="none" stroke="none"/><text fill="#000000" stroke="none" font-family="Arial" font-size="16px" font-style="normal" font-weight="normal" text-decoration="undefined" x="726.6875" y="422" text-anchor="middle" dominant-baseline="central" transform="matrix(1 0 0 1 -206 -116)">Нажал сменить фото</text></g></g><g><path fill="none" stroke="#000000" paint-order="fill stroke markers" d=" M 330 224 L 362 224 L 362 224 A 8 8 0 0 1 370 232 L 370 496" stroke-miterlimit="10" stroke-dasharray=""/></g><g><path fill="#000000" stroke="none" paint-order="stroke fill markers" d=" M 365.790482243984 485.8373251423759 L 370 496 L 374.209517756016 485.8373251423759"/></g><g><path fill="none" stroke="#000000" paint-order="fill stroke markers" d=" M 365.790482243984 485.8373251423759 L 370 496 L 374.209517756016 485.8373251423759 L 365.790482243984 485.8373251423759" stroke-miterlimit="10" stroke-dasharray=""/></g><g><rect fill="#ffffff" stroke="none" x="522" y="469" width="108" height="48" transform="matrix(1 0 0 1 -206 -116)"/></g><g><g><path fill="none" stroke="none"/><text fill="#000000" stroke="none" font-family="Arial" font-size="16px" font-style="normal" font-weight="normal" text-decoration="undefined" x="576" y="477" text-anchor="middle" dominant-baseline="central" transform="matrix(1 0 0 1 -206 -116)">Нажал</text><text fill="#000000" stroke="none" font-family="Arial" font-size="16px" font-style="normal" font-weight="normal" text-decoration="undefined" x="576" y="493" text-anchor="middle" dominant-baseline="central" transform="matrix(1 0 0 1 -206 -116)">изменить</text><text fill="#000000" stroke="none" font-family="Arial" font-size="16px" font-style="normal" font-weight="normal" text-decoration="undefined" x="576" y="509" text-anchor="middle" dominant-baseline="central" transform="matrix(1 0 0 1 -206 -116)">название</text></g></g><g><path fill="none" stroke="#000000" paint-order="fill stroke markers" d=" M 298 224 L 252 224 L 252 224 A 8 8 0 0 0 244 232 L 244 496" stroke-miterlimit="10" stroke-dasharray=""/></g><g><path fill="#000000" stroke="none" paint-order="stroke fill markers" d=" M 239.790482243984 485.8373251423759 L 244 496 L 248.209517756016 485.8373251423759"/></g><g><path fill="none" stroke="#000000" paint-order="fill stroke markers" d=" M 239.790482243984 485.8373251423759 L 244 496 L 248.209517756016 485.8373251423759 L 239.790482243984 485.8373251423759" stroke-miterlimit="10" stroke-dasharray=""/></g><g><rect fill="#ffffff" stroke="none" x="378" y="406" width="126" height="32" transform="matrix(1 0 0 1 -206 -116)"/></g><g><g><path fill="none" stroke="none"/><text fill="#000000" stroke="none" font-family="Arial" font-size="16px" font-style="normal" font-weight="normal" text-decoration="undefined" x="441" y="414" text-anchor="middle" dominant-baseline="central" transform="matrix(1 0 0 1 -206 -116)">Нажал изменить</text><text fill="#000000" stroke="none" font-family="Arial" font-size="16px" font-style="normal" font-weight="normal" text-decoration="undefined" x="441" y="430" text-anchor="middle" dominant-baseline="central" transform="matrix(1 0 0 1 -206 -116)">описание</text></g></g><g><path fill="none" stroke="#000000" paint-order="fill stroke markers" d=" M 298 224 L 108 224 L 108 224 A 8 8 0 0 0 100 232 L 100 496" stroke-miterlimit="10" stroke-dasharray=""/></g><g><path fill="#000000" stroke="none" paint-order="stroke fill markers" d=" M 95.790482243984 485.8373251423759 L 100 496 L 104.209517756016 485.8373251423759"/></g><g><path fill="none" stroke="#000000" paint-order="fill stroke markers" d=" M 95.790482243984 485.8373251423759 L 100 496 L 104.209517756016 485.8373251423759 L 95.790482243984 485.8373251423759" stroke-miterlimit="10" stroke-dasharray=""/></g><g><rect fill="#ffffff" stroke="none" x="234" y="468" width="116" height="48" transform="matrix(1 0 0 1 -206 -116)"/></g><g><g><path fill="none" stroke="none"/><text fill="#000000" stroke="none" font-family="Arial" font-size="16px" font-style="normal" font-weight="normal" text-decoration="undefined" x="292" y="476" text-anchor="middle" dominant-baseline="central" transform="matrix(1 0 0 1 -206 -116)">Нажал</text><text fill="#000000" stroke="none" font-family="Arial" font-size="16px" font-style="normal" font-weight="normal" text-decoration="undefined" x="292" y="492" text-anchor="middle" dominant-baseline="central" transform="matrix(1 0 0 1 -206 -116)">обучающие</text><text fill="#000000" stroke="none" font-family="Arial" font-size="16px" font-style="normal" font-weight="normal" text-decoration="undefined" x="292" y="508" text-anchor="middle" dominant-baseline="central" transform="matrix(1 0 0 1 -206 -116)">материалы</text></g></g><g><path fill="none" stroke="#000000" paint-order="fill stroke markers" d=" M 478 114 L 324 114 L 324 114 A 8 8 0 0 0 316 122 L 316 208" stroke-miterlimit="10" stroke-dasharray=""/></g><g><path fill="#000000" stroke="none" paint-order="stroke fill markers" d=" M 311.790482243984 197.83732514237585 L 316 208 L 320.209517756016 197.83732514237585"/></g><g><path fill="none" stroke="#000000" paint-order="fill stroke markers" d=" M 311.790482243984 197.83732514237585 L 316 208 L 320.209517756016 197.83732514237585 L 311.790482243984 197.83732514237585" stroke-miterlimit="10" stroke-dasharray=""/></g><g><path fill="#C0C0C0" stroke="none" paint-order="stroke fill markers" d=" M 675 485 L 753.0234375 485 Q 763.0234375 485 763.0234375 495 L 763.0234375 533 Q 763.0234375 543 753.0234375 543 L 675 543 Q 665 543 665 533 L 665 495 Q 665 485 675 485 Z" fill-opacity="0.2"/></g><g><path fill="#BF2F2F" stroke="none" paint-order="stroke fill markers" d=" M 668 478 L 746.0234375 478 Q 756.0234375 478 756.0234375 488 L 756.0234375 526 Q 756.0234375 536 746.0234375 536 L 668 536 Q 658 536 658 526 L 658 488 Q 658 478 668 478 Z"/></g><g><path fill="none" stroke="#000000" paint-order="fill stroke markers" d=" M 668 478 L 746.0234375 478 Q 756.0234375 478 756.0234375 488 L 756.0234375 526 Q 756.0234375 536 746.0234375 536 L 668 536 Q 658 536 658 526 L 658 488 Q 658 478 668 478 Z" stroke-miterlimit="10" stroke-dasharray=""/></g><g><g><path fill="none" stroke="none"/><text fill="#000000" stroke="none" font-family="Arial" font-size="16px" font-style="normal" font-weight="normal" text-decoration="undefined" x="913.01171875" y="607" text-anchor="middle" dominant-baseline="central" transform="matrix(1 0 0 1 -206 -116)">Изменяет</text><text fill="#000000" stroke="none" font-family="Arial" font-size="16px" font-style="normal" font-weight="normal" text-decoration="undefined" x="913.01171875" y="623" text-anchor="middle" dominant-baseline="central" transform="matrix(1 0 0 1 -206 -116)">настройки</text><text fill="#000000" stroke="none" font-family="Arial" font-size="16px" font-style="normal" font-weight="normal" text-decoration="undefined" x="913.01171875" y="639" text-anchor="middle" dominant-baseline="central" transform="matrix(1 0 0 1 -206 -116)">АПИ</text></g></g><g><path fill="none" stroke="#000000" paint-order="fill stroke markers" d=" M 330 226 L 686 226 L 686 226 A 8 8 0 0 1 694 234 L 694 478" stroke-miterlimit="10" stroke-dasharray=""/></g><g><path fill="#000000" stroke="none" paint-order="stroke fill markers" d=" M 689.790482243984 467.8373251423759 L 694 478 L 698.209517756016 467.8373251423759"/></g><g><path fill="none" stroke="#000000" paint-order="fill stroke markers" d=" M 689.790482243984 467.8373251423759 L 694 478 L 698.209517756016 467.8373251423759 L 689.790482243984 467.8373251423759" stroke-miterlimit="10" stroke-dasharray=""/></g><g><rect fill="#ffffff" stroke="none" x="846" y="363" width="116.390625" height="16" transform="matrix(1 0 0 1 -206 -116)"/></g><g><g><path fill="none" stroke="none"/><text fill="#000000" stroke="none" font-family="Arial" font-size="16px" font-style="normal" font-weight="normal" text-decoration="undefined" x="904.1953125" y="371" text-anchor="middle" dominant-baseline="central" transform="matrix(1 0 0 1 -206 -116)">Настройки АПИ</text></g></g><g><path fill="#C0C0C0" stroke="none" paint-order="stroke fill markers" d=" M 423 773 L 501.0234375 773 Q 511.0234375 773 511.0234375 783 L 511.0234375 805 Q 511.0234375 815 501.0234375 815 L 423 815 Q 413 815 413 805 L 413 783 Q 413 773 423 773 Z" fill-opacity="0.2"/></g><g><path fill="#ffffff" stroke="none" paint-order="stroke fill markers" d=" M 416 766 L 494.0234375 766 Q 504.0234375 766 504.0234375 776 L 504.0234375 798 Q 504.0234375 808 494.0234375 808 L 416 808 Q 406 808 406 798 L 406 776 Q 406 766 416 766 Z"/></g><g><path fill="none" stroke="#000000" paint-order="fill stroke markers" d=" M 416 766 L 494.0234375 766 Q 504.0234375 766 504.0234375 776 L 504.0234375 798 Q 504.0234375 808 494.0234375 808 L 416 808 Q 406 808 406 798 L 406 776 Q 406 766 416 766 Z" stroke-miterlimit="10" stroke-dasharray=""/></g><g><g><path fill="none" stroke="none"/><text fill="#000000" stroke="none" font-family="Arial" font-size="16px" font-style="normal" font-weight="normal" text-decoration="undefined" x="661.01171875" y="895" text-anchor="middle" dominant-baseline="central" transform="matrix(1 0 0 1 -206 -116)">Сохраняет</text><text fill="#000000" stroke="none" font-family="Arial" font-size="16px" font-style="normal" font-weight="normal" text-decoration="undefined" x="661.01171875" y="911" text-anchor="middle" dominant-baseline="central" transform="matrix(1 0 0 1 -206 -116)">изменения</text></g></g><g><path fill="none" stroke="#000000" paint-order="fill stroke markers" d=" M 135 554 L 135 758 L 135 758 A 8 8 0 0 0 143 766 L 406 766" stroke-miterlimit="10" stroke-dasharray=""/></g><g><path fill="#000000" stroke="none" paint-order="stroke fill markers" d=" M 395.8373251423759 770.209517756016 L 406 766 L 395.8373251423758 761.790482243984"/></g><g><path fill="none" stroke="#000000" paint-order="fill stroke markers" d=" M 395.8373251423759 770.209517756016 L 406 766 L 395.8373251423758 761.790482243984 L 395.8373251423759 770.209517756016" stroke-miterlimit="10" stroke-dasharray=""/></g><g><path fill="none" stroke="#000000" paint-order="fill stroke markers" d=" M 263 554 L 263 758 L 263 758 A 8 8 0 0 0 271 766 L 406 766" stroke-miterlimit="10" stroke-dasharray=""/></g><g><path fill="#000000" stroke="none" paint-order="stroke fill markers" d=" M 395.8373251423759 770.209517756016 L 406 766 L 395.8373251423758 761.790482243984"/></g><g><path fill="none" stroke="#000000" paint-order="fill stroke markers" d=" M 395.8373251423759 770.209517756016 L 406 766 L 395.8373251423758 761.790482243984 L 395.8373251423759 770.209517756016" stroke-miterlimit="10" stroke-dasharray=""/></g><g><path fill="none" stroke="#000000" paint-order="fill stroke markers" d=" M 391 554 L 391 758 L 391 758 A 8 8 0 0 0 399 766 L 406 766" stroke-miterlimit="10" stroke-dasharray=""/></g><g><path fill="#000000" stroke="none" paint-order="stroke fill markers" d=" M 395.8373251423759 770.209517756016 L 406 766 L 395.8373251423758 761.790482243984"/></g><g><path fill="none" stroke="#000000" paint-order="fill stroke markers" d=" M 395.8373251423759 770.209517756016 L 406 766 L 395.8373251423758 761.790482243984 L 395.8373251423759 770.209517756016" stroke-miterlimit="10" stroke-dasharray=""/></g><g><path fill="#C0C0C0" stroke="none" paint-order="stroke fill markers" d=" M 891 1205 L 969.0234375 1205 Q 979.0234375 1205 979.0234375 1215 L 979.0234375 1269 Q 979.0234375 1279 969.0234375 1279 L 891 1279 Q 881 1279 881 1269 L 881 1215 Q 881 1205 891 1205 Z" fill-opacity="0.2"/></g><g><path fill="#ffffff" stroke="none" paint-order="stroke fill markers" d=" M 884 1198 L 962.0234375 1198 Q 972.0234375 1198 972.0234375 1208 L 972.0234375 1262 Q 972.0234375 1272 962.0234375 1272 L 884 1272 Q 874 1272 874 1262 L 874 1208 Q 874 1198 884 1198 Z"/></g><g><path fill="none" stroke="#000000" paint-order="fill stroke markers" d=" M 884 1198 L 962.0234375 1198 Q 972.0234375 1198 972.0234375 1208 L 972.0234375 1262 Q 972.0234375 1272 962.0234375 1272 L 884 1272 Q 874 1272 874 1262 L 874 1208 Q 874 1198 884 1198 Z" stroke-miterlimit="10" stroke-dasharray=""/></g><g><g><path fill="none" stroke="none"/><text fill="#000000" stroke="none" font-family="Arial" font-size="16px" font-style="normal" font-weight="normal" text-decoration="undefined" x="1129.01171875" y="1327" text-anchor="middle" dominant-baseline="central" transform="matrix(1 0 0 1 -206 -116)">Проверка</text><text fill="#000000" stroke="none" font-family="Arial" font-size="16px" font-style="normal" font-weight="normal" text-decoration="undefined" x="1129.01171875" y="1343" text-anchor="middle" dominant-baseline="central" transform="matrix(1 0 0 1 -206 -116)">доступа</text><text fill="#000000" stroke="none" font-family="Arial" font-size="16px" font-style="normal" font-weight="normal" text-decoration="undefined" x="1129.01171875" y="1359" text-anchor="middle" dominant-baseline="central" transform="matrix(1 0 0 1 -206 -116)">юзера на</text><text fill="#000000" stroke="none" font-family="Arial" font-size="16px" font-style="normal" font-weight="normal" text-decoration="undefined" x="1129.01171875" y="1375" text-anchor="middle" dominant-baseline="central" transform="matrix(1 0 0 1 -206 -116)">изменения</text></g></g><g><path fill="#C0C0C0" stroke="none" paint-order="stroke fill markers" d=" M 891 1331 L 969.0234375 1331 Q 979.0234375 1331 979.0234375 1341 L 979.0234375 1363 Q 979.0234375 1373 969.0234375 1373 L 891 1373 Q 881 1373 881 1363 L 881 1341 Q 881 1331 891 1331 Z" fill-opacity="0.2"/></g><g><path fill="#ffffff" stroke="none" paint-order="stroke fill markers" d=" M 884 1324 L 962.0234375 1324 Q 972.0234375 1324 972.0234375 1334 L 972.0234375 1356 Q 972.0234375 1366 962.0234375 1366 L 884 1366 Q 874 1366 874 1356 L 874 1334 Q 874 1324 884 1324 Z"/></g><g><path fill="none" stroke="#000000" paint-order="fill stroke markers" d=" M 884 1324 L 962.0234375 1324 Q 972.0234375 1324 972.0234375 1334 L 972.0234375 1356 Q 972.0234375 1366 962.0234375 1366 L 884 1366 Q 874 1366 874 1356 L 874 1334 Q 874 1324 884 1324 Z" stroke-miterlimit="10" stroke-dasharray=""/></g><g><g><path fill="none" stroke="none"/><text fill="#000000" stroke="none" font-family="Arial" font-size="16px" font-style="normal" font-weight="normal" text-decoration="undefined" x="1129.01171875" y="1453" text-anchor="middle" dominant-baseline="central" transform="matrix(1 0 0 1 -206 -116)">Валидация</text><text fill="#000000" stroke="none" font-family="Arial" font-size="16px" font-style="normal" font-weight="normal" text-decoration="undefined" x="1129.01171875" y="1469" text-anchor="middle" dominant-baseline="central" transform="matrix(1 0 0 1 -206 -116)">данных</text></g></g><g><path fill="#C0C0C0" stroke="none" paint-order="stroke fill markers" d=" M 891 1439 L 971.4765625 1439 Q 981.4765625 1439 981.4765625 1449 L 981.4765625 1471 Q 981.4765625 1481 971.4765625 1481 L 891 1481 Q 881 1481 881 1471 L 881 1449 Q 881 1439 891 1439 Z" fill-opacity="0.2"/></g><g><path fill="#ffffff" stroke="none" paint-order="stroke fill markers" d=" M 884 1432 L 964.4765625 1432 Q 974.4765625 1432 974.4765625 1442 L 974.4765625 1464 Q 974.4765625 1474 964.4765625 1474 L 884 1474 Q 874 1474 874 1464 L 874 1442 Q 874 1432 884 1432 Z"/></g><g><path fill="none" stroke="#000000" paint-order="fill stroke markers" d=" M 884 1432 L 964.4765625 1432 Q 974.4765625 1432 974.4765625 1442 L 974.4765625 1464 Q 974.4765625 1474 964.4765625 1474 L 884 1474 Q 874 1474 874 1464 L 874 1442 Q 874 1432 884 1432 Z" stroke-miterlimit="10" stroke-dasharray=""/></g><g><g><path fill="none" stroke="none"/><text fill="#000000" stroke="none" font-family="Arial" font-size="16px" font-style="normal" font-weight="normal" text-decoration="undefined" x="1130.23828125" y="1561" text-anchor="middle" dominant-baseline="central" transform="matrix(1 0 0 1 -206 -116)">Сохранение</text><text fill="#000000" stroke="none" font-family="Arial" font-size="16px" font-style="normal" font-weight="normal" text-decoration="undefined" x="1130.23828125" y="1577" text-anchor="middle" dominant-baseline="central" transform="matrix(1 0 0 1 -206 -116)">в базе</text></g></g><g><path fill="#C0C0C0" stroke="none" paint-order="stroke fill markers" d=" M 413 1673 L 435.4 1673 L 445 1682.6 L 445 1713 L 413 1713" fill-opacity="0.2"/></g><g><path fill="#ffffff" stroke="none" paint-order="stroke fill markers" d=" M 406 1666 L 428.4 1666 L 438 1675.6 L 438 1706 L 406 1706"/></g><g><path fill="none" stroke="#000000" paint-order="fill stroke markers" d=" M 406 1666 L 428.4 1666 L 438 1675.6 L 438 1706 L 406 1706 L 406 1666" stroke-miterlimit="10" stroke-dasharray=""/></g><g><path fill="none" stroke="#000000" paint-order="fill stroke markers" d=" M 428.4 1666 L 428.4 1675.6 L 438 1675.6 L 428.4 1666" stroke-miterlimit="10" stroke-dasharray=""/></g><g><rect fill="#ffffff" stroke="none" x="482.85546875" y="1830" width="290.2890625" height="16" transform="matrix(1 0 0 1 -206 -116)"/></g><g><g><path fill="none" stroke="none"/><text fill="#000000" stroke="none" font-family="Arial" font-size="16px" font-style="normal" font-weight="normal" text-decoration="undefined" x="628" y="1838" text-anchor="middle" dominant-baseline="central" transform="matrix(1 0 0 1 -206 -116)">Попап о том что изменения сохранены</text></g></g><g><path fill="none" stroke="#000000" paint-order="fill stroke markers" d=" M 504 808 L 504 1227 L 504 1227 A 8 8 0 0 0 512 1235 L 874 1235" stroke-miterlimit="10" stroke-dasharray=""/></g><g><path fill="#000000" stroke="none" paint-order="stroke fill markers" d=" M 863.8373251423759 1239.2095177560159 L 874 1235 L 863.8373251423759 1230.7904822439841"/></g><g><path fill="none" stroke="#000000" paint-order="fill stroke markers" d=" M 863.8373251423759 1239.2095177560159 L 874 1235 L 863.8373251423759 1230.7904822439841 L 863.8373251423759 1239.2095177560159" stroke-miterlimit="10" stroke-dasharray=""/></g><g><path fill="none" stroke="#000000" paint-order="fill stroke markers" d=" M 923 1272 L 923 1324" stroke-miterlimit="10" stroke-dasharray=""/></g><g><path fill="#000000" stroke="none" paint-order="stroke fill markers" d=" M 918.7904822439841 1313.837325142376 L 923 1324 L 927.2095177560159 1313.837325142376"/></g><g><path fill="none" stroke="#000000" paint-order="fill stroke markers" d=" M 918.7904822439841 1313.837325142376 L 923 1324 L 927.2095177560159 1313.837325142376 L 918.7904822439841 1313.837325142376" stroke-miterlimit="10" stroke-dasharray=""/></g><g><path fill="none" stroke="#000000" paint-order="fill stroke markers" d=" M 923 1366 L 923 1432" stroke-miterlimit="10" stroke-dasharray=""/></g><g><path fill="#000000" stroke="none" paint-order="stroke fill markers" d=" M 918.7904822439841 1421.837325142376 L 923 1432 L 927.2095177560159 1421.837325142376"/></g><g><path fill="none" stroke="#000000" paint-order="fill stroke markers" d=" M 918.7904822439841 1421.837325142376 L 923 1432 L 927.2095177560159 1421.837325142376 L 918.7904822439841 1421.837325142376" stroke-miterlimit="10" stroke-dasharray=""/></g><g><path fill="none" stroke="#000000" paint-order="fill stroke markers" d=" M 924 1474 L 924 1586 L 924 1586 A 8 8 0 0 1 916 1594 L 446 1594 L 446 1594 A 8 8 0 0 0 438 1602 L 438 1666" stroke-miterlimit="10" stroke-dasharray=""/></g><g><path fill="#000000" stroke="none" paint-order="stroke fill markers" d=" M 433.790482243984 1655.837325142376 L 438 1666 L 442.209517756016 1655.837325142376"/></g><g><path fill="none" stroke="#000000" paint-order="fill stroke markers" d=" M 433.790482243984 1655.837325142376 L 438 1666 L 442.209517756016 1655.837325142376 L 433.790482243984 1655.837325142376" stroke-miterlimit="10" stroke-dasharray=""/></g><g><path fill="none" stroke="#000000" paint-order="fill stroke markers" d=" M 422 1706 L 422 1772 L 424 1772 L 424 1792" stroke-miterlimit="10" stroke-dasharray=""/></g><g><path fill="#000000" stroke="none" paint-order="stroke fill markers" d=" M 419.790482243984 1781.837325142376 L 424 1792 L 428.209517756016 1781.837325142376"/></g><g><path fill="none" stroke="#000000" paint-order="fill stroke markers" d=" M 419.790482243984 1781.837325142376 L 424 1792 L 428.209517756016 1781.837325142376 L 419.790482243984 1781.837325142376" stroke-miterlimit="10" stroke-dasharray=""/></g><g><path fill="#C0C0C0" stroke="none" paint-order="stroke fill markers" d=" M 639 683 L 736.4609375 683 Q 746.4609375 683 746.4609375 693 L 746.4609375 731 Q 746.4609375 741 736.4609375 741 L 639 741 Q 629 741 629 731 L 629 693 Q 629 683 639 683 Z" fill-opacity="0.2"/></g><g><path fill="#ffffff" stroke="none" paint-order="stroke fill markers" d=" M 632 676 L 729.4609375 676 Q 739.4609375 676 739.4609375 686 L 739.4609375 724 Q 739.4609375 734 729.4609375 734 L 632 734 Q 622 734 622 724 L 622 686 Q 622 676 632 676 Z"/></g><g><path fill="none" stroke="#000000" paint-order="fill stroke markers" d=" M 632 676 L 729.4609375 676 Q 739.4609375 676 739.4609375 686 L 739.4609375 724 Q 739.4609375 734 729.4609375 734 L 632 734 Q 622 734 622 724 L 622 686 Q 622 676 632 676 Z" stroke-miterlimit="10" stroke-dasharray=""/></g><g><g><path fill="none" stroke="none"/><text fill="#000000" stroke="none" font-family="Arial" font-size="16px" font-style="normal" font-weight="normal" text-decoration="undefined" x="886.73046875" y="805" text-anchor="middle" dominant-baseline="central" transform="matrix(1 0 0 1 -206 -116)">Подтверждает</text><text fill="#000000" stroke="none" font-family="Arial" font-size="16px" font-style="normal" font-weight="normal" text-decoration="undefined" x="886.73046875" y="821" text-anchor="middle" dominant-baseline="central" transform="matrix(1 0 0 1 -206 -116)">сохранение</text><text fill="#000000" stroke="none" font-family="Arial" font-size="16px" font-style="normal" font-weight="normal" text-decoration="undefined" x="886.73046875" y="837" text-anchor="middle" dominant-baseline="central" transform="matrix(1 0 0 1 -206 -116)">фото</text></g></g><g><path fill="#C0C0C0" stroke="none" paint-order="stroke fill markers" d=" M 1071 719 L 1149.0234375 719 Q 1159.0234375 719 1159.0234375 729 L 1159.0234375 767 Q 1159.0234375 777 1149.0234375 777 L 1071 777 Q 1061 777 1061 767 L 1061 729 Q 1061 719 1071 719 Z" fill-opacity="0.2"/></g><g><path fill="#ffffff" stroke="none" paint-order="stroke fill markers" d=" M 1064 712 L 1142.0234375 712 Q 1152.0234375 712 1152.0234375 722 L 1152.0234375 760 Q 1152.0234375 770 1142.0234375 770 L 1064 770 Q 1054 770 1054 760 L 1054 722 Q 1054 712 1064 712 Z"/></g><g><path fill="none" stroke="#000000" paint-order="fill stroke markers" d=" M 1064 712 L 1142.0234375 712 Q 1152.0234375 712 1152.0234375 722 L 1152.0234375 760 Q 1152.0234375 770 1142.0234375 770 L 1064 770 Q 1054 770 1054 760 L 1054 722 Q 1054 712 1064 712 Z" stroke-miterlimit="10" stroke-dasharray=""/></g><g><g><path fill="none" stroke="none"/><text fill="#000000" stroke="none" font-family="Arial" font-size="16px" font-style="normal" font-weight="normal" text-decoration="undefined" x="1309.01171875" y="841" text-anchor="middle" dominant-baseline="central" transform="matrix(1 0 0 1 -206 -116)">Проверка</text><text fill="#000000" stroke="none" font-family="Arial" font-size="16px" font-style="normal" font-weight="normal" text-decoration="undefined" x="1309.01171875" y="857" text-anchor="middle" dominant-baseline="central" transform="matrix(1 0 0 1 -206 -116)">доступа на</text><text fill="#000000" stroke="none" font-family="Arial" font-size="16px" font-style="normal" font-weight="normal" text-decoration="undefined" x="1309.01171875" y="873" text-anchor="middle" dominant-baseline="central" transform="matrix(1 0 0 1 -206 -116)">изменения</text></g></g><g><path fill="#C0C0C0" stroke="none" paint-order="stroke fill markers" d=" M 1071 827 L 1149.5 827 Q 1159.5 827 1159.5 837 L 1159.5 891 Q 1159.5 901 1149.5 901 L 1071 901 Q 1061 901 1061 891 L 1061 837 Q 1061 827 1071 827 Z" fill-opacity="0.2"/></g><g><path fill="#ffffff" stroke="none" paint-order="stroke fill markers" d=" M 1064 820 L 1142.5 820 Q 1152.5 820 1152.5 830 L 1152.5 884 Q 1152.5 894 1142.5 894 L 1064 894 Q 1054 894 1054 884 L 1054 830 Q 1054 820 1064 820 Z"/></g><g><path fill="none" stroke="#000000" paint-order="fill stroke markers" d=" M 1064 820 L 1142.5 820 Q 1152.5 820 1152.5 830 L 1152.5 884 Q 1152.5 894 1142.5 894 L 1064 894 Q 1054 894 1054 884 L 1054 830 Q 1054 820 1064 820 Z" stroke-miterlimit="10" stroke-dasharray=""/></g><g><g><path fill="none" stroke="none"/><text fill="#000000" stroke="none" font-family="Arial" font-size="16px" font-style="normal" font-weight="normal" text-decoration="undefined" x="1309.25" y="949" text-anchor="middle" dominant-baseline="central" transform="matrix(1 0 0 1 -206 -116)">Генерируем</text><text fill="#000000" stroke="none" font-family="Arial" font-size="16px" font-style="normal" font-weight="normal" text-decoration="undefined" x="1309.25" y="965" text-anchor="middle" dominant-baseline="central" transform="matrix(1 0 0 1 -206 -116)">ссылку для</text><text fill="#000000" stroke="none" font-family="Arial" font-size="16px" font-style="normal" font-weight="normal" text-decoration="undefined" x="1309.25" y="981" text-anchor="middle" dominant-baseline="central" transform="matrix(1 0 0 1 -206 -116)">загрузки</text><text fill="#000000" stroke="none" font-family="Arial" font-size="16px" font-style="normal" font-weight="normal" text-decoration="undefined" x="1309.25" y="997" text-anchor="middle" dominant-baseline="central" transform="matrix(1 0 0 1 -206 -116)">фото</text></g></g><g><path fill="#C0C0C0" stroke="none" paint-order="stroke fill markers" d=" M 657 899 L 735.0234375 899 Q 745.0234375 899 745.0234375 909 L 745.0234375 963 Q 745.0234375 973 735.0234375 973 L 657 973 Q 647 973 647 963 L 647 909 Q 647 899 657 899 Z" fill-opacity="0.2"/></g><g><path fill="#ffffff" stroke="none" paint-order="stroke fill markers" d=" M 650 892 L 728.0234375 892 Q 738.0234375 892 738.0234375 902 L 738.0234375 956 Q 738.0234375 966 728.0234375 966 L 650 966 Q 640 966 640 956 L 640 902 Q 640 892 650 892 Z"/></g><g><path fill="none" stroke="#000000" paint-order="fill stroke markers" d=" M 650 892 L 728.0234375 892 Q 738.0234375 892 738.0234375 902 L 738.0234375 956 Q 738.0234375 966 728.0234375 966 L 650 966 Q 640 966 640 956 L 640 902 Q 640 892 650 892 Z" stroke-miterlimit="10" stroke-dasharray=""/></g><g><g><path fill="none" stroke="none"/><text fill="#000000" stroke="none" font-family="Arial" font-size="16px" font-style="normal" font-weight="normal" text-decoration="undefined" x="895.01171875" y="1021" text-anchor="middle" dominant-baseline="central" transform="matrix(1 0 0 1 -206 -116)">Заливается</text><text fill="#000000" stroke="none" font-family="Arial" font-size="16px" font-style="normal" font-weight="normal" text-decoration="undefined" x="895.01171875" y="1037" text-anchor="middle" dominant-baseline="central" transform="matrix(1 0 0 1 -206 -116)">фото на</text><text fill="#000000" stroke="none" font-family="Arial" font-size="16px" font-style="normal" font-weight="normal" text-decoration="undefined" x="895.01171875" y="1053" text-anchor="middle" dominant-baseline="central" transform="matrix(1 0 0 1 -206 -116)">блоб по</text><text fill="#000000" stroke="none" font-family="Arial" font-size="16px" font-style="normal" font-weight="normal" text-decoration="undefined" x="895.01171875" y="1069" text-anchor="middle" dominant-baseline="central" transform="matrix(1 0 0 1 -206 -116)">ссылке</text></g></g><g><path fill="#C0C0C0" stroke="none" paint-order="stroke fill markers" d=" M 639 1043 L 733.546875 1043 Q 743.546875 1043 743.546875 1053 L 743.546875 1107 Q 743.546875 1117 733.546875 1117 L 639 1117 Q 629 1117 629 1107 L 629 1053 Q 629 1043 639 1043 Z" fill-opacity="0.2"/></g><g><path fill="#ffffff" stroke="none" paint-order="stroke fill markers" d=" M 632 1036 L 726.546875 1036 Q 736.546875 1036 736.546875 1046 L 736.546875 1100 Q 736.546875 1110 726.546875 1110 L 632 1110 Q 622 1110 622 1100 L 622 1046 Q 622 1036 632 1036 Z"/></g><g><path fill="none" stroke="#000000" paint-order="fill stroke markers" d=" M 632 1036 L 726.546875 1036 Q 736.546875 1036 736.546875 1046 L 736.546875 1100 Q 736.546875 1110 726.546875 1110 L 632 1110 Q 622 1110 622 1100 L 622 1046 Q 622 1036 632 1036 Z" stroke-miterlimit="10" stroke-dasharray=""/></g><g><g><path fill="none" stroke="none"/><text fill="#000000" stroke="none" font-family="Arial" font-size="16px" font-style="normal" font-weight="normal" text-decoration="undefined" x="885.2734375" y="1165" text-anchor="middle" dominant-baseline="central" transform="matrix(1 0 0 1 -206 -116)">Отправляется</text><text fill="#000000" stroke="none" font-family="Arial" font-size="16px" font-style="normal" font-weight="normal" text-decoration="undefined" x="885.2734375" y="1181" text-anchor="middle" dominant-baseline="central" transform="matrix(1 0 0 1 -206 -116)">запрос на</text><text fill="#000000" stroke="none" font-family="Arial" font-size="16px" font-style="normal" font-weight="normal" text-decoration="undefined" x="885.2734375" y="1197" text-anchor="middle" dominant-baseline="central" transform="matrix(1 0 0 1 -206 -116)">сохранения</text><text fill="#000000" stroke="none" font-family="Arial" font-size="16px" font-style="normal" font-weight="normal" text-decoration="undefined" x="885.2734375" y="1213" text-anchor="middle" dominant-baseline="central" transform="matrix(1 0 0 1 -206 -116)">изменений</text></g></g><g><path fill="#C0C0C0" stroke="none" paint-order="stroke fill markers" d=" M 1071 1133 L 1149.0234375 1133 Q 1159.0234375 1133 1159.0234375 1143 L 1159.0234375 1181 Q 1159.0234375 1191 1149.0234375 1191 L 1071 1191 Q 1061 1191 1061 1181 L 1061 1143 Q 1061 1133 1071 1133 Z" fill-opacity="0.2"/></g><g><path fill="#ffffff" stroke="none" paint-order="stroke fill markers" d=" M 1064 1126 L 1142.0234375 1126 Q 1152.0234375 1126 1152.0234375 1136 L 1152.0234375 1174 Q 1152.0234375 1184 1142.0234375 1184 L 1064 1184 Q 1054 1184 1054 1174 L 1054 1136 Q 1054 1126 1064 1126 Z"/></g><g><path fill="none" stroke="#000000" paint-order="fill stroke markers" d=" M 1064 1126 L 1142.0234375 1126 Q 1152.0234375 1126 1152.0234375 1136 L 1152.0234375 1174 Q 1152.0234375 1184 1142.0234375 1184 L 1064 1184 Q 1054 1184 1054 1174 L 1054 1136 Q 1054 1126 1064 1126 Z" stroke-miterlimit="10" stroke-dasharray=""/></g><g><g><path fill="none" stroke="none"/><text fill="#000000" stroke="none" font-family="Arial" font-size="16px" font-style="normal" font-weight="normal" text-decoration="undefined" x="1309.01171875" y="1255" text-anchor="middle" dominant-baseline="central" transform="matrix(1 0 0 1 -206 -116)">Сохраняем</text><text fill="#000000" stroke="none" font-family="Arial" font-size="16px" font-style="normal" font-weight="normal" text-decoration="undefined" x="1309.01171875" y="1271" text-anchor="middle" dominant-baseline="central" transform="matrix(1 0 0 1 -206 -116)">изменения в</text><text fill="#000000" stroke="none" font-family="Arial" font-size="16px" font-style="normal" font-weight="normal" text-decoration="undefined" x="1309.01171875" y="1287" text-anchor="middle" dominant-baseline="central" transform="matrix(1 0 0 1 -206 -116)">базу данных</text></g></g><g><path fill="none" stroke="#000000" paint-order="fill stroke markers" d=" M 552 554 L 552 668 L 552 668 A 8 8 0 0 0 560 676 L 622 676" stroke-miterlimit="10" stroke-dasharray=""/></g><g><path fill="#000000" stroke="none" paint-order="stroke fill markers" d=" M 611.8373251423759 680.209517756016 L 622 676 L 611.8373251423758 671.790482243984"/></g><g><path fill="none" stroke="#000000" paint-order="fill stroke markers" d=" M 611.8373251423759 680.209517756016 L 622 676 L 611.8373251423758 671.790482243984 L 611.8373251423759 680.209517756016" stroke-miterlimit="10" stroke-dasharray=""/></g><g><path fill="none" stroke="#000000" paint-order="fill stroke markers" d=" M 739 734 L 739 729 L 739 729 A 8 8 0 0 0 747 737 L 1054 737" stroke-miterlimit="10" stroke-dasharray=""/></g><g><path fill="#000000" stroke="none" paint-order="stroke fill markers" d=" M 1043.837325142376 741.209517756016 L 1054 737 L 1043.837325142376 732.790482243984"/></g><g><path fill="none" stroke="#000000" paint-order="fill stroke markers" d=" M 1043.837325142376 741.209517756016 L 1054 737 L 1043.837325142376 732.790482243984 L 1043.837325142376 741.209517756016" stroke-miterlimit="10" stroke-dasharray=""/></g><g><path fill="none" stroke="#000000" paint-order="fill stroke markers" d=" M 1103 770 L 1103 820" stroke-miterlimit="10" stroke-dasharray=""/></g><g><path fill="#000000" stroke="none" paint-order="stroke fill markers" d=" M 1098.7904822439841 809.8373251423759 L 1103 820 L 1107.2095177560159 809.8373251423759"/></g><g><path fill="none" stroke="#000000" paint-order="fill stroke markers" d=" M 1098.7904822439841 809.8373251423759 L 1103 820 L 1107.2095177560159 809.8373251423759 L 1098.7904822439841 809.8373251423759" stroke-miterlimit="10" stroke-dasharray=""/></g><g><path fill="none" stroke="#000000" paint-order="fill stroke markers" d=" M 1054 894 L 1054 912 L 1054 912 A 8 8 0 0 1 1046 920 L 738 920" stroke-miterlimit="10" stroke-dasharray=""/></g><g><path fill="#000000" stroke="none" paint-order="stroke fill markers" d=" M 748.1626748576241 915.7904822439841 L 738 920 L 748.1626748576241 924.2095177560159"/></g><g><path fill="none" stroke="#000000" paint-order="fill stroke markers" d=" M 748.1626748576241 915.7904822439841 L 738 920 L 748.1626748576241 924.2095177560159 L 748.1626748576241 915.7904822439841" stroke-miterlimit="10" stroke-dasharray=""/></g><g><path fill="none" stroke="#000000" paint-order="fill stroke markers" d=" M 686 966 L 686 1036" stroke-miterlimit="10" stroke-dasharray=""/></g><g><path fill="#000000" stroke="none" paint-order="stroke fill markers" d=" M 681.790482243984 1025.837325142376 L 686 1036 L 690.209517756016 1025.837325142376"/></g><g><path fill="none" stroke="#000000" paint-order="fill stroke markers" d=" M 681.790482243984 1025.837325142376 L 686 1036 L 690.209517756016 1025.837325142376 L 681.790482243984 1025.837325142376" stroke-miterlimit="10" stroke-dasharray=""/></g><g><path fill="none" stroke="#000000" paint-order="fill stroke markers" d=" M 679 1110 L 679 1138 L 679 1138 A 8 8 0 0 0 687 1146 L 1054 1146" stroke-miterlimit="10" stroke-dasharray=""/></g><g><path fill="#000000" stroke="none" paint-order="stroke fill markers" d=" M 1043.837325142376 1150.2095177560159 L 1054 1146 L 1043.837325142376 1141.7904822439841"/></g><g><path fill="none" stroke="#000000" paint-order="fill stroke markers" d=" M 1043.837325142376 1150.2095177560159 L 1054 1146 L 1043.837325142376 1141.7904822439841 L 1043.837325142376 1150.2095177560159" stroke-miterlimit="10" stroke-dasharray=""/></g><g><path fill="none" stroke="#000000" paint-order="fill stroke markers" d=" M 1066 1184 L 1066 1666 L 1066 1666 A 8 8 0 0 1 1058 1674 L 438 1674" stroke-miterlimit="10" stroke-dasharray=""/></g><g><path fill="#000000" stroke="none" paint-order="stroke fill markers" d=" M 448.1626748576241 1669.7904822439841 L 438 1674 L 448.1626748576241 1678.2095177560159"/></g><g><path fill="none" stroke="#000000" paint-order="fill stroke markers" d=" M 448.1626748576241 1669.7904822439841 L 438 1674 L 448.1626748576241 1678.2095177560159 L 448.1626748576241 1669.7904822439841" stroke-miterlimit="10" stroke-dasharray=""/></g></g></svg>