<svg version="1.1" xmlns="http://www.w3.org/2000/svg" xmlns:xlink="http://www.w3.org/1999/xlink" width="631.484375" height="416"><defs/><g><g><path fill="#ffffff" stroke="none" paint-order="stroke fill markers" d=" M 91 100 L 406 100 L 343 136 L 28 136 L 91 100"/></g><g><path fill="none" stroke="#000000" paint-order="fill stroke markers" d=" M 91 100 L 406 100 L 343 136 L 28 136 L 91 100 L 91 100" stroke-miterlimit="10" stroke-dasharray=""/></g><g><g><path fill="none" stroke="none"/><text fill="#000000" stroke="none" font-family="Arial" font-size="16px" font-style="normal" font-weight="normal" text-decoration="undefined" x="423" y="162" text-anchor="middle" dominant-baseline="central" transform="matrix(1 0 0 1 -206 -44)">PutchChallengeRequest</text></g></g><g><rect fill="#ffffff" stroke="none" x="252" y="72" width="324" height="36" transform="matrix(1 0 0 1 -206 -44)"/></g><g><path fill="#ffffff" stroke="none" paint-order="stroke fill markers" d=" M 370 28 A 18 18 0 0 1 370 64"/></g><g><path fill="none" stroke="#000000" paint-order="fill stroke markers" d=" M 46 28 L 46 64" stroke-miterlimit="10" stroke-dasharray=""/></g><g><path fill="none" stroke="#000000" paint-order="fill stroke markers" d=" M 46 28 L 370 28" stroke-miterlimit="10" stroke-dasharray=""/></g><g><path fill="none" stroke="#000000" paint-order="fill stroke markers" d=" M 46 64 L 370 64" stroke-miterlimit="10" stroke-dasharray=""/></g><g><path fill="none" stroke="#000000" paint-order="fill stroke markers" d=" M 370 28 A 18 18 0 0 1 370 64" stroke-miterlimit="10" stroke-dasharray=""/></g><g><g><path fill="none" stroke="none"/><text fill="#000000" stroke="none" font-family="Arial" font-size="16px" font-style="normal" font-weight="normal" text-decoration="undefined" x="390.25" y="90" text-anchor="middle" dominant-baseline="central" transform="matrix(1 0 0 1 -206 -44)">PATCH /challenges/{challengeId}</text></g></g><g><path fill="#ffffff" stroke="#000000" paint-order="fill stroke markers" d=" M 478 44 L 501 10 L 598.484375 10 Q 621.484375 10 621.484375 44 Q 621.484375 78 598.484375 78 L 501 78 L 478 44 Z" stroke-miterlimit="10" stroke-dasharray=""/></g><g><g><path fill="none" stroke="none"/><text fill="#000000" stroke="none" font-family="Arial" font-size="16px" font-style="normal" font-weight="normal" text-decoration="undefined" x="755.7421875" y="72" text-anchor="middle" dominant-baseline="central" transform="matrix(1 0 0 1 -206 -44)">Заголовки</text><text fill="#000000" stroke="none" font-family="Arial" font-size="16px" font-style="normal" font-weight="normal" text-decoration="undefined" x="755.7421875" y="88" text-anchor="middle" dominant-baseline="central" transform="matrix(1 0 0 1 -206 -44)">запроса</text><text fill="#000000" stroke="none" font-family="Arial" font-size="16px" font-style="normal" font-weight="normal" text-decoration="undefined" x="755.7421875" y="104" text-anchor="middle" dominant-baseline="central" transform="matrix(1 0 0 1 -206 -44)">(Авторизирован)</text></g></g><g><path fill="#ffffff" stroke="none" paint-order="stroke fill markers" d=" M 72 190 L 362 190 Q 388 190 388 216 L 388 216 Q 388 242 362 242 L 72 242 Q 46 242 46 216 L 46 216 Q 46 190 72 190 Z"/></g><g><path fill="none" stroke="#000000" paint-order="fill stroke markers" d=" M 72 190 L 362 190 Q 388 190 388 216 L 388 216 Q 388 242 362 242 L 72 242 Q 46 242 46 216 L 46 216 Q 46 190 72 190 Z" stroke-miterlimit="10" stroke-dasharray=""/></g><g><g><path fill="none" stroke="none"/><text fill="#000000" stroke="none" font-family="Arial" font-size="16px" font-style="normal" font-weight="normal" text-decoration="undefined" x="423" y="252" text-anchor="middle" dominant-baseline="central" transform="matrix(1 0 0 1 -206 -44)">Является ли пользователь создателем</text><text fill="#000000" stroke="none" font-family="Arial" font-size="16px" font-style="normal" font-weight="normal" text-decoration="undefined" x="423" y="268" text-anchor="middle" dominant-baseline="central" transform="matrix(1 0 0 1 -206 -44)">группы</text></g></g><g><rect fill="#ffffff" stroke="none" x="216" y="324" width="414" height="36" transform="matrix(1 0 0 1 -206 -44)"/></g><g><path fill="none" stroke="#000000" paint-order="fill stroke markers" d=" M 10 280 L 424 280 L 424 316 L 10 316 L 10 280 Z Z" stroke-miterlimit="10" stroke-dasharray=""/></g><g><g><path fill="none" stroke="none"/><text fill="#000000" stroke="none" font-family="Arial" font-size="16px" font-style="normal" font-weight="normal" text-decoration="undefined" x="423" y="342" text-anchor="middle" dominant-baseline="central" transform="matrix(1 0 0 1 -206 -44)">Внести изменения в челлендж</text></g></g><g><path fill="#ffffff" stroke="none" paint-order="stroke fill markers" d=" M 100 370 L 370 370 L 316 406 L 46 406 L 100 370"/></g><g><path fill="none" stroke="#000000" paint-order="fill stroke markers" d=" M 100 370 L 370 370 L 316 406 L 46 406 L 100 370 L 100 370" stroke-miterlimit="10" stroke-dasharray=""/></g><g><g><path fill="none" stroke="none"/><text fill="#000000" stroke="none" font-family="Arial" font-size="16px" font-style="normal" font-weight="normal" text-decoration="undefined" x="414" y="432" text-anchor="middle" dominant-baseline="central" transform="matrix(1 0 0 1 -206 -44)">NoBodyResponse</text></g></g><g><path fill="none" stroke="#000000" paint-order="fill stroke markers" d=" M 217 64 L 217 100" stroke-miterlimit="10" stroke-dasharray=""/></g><g><path fill="#000000" stroke="none" paint-order="stroke fill markers" d=" M 212.790482243984 89.83732514237585 L 217 100 L 221.209517756016 89.83732514237585"/></g><g><path fill="none" stroke="#000000" paint-order="fill stroke markers" d=" M 212.790482243984 89.83732514237585 L 217 100 L 221.209517756016 89.83732514237585 L 212.790482243984 89.83732514237585" stroke-miterlimit="10" stroke-dasharray=""/></g><g><path fill="none" stroke="#000000" paint-order="fill stroke markers" d=" M 478 78 L 478 92 L 478 92 A 8 8 0 0 1 470 100 L 406 100" stroke-miterlimit="10" stroke-dasharray=""/></g><g><path fill="#000000" stroke="none" paint-order="stroke fill markers" d=" M 416.1626748576241 95.790482243984 L 406 100 L 416.1626748576241 104.209517756016"/></g><g><path fill="none" stroke="#000000" paint-order="fill stroke markers" d=" M 416.1626748576241 95.790482243984 L 406 100 L 416.1626748576241 104.209517756016 L 416.1626748576241 95.790482243984" stroke-miterlimit="10" stroke-dasharray=""/></g><g><path fill="none" stroke="#000000" paint-order="fill stroke markers" d=" M 217 136 L 217 190" stroke-miterlimit="10" stroke-dasharray=""/></g><g><path fill="#000000" stroke="none" paint-order="stroke fill markers" d=" M 212.790482243984 179.83732514237585 L 217 190 L 221.209517756016 179.83732514237585"/></g><g><path fill="none" stroke="#000000" paint-order="fill stroke markers" d=" M 212.790482243984 179.83732514237585 L 217 190 L 221.209517756016 179.83732514237585 L 212.790482243984 179.83732514237585" stroke-miterlimit="10" stroke-dasharray=""/></g><g><path fill="none" stroke="#000000" paint-order="fill stroke markers" d=" M 217 242 L 217 280" stroke-miterlimit="10" stroke-dasharray=""/></g><g><path fill="#000000" stroke="none" paint-order="stroke fill markers" d=" M 212.790482243984 269.83732514237585 L 217 280 L 221.209517756016 269.83732514237585"/></g><g><path fill="none" stroke="#000000" paint-order="fill stroke markers" d=" M 212.790482243984 269.83732514237585 L 217 280 L 221.209517756016 269.83732514237585 L 212.790482243984 269.83732514237585" stroke-miterlimit="10" stroke-dasharray=""/></g><g><path fill="none" stroke="#000000" paint-order="fill stroke markers" d=" M 215 316 L 215 370" stroke-miterlimit="10" stroke-dasharray=""/></g><g><path fill="#000000" stroke="none" paint-order="stroke fill markers" d=" M 210.790482243984 359.83732514237585 L 215 370 L 219.209517756016 359.83732514237585"/></g><g><path fill="none" stroke="#000000" paint-order="fill stroke markers" d=" M 210.790482243984 359.83732514237585 L 215 370 L 219.209517756016 359.83732514237585 L 210.790482243984 359.83732514237585" stroke-miterlimit="10" stroke-dasharray=""/></g></g></svg>