<svg version="1.1" xmlns="http://www.w3.org/2000/svg" xmlns:xlink="http://www.w3.org/1999/xlink" width="721.484375" height="866"><defs/><g><g><rect fill="#ffffff" stroke="none" x="270" y="90" width="370" height="52" transform="matrix(1 0 0 1 -188 -62)"/></g><g><path fill="#ffffff" stroke="none" paint-order="stroke fill markers" d=" M 452 28 A 26 26 0 0 1 452 80"/></g><g><path fill="none" stroke="#000000" paint-order="fill stroke markers" d=" M 82 28 L 82 80" stroke-miterlimit="10" stroke-dasharray=""/></g><g><path fill="none" stroke="#000000" paint-order="fill stroke markers" d=" M 82 28 L 452 28" stroke-miterlimit="10" stroke-dasharray=""/></g><g><path fill="none" stroke="#000000" paint-order="fill stroke markers" d=" M 82 80 L 452 80" stroke-miterlimit="10" stroke-dasharray=""/></g><g><path fill="none" stroke="#000000" paint-order="fill stroke markers" d=" M 452 28 A 26 26 0 0 1 452 80" stroke-miterlimit="10" stroke-dasharray=""/></g><g><g><path fill="none" stroke="none"/><text fill="#000000" stroke="none" font-family="Arial" font-size="16px" font-style="normal" font-weight="normal" text-decoration="undefined" x="428.5" y="108" text-anchor="middle" dominant-baseline="central" transform="matrix(1 0 0 1 -188 -62)">POST</text><text fill="#000000" stroke="none" font-family="Arial" font-size="16px" font-style="normal" font-weight="normal" text-decoration="undefined" x="428.5" y="124" text-anchor="middle" dominant-baseline="central" transform="matrix(1 0 0 1 -188 -62)">/chellenges/block-accounts/{accountId}</text></g></g><g><path fill="#ffffff" stroke="#000000" paint-order="fill stroke markers" d=" M 568 44 L 591 10 L 688.484375 10 Q 711.484375 10 711.484375 44 Q 711.484375 78 688.484375 78 L 591 78 L 568 44 Z" stroke-miterlimit="10" stroke-dasharray=""/></g><g><g><path fill="none" stroke="none"/><text fill="#000000" stroke="none" font-family="Arial" font-size="16px" font-style="normal" font-weight="normal" text-decoration="undefined" x="827.7421875" y="90" text-anchor="middle" dominant-baseline="central" transform="matrix(1 0 0 1 -188 -62)">Заголовки</text><text fill="#000000" stroke="none" font-family="Arial" font-size="16px" font-style="normal" font-weight="normal" text-decoration="undefined" x="827.7421875" y="106" text-anchor="middle" dominant-baseline="central" transform="matrix(1 0 0 1 -188 -62)">запроса</text><text fill="#000000" stroke="none" font-family="Arial" font-size="16px" font-style="normal" font-weight="normal" text-decoration="undefined" x="827.7421875" y="122" text-anchor="middle" dominant-baseline="central" transform="matrix(1 0 0 1 -188 -62)">(Авторизирован)</text></g></g><g><path fill="#ffffff" stroke="none" paint-order="stroke fill markers" d=" M 28 190 L 514 190 Q 532 190 532 208 L 532 208 Q 532 226 514 226 L 28 226 Q 10 226 10 208 L 10 208 Q 10 190 28 190 Z"/></g><g><path fill="none" stroke="#000000" paint-order="fill stroke markers" d=" M 28 190 L 514 190 Q 532 190 532 208 L 532 208 Q 532 226 514 226 L 28 226 Q 10 226 10 208 L 10 208 Q 10 190 28 190 Z" stroke-miterlimit="10" stroke-dasharray=""/></g><g><g><path fill="none" stroke="none"/><text fill="#000000" stroke="none" font-family="Arial" font-size="16px" font-style="normal" font-weight="normal" text-decoration="undefined" x="459" y="270" text-anchor="middle" dominant-baseline="central" transform="matrix(1 0 0 1 -188 -62)">Роль пользователя в челлендже "Администратор"</text></g></g><g><path fill="#ffffff" stroke="none" paint-order="stroke fill markers" d=" M 162 244 L 368.5234375 244 Q 394.5234375 244 394.5234375 270 L 394.5234375 270 Q 394.5234375 296 368.5234375 296 L 162 296 Q 136 296 136 270 L 136 270 Q 136 244 162 244 Z"/></g><g><path fill="none" stroke="#000000" paint-order="fill stroke markers" d=" M 162 244 L 368.5234375 244 Q 394.5234375 244 394.5234375 270 L 394.5234375 270 Q 394.5234375 296 368.5234375 296 L 162 296 Q 136 296 136 270 L 136 270 Q 136 244 162 244 Z" stroke-miterlimit="10" stroke-dasharray=""/></g><g><g><path fill="none" stroke="none"/><text fill="#000000" stroke="none" font-family="Arial" font-size="16px" font-style="normal" font-weight="normal" text-decoration="undefined" x="453.26171875" y="332" text-anchor="middle" dominant-baseline="central" transform="matrix(1 0 0 1 -188 -62)">Существует выбранный аккаунт</text></g></g><g><path fill="#ffffff" stroke="none" paint-order="stroke fill markers" d=" M 136 506 L 253 442 L 370 506 L 253 570 L 136 506"/></g><g><path fill="none" stroke="#000000" paint-order="fill stroke markers" d=" M 136 506 L 253 442 L 370 506 L 253 570 L 136 506 L 136 506" stroke-miterlimit="10" stroke-dasharray=""/></g><g><g><path fill="none" stroke="none"/><text fill="#000000" stroke="none" font-family="Arial" font-size="16px" font-style="normal" font-weight="normal" text-decoration="undefined" x="441" y="544" text-anchor="middle" dominant-baseline="central" transform="matrix(1 0 0 1 -188 -62)">аккаунт</text><text fill="#000000" stroke="none" font-family="Arial" font-size="16px" font-style="normal" font-weight="normal" text-decoration="undefined" x="441" y="560" text-anchor="middle" dominant-baseline="central" transform="matrix(1 0 0 1 -188 -62)">является</text><text fill="#000000" stroke="none" font-family="Arial" font-size="16px" font-style="normal" font-weight="normal" text-decoration="undefined" x="441" y="576" text-anchor="middle" dominant-baseline="central" transform="matrix(1 0 0 1 -188 -62)">участником</text><text fill="#000000" stroke="none" font-family="Arial" font-size="16px" font-style="normal" font-weight="normal" text-decoration="undefined" x="441" y="592" text-anchor="middle" dominant-baseline="central" transform="matrix(1 0 0 1 -188 -62)">челленджа</text></g></g><g><rect fill="#ffffff" stroke="none" x="630" y="594" width="180" height="52" transform="matrix(1 0 0 1 -188 -62)"/></g><g><path fill="none" stroke="#000000" paint-order="fill stroke markers" d=" M 442 532 L 622 532 L 622 584 L 442 584 L 442 532 Z Z" stroke-miterlimit="10" stroke-dasharray=""/></g><g><g><path fill="none" stroke="none"/><text fill="#000000" stroke="none" font-family="Arial" font-size="16px" font-style="normal" font-weight="normal" text-decoration="undefined" x="720" y="612" text-anchor="middle" dominant-baseline="central" transform="matrix(1 0 0 1 -188 -62)">Удалить участника</text><text fill="#000000" stroke="none" font-family="Arial" font-size="16px" font-style="normal" font-weight="normal" text-decoration="undefined" x="720" y="628" text-anchor="middle" dominant-baseline="central" transform="matrix(1 0 0 1 -188 -62)">из челленджа</text></g></g><g><rect fill="#ffffff" stroke="none" x="306" y="756" width="252" height="52" transform="matrix(1 0 0 1 -188 -62)"/></g><g><path fill="none" stroke="#000000" paint-order="fill stroke markers" d=" M 118 694 L 370 694 L 370 746 L 118 746 L 118 694 Z Z" stroke-miterlimit="10" stroke-dasharray=""/></g><g><g><path fill="none" stroke="none"/><text fill="#000000" stroke="none" font-family="Arial" font-size="16px" font-style="normal" font-weight="normal" text-decoration="undefined" x="432" y="774" text-anchor="middle" dominant-baseline="central" transform="matrix(1 0 0 1 -188 -62)">Добавить пользователя в бан</text><text fill="#000000" stroke="none" font-family="Arial" font-size="16px" font-style="normal" font-weight="normal" text-decoration="undefined" x="432" y="790" text-anchor="middle" dominant-baseline="central" transform="matrix(1 0 0 1 -188 -62)">лист</text></g></g><g><rect fill="#ffffff" stroke="none" x="630" y="666" width="198" height="68" transform="matrix(1 0 0 1 -188 -62)"/></g><g><path fill="none" stroke="#000000" paint-order="fill stroke markers" d=" M 442 604 L 640 604 L 640 672 L 442 672 L 442 604 Z Z" stroke-miterlimit="10" stroke-dasharray=""/></g><g><g><path fill="none" stroke="none"/><text fill="#000000" stroke="none" font-family="Arial" font-size="16px" font-style="normal" font-weight="normal" text-decoration="undefined" x="729" y="684" text-anchor="middle" dominant-baseline="central" transform="matrix(1 0 0 1 -188 -62)">Отправить</text><text fill="#000000" stroke="none" font-family="Arial" font-size="16px" font-style="normal" font-weight="normal" text-decoration="undefined" x="729" y="700" text-anchor="middle" dominant-baseline="central" transform="matrix(1 0 0 1 -188 -62)">уведомление о</text><text fill="#000000" stroke="none" font-family="Arial" font-size="16px" font-style="normal" font-weight="normal" text-decoration="undefined" x="729" y="716" text-anchor="middle" dominant-baseline="central" transform="matrix(1 0 0 1 -188 -62)">блокировке</text></g></g><g><path fill="none" stroke="#000000" paint-order="fill stroke markers" d=" M 370 532 L 442 532" stroke-miterlimit="10" stroke-dasharray=""/></g><g><path fill="#000000" stroke="none" paint-order="stroke fill markers" d=" M 431.8373251423759 536.209517756016 L 442 532 L 431.8373251423758 527.790482243984"/></g><g><path fill="none" stroke="#000000" paint-order="fill stroke markers" d=" M 431.8373251423759 536.209517756016 L 442 532 L 431.8373251423758 527.790482243984 L 431.8373251423759 536.209517756016" stroke-miterlimit="10" stroke-dasharray=""/></g><g><rect fill="#ffffff" stroke="none" x="585" y="571" width="19.734375" height="16" transform="matrix(1 0 0 1 -188 -62)"/></g><g><g><path fill="none" stroke="none"/><text fill="#000000" stroke="none" font-family="Arial" font-size="16px" font-style="normal" font-weight="normal" text-decoration="undefined" x="594.8671875" y="579" text-anchor="middle" dominant-baseline="central" transform="matrix(1 0 0 1 -188 -62)">Да</text></g></g><g><path fill="none" stroke="#000000" paint-order="fill stroke markers" d=" M 535 584 L 535 604" stroke-miterlimit="10" stroke-dasharray=""/></g><g><path fill="#000000" stroke="none" paint-order="stroke fill markers" d=" M 530.790482243984 593.8373251423759 L 535 604 L 539.209517756016 593.8373251423759"/></g><g><path fill="none" stroke="#000000" paint-order="fill stroke markers" d=" M 530.790482243984 593.8373251423759 L 535 604 L 539.209517756016 593.8373251423759 L 530.790482243984 593.8373251423759" stroke-miterlimit="10" stroke-dasharray=""/></g><g><path fill="none" stroke="#000000" paint-order="fill stroke markers" d=" M 442 672 L 442 686 L 442 686 A 8 8 0 0 1 434 694 L 370 694" stroke-miterlimit="10" stroke-dasharray=""/></g><g><path fill="#000000" stroke="none" paint-order="stroke fill markers" d=" M 380.1626748576241 689.790482243984 L 370 694 L 380.1626748576241 698.209517756016"/></g><g><path fill="none" stroke="#000000" paint-order="fill stroke markers" d=" M 380.1626748576241 689.790482243984 L 370 694 L 380.1626748576241 698.209517756016 L 380.1626748576241 689.790482243984" stroke-miterlimit="10" stroke-dasharray=""/></g><g><path fill="none" stroke="#000000" paint-order="fill stroke markers" d=" M 226 570 L 226 694" stroke-miterlimit="10" stroke-dasharray=""/></g><g><path fill="#000000" stroke="none" paint-order="stroke fill markers" d=" M 221.790482243984 683.8373251423759 L 226 694 L 230.209517756016 683.8373251423759"/></g><g><path fill="none" stroke="#000000" paint-order="fill stroke markers" d=" M 221.790482243984 683.8373251423759 L 226 694 L 230.209517756016 683.8373251423759 L 221.790482243984 683.8373251423759" stroke-miterlimit="10" stroke-dasharray=""/></g><g><rect fill="#ffffff" stroke="none" x="415" y="685" width="27.25" height="16" transform="matrix(1 0 0 1 -188 -62)"/></g><g><g><path fill="none" stroke="none"/><text fill="#000000" stroke="none" font-family="Arial" font-size="16px" font-style="normal" font-weight="normal" text-decoration="undefined" x="428.625" y="693" text-anchor="middle" dominant-baseline="central" transform="matrix(1 0 0 1 -188 -62)">Нет</text></g></g><g><path fill="#ffffff" stroke="none" paint-order="stroke fill markers" d=" M 139 118 L 424 118 L 367 154 L 82 154 L 139 118"/></g><g><path fill="none" stroke="#000000" paint-order="fill stroke markers" d=" M 139 118 L 424 118 L 367 154 L 82 154 L 139 118 L 139 118" stroke-miterlimit="10" stroke-dasharray=""/></g><g><g><path fill="none" stroke="none"/><text fill="#000000" stroke="none" font-family="Arial" font-size="16px" font-style="normal" font-weight="normal" text-decoration="undefined" x="441" y="198" text-anchor="middle" dominant-baseline="central" transform="matrix(1 0 0 1 -188 -62)">PostChellengeBlockAccountRequest</text></g></g><g><path fill="#ffffff" stroke="none" paint-order="stroke fill markers" d=" M 115 820 L 460 820 L 391 856 L 46 856 L 115 820"/></g><g><path fill="none" stroke="#000000" paint-order="fill stroke markers" d=" M 115 820 L 460 820 L 391 856 L 46 856 L 115 820 L 115 820" stroke-miterlimit="10" stroke-dasharray=""/></g><g><g><path fill="none" stroke="none"/><text fill="#000000" stroke="none" font-family="Arial" font-size="16px" font-style="normal" font-weight="normal" text-decoration="undefined" x="441" y="900" text-anchor="middle" dominant-baseline="central" transform="matrix(1 0 0 1 -188 -62)">NoBodyResponse</text></g></g><g><path fill="none" stroke="#000000" paint-order="fill stroke markers" d=" M 271 80 L 271 118" stroke-miterlimit="10" stroke-dasharray=""/></g><g><path fill="#000000" stroke="none" paint-order="stroke fill markers" d=" M 266.790482243984 107.83732514237585 L 271 118 L 275.209517756016 107.83732514237585"/></g><g><path fill="none" stroke="#000000" paint-order="fill stroke markers" d=" M 266.790482243984 107.83732514237585 L 271 118 L 275.209517756016 107.83732514237585 L 266.790482243984 107.83732514237585" stroke-miterlimit="10" stroke-dasharray=""/></g><g><path fill="none" stroke="#000000" paint-order="fill stroke markers" d=" M 568 78 L 568 110 L 568 110 A 8 8 0 0 1 560 118 L 424 118" stroke-miterlimit="10" stroke-dasharray=""/></g><g><path fill="#000000" stroke="none" paint-order="stroke fill markers" d=" M 434.1626748576241 113.790482243984 L 424 118 L 434.1626748576241 122.209517756016"/></g><g><path fill="none" stroke="#000000" paint-order="fill stroke markers" d=" M 434.1626748576241 113.790482243984 L 424 118 L 434.1626748576241 122.209517756016 L 434.1626748576241 113.790482243984" stroke-miterlimit="10" stroke-dasharray=""/></g><g><path fill="none" stroke="#000000" paint-order="fill stroke markers" d=" M 256 154 L 256 190" stroke-miterlimit="10" stroke-dasharray=""/></g><g><path fill="#000000" stroke="none" paint-order="stroke fill markers" d=" M 251.790482243984 179.83732514237585 L 256 190 L 260.209517756016 179.83732514237585"/></g><g><path fill="none" stroke="#000000" paint-order="fill stroke markers" d=" M 251.790482243984 179.83732514237585 L 256 190 L 260.209517756016 179.83732514237585 L 251.790482243984 179.83732514237585" stroke-miterlimit="10" stroke-dasharray=""/></g><g><path fill="none" stroke="#000000" paint-order="fill stroke markers" d=" M 270 226 L 270 244" stroke-miterlimit="10" stroke-dasharray=""/></g><g><path fill="#000000" stroke="none" paint-order="stroke fill markers" d=" M 265.790482243984 233.83732514237585 L 270 244 L 274.209517756016 233.83732514237585"/></g><g><path fill="none" stroke="#000000" paint-order="fill stroke markers" d=" M 265.790482243984 233.83732514237585 L 270 244 L 274.209517756016 233.83732514237585 L 265.790482243984 233.83732514237585" stroke-miterlimit="10" stroke-dasharray=""/></g><g><path fill="none" stroke="#000000" paint-order="fill stroke markers" d=" M 246 746 L 246 820" stroke-miterlimit="10" stroke-dasharray=""/></g><g><path fill="#000000" stroke="none" paint-order="stroke fill markers" d=" M 241.790482243984 809.8373251423759 L 246 820 L 250.209517756016 809.8373251423759"/></g><g><path fill="none" stroke="#000000" paint-order="fill stroke markers" d=" M 241.790482243984 809.8373251423759 L 246 820 L 250.209517756016 809.8373251423759 L 241.790482243984 809.8373251423759" stroke-miterlimit="10" stroke-dasharray=""/></g><g><path fill="#ffffff" stroke="none" paint-order="stroke fill markers" d=" M 82 370 L 460 370 Q 478 370 478 388 L 478 388 Q 478 406 460 406 L 82 406 Q 64 406 64 388 L 64 388 Q 64 370 82 370 Z"/></g><g><path fill="none" stroke="#000000" paint-order="fill stroke markers" d=" M 82 370 L 460 370 Q 478 370 478 388 L 478 388 Q 478 406 460 406 L 82 406 Q 64 406 64 388 L 64 388 Q 64 370 82 370 Z" stroke-miterlimit="10" stroke-dasharray=""/></g><g><g><path fill="none" stroke="none"/><text fill="#000000" stroke="none" font-family="Arial" font-size="16px" font-style="normal" font-weight="normal" text-decoration="undefined" x="459" y="450" text-anchor="middle" dominant-baseline="central" transform="matrix(1 0 0 1 -188 -62)">Указанный аккаунт не заблокирован в челлендже </text></g></g><g><path fill="none" stroke="#000000" paint-order="fill stroke markers" d=" M 266 296 L 266 370" stroke-miterlimit="10" stroke-dasharray=""/></g><g><path fill="#000000" stroke="none" paint-order="stroke fill markers" d=" M 261.790482243984 359.83732514237585 L 266 370 L 270.209517756016 359.83732514237585"/></g><g><path fill="none" stroke="#000000" paint-order="fill stroke markers" d=" M 261.790482243984 359.83732514237585 L 266 370 L 270.209517756016 359.83732514237585 L 261.790482243984 359.83732514237585" stroke-miterlimit="10" stroke-dasharray=""/></g><g><path fill="none" stroke="#000000" paint-order="fill stroke markers" d=" M 269 406 L 269 442" stroke-miterlimit="10" stroke-dasharray=""/></g><g><path fill="#000000" stroke="none" paint-order="stroke fill markers" d=" M 264.790482243984 431.83732514237585 L 269 442 L 273.209517756016 431.83732514237585"/></g><g><path fill="none" stroke="#000000" paint-order="fill stroke markers" d=" M 264.790482243984 431.83732514237585 L 269 442 L 273.209517756016 431.83732514237585 L 264.790482243984 431.83732514237585" stroke-miterlimit="10" stroke-dasharray=""/></g></g></svg>