<svg version="1.1" xmlns="http://www.w3.org/2000/svg" xmlns:xlink="http://www.w3.org/1999/xlink" width="597.1328125" height="126"><defs/><g><g><rect fill="#C0C0C0" stroke="none" x="421" y="403" width="242.15625" height="106" transform="matrix(1 0 0 1 -404 -386)" fill-opacity="0.2"/></g><g><rect fill="#ffffff" stroke="none" x="414" y="396" width="242.15625" height="106" transform="matrix(1 0 0 1 -404 -386)"/></g><g><path fill="none" stroke="#000000" paint-order="fill stroke markers" d=" M 10 10 L 252.15625 10 L 252.15625 116 L 10 116 L 10 10 Z Z" stroke-miterlimit="10" stroke-dasharray=""/></g><g><path fill="none" stroke="#000000" paint-order="fill stroke markers" d=" M 10 36 L 252.15625 36" stroke-miterlimit="10" stroke-dasharray=""/></g><g><path fill="none" stroke="#000000" paint-order="fill stroke markers" d=" M 42.2265625 36 L 42.2265625 116" stroke-miterlimit="10" stroke-dasharray=""/></g><g><path fill="none" stroke="#000000" paint-order="fill stroke markers" d=" M 161.5703125 36 L 161.5703125 116" stroke-miterlimit="10" stroke-dasharray=""/></g><g><g><path fill="none" stroke="none"/><text fill="#000000" stroke="none" font-family="Arial" font-size="16px" font-style="normal" font-weight="bold" text-decoration="undefined" x="535.078125" y="409" text-anchor="middle" dominant-baseline="central" transform="matrix(1 0 0 1 -404 -386)">User</text></g></g><g><g><path fill="none" stroke="none"/><text fill="#000000" stroke="none" font-family="Arial" font-size="16px" font-style="normal" font-weight="normal" text-decoration="undefined" x="419" y="427" text-anchor="start" dominant-baseline="text-before-edge" transform="matrix(1 0 0 1 -404 -386)">PK</text></g></g><g><g><path fill="none" stroke="none"/><text fill="#000000" stroke="none" font-family="Arial" font-size="16px" font-style="normal" font-weight="normal" text-decoration="undefined" x="451.2265625" y="427" text-anchor="start" dominant-baseline="text-before-edge" transform="matrix(1 0 0 1 -404 -386)">Id</text></g></g><g><g><path fill="none" stroke="none"/><text fill="#000000" stroke="none" font-family="Arial" font-size="16px" font-style="normal" font-weight="normal" text-decoration="undefined" x="570.5703125" y="427" text-anchor="start" dominant-baseline="text-before-edge" transform="matrix(1 0 0 1 -404 -386)">GUID</text></g></g><g><g><path fill="none" stroke="none"/><text fill="#000000" stroke="none" font-family="Arial" font-size="16px" font-style="normal" font-weight="normal" text-decoration="undefined" x="419" y="435" text-anchor="start" dominant-baseline="central" transform="matrix(1 0 0 1 -404 -386)"></text></g></g><g><g><path fill="none" stroke="none"/><text fill="#000000" stroke="none" font-family="Arial" font-size="16px" font-style="normal" font-weight="normal" text-decoration="undefined" x="419" y="445" text-anchor="start" dominant-baseline="text-before-edge" transform="matrix(1 0 0 1 -404 -386)"></text></g></g><g><g><path fill="none" stroke="none"/><text fill="#000000" stroke="none" font-family="Arial" font-size="16px" font-style="normal" font-weight="normal" text-decoration="undefined" x="451.2265625" y="445" text-anchor="start" dominant-baseline="text-before-edge" transform="matrix(1 0 0 1 -404 -386)">Name</text></g></g><g><g><path fill="none" stroke="none"/><text fill="#000000" stroke="none" font-family="Arial" font-size="16px" font-style="normal" font-weight="normal" text-decoration="undefined" x="570.5703125" y="445" text-anchor="start" dominant-baseline="text-before-edge" transform="matrix(1 0 0 1 -404 -386)"></text></g></g><g><g><path fill="none" stroke="none"/><text fill="#000000" stroke="none" font-family="Arial" font-size="16px" font-style="normal" font-weight="normal" text-decoration="undefined" x="419" y="453" text-anchor="start" dominant-baseline="central" transform="matrix(1 0 0 1 -404 -386)"></text></g></g><g><g><path fill="none" stroke="none"/><text fill="#000000" stroke="none" font-family="Arial" font-size="16px" font-style="normal" font-weight="normal" text-decoration="undefined" x="419" y="463" text-anchor="start" dominant-baseline="text-before-edge" transform="matrix(1 0 0 1 -404 -386)"></text></g></g><g><g><path fill="none" stroke="none"/><text fill="#000000" stroke="none" font-family="Arial" font-size="16px" font-style="normal" font-weight="normal" text-decoration="undefined" x="451.2265625" y="463" text-anchor="start" dominant-baseline="text-before-edge" transform="matrix(1 0 0 1 -404 -386)">PhoneNumber</text></g></g><g><g><path fill="none" stroke="none"/><text fill="#000000" stroke="none" font-family="Arial" font-size="16px" font-style="normal" font-weight="normal" text-decoration="undefined" x="570.5703125" y="463" text-anchor="start" dominant-baseline="text-before-edge" transform="matrix(1 0 0 1 -404 -386)"></text></g></g><g><g><path fill="none" stroke="none"/><text fill="#000000" stroke="none" font-family="Arial" font-size="16px" font-style="normal" font-weight="normal" text-decoration="undefined" x="419" y="471" text-anchor="start" dominant-baseline="central" transform="matrix(1 0 0 1 -404 -386)"></text></g></g><g><g><path fill="none" stroke="none"/><text fill="#000000" stroke="none" font-family="Arial" font-size="16px" font-style="normal" font-weight="normal" text-decoration="undefined" x="419" y="481" text-anchor="start" dominant-baseline="text-before-edge" transform="matrix(1 0 0 1 -404 -386)"></text></g></g><g><g><path fill="none" stroke="none"/><text fill="#000000" stroke="none" font-family="Arial" font-size="16px" font-style="normal" font-weight="normal" text-decoration="undefined" x="451.2265625" y="481" text-anchor="start" dominant-baseline="text-before-edge" transform="matrix(1 0 0 1 -404 -386)">CreatedAt</text></g></g><g><g><path fill="none" stroke="none"/><text fill="#000000" stroke="none" font-family="Arial" font-size="16px" font-style="normal" font-weight="normal" text-decoration="undefined" x="570.5703125" y="481" text-anchor="start" dominant-baseline="text-before-edge" transform="matrix(1 0 0 1 -404 -386)">DATETIME</text></g></g><g><g><path fill="none" stroke="none"/><text fill="#000000" stroke="none" font-family="Arial" font-size="16px" font-style="normal" font-weight="normal" text-decoration="undefined" x="419" y="489" text-anchor="start" dominant-baseline="central" transform="matrix(1 0 0 1 -404 -386)"></text></g></g><g><rect fill="#C0C0C0" stroke="none" x="817" y="403" width="181.1328125" height="106" transform="matrix(1 0 0 1 -404 -386)" fill-opacity="0.2"/></g><g><rect fill="#ffffff" stroke="none" x="810" y="396" width="181.1328125" height="106" transform="matrix(1 0 0 1 -404 -386)"/></g><g><path fill="none" stroke="#000000" paint-order="fill stroke markers" d=" M 406 10 L 587.1328125 10 L 587.1328125 116 L 406 116 L 406 10 Z Z" stroke-miterlimit="10" stroke-dasharray=""/></g><g><path fill="none" stroke="#000000" paint-order="fill stroke markers" d=" M 406 36 L 587.1328125 36" stroke-miterlimit="10" stroke-dasharray=""/></g><g><path fill="none" stroke="#000000" paint-order="fill stroke markers" d=" M 438.2265625 36 L 438.2265625 116" stroke-miterlimit="10" stroke-dasharray=""/></g><g><path fill="none" stroke="#000000" paint-order="fill stroke markers" d=" M 536.2421875 36 L 536.2421875 116" stroke-miterlimit="10" stroke-dasharray=""/></g><g><g><path fill="none" stroke="none"/><text fill="#000000" stroke="none" font-family="Arial" font-size="16px" font-style="normal" font-weight="bold" text-decoration="undefined" x="900.56640625" y="409" text-anchor="middle" dominant-baseline="central" transform="matrix(1 0 0 1 -404 -386)">TeamActionTemplate</text></g></g><g><g><path fill="none" stroke="none"/><text fill="#000000" stroke="none" font-family="Arial" font-size="16px" font-style="normal" font-weight="normal" text-decoration="undefined" x="815" y="427" text-anchor="start" dominant-baseline="text-before-edge" transform="matrix(1 0 0 1 -404 -386)">PK</text></g></g><g><g><path fill="none" stroke="none"/><text fill="#000000" stroke="none" font-family="Arial" font-size="16px" font-style="normal" font-weight="normal" text-decoration="undefined" x="847.2265625" y="427" text-anchor="start" dominant-baseline="text-before-edge" transform="matrix(1 0 0 1 -404 -386)">Id</text></g></g><g><g><path fill="none" stroke="none"/><text fill="#000000" stroke="none" font-family="Arial" font-size="16px" font-style="normal" font-weight="normal" text-decoration="undefined" x="945.2421875" y="427" text-anchor="start" dominant-baseline="text-before-edge" transform="matrix(1 0 0 1 -404 -386)">GUID</text></g></g><g><g><path fill="none" stroke="none"/><text fill="#000000" stroke="none" font-family="Arial" font-size="16px" font-style="normal" font-weight="normal" text-decoration="undefined" x="815" y="435" text-anchor="start" dominant-baseline="central" transform="matrix(1 0 0 1 -404 -386)"></text></g></g><g><g><path fill="none" stroke="none"/><text fill="#000000" stroke="none" font-family="Arial" font-size="16px" font-style="normal" font-weight="normal" text-decoration="undefined" x="815" y="445" text-anchor="start" dominant-baseline="text-before-edge" transform="matrix(1 0 0 1 -404 -386)"></text></g></g><g><g><path fill="none" stroke="none"/><text fill="#000000" stroke="none" font-family="Arial" font-size="16px" font-style="normal" font-weight="normal" text-decoration="undefined" x="847.2265625" y="445" text-anchor="start" dominant-baseline="text-before-edge" transform="matrix(1 0 0 1 -404 -386)">Name</text></g></g><g><g><path fill="none" stroke="none"/><text fill="#000000" stroke="none" font-family="Arial" font-size="16px" font-style="normal" font-weight="normal" text-decoration="undefined" x="945.2421875" y="445" text-anchor="start" dominant-baseline="text-before-edge" transform="matrix(1 0 0 1 -404 -386)">TEXT</text></g></g><g><g><path fill="none" stroke="none"/><text fill="#000000" stroke="none" font-family="Arial" font-size="16px" font-style="normal" font-weight="normal" text-decoration="undefined" x="815" y="453" text-anchor="start" dominant-baseline="central" transform="matrix(1 0 0 1 -404 -386)"></text></g></g><g><g><path fill="none" stroke="none"/><text fill="#000000" stroke="none" font-family="Arial" font-size="16px" font-style="normal" font-weight="normal" text-decoration="undefined" x="815" y="463" text-anchor="start" dominant-baseline="text-before-edge" transform="matrix(1 0 0 1 -404 -386)"></text></g></g><g><g><path fill="none" stroke="none"/><text fill="#000000" stroke="none" font-family="Arial" font-size="16px" font-style="normal" font-weight="normal" text-decoration="undefined" x="847.2265625" y="463" text-anchor="start" dominant-baseline="text-before-edge" transform="matrix(1 0 0 1 -404 -386)">Description</text></g></g><g><g><path fill="none" stroke="none"/><text fill="#000000" stroke="none" font-family="Arial" font-size="16px" font-style="normal" font-weight="normal" text-decoration="undefined" x="945.2421875" y="463" text-anchor="start" dominant-baseline="text-before-edge" transform="matrix(1 0 0 1 -404 -386)">TEXT</text></g></g><g><g><path fill="none" stroke="none"/><text fill="#000000" stroke="none" font-family="Arial" font-size="16px" font-style="normal" font-weight="normal" text-decoration="undefined" x="815" y="471" text-anchor="start" dominant-baseline="central" transform="matrix(1 0 0 1 -404 -386)"></text></g></g><g><g><path fill="none" stroke="none"/><text fill="#000000" stroke="none" font-family="Arial" font-size="16px" font-style="normal" font-weight="normal" text-decoration="undefined" x="815" y="481" text-anchor="start" dominant-baseline="text-before-edge" transform="matrix(1 0 0 1 -404 -386)">FK</text></g></g><g><g><path fill="none" stroke="none"/><text fill="#000000" stroke="none" font-family="Arial" font-size="16px" font-style="normal" font-weight="normal" text-decoration="undefined" x="847.2265625" y="481" text-anchor="start" dominant-baseline="text-before-edge" transform="matrix(1 0 0 1 -404 -386)">UserId</text></g></g><g><g><path fill="none" stroke="none"/><text fill="#000000" stroke="none" font-family="Arial" font-size="16px" font-style="normal" font-weight="normal" text-decoration="undefined" x="945.2421875" y="481" text-anchor="start" dominant-baseline="text-before-edge" transform="matrix(1 0 0 1 -404 -386)">GUID</text></g></g><g><g><path fill="none" stroke="none"/><text fill="#000000" stroke="none" font-family="Arial" font-size="16px" font-style="normal" font-weight="normal" text-decoration="undefined" x="815" y="489" text-anchor="start" dominant-baseline="central" transform="matrix(1 0 0 1 -404 -386)"></text></g></g><g><path fill="none" stroke="#000000" paint-order="fill stroke markers" d=" M 252 63 L 406 63" stroke-miterlimit="10" stroke-dasharray=""/></g><g><path fill="none" stroke="#000000" paint-order="fill stroke markers" d=" M 392 63 L 406 70" stroke-miterlimit="10" stroke-dasharray=""/></g><g><path fill="none" stroke="#000000" paint-order="fill stroke markers" d=" M 392 63 L 406 56" stroke-miterlimit="10" stroke-dasharray=""/></g><g><path fill="#FFFFFF" stroke="none" paint-order="stroke fill markers" d=" M 377 63 C 377 59.134006399999976 380.1340064 56 384 56 C 387.8659936 56 391 59.134006399999976 391 63 C 391 66.86599360000002 387.8659936 70 384 70 C 380.1340064 70 377 66.86599360000002 377 63 Z"/></g><g><path fill="none" stroke="#000000" paint-order="fill stroke markers" d=" M 377 63 C 377 59.134006399999976 380.1340064 56 384 56 C 387.8659936 56 391 59.134006399999976 391 63 C 391 66.86599360000002 387.8659936 70 384 70 C 380.1340064 70 377 66.86599360000002 377 63 Z" stroke-miterlimit="10" stroke-dasharray=""/></g><g><path fill="none" stroke="#000000" paint-order="fill stroke markers" d=" M 259 56 L 259 70" stroke-miterlimit="10" stroke-dasharray=""/></g><g><path fill="none" stroke="#000000" paint-order="fill stroke markers" d=" M 266 56 L 266 70" stroke-miterlimit="10" stroke-dasharray=""/></g><g><rect fill="#ffffff" stroke="none" x="681" y="426" width="0" height="16" transform="matrix(1 0 0 1 -404 -386)"/></g><g><g><path fill="none" stroke="none"/><text fill="#000000" stroke="none" font-family="Arial" font-size="16px" font-style="normal" font-weight="normal" text-decoration="undefined" x="681" y="434" text-anchor="middle" dominant-baseline="central" transform="matrix(1 0 0 1 -404 -386)"></text></g></g><g><rect fill="#ffffff" stroke="none" x="784" y="426" width="0" height="16" transform="matrix(1 0 0 1 -404 -386)"/></g><g><g><path fill="none" stroke="none"/><text fill="#000000" stroke="none" font-family="Arial" font-size="16px" font-style="normal" font-weight="normal" text-decoration="undefined" x="784" y="434" text-anchor="middle" dominant-baseline="central" transform="matrix(1 0 0 1 -404 -386)"></text></g></g></g></svg>