<svg version="1.1" xmlns="http://www.w3.org/2000/svg" xmlns:xlink="http://www.w3.org/1999/xlink" width="2180" height="808.71875"><defs/><g><g><path fill="none" stroke="#000000" paint-order="fill stroke markers" d=" M 10 10 L 2170 10 L 2170 298 L 10 298 L 10 10 Z Z" stroke-miterlimit="10" stroke-dasharray=""/></g><g><path fill="none" stroke="#000000" paint-order="fill stroke markers" d=" M 36 10 L 36 298" stroke-miterlimit="10" stroke-dasharray=""/></g><g><g><path fill="none" stroke="none"/><text fill="#000000" stroke="none" font-family="Arial" font-size="16px" font-style="normal" font-weight="normal" text-decoration="undefined" x="0" y="0" text-anchor="middle" dominant-baseline="text-before-edge" transform="matrix(6.123233995736766e-17 -1 1 6.123233995736766e-17 15 154)">Админ КД</text></g></g><g><path fill="#C0C0C0" stroke="none" paint-order="stroke fill markers" d=" M 179 141 C 179 132.1634432 186.1634432 125 195 125 C 203.83655679999998 125 211 132.1634432 211 141 C 211 149.8365568 203.83655679999998 157 195 157 C 186.1634432 157 179 149.8365568 179 141 Z" fill-opacity="0.2"/></g><g><path fill="#ffffff" stroke="none" paint-order="stroke fill markers" d=" M 172 134 C 172 125.16344319999999 179.1634432 118 188 118 C 196.83655679999998 118 204 125.16344319999999 204 134 C 204 142.8365568 196.83655679999998 150 188 150 C 179.1634432 150 172 142.8365568 172 134 Z"/></g><g><path fill="none" stroke="#000000" paint-order="fill stroke markers" d=" M 172 134 C 172 125.16344319999999 179.1634432 118 188 118 C 196.83655679999998 118 204 125.16344319999999 204 134 C 204 142.8365568 196.83655679999998 150 188 150 C 179.1634432 150 172 142.8365568 172 134 Z" stroke-miterlimit="10" stroke-dasharray=""/></g><g><rect fill="#ffffff" stroke="none" x="129.796875" y="260" width="240.40625" height="16" transform="matrix(1 0 0 1 -62 -98)"/></g><g><g><path fill="none" stroke="none"/><text fill="#000000" stroke="none" font-family="Arial" font-size="16px" font-style="normal" font-weight="normal" text-decoration="undefined" x="250" y="268" text-anchor="middle" dominant-baseline="central" transform="matrix(1 0 0 1 -62 -98)">Открыть настройки КД</text></g></g><g><path fill="#C0C0C0" stroke="none" paint-order="stroke fill markers" d=" M 819 161 L 961 161 Q 971 161 971 171 L 971 223 Q 971 233 961 233 L 819 233 Q 809 233 809 223 L 809 171 Q 809 161 819 161 Z" fill-opacity="0.2"/></g><g><path fill="#ffffff" stroke="none" paint-order="stroke fill markers" d=" M 812 154 L 954 154 Q 964 154 964 164 L 964 216 Q 964 226 954 226 L 812 226 Q 802 226 802 216 L 802 164 Q 802 154 812 154 Z"/></g><g><path fill="none" stroke="#000000" paint-order="fill stroke markers" d=" M 812 154 L 954 154 Q 964 154 964 164 L 964 216 Q 964 226 954 226 L 812 226 Q 802 226 802 216 L 802 164 Q 802 154 812 154 Z" stroke-miterlimit="10" stroke-dasharray=""/></g><g><path fill="none" stroke="#000000" paint-order="fill stroke markers" d=" M 812 163 C 812 161.3431456 813.3431456 160 815 160 C 816.6568544 160 818 161.3431456 818 163 C 818 164.6568544 816.6568544 166 815 166 C 813.3431456 166 812 164.6568544 812 163 Z" stroke-miterlimit="10" stroke-dasharray=""/></g><g><path fill="none" stroke="#000000" paint-order="fill stroke markers" d=" M 810 167 L 820 167 L 820 174 L 810 174 L 810 167 Z Z" stroke-miterlimit="10" stroke-dasharray=""/></g><g><g><path fill="none" stroke="none"/><text fill="#000000" stroke="none" font-family="Arial" font-size="16px" font-style="normal" font-weight="normal" text-decoration="undefined" x="945" y="280" text-anchor="middle" dominant-baseline="central" transform="matrix(1 0 0 1 -62 -98)">Нажать кнопку</text><text fill="#000000" stroke="none" font-family="Arial" font-size="16px" font-style="normal" font-weight="normal" text-decoration="undefined" x="945" y="296" text-anchor="middle" dominant-baseline="central" transform="matrix(1 0 0 1 -62 -98)">"Создать ссылку"</text></g></g><g><path fill="none" stroke="#000000" paint-order="fill stroke markers" d=" M 10 334 L 2170 334 L 2170 622 L 10 622 L 10 334 Z Z" stroke-miterlimit="10" stroke-dasharray=""/></g><g><path fill="none" stroke="#000000" paint-order="fill stroke markers" d=" M 36 334 L 36 622" stroke-miterlimit="10" stroke-dasharray=""/></g><g><g><path fill="none" stroke="none"/><text fill="#000000" stroke="none" font-family="Arial" font-size="16px" font-style="normal" font-weight="normal" text-decoration="undefined" x="0" y="0" text-anchor="middle" dominant-baseline="text-before-edge" transform="matrix(6.123233995736766e-17 -1 1 6.123233995736766e-17 15 478)">Api</text></g></g><g><path fill="#C0C0C0" stroke="none" paint-order="stroke fill markers" d=" M 981 431 L 1082.8359375 431 Q 1092.8359375 431 1092.8359375 441 L 1092.8359375 463 Q 1092.8359375 473 1082.8359375 473 L 981 473 Q 971 473 971 463 L 971 441 Q 971 431 981 431 Z" fill-opacity="0.2"/></g><g><path fill="#ffffff" stroke="none" paint-order="stroke fill markers" d=" M 974 424 L 1075.8359375 424 Q 1085.8359375 424 1085.8359375 434 L 1085.8359375 456 Q 1085.8359375 466 1075.8359375 466 L 974 466 Q 964 466 964 456 L 964 434 Q 964 424 974 424 Z"/></g><g><path fill="none" stroke="#000000" paint-order="fill stroke markers" d=" M 974 424 L 1075.8359375 424 Q 1085.8359375 424 1085.8359375 434 L 1085.8359375 456 Q 1085.8359375 466 1075.8359375 466 L 974 466 Q 964 466 964 456 L 964 434 Q 964 424 974 424 Z" stroke-miterlimit="10" stroke-dasharray=""/></g><g><g><path fill="none" stroke="none"/><text fill="#000000" stroke="none" font-family="Arial" font-size="16px" font-style="normal" font-weight="normal" text-decoration="undefined" x="1086.91796875" y="535" text-anchor="middle" dominant-baseline="central" transform="matrix(1 0 0 1 -62 -98)">Сгенерировать</text><text fill="#000000" stroke="none" font-family="Arial" font-size="16px" font-style="normal" font-weight="normal" text-decoration="undefined" x="1086.91796875" y="551" text-anchor="middle" dominant-baseline="central" transform="matrix(1 0 0 1 -62 -98)">новый роут</text></g></g><g><path fill="#C0C0C0" stroke="none" paint-order="stroke fill markers" d=" M 1197 413 L 1275.0234375 413 Q 1285.0234375 413 1285.0234375 423 L 1285.0234375 477 Q 1285.0234375 487 1275.0234375 487 L 1197 487 Q 1187 487 1187 477 L 1187 423 Q 1187 413 1197 413 Z" fill-opacity="0.2"/></g><g><path fill="#ffffff" stroke="none" paint-order="stroke fill markers" d=" M 1190 406 L 1268.0234375 406 Q 1278.0234375 406 1278.0234375 416 L 1278.0234375 470 Q 1278.0234375 480 1268.0234375 480 L 1190 480 Q 1180 480 1180 470 L 1180 416 Q 1180 406 1190 406 Z"/></g><g><path fill="none" stroke="#000000" paint-order="fill stroke markers" d=" M 1190 406 L 1268.0234375 406 Q 1278.0234375 406 1278.0234375 416 L 1278.0234375 470 Q 1278.0234375 480 1268.0234375 480 L 1190 480 Q 1180 480 1180 470 L 1180 416 Q 1180 406 1190 406 Z" stroke-miterlimit="10" stroke-dasharray=""/></g><g><g><path fill="none" stroke="none"/><text fill="#000000" stroke="none" font-family="Arial" font-size="16px" font-style="normal" font-weight="normal" text-decoration="undefined" x="1291.01171875" y="533" text-anchor="middle" dominant-baseline="central" transform="matrix(1 0 0 1 -62 -98)">Удалить</text><text fill="#000000" stroke="none" font-family="Arial" font-size="16px" font-style="normal" font-weight="normal" text-decoration="undefined" x="1291.01171875" y="549" text-anchor="middle" dominant-baseline="central" transform="matrix(1 0 0 1 -62 -98)">старый роут</text></g></g><g><path fill="#C0C0C0" stroke="none" paint-order="stroke fill markers" d=" M 1557 413 L 1635.0234375 413 Q 1645.0234375 413 1645.0234375 423 L 1645.0234375 477 Q 1645.0234375 487 1635.0234375 487 L 1557 487 Q 1547 487 1547 477 L 1547 423 Q 1547 413 1557 413 Z" fill-opacity="0.2"/></g><g><path fill="#ffffff" stroke="none" paint-order="stroke fill markers" d=" M 1550 406 L 1628.0234375 406 Q 1638.0234375 406 1638.0234375 416 L 1638.0234375 470 Q 1638.0234375 480 1628.0234375 480 L 1550 480 Q 1540 480 1540 470 L 1540 416 Q 1540 406 1550 406 Z"/></g><g><path fill="none" stroke="#000000" paint-order="fill stroke markers" d=" M 1550 406 L 1628.0234375 406 Q 1638.0234375 406 1638.0234375 416 L 1638.0234375 470 Q 1638.0234375 480 1628.0234375 480 L 1550 480 Q 1540 480 1540 470 L 1540 416 Q 1540 406 1550 406 Z" stroke-miterlimit="10" stroke-dasharray=""/></g><g><g><path fill="none" stroke="none"/><text fill="#000000" stroke="none" font-family="Arial" font-size="16px" font-style="normal" font-weight="normal" text-decoration="undefined" x="1651.01171875" y="517" text-anchor="middle" dominant-baseline="central" transform="matrix(1 0 0 1 -62 -98)">Записать</text><text fill="#000000" stroke="none" font-family="Arial" font-size="16px" font-style="normal" font-weight="normal" text-decoration="undefined" x="1651.01171875" y="533" text-anchor="middle" dominant-baseline="central" transform="matrix(1 0 0 1 -62 -98)">новый роут и</text><text fill="#000000" stroke="none" font-family="Arial" font-size="16px" font-style="normal" font-weight="normal" text-decoration="undefined" x="1651.01171875" y="549" text-anchor="middle" dominant-baseline="central" transform="matrix(1 0 0 1 -62 -98)">привязать</text><text fill="#000000" stroke="none" font-family="Arial" font-size="16px" font-style="normal" font-weight="normal" text-decoration="undefined" x="1651.01171875" y="565" text-anchor="middle" dominant-baseline="central" transform="matrix(1 0 0 1 -62 -98)">его к КД</text></g></g><g><path fill="#C0C0C0" stroke="none" paint-order="stroke fill markers" d=" M 1763 71 L 1785.4 71 L 1795 80.6 L 1795 111 L 1763 111" fill-opacity="0.2"/></g><g><path fill="#ffffff" stroke="none" paint-order="stroke fill markers" d=" M 1756 64 L 1778.4 64 L 1788 73.6 L 1788 104 L 1756 104"/></g><g><path fill="none" stroke="#000000" paint-order="fill stroke markers" d=" M 1756 64 L 1778.4 64 L 1788 73.6 L 1788 104 L 1756 104 L 1756 64" stroke-miterlimit="10" stroke-dasharray=""/></g><g><path fill="none" stroke="#000000" paint-order="fill stroke markers" d=" M 1778.4 64 L 1778.4 73.6 L 1788 73.6 L 1778.4 64" stroke-miterlimit="10" stroke-dasharray=""/></g><g><rect fill="#ffffff" stroke="none" x="1766.41796875" y="210" width="135.1640625" height="16" transform="matrix(1 0 0 1 -62 -98)"/></g><g><g><path fill="none" stroke="none"/><text fill="#000000" stroke="none" font-family="Arial" font-size="16px" font-style="normal" font-weight="normal" text-decoration="undefined" x="1834" y="218" text-anchor="middle" dominant-baseline="central" transform="matrix(1 0 0 1 -62 -98)">Новая ссылка</text></g></g><g><path fill="#C0C0C0" stroke="none" paint-order="stroke fill markers" d=" M 1943 87 C 1943 78.16344319999999 1950.1634432 71 1959 71 C 1967.8365568 71 1975 78.16344319999999 1975 87 C 1975 95.83655680000001 1967.8365568 103 1959 103 C 1950.1634432 103 1943 95.83655680000001 1943 87 Z" fill-opacity="0.2"/></g><g><path fill="#ffffff" stroke="none" paint-order="stroke fill markers" d=" M 1936 80 C 1936 71.16344319999999 1943.1634432 64 1952 64 C 1960.8365568 64 1968 71.16344319999999 1968 80 C 1968 88.83655680000001 1960.8365568 96 1952 96 C 1943.1634432 96 1936 88.83655680000001 1936 80 Z"/></g><g><path fill="none" stroke="#000000" paint-order="fill stroke markers" d=" M 1936 80 C 1936 71.16344319999999 1943.1634432 64 1952 64 C 1960.8365568 64 1968 71.16344319999999 1968 80 C 1968 88.83655680000001 1960.8365568 96 1952 96 C 1943.1634432 96 1936 88.83655680000001 1936 80 Z" stroke-miterlimit="10" stroke-width="3" stroke-dasharray=""/></g><g><rect fill="#ffffff" stroke="none" x="1902.86328125" y="206" width="222.2734375" height="16" transform="matrix(1 0 0 1 -62 -98)"/></g><g><g><path fill="none" stroke="none"/><text fill="#000000" stroke="none" font-family="Arial" font-size="16px" font-style="normal" font-weight="normal" text-decoration="undefined" x="2014" y="214" text-anchor="middle" dominant-baseline="central" transform="matrix(1 0 0 1 -62 -98)">Генерация ссылки завершена</text></g></g><g><path fill="none" stroke="#000000" paint-order="fill stroke markers" d=" M 1638 443 L 1757 443 L 1757 443 A 8 8 0 0 0 1765 435 L 1765 104" stroke-miterlimit="10" stroke-dasharray=""/></g><g><path fill="#000000" stroke="none" paint-order="stroke fill markers" d=" M 1769.2095177560159 114.16267485762415 L 1765 104 L 1760.7904822439841 114.16267485762415"/></g><g><path fill="none" stroke="#000000" paint-order="fill stroke markers" d=" M 1769.2095177560159 114.16267485762415 L 1765 104 L 1760.7904822439841 114.16267485762415 L 1769.2095177560159 114.16267485762415" stroke-miterlimit="10" stroke-dasharray=""/></g><g><path fill="none" stroke="#000000" paint-order="fill stroke markers" d=" M 1788 84 L 1936 84" stroke-miterlimit="10" stroke-dasharray=""/></g><g><path fill="#000000" stroke="none" paint-order="stroke fill markers" d=" M 1925.837325142376 88.209517756016 L 1936 84 L 1925.837325142376 79.790482243984"/></g><g><path fill="none" stroke="#000000" paint-order="fill stroke markers" d=" M 1925.837325142376 88.209517756016 L 1936 84 L 1925.837325142376 79.790482243984 L 1925.837325142376 88.209517756016" stroke-miterlimit="10" stroke-dasharray=""/></g><g><path fill="none" stroke="#000000" paint-order="fill stroke markers" d=" M 1278 425 L 1540 425" stroke-miterlimit="10" stroke-dasharray=""/></g><g><path fill="#000000" stroke="none" paint-order="stroke fill markers" d=" M 1529.837325142376 429.209517756016 L 1540 425 L 1529.837325142376 420.790482243984"/></g><g><path fill="none" stroke="#000000" paint-order="fill stroke markers" d=" M 1529.837325142376 429.209517756016 L 1540 425 L 1529.837325142376 420.790482243984 L 1529.837325142376 429.209517756016" stroke-miterlimit="10" stroke-dasharray=""/></g><g><path fill="none" stroke="#000000" paint-order="fill stroke markers" d=" M 864 226 L 864 416 L 864 416 A 8 8 0 0 0 872 424 L 964 424" stroke-miterlimit="10" stroke-dasharray=""/></g><g><path fill="#000000" stroke="none" paint-order="stroke fill markers" d=" M 953.8373251423759 428.209517756016 L 964 424 L 953.8373251423758 419.790482243984"/></g><g><path fill="none" stroke="#000000" paint-order="fill stroke markers" d=" M 953.8373251423759 428.209517756016 L 964 424 L 953.8373251423758 419.790482243984 L 953.8373251423759 428.209517756016" stroke-miterlimit="10" stroke-dasharray=""/></g><g><path fill="none" stroke="#000000" paint-order="fill stroke markers" d=" M 10 658 L 2170 658 L 2170 798.71875 L 10 798.71875 L 10 658 Z Z" stroke-miterlimit="10" stroke-dasharray=""/></g><g><path fill="none" stroke="#000000" paint-order="fill stroke markers" d=" M 36 658 L 36 798.71875" stroke-miterlimit="10" stroke-dasharray=""/></g><g><g><path fill="none" stroke="none"/><text fill="#000000" stroke="none" font-family="Arial" font-size="16px" font-style="normal" font-weight="normal" text-decoration="undefined" x="0" y="0" text-anchor="middle" dominant-baseline="text-before-edge" transform="matrix(6.123233995736766e-17 -1 1 6.123233995736766e-17 15 728.359375)">База данных</text></g></g><g><path fill="none" stroke="#000000" paint-order="fill stroke markers" d=" M 1216 480 L 1216 658" stroke-miterlimit="10" stroke-dasharray=""/></g><g><path fill="#000000" stroke="none" paint-order="stroke fill markers" d=" M 1211.7904822439841 647.8373251423759 L 1216 658 L 1220.2095177560159 647.8373251423759"/></g><g><path fill="none" stroke="#000000" paint-order="fill stroke markers" d=" M 1211.7904822439841 647.8373251423759 L 1216 658 L 1220.2095177560159 647.8373251423759 L 1211.7904822439841 647.8373251423759" stroke-miterlimit="10" stroke-dasharray=""/></g><g><path fill="none" stroke="#000000" paint-order="fill stroke markers" d=" M 1594 480 L 1594 658" stroke-miterlimit="10" stroke-dasharray=""/></g><g><path fill="#000000" stroke="none" paint-order="stroke fill markers" d=" M 1589.7904822439841 647.8373251423759 L 1594 658 L 1598.2095177560159 647.8373251423759"/></g><g><path fill="none" stroke="#000000" paint-order="fill stroke markers" d=" M 1589.7904822439841 647.8373251423759 L 1594 658 L 1598.2095177560159 647.8373251423759 L 1589.7904822439841 647.8373251423759" stroke-miterlimit="10" stroke-dasharray=""/></g><g><path fill="#C0C0C0" stroke="none" paint-order="stroke fill markers" d=" M 333 125 L 420.9609375 125 Q 430.9609375 125 430.9609375 135 L 430.9609375 157 Q 430.9609375 167 420.9609375 167 L 333 167 Q 323 167 323 157 L 323 135 Q 323 125 333 125 Z" fill-opacity="0.2"/></g><g><path fill="#ffffff" stroke="none" paint-order="stroke fill markers" d=" M 326 118 L 413.9609375 118 Q 423.9609375 118 423.9609375 128 L 423.9609375 150 Q 423.9609375 160 413.9609375 160 L 326 160 Q 316 160 316 150 L 316 128 Q 316 118 326 118 Z"/></g><g><path fill="none" stroke="#000000" paint-order="fill stroke markers" d=" M 326 118 L 413.9609375 118 Q 423.9609375 118 423.9609375 128 L 423.9609375 150 Q 423.9609375 160 413.9609375 160 L 326 160 Q 316 160 316 150 L 316 128 Q 316 118 326 118 Z" stroke-miterlimit="10" stroke-dasharray=""/></g><g><g><path fill="none" stroke="none"/><text fill="#000000" stroke="none" font-family="Arial" font-size="16px" font-style="normal" font-weight="normal" text-decoration="undefined" x="431.98046875" y="229" text-anchor="middle" dominant-baseline="central" transform="matrix(1 0 0 1 -62 -98)">Информация</text><text fill="#000000" stroke="none" font-family="Arial" font-size="16px" font-style="normal" font-weight="normal" text-decoration="undefined" x="431.98046875" y="245" text-anchor="middle" dominant-baseline="central" transform="matrix(1 0 0 1 -62 -98)">об КД</text></g></g><g><path fill="#C0C0C0" stroke="none" paint-order="stroke fill markers" d=" M 441 449 L 529.734375 449 Q 539.734375 449 539.734375 459 L 539.734375 497 Q 539.734375 507 529.734375 507 L 441 507 Q 431 507 431 497 L 431 459 Q 431 449 441 449 Z" fill-opacity="0.2"/></g><g><path fill="#ffffff" stroke="none" paint-order="stroke fill markers" d=" M 434 442 L 522.734375 442 Q 532.734375 442 532.734375 452 L 532.734375 490 Q 532.734375 500 522.734375 500 L 434 500 Q 424 500 424 490 L 424 452 Q 424 442 434 442 Z"/></g><g><path fill="none" stroke="#000000" paint-order="fill stroke markers" d=" M 434 442 L 522.734375 442 Q 532.734375 442 532.734375 452 L 532.734375 490 Q 532.734375 500 522.734375 500 L 434 500 Q 424 500 424 490 L 424 452 Q 424 442 434 442 Z" stroke-miterlimit="10" stroke-dasharray=""/></g><g><g><path fill="none" stroke="none"/><text fill="#000000" stroke="none" font-family="Arial" font-size="16px" font-style="normal" font-weight="normal" text-decoration="undefined" x="540.3671875" y="553" text-anchor="middle" dominant-baseline="central" transform="matrix(1 0 0 1 -62 -98)">Извлекаем</text><text fill="#000000" stroke="none" font-family="Arial" font-size="16px" font-style="normal" font-weight="normal" text-decoration="undefined" x="540.3671875" y="569" text-anchor="middle" dominant-baseline="central" transform="matrix(1 0 0 1 -62 -98)">информацию</text><text fill="#000000" stroke="none" font-family="Arial" font-size="16px" font-style="normal" font-weight="normal" text-decoration="undefined" x="540.3671875" y="585" text-anchor="middle" dominant-baseline="central" transform="matrix(1 0 0 1 -62 -98)">про КД</text></g></g><g><path fill="#C0C0C0" stroke="none" paint-order="stroke fill markers" d=" M 593 177 L 609 161 L 625 177 L 609 193 L 593 177" fill-opacity="0.2"/></g><g><path fill="#ffffff" stroke="none" paint-order="stroke fill markers" d=" M 586 170 L 602 154 L 618 170 L 602 186 L 586 170"/></g><g><path fill="none" stroke="#000000" paint-order="fill stroke markers" d=" M 586 170 L 602 154 L 618 170 L 602 186 L 586 170 L 586 170" stroke-miterlimit="10" stroke-dasharray=""/></g><g><rect fill="#ffffff" stroke="none" x="502.73828125" y="296" width="322.5234375" height="16" transform="matrix(1 0 0 1 -62 -98)"/></g><g><g><path fill="none" stroke="none"/><text fill="#000000" stroke="none" font-family="Arial" font-size="16px" font-style="normal" font-weight="normal" text-decoration="undefined" x="664" y="304" text-anchor="middle" dominant-baseline="central" transform="matrix(1 0 0 1 -62 -98)">Сообщество КД публичное или глобальное</text></g></g><g><path fill="none" stroke="#000000" paint-order="fill stroke markers" d=" M 618 184 L 802 184" stroke-miterlimit="10" stroke-dasharray=""/></g><g><path fill="#000000" stroke="none" paint-order="stroke fill markers" d=" M 791.8373251423759 188.209517756016 L 802 184 L 791.8373251423758 179.790482243984"/></g><g><path fill="none" stroke="#000000" paint-order="fill stroke markers" d=" M 791.8373251423759 188.209517756016 L 802 184 L 791.8373251423758 179.790482243984 L 791.8373251423759 188.209517756016" stroke-miterlimit="10" stroke-dasharray=""/></g><g><rect fill="#ffffff" stroke="none" x="763" y="259" width="19.734375" height="16" transform="matrix(1 0 0 1 -62 -98)"/></g><g><g><path fill="none" stroke="none"/><text fill="#000000" stroke="none" font-family="Arial" font-size="16px" font-style="normal" font-weight="normal" text-decoration="undefined" x="772.8671875" y="267" text-anchor="middle" dominant-baseline="central" transform="matrix(1 0 0 1 -62 -98)">Да</text></g></g><g><path fill="#C0C0C0" stroke="none" paint-order="stroke fill markers" d=" M 863 69 C 863 60.16344319999999 870.1634432 53 879 53 C 887.8365568 53 895 60.16344319999999 895 69 C 895 77.83655680000001 887.8365568 85 879 85 C 870.1634432 85 863 77.83655680000001 863 69 Z" fill-opacity="0.2"/></g><g><path fill="#ffffff" stroke="none" paint-order="stroke fill markers" d=" M 856 62 C 856 53.16344319999999 863.1634432 46 872 46 C 880.8365568 46 888 53.16344319999999 888 62 C 888 70.83655680000001 880.8365568 78 872 78 C 863.1634432 78 856 70.83655680000001 856 62 Z"/></g><g><path fill="none" stroke="#000000" paint-order="fill stroke markers" d=" M 856 62 C 856 53.16344319999999 863.1634432 46 872 46 C 880.8365568 46 888 53.16344319999999 888 62 C 888 70.83655680000001 880.8365568 78 872 78 C 863.1634432 78 856 70.83655680000001 856 62 Z" stroke-miterlimit="10" stroke-dasharray=""/></g><g><path fill="none" stroke="#000000" paint-order="fill stroke markers" d=" M 859 62 C 859 54.8202976 864.8202976 49 872 49 C 879.1797024 49 885 54.8202976 885 62 C 885 69.1797024 879.1797024 75 872 75 C 864.8202976 75 859 69.1797024 859 62 Z" stroke-miterlimit="10" stroke-dasharray=""/></g><g><rect fill="#ffffff" stroke="none" x="802.9140625" y="188" width="262.171875" height="16" transform="matrix(1 0 0 1 -62 -98)"/></g><g><g><path fill="none" stroke="none"/><text fill="#000000" stroke="none" font-family="Arial" font-size="16px" font-style="normal" font-weight="normal" text-decoration="undefined" x="934" y="196" text-anchor="middle" dominant-baseline="central" transform="matrix(1 0 0 1 -62 -98)">Невозможно сгенерировать ссылку</text></g></g><g><path fill="none" stroke="#000000" paint-order="fill stroke markers" d=" M 618 154 L 618 70 L 618 70 A 8 8 0 0 1 626 62 L 856 62" stroke-miterlimit="10" stroke-dasharray=""/></g><g><path fill="#000000" stroke="none" paint-order="stroke fill markers" d=" M 845.8373251423759 66.209517756016 L 856 62 L 845.8373251423758 57.790482243984"/></g><g><path fill="none" stroke="#000000" paint-order="fill stroke markers" d=" M 845.8373251423759 66.209517756016 L 856 62 L 845.8373251423758 57.790482243984 L 845.8373251423759 66.209517756016" stroke-miterlimit="10" stroke-dasharray=""/></g><g><rect fill="#ffffff" stroke="none" x="667" y="137" width="27.25" height="16" transform="matrix(1 0 0 1 -62 -98)"/></g><g><g><path fill="none" stroke="none"/><text fill="#000000" stroke="none" font-family="Arial" font-size="16px" font-style="normal" font-weight="normal" text-decoration="undefined" x="680.625" y="145" text-anchor="middle" dominant-baseline="central" transform="matrix(1 0 0 1 -62 -98)">Нет</text></g></g><g><path fill="none" stroke="#000000" paint-order="fill stroke markers" d=" M 375 160 L 375 434 L 375 434 A 8 8 0 0 0 383 442 L 424 442" stroke-miterlimit="10" stroke-dasharray=""/></g><g><path fill="#000000" stroke="none" paint-order="stroke fill markers" d=" M 413.83732514237585 446.209517756016 L 424 442 L 413.83732514237585 437.790482243984"/></g><g><path fill="none" stroke="#000000" paint-order="fill stroke markers" d=" M 413.83732514237585 446.209517756016 L 424 442 L 413.83732514237585 437.790482243984 L 413.83732514237585 446.209517756016" stroke-miterlimit="10" stroke-dasharray=""/></g><g><path fill="none" stroke="#000000" paint-order="fill stroke markers" d=" M 533 442 L 588 442 L 588 442 A 8 8 0 0 0 596 434 L 596 186" stroke-miterlimit="10" stroke-dasharray=""/></g><g><path fill="#000000" stroke="none" paint-order="stroke fill markers" d=" M 600.209517756016 196.16267485762415 L 596 186 L 591.790482243984 196.16267485762415"/></g><g><path fill="none" stroke="#000000" paint-order="fill stroke markers" d=" M 600.209517756016 196.16267485762415 L 596 186 L 591.790482243984 196.16267485762415 L 600.209517756016 196.16267485762415" stroke-miterlimit="10" stroke-dasharray=""/></g><g><path fill="none" stroke="#000000" paint-order="fill stroke markers" d=" M 460 500 L 460 658" stroke-miterlimit="10" stroke-dasharray=""/></g><g><path fill="#000000" stroke="none" paint-order="stroke fill markers" d=" M 455.790482243984 647.8373251423759 L 460 658 L 464.209517756016 647.8373251423759"/></g><g><path fill="none" stroke="#000000" paint-order="fill stroke markers" d=" M 455.790482243984 647.8373251423759 L 460 658 L 464.209517756016 647.8373251423759 L 455.790482243984 647.8373251423759" stroke-miterlimit="10" stroke-dasharray=""/></g><g><path fill="none" stroke="#000000" paint-order="fill stroke markers" d=" M 204 133 L 316 133" stroke-miterlimit="10" stroke-dasharray=""/></g><g><path fill="#000000" stroke="none" paint-order="stroke fill markers" d=" M 305.83732514237585 137.209517756016 L 316 133 L 305.83732514237585 128.790482243984"/></g><g><path fill="none" stroke="#000000" paint-order="fill stroke markers" d=" M 305.83732514237585 137.209517756016 L 316 133 L 305.83732514237585 128.790482243984 L 305.83732514237585 137.209517756016" stroke-miterlimit="10" stroke-dasharray=""/></g><g><path fill="none" stroke="#000000" paint-order="fill stroke markers" d=" M 1086 445 L 1180 445" stroke-miterlimit="10" stroke-dasharray=""/></g><g><path fill="#000000" stroke="none" paint-order="stroke fill markers" d=" M 1169.837325142376 449.209517756016 L 1180 445 L 1169.837325142376 440.790482243984"/></g><g><path fill="none" stroke="#000000" paint-order="fill stroke markers" d=" M 1169.837325142376 449.209517756016 L 1180 445 L 1169.837325142376 440.790482243984 L 1169.837325142376 449.209517756016" stroke-miterlimit="10" stroke-dasharray=""/></g></g></svg>