<svg version="1.1" xmlns="http://www.w3.org/2000/svg" xmlns:xlink="http://www.w3.org/1999/xlink" width="848" height="434"><defs/><g><g><rect fill="#ffffff" stroke="none" x="234" y="90" width="432" height="36" transform="matrix(1 0 0 1 -188 -62)"/></g><g><path fill="#ffffff" stroke="none" paint-order="stroke fill markers" d=" M 478 28 A 18 18 0 0 1 478 64"/></g><g><path fill="none" stroke="#000000" paint-order="fill stroke markers" d=" M 46 28 L 46 64" stroke-miterlimit="10" stroke-dasharray=""/></g><g><path fill="none" stroke="#000000" paint-order="fill stroke markers" d=" M 46 28 L 478 28" stroke-miterlimit="10" stroke-dasharray=""/></g><g><path fill="none" stroke="#000000" paint-order="fill stroke markers" d=" M 46 64 L 478 64" stroke-miterlimit="10" stroke-dasharray=""/></g><g><path fill="none" stroke="#000000" paint-order="fill stroke markers" d=" M 478 28 A 18 18 0 0 1 478 64" stroke-miterlimit="10" stroke-dasharray=""/></g><g><g><path fill="none" stroke="none"/><text fill="#000000" stroke="none" font-family="Arial" font-size="16px" font-style="normal" font-weight="normal" text-decoration="undefined" x="412.75" y="108" text-anchor="middle" dominant-baseline="central" transform="matrix(1 0 0 1 -188 -62)">GET /challenges/{challengeId}/join-requests</text></g></g><g><path fill="#ffffff" stroke="none" paint-order="stroke fill markers" d=" M 118 100 L 478 100 L 406 136 L 46 136 L 118 100"/></g><g><path fill="none" stroke="#000000" paint-order="fill stroke markers" d=" M 118 100 L 478 100 L 406 136 L 46 136 L 118 100 L 118 100" stroke-miterlimit="10" stroke-dasharray=""/></g><g><g><path fill="none" stroke="none"/><text fill="#000000" stroke="none" font-family="Arial" font-size="16px" font-style="normal" font-weight="normal" text-decoration="undefined" x="450" y="180" text-anchor="middle" dominant-baseline="central" transform="matrix(1 0 0 1 -188 -62)">GetChallengeJoinRequestsRequest</text></g></g><g><path fill="#ffffff" stroke="none" paint-order="stroke fill markers" d=" M 88 388 L 478 388 L 400 424 L 10 424 L 88 388"/></g><g><path fill="none" stroke="#000000" paint-order="fill stroke markers" d=" M 88 388 L 478 388 L 400 424 L 10 424 L 88 388 L 88 388" stroke-miterlimit="10" stroke-dasharray=""/></g><g><g><path fill="none" stroke="none"/><text fill="#000000" stroke="none" font-family="Arial" font-size="16px" font-style="normal" font-weight="normal" text-decoration="undefined" x="432" y="468" text-anchor="middle" dominant-baseline="central" transform="matrix(1 0 0 1 -188 -62)">GetChallengeJoinRequestsResponse</text></g></g><g><path fill="#ffffff" stroke="#000000" paint-order="fill stroke markers" d=" M 586 44 L 609 10 L 706.484375 10 Q 729.484375 10 729.484375 44 Q 729.484375 78 706.484375 78 L 609 78 L 586 44 Z" stroke-miterlimit="10" stroke-dasharray=""/></g><g><g><path fill="none" stroke="none"/><text fill="#000000" stroke="none" font-family="Arial" font-size="16px" font-style="normal" font-weight="normal" text-decoration="undefined" x="845.7421875" y="90" text-anchor="middle" dominant-baseline="central" transform="matrix(1 0 0 1 -188 -62)">Заголовки</text><text fill="#000000" stroke="none" font-family="Arial" font-size="16px" font-style="normal" font-weight="normal" text-decoration="undefined" x="845.7421875" y="106" text-anchor="middle" dominant-baseline="central" transform="matrix(1 0 0 1 -188 -62)">запроса</text><text fill="#000000" stroke="none" font-family="Arial" font-size="16px" font-style="normal" font-weight="normal" text-decoration="undefined" x="845.7421875" y="122" text-anchor="middle" dominant-baseline="central" transform="matrix(1 0 0 1 -188 -62)">(Авторизирован)</text></g></g><g><path fill="#ffffff" stroke="none" paint-order="stroke fill markers" d=" M 568 316 L 838 316 L 784 352 L 514 352 L 568 316"/></g><g><path fill="none" stroke="#000000" paint-order="fill stroke markers" d=" M 568 316 L 838 316 L 784 352 L 514 352 L 568 316 L 568 316" stroke-miterlimit="10" stroke-dasharray=""/></g><g><g><path fill="none" stroke="none"/><text fill="#000000" stroke="none" font-family="Arial" font-size="16px" font-style="normal" font-weight="normal" text-decoration="undefined" x="864" y="396" text-anchor="middle" dominant-baseline="central" transform="matrix(1 0 0 1 -188 -62)">JoinRequestDTO</text></g></g><g><path fill="#ffffff" stroke="none" paint-order="stroke fill markers" d=" M 82 172 L 438.6328125 172 Q 456.6328125 172 456.6328125 190 L 456.6328125 190 Q 456.6328125 208 438.6328125 208 L 82 208 Q 64 208 64 190 L 64 190 Q 64 172 82 172 Z"/></g><g><path fill="none" stroke="#000000" paint-order="fill stroke markers" d=" M 82 172 L 438.6328125 172 Q 456.6328125 172 456.6328125 190 L 456.6328125 190 Q 456.6328125 208 438.6328125 208 L 82 208 Q 64 208 64 190 L 64 190 Q 64 172 82 172 Z" stroke-miterlimit="10" stroke-dasharray=""/></g><g><g><path fill="none" stroke="none"/><text fill="#000000" stroke="none" font-family="Arial" font-size="16px" font-style="normal" font-weight="normal" text-decoration="undefined" x="448.31640625" y="252" text-anchor="middle" dominant-baseline="central" transform="matrix(1 0 0 1 -188 -62)">Роль пользователя в челлендже "Администратор"</text></g></g><g><rect fill="#ffffff" stroke="none" x="270" y="342" width="360" height="36" transform="matrix(1 0 0 1 -188 -62)"/></g><g><path fill="none" stroke="#000000" paint-order="fill stroke markers" d=" M 82 280 L 442 280 L 442 316 L 82 316 L 82 280 Z Z" stroke-miterlimit="10" stroke-dasharray=""/></g><g><g><path fill="none" stroke="none"/><text fill="#000000" stroke="none" font-family="Arial" font-size="16px" font-style="normal" font-weight="normal" text-decoration="undefined" x="450" y="360" text-anchor="middle" dominant-baseline="central" transform="matrix(1 0 0 1 -188 -62)">Получение списка заявок по challengeId</text></g></g><g><path fill="none" stroke="#000000" paint-order="fill stroke markers" d=" M 269 64 L 269 100" stroke-miterlimit="10" stroke-dasharray=""/></g><g><path fill="#000000" stroke="none" paint-order="stroke fill markers" d=" M 264.790482243984 89.83732514237585 L 269 100 L 273.209517756016 89.83732514237585"/></g><g><path fill="none" stroke="#000000" paint-order="fill stroke markers" d=" M 264.790482243984 89.83732514237585 L 269 100 L 273.209517756016 89.83732514237585 L 264.790482243984 89.83732514237585" stroke-miterlimit="10" stroke-dasharray=""/></g><g><path fill="none" stroke="#000000" paint-order="fill stroke markers" d=" M 586 78 L 586 92 L 586 92 A 8 8 0 0 1 578 100 L 478 100" stroke-miterlimit="10" stroke-dasharray=""/></g><g><path fill="#000000" stroke="none" paint-order="stroke fill markers" d=" M 488.1626748576241 95.790482243984 L 478 100 L 488.1626748576241 104.209517756016"/></g><g><path fill="none" stroke="#000000" paint-order="fill stroke markers" d=" M 488.1626748576241 95.790482243984 L 478 100 L 488.1626748576241 104.209517756016 L 488.1626748576241 95.790482243984" stroke-miterlimit="10" stroke-dasharray=""/></g><g><path fill="none" stroke="#000000" paint-order="fill stroke markers" d=" M 262 136 L 262 172" stroke-miterlimit="10" stroke-dasharray=""/></g><g><path fill="#000000" stroke="none" paint-order="stroke fill markers" d=" M 257.790482243984 161.83732514237585 L 262 172 L 266.209517756016 161.83732514237585"/></g><g><path fill="none" stroke="#000000" paint-order="fill stroke markers" d=" M 257.790482243984 161.83732514237585 L 262 172 L 266.209517756016 161.83732514237585 L 257.790482243984 161.83732514237585" stroke-miterlimit="10" stroke-dasharray=""/></g><g><path fill="none" stroke="#000000" paint-order="fill stroke markers" d=" M 260 208 L 260 280" stroke-miterlimit="10" stroke-dasharray=""/></g><g><path fill="#000000" stroke="none" paint-order="stroke fill markers" d=" M 255.790482243984 269.83732514237585 L 260 280 L 264.209517756016 269.83732514237585"/></g><g><path fill="none" stroke="#000000" paint-order="fill stroke markers" d=" M 255.790482243984 269.83732514237585 L 260 280 L 264.209517756016 269.83732514237585 L 255.790482243984 269.83732514237585" stroke-miterlimit="10" stroke-dasharray=""/></g><g><path fill="none" stroke="#000000" paint-order="fill stroke markers" d=" M 259 316 L 259 388" stroke-miterlimit="10" stroke-dasharray=""/></g><g><path fill="#000000" stroke="none" paint-order="stroke fill markers" d=" M 254.790482243984 377.83732514237585 L 259 388 L 263.209517756016 377.83732514237585"/></g><g><path fill="none" stroke="#000000" paint-order="fill stroke markers" d=" M 254.790482243984 377.83732514237585 L 259 388 L 263.209517756016 377.83732514237585 L 254.790482243984 377.83732514237585" stroke-miterlimit="10" stroke-dasharray=""/></g><g><path fill="none" stroke="#000000" paint-order="fill stroke markers" d=" M 590 352 L 590 398 L 590 398 A 8 8 0 0 1 582 406 L 478 406" stroke-miterlimit="10" stroke-dasharray=""/></g><g><path fill="#000000" stroke="none" paint-order="stroke fill markers" d=" M 488.1626748576241 401.790482243984 L 478 406 L 488.1626748576241 410.209517756016"/></g><g><path fill="none" stroke="#000000" paint-order="fill stroke markers" d=" M 488.1626748576241 401.790482243984 L 478 406 L 488.1626748576241 410.209517756016 L 488.1626748576241 401.790482243984" stroke-miterlimit="10" stroke-dasharray=""/></g></g></svg>