<svg version="1.1" xmlns="http://www.w3.org/2000/svg" xmlns:xlink="http://www.w3.org/1999/xlink" width="757.484375" height="506"><defs/><g><g><rect fill="#ffffff" stroke="none" x="198" y="90" width="468" height="36" transform="matrix(1 0 0 1 -170 -44)"/></g><g><path fill="#ffffff" stroke="none" paint-order="stroke fill markers" d=" M 496 46 A 18 18 0 0 1 496 82"/></g><g><path fill="none" stroke="#000000" paint-order="fill stroke markers" d=" M 28 46 L 28 82" stroke-miterlimit="10" stroke-dasharray=""/></g><g><path fill="none" stroke="#000000" paint-order="fill stroke markers" d=" M 28 46 L 496 46" stroke-miterlimit="10" stroke-dasharray=""/></g><g><path fill="none" stroke="#000000" paint-order="fill stroke markers" d=" M 28 82 L 496 82" stroke-miterlimit="10" stroke-dasharray=""/></g><g><path fill="none" stroke="#000000" paint-order="fill stroke markers" d=" M 496 46 A 18 18 0 0 1 496 82" stroke-miterlimit="10" stroke-dasharray=""/></g><g><g><path fill="none" stroke="none"/><text fill="#000000" stroke="none" font-family="Arial" font-size="16px" font-style="normal" font-weight="normal" text-decoration="undefined" x="390.25" y="108" text-anchor="middle" dominant-baseline="central" transform="matrix(1 0 0 1 -170 -44)">POST /communities/{communityId}/news</text></g></g><g><path fill="#ffffff" stroke="none" paint-order="stroke fill markers" d=" M 121 136 L 496 136 L 421 172 L 46 172 L 121 136"/></g><g><path fill="none" stroke="#000000" paint-order="fill stroke markers" d=" M 121 136 L 496 136 L 421 172 L 46 172 L 121 136 L 121 136" stroke-miterlimit="10" stroke-dasharray=""/></g><g><g><path fill="none" stroke="none"/><text fill="#000000" stroke="none" font-family="Arial" font-size="16px" font-style="normal" font-weight="normal" text-decoration="undefined" x="441" y="198" text-anchor="middle" dominant-baseline="central" transform="matrix(1 0 0 1 -170 -44)">PostCommunityNewsRequest</text></g></g><g><path fill="#ffffff" stroke="none" paint-order="stroke fill markers" d=" M 130 460 L 460 460 L 394 496 L 64 496 L 130 460"/></g><g><path fill="none" stroke="#000000" paint-order="fill stroke markers" d=" M 130 460 L 460 460 L 394 496 L 64 496 L 130 460 L 130 460" stroke-miterlimit="10" stroke-dasharray=""/></g><g><g><path fill="none" stroke="none"/><text fill="#000000" stroke="none" font-family="Arial" font-size="16px" font-style="normal" font-weight="normal" text-decoration="undefined" x="432" y="522" text-anchor="middle" dominant-baseline="central" transform="matrix(1 0 0 1 -170 -44)">PostCommunityNewsResponse</text></g></g><g><path fill="#ffffff" stroke="none" paint-order="stroke fill markers" d=" M 100 208 L 397.5 208 Q 415.5 208 415.5 226 L 415.5 226 Q 415.5 244 397.5 244 L 100 244 Q 82 244 82 226 L 82 226 Q 82 208 100 208 Z"/></g><g><path fill="none" stroke="#000000" paint-order="fill stroke markers" d=" M 100 208 L 397.5 208 Q 415.5 208 415.5 226 L 415.5 226 Q 415.5 244 397.5 244 L 100 244 Q 82 244 82 226 L 82 226 Q 82 208 100 208 Z" stroke-miterlimit="10" stroke-dasharray=""/></g><g><g><path fill="none" stroke="none"/><text fill="#000000" stroke="none" font-family="Arial" font-size="16px" font-style="normal" font-weight="normal" text-decoration="undefined" x="418.75" y="270" text-anchor="middle" dominant-baseline="central" transform="matrix(1 0 0 1 -170 -44)">Роль пользователя в сообществе "Админ"</text></g></g><g><path fill="#ffffff" stroke="none" paint-order="stroke fill markers" d=" M 100 280 L 406 280 Q 424 280 424 298 L 424 298 Q 424 316 406 316 L 100 316 Q 82 316 82 298 L 82 298 Q 82 280 100 280 Z"/></g><g><path fill="none" stroke="#000000" paint-order="fill stroke markers" d=" M 100 280 L 406 280 Q 424 280 424 298 L 424 298 Q 424 316 406 316 L 100 316 Q 82 316 82 298 L 82 298 Q 82 280 100 280 Z" stroke-miterlimit="10" stroke-dasharray=""/></g><g><g><path fill="none" stroke="none"/><text fill="#000000" stroke="none" font-family="Arial" font-size="16px" font-style="normal" font-weight="normal" text-decoration="undefined" x="423" y="342" text-anchor="middle" dominant-baseline="central" transform="matrix(1 0 0 1 -170 -44)">Длина текст новости &lt; 500 символов</text></g></g><g><rect fill="#ffffff" stroke="none" x="180" y="414" width="522" height="36" transform="matrix(1 0 0 1 -170 -44)"/></g><g><path fill="none" stroke="#000000" paint-order="fill stroke markers" d=" M 10 370 L 532 370 L 532 406 L 10 406 L 10 370 Z Z" stroke-miterlimit="10" stroke-dasharray=""/></g><g><g><path fill="none" stroke="none"/><text fill="#000000" stroke="none" font-family="Arial" font-size="16px" font-style="normal" font-weight="normal" text-decoration="undefined" x="441" y="432" text-anchor="middle" dominant-baseline="central" transform="matrix(1 0 0 1 -170 -44)">Опубликовать новость для всех участников сообщества</text></g></g><g><path fill="none" stroke="#000000" paint-order="fill stroke markers" d=" M 271 82 L 271 136" stroke-miterlimit="10" stroke-dasharray=""/></g><g><path fill="#000000" stroke="none" paint-order="stroke fill markers" d=" M 266.790482243984 125.83732514237585 L 271 136 L 275.209517756016 125.83732514237585"/></g><g><path fill="none" stroke="#000000" paint-order="fill stroke markers" d=" M 266.790482243984 125.83732514237585 L 271 136 L 275.209517756016 125.83732514237585 L 266.790482243984 125.83732514237585" stroke-miterlimit="10" stroke-dasharray=""/></g><g><path fill="none" stroke="#000000" paint-order="fill stroke markers" d=" M 265 172 L 265 208" stroke-miterlimit="10" stroke-dasharray=""/></g><g><path fill="#000000" stroke="none" paint-order="stroke fill markers" d=" M 260.790482243984 197.83732514237585 L 265 208 L 269.209517756016 197.83732514237585"/></g><g><path fill="none" stroke="#000000" paint-order="fill stroke markers" d=" M 260.790482243984 197.83732514237585 L 265 208 L 269.209517756016 197.83732514237585 L 260.790482243984 197.83732514237585" stroke-miterlimit="10" stroke-dasharray=""/></g><g><path fill="none" stroke="#000000" paint-order="fill stroke markers" d=" M 249 244 L 249 280" stroke-miterlimit="10" stroke-dasharray=""/></g><g><path fill="#000000" stroke="none" paint-order="stroke fill markers" d=" M 244.790482243984 269.83732514237585 L 249 280 L 253.209517756016 269.83732514237585"/></g><g><path fill="none" stroke="#000000" paint-order="fill stroke markers" d=" M 244.790482243984 269.83732514237585 L 249 280 L 253.209517756016 269.83732514237585 L 244.790482243984 269.83732514237585" stroke-miterlimit="10" stroke-dasharray=""/></g><g><path fill="none" stroke="#000000" paint-order="fill stroke markers" d=" M 257 316 L 257 370" stroke-miterlimit="10" stroke-dasharray=""/></g><g><path fill="#000000" stroke="none" paint-order="stroke fill markers" d=" M 252.790482243984 359.83732514237585 L 257 370 L 261.209517756016 359.83732514237585"/></g><g><path fill="none" stroke="#000000" paint-order="fill stroke markers" d=" M 252.790482243984 359.83732514237585 L 257 370 L 261.209517756016 359.83732514237585 L 252.790482243984 359.83732514237585" stroke-miterlimit="10" stroke-dasharray=""/></g><g><path fill="none" stroke="#000000" paint-order="fill stroke markers" d=" M 269 406 L 269 460" stroke-miterlimit="10" stroke-dasharray=""/></g><g><path fill="#000000" stroke="none" paint-order="stroke fill markers" d=" M 264.790482243984 449.83732514237585 L 269 460 L 273.209517756016 449.83732514237585"/></g><g><path fill="none" stroke="#000000" paint-order="fill stroke markers" d=" M 264.790482243984 449.83732514237585 L 269 460 L 273.209517756016 449.83732514237585 L 264.790482243984 449.83732514237585" stroke-miterlimit="10" stroke-dasharray=""/></g><g><path fill="#ffffff" stroke="#000000" paint-order="fill stroke markers" d=" M 604 44 L 627 10 L 724.484375 10 Q 747.484375 10 747.484375 44 Q 747.484375 78 724.484375 78 L 627 78 L 604 44 Z" stroke-miterlimit="10" stroke-dasharray=""/></g><g><g><path fill="none" stroke="none"/><text fill="#000000" stroke="none" font-family="Arial" font-size="16px" font-style="normal" font-weight="normal" text-decoration="undefined" x="845.7421875" y="72" text-anchor="middle" dominant-baseline="central" transform="matrix(1 0 0 1 -170 -44)">Заголовки</text><text fill="#000000" stroke="none" font-family="Arial" font-size="16px" font-style="normal" font-weight="normal" text-decoration="undefined" x="845.7421875" y="88" text-anchor="middle" dominant-baseline="central" transform="matrix(1 0 0 1 -170 -44)">запроса</text><text fill="#000000" stroke="none" font-family="Arial" font-size="16px" font-style="normal" font-weight="normal" text-decoration="undefined" x="845.7421875" y="104" text-anchor="middle" dominant-baseline="central" transform="matrix(1 0 0 1 -170 -44)">(Авторизирован)</text></g></g><g><path fill="none" stroke="#000000" paint-order="fill stroke markers" d=" M 604 78 L 604 128 L 604 128 A 8 8 0 0 1 596 136 L 496 136" stroke-miterlimit="10" stroke-dasharray=""/></g><g><path fill="#000000" stroke="none" paint-order="stroke fill markers" d=" M 506.1626748576241 131.790482243984 L 496 136 L 506.1626748576241 140.209517756016"/></g><g><path fill="none" stroke="#000000" paint-order="fill stroke markers" d=" M 506.1626748576241 131.790482243984 L 496 136 L 506.1626748576241 140.209517756016 L 506.1626748576241 131.790482243984" stroke-miterlimit="10" stroke-dasharray=""/></g></g></svg>