<svg version="1.1" xmlns="http://www.w3.org/2000/svg" xmlns:xlink="http://www.w3.org/1999/xlink" width="1136" height="452"><defs/><g><g><rect fill="#ffffff" stroke="none" x="576" y="126" width="455.0703125" height="52" transform="matrix(1 0 0 1 -170 -98)"/></g><g><path fill="#ffffff" stroke="none" paint-order="stroke fill markers" d=" M 861.0703125 28 A 26 26 0 0 1 861.0703125 80"/></g><g><path fill="none" stroke="#000000" paint-order="fill stroke markers" d=" M 406 28 L 406 80" stroke-miterlimit="10" stroke-dasharray=""/></g><g><path fill="none" stroke="#000000" paint-order="fill stroke markers" d=" M 406 28 L 861.0703125 28" stroke-miterlimit="10" stroke-dasharray=""/></g><g><path fill="none" stroke="#000000" paint-order="fill stroke markers" d=" M 406 80 L 861.0703125 80" stroke-miterlimit="10" stroke-dasharray=""/></g><g><path fill="none" stroke="#000000" paint-order="fill stroke markers" d=" M 861.0703125 28 A 26 26 0 0 1 861.0703125 80" stroke-miterlimit="10" stroke-dasharray=""/></g><g><g><path fill="none" stroke="none"/><text fill="#000000" stroke="none" font-family="Arial" font-size="16px" font-style="normal" font-weight="normal" text-decoration="undefined" x="766.4013671875" y="144" text-anchor="middle" dominant-baseline="central" transform="matrix(1 0 0 1 -170 -98)">POST /wallet/stripe/payment-webhook</text></g></g><g><path fill="#ffffff" stroke="#000000" paint-order="fill stroke markers" d=" M 928 52 L 946 10 L 1018.0390625 10 Q 1036.0390625 10 1036.0390625 52 Q 1036.0390625 94 1018.0390625 94 L 946 94 L 928 52 Z" stroke-miterlimit="10" stroke-dasharray=""/></g><g><g><path fill="none" stroke="none"/><text fill="#000000" stroke="none" font-family="Arial" font-size="16px" font-style="normal" font-weight="normal" text-decoration="undefined" x="1152.01953125" y="126" text-anchor="middle" dominant-baseline="central" transform="matrix(1 0 0 1 -170 -98)">Заголовки</text><text fill="#000000" stroke="none" font-family="Arial" font-size="16px" font-style="normal" font-weight="normal" text-decoration="undefined" x="1152.01953125" y="142" text-anchor="middle" dominant-baseline="central" transform="matrix(1 0 0 1 -170 -98)">запроса</text><text fill="#000000" stroke="none" font-family="Arial" font-size="16px" font-style="normal" font-weight="normal" text-decoration="undefined" x="1152.01953125" y="158" text-anchor="middle" dominant-baseline="central" transform="matrix(1 0 0 1 -170 -98)">(Платёжная</text><text fill="#000000" stroke="none" font-family="Arial" font-size="16px" font-style="normal" font-weight="normal" text-decoration="undefined" x="1152.01953125" y="174" text-anchor="middle" dominant-baseline="central" transform="matrix(1 0 0 1 -170 -98)">система)</text></g></g><g><path fill="#FFFFFF" stroke="none" paint-order="stroke fill markers" d=" M 493 136 L 838 136 L 769 172 L 424 172 L 493 136"/></g><g><path fill="none" stroke="#000000" paint-order="fill stroke markers" d=" M 493 136 L 838 136 L 769 172 L 424 172 L 493 136 L 493 136" stroke-miterlimit="10" stroke-dasharray=""/></g><g><g><path fill="none" stroke="none"/><text fill="#000000" stroke="none" font-family="Arial" font-size="16px" font-style="normal" font-weight="normal" text-decoration="undefined" x="801" y="252" text-anchor="middle" dominant-baseline="central" transform="matrix(1 0 0 1 -170 -98)">PostWalletStipePaymentWebhookRequest</text></g></g><g><rect fill="#ffffff" stroke="none" x="612" y="324" width="378" height="36" transform="matrix(1 0 0 1 -170 -98)"/></g><g><path fill="none" stroke="#000000" paint-order="fill stroke markers" d=" M 442 226 L 820 226 L 820 262 L 442 262 L 442 226 Z Z" stroke-miterlimit="10" stroke-dasharray=""/></g><g><g><path fill="none" stroke="none"/><text fill="#000000" stroke="none" font-family="Arial" font-size="16px" font-style="normal" font-weight="normal" text-decoration="undefined" x="801" y="342" text-anchor="middle" dominant-baseline="central" transform="matrix(1 0 0 1 -170 -98)">Зачислить коины на счёт пользователя</text></g></g><g><path fill="#ffffff" stroke="none" paint-order="stroke fill markers" d=" M 490 406 L 820 406 L 754 442 L 424 442 L 490 406"/></g><g><path fill="none" stroke="#000000" paint-order="fill stroke markers" d=" M 490 406 L 820 406 L 754 442 L 424 442 L 490 406 L 490 406" stroke-miterlimit="10" stroke-dasharray=""/></g><g><g><path fill="none" stroke="none"/><text fill="#000000" stroke="none" font-family="Arial" font-size="16px" font-style="normal" font-weight="normal" text-decoration="undefined" x="792" y="522" text-anchor="middle" dominant-baseline="central" transform="matrix(1 0 0 1 -170 -98)">NoBodyResponse</text></g></g><g><rect fill="#ffffff" stroke="none" x="630" y="396" width="360" height="52" transform="matrix(1 0 0 1 -170 -98)"/></g><g><path fill="none" stroke="#000000" paint-order="fill stroke markers" d=" M 460 298 L 820 298 L 820 350 L 460 350 L 460 298 Z Z" stroke-miterlimit="10" stroke-dasharray=""/></g><g><g><path fill="none" stroke="none"/><text fill="#000000" stroke="none" font-family="Arial" font-size="16px" font-style="normal" font-weight="normal" text-decoration="undefined" x="810" y="414" text-anchor="middle" dominant-baseline="central" transform="matrix(1 0 0 1 -170 -98)">Отправить уведомление пользователю об</text><text fill="#000000" stroke="none" font-family="Arial" font-size="16px" font-style="normal" font-weight="normal" text-decoration="undefined" x="810" y="430" text-anchor="middle" dominant-baseline="central" transform="matrix(1 0 0 1 -170 -98)">зачислении средств</text></g></g><g><path fill="none" stroke="#000000" paint-order="fill stroke markers" d=" M 642 80 L 642 136" stroke-miterlimit="10" stroke-dasharray=""/></g><g><path fill="#000000" stroke="none" paint-order="stroke fill markers" d=" M 637.790482243984 125.83732514237585 L 642 136 L 646.209517756016 125.83732514237585"/></g><g><path fill="none" stroke="#000000" paint-order="fill stroke markers" d=" M 637.790482243984 125.83732514237585 L 642 136 L 646.209517756016 125.83732514237585 L 637.790482243984 125.83732514237585" stroke-miterlimit="10" stroke-dasharray=""/></g><g><path fill="none" stroke="#000000" paint-order="fill stroke markers" d=" M 928 94 L 928 128 L 928 128 A 8 8 0 0 1 920 136 L 838 136" stroke-miterlimit="10" stroke-dasharray=""/></g><g><path fill="#000000" stroke="none" paint-order="stroke fill markers" d=" M 848.1626748576241 131.790482243984 L 838 136 L 848.1626748576241 140.209517756016"/></g><g><path fill="none" stroke="#000000" paint-order="fill stroke markers" d=" M 848.1626748576241 131.790482243984 L 838 136 L 848.1626748576241 140.209517756016 L 848.1626748576241 131.790482243984" stroke-miterlimit="10" stroke-dasharray=""/></g><g><path fill="none" stroke="#000000" paint-order="fill stroke markers" d=" M 631 172 L 631 226" stroke-miterlimit="10" stroke-dasharray=""/></g><g><path fill="#000000" stroke="none" paint-order="stroke fill markers" d=" M 626.790482243984 215.83732514237585 L 631 226 L 635.209517756016 215.83732514237585"/></g><g><path fill="none" stroke="#000000" paint-order="fill stroke markers" d=" M 626.790482243984 215.83732514237585 L 631 226 L 635.209517756016 215.83732514237585 L 626.790482243984 215.83732514237585" stroke-miterlimit="10" stroke-dasharray=""/></g><g><path fill="none" stroke="#000000" paint-order="fill stroke markers" d=" M 633 262 L 633 298" stroke-miterlimit="10" stroke-dasharray=""/></g><g><path fill="#000000" stroke="none" paint-order="stroke fill markers" d=" M 628.790482243984 287.83732514237585 L 633 298 L 637.209517756016 287.83732514237585"/></g><g><path fill="none" stroke="#000000" paint-order="fill stroke markers" d=" M 628.790482243984 287.83732514237585 L 633 298 L 637.209517756016 287.83732514237585 L 628.790482243984 287.83732514237585" stroke-miterlimit="10" stroke-dasharray=""/></g><g><path fill="none" stroke="#000000" paint-order="fill stroke markers" d=" M 635 350 L 635 406" stroke-miterlimit="10" stroke-dasharray=""/></g><g><path fill="#000000" stroke="none" paint-order="stroke fill markers" d=" M 630.790482243984 395.83732514237585 L 635 406 L 639.209517756016 395.83732514237585"/></g><g><path fill="none" stroke="#000000" paint-order="fill stroke markers" d=" M 630.790482243984 395.83732514237585 L 635 406 L 639.209517756016 395.83732514237585 L 630.790482243984 395.83732514237585" stroke-miterlimit="10" stroke-dasharray=""/></g><g><path fill="#ffffff" stroke="none" paint-order="stroke fill markers" d=" M 58 100 L 298 100 L 250 136 L 10 136 L 58 100"/></g><g><path fill="none" stroke="#000000" paint-order="fill stroke markers" d=" M 58 100 L 298 100 L 250 136 L 10 136 L 58 100 L 58 100" stroke-miterlimit="10" stroke-dasharray=""/></g><g><g><path fill="none" stroke="none"/><text fill="#000000" stroke="none" font-family="Arial" font-size="16px" font-style="normal" font-weight="normal" text-decoration="undefined" x="324" y="216" text-anchor="middle" dominant-baseline="central" transform="matrix(1 0 0 1 -170 -98)">RequestDTO</text></g></g><g><path fill="none" stroke="#000000" paint-order="fill stroke markers" d=" M 298 136 L 298 130 L 298 130 A 8 8 0 0 0 306 138 L 424 138" stroke-miterlimit="10" stroke-dasharray=""/></g><g><path fill="#000000" stroke="none" paint-order="stroke fill markers" d=" M 413.8373251423759 142.209517756016 L 424 138 L 413.8373251423758 133.790482243984"/></g><g><path fill="none" stroke="#000000" paint-order="fill stroke markers" d=" M 413.8373251423759 142.209517756016 L 424 138 L 413.8373251423758 133.790482243984 L 413.8373251423759 142.209517756016" stroke-miterlimit="10" stroke-dasharray=""/></g><g><path fill="#ffffff" stroke="none" paint-order="stroke fill markers" d=" M 928 154 L 1115 154 L 1125 164 L 1125 261 L 928 261 L 928 154"/></g><g><path fill="none" stroke="#000000" paint-order="fill stroke markers" d=" M 928 154 L 1115 154 L 1125 164 L 1125 261 L 928 261 L 928 154 L 928 154" stroke-miterlimit="10" stroke-dasharray=""/></g><g><path fill="none" stroke="#000000" paint-order="fill stroke markers" d=" M 1115 154 L 1115 164 L 1125 164 L 1115 154" stroke-miterlimit="10" stroke-dasharray=""/></g><g><g><path fill="none" stroke="none"/><text fill="#000000" stroke="none" font-family="Arial" font-size="16px" font-style="normal" font-weight="normal" text-decoration="undefined" x="1103" y="257" text-anchor="start" dominant-baseline="text-before-edge" transform="matrix(1 0 0 1 -170 -98)">Для .net есть</text><text fill="#000000" stroke="none" font-family="Arial" font-size="16px" font-style="normal" font-weight="normal" text-decoration="undefined" x="1103" y="273" text-anchor="start" dominant-baseline="text-before-edge" transform="matrix(1 0 0 1 -170 -98)">официальная </text><text fill="#000000" stroke="none" font-family="Arial" font-size="16px" font-style="normal" font-weight="normal" text-decoration="undefined" x="1103" y="289" text-anchor="start" dominant-baseline="text-before-edge" transform="matrix(1 0 0 1 -170 -98)">библиотека Stripe в</text><text fill="#000000" stroke="none" font-family="Arial" font-size="16px" font-style="normal" font-weight="normal" text-decoration="undefined" x="1103" y="305" text-anchor="start" dominant-baseline="text-before-edge" transform="matrix(1 0 0 1 -170 -98)">которой хранятся все</text><text fill="#000000" stroke="none" font-family="Arial" font-size="16px" font-style="normal" font-weight="normal" text-decoration="undefined" x="1103" y="321" text-anchor="start" dominant-baseline="text-before-edge" transform="matrix(1 0 0 1 -170 -98)">возможные модели поля</text><text fill="#000000" stroke="none" font-family="Arial" font-size="16px" font-style="normal" font-weight="normal" text-decoration="undefined" x="1103" y="337" text-anchor="start" dominant-baseline="text-before-edge" transform="matrix(1 0 0 1 -170 -98)">data</text></g></g><g><path fill="none" stroke="#000000" paint-order="fill stroke markers" d=" M 770 173 L 927 194" stroke-miterlimit="10" stroke-dasharray="3"/></g></g></svg>