<svg version="1.1" xmlns="http://www.w3.org/2000/svg" xmlns:xlink="http://www.w3.org/1999/xlink" width="1856" height="1132.71875"><defs/><g><g><path fill="none" stroke="#000000" paint-order="fill stroke markers" d=" M 10 10 L 1846 10 L 1846 406 L 10 406 L 10 10 Z Z" stroke-miterlimit="10" stroke-dasharray=""/></g><g><path fill="none" stroke="#000000" paint-order="fill stroke markers" d=" M 36 10 L 36 406" stroke-miterlimit="10" stroke-dasharray=""/></g><g><g><path fill="none" stroke="none"/><text fill="#000000" stroke="none" font-family="Arial" font-size="16px" font-style="normal" font-weight="normal" text-decoration="undefined" x="0" y="0" text-anchor="middle" dominant-baseline="text-before-edge" transform="matrix(6.123233995736766e-17 -1 1 6.123233995736766e-17 15 208)">Пользователь</text></g></g><g><path fill="#C0C0C0" stroke="none" paint-order="stroke fill markers" d=" M 125 195 C 125 186.1634432 132.1634432 179 141 179 C 149.8365568 179 157 186.1634432 157 195 C 157 203.83655679999998 149.8365568 211 141 211 C 132.1634432 211 125 203.83655679999998 125 195 Z" fill-opacity="0.2"/></g><g><path fill="#ffffff" stroke="none" paint-order="stroke fill markers" d=" M 118 188 C 118 179.1634432 125.16344319999999 172 134 172 C 142.8365568 172 150 179.1634432 150 188 C 150 196.83655679999998 142.8365568 204 134 204 C 125.16344319999999 204 118 196.83655679999998 118 188 Z"/></g><g><path fill="none" stroke="#000000" paint-order="fill stroke markers" d=" M 118 188 C 118 179.1634432 125.16344319999999 172 134 172 C 142.8365568 172 150 179.1634432 150 188 C 150 196.83655679999998 142.8365568 204 134 204 C 125.16344319999999 204 118 196.83655679999998 118 188 Z" stroke-miterlimit="10" stroke-dasharray=""/></g><g><rect fill="#ffffff" stroke="none" x="103.56640625" y="278" width="184.8671875" height="16" transform="matrix(1 0 0 1 -62 -62)"/></g><g><g><path fill="none" stroke="none"/><text fill="#000000" stroke="none" font-family="Arial" font-size="16px" font-style="normal" font-weight="normal" text-decoration="undefined" x="196" y="286" text-anchor="middle" dominant-baseline="central" transform="matrix(1 0 0 1 -62 -62)">Открывает настройки КД</text></g></g><g><path fill="#C0C0C0" stroke="none" paint-order="stroke fill markers" d=" M 333 179 L 444.8046875 179 Q 454.8046875 179 454.8046875 189 L 454.8046875 227 Q 454.8046875 237 444.8046875 237 L 333 237 Q 323 237 323 227 L 323 189 Q 323 179 333 179 Z" fill-opacity="0.2"/></g><g><path fill="#ffffff" stroke="none" paint-order="stroke fill markers" d=" M 326 172 L 437.8046875 172 Q 447.8046875 172 447.8046875 182 L 447.8046875 220 Q 447.8046875 230 437.8046875 230 L 326 230 Q 316 230 316 220 L 316 182 Q 316 172 326 172 Z"/></g><g><path fill="none" stroke="#000000" paint-order="fill stroke markers" d=" M 326 172 L 437.8046875 172 Q 447.8046875 172 447.8046875 182 L 447.8046875 220 Q 447.8046875 230 437.8046875 230 L 326 230 Q 316 230 316 220 L 316 182 Q 316 172 326 172 Z" stroke-miterlimit="10" stroke-dasharray=""/></g><g><path fill="none" stroke="#000000" paint-order="fill stroke markers" d=" M 326 181 C 326 179.3431456 327.3431456 178 329 178 C 330.6568544 178 332 179.3431456 332 181 C 332 182.6568544 330.6568544 184 329 184 C 327.3431456 184 326 182.6568544 326 181 Z" stroke-miterlimit="10" stroke-dasharray=""/></g><g><path fill="none" stroke="#000000" paint-order="fill stroke markers" d=" M 324 185 L 334 185 L 334 192 L 324 192 L 324 185 Z Z" stroke-miterlimit="10" stroke-dasharray=""/></g><g><g><path fill="none" stroke="none"/><text fill="#000000" stroke="none" font-family="Arial" font-size="16px" font-style="normal" font-weight="normal" text-decoration="undefined" x="443.90234375" y="247" text-anchor="middle" dominant-baseline="central" transform="matrix(1 0 0 1 -62 -62)">Нажимает</text><text fill="#000000" stroke="none" font-family="Arial" font-size="16px" font-style="normal" font-weight="normal" text-decoration="undefined" x="443.90234375" y="263" text-anchor="middle" dominant-baseline="central" transform="matrix(1 0 0 1 -62 -62)">"пригласить</text><text fill="#000000" stroke="none" font-family="Arial" font-size="16px" font-style="normal" font-weight="normal" text-decoration="undefined" x="443.90234375" y="279" text-anchor="middle" dominant-baseline="central" transform="matrix(1 0 0 1 -62 -62)">участника"</text></g></g><g><path fill="#C0C0C0" stroke="none" paint-order="stroke fill markers" d=" M 647 179 L 669.4 179 L 679 188.6 L 679 219 L 647 219" fill-opacity="0.2"/></g><g><path fill="#ffffff" stroke="none" paint-order="stroke fill markers" d=" M 640 172 L 662.4 172 L 672 181.6 L 672 212 L 640 212"/></g><g><path fill="none" stroke="#000000" paint-order="fill stroke markers" d=" M 640 172 L 662.4 172 L 672 181.6 L 672 212 L 640 212 L 640 172" stroke-miterlimit="10" stroke-dasharray=""/></g><g><path fill="none" stroke="#000000" paint-order="fill stroke markers" d=" M 662.4 172 L 662.4 181.6 L 672 181.6 L 662.4 172" stroke-miterlimit="10" stroke-dasharray=""/></g><g><rect fill="#ffffff" stroke="none" x="600.6953125" y="282" width="234.609375" height="16" transform="matrix(1 0 0 1 -62 -62)"/></g><g><g><path fill="none" stroke="none"/><text fill="#000000" stroke="none" font-family="Arial" font-size="16px" font-style="normal" font-weight="normal" text-decoration="undefined" x="718" y="290" text-anchor="middle" dominant-baseline="central" transform="matrix(1 0 0 1 -62 -62)">Список участников сообщества</text></g></g><g><path fill="#C0C0C0" stroke="none" paint-order="stroke fill markers" d=" M 963 179 L 1074.8046875 179 Q 1084.8046875 179 1084.8046875 189 L 1084.8046875 211 Q 1084.8046875 221 1074.8046875 221 L 963 221 Q 953 221 953 211 L 953 189 Q 953 179 963 179 Z" fill-opacity="0.2"/></g><g><path fill="#ffffff" stroke="none" paint-order="stroke fill markers" d=" M 956 172 L 1067.8046875 172 Q 1077.8046875 172 1077.8046875 182 L 1077.8046875 204 Q 1077.8046875 214 1067.8046875 214 L 956 214 Q 946 214 946 204 L 946 182 Q 946 172 956 172 Z"/></g><g><path fill="none" stroke="#000000" paint-order="fill stroke markers" d=" M 956 172 L 1067.8046875 172 Q 1077.8046875 172 1077.8046875 182 L 1077.8046875 204 Q 1077.8046875 214 1067.8046875 214 L 956 214 Q 946 214 946 204 L 946 182 Q 946 172 956 172 Z" stroke-miterlimit="10" stroke-dasharray=""/></g><g><path fill="none" stroke="#000000" paint-order="fill stroke markers" d=" M 956 181 C 956 179.3431456 957.3431456 178 959 178 C 960.6568544 178 962 179.3431456 962 181 C 962 182.6568544 960.6568544 184 959 184 C 957.3431456 184 956 182.6568544 956 181 Z" stroke-miterlimit="10" stroke-dasharray=""/></g><g><path fill="none" stroke="#000000" paint-order="fill stroke markers" d=" M 954 185 L 964 185 L 964 192 L 954 192 L 954 185 Z Z" stroke-miterlimit="10" stroke-dasharray=""/></g><g><g><path fill="none" stroke="none"/><text fill="#000000" stroke="none" font-family="Arial" font-size="16px" font-style="normal" font-weight="normal" text-decoration="undefined" x="1073.90234375" y="247" text-anchor="middle" dominant-baseline="central" transform="matrix(1 0 0 1 -62 -62)">Выбирает</text><text fill="#000000" stroke="none" font-family="Arial" font-size="16px" font-style="normal" font-weight="normal" text-decoration="undefined" x="1073.90234375" y="263" text-anchor="middle" dominant-baseline="central" transform="matrix(1 0 0 1 -62 -62)">участника</text></g></g><g><path fill="#C0C0C0" stroke="none" paint-order="stroke fill markers" d=" M 765 89 L 876.8046875 89 Q 886.8046875 89 886.8046875 99 L 886.8046875 121 Q 886.8046875 131 876.8046875 131 L 765 131 Q 755 131 755 121 L 755 99 Q 755 89 765 89 Z" fill-opacity="0.2"/></g><g><path fill="#ffffff" stroke="none" paint-order="stroke fill markers" d=" M 758 82 L 869.8046875 82 Q 879.8046875 82 879.8046875 92 L 879.8046875 114 Q 879.8046875 124 869.8046875 124 L 758 124 Q 748 124 748 114 L 748 92 Q 748 82 758 82 Z"/></g><g><path fill="none" stroke="#000000" paint-order="fill stroke markers" d=" M 758 82 L 869.8046875 82 Q 879.8046875 82 879.8046875 92 L 879.8046875 114 Q 879.8046875 124 869.8046875 124 L 758 124 Q 748 124 748 114 L 748 92 Q 748 82 758 82 Z" stroke-miterlimit="10" stroke-dasharray=""/></g><g><path fill="none" stroke="#000000" paint-order="fill stroke markers" d=" M 758 91 C 758 89.34314560000001 759.3431456 88 761 88 C 762.6568544 88 764 89.34314560000001 764 91 C 764 92.65685439999999 762.6568544 94 761 94 C 759.3431456 94 758 92.65685439999999 758 91 Z" stroke-miterlimit="10" stroke-dasharray=""/></g><g><path fill="none" stroke="#000000" paint-order="fill stroke markers" d=" M 756 95 L 766 95 L 766 102 L 756 102 L 756 95 Z Z" stroke-miterlimit="10" stroke-dasharray=""/></g><g><g><path fill="none" stroke="none"/><text fill="#000000" stroke="none" font-family="Arial" font-size="16px" font-style="normal" font-weight="normal" text-decoration="undefined" x="875.90234375" y="157" text-anchor="middle" dominant-baseline="central" transform="matrix(1 0 0 1 -62 -62)">Вводит имя в</text><text fill="#000000" stroke="none" font-family="Arial" font-size="16px" font-style="normal" font-weight="normal" text-decoration="undefined" x="875.90234375" y="173" text-anchor="middle" dominant-baseline="central" transform="matrix(1 0 0 1 -62 -62)">поиск</text></g></g><g><path fill="#C0C0C0" stroke="none" paint-order="stroke fill markers" d=" M 1179 179 L 1290.8046875 179 Q 1300.8046875 179 1300.8046875 189 L 1300.8046875 211 Q 1300.8046875 221 1290.8046875 221 L 1179 221 Q 1169 221 1169 211 L 1169 189 Q 1169 179 1179 179 Z" fill-opacity="0.2"/></g><g><path fill="#ffffff" stroke="none" paint-order="stroke fill markers" d=" M 1172 172 L 1283.8046875 172 Q 1293.8046875 172 1293.8046875 182 L 1293.8046875 204 Q 1293.8046875 214 1283.8046875 214 L 1172 214 Q 1162 214 1162 204 L 1162 182 Q 1162 172 1172 172 Z"/></g><g><path fill="none" stroke="#000000" paint-order="fill stroke markers" d=" M 1172 172 L 1283.8046875 172 Q 1293.8046875 172 1293.8046875 182 L 1293.8046875 204 Q 1293.8046875 214 1283.8046875 214 L 1172 214 Q 1162 214 1162 204 L 1162 182 Q 1162 172 1172 172 Z" stroke-miterlimit="10" stroke-dasharray=""/></g><g><path fill="none" stroke="#000000" paint-order="fill stroke markers" d=" M 1172 181 C 1172 179.3431456 1173.3431456 178 1175 178 C 1176.6568544 178 1178 179.3431456 1178 181 C 1178 182.6568544 1176.6568544 184 1175 184 C 1173.3431456 184 1172 182.6568544 1172 181 Z" stroke-miterlimit="10" stroke-dasharray=""/></g><g><path fill="none" stroke="#000000" paint-order="fill stroke markers" d=" M 1170 185 L 1180 185 L 1180 192 L 1170 192 L 1170 185 Z Z" stroke-miterlimit="10" stroke-dasharray=""/></g><g><g><path fill="none" stroke="none"/><text fill="#000000" stroke="none" font-family="Arial" font-size="16px" font-style="normal" font-weight="normal" text-decoration="undefined" x="1289.90234375" y="247" text-anchor="middle" dominant-baseline="central" transform="matrix(1 0 0 1 -62 -62)">Нажимает</text><text fill="#000000" stroke="none" font-family="Arial" font-size="16px" font-style="normal" font-weight="normal" text-decoration="undefined" x="1289.90234375" y="263" text-anchor="middle" dominant-baseline="central" transform="matrix(1 0 0 1 -62 -62)">"пригласить"</text></g></g><g><path fill="none" stroke="#000000" paint-order="fill stroke markers" d=" M 10 478 L 1846 478 L 1846 712 L 10 712 L 10 478 Z Z" stroke-miterlimit="10" stroke-dasharray=""/></g><g><path fill="none" stroke="#000000" paint-order="fill stroke markers" d=" M 36 478 L 36 712" stroke-miterlimit="10" stroke-dasharray=""/></g><g><g><path fill="none" stroke="none"/><text fill="#000000" stroke="none" font-family="Arial" font-size="16px" font-style="normal" font-weight="normal" text-decoration="undefined" x="0" y="0" text-anchor="middle" dominant-baseline="text-before-edge" transform="matrix(6.123233995736766e-17 -1 1 6.123233995736766e-17 15 595)">Api</text></g></g><g><path fill="none" stroke="#000000" paint-order="fill stroke markers" d=" M 150 198 L 316 198" stroke-miterlimit="10" stroke-dasharray=""/></g><g><path fill="#000000" stroke="none" paint-order="stroke fill markers" d=" M 305.83732514237585 202.209517756016 L 316 198 L 305.83732514237585 193.790482243984"/></g><g><path fill="none" stroke="#000000" paint-order="fill stroke markers" d=" M 305.83732514237585 202.209517756016 L 316 198 L 305.83732514237585 193.790482243984 L 305.83732514237585 202.209517756016" stroke-miterlimit="10" stroke-dasharray=""/></g><g><path fill="#C0C0C0" stroke="none" paint-order="stroke fill markers" d=" M 495 557 L 574.5703125 557 Q 584.5703125 557 584.5703125 567 L 584.5703125 605 Q 584.5703125 615 574.5703125 615 L 495 615 Q 485 615 485 605 L 485 567 Q 485 557 495 557 Z" fill-opacity="0.2"/></g><g><path fill="#ffffff" stroke="none" paint-order="stroke fill markers" d=" M 488 550 L 567.5703125 550 Q 577.5703125 550 577.5703125 560 L 577.5703125 598 Q 577.5703125 608 567.5703125 608 L 488 608 Q 478 608 478 598 L 478 560 Q 478 550 488 550 Z"/></g><g><path fill="none" stroke="#000000" paint-order="fill stroke markers" d=" M 488 550 L 567.5703125 550 Q 577.5703125 550 577.5703125 560 L 577.5703125 598 Q 577.5703125 608 567.5703125 608 L 488 608 Q 478 608 478 598 L 478 560 Q 478 550 488 550 Z" stroke-miterlimit="10" stroke-dasharray=""/></g><g><g><path fill="none" stroke="none"/><text fill="#000000" stroke="none" font-family="Arial" font-size="16px" font-style="normal" font-weight="normal" text-decoration="undefined" x="589.78515625" y="625" text-anchor="middle" dominant-baseline="central" transform="matrix(1 0 0 1 -62 -62)">Извлекаем n</text><text fill="#000000" stroke="none" font-family="Arial" font-size="16px" font-style="normal" font-weight="normal" text-decoration="undefined" x="589.78515625" y="641" text-anchor="middle" dominant-baseline="central" transform="matrix(1 0 0 1 -62 -62)">участников</text><text fill="#000000" stroke="none" font-family="Arial" font-size="16px" font-style="normal" font-weight="normal" text-decoration="undefined" x="589.78515625" y="657" text-anchor="middle" dominant-baseline="central" transform="matrix(1 0 0 1 -62 -62)">сообщества</text></g></g><g><path fill="none" stroke="#000000" paint-order="fill stroke markers" d=" M 389 230 L 389 571 L 389 571 A 8 8 0 0 0 397 579 L 478 579" stroke-miterlimit="10" stroke-dasharray=""/></g><g><path fill="#000000" stroke="none" paint-order="stroke fill markers" d=" M 467.8373251423759 583.209517756016 L 478 579 L 467.8373251423758 574.790482243984"/></g><g><path fill="none" stroke="#000000" paint-order="fill stroke markers" d=" M 467.8373251423759 583.209517756016 L 478 579 L 467.8373251423758 574.790482243984 L 467.8373251423759 583.209517756016" stroke-miterlimit="10" stroke-dasharray=""/></g><g><path fill="none" stroke="#000000" paint-order="fill stroke markers" d=" M 578 579 L 643 579 L 643 579 A 8 8 0 0 0 651 571 L 651 212" stroke-miterlimit="10" stroke-dasharray=""/></g><g><path fill="#000000" stroke="none" paint-order="stroke fill markers" d=" M 655.209517756016 222.16267485762415 L 651 212 L 646.790482243984 222.16267485762415"/></g><g><path fill="none" stroke="#000000" paint-order="fill stroke markers" d=" M 655.209517756016 222.16267485762415 L 651 212 L 646.790482243984 222.16267485762415 L 655.209517756016 222.16267485762415" stroke-miterlimit="10" stroke-dasharray=""/></g><g><path fill="none" stroke="#000000" paint-order="fill stroke markers" d=" M 672 183 L 768 183 L 768 183 A 8 8 0 0 0 776 175 L 776 124" stroke-miterlimit="10" stroke-dasharray=""/></g><g><path fill="#000000" stroke="none" paint-order="stroke fill markers" d=" M 780.209517756016 134.16267485762415 L 776 124 L 771.790482243984 134.16267485762415"/></g><g><path fill="none" stroke="#000000" paint-order="fill stroke markers" d=" M 780.209517756016 134.16267485762415 L 776 124 L 771.790482243984 134.16267485762415 L 780.209517756016 134.16267485762415" stroke-miterlimit="10" stroke-dasharray=""/></g><g><path fill="#C0C0C0" stroke="none" paint-order="stroke fill markers" d=" M 801 557 L 879.0234375 557 Q 889.0234375 557 889.0234375 567 L 889.0234375 621 Q 889.0234375 631 879.0234375 631 L 801 631 Q 791 631 791 621 L 791 567 Q 791 557 801 557 Z" fill-opacity="0.2"/></g><g><path fill="#ffffff" stroke="none" paint-order="stroke fill markers" d=" M 794 550 L 872.0234375 550 Q 882.0234375 550 882.0234375 560 L 882.0234375 614 Q 882.0234375 624 872.0234375 624 L 794 624 Q 784 624 784 614 L 784 560 Q 784 550 794 550 Z"/></g><g><path fill="none" stroke="#000000" paint-order="fill stroke markers" d=" M 794 550 L 872.0234375 550 Q 882.0234375 550 882.0234375 560 L 882.0234375 614 Q 882.0234375 624 872.0234375 624 L 794 624 Q 784 624 784 614 L 784 560 Q 784 550 794 550 Z" stroke-miterlimit="10" stroke-dasharray=""/></g><g><g><path fill="none" stroke="none"/><text fill="#000000" stroke="none" font-family="Arial" font-size="16px" font-style="normal" font-weight="normal" text-decoration="undefined" x="895.01171875" y="625" text-anchor="middle" dominant-baseline="central" transform="matrix(1 0 0 1 -62 -62)">Извлекаем</text><text fill="#000000" stroke="none" font-family="Arial" font-size="16px" font-style="normal" font-weight="normal" text-decoration="undefined" x="895.01171875" y="641" text-anchor="middle" dominant-baseline="central" transform="matrix(1 0 0 1 -62 -62)">участников у</text><text fill="#000000" stroke="none" font-family="Arial" font-size="16px" font-style="normal" font-weight="normal" text-decoration="undefined" x="895.01171875" y="657" text-anchor="middle" dominant-baseline="central" transform="matrix(1 0 0 1 -62 -62)">которых</text><text fill="#000000" stroke="none" font-family="Arial" font-size="16px" font-style="normal" font-weight="normal" text-decoration="undefined" x="895.01171875" y="673" text-anchor="middle" dominant-baseline="central" transform="matrix(1 0 0 1 -62 -62)">похожее имя</text></g></g><g><path fill="none" stroke="#000000" paint-order="fill stroke markers" d=" M 814 124 L 814 550" stroke-miterlimit="10" stroke-dasharray=""/></g><g><path fill="#000000" stroke="none" paint-order="stroke fill markers" d=" M 809.790482243984 539.8373251423759 L 814 550 L 818.209517756016 539.8373251423759"/></g><g><path fill="none" stroke="#000000" paint-order="fill stroke markers" d=" M 809.790482243984 539.8373251423759 L 814 550 L 818.209517756016 539.8373251423759 L 809.790482243984 539.8373251423759" stroke-miterlimit="10" stroke-dasharray=""/></g><g><path fill="none" stroke="#000000" paint-order="fill stroke markers" d=" M 784 569 L 671 569 L 671 569 A 8 8 0 0 1 663 561 L 663 212" stroke-miterlimit="10" stroke-dasharray=""/></g><g><path fill="#000000" stroke="none" paint-order="stroke fill markers" d=" M 667.209517756016 222.16267485762415 L 663 212 L 658.790482243984 222.16267485762415"/></g><g><path fill="none" stroke="#000000" paint-order="fill stroke markers" d=" M 667.209517756016 222.16267485762415 L 663 212 L 658.790482243984 222.16267485762415 L 667.209517756016 222.16267485762415" stroke-miterlimit="10" stroke-dasharray=""/></g><g><path fill="none" stroke="#000000" paint-order="fill stroke markers" d=" M 672 193 L 946 193" stroke-miterlimit="10" stroke-dasharray=""/></g><g><path fill="#000000" stroke="none" paint-order="stroke fill markers" d=" M 935.8373251423759 197.209517756016 L 946 193 L 935.8373251423758 188.790482243984"/></g><g><path fill="none" stroke="#000000" paint-order="fill stroke markers" d=" M 935.8373251423759 197.209517756016 L 946 193 L 935.8373251423758 188.790482243984 L 935.8373251423759 197.209517756016" stroke-miterlimit="10" stroke-dasharray=""/></g><g><path fill="none" stroke="#000000" paint-order="fill stroke markers" d=" M 1078 193 L 1162 193" stroke-miterlimit="10" stroke-dasharray=""/></g><g><path fill="#000000" stroke="none" paint-order="stroke fill markers" d=" M 1151.837325142376 197.209517756016 L 1162 193 L 1151.837325142376 188.790482243984"/></g><g><path fill="none" stroke="#000000" paint-order="fill stroke markers" d=" M 1151.837325142376 197.209517756016 L 1162 193 L 1151.837325142376 188.790482243984 L 1151.837325142376 197.209517756016" stroke-miterlimit="10" stroke-dasharray=""/></g><g><path fill="#C0C0C0" stroke="none" paint-order="stroke fill markers" d=" M 1323 557 L 1411.625 557 Q 1421.625 557 1421.625 567 L 1421.625 637 Q 1421.625 647 1411.625 647 L 1323 647 Q 1313 647 1313 637 L 1313 567 Q 1313 557 1323 557 Z" fill-opacity="0.2"/></g><g><path fill="#ffffff" stroke="none" paint-order="stroke fill markers" d=" M 1316 550 L 1404.625 550 Q 1414.625 550 1414.625 560 L 1414.625 630 Q 1414.625 640 1404.625 640 L 1316 640 Q 1306 640 1306 630 L 1306 560 Q 1306 550 1316 550 Z"/></g><g><path fill="none" stroke="#000000" paint-order="fill stroke markers" d=" M 1316 550 L 1404.625 550 Q 1414.625 550 1414.625 560 L 1414.625 630 Q 1414.625 640 1404.625 640 L 1316 640 Q 1306 640 1306 630 L 1306 560 Q 1306 550 1316 550 Z" stroke-miterlimit="10" stroke-dasharray=""/></g><g><g><path fill="none" stroke="none"/><text fill="#000000" stroke="none" font-family="Arial" font-size="16px" font-style="normal" font-weight="normal" text-decoration="undefined" x="1422.3125" y="633" text-anchor="middle" dominant-baseline="central" transform="matrix(1 0 0 1 -62 -62)">Создаём</text><text fill="#000000" stroke="none" font-family="Arial" font-size="16px" font-style="normal" font-weight="normal" text-decoration="undefined" x="1422.3125" y="649" text-anchor="middle" dominant-baseline="central" transform="matrix(1 0 0 1 -62 -62)">запрос на</text><text fill="#000000" stroke="none" font-family="Arial" font-size="16px" font-style="normal" font-weight="normal" text-decoration="undefined" x="1422.3125" y="665" text-anchor="middle" dominant-baseline="central" transform="matrix(1 0 0 1 -62 -62)">приглашение</text><text fill="#000000" stroke="none" font-family="Arial" font-size="16px" font-style="normal" font-weight="normal" text-decoration="undefined" x="1422.3125" y="681" text-anchor="middle" dominant-baseline="central" transform="matrix(1 0 0 1 -62 -62)">вступить в КД</text></g></g><g><path fill="#C0C0C0" stroke="none" paint-order="stroke fill markers" d=" M 1485 575 L 1574.0078125 575 Q 1584.0078125 575 1584.0078125 585 L 1584.0078125 607 Q 1584.0078125 617 1574.0078125 617 L 1485 617 Q 1475 617 1475 607 L 1475 585 Q 1475 575 1485 575 Z" fill-opacity="0.2"/></g><g><path fill="#ffffff" stroke="none" paint-order="stroke fill markers" d=" M 1478 568 L 1567.0078125 568 Q 1577.0078125 568 1577.0078125 578 L 1577.0078125 600 Q 1577.0078125 610 1567.0078125 610 L 1478 610 Q 1468 610 1468 600 L 1468 578 Q 1468 568 1478 568 Z"/></g><g><path fill="none" stroke="#000000" paint-order="fill stroke markers" d=" M 1478 568 L 1567.0078125 568 Q 1577.0078125 568 1577.0078125 578 L 1577.0078125 600 Q 1577.0078125 610 1567.0078125 610 L 1478 610 Q 1468 610 1468 600 L 1468 578 Q 1468 568 1478 568 Z" stroke-miterlimit="10" stroke-dasharray=""/></g><g><g><path fill="none" stroke="none"/><text fill="#000000" stroke="none" font-family="Arial" font-size="16px" font-style="normal" font-weight="normal" text-decoration="undefined" x="1584.50390625" y="643" text-anchor="middle" dominant-baseline="central" transform="matrix(1 0 0 1 -62 -62)">Отправляем</text><text fill="#000000" stroke="none" font-family="Arial" font-size="16px" font-style="normal" font-weight="normal" text-decoration="undefined" x="1584.50390625" y="659" text-anchor="middle" dominant-baseline="central" transform="matrix(1 0 0 1 -62 -62)">уведомление</text></g></g><g><path fill="none" stroke="#000000" paint-order="fill stroke markers" d=" M 1234 214 L 1234 542 L 1234 542 A 8 8 0 0 0 1242 550 L 1306 550" stroke-miterlimit="10" stroke-dasharray=""/></g><g><path fill="#000000" stroke="none" paint-order="stroke fill markers" d=" M 1295.837325142376 554.209517756016 L 1306 550 L 1295.837325142376 545.790482243984"/></g><g><path fill="none" stroke="#000000" paint-order="fill stroke markers" d=" M 1295.837325142376 554.209517756016 L 1306 550 L 1295.837325142376 545.790482243984 L 1295.837325142376 554.209517756016" stroke-miterlimit="10" stroke-dasharray=""/></g><g><path fill="none" stroke="#000000" paint-order="fill stroke markers" d=" M 1415 593 L 1468 593" stroke-miterlimit="10" stroke-dasharray=""/></g><g><path fill="#000000" stroke="none" paint-order="stroke fill markers" d=" M 1457.837325142376 597.209517756016 L 1468 593 L 1457.837325142376 588.790482243984"/></g><g><path fill="none" stroke="#000000" paint-order="fill stroke markers" d=" M 1457.837325142376 597.209517756016 L 1468 593 L 1457.837325142376 588.790482243984 L 1457.837325142376 597.209517756016" stroke-miterlimit="10" stroke-dasharray=""/></g><g><path fill="#C0C0C0" stroke="none" paint-order="stroke fill markers" d=" M 1709 591 C 1709 582.1634432 1716.1634432 575 1725 575 C 1733.8365568 575 1741 582.1634432 1741 591 C 1741 599.8365568 1733.8365568 607 1725 607 C 1716.1634432 607 1709 599.8365568 1709 591 Z" fill-opacity="0.2"/></g><g><path fill="#ffffff" stroke="none" paint-order="stroke fill markers" d=" M 1702 584 C 1702 575.1634432 1709.1634432 568 1718 568 C 1726.8365568 568 1734 575.1634432 1734 584 C 1734 592.8365568 1726.8365568 600 1718 600 C 1709.1634432 600 1702 592.8365568 1702 584 Z"/></g><g><path fill="none" stroke="#000000" paint-order="fill stroke markers" d=" M 1702 584 C 1702 575.1634432 1709.1634432 568 1718 568 C 1726.8365568 568 1734 575.1634432 1734 584 C 1734 592.8365568 1726.8365568 600 1718 600 C 1709.1634432 600 1702 592.8365568 1702 584 Z" stroke-miterlimit="10" stroke-width="3" stroke-dasharray=""/></g><g><rect fill="#ffffff" stroke="none" x="1686.13671875" y="674" width="187.7265625" height="16" transform="matrix(1 0 0 1 -62 -62)"/></g><g><g><path fill="none" stroke="none"/><text fill="#000000" stroke="none" font-family="Arial" font-size="16px" font-style="normal" font-weight="normal" text-decoration="undefined" x="1780" y="682" text-anchor="middle" dominant-baseline="central" transform="matrix(1 0 0 1 -62 -62)">Приглашение завершено</text></g></g><g><path fill="none" stroke="#000000" paint-order="fill stroke markers" d=" M 1577 588 L 1702 588" stroke-miterlimit="10" stroke-dasharray=""/></g><g><path fill="#000000" stroke="none" paint-order="stroke fill markers" d=" M 1691.837325142376 592.209517756016 L 1702 588 L 1691.837325142376 583.790482243984"/></g><g><path fill="none" stroke="#000000" paint-order="fill stroke markers" d=" M 1691.837325142376 592.209517756016 L 1702 588 L 1691.837325142376 583.790482243984 L 1691.837325142376 592.209517756016" stroke-miterlimit="10" stroke-dasharray=""/></g><g><path fill="none" stroke="#000000" paint-order="fill stroke markers" d=" M 10 784 L 1846 784 L 1846 924.71875 L 10 924.71875 L 10 784 Z Z" stroke-miterlimit="10" stroke-dasharray=""/></g><g><path fill="none" stroke="#000000" paint-order="fill stroke markers" d=" M 36 784 L 36 924.71875" stroke-miterlimit="10" stroke-dasharray=""/></g><g><g><path fill="none" stroke="none"/><text fill="#000000" stroke="none" font-family="Arial" font-size="16px" font-style="normal" font-weight="normal" text-decoration="undefined" x="0" y="0" text-anchor="middle" dominant-baseline="text-before-edge" transform="matrix(6.123233995736766e-17 -1 1 6.123233995736766e-17 15 854.359375)">База данных</text></g></g><g><path fill="none" stroke="#000000" paint-order="fill stroke markers" d=" M 10 982 L 1846 982 L 1846 1122.71875 L 10 1122.71875 L 10 982 Z Z" stroke-miterlimit="10" stroke-dasharray=""/></g><g><path fill="none" stroke="#000000" paint-order="fill stroke markers" d=" M 36 982 L 36 1122.71875" stroke-miterlimit="10" stroke-dasharray=""/></g><g><g><path fill="none" stroke="none"/><text fill="#000000" stroke="none" font-family="Arial" font-size="16px" font-style="normal" font-weight="normal" text-decoration="undefined" x="0" y="0" text-anchor="middle" dominant-baseline="text-before-edge" transform="matrix(6.123233995736766e-17 -1 1 6.123233995736766e-17 15 1052.359375)">Уведомления</text></g></g><g><path fill="none" stroke="#000000" paint-order="fill stroke markers" d=" M 569 608 L 569 784" stroke-miterlimit="10" stroke-dasharray=""/></g><g><path fill="#000000" stroke="none" paint-order="stroke fill markers" d=" M 564.790482243984 773.8373251423759 L 569 784 L 573.209517756016 773.8373251423759"/></g><g><path fill="none" stroke="#000000" paint-order="fill stroke markers" d=" M 564.790482243984 773.8373251423759 L 569 784 L 573.209517756016 773.8373251423759 L 564.790482243984 773.8373251423759" stroke-miterlimit="10" stroke-dasharray=""/></g><g><path fill="none" stroke="#000000" paint-order="fill stroke markers" d=" M 846 624 L 846 784" stroke-miterlimit="10" stroke-dasharray=""/></g><g><path fill="#000000" stroke="none" paint-order="stroke fill markers" d=" M 841.790482243984 773.8373251423759 L 846 784 L 850.209517756016 773.8373251423759"/></g><g><path fill="none" stroke="#000000" paint-order="fill stroke markers" d=" M 841.790482243984 773.8373251423759 L 846 784 L 850.209517756016 773.8373251423759 L 841.790482243984 773.8373251423759" stroke-miterlimit="10" stroke-dasharray=""/></g><g><path fill="none" stroke="#000000" paint-order="fill stroke markers" d=" M 1306 640 L 1306 784" stroke-miterlimit="10" stroke-dasharray=""/></g><g><path fill="#000000" stroke="none" paint-order="stroke fill markers" d=" M 1301.7904822439841 773.8373251423759 L 1306 784 L 1310.2095177560159 773.8373251423759"/></g><g><path fill="none" stroke="#000000" paint-order="fill stroke markers" d=" M 1301.7904822439841 773.8373251423759 L 1306 784 L 1310.2095177560159 773.8373251423759 L 1301.7904822439841 773.8373251423759" stroke-miterlimit="10" stroke-dasharray=""/></g><g><path fill="none" stroke="#000000" paint-order="fill stroke markers" d=" M 1495 610 L 1495 982" stroke-miterlimit="10" stroke-dasharray=""/></g><g><path fill="#000000" stroke="none" paint-order="stroke fill markers" d=" M 1490.7904822439841 971.8373251423759 L 1495 982 L 1499.2095177560159 971.8373251423759"/></g><g><path fill="none" stroke="#000000" paint-order="fill stroke markers" d=" M 1490.7904822439841 971.8373251423759 L 1495 982 L 1499.2095177560159 971.8373251423759 L 1490.7904822439841 971.8373251423759" stroke-miterlimit="10" stroke-dasharray=""/></g></g></svg>