<svg version="1.1" xmlns="http://www.w3.org/2000/svg" xmlns:xlink="http://www.w3.org/1999/xlink" width="974" height="470"><defs/><g><g><rect fill="#ffffff" stroke="none" x="144" y="36" width="442.2421875" height="52" transform="matrix(1 0 0 1 -134 -26)"/></g><g><path fill="#ffffff" stroke="none" paint-order="stroke fill markers" d=" M 452.2421875 10 A 26 26 0 0 1 452.2421875 62"/></g><g><path fill="none" stroke="#000000" paint-order="fill stroke markers" d=" M 10 10 L 10 62" stroke-miterlimit="10" stroke-dasharray=""/></g><g><path fill="none" stroke="#000000" paint-order="fill stroke markers" d=" M 10 10 L 452.2421875 10" stroke-miterlimit="10" stroke-dasharray=""/></g><g><path fill="none" stroke="#000000" paint-order="fill stroke markers" d=" M 10 62 L 452.2421875 62" stroke-miterlimit="10" stroke-dasharray=""/></g><g><path fill="none" stroke="#000000" paint-order="fill stroke markers" d=" M 452.2421875 10 A 26 26 0 0 1 452.2421875 62" stroke-miterlimit="10" stroke-dasharray=""/></g><g><g><path fill="none" stroke="none"/><text fill="#000000" stroke="none" font-family="Arial" font-size="16px" font-style="normal" font-weight="normal" text-decoration="undefined" x="329.5908203125" y="54" text-anchor="middle" dominant-baseline="central" transform="matrix(1 0 0 1 -134 -26)">GET</text><text fill="#000000" stroke="none" font-family="Arial" font-size="16px" font-style="normal" font-weight="normal" text-decoration="undefined" x="329.5908203125" y="70" text-anchor="middle" dominant-baseline="central" transform="matrix(1 0 0 1 -134 -26)">/catalogs/templates/{templateId}/challenges/available</text></g></g><g><path fill="#ffffff" stroke="#000000" paint-order="fill stroke markers" d=" M 496 44 L 519 10 L 616.484375 10 Q 639.484375 10 639.484375 44 Q 639.484375 78 616.484375 78 L 519 78 L 496 44 Z" stroke-miterlimit="10" stroke-dasharray=""/></g><g><g><path fill="none" stroke="none"/><text fill="#000000" stroke="none" font-family="Arial" font-size="16px" font-style="normal" font-weight="normal" text-decoration="undefined" x="701.7421875" y="54" text-anchor="middle" dominant-baseline="central" transform="matrix(1 0 0 1 -134 -26)">Заголовки</text><text fill="#000000" stroke="none" font-family="Arial" font-size="16px" font-style="normal" font-weight="normal" text-decoration="undefined" x="701.7421875" y="70" text-anchor="middle" dominant-baseline="central" transform="matrix(1 0 0 1 -134 -26)">запроса</text><text fill="#000000" stroke="none" font-family="Arial" font-size="16px" font-style="normal" font-weight="normal" text-decoration="undefined" x="701.7421875" y="86" text-anchor="middle" dominant-baseline="central" transform="matrix(1 0 0 1 -134 -26)">(Авторизирован)</text></g></g><g><path fill="#ffffff" stroke="none" paint-order="stroke fill markers" d=" M 115 118 L 460 118 L 391 154 L 46 154 L 115 118"/></g><g><path fill="none" stroke="#000000" paint-order="fill stroke markers" d=" M 115 118 L 460 118 L 391 154 L 46 154 L 115 118 L 115 118" stroke-miterlimit="10" stroke-dasharray=""/></g><g><g><path fill="none" stroke="none"/><text fill="#000000" stroke="none" font-family="Arial" font-size="16px" font-style="normal" font-weight="normal" text-decoration="undefined" x="387" y="162" text-anchor="middle" dominant-baseline="central" transform="matrix(1 0 0 1 -134 -26)">GetCatalogsTemplatesChallengesAvailableReqest</text></g></g><g><path fill="#ffffff" stroke="none" paint-order="stroke fill markers" d=" M 100 190 L 424 190 Q 442 190 442 208 L 442 208 Q 442 226 424 226 L 100 226 Q 82 226 82 208 L 82 208 Q 82 190 100 190 Z"/></g><g><path fill="none" stroke="#000000" paint-order="fill stroke markers" d=" M 100 190 L 424 190 Q 442 190 442 208 L 442 208 Q 442 226 424 226 L 100 226 Q 82 226 82 208 L 82 208 Q 82 190 100 190 Z" stroke-miterlimit="10" stroke-dasharray=""/></g><g><g><path fill="none" stroke="none"/><text fill="#000000" stroke="none" font-family="Arial" font-size="16px" font-style="normal" font-weight="normal" text-decoration="undefined" x="396" y="234" text-anchor="middle" dominant-baseline="central" transform="matrix(1 0 0 1 -134 -26)">Есть ли группы со свободными местами</text></g></g><g><rect fill="#ffffff" stroke="none" x="180" y="306" width="432" height="52" transform="matrix(1 0 0 1 -134 -26)"/></g><g><path fill="none" stroke="#000000" paint-order="fill stroke markers" d=" M 46 280 L 478 280 L 478 332 L 46 332 L 46 280 Z Z" stroke-miterlimit="10" stroke-dasharray=""/></g><g><g><path fill="none" stroke="none"/><text fill="#000000" stroke="none" font-family="Arial" font-size="16px" font-style="normal" font-weight="normal" text-decoration="undefined" x="396" y="324" text-anchor="middle" dominant-baseline="central" transform="matrix(1 0 0 1 -134 -26)">Извлечь данные об челленджах которые находятся в</text><text fill="#000000" stroke="none" font-family="Arial" font-size="16px" font-style="normal" font-weight="normal" text-decoration="undefined" x="396" y="340" text-anchor="middle" dominant-baseline="central" transform="matrix(1 0 0 1 -134 -26)">глобале по указанному шаблону</text></g></g><g><path fill="#ffffff" stroke="none" paint-order="stroke fill markers" d=" M 94 424 L 514 424 L 430 460 L 10 460 L 94 424"/></g><g><path fill="none" stroke="#000000" paint-order="fill stroke markers" d=" M 94 424 L 514 424 L 430 460 L 10 460 L 94 424 L 94 424" stroke-miterlimit="10" stroke-dasharray=""/></g><g><g><path fill="none" stroke="none"/><text fill="#000000" stroke="none" font-family="Arial" font-size="16px" font-style="normal" font-weight="normal" text-decoration="undefined" x="396" y="468" text-anchor="middle" dominant-baseline="central" transform="matrix(1 0 0 1 -134 -26)">GetCatalogsTemplatesChallengesAvailableResponse</text></g></g><g><path fill="#ffffff" stroke="none" paint-order="stroke fill markers" d=" M 538 352 L 748 352 L 706 388 L 496 388 L 538 352"/></g><g><path fill="none" stroke="#000000" paint-order="fill stroke markers" d=" M 538 352 L 748 352 L 706 388 L 496 388 L 538 352 L 538 352" stroke-miterlimit="10" stroke-dasharray=""/></g><g><g><path fill="none" stroke="none"/><text fill="#000000" stroke="none" font-family="Arial" font-size="16px" font-style="normal" font-weight="normal" text-decoration="undefined" x="756" y="396" text-anchor="middle" dominant-baseline="central" transform="matrix(1 0 0 1 -134 -26)">AvailableChallengeDTO</text></g></g><g><path fill="#ffffff" stroke="none" paint-order="stroke fill markers" d=" M 784 298 L 964 298 L 928 334 L 748 334 L 784 298"/></g><g><path fill="none" stroke="#000000" paint-order="fill stroke markers" d=" M 784 298 L 964 298 L 928 334 L 748 334 L 784 298 L 784 298" stroke-miterlimit="10" stroke-dasharray=""/></g><g><g><path fill="none" stroke="none"/><text fill="#000000" stroke="none" font-family="Arial" font-size="16px" font-style="normal" font-weight="normal" text-decoration="undefined" x="990" y="342" text-anchor="middle" dominant-baseline="central" transform="matrix(1 0 0 1 -134 -26)">ParticipantDTO</text></g></g><g><path fill="none" stroke="#000000" paint-order="fill stroke markers" d=" M 246 62 L 246 118" stroke-miterlimit="10" stroke-dasharray=""/></g><g><path fill="#000000" stroke="none" paint-order="stroke fill markers" d=" M 241.790482243984 107.83732514237585 L 246 118 L 250.209517756016 107.83732514237585"/></g><g><path fill="none" stroke="#000000" paint-order="fill stroke markers" d=" M 241.790482243984 107.83732514237585 L 246 118 L 250.209517756016 107.83732514237585 L 241.790482243984 107.83732514237585" stroke-miterlimit="10" stroke-dasharray=""/></g><g><path fill="none" stroke="#000000" paint-order="fill stroke markers" d=" M 496 78 L 496 110 L 496 110 A 8 8 0 0 1 488 118 L 460 118" stroke-miterlimit="10" stroke-dasharray=""/></g><g><path fill="#000000" stroke="none" paint-order="stroke fill markers" d=" M 470.1626748576241 113.790482243984 L 460 118 L 470.1626748576241 122.209517756016"/></g><g><path fill="none" stroke="#000000" paint-order="fill stroke markers" d=" M 470.1626748576241 113.790482243984 L 460 118 L 470.1626748576241 122.209517756016 L 470.1626748576241 113.790482243984" stroke-miterlimit="10" stroke-dasharray=""/></g><g><path fill="none" stroke="#000000" paint-order="fill stroke markers" d=" M 255 154 L 255 190" stroke-miterlimit="10" stroke-dasharray=""/></g><g><path fill="#000000" stroke="none" paint-order="stroke fill markers" d=" M 250.790482243984 179.83732514237585 L 255 190 L 259.209517756016 179.83732514237585"/></g><g><path fill="none" stroke="#000000" paint-order="fill stroke markers" d=" M 250.790482243984 179.83732514237585 L 255 190 L 259.209517756016 179.83732514237585 L 250.790482243984 179.83732514237585" stroke-miterlimit="10" stroke-dasharray=""/></g><g><path fill="none" stroke="#000000" paint-order="fill stroke markers" d=" M 262 226 L 262 280" stroke-miterlimit="10" stroke-dasharray=""/></g><g><path fill="#000000" stroke="none" paint-order="stroke fill markers" d=" M 257.790482243984 269.83732514237585 L 262 280 L 266.209517756016 269.83732514237585"/></g><g><path fill="none" stroke="#000000" paint-order="fill stroke markers" d=" M 257.790482243984 269.83732514237585 L 262 280 L 266.209517756016 269.83732514237585 L 257.790482243984 269.83732514237585" stroke-miterlimit="10" stroke-dasharray=""/></g><g><path fill="none" stroke="#000000" paint-order="fill stroke markers" d=" M 262 332 L 262 424" stroke-miterlimit="10" stroke-dasharray=""/></g><g><path fill="#000000" stroke="none" paint-order="stroke fill markers" d=" M 257.790482243984 413.83732514237585 L 262 424 L 266.209517756016 413.83732514237585"/></g><g><path fill="none" stroke="#000000" paint-order="fill stroke markers" d=" M 257.790482243984 413.83732514237585 L 262 424 L 266.209517756016 413.83732514237585 L 257.790482243984 413.83732514237585" stroke-miterlimit="10" stroke-dasharray=""/></g><g><path fill="none" stroke="#000000" paint-order="fill stroke markers" d=" M 784 334 L 784 344 L 784 344 A 8 8 0 0 1 776 352 L 748 352" stroke-miterlimit="10" stroke-dasharray=""/></g><g><path fill="#000000" stroke="none" paint-order="stroke fill markers" d=" M 758.1626748576241 347.790482243984 L 748 352 L 758.1626748576241 356.209517756016"/></g><g><path fill="none" stroke="#000000" paint-order="fill stroke markers" d=" M 758.1626748576241 347.790482243984 L 748 352 L 758.1626748576241 356.209517756016 L 758.1626748576241 347.790482243984" stroke-miterlimit="10" stroke-dasharray=""/></g><g><path fill="none" stroke="#000000" paint-order="fill stroke markers" d=" M 546 388 L 546 416 L 546 416 A 8 8 0 0 1 538 424 L 514 424" stroke-miterlimit="10" stroke-dasharray=""/></g><g><path fill="#000000" stroke="none" paint-order="stroke fill markers" d=" M 524.1626748576241 419.790482243984 L 514 424 L 524.1626748576241 428.209517756016"/></g><g><path fill="none" stroke="#000000" paint-order="fill stroke markers" d=" M 524.1626748576241 419.790482243984 L 514 424 L 524.1626748576241 428.209517756016 L 524.1626748576241 419.790482243984" stroke-miterlimit="10" stroke-dasharray=""/></g></g></svg>