<svg version="1.1" xmlns="http://www.w3.org/2000/svg" xmlns:xlink="http://www.w3.org/1999/xlink" width="583.4453125" height="398"><defs/><g><g><rect fill="#ffffff" stroke="none" x="216" y="72" width="406" height="52" transform="matrix(1 0 0 1 -206 -62)"/></g><g><path fill="#ffffff" stroke="none" paint-order="stroke fill markers" d=" M 416 10 A 26 26 0 0 1 416 62"/></g><g><path fill="none" stroke="#000000" paint-order="fill stroke markers" d=" M 10 10 L 10 62" stroke-miterlimit="10" stroke-dasharray=""/></g><g><path fill="none" stroke="#000000" paint-order="fill stroke markers" d=" M 10 10 L 416 10" stroke-miterlimit="10" stroke-dasharray=""/></g><g><path fill="none" stroke="#000000" paint-order="fill stroke markers" d=" M 10 62 L 416 62" stroke-miterlimit="10" stroke-dasharray=""/></g><g><path fill="none" stroke="#000000" paint-order="fill stroke markers" d=" M 416 10 A 26 26 0 0 1 416 62" stroke-miterlimit="10" stroke-dasharray=""/></g><g><g><path fill="none" stroke="none"/><text fill="#000000" stroke="none" font-family="Arial" font-size="16px" font-style="normal" font-weight="normal" text-decoration="undefined" x="388" y="90" text-anchor="middle" dominant-baseline="central" transform="matrix(1 0 0 1 -206 -62)">POST /wallet/cards/webhook/stripe</text></g></g><g><path fill="#ffffff" stroke="#000000" paint-order="fill stroke markers" d=" M 478 44 L 493 10 L 558.4453125 10 Q 573.4453125 10 573.4453125 44 Q 573.4453125 78 558.4453125 78 L 493 78 L 478 44 Z" stroke-miterlimit="10" stroke-dasharray=""/></g><g><g><path fill="none" stroke="none"/><text fill="#000000" stroke="none" font-family="Arial" font-size="16px" font-style="normal" font-weight="normal" text-decoration="undefined" x="731.72265625" y="90" text-anchor="middle" dominant-baseline="central" transform="matrix(1 0 0 1 -206 -62)">Заголовки</text><text fill="#000000" stroke="none" font-family="Arial" font-size="16px" font-style="normal" font-weight="normal" text-decoration="undefined" x="731.72265625" y="106" text-anchor="middle" dominant-baseline="central" transform="matrix(1 0 0 1 -206 -62)">запроса</text><text fill="#000000" stroke="none" font-family="Arial" font-size="16px" font-style="normal" font-weight="normal" text-decoration="undefined" x="731.72265625" y="122" text-anchor="middle" dominant-baseline="central" transform="matrix(1 0 0 1 -206 -62)">(Stripe)</text></g></g><g><path fill="#ffffff" stroke="none" paint-order="stroke fill markers" d=" M 88 136 L 388 136 L 328 172 L 28 172 L 88 136"/></g><g><path fill="none" stroke="#000000" paint-order="fill stroke markers" d=" M 88 136 L 388 136 L 328 172 L 28 172 L 88 136 L 88 136" stroke-miterlimit="10" stroke-dasharray=""/></g><g><g><path fill="none" stroke="none"/><text fill="#000000" stroke="none" font-family="Arial" font-size="16px" font-style="normal" font-weight="normal" text-decoration="undefined" x="414" y="216" text-anchor="middle" dominant-baseline="central" transform="matrix(1 0 0 1 -206 -62)">StripeUpdate</text></g></g><g><path fill="#ffffff" stroke="none" paint-order="stroke fill markers" d=" M 73 352 L 388 352 L 325 388 L 10 388 L 73 352"/></g><g><path fill="none" stroke="#000000" paint-order="fill stroke markers" d=" M 73 352 L 388 352 L 325 388 L 10 388 L 73 352 L 73 352" stroke-miterlimit="10" stroke-dasharray=""/></g><g><g><path fill="none" stroke="none"/><text fill="#000000" stroke="none" font-family="Arial" font-size="16px" font-style="normal" font-weight="normal" text-decoration="undefined" x="405" y="432" text-anchor="middle" dominant-baseline="central" transform="matrix(1 0 0 1 -206 -62)">NoBodyResponse</text></g></g><g><path fill="none" stroke="#000000" paint-order="fill stroke markers" d=" M 222 62 L 222 136" stroke-miterlimit="10" stroke-dasharray=""/></g><g><path fill="#000000" stroke="none" paint-order="stroke fill markers" d=" M 217.790482243984 125.83732514237585 L 222 136 L 226.209517756016 125.83732514237585"/></g><g><path fill="none" stroke="#000000" paint-order="fill stroke markers" d=" M 217.790482243984 125.83732514237585 L 222 136 L 226.209517756016 125.83732514237585 L 217.790482243984 125.83732514237585" stroke-miterlimit="10" stroke-dasharray=""/></g><g><path fill="none" stroke="#000000" paint-order="fill stroke markers" d=" M 478 78 L 478 128 L 478 128 A 8 8 0 0 1 470 136 L 388 136" stroke-miterlimit="10" stroke-dasharray=""/></g><g><path fill="#000000" stroke="none" paint-order="stroke fill markers" d=" M 398.1626748576241 131.790482243984 L 388 136 L 398.1626748576241 140.209517756016"/></g><g><path fill="none" stroke="#000000" paint-order="fill stroke markers" d=" M 398.1626748576241 131.790482243984 L 388 136 L 398.1626748576241 140.209517756016 L 398.1626748576241 131.790482243984" stroke-miterlimit="10" stroke-dasharray=""/></g><g><path fill="none" stroke="#000000" paint-order="fill stroke markers" d=" M 207 172 L 207 352" stroke-miterlimit="10" stroke-dasharray=""/></g><g><path fill="#000000" stroke="none" paint-order="stroke fill markers" d=" M 202.790482243984 341.83732514237585 L 207 352 L 211.209517756016 341.83732514237585"/></g><g><path fill="none" stroke="#000000" paint-order="fill stroke markers" d=" M 202.790482243984 341.83732514237585 L 207 352 L 211.209517756016 341.83732514237585 L 202.790482243984 341.83732514237585" stroke-miterlimit="10" stroke-dasharray=""/></g></g></svg>