<svg version="1.1" xmlns="http://www.w3.org/2000/svg" xmlns:xlink="http://www.w3.org/1999/xlink" width="452" height="416"><defs/><g><g><path fill="#ffffff" stroke="none" paint-order="stroke fill markers" d=" M 46 10 L 226 10 L 190 46 L 10 46 L 46 10"/></g><g><path fill="none" stroke="#000000" paint-order="fill stroke markers" d=" M 46 10 L 226 10 L 190 46 L 10 46 L 46 10 L 46 10" stroke-miterlimit="10" stroke-dasharray=""/></g><g><g><path fill="none" stroke="none"/><text fill="#000000" stroke="none" font-family="Arial" font-size="16px" font-style="normal" font-weight="normal" text-decoration="undefined" x="468" y="72" text-anchor="middle" dominant-baseline="central" transform="matrix(1 0 0 1 -350 -44)">SearchParams</text></g></g><g><path fill="#ffffff" stroke="#000000" paint-order="fill stroke markers" d=" M 10 104 C 10 101.79086079999999 58.35324159999999 100 118 100 C 177.64675839999995 100 226 101.79086079999999 226 104 L 226 132 C 226 134.2091392 177.64675839999995 136 118 136 C 58.35324159999999 136 10 134.2091392 10 132 L 10 104 Z" stroke-miterlimit="10" stroke-dasharray=""/></g><g><path fill="none" stroke="#000000" paint-order="fill stroke markers" d=" M 10 104 C 10 106.20913920000001 58.35324159999999 108 118 108 C 177.64675839999995 108 226 106.20913920000001 226 104" stroke-miterlimit="10" stroke-dasharray=""/></g><g><g><path fill="none" stroke="none"/><text fill="#000000" stroke="none" font-family="Arial" font-size="16px" font-style="normal" font-weight="normal" text-decoration="undefined" x="468" y="164" text-anchor="middle" dominant-baseline="central" transform="matrix(1 0 0 1 -350 -44)">Запрос</text></g></g><g><path fill="#ffffff" stroke="none" paint-order="stroke fill markers" d=" M 37 172 L 199 172 Q 226 172 226 199 L 226 199 Q 226 226 199 226 L 37 226 Q 10 226 10 199 L 10 199 Q 10 172 37 172 Z"/></g><g><path fill="none" stroke="#000000" paint-order="fill stroke markers" d=" M 37 172 L 199 172 Q 226 172 226 199 L 226 199 Q 226 226 199 226 L 37 226 Q 10 226 10 199 L 10 199 Q 10 172 37 172 Z" stroke-miterlimit="10" stroke-dasharray=""/></g><g><g><path fill="none" stroke="none"/><text fill="#000000" stroke="none" font-family="Arial" font-size="16px" font-style="normal" font-weight="normal" text-decoration="undefined" x="468" y="234" text-anchor="middle" dominant-baseline="central" transform="matrix(1 0 0 1 -350 -44)">Шаблон открыт для</text><text fill="#000000" stroke="none" font-family="Arial" font-size="16px" font-style="normal" font-weight="normal" text-decoration="undefined" x="468" y="250" text-anchor="middle" dominant-baseline="central" transform="matrix(1 0 0 1 -350 -44)">запуска всем</text></g></g><g><path fill="#ffffff" stroke="none" paint-order="stroke fill markers" d=" M 271 262 L 415 262 Q 442 262 442 289 L 442 289 Q 442 316 415 316 L 271 316 Q 244 316 244 289 L 244 289 Q 244 262 271 262 Z"/></g><g><path fill="none" stroke="#000000" paint-order="fill stroke markers" d=" M 271 262 L 415 262 Q 442 262 442 289 L 442 289 Q 442 316 415 316 L 271 316 Q 244 316 244 289 L 244 289 Q 244 262 271 262 Z" stroke-miterlimit="10" stroke-dasharray=""/></g><g><g><path fill="none" stroke="none"/><text fill="#000000" stroke="none" font-family="Arial" font-size="16px" font-style="normal" font-weight="normal" text-decoration="undefined" x="693" y="324" text-anchor="middle" dominant-baseline="central" transform="matrix(1 0 0 1 -350 -44)">QueryUserId равен ид</text><text fill="#000000" stroke="none" font-family="Arial" font-size="16px" font-style="normal" font-weight="normal" text-decoration="undefined" x="693" y="340" text-anchor="middle" dominant-baseline="central" transform="matrix(1 0 0 1 -350 -44)">создателя шаблона</text></g></g><g><path fill="#ffffff" stroke="none" paint-order="stroke fill markers" d=" M 46 370 L 226 370 L 190 406 L 10 406 L 46 370"/></g><g><path fill="none" stroke="#000000" paint-order="fill stroke markers" d=" M 46 370 L 226 370 L 190 406 L 10 406 L 46 370 L 46 370" stroke-miterlimit="10" stroke-dasharray=""/></g><g><g><path fill="none" stroke="none"/><text fill="#000000" stroke="none" font-family="Arial" font-size="16px" font-style="normal" font-weight="normal" text-decoration="undefined" x="468" y="432" text-anchor="middle" dominant-baseline="central" transform="matrix(1 0 0 1 -350 -44)">Result</text></g></g><g><path fill="none" stroke="#000000" paint-order="fill stroke markers" d=" M 118 226 L 118 370" stroke-miterlimit="10" stroke-dasharray=""/></g><g><path fill="#000000" stroke="none" paint-order="stroke fill markers" d=" M 113.790482243984 359.83732514237585 L 118 370 L 122.209517756016 359.83732514237585"/></g><g><path fill="none" stroke="#000000" paint-order="fill stroke markers" d=" M 113.790482243984 359.83732514237585 L 118 370 L 122.209517756016 359.83732514237585 L 113.790482243984 359.83732514237585" stroke-miterlimit="10" stroke-dasharray=""/></g><g><rect fill="#ffffff" stroke="none" x="473" y="333" width="19.734375" height="16" transform="matrix(1 0 0 1 -350 -44)"/></g><g><g><path fill="none" stroke="none"/><text fill="#000000" stroke="none" font-family="Arial" font-size="16px" font-style="normal" font-weight="normal" text-decoration="undefined" x="482.8671875" y="341" text-anchor="middle" dominant-baseline="central" transform="matrix(1 0 0 1 -350 -44)">Да</text></g></g><g><path fill="none" stroke="#000000" paint-order="fill stroke markers" d=" M 226 199 L 326 199 L 326 199 A 8 8 0 0 1 334 207 L 334 262" stroke-miterlimit="10" stroke-dasharray=""/></g><g><path fill="#000000" stroke="none" paint-order="stroke fill markers" d=" M 329.790482243984 251.83732514237585 L 334 262 L 338.209517756016 251.83732514237585"/></g><g><path fill="none" stroke="#000000" paint-order="fill stroke markers" d=" M 329.790482243984 251.83732514237585 L 334 262 L 338.209517756016 251.83732514237585 L 329.790482243984 251.83732514237585" stroke-miterlimit="10" stroke-dasharray=""/></g><g><rect fill="#ffffff" stroke="none" x="685" y="234" width="27.25" height="16" transform="matrix(1 0 0 1 -350 -44)"/></g><g><g><path fill="none" stroke="none"/><text fill="#000000" stroke="none" font-family="Arial" font-size="16px" font-style="normal" font-weight="normal" text-decoration="undefined" x="698.625" y="242" text-anchor="middle" dominant-baseline="central" transform="matrix(1 0 0 1 -350 -44)">Нет</text></g></g><g><path fill="none" stroke="#000000" paint-order="fill stroke markers" d=" M 282 316 L 282 362 L 282 362 A 8 8 0 0 1 274 370 L 226 370" stroke-miterlimit="10" stroke-dasharray=""/></g><g><path fill="#000000" stroke="none" paint-order="stroke fill markers" d=" M 236.1626748576241 365.790482243984 L 226 370 L 236.1626748576241 374.209517756016"/></g><g><path fill="none" stroke="#000000" paint-order="fill stroke markers" d=" M 236.1626748576241 365.790482243984 L 226 370 L 236.1626748576241 374.209517756016 L 236.1626748576241 365.790482243984" stroke-miterlimit="10" stroke-dasharray=""/></g><g><path fill="none" stroke="#000000" paint-order="fill stroke markers" d=" M 118 46 L 118 100" stroke-miterlimit="10" stroke-dasharray=""/></g><g><path fill="#000000" stroke="none" paint-order="stroke fill markers" d=" M 113.790482243984 89.83732514237585 L 118 100 L 122.209517756016 89.83732514237585"/></g><g><path fill="none" stroke="#000000" paint-order="fill stroke markers" d=" M 113.790482243984 89.83732514237585 L 118 100 L 122.209517756016 89.83732514237585 L 113.790482243984 89.83732514237585" stroke-miterlimit="10" stroke-dasharray=""/></g><g><path fill="none" stroke="#000000" paint-order="fill stroke markers" d=" M 118 136 L 118 172" stroke-miterlimit="10" stroke-dasharray=""/></g><g><path fill="#000000" stroke="none" paint-order="stroke fill markers" d=" M 113.790482243984 161.83732514237585 L 118 172 L 122.209517756016 161.83732514237585"/></g><g><path fill="none" stroke="#000000" paint-order="fill stroke markers" d=" M 113.790482243984 161.83732514237585 L 118 172 L 122.209517756016 161.83732514237585 L 113.790482243984 161.83732514237585" stroke-miterlimit="10" stroke-dasharray=""/></g></g></svg>