<svg version="1.1" xmlns="http://www.w3.org/2000/svg" xmlns:xlink="http://www.w3.org/1999/xlink" width="667.484375" height="578"><defs/><g><g><rect fill="#ffffff" stroke="none" x="270" y="54" width="360" height="36" transform="matrix(1 0 0 1 -188 -26)"/></g><g><path fill="#ffffff" stroke="none" paint-order="stroke fill markers" d=" M 442 28 A 18 18 0 0 1 442 64"/></g><g><path fill="none" stroke="#000000" paint-order="fill stroke markers" d=" M 82 28 L 82 64" stroke-miterlimit="10" stroke-dasharray=""/></g><g><path fill="none" stroke="#000000" paint-order="fill stroke markers" d=" M 82 28 L 442 28" stroke-miterlimit="10" stroke-dasharray=""/></g><g><path fill="none" stroke="#000000" paint-order="fill stroke markers" d=" M 82 64 L 442 64" stroke-miterlimit="10" stroke-dasharray=""/></g><g><path fill="none" stroke="#000000" paint-order="fill stroke markers" d=" M 442 28 A 18 18 0 0 1 442 64" stroke-miterlimit="10" stroke-dasharray=""/></g><g><g><path fill="none" stroke="none"/><text fill="#000000" stroke="none" font-family="Arial" font-size="16px" font-style="normal" font-weight="normal" text-decoration="undefined" x="421.75" y="72" text-anchor="middle" dominant-baseline="central" transform="matrix(1 0 0 1 -188 -26)">POST /challenges/{challengeId}/cancel</text></g></g><g><path fill="#ffffff" stroke="#000000" paint-order="fill stroke markers" d=" M 514 44 L 537 10 L 634.484375 10 Q 657.484375 10 657.484375 44 Q 657.484375 78 634.484375 78 L 537 78 L 514 44 Z" stroke-miterlimit="10" stroke-dasharray=""/></g><g><g><path fill="none" stroke="none"/><text fill="#000000" stroke="none" font-family="Arial" font-size="16px" font-style="normal" font-weight="normal" text-decoration="undefined" x="773.7421875" y="54" text-anchor="middle" dominant-baseline="central" transform="matrix(1 0 0 1 -188 -26)">Заголовки</text><text fill="#000000" stroke="none" font-family="Arial" font-size="16px" font-style="normal" font-weight="normal" text-decoration="undefined" x="773.7421875" y="70" text-anchor="middle" dominant-baseline="central" transform="matrix(1 0 0 1 -188 -26)">запроса</text><text fill="#000000" stroke="none" font-family="Arial" font-size="16px" font-style="normal" font-weight="normal" text-decoration="undefined" x="773.7421875" y="86" text-anchor="middle" dominant-baseline="central" transform="matrix(1 0 0 1 -188 -26)">(Авторизирован)</text></g></g><g><path fill="#ffffff" stroke="none" paint-order="stroke fill markers" d=" M 130 100 L 460 100 L 394 136 L 64 136 L 130 100"/></g><g><path fill="none" stroke="#000000" paint-order="fill stroke markers" d=" M 130 100 L 460 100 L 394 136 L 64 136 L 130 100 L 130 100" stroke-miterlimit="10" stroke-dasharray=""/></g><g><g><path fill="none" stroke="none"/><text fill="#000000" stroke="none" font-family="Arial" font-size="16px" font-style="normal" font-weight="normal" text-decoration="undefined" x="450" y="144" text-anchor="middle" dominant-baseline="central" transform="matrix(1 0 0 1 -188 -26)">PostChallengeCancelRequest</text></g></g><g><path fill="#ffffff" stroke="none" paint-order="stroke fill markers" d=" M 108 172 L 398 172 Q 424 172 424 198 L 424 198 Q 424 224 398 224 L 108 224 Q 82 224 82 198 L 82 198 Q 82 172 108 172 Z"/></g><g><path fill="none" stroke="#000000" paint-order="fill stroke markers" d=" M 108 172 L 398 172 Q 424 172 424 198 L 424 198 Q 424 224 398 224 L 108 224 Q 82 224 82 198 L 82 198 Q 82 172 108 172 Z" stroke-miterlimit="10" stroke-dasharray=""/></g><g><g><path fill="none" stroke="none"/><text fill="#000000" stroke="none" font-family="Arial" font-size="16px" font-style="normal" font-weight="normal" text-decoration="undefined" x="441" y="216" text-anchor="middle" dominant-baseline="central" transform="matrix(1 0 0 1 -188 -26)">Роль пользователя в челлендже</text><text fill="#000000" stroke="none" font-family="Arial" font-size="16px" font-style="normal" font-weight="normal" text-decoration="undefined" x="441" y="232" text-anchor="middle" dominant-baseline="central" transform="matrix(1 0 0 1 -188 -26)">"Создатель"</text></g></g><g><rect fill="#ffffff" stroke="none" x="234" y="288" width="414" height="36" transform="matrix(1 0 0 1 -188 -26)"/></g><g><path fill="none" stroke="#000000" paint-order="fill stroke markers" d=" M 46 262 L 460 262 L 460 298 L 46 298 L 46 262 Z Z" stroke-miterlimit="10" stroke-dasharray=""/></g><g><g><path fill="none" stroke="none"/><text fill="#000000" stroke="none" font-family="Arial" font-size="16px" font-style="normal" font-weight="normal" text-decoration="undefined" x="441" y="306" text-anchor="middle" dominant-baseline="central" transform="matrix(1 0 0 1 -188 -26)">Поменять статус у челленджа</text></g></g><g><path fill="#ffffff" stroke="none" paint-order="stroke fill markers" d=" M 496 440 L 514 406 L 588.125 406 L 606.125 440 L 588.125 474 L 514 474 L 496 440"/></g><g><path fill="none" stroke="#000000" paint-order="fill stroke markers" d=" M 496 440 L 514 406 L 588.125 406 L 606.125 440 L 588.125 474 L 514 474 L 496 440 L 496 440" stroke-miterlimit="10" stroke-dasharray=""/></g><g><g><path fill="none" stroke="none"/><text fill="#000000" stroke="none" font-family="Arial" font-size="16px" font-style="normal" font-weight="normal" text-decoration="undefined" x="739.0625" y="450" text-anchor="middle" dominant-baseline="central" transform="matrix(1 0 0 1 -188 -26)">Челлендж</text><text fill="#000000" stroke="none" font-family="Arial" font-size="16px" font-style="normal" font-weight="normal" text-decoration="undefined" x="739.0625" y="466" text-anchor="middle" dominant-baseline="central" transform="matrix(1 0 0 1 -188 -26)">завершился</text></g></g><g><path fill="#ffffff" stroke="none" paint-order="stroke fill markers" d=" M 85 532 L 460 532 L 385 568 L 10 568 L 85 532"/></g><g><path fill="none" stroke="#000000" paint-order="fill stroke markers" d=" M 85 532 L 460 532 L 385 568 L 10 568 L 85 532 L 85 532" stroke-miterlimit="10" stroke-dasharray=""/></g><g><g><path fill="none" stroke="none"/><text fill="#000000" stroke="none" font-family="Arial" font-size="16px" font-style="normal" font-weight="normal" text-decoration="undefined" x="423" y="576" text-anchor="middle" dominant-baseline="central" transform="matrix(1 0 0 1 -188 -26)">NoBodyResponse</text></g></g><g><rect fill="#ffffff" stroke="none" x="234" y="360" width="414" height="36" transform="matrix(1 0 0 1 -188 -26)"/></g><g><path fill="none" stroke="#000000" paint-order="fill stroke markers" d=" M 46 334 L 460 334 L 460 370 L 46 370 L 46 334 Z Z" stroke-miterlimit="10" stroke-dasharray=""/></g><g><g><path fill="none" stroke="none"/><text fill="#000000" stroke="none" font-family="Arial" font-size="16px" font-style="normal" font-weight="normal" text-decoration="undefined" x="441" y="378" text-anchor="middle" dominant-baseline="central" transform="matrix(1 0 0 1 -188 -26)">Отправить уведомление о завершении челенджа</text></g></g><g><path fill="none" stroke="#000000" paint-order="fill stroke markers" d=" M 269 64 L 269 100" stroke-miterlimit="10" stroke-dasharray=""/></g><g><path fill="#000000" stroke="none" paint-order="stroke fill markers" d=" M 264.790482243984 89.83732514237585 L 269 100 L 273.209517756016 89.83732514237585"/></g><g><path fill="none" stroke="#000000" paint-order="fill stroke markers" d=" M 264.790482243984 89.83732514237585 L 269 100 L 273.209517756016 89.83732514237585 L 264.790482243984 89.83732514237585" stroke-miterlimit="10" stroke-dasharray=""/></g><g><path fill="none" stroke="#000000" paint-order="fill stroke markers" d=" M 514 78 L 514 92 L 514 92 A 8 8 0 0 1 506 100 L 460 100" stroke-miterlimit="10" stroke-dasharray=""/></g><g><path fill="#000000" stroke="none" paint-order="stroke fill markers" d=" M 470.1626748576241 95.79048224398402 L 460 100 L 470.1626748576241 104.209517756016"/></g><g><path fill="none" stroke="#000000" paint-order="fill stroke markers" d=" M 470.1626748576241 95.79048224398402 L 460 100 L 470.1626748576241 104.209517756016 L 470.1626748576241 95.79048224398402" stroke-miterlimit="10" stroke-dasharray=""/></g><g><path fill="none" stroke="#000000" paint-order="fill stroke markers" d=" M 260 136 L 260 172" stroke-miterlimit="10" stroke-dasharray=""/></g><g><path fill="#000000" stroke="none" paint-order="stroke fill markers" d=" M 255.790482243984 161.83732514237585 L 260 172 L 264.209517756016 161.83732514237585"/></g><g><path fill="none" stroke="#000000" paint-order="fill stroke markers" d=" M 255.790482243984 161.83732514237585 L 260 172 L 264.209517756016 161.83732514237585 L 255.790482243984 161.83732514237585" stroke-miterlimit="10" stroke-dasharray=""/></g><g><path fill="none" stroke="#000000" paint-order="fill stroke markers" d=" M 253 224 L 253 262" stroke-miterlimit="10" stroke-dasharray=""/></g><g><path fill="#000000" stroke="none" paint-order="stroke fill markers" d=" M 248.790482243984 251.83732514237585 L 253 262 L 257.209517756016 251.83732514237585"/></g><g><path fill="none" stroke="#000000" paint-order="fill stroke markers" d=" M 248.790482243984 251.83732514237585 L 253 262 L 257.209517756016 251.83732514237585 L 248.790482243984 251.83732514237585" stroke-miterlimit="10" stroke-dasharray=""/></g><g><path fill="none" stroke="#000000" paint-order="fill stroke markers" d=" M 253 298 L 253 334" stroke-miterlimit="10" stroke-dasharray=""/></g><g><path fill="#000000" stroke="none" paint-order="stroke fill markers" d=" M 248.790482243984 323.83732514237585 L 253 334 L 257.209517756016 323.83732514237585"/></g><g><path fill="none" stroke="#000000" paint-order="fill stroke markers" d=" M 248.790482243984 323.83732514237585 L 253 334 L 257.209517756016 323.83732514237585 L 248.790482243984 323.83732514237585" stroke-miterlimit="10" stroke-dasharray=""/></g><g><path fill="none" stroke="#000000" paint-order="fill stroke markers" d=" M 251 370 L 251 398 L 251 398 A 8 8 0 0 0 259 406 L 496 406" stroke-miterlimit="10" stroke-dasharray=""/></g><g><path fill="#000000" stroke="none" paint-order="stroke fill markers" d=" M 485.8373251423759 410.209517756016 L 496 406 L 485.8373251423758 401.790482243984"/></g><g><path fill="none" stroke="#000000" paint-order="fill stroke markers" d=" M 485.8373251423759 410.209517756016 L 496 406 L 485.8373251423758 401.790482243984 L 485.8373251423759 410.209517756016" stroke-miterlimit="10" stroke-dasharray=""/></g><g><path fill="none" stroke="#000000" paint-order="fill stroke markers" d=" M 251 370 L 251 532" stroke-miterlimit="10" stroke-dasharray=""/></g><g><path fill="#000000" stroke="none" paint-order="stroke fill markers" d=" M 246.790482243984 521.8373251423759 L 251 532 L 255.209517756016 521.8373251423759"/></g><g><path fill="none" stroke="#000000" paint-order="fill stroke markers" d=" M 246.790482243984 521.8373251423759 L 251 532 L 255.209517756016 521.8373251423759 L 246.790482243984 521.8373251423759" stroke-miterlimit="10" stroke-dasharray=""/></g></g></svg>