<svg version="1.1" xmlns="http://www.w3.org/2000/svg" xmlns:xlink="http://www.w3.org/1999/xlink" width="559.484375" height="308"><defs/><g><g><rect fill="#ffffff" stroke="none" x="396" y="108" width="288" height="36" transform="matrix(1 0 0 1 -350 -80)"/></g><g><path fill="#ffffff" stroke="none" paint-order="stroke fill markers" d=" M 334 28 A 18 18 0 0 1 334 64"/></g><g><path fill="none" stroke="#000000" paint-order="fill stroke markers" d=" M 46 28 L 46 64" stroke-miterlimit="10" stroke-dasharray=""/></g><g><path fill="none" stroke="#000000" paint-order="fill stroke markers" d=" M 46 28 L 334 28" stroke-miterlimit="10" stroke-dasharray=""/></g><g><path fill="none" stroke="#000000" paint-order="fill stroke markers" d=" M 46 64 L 334 64" stroke-miterlimit="10" stroke-dasharray=""/></g><g><path fill="none" stroke="#000000" paint-order="fill stroke markers" d=" M 334 28 A 18 18 0 0 1 334 64" stroke-miterlimit="10" stroke-dasharray=""/></g><g><g><path fill="none" stroke="none"/><text fill="#000000" stroke="none" font-family="Arial" font-size="16px" font-style="normal" font-weight="normal" text-decoration="undefined" x="520.75" y="126" text-anchor="middle" dominant-baseline="central" transform="matrix(1 0 0 1 -350 -80)">GET /wallet/balance</text></g></g><g><path fill="#ffffff" stroke="#000000" paint-order="fill stroke markers" d=" M 406 44 L 429 10 L 526.484375 10 Q 549.484375 10 549.484375 44 Q 549.484375 78 526.484375 78 L 429 78 L 406 44 Z" stroke-miterlimit="10" stroke-dasharray=""/></g><g><g><path fill="none" stroke="none"/><text fill="#000000" stroke="none" font-family="Arial" font-size="16px" font-style="normal" font-weight="normal" text-decoration="undefined" x="827.7421875" y="108" text-anchor="middle" dominant-baseline="central" transform="matrix(1 0 0 1 -350 -80)">Заголовки</text><text fill="#000000" stroke="none" font-family="Arial" font-size="16px" font-style="normal" font-weight="normal" text-decoration="undefined" x="827.7421875" y="124" text-anchor="middle" dominant-baseline="central" transform="matrix(1 0 0 1 -350 -80)">запроса</text><text fill="#000000" stroke="none" font-family="Arial" font-size="16px" font-style="normal" font-weight="normal" text-decoration="undefined" x="827.7421875" y="140" text-anchor="middle" dominant-baseline="central" transform="matrix(1 0 0 1 -350 -80)">(Авторизирован)</text></g></g><g><path fill="#ffffff" stroke="none" paint-order="stroke fill markers" d=" M 109 118 L 334 118 L 289 154 L 64 154 L 109 118"/></g><g><path fill="none" stroke="#000000" paint-order="fill stroke markers" d=" M 109 118 L 334 118 L 289 154 L 64 154 L 109 118 L 109 118" stroke-miterlimit="10" stroke-dasharray=""/></g><g><g><path fill="none" stroke="none"/><text fill="#000000" stroke="none" font-family="Arial" font-size="16px" font-style="normal" font-weight="normal" text-decoration="undefined" x="549" y="216" text-anchor="middle" dominant-baseline="central" transform="matrix(1 0 0 1 -350 -80)">Request</text></g></g><g><rect fill="#ffffff" stroke="none" x="360" y="270" width="378" height="36" transform="matrix(1 0 0 1 -350 -80)"/></g><g><path fill="none" stroke="#000000" paint-order="fill stroke markers" d=" M 10 190 L 388 190 L 388 226 L 10 226 L 10 190 Z Z" stroke-miterlimit="10" stroke-dasharray=""/></g><g><g><path fill="none" stroke="none"/><text fill="#000000" stroke="none" font-family="Arial" font-size="16px" font-style="normal" font-weight="normal" text-decoration="undefined" x="549" y="288" text-anchor="middle" dominant-baseline="central" transform="matrix(1 0 0 1 -350 -80)">Извлечь текущий баланс коинов</text></g></g><g><path fill="#ffffff" stroke="none" paint-order="stroke fill markers" d=" M 94 262 L 334 262 L 286 298 L 46 298 L 94 262"/></g><g><path fill="none" stroke="#000000" paint-order="fill stroke markers" d=" M 94 262 L 334 262 L 286 298 L 46 298 L 94 262 L 94 262" stroke-miterlimit="10" stroke-dasharray=""/></g><g><g><path fill="none" stroke="none"/><text fill="#000000" stroke="none" font-family="Arial" font-size="16px" font-style="normal" font-weight="normal" text-decoration="undefined" x="540" y="360" text-anchor="middle" dominant-baseline="central" transform="matrix(1 0 0 1 -350 -80)">GetWalletBalanceResponse</text></g></g><g><path fill="none" stroke="#000000" paint-order="fill stroke markers" d=" M 199 64 L 199 118" stroke-miterlimit="10" stroke-dasharray=""/></g><g><path fill="#000000" stroke="none" paint-order="stroke fill markers" d=" M 194.790482243984 107.83732514237585 L 199 118 L 203.209517756016 107.83732514237585"/></g><g><path fill="none" stroke="#000000" paint-order="fill stroke markers" d=" M 194.790482243984 107.83732514237585 L 199 118 L 203.209517756016 107.83732514237585 L 194.790482243984 107.83732514237585" stroke-miterlimit="10" stroke-dasharray=""/></g><g><path fill="none" stroke="#000000" paint-order="fill stroke markers" d=" M 406 78 L 406 110 L 406 110 A 8 8 0 0 1 398 118 L 334 118" stroke-miterlimit="10" stroke-dasharray=""/></g><g><path fill="#000000" stroke="none" paint-order="stroke fill markers" d=" M 344.1626748576241 113.790482243984 L 334 118 L 344.1626748576241 122.209517756016"/></g><g><path fill="none" stroke="#000000" paint-order="fill stroke markers" d=" M 344.1626748576241 113.790482243984 L 334 118 L 344.1626748576241 122.209517756016 L 344.1626748576241 113.790482243984" stroke-miterlimit="10" stroke-dasharray=""/></g><g><path fill="none" stroke="#000000" paint-order="fill stroke markers" d=" M 199 154 L 199 190" stroke-miterlimit="10" stroke-dasharray=""/></g><g><path fill="#000000" stroke="none" paint-order="stroke fill markers" d=" M 194.790482243984 179.83732514237585 L 199 190 L 203.209517756016 179.83732514237585"/></g><g><path fill="none" stroke="#000000" paint-order="fill stroke markers" d=" M 194.790482243984 179.83732514237585 L 199 190 L 203.209517756016 179.83732514237585 L 194.790482243984 179.83732514237585" stroke-miterlimit="10" stroke-dasharray=""/></g><g><path fill="none" stroke="#000000" paint-order="fill stroke markers" d=" M 197 226 L 197 262" stroke-miterlimit="10" stroke-dasharray=""/></g><g><path fill="#000000" stroke="none" paint-order="stroke fill markers" d=" M 192.790482243984 251.83732514237585 L 197 262 L 201.209517756016 251.83732514237585"/></g><g><path fill="none" stroke="#000000" paint-order="fill stroke markers" d=" M 192.790482243984 251.83732514237585 L 197 262 L 201.209517756016 251.83732514237585 L 192.790482243984 251.83732514237585" stroke-miterlimit="10" stroke-dasharray=""/></g></g></svg>