<svg version="1.1" xmlns="http://www.w3.org/2000/svg" xmlns:xlink="http://www.w3.org/1999/xlink" width="703.484375" height="326"><defs/><g><g><rect fill="#ffffff" stroke="none" x="306" y="72" width="298" height="52" transform="matrix(1 0 0 1 -170 -44)"/></g><g><path fill="#ffffff" stroke="none" paint-order="stroke fill markers" d=" M 434 28 A 26 26 0 0 1 434 80"/></g><g><path fill="none" stroke="#000000" paint-order="fill stroke markers" d=" M 136 28 L 136 80" stroke-miterlimit="10" stroke-dasharray=""/></g><g><path fill="none" stroke="#000000" paint-order="fill stroke markers" d=" M 136 28 L 434 28" stroke-miterlimit="10" stroke-dasharray=""/></g><g><path fill="none" stroke="#000000" paint-order="fill stroke markers" d=" M 136 80 L 434 80" stroke-miterlimit="10" stroke-dasharray=""/></g><g><path fill="none" stroke="#000000" paint-order="fill stroke markers" d=" M 434 28 A 26 26 0 0 1 434 80" stroke-miterlimit="10" stroke-dasharray=""/></g><g><g><path fill="none" stroke="none"/><text fill="#000000" stroke="none" font-family="Arial" font-size="16px" font-style="normal" font-weight="normal" text-decoration="undefined" x="437.5" y="90" text-anchor="middle" dominant-baseline="central" transform="matrix(1 0 0 1 -170 -44)">GET</text><text fill="#000000" stroke="none" font-family="Arial" font-size="16px" font-style="normal" font-weight="normal" text-decoration="undefined" x="437.5" y="106" text-anchor="middle" dominant-baseline="central" transform="matrix(1 0 0 1 -170 -44)">/templates/{templateId}/assessments</text></g></g><g><path fill="#ffffff" stroke="none" paint-order="stroke fill markers" d=" M 151 136 L 496 136 L 427 172 L 82 172 L 151 136"/></g><g><path fill="none" stroke="#000000" paint-order="fill stroke markers" d=" M 151 136 L 496 136 L 427 172 L 82 172 L 151 136 L 151 136" stroke-miterlimit="10" stroke-dasharray=""/></g><g><g><path fill="none" stroke="none"/><text fill="#000000" stroke="none" font-family="Arial" font-size="16px" font-style="normal" font-weight="normal" text-decoration="undefined" x="459" y="198" text-anchor="middle" dominant-baseline="central" transform="matrix(1 0 0 1 -170 -44)">GetTemplateAssessmentsRequest</text></g></g><g><path fill="#ffffff" stroke="none" paint-order="stroke fill markers" d=" M 97 280 L 532 280 L 445 316 L 10 316 L 97 280"/></g><g><path fill="none" stroke="#000000" paint-order="fill stroke markers" d=" M 97 280 L 532 280 L 445 316 L 10 316 L 97 280 L 97 280" stroke-miterlimit="10" stroke-dasharray=""/></g><g><g><path fill="none" stroke="none"/><text fill="#000000" stroke="none" font-family="Arial" font-size="16px" font-style="normal" font-weight="normal" text-decoration="undefined" x="441" y="342" text-anchor="middle" dominant-baseline="central" transform="matrix(1 0 0 1 -170 -44)">GetTemplateAssessmentsResponse</text></g></g><g><rect fill="#ffffff" stroke="none" x="288" y="252" width="324" height="36" transform="matrix(1 0 0 1 -170 -44)"/></g><g><path fill="none" stroke="#000000" paint-order="fill stroke markers" d=" M 118 208 L 442 208 L 442 244 L 118 244 L 118 208 Z Z" stroke-miterlimit="10" stroke-dasharray=""/></g><g><g><path fill="none" stroke="none"/><text fill="#000000" stroke="none" font-family="Arial" font-size="16px" font-style="normal" font-weight="normal" text-decoration="undefined" x="450" y="270" text-anchor="middle" dominant-baseline="central" transform="matrix(1 0 0 1 -170 -44)">Извлечь все оценки к шаблону</text></g></g><g><path fill="#ffffff" stroke="#000000" paint-order="fill stroke markers" d=" M 550 44 L 573 10 L 670.484375 10 Q 693.484375 10 693.484375 44 Q 693.484375 78 670.484375 78 L 573 78 L 550 44 Z" stroke-miterlimit="10" stroke-dasharray=""/></g><g><g><path fill="none" stroke="none"/><text fill="#000000" stroke="none" font-family="Arial" font-size="16px" font-style="normal" font-weight="normal" text-decoration="undefined" x="791.7421875" y="72" text-anchor="middle" dominant-baseline="central" transform="matrix(1 0 0 1 -170 -44)">Заголовки</text><text fill="#000000" stroke="none" font-family="Arial" font-size="16px" font-style="normal" font-weight="normal" text-decoration="undefined" x="791.7421875" y="88" text-anchor="middle" dominant-baseline="central" transform="matrix(1 0 0 1 -170 -44)">запроса</text><text fill="#000000" stroke="none" font-family="Arial" font-size="16px" font-style="normal" font-weight="normal" text-decoration="undefined" x="791.7421875" y="104" text-anchor="middle" dominant-baseline="central" transform="matrix(1 0 0 1 -170 -44)">(Авторизирован)</text></g></g><g><path fill="none" stroke="#000000" paint-order="fill stroke markers" d=" M 296 80 L 296 136" stroke-miterlimit="10" stroke-dasharray=""/></g><g><path fill="#000000" stroke="none" paint-order="stroke fill markers" d=" M 291.790482243984 125.83732514237585 L 296 136 L 300.209517756016 125.83732514237585"/></g><g><path fill="none" stroke="#000000" paint-order="fill stroke markers" d=" M 291.790482243984 125.83732514237585 L 296 136 L 300.209517756016 125.83732514237585 L 291.790482243984 125.83732514237585" stroke-miterlimit="10" stroke-dasharray=""/></g><g><path fill="none" stroke="#000000" paint-order="fill stroke markers" d=" M 550 78 L 550 128 L 550 128 A 8 8 0 0 1 542 136 L 496 136" stroke-miterlimit="10" stroke-dasharray=""/></g><g><path fill="#000000" stroke="none" paint-order="stroke fill markers" d=" M 506.1626748576241 131.790482243984 L 496 136 L 506.1626748576241 140.209517756016"/></g><g><path fill="none" stroke="#000000" paint-order="fill stroke markers" d=" M 506.1626748576241 131.790482243984 L 496 136 L 506.1626748576241 140.209517756016 L 506.1626748576241 131.790482243984" stroke-miterlimit="10" stroke-dasharray=""/></g><g><path fill="none" stroke="#000000" paint-order="fill stroke markers" d=" M 288 172 L 288 208" stroke-miterlimit="10" stroke-dasharray=""/></g><g><path fill="#000000" stroke="none" paint-order="stroke fill markers" d=" M 283.790482243984 197.83732514237585 L 288 208 L 292.209517756016 197.83732514237585"/></g><g><path fill="none" stroke="#000000" paint-order="fill stroke markers" d=" M 283.790482243984 197.83732514237585 L 288 208 L 292.209517756016 197.83732514237585 L 283.790482243984 197.83732514237585" stroke-miterlimit="10" stroke-dasharray=""/></g><g><path fill="none" stroke="#000000" paint-order="fill stroke markers" d=" M 279 244 L 279 280" stroke-miterlimit="10" stroke-dasharray=""/></g><g><path fill="#000000" stroke="none" paint-order="stroke fill markers" d=" M 274.790482243984 269.83732514237585 L 279 280 L 283.209517756016 269.83732514237585"/></g><g><path fill="none" stroke="#000000" paint-order="fill stroke markers" d=" M 274.790482243984 269.83732514237585 L 279 280 L 283.209517756016 269.83732514237585 L 274.790482243984 269.83732514237585" stroke-miterlimit="10" stroke-dasharray=""/></g></g></svg>