<svg version="1.1" xmlns="http://www.w3.org/2000/svg" xmlns:xlink="http://www.w3.org/1999/xlink" width="1262" height="630"><defs/><g><g><path fill="#ffffff" stroke="none" paint-order="stroke fill markers" d=" M 136 44 L 171 10 L 311.046875 10 L 346.046875 44 L 311.046875 78 L 171 78 L 136 44"/></g><g><path fill="none" stroke="#000000" paint-order="fill stroke markers" d=" M 136 44 L 171 10 L 311.046875 10 L 346.046875 44 L 311.046875 78 L 171 78 L 136 44 L 136 44" stroke-miterlimit="10" stroke-dasharray=""/></g><g><g><path fill="none" stroke="none"/><text fill="#000000" stroke="none" font-family="Arial" font-size="16px" font-style="normal" font-weight="normal" text-decoration="undefined" x="573.0234375" y="90" text-anchor="middle" dominant-baseline="central" transform="matrix(1 0 0 1 -332 -62)">Отчёт</text><text fill="#000000" stroke="none" font-family="Arial" font-size="16px" font-style="normal" font-weight="normal" text-decoration="undefined" x="573.0234375" y="106" text-anchor="middle" dominant-baseline="central" transform="matrix(1 0 0 1 -332 -62)">челленджа</text><text fill="#000000" stroke="none" font-family="Arial" font-size="16px" font-style="normal" font-weight="normal" text-decoration="undefined" x="573.0234375" y="122" text-anchor="middle" dominant-baseline="central" transform="matrix(1 0 0 1 -332 -62)">загружен</text></g></g><g><path fill="#ffffff" stroke="none" paint-order="stroke fill markers" d=" M 88 154 L 478 154 L 400 190 L 10 190 L 88 154"/></g><g><path fill="none" stroke="#000000" paint-order="fill stroke markers" d=" M 88 154 L 478 154 L 400 190 L 10 190 L 88 154 L 88 154" stroke-miterlimit="10" stroke-dasharray=""/></g><g><g><path fill="none" stroke="none"/><text fill="#000000" stroke="none" font-family="Arial" font-size="16px" font-style="normal" font-weight="normal" text-decoration="undefined" x="576" y="234" text-anchor="middle" dominant-baseline="central" transform="matrix(1 0 0 1 -332 -62)">ReportChallangeLoadedTriggerModel</text></g></g><g><rect fill="#ffffff" stroke="none" x="342" y="342" width="468" height="36" transform="matrix(1 0 0 1 -332 -62)"/></g><g><path fill="none" stroke="#000000" paint-order="fill stroke markers" d=" M 10 280 L 478 280 L 478 316 L 10 316 L 10 280 Z Z" stroke-miterlimit="10" stroke-dasharray=""/></g><g><g><path fill="none" stroke="none"/><text fill="#000000" stroke="none" font-family="Arial" font-size="16px" font-style="normal" font-weight="normal" text-decoration="undefined" x="576" y="360" text-anchor="middle" dominant-baseline="central" transform="matrix(1 0 0 1 -332 -62)">Записать выполнение челленджа</text></g></g><g><path fill="#ffffff" stroke="none" paint-order="stroke fill markers" d=" M 532 270 L 676 190 L 820 270 L 676 350 L 532 270"/></g><g><path fill="none" stroke="#000000" paint-order="fill stroke markers" d=" M 532 270 L 676 190 L 820 270 L 676 350 L 532 270 L 532 270" stroke-miterlimit="10" stroke-dasharray=""/></g><g><g><path fill="none" stroke="none"/><text fill="#000000" stroke="none" font-family="Arial" font-size="16px" font-style="normal" font-weight="normal" text-decoration="undefined" x="1008" y="300" text-anchor="middle" dominant-baseline="central" transform="matrix(1 0 0 1 -332 -62)">У аккаунта есть</text><text fill="#000000" stroke="none" font-family="Arial" font-size="16px" font-style="normal" font-weight="normal" text-decoration="undefined" x="1008" y="316" text-anchor="middle" dominant-baseline="central" transform="matrix(1 0 0 1 -332 -62)">активные коины</text><text fill="#000000" stroke="none" font-family="Arial" font-size="16px" font-style="normal" font-weight="normal" text-decoration="undefined" x="1008" y="332" text-anchor="middle" dominant-baseline="central" transform="matrix(1 0 0 1 -332 -62)">мотивации по</text><text fill="#000000" stroke="none" font-family="Arial" font-size="16px" font-style="normal" font-weight="normal" text-decoration="undefined" x="1008" y="348" text-anchor="middle" dominant-baseline="central" transform="matrix(1 0 0 1 -332 -62)">данному</text><text fill="#000000" stroke="none" font-family="Arial" font-size="16px" font-style="normal" font-weight="normal" text-decoration="undefined" x="1008" y="364" text-anchor="middle" dominant-baseline="central" transform="matrix(1 0 0 1 -332 -62)">челленджу</text></g></g><g><rect fill="#ffffff" stroke="none" x="1206" y="378" width="360" height="36" transform="matrix(1 0 0 1 -332 -62)"/></g><g><path fill="none" stroke="#000000" paint-order="fill stroke markers" d=" M 874 316 L 1234 316 L 1234 352 L 874 352 L 874 316 Z Z" stroke-miterlimit="10" stroke-dasharray=""/></g><g><g><path fill="none" stroke="none"/><text fill="#000000" stroke="none" font-family="Arial" font-size="16px" font-style="normal" font-weight="normal" text-decoration="undefined" x="1386" y="396" text-anchor="middle" dominant-baseline="central" transform="matrix(1 0 0 1 -332 -62)">Перевести коины на счёт аккаунта </text></g></g><g><rect fill="#ffffff" stroke="none" x="1206" y="450" width="378" height="36" transform="matrix(1 0 0 1 -332 -62)"/></g><g><path fill="none" stroke="#000000" paint-order="fill stroke markers" d=" M 874 388 L 1252 388 L 1252 424 L 874 424 L 874 388 Z Z" stroke-miterlimit="10" stroke-dasharray=""/></g><g><g><path fill="none" stroke="none"/><text fill="#000000" stroke="none" font-family="Arial" font-size="16px" font-style="normal" font-weight="normal" text-decoration="undefined" x="1395" y="468" text-anchor="middle" dominant-baseline="central" transform="matrix(1 0 0 1 -332 -62)">Добавить транзакцию перевода средств</text></g></g><g><rect fill="#ffffff" stroke="none" x="1206" y="522" width="360" height="68" transform="matrix(1 0 0 1 -332 -62)"/></g><g><path fill="none" stroke="#000000" paint-order="fill stroke markers" d=" M 874 460 L 1234 460 L 1234 528 L 874 528 L 874 460 Z Z" stroke-miterlimit="10" stroke-dasharray=""/></g><g><g><path fill="none" stroke="none"/><text fill="#000000" stroke="none" font-family="Arial" font-size="16px" font-style="normal" font-weight="normal" text-decoration="undefined" x="1386" y="540" text-anchor="middle" dominant-baseline="central" transform="matrix(1 0 0 1 -332 -62)">Отправить уведомение всем кото создавал</text><text fill="#000000" stroke="none" font-family="Arial" font-size="16px" font-style="normal" font-weight="normal" text-decoration="undefined" x="1386" y="556" text-anchor="middle" dominant-baseline="central" transform="matrix(1 0 0 1 -332 -62)">мотивацию о том что пользователя</text><text fill="#000000" stroke="none" font-family="Arial" font-size="16px" font-style="normal" font-weight="normal" text-decoration="undefined" x="1386" y="572" text-anchor="middle" dominant-baseline="central" transform="matrix(1 0 0 1 -332 -62)">выполнил и получил коины на свой счёт</text></g></g><g><rect fill="#ffffff" stroke="none" x="1206" y="630" width="360" height="52" transform="matrix(1 0 0 1 -332 -62)"/></g><g><path fill="none" stroke="#000000" paint-order="fill stroke markers" d=" M 874 568 L 1234 568 L 1234 620 L 874 620 L 874 568 Z Z" stroke-miterlimit="10" stroke-dasharray=""/></g><g><g><path fill="none" stroke="none"/><text fill="#000000" stroke="none" font-family="Arial" font-size="16px" font-style="normal" font-weight="normal" text-decoration="undefined" x="1386" y="648" text-anchor="middle" dominant-baseline="central" transform="matrix(1 0 0 1 -332 -62)">Удалить из таблици Ожидает выполнения</text><text fill="#000000" stroke="none" font-family="Arial" font-size="16px" font-style="normal" font-weight="normal" text-decoration="undefined" x="1386" y="664" text-anchor="middle" dominant-baseline="central" transform="matrix(1 0 0 1 -332 -62)">челленджа записи</text></g></g><g><path fill="#ffffff" stroke="none" paint-order="stroke fill markers" d=" M 172 514 C 172 484.1766208 200.2060576 460 235 460 C 269.7939424 460 298 484.1766208 298 514 C 298 543.8233792 269.7939424 568 235 568 C 200.2060576 568 172 543.8233792 172 514 Z"/></g><g><path fill="none" stroke="#000000" paint-order="fill stroke markers" d=" M 172 514 C 172 484.1766208 200.2060576 460 235 460 C 269.7939424 460 298 484.1766208 298 514 C 298 543.8233792 269.7939424 568 235 568 C 200.2060576 568 172 543.8233792 172 514 Z" stroke-miterlimit="10" stroke-dasharray=""/></g><g><g><path fill="none" stroke="none"/><text fill="#000000" stroke="none" font-family="Arial" font-size="16px" font-style="normal" font-weight="normal" text-decoration="undefined" x="567" y="552" text-anchor="middle" dominant-baseline="central" transform="matrix(1 0 0 1 -332 -62)">Обработка</text><text fill="#000000" stroke="none" font-family="Arial" font-size="16px" font-style="normal" font-weight="normal" text-decoration="undefined" x="567" y="568" text-anchor="middle" dominant-baseline="central" transform="matrix(1 0 0 1 -332 -62)">выполнения</text><text fill="#000000" stroke="none" font-family="Arial" font-size="16px" font-style="normal" font-weight="normal" text-decoration="undefined" x="567" y="584" text-anchor="middle" dominant-baseline="central" transform="matrix(1 0 0 1 -332 -62)">челленджа</text><text fill="#000000" stroke="none" font-family="Arial" font-size="16px" font-style="normal" font-weight="normal" text-decoration="undefined" x="567" y="600" text-anchor="middle" dominant-baseline="central" transform="matrix(1 0 0 1 -332 -62)">завершена</text></g></g><g><path fill="none" stroke="#000000" paint-order="fill stroke markers" d=" M 242 78 L 242 154" stroke-miterlimit="10" stroke-dasharray=""/></g><g><path fill="#000000" stroke="none" paint-order="stroke fill markers" d=" M 237.790482243984 143.83732514237585 L 242 154 L 246.209517756016 143.83732514237585"/></g><g><path fill="none" stroke="#000000" paint-order="fill stroke markers" d=" M 237.790482243984 143.83732514237585 L 242 154 L 246.209517756016 143.83732514237585 L 237.790482243984 143.83732514237585" stroke-miterlimit="10" stroke-dasharray=""/></g><g><path fill="none" stroke="#000000" paint-order="fill stroke markers" d=" M 244 190 L 244 280" stroke-miterlimit="10" stroke-dasharray=""/></g><g><path fill="#000000" stroke="none" paint-order="stroke fill markers" d=" M 239.790482243984 269.83732514237585 L 244 280 L 248.209517756016 269.83732514237585"/></g><g><path fill="none" stroke="#000000" paint-order="fill stroke markers" d=" M 239.790482243984 269.83732514237585 L 244 280 L 248.209517756016 269.83732514237585 L 239.790482243984 269.83732514237585" stroke-miterlimit="10" stroke-dasharray=""/></g><g><path fill="none" stroke="#000000" paint-order="fill stroke markers" d=" M 244 316 L 244 352" stroke-miterlimit="10" stroke-dasharray=""/></g><g><path fill="#000000" stroke="none" paint-order="stroke fill markers" d=" M 239.790482243984 341.83732514237585 L 244 352 L 248.209517756016 341.83732514237585"/></g><g><path fill="none" stroke="#000000" paint-order="fill stroke markers" d=" M 239.790482243984 341.83732514237585 L 244 352 L 248.209517756016 341.83732514237585 L 239.790482243984 341.83732514237585" stroke-miterlimit="10" stroke-dasharray=""/></g><g><path fill="none" stroke="#000000" paint-order="fill stroke markers" d=" M 820 270 L 1046 270 L 1046 270 A 8 8 0 0 1 1054 278 L 1054 316" stroke-miterlimit="10" stroke-dasharray=""/></g><g><path fill="#000000" stroke="none" paint-order="stroke fill markers" d=" M 1049.7904822439841 305.83732514237585 L 1054 316 L 1058.2095177560159 305.83732514237585"/></g><g><path fill="none" stroke="#000000" paint-order="fill stroke markers" d=" M 1049.7904822439841 305.83732514237585 L 1054 316 L 1058.2095177560159 305.83732514237585 L 1049.7904822439841 305.83732514237585" stroke-miterlimit="10" stroke-dasharray=""/></g><g><rect fill="#ffffff" stroke="none" x="1152" y="313" width="19.734375" height="16" transform="matrix(1 0 0 1 -332 -62)"/></g><g><g><path fill="none" stroke="none"/><text fill="#000000" stroke="none" font-family="Arial" font-size="16px" font-style="normal" font-weight="normal" text-decoration="undefined" x="1161.8671875" y="321" text-anchor="middle" dominant-baseline="central" transform="matrix(1 0 0 1 -332 -62)">Да</text></g></g><g><path fill="none" stroke="#000000" paint-order="fill stroke markers" d=" M 1056 352 L 1056 388" stroke-miterlimit="10" stroke-dasharray=""/></g><g><path fill="#000000" stroke="none" paint-order="stroke fill markers" d=" M 1051.7904822439841 377.83732514237585 L 1056 388 L 1060.2095177560159 377.83732514237585"/></g><g><path fill="none" stroke="#000000" paint-order="fill stroke markers" d=" M 1051.7904822439841 377.83732514237585 L 1056 388 L 1060.2095177560159 377.83732514237585 L 1051.7904822439841 377.83732514237585" stroke-miterlimit="10" stroke-dasharray=""/></g><g><path fill="none" stroke="#000000" paint-order="fill stroke markers" d=" M 1061 424 L 1061 460" stroke-miterlimit="10" stroke-dasharray=""/></g><g><path fill="#000000" stroke="none" paint-order="stroke fill markers" d=" M 1056.7904822439841 449.83732514237585 L 1061 460 L 1065.2095177560159 449.83732514237585"/></g><g><path fill="none" stroke="#000000" paint-order="fill stroke markers" d=" M 1056.7904822439841 449.83732514237585 L 1061 460 L 1065.2095177560159 449.83732514237585 L 1056.7904822439841 449.83732514237585" stroke-miterlimit="10" stroke-dasharray=""/></g><g><path fill="none" stroke="#000000" paint-order="fill stroke markers" d=" M 1054 528 L 1054 568" stroke-miterlimit="10" stroke-dasharray=""/></g><g><path fill="#000000" stroke="none" paint-order="stroke fill markers" d=" M 1049.7904822439841 557.8373251423759 L 1054 568 L 1058.2095177560159 557.8373251423759"/></g><g><path fill="none" stroke="#000000" paint-order="fill stroke markers" d=" M 1049.7904822439841 557.8373251423759 L 1054 568 L 1058.2095177560159 557.8373251423759 L 1049.7904822439841 557.8373251423759" stroke-miterlimit="10" stroke-dasharray=""/></g><g><path fill="#ffffff" stroke="none" paint-order="stroke fill markers" d=" M 100 378 L 145 352 L 325 352 L 370 378 L 325 404 L 145 404 L 100 378"/></g><g><path fill="none" stroke="#000000" paint-order="fill stroke markers" d=" M 100 378 L 145 352 L 325 352 L 370 378 L 325 404 L 145 404 L 100 378 L 100 378" stroke-miterlimit="10" stroke-dasharray=""/></g><g><g><path fill="none" stroke="none"/><text fill="#000000" stroke="none" font-family="Arial" font-size="16px" font-style="normal" font-weight="normal" text-decoration="undefined" x="567" y="432" text-anchor="middle" dominant-baseline="central" transform="matrix(1 0 0 1 -332 -62)">Участник выполнил</text><text fill="#000000" stroke="none" font-family="Arial" font-size="16px" font-style="normal" font-weight="normal" text-decoration="undefined" x="567" y="448" text-anchor="middle" dominant-baseline="central" transform="matrix(1 0 0 1 -332 -62)">челлендж</text></g></g><g><path fill="none" stroke="#000000" paint-order="fill stroke markers" d=" M 235 404 L 235 460" stroke-miterlimit="10" stroke-dasharray=""/></g><g><path fill="#000000" stroke="none" paint-order="stroke fill markers" d=" M 230.790482243984 449.83732514237585 L 235 460 L 239.209517756016 449.83732514237585"/></g><g><path fill="none" stroke="#000000" paint-order="fill stroke markers" d=" M 230.790482243984 449.83732514237585 L 235 460 L 239.209517756016 449.83732514237585 L 230.790482243984 449.83732514237585" stroke-miterlimit="10" stroke-dasharray=""/></g></g></svg>