<svg version="1.1" xmlns="http://www.w3.org/2000/svg" xmlns:xlink="http://www.w3.org/1999/xlink" width="904" height="1154"><defs/><g><g><rect fill="#ffffff" stroke="none" x="396" y="90" width="252" height="36" transform="matrix(1 0 0 1 -350 -62)"/></g><g><path fill="#ffffff" stroke="none" paint-order="stroke fill markers" d=" M 298 28 A 18 18 0 0 1 298 64"/></g><g><path fill="none" stroke="#000000" paint-order="fill stroke markers" d=" M 46 28 L 46 64" stroke-miterlimit="10" stroke-dasharray=""/></g><g><path fill="none" stroke="#000000" paint-order="fill stroke markers" d=" M 46 28 L 298 28" stroke-miterlimit="10" stroke-dasharray=""/></g><g><path fill="none" stroke="#000000" paint-order="fill stroke markers" d=" M 46 64 L 298 64" stroke-miterlimit="10" stroke-dasharray=""/></g><g><path fill="none" stroke="#000000" paint-order="fill stroke markers" d=" M 298 28 A 18 18 0 0 1 298 64" stroke-miterlimit="10" stroke-dasharray=""/></g><g><g><path fill="none" stroke="none"/><text fill="#000000" stroke="none" font-family="Arial" font-size="16px" font-style="normal" font-weight="normal" text-decoration="undefined" x="507.25" y="108" text-anchor="middle" dominant-baseline="central" transform="matrix(1 0 0 1 -350 -62)">PATCH /communities</text></g></g><g><path fill="#ffffff" stroke="#000000" paint-order="fill stroke markers" d=" M 388 44 L 411 10 L 508.484375 10 Q 531.484375 10 531.484375 44 Q 531.484375 78 508.484375 78 L 411 78 L 388 44 Z" stroke-miterlimit="10" stroke-dasharray=""/></g><g><g><path fill="none" stroke="none"/><text fill="#000000" stroke="none" font-family="Arial" font-size="16px" font-style="normal" font-weight="normal" text-decoration="undefined" x="809.7421875" y="90" text-anchor="middle" dominant-baseline="central" transform="matrix(1 0 0 1 -350 -62)">Заголовки</text><text fill="#000000" stroke="none" font-family="Arial" font-size="16px" font-style="normal" font-weight="normal" text-decoration="undefined" x="809.7421875" y="106" text-anchor="middle" dominant-baseline="central" transform="matrix(1 0 0 1 -350 -62)">запроса</text><text fill="#000000" stroke="none" font-family="Arial" font-size="16px" font-style="normal" font-weight="normal" text-decoration="undefined" x="809.7421875" y="122" text-anchor="middle" dominant-baseline="central" transform="matrix(1 0 0 1 -350 -62)">(Авторизирован)</text></g></g><g><path fill="#ffffff" stroke="none" paint-order="stroke fill markers" d=" M 64 118 L 334 118 L 280 154 L 10 154 L 64 118"/></g><g><path fill="none" stroke="#000000" paint-order="fill stroke markers" d=" M 64 118 L 334 118 L 280 154 L 10 154 L 64 118 L 64 118" stroke-miterlimit="10" stroke-dasharray=""/></g><g><g><path fill="none" stroke="none"/><text fill="#000000" stroke="none" font-family="Arial" font-size="16px" font-style="normal" font-weight="normal" text-decoration="undefined" x="522" y="198" text-anchor="middle" dominant-baseline="central" transform="matrix(1 0 0 1 -350 -62)">PatchCommunitiesRequest</text></g></g><g><path fill="#ffffff" stroke="none" paint-order="stroke fill markers" d=" M 468 298 L 860.7109375 298 Q 886.7109375 298 886.7109375 324 L 886.7109375 324 Q 886.7109375 350 860.7109375 350 L 468 350 Q 442 350 442 324 L 442 324 Q 442 298 468 298 Z"/></g><g><path fill="none" stroke="#000000" paint-order="fill stroke markers" d=" M 468 298 L 860.7109375 298 Q 886.7109375 298 886.7109375 324 L 886.7109375 324 Q 886.7109375 350 860.7109375 350 L 468 350 Q 442 350 442 324 L 442 324 Q 442 298 468 298 Z" stroke-miterlimit="10" stroke-dasharray=""/></g><g><g><path fill="none" stroke="none"/><text fill="#000000" stroke="none" font-family="Arial" font-size="16px" font-style="normal" font-weight="normal" text-decoration="undefined" x="1014.35546875" y="378" text-anchor="middle" dominant-baseline="central" transform="matrix(1 0 0 1 -350 -62)">Существует выбранный аккаунт</text></g></g><g><path fill="#ffffff" stroke="none" paint-order="stroke fill markers" d=" M 432 550 L 848 550 Q 874 550 874 576 L 874 576 Q 874 602 848 602 L 432 602 Q 406 602 406 576 L 406 576 Q 406 550 432 550 Z"/></g><g><path fill="none" stroke="#000000" paint-order="fill stroke markers" d=" M 432 550 L 848 550 Q 874 550 874 576 L 874 576 Q 874 602 848 602 L 432 602 Q 406 602 406 576 L 406 576 Q 406 550 432 550 Z" stroke-miterlimit="10" stroke-dasharray=""/></g><g><g><path fill="none" stroke="none"/><text fill="#000000" stroke="none" font-family="Arial" font-size="16px" font-style="normal" font-weight="normal" text-decoration="undefined" x="990" y="630" text-anchor="middle" dominant-baseline="central" transform="matrix(1 0 0 1 -350 -62)">Не заблокирована ли возможность у выбранного юзера</text><text fill="#000000" stroke="none" font-family="Arial" font-size="16px" font-style="normal" font-weight="normal" text-decoration="undefined" x="990" y="646" text-anchor="middle" dominant-baseline="central" transform="matrix(1 0 0 1 -350 -62)">быть аккаунтом для оплаты в сообществе</text></g></g><g><path fill="#ffffff" stroke="none" paint-order="stroke fill markers" d=" M 522 460 L 845.8359375 460 Q 871.8359375 460 871.8359375 486 L 871.8359375 486 Q 871.8359375 512 845.8359375 512 L 522 512 Q 496 512 496 486 L 496 486 Q 496 460 522 460 Z"/></g><g><path fill="none" stroke="#000000" paint-order="fill stroke markers" d=" M 522 460 L 845.8359375 460 Q 871.8359375 460 871.8359375 486 L 871.8359375 486 Q 871.8359375 512 845.8359375 512 L 522 512 Q 496 512 496 486 L 496 486 Q 496 460 522 460 Z" stroke-miterlimit="10" stroke-dasharray=""/></g><g><g><path fill="none" stroke="none"/><text fill="#000000" stroke="none" font-family="Arial" font-size="16px" font-style="normal" font-weight="normal" text-decoration="undefined" x="1033.91796875" y="548" text-anchor="middle" dominant-baseline="central" transform="matrix(1 0 0 1 -350 -62)">Не заблокировал ли пользователь этот юзер ид</text></g></g><g><path fill="none" stroke="#000000" paint-order="fill stroke markers" d=" M 622 512 L 622 550" stroke-miterlimit="10" stroke-dasharray=""/></g><g><path fill="#000000" stroke="none" paint-order="stroke fill markers" d=" M 617.790482243984 539.8373251423759 L 622 550 L 626.209517756016 539.8373251423759"/></g><g><path fill="none" stroke="#000000" paint-order="fill stroke markers" d=" M 617.790482243984 539.8373251423759 L 622 550 L 626.209517756016 539.8373251423759 L 617.790482243984 539.8373251423759" stroke-miterlimit="10" stroke-dasharray=""/></g><g><rect fill="#ffffff" stroke="none" x="360" y="738" width="306" height="36" transform="matrix(1 0 0 1 -350 -62)"/></g><g><path fill="none" stroke="#000000" paint-order="fill stroke markers" d=" M 10 676 L 316 676 L 316 712 L 10 712 L 10 676 Z Z" stroke-miterlimit="10" stroke-dasharray=""/></g><g><g><path fill="none" stroke="none"/><text fill="#000000" stroke="none" font-family="Arial" font-size="16px" font-style="normal" font-weight="normal" text-decoration="undefined" x="513" y="756" text-anchor="middle" dominant-baseline="central" transform="matrix(1 0 0 1 -350 -62)">Внести изменения в сообщество</text></g></g><g><path fill="#ffffff" stroke="none" paint-order="stroke fill markers" d=" M 82 862 L 165.2109375 766 L 248.421875 862 L 165.2109375 958 L 82 862"/></g><g><path fill="none" stroke="#000000" paint-order="fill stroke markers" d=" M 82 862 L 165.2109375 766 L 248.421875 862 L 165.2109375 958 L 82 862 L 82 862" stroke-miterlimit="10" stroke-dasharray=""/></g><g><g><path fill="none" stroke="none"/><text fill="#000000" stroke="none" font-family="Arial" font-size="16px" font-style="normal" font-weight="normal" text-decoration="undefined" x="515.2109375" y="884" text-anchor="middle" dominant-baseline="central" transform="matrix(1 0 0 1 -350 -62)">Ид</text><text fill="#000000" stroke="none" font-family="Arial" font-size="16px" font-style="normal" font-weight="normal" text-decoration="undefined" x="515.2109375" y="900" text-anchor="middle" dominant-baseline="central" transform="matrix(1 0 0 1 -350 -62)">аккаунта</text><text fill="#000000" stroke="none" font-family="Arial" font-size="16px" font-style="normal" font-weight="normal" text-decoration="undefined" x="515.2109375" y="916" text-anchor="middle" dominant-baseline="central" transform="matrix(1 0 0 1 -350 -62)">оплаты</text><text fill="#000000" stroke="none" font-family="Arial" font-size="16px" font-style="normal" font-weight="normal" text-decoration="undefined" x="515.2109375" y="932" text-anchor="middle" dominant-baseline="central" transform="matrix(1 0 0 1 -350 -62)">отличается</text><text fill="#000000" stroke="none" font-family="Arial" font-size="16px" font-style="normal" font-weight="normal" text-decoration="undefined" x="515.2109375" y="948" text-anchor="middle" dominant-baseline="central" transform="matrix(1 0 0 1 -350 -62)">от ид</text><text fill="#000000" stroke="none" font-family="Arial" font-size="16px" font-style="normal" font-weight="normal" text-decoration="undefined" x="515.2109375" y="964" text-anchor="middle" dominant-baseline="central" transform="matrix(1 0 0 1 -350 -62)">Создателя</text></g></g><g><rect fill="#ffffff" stroke="none" x="720" y="990" width="288" height="52" transform="matrix(1 0 0 1 -350 -62)"/></g><g><path fill="none" stroke="#000000" paint-order="fill stroke markers" d=" M 370 928 L 658 928 L 658 980 L 370 980 L 370 928 Z Z" stroke-miterlimit="10" stroke-dasharray=""/></g><g><g><path fill="none" stroke="none"/><text fill="#000000" stroke="none" font-family="Arial" font-size="16px" font-style="normal" font-weight="normal" text-decoration="undefined" x="864" y="1008" text-anchor="middle" dominant-baseline="central" transform="matrix(1 0 0 1 -350 -62)">Отправить приглашение стать</text><text fill="#000000" stroke="none" font-family="Arial" font-size="16px" font-style="normal" font-weight="normal" text-decoration="undefined" x="864" y="1024" text-anchor="middle" dominant-baseline="central" transform="matrix(1 0 0 1 -350 -62)">аккаунтом для оплаты</text></g></g><g><path fill="#ffffff" stroke="none" paint-order="stroke fill markers" d=" M 64 1108 L 334 1108 L 280 1144 L 10 1144 L 64 1108"/></g><g><path fill="none" stroke="#000000" paint-order="fill stroke markers" d=" M 64 1108 L 334 1108 L 280 1144 L 10 1144 L 64 1108 L 64 1108" stroke-miterlimit="10" stroke-dasharray=""/></g><g><g><path fill="none" stroke="none"/><text fill="#000000" stroke="none" font-family="Arial" font-size="16px" font-style="normal" font-weight="normal" text-decoration="undefined" x="522" y="1188" text-anchor="middle" dominant-baseline="central" transform="matrix(1 0 0 1 -350 -62)">NoBodyResponse</text></g></g><g><path fill="none" stroke="#000000" paint-order="fill stroke markers" d=" M 406 558 L 178 558 L 178 558 A 8 8 0 0 0 170 566 L 170 676" stroke-miterlimit="10" stroke-dasharray=""/></g><g><path fill="#000000" stroke="none" paint-order="stroke fill markers" d=" M 165.790482243984 665.8373251423759 L 170 676 L 174.209517756016 665.8373251423759"/></g><g><path fill="none" stroke="#000000" paint-order="fill stroke markers" d=" M 165.790482243984 665.8373251423759 L 170 676 L 174.209517756016 665.8373251423759 L 165.790482243984 665.8373251423759" stroke-miterlimit="10" stroke-dasharray=""/></g><g><path fill="none" stroke="#000000" paint-order="fill stroke markers" d=" M 163 712 L 163 766" stroke-miterlimit="10" stroke-dasharray=""/></g><g><path fill="#000000" stroke="none" paint-order="stroke fill markers" d=" M 158.790482243984 755.8373251423759 L 163 766 L 167.209517756016 755.8373251423759"/></g><g><path fill="none" stroke="#000000" paint-order="fill stroke markers" d=" M 158.790482243984 755.8373251423759 L 163 766 L 167.209517756016 755.8373251423759 L 158.790482243984 755.8373251423759" stroke-miterlimit="10" stroke-dasharray=""/></g><g><path fill="none" stroke="#000000" paint-order="fill stroke markers" d=" M 248 928 L 370 928" stroke-miterlimit="10" stroke-dasharray=""/></g><g><path fill="#000000" stroke="none" paint-order="stroke fill markers" d=" M 359.8373251423759 932.209517756016 L 370 928 L 359.8373251423758 923.790482243984"/></g><g><path fill="none" stroke="#000000" paint-order="fill stroke markers" d=" M 359.8373251423759 932.209517756016 L 370 928 L 359.8373251423758 923.790482243984 L 359.8373251423759 932.209517756016" stroke-miterlimit="10" stroke-dasharray=""/></g><g><rect fill="#ffffff" stroke="none" x="650" y="967" width="19.734375" height="16" transform="matrix(1 0 0 1 -350 -62)"/></g><g><g><path fill="none" stroke="none"/><text fill="#000000" stroke="none" font-family="Arial" font-size="16px" font-style="normal" font-weight="normal" text-decoration="undefined" x="659.8671875" y="975" text-anchor="middle" dominant-baseline="central" transform="matrix(1 0 0 1 -350 -62)">Да</text></g></g><g><path fill="none" stroke="#000000" paint-order="fill stroke markers" d=" M 376 980 L 376 1118 L 376 1118 A 8 8 0 0 1 368 1126 L 334 1126" stroke-miterlimit="10" stroke-dasharray=""/></g><g><path fill="#000000" stroke="none" paint-order="stroke fill markers" d=" M 344.1626748576241 1121.7904822439841 L 334 1126 L 344.1626748576241 1130.2095177560159"/></g><g><path fill="none" stroke="#000000" paint-order="fill stroke markers" d=" M 344.1626748576241 1121.7904822439841 L 334 1126 L 344.1626748576241 1130.2095177560159 L 344.1626748576241 1121.7904822439841" stroke-miterlimit="10" stroke-dasharray=""/></g><g><rect fill="#ffffff" stroke="none" x="396" y="1080" width="234" height="52" transform="matrix(1 0 0 1 -350 -62)"/></g><g><path fill="none" stroke="#000000" paint-order="fill stroke markers" d=" M 46 1018 L 280 1018 L 280 1070 L 46 1070 L 46 1018 Z Z" stroke-miterlimit="10" stroke-dasharray=""/></g><g><g><path fill="none" stroke="none"/><text fill="#000000" stroke="none" font-family="Arial" font-size="16px" font-style="normal" font-weight="normal" text-decoration="undefined" x="513" y="1098" text-anchor="middle" dominant-baseline="central" transform="matrix(1 0 0 1 -350 -62)">Установить аккаунт для</text><text fill="#000000" stroke="none" font-family="Arial" font-size="16px" font-style="normal" font-weight="normal" text-decoration="undefined" x="513" y="1114" text-anchor="middle" dominant-baseline="central" transform="matrix(1 0 0 1 -350 -62)">оплаты</text></g></g><g><path fill="none" stroke="#000000" paint-order="fill stroke markers" d=" M 164 958 L 164 1018" stroke-miterlimit="10" stroke-dasharray=""/></g><g><path fill="#000000" stroke="none" paint-order="stroke fill markers" d=" M 159.790482243984 1007.8373251423759 L 164 1018 L 168.209517756016 1007.8373251423759"/></g><g><path fill="none" stroke="#000000" paint-order="fill stroke markers" d=" M 159.790482243984 1007.8373251423759 L 164 1018 L 168.209517756016 1007.8373251423759 L 159.790482243984 1007.8373251423759" stroke-miterlimit="10" stroke-dasharray=""/></g><g><rect fill="#ffffff" stroke="none" x="515" y="1041" width="27.25" height="16" transform="matrix(1 0 0 1 -350 -62)"/></g><g><g><path fill="none" stroke="none"/><text fill="#000000" stroke="none" font-family="Arial" font-size="16px" font-style="normal" font-weight="normal" text-decoration="undefined" x="528.625" y="1049" text-anchor="middle" dominant-baseline="central" transform="matrix(1 0 0 1 -350 -62)">Нет</text></g></g><g><path fill="none" stroke="#000000" paint-order="fill stroke markers" d=" M 166 1070 L 166 1108" stroke-miterlimit="10" stroke-dasharray=""/></g><g><path fill="#000000" stroke="none" paint-order="stroke fill markers" d=" M 161.790482243984 1097.837325142376 L 166 1108 L 170.209517756016 1097.837325142376"/></g><g><path fill="none" stroke="#000000" paint-order="fill stroke markers" d=" M 161.790482243984 1097.837325142376 L 166 1108 L 170.209517756016 1097.837325142376 L 161.790482243984 1097.837325142376" stroke-miterlimit="10" stroke-dasharray=""/></g><g><path fill="#ffffff" stroke="none" paint-order="stroke fill markers" d=" M 73 208 L 379 208 Q 406 208 406 235 L 406 235 Q 406 262 379 262 L 73 262 Q 46 262 46 235 L 46 235 Q 46 208 73 208 Z"/></g><g><path fill="none" stroke="#000000" paint-order="fill stroke markers" d=" M 73 208 L 379 208 Q 406 208 406 235 L 406 235 Q 406 262 379 262 L 73 262 Q 46 262 46 235 L 46 235 Q 46 208 73 208 Z" stroke-miterlimit="10" stroke-dasharray=""/></g><g><g><path fill="none" stroke="none"/><text fill="#000000" stroke="none" font-family="Arial" font-size="16px" font-style="normal" font-weight="normal" text-decoration="undefined" x="576" y="288" text-anchor="middle" dominant-baseline="central" transform="matrix(1 0 0 1 -350 -62)">Указано поле PaymentUserAccountId</text></g></g><g><path fill="none" stroke="#000000" paint-order="fill stroke markers" d=" M 197 154 L 197 208" stroke-miterlimit="10" stroke-dasharray=""/></g><g><path fill="#000000" stroke="none" paint-order="stroke fill markers" d=" M 192.790482243984 197.83732514237585 L 197 208 L 201.209517756016 197.83732514237585"/></g><g><path fill="none" stroke="#000000" paint-order="fill stroke markers" d=" M 192.790482243984 197.83732514237585 L 197 208 L 201.209517756016 197.83732514237585 L 192.790482243984 197.83732514237585" stroke-miterlimit="10" stroke-dasharray=""/></g><g><path fill="none" stroke="#000000" paint-order="fill stroke markers" d=" M 118 262 L 118 676" stroke-miterlimit="10" stroke-dasharray=""/></g><g><path fill="#000000" stroke="none" paint-order="stroke fill markers" d=" M 113.790482243984 665.8373251423759 L 118 676 L 122.209517756016 665.8373251423759"/></g><g><path fill="none" stroke="#000000" paint-order="fill stroke markers" d=" M 113.790482243984 665.8373251423759 L 118 676 L 122.209517756016 665.8373251423759 L 113.790482243984 665.8373251423759" stroke-miterlimit="10" stroke-dasharray=""/></g><g><rect fill="#ffffff" stroke="none" x="470" y="522" width="27.25" height="16" transform="matrix(1 0 0 1 -350 -62)"/></g><g><g><path fill="none" stroke="none"/><text fill="#000000" stroke="none" font-family="Arial" font-size="16px" font-style="normal" font-weight="normal" text-decoration="undefined" x="483.625" y="530" text-anchor="middle" dominant-baseline="central" transform="matrix(1 0 0 1 -350 -62)">Нет</text></g></g><g><path fill="#ffffff" stroke="none" paint-order="stroke fill markers" d=" M 522 388 L 868 388 Q 894 388 894 414 L 894 414 Q 894 440 868 440 L 522 440 Q 496 440 496 414 L 496 414 Q 496 388 522 388 Z"/></g><g><path fill="none" stroke="#000000" paint-order="fill stroke markers" d=" M 522 388 L 868 388 Q 894 388 894 414 L 894 414 Q 894 440 868 440 L 522 440 Q 496 440 496 414 L 496 414 Q 496 388 522 388 Z" stroke-miterlimit="10" stroke-dasharray=""/></g><g><g><path fill="none" stroke="none"/><text fill="#000000" stroke="none" font-family="Arial" font-size="16px" font-style="normal" font-weight="normal" text-decoration="undefined" x="1045" y="468" text-anchor="middle" dominant-baseline="central" transform="matrix(1 0 0 1 -350 -62)">У сообщества нету пользователей с активным</text><text fill="#000000" stroke="none" font-family="Arial" font-size="16px" font-style="normal" font-weight="normal" text-decoration="undefined" x="1045" y="484" text-anchor="middle" dominant-baseline="central" transform="matrix(1 0 0 1 -350 -62)">приглашением</text></g></g><g><path fill="none" stroke="#000000" paint-order="fill stroke markers" d=" M 569 440 L 569 460" stroke-miterlimit="10" stroke-dasharray=""/></g><g><path fill="#000000" stroke="none" paint-order="stroke fill markers" d=" M 564.790482243984 449.83732514237585 L 569 460 L 573.209517756016 449.83732514237585"/></g><g><path fill="none" stroke="#000000" paint-order="fill stroke markers" d=" M 564.790482243984 449.83732514237585 L 569 460 L 573.209517756016 449.83732514237585 L 564.790482243984 449.83732514237585" stroke-miterlimit="10" stroke-dasharray=""/></g><g><path fill="none" stroke="#000000" paint-order="fill stroke markers" d=" M 406 226 L 524 226 L 524 226 A 8 8 0 0 1 532 234 L 532 298" stroke-miterlimit="10" stroke-dasharray=""/></g><g><path fill="#000000" stroke="none" paint-order="stroke fill markers" d=" M 527.790482243984 287.83732514237585 L 532 298 L 536.209517756016 287.83732514237585"/></g><g><path fill="none" stroke="#000000" paint-order="fill stroke markers" d=" M 527.790482243984 287.83732514237585 L 532 298 L 536.209517756016 287.83732514237585 L 527.790482243984 287.83732514237585" stroke-miterlimit="10" stroke-dasharray=""/></g><g><rect fill="#ffffff" stroke="none" x="887" y="279" width="19.734375" height="16" transform="matrix(1 0 0 1 -350 -62)"/></g><g><g><path fill="none" stroke="none"/><text fill="#000000" stroke="none" font-family="Arial" font-size="16px" font-style="normal" font-weight="normal" text-decoration="undefined" x="896.8671875" y="287" text-anchor="middle" dominant-baseline="central" transform="matrix(1 0 0 1 -350 -62)">Да</text></g></g><g><path fill="none" stroke="#000000" paint-order="fill stroke markers" d=" M 179 64 L 179 118" stroke-miterlimit="10" stroke-dasharray=""/></g><g><path fill="#000000" stroke="none" paint-order="stroke fill markers" d=" M 174.790482243984 107.83732514237585 L 179 118 L 183.209517756016 107.83732514237585"/></g><g><path fill="none" stroke="#000000" paint-order="fill stroke markers" d=" M 174.790482243984 107.83732514237585 L 179 118 L 183.209517756016 107.83732514237585 L 174.790482243984 107.83732514237585" stroke-miterlimit="10" stroke-dasharray=""/></g><g><path fill="none" stroke="#000000" paint-order="fill stroke markers" d=" M 388 78 L 388 110 L 388 110 A 8 8 0 0 1 380 118 L 334 118" stroke-miterlimit="10" stroke-dasharray=""/></g><g><path fill="#000000" stroke="none" paint-order="stroke fill markers" d=" M 344.1626748576241 113.790482243984 L 334 118 L 344.1626748576241 122.209517756016"/></g><g><path fill="none" stroke="#000000" paint-order="fill stroke markers" d=" M 344.1626748576241 113.790482243984 L 334 118 L 344.1626748576241 122.209517756016 L 344.1626748576241 113.790482243984" stroke-miterlimit="10" stroke-dasharray=""/></g><g><path fill="none" stroke="#000000" paint-order="fill stroke markers" d=" M 675 350 L 675 388" stroke-miterlimit="10" stroke-dasharray=""/></g><g><path fill="#000000" stroke="none" paint-order="stroke fill markers" d=" M 670.790482243984 377.83732514237585 L 675 388 L 679.2095177560159 377.83732514237585"/></g><g><path fill="none" stroke="#000000" paint-order="fill stroke markers" d=" M 670.790482243984 377.83732514237585 L 675 388 L 679.2095177560159 377.83732514237585 L 670.790482243984 377.83732514237585" stroke-miterlimit="10" stroke-dasharray=""/></g></g></svg>