<svg version="1.1" xmlns="http://www.w3.org/2000/svg" xmlns:xlink="http://www.w3.org/1999/xlink" width="1532" height="830"><defs/><g><g><rect fill="#ffffff" stroke="none" x="792" y="54" width="270" height="36" transform="matrix(1 0 0 1 10 -8)"/></g><g><path fill="#ffffff" stroke="none" paint-order="stroke fill markers" d=" M 1072 46 A 18 18 0 0 1 1072 82"/></g><g><path fill="none" stroke="#000000" paint-order="fill stroke markers" d=" M 802 46 L 802 82" stroke-miterlimit="10" stroke-dasharray=""/></g><g><path fill="none" stroke="#000000" paint-order="fill stroke markers" d=" M 802 46 L 1072 46" stroke-miterlimit="10" stroke-dasharray=""/></g><g><path fill="none" stroke="#000000" paint-order="fill stroke markers" d=" M 802 82 L 1072 82" stroke-miterlimit="10" stroke-dasharray=""/></g><g><path fill="none" stroke="#000000" paint-order="fill stroke markers" d=" M 1072 46 A 18 18 0 0 1 1072 82" stroke-miterlimit="10" stroke-dasharray=""/></g><g><g><path fill="none" stroke="none"/><text fill="#000000" stroke="none" font-family="Arial" font-size="16px" font-style="normal" font-weight="normal" text-decoration="undefined" x="910" y="72" text-anchor="middle" dominant-baseline="central" transform="matrix(1 0 0 1 10 -8)">POST /templates</text></g></g><g><path fill="#ffffff" stroke="none" paint-order="stroke fill markers" d=" M 781 208 L 1036 208 L 985 244 L 730 244 L 781 208"/></g><g><path fill="none" stroke="#000000" paint-order="fill stroke markers" d=" M 781 208 L 1036 208 L 985 244 L 730 244 L 781 208 L 781 208" stroke-miterlimit="10" stroke-dasharray=""/></g><g><g><path fill="none" stroke="none"/><text fill="#000000" stroke="none" font-family="Arial" font-size="16px" font-style="normal" font-weight="normal" text-decoration="undefined" x="873" y="234" text-anchor="middle" dominant-baseline="central" transform="matrix(1 0 0 1 10 -8)">PostTemplateCreateRequest</text></g></g><g><rect fill="#ffffff" stroke="none" x="720" y="720" width="306" height="36" transform="matrix(1 0 0 1 10 -8)"/></g><g><path fill="none" stroke="#000000" paint-order="fill stroke markers" d=" M 730 712 L 1036 712 L 1036 748 L 730 748 L 730 712 Z Z" stroke-miterlimit="10" stroke-dasharray=""/></g><g><g><path fill="none" stroke="none"/><text fill="#000000" stroke="none" font-family="Arial" font-size="16px" font-style="normal" font-weight="normal" text-decoration="undefined" x="873" y="738" text-anchor="middle" dominant-baseline="central" transform="matrix(1 0 0 1 10 -8)">Создать новый шаблон</text></g></g><g><path fill="#ffffff" stroke="none" paint-order="stroke fill markers" d=" M 805 784 L 1000 784 L 961 820 L 766 820 L 805 784"/></g><g><path fill="none" stroke="#000000" paint-order="fill stroke markers" d=" M 805 784 L 1000 784 L 961 820 L 766 820 L 805 784 L 805 784" stroke-miterlimit="10" stroke-dasharray=""/></g><g><g><path fill="none" stroke="none"/><text fill="#000000" stroke="none" font-family="Arial" font-size="16px" font-style="normal" font-weight="normal" text-decoration="undefined" x="873" y="810" text-anchor="middle" dominant-baseline="central" transform="matrix(1 0 0 1 10 -8)">CreatedResponse</text></g></g><g><path fill="#ffffff" stroke="none" paint-order="stroke fill markers" d=" M 748 316 L 1018 316 Q 1036 316 1036 334 L 1036 334 Q 1036 352 1018 352 L 748 352 Q 730 352 730 334 L 730 334 Q 730 316 748 316 Z"/></g><g><path fill="none" stroke="#000000" paint-order="fill stroke markers" d=" M 748 316 L 1018 316 Q 1036 316 1036 334 L 1036 334 Q 1036 352 1018 352 L 748 352 Q 730 352 730 334 L 730 334 Q 730 316 748 316 Z" stroke-miterlimit="10" stroke-dasharray=""/></g><g><g><path fill="none" stroke="none"/><text fill="#000000" stroke="none" font-family="Arial" font-size="16px" font-style="normal" font-weight="normal" text-decoration="undefined" x="873" y="342" text-anchor="middle" dominant-baseline="central" transform="matrix(1 0 0 1 10 -8)">Название &lt; 70 символов</text></g></g><g><path fill="#ffffff" stroke="none" paint-order="stroke fill markers" d=" M 730 388 L 1054 388 Q 1072 388 1072 406 L 1072 406 Q 1072 424 1054 424 L 730 424 Q 712 424 712 406 L 712 406 Q 712 388 730 388 Z"/></g><g><path fill="none" stroke="#000000" paint-order="fill stroke markers" d=" M 730 388 L 1054 388 Q 1072 388 1072 406 L 1072 406 Q 1072 424 1054 424 L 730 424 Q 712 424 712 406 L 712 406 Q 712 388 730 388 Z" stroke-miterlimit="10" stroke-dasharray=""/></g><g><g><path fill="none" stroke="none"/><text fill="#000000" stroke="none" font-family="Arial" font-size="16px" font-style="normal" font-weight="normal" text-decoration="undefined" x="882" y="414" text-anchor="middle" dominant-baseline="central" transform="matrix(1 0 0 1 10 -8)">Описание &lt; 250 символов</text></g></g><g><path fill="#ffffff" stroke="none" paint-order="stroke fill markers" d=" M 720 532 L 1064 532 Q 1090 532 1090 558 L 1090 558 Q 1090 584 1064 584 L 720 584 Q 694 584 694 558 L 694 558 Q 694 532 720 532 Z"/></g><g><path fill="none" stroke="#000000" paint-order="fill stroke markers" d=" M 720 532 L 1064 532 Q 1090 532 1090 558 L 1090 558 Q 1090 584 1064 584 L 720 584 Q 694 584 694 558 L 694 558 Q 694 532 720 532 Z" stroke-miterlimit="10" stroke-dasharray=""/></g><g><g><path fill="none" stroke="none"/><text fill="#000000" stroke="none" font-family="Arial" font-size="16px" font-style="normal" font-weight="normal" text-decoration="undefined" x="882" y="558" text-anchor="middle" dominant-baseline="central" transform="matrix(1 0 0 1 10 -8)">Кол-во обучающих материалов &lt; 25 штук</text></g></g><g><path fill="#ffffff" stroke="none" paint-order="stroke fill markers" d=" M 712 460 L 1054 460 Q 1072 460 1072 478 L 1072 478 Q 1072 496 1054 496 L 712 496 Q 694 496 694 478 L 694 478 Q 694 460 712 460 Z"/></g><g><path fill="none" stroke="#000000" paint-order="fill stroke markers" d=" M 712 460 L 1054 460 Q 1072 460 1072 478 L 1072 478 Q 1072 496 1054 496 L 712 496 Q 694 496 694 478 L 694 478 Q 694 460 712 460 Z" stroke-miterlimit="10" stroke-dasharray=""/></g><g><g><path fill="none" stroke="none"/><text fill="#000000" stroke="none" font-family="Arial" font-size="16px" font-style="normal" font-weight="normal" text-decoration="undefined" x="873" y="486" text-anchor="middle" dominant-baseline="central" transform="matrix(1 0 0 1 10 -8)">Номер указанной локализации существует</text></g></g><g><path fill="#ffffff" stroke="none" paint-order="stroke fill markers" d=" M 738 622 L 1028 622 Q 1054 622 1054 648 L 1054 648 Q 1054 674 1028 674 L 738 674 Q 712 674 712 648 L 712 648 Q 712 622 738 622 Z"/></g><g><path fill="none" stroke="#000000" paint-order="fill stroke markers" d=" M 738 622 L 1028 622 Q 1054 622 1054 648 L 1054 648 Q 1054 674 1028 674 L 738 674 Q 712 674 712 648 L 712 648 Q 712 622 738 622 Z" stroke-miterlimit="10" stroke-dasharray=""/></g><g><g><path fill="none" stroke="none"/><text fill="#000000" stroke="none" font-family="Arial" font-size="16px" font-style="normal" font-weight="normal" text-decoration="undefined" x="873" y="648" text-anchor="middle" dominant-baseline="central" transform="matrix(1 0 0 1 10 -8)">Кол-во символов в правилах &lt; 1000</text><text fill="#000000" stroke="none" font-family="Arial" font-size="16px" font-style="normal" font-weight="normal" text-decoration="undefined" x="873" y="664" text-anchor="middle" dominant-baseline="central" transform="matrix(1 0 0 1 10 -8)">символов</text></g></g><g><path fill="#ffffff" stroke="#000000" paint-order="fill stroke markers" d=" M 1144 98 L 1167 64 L 1264.484375 64 Q 1287.484375 64 1287.484375 98 Q 1287.484375 132 1264.484375 132 L 1167 132 L 1144 98 Z" stroke-miterlimit="10" stroke-dasharray=""/></g><g><g><path fill="none" stroke="none"/><text fill="#000000" stroke="none" font-family="Arial" font-size="16px" font-style="normal" font-weight="normal" text-decoration="undefined" x="1205.7421875" y="90" text-anchor="middle" dominant-baseline="central" transform="matrix(1 0 0 1 10 -8)">Заголовки</text><text fill="#000000" stroke="none" font-family="Arial" font-size="16px" font-style="normal" font-weight="normal" text-decoration="undefined" x="1205.7421875" y="106" text-anchor="middle" dominant-baseline="central" transform="matrix(1 0 0 1 10 -8)">запроса</text><text fill="#000000" stroke="none" font-family="Arial" font-size="16px" font-style="normal" font-weight="normal" text-decoration="undefined" x="1205.7421875" y="122" text-anchor="middle" dominant-baseline="central" transform="matrix(1 0 0 1 10 -8)">(Авторизирован)</text></g></g><g><path fill="none" stroke="#000000" paint-order="fill stroke markers" d=" M 890 82 L 890 208" stroke-miterlimit="10" stroke-dasharray=""/></g><g><path fill="#000000" stroke="none" paint-order="stroke fill markers" d=" M 885.790482243984 197.83732514237585 L 890 208 L 894.209517756016 197.83732514237585"/></g><g><path fill="none" stroke="#000000" paint-order="fill stroke markers" d=" M 885.790482243984 197.83732514237585 L 890 208 L 894.209517756016 197.83732514237585 L 885.790482243984 197.83732514237585" stroke-miterlimit="10" stroke-dasharray=""/></g><g><path fill="none" stroke="#000000" paint-order="fill stroke markers" d=" M 1215 132 L 1215 182 L 1215 182 A 8 8 0 0 1 1207 190 L 954 190 L 954 190 A 8 8 0 0 0 946 198 L 946 208" stroke-miterlimit="10" stroke-dasharray=""/></g><g><path fill="#000000" stroke="none" paint-order="stroke fill markers" d=" M 941.790482243984 197.83732514237585 L 946 208 L 950.209517756016 197.83732514237585"/></g><g><path fill="none" stroke="#000000" paint-order="fill stroke markers" d=" M 941.790482243984 197.83732514237585 L 946 208 L 950.209517756016 197.83732514237585 L 941.790482243984 197.83732514237585" stroke-miterlimit="10" stroke-dasharray=""/></g><g><path fill="none" stroke="#000000" paint-order="fill stroke markers" d=" M 883 244 L 883 316" stroke-miterlimit="10" stroke-dasharray=""/></g><g><path fill="#000000" stroke="none" paint-order="stroke fill markers" d=" M 878.790482243984 305.83732514237585 L 883 316 L 887.209517756016 305.83732514237585"/></g><g><path fill="none" stroke="#000000" paint-order="fill stroke markers" d=" M 878.790482243984 305.83732514237585 L 883 316 L 887.209517756016 305.83732514237585 L 878.790482243984 305.83732514237585" stroke-miterlimit="10" stroke-dasharray=""/></g><g><path fill="none" stroke="#000000" paint-order="fill stroke markers" d=" M 885 352 L 885 388" stroke-miterlimit="10" stroke-dasharray=""/></g><g><path fill="#000000" stroke="none" paint-order="stroke fill markers" d=" M 880.790482243984 377.83732514237585 L 885 388 L 889.209517756016 377.83732514237585"/></g><g><path fill="none" stroke="#000000" paint-order="fill stroke markers" d=" M 880.790482243984 377.83732514237585 L 885 388 L 889.209517756016 377.83732514237585 L 880.790482243984 377.83732514237585" stroke-miterlimit="10" stroke-dasharray=""/></g><g><path fill="none" stroke="#000000" paint-order="fill stroke markers" d=" M 890 424 L 890 460" stroke-miterlimit="10" stroke-dasharray=""/></g><g><path fill="#000000" stroke="none" paint-order="stroke fill markers" d=" M 885.790482243984 449.83732514237585 L 890 460 L 894.209517756016 449.83732514237585"/></g><g><path fill="none" stroke="#000000" paint-order="fill stroke markers" d=" M 885.790482243984 449.83732514237585 L 890 460 L 894.209517756016 449.83732514237585 L 885.790482243984 449.83732514237585" stroke-miterlimit="10" stroke-dasharray=""/></g><g><path fill="none" stroke="#000000" paint-order="fill stroke markers" d=" M 885 496 L 885 532" stroke-miterlimit="10" stroke-dasharray=""/></g><g><path fill="#000000" stroke="none" paint-order="stroke fill markers" d=" M 880.790482243984 521.8373251423759 L 885 532 L 889.209517756016 521.8373251423759"/></g><g><path fill="none" stroke="#000000" paint-order="fill stroke markers" d=" M 880.790482243984 521.8373251423759 L 885 532 L 889.209517756016 521.8373251423759 L 880.790482243984 521.8373251423759" stroke-miterlimit="10" stroke-dasharray=""/></g><g><path fill="none" stroke="#000000" paint-order="fill stroke markers" d=" M 889 584 L 889 622" stroke-miterlimit="10" stroke-dasharray=""/></g><g><path fill="#000000" stroke="none" paint-order="stroke fill markers" d=" M 884.790482243984 611.8373251423759 L 889 622 L 893.209517756016 611.8373251423759"/></g><g><path fill="none" stroke="#000000" paint-order="fill stroke markers" d=" M 884.790482243984 611.8373251423759 L 889 622 L 893.209517756016 611.8373251423759 L 884.790482243984 611.8373251423759" stroke-miterlimit="10" stroke-dasharray=""/></g><g><path fill="none" stroke="#000000" paint-order="fill stroke markers" d=" M 883 674 L 883 712" stroke-miterlimit="10" stroke-dasharray=""/></g><g><path fill="#000000" stroke="none" paint-order="stroke fill markers" d=" M 878.790482243984 701.8373251423759 L 883 712 L 887.209517756016 701.8373251423759"/></g><g><path fill="none" stroke="#000000" paint-order="fill stroke markers" d=" M 878.790482243984 701.8373251423759 L 883 712 L 887.209517756016 701.8373251423759 L 878.790482243984 701.8373251423759" stroke-miterlimit="10" stroke-dasharray=""/></g><g><path fill="none" stroke="#000000" paint-order="fill stroke markers" d=" M 883 748 L 883 784" stroke-miterlimit="10" stroke-dasharray=""/></g><g><path fill="#000000" stroke="none" paint-order="stroke fill markers" d=" M 878.790482243984 773.8373251423759 L 883 784 L 887.209517756016 773.8373251423759"/></g><g><path fill="none" stroke="#000000" paint-order="fill stroke markers" d=" M 878.790482243984 773.8373251423759 L 883 784 L 887.209517756016 773.8373251423759 L 878.790482243984 773.8373251423759" stroke-miterlimit="10" stroke-dasharray=""/></g><g><path fill="#ADADFF" stroke="none" paint-order="stroke fill markers" d=" M 1306 64 L 1511 64 L 1521 74 L 1521 729 L 1306 729 L 1306 64"/></g><g><path fill="none" stroke="#000000" paint-order="fill stroke markers" d=" M 1306 64 L 1511 64 L 1521 74 L 1521 729 L 1306 729 L 1306 64 L 1306 64" stroke-miterlimit="10" stroke-dasharray=""/></g><g><path fill="none" stroke="#000000" paint-order="fill stroke markers" d=" M 1511 64 L 1511 74 L 1521 74 L 1511 64" stroke-miterlimit="10" stroke-dasharray=""/></g><g><g><path fill="none" stroke="none"/><text fill="#000000" stroke="none" font-family="Arial" font-size="16px" font-style="normal" font-weight="normal" text-decoration="undefined" x="1301" y="77" text-anchor="start" dominant-baseline="text-before-edge" transform="matrix(1 0 0 1 10 -8)">Нужно продумать как будет</text><text fill="#000000" stroke="none" font-family="Arial" font-size="16px" font-style="normal" font-weight="normal" text-decoration="undefined" x="1301" y="93" text-anchor="start" dominant-baseline="text-before-edge" transform="matrix(1 0 0 1 10 -8)">реализовываться загрузка</text><text fill="#000000" stroke="none" font-family="Arial" font-size="16px" font-style="normal" font-weight="normal" text-decoration="undefined" x="1301" y="109" text-anchor="start" dominant-baseline="text-before-edge" transform="matrix(1 0 0 1 10 -8)">обучающих материалов.</text><text fill="#000000" stroke="none" font-family="Arial" font-size="16px" font-style="normal" font-weight="normal" text-decoration="undefined" x="1301" y="125" text-anchor="start" dominant-baseline="text-before-edge" transform="matrix(1 0 0 1 10 -8)">Могут быть сценарии когда</text><text fill="#000000" stroke="none" font-family="Arial" font-size="16px" font-style="normal" font-weight="normal" text-decoration="undefined" x="1301" y="141" text-anchor="start" dominant-baseline="text-before-edge" transform="matrix(1 0 0 1 10 -8)">вставлют ссылку на ютуб,</text><text fill="#000000" stroke="none" font-family="Arial" font-size="16px" font-style="normal" font-weight="normal" text-decoration="undefined" x="1301" y="157" text-anchor="start" dominant-baseline="text-before-edge" transform="matrix(1 0 0 1 10 -8)">или загружают</text><text fill="#000000" stroke="none" font-family="Arial" font-size="16px" font-style="normal" font-weight="normal" text-decoration="undefined" x="1301" y="173" text-anchor="start" dominant-baseline="text-before-edge" transform="matrix(1 0 0 1 10 -8)">персональное видео.</text><text fill="#000000" stroke="none" font-family="Arial" font-size="16px" font-style="normal" font-weight="normal" text-decoration="undefined" x="1301" y="189" text-anchor="start" dominant-baseline="text-before-edge" transform="matrix(1 0 0 1 10 -8)">Также каждому такому</text><text fill="#000000" stroke="none" font-family="Arial" font-size="16px" font-style="normal" font-weight="normal" text-decoration="undefined" x="1301" y="205" text-anchor="start" dominant-baseline="text-before-edge" transform="matrix(1 0 0 1 10 -8)">материалу может быть</text><text fill="#000000" stroke="none" font-family="Arial" font-size="16px" font-style="normal" font-weight="normal" text-decoration="undefined" x="1301" y="221" text-anchor="start" dominant-baseline="text-before-edge" transform="matrix(1 0 0 1 10 -8)">сопутствующий текст.</text><text fill="#000000" stroke="none" font-family="Arial" font-size="16px" font-style="normal" font-weight="normal" text-decoration="undefined" x="1301" y="237" text-anchor="start" dominant-baseline="text-before-edge" transform="matrix(1 0 0 1 10 -8)">Также может быть</text><text fill="#000000" stroke="none" font-family="Arial" font-size="16px" font-style="normal" font-weight="normal" text-decoration="undefined" x="1301" y="253" text-anchor="start" dominant-baseline="text-before-edge" transform="matrix(1 0 0 1 10 -8)">отправлен просто текст.</text><text fill="#000000" stroke="none" font-family="Arial" font-size="16px" font-style="normal" font-weight="normal" text-decoration="undefined" x="1301" y="269" text-anchor="start" dominant-baseline="text-before-edge" transform="matrix(1 0 0 1 10 -8)">Также возникает вопрос,</text><text fill="#000000" stroke="none" font-family="Arial" font-size="16px" font-style="normal" font-weight="normal" text-decoration="undefined" x="1301" y="285" text-anchor="start" dominant-baseline="text-before-edge" transform="matrix(1 0 0 1 10 -8)">может ли пользователь</text><text fill="#000000" stroke="none" font-family="Arial" font-size="16px" font-style="normal" font-weight="normal" text-decoration="undefined" x="1301" y="301" text-anchor="start" dominant-baseline="text-before-edge" transform="matrix(1 0 0 1 10 -8)">отправить колаж фото или</text><text fill="#000000" stroke="none" font-family="Arial" font-size="16px" font-style="normal" font-weight="normal" text-decoration="undefined" x="1301" y="317" text-anchor="start" dominant-baseline="text-before-edge" transform="matrix(1 0 0 1 10 -8)">фото и видео, если захочит</text><text fill="#000000" stroke="none" font-family="Arial" font-size="16px" font-style="normal" font-weight="normal" text-decoration="undefined" x="1301" y="333" text-anchor="start" dominant-baseline="text-before-edge" transform="matrix(1 0 0 1 10 -8)">сгрупировать примеры</text><text fill="#000000" stroke="none" font-family="Arial" font-size="16px" font-style="normal" font-weight="normal" text-decoration="undefined" x="1301" y="349" text-anchor="start" dominant-baseline="text-before-edge" transform="matrix(1 0 0 1 10 -8)">работы которые должны</text><text fill="#000000" stroke="none" font-family="Arial" font-size="16px" font-style="normal" font-weight="normal" text-decoration="undefined" x="1301" y="365" text-anchor="start" dominant-baseline="text-before-edge" transform="matrix(1 0 0 1 10 -8)">получится, или что-то в</text><text fill="#000000" stroke="none" font-family="Arial" font-size="16px" font-style="normal" font-weight="normal" text-decoration="undefined" x="1301" y="381" text-anchor="start" dominant-baseline="text-before-edge" transform="matrix(1 0 0 1 10 -8)">таком духе. </text></g></g><g><g><path fill="none" stroke="none"/><text fill="#000000" stroke="none" font-family="Arial" font-size="16px" font-style="normal" font-weight="normal" text-decoration="undefined" x="1301" y="383" text-anchor="start" dominant-baseline="text-before-edge" transform="matrix(1 0 0 1 10 -8)">Это также нужно будет</text><text fill="#000000" stroke="none" font-family="Arial" font-size="16px" font-style="normal" font-weight="normal" text-decoration="undefined" x="1301" y="399" text-anchor="start" dominant-baseline="text-before-edge" transform="matrix(1 0 0 1 10 -8)">проделать для эндпоинта</text><text fill="#000000" stroke="none" font-family="Arial" font-size="16px" font-style="normal" font-weight="normal" text-decoration="undefined" x="1301" y="415" text-anchor="start" dominant-baseline="text-before-edge" transform="matrix(1 0 0 1 10 -8)">локализации</text></g></g><g><path fill="#ffffff" stroke="none" paint-order="stroke fill markers" d=" M 636 136 L 800.1796875 136 L 768.1796875 172 L 604 172 L 636 136"/></g><g><path fill="none" stroke="#000000" paint-order="fill stroke markers" d=" M 636 136 L 800.1796875 136 L 768.1796875 172 L 604 172 L 636 136 L 636 136" stroke-miterlimit="10" stroke-dasharray=""/></g><g><g><path fill="none" stroke="none"/><text fill="#000000" stroke="none" font-family="Arial" font-size="16px" font-style="normal" font-weight="normal" text-decoration="undefined" x="692.08984375" y="162" text-anchor="middle" dominant-baseline="central" transform="matrix(1 0 0 1 10 -8)">ReportFormatDTO</text></g></g><g><path fill="none" stroke="#000000" paint-order="fill stroke markers" d=" M 800 154 L 812 154 L 812 154 A 8 8 0 0 1 820 162 L 820 208" stroke-miterlimit="10" stroke-dasharray=""/></g><g><path fill="#000000" stroke="none" paint-order="stroke fill markers" d=" M 815.790482243984 197.83732514237585 L 820 208 L 824.209517756016 197.83732514237585"/></g><g><path fill="none" stroke="#000000" paint-order="fill stroke markers" d=" M 815.790482243984 197.83732514237585 L 820 208 L 824.209517756016 197.83732514237585 L 815.790482243984 197.83732514237585" stroke-miterlimit="10" stroke-dasharray=""/></g><g><path fill="#ffffff" stroke="none" paint-order="stroke fill markers" d=" M 61 10 L 316 10 L 265 46 L 10 46 L 61 10"/></g><g><path fill="none" stroke="#000000" paint-order="fill stroke markers" d=" M 61 10 L 316 10 L 265 46 L 10 46 L 61 10 L 61 10" stroke-miterlimit="10" stroke-dasharray=""/></g><g><g><path fill="none" stroke="none"/><text fill="#000000" stroke="none" font-family="Arial" font-size="16px" font-style="normal" font-weight="normal" text-decoration="undefined" x="153" y="36" text-anchor="middle" dominant-baseline="central" transform="matrix(1 0 0 1 10 -8)">TutorialMediaGroupFormatDTO</text></g></g><g><path fill="#ffffff" stroke="none" paint-order="stroke fill markers" d=" M 49 118 L 244 118 L 205 154 L 10 154 L 49 118"/></g><g><path fill="none" stroke="#000000" paint-order="fill stroke markers" d=" M 49 118 L 244 118 L 205 154 L 10 154 L 49 118 L 49 118" stroke-miterlimit="10" stroke-dasharray=""/></g><g><g><path fill="none" stroke="none"/><text fill="#000000" stroke="none" font-family="Arial" font-size="16px" font-style="normal" font-weight="normal" text-decoration="undefined" x="117" y="144" text-anchor="middle" dominant-baseline="central" transform="matrix(1 0 0 1 10 -8)">TutorialMediaFormatDTO</text></g></g><g><path fill="#ffffff" stroke="none" paint-order="stroke fill markers" d=" M 373 136 L 568 136 L 529 172 L 334 172 L 373 136"/></g><g><path fill="none" stroke="#000000" paint-order="fill stroke markers" d=" M 373 136 L 568 136 L 529 172 L 334 172 L 373 136 L 373 136" stroke-miterlimit="10" stroke-dasharray=""/></g><g><g><path fill="none" stroke="none"/><text fill="#000000" stroke="none" font-family="Arial" font-size="16px" font-style="normal" font-weight="normal" text-decoration="undefined" x="441" y="162" text-anchor="middle" dominant-baseline="central" transform="matrix(1 0 0 1 10 -8)">TutorialDTO</text></g></g><g><path fill="none" stroke="#000000" paint-order="fill stroke markers" d=" M 316 28 L 380 28 L 380 28 A 8 8 0 0 1 388 36 L 388 136" stroke-miterlimit="10" stroke-dasharray=""/></g><g><path fill="#000000" stroke="none" paint-order="stroke fill markers" d=" M 383.790482243984 125.83732514237585 L 388 136 L 392.209517756016 125.83732514237585"/></g><g><path fill="none" stroke="#000000" paint-order="fill stroke markers" d=" M 383.790482243984 125.83732514237585 L 388 136 L 392.209517756016 125.83732514237585 L 383.790482243984 125.83732514237585" stroke-miterlimit="10" stroke-dasharray=""/></g><g><rect fill="#ffffff" stroke="none" x="368" y="27" width="51.578125" height="16" transform="matrix(1 0 0 1 10 -8)"/></g><g><g><path fill="none" stroke="none"/><text fill="#000000" stroke="none" font-family="Arial" font-size="16px" font-style="normal" font-weight="normal" text-decoration="undefined" x="393.7890625" y="35" text-anchor="middle" dominant-baseline="central" transform="matrix(1 0 0 1 10 -8)">inherits</text></g></g><g><path fill="none" stroke="#000000" paint-order="fill stroke markers" d=" M 244 136 L 308 136 L 308 136 A 8 8 0 0 1 316 144 L 316 146 L 316 146 A 8 8 0 0 0 324 154 L 334 154" stroke-miterlimit="10" stroke-dasharray=""/></g><g><path fill="#000000" stroke="none" paint-order="stroke fill markers" d=" M 323.83732514237585 158.209517756016 L 334 154 L 323.83732514237585 149.790482243984"/></g><g><path fill="none" stroke="#000000" paint-order="fill stroke markers" d=" M 323.83732514237585 158.209517756016 L 334 154 L 323.83732514237585 149.790482243984 L 323.83732514237585 158.209517756016" stroke-miterlimit="10" stroke-dasharray=""/></g><g><rect fill="#ffffff" stroke="none" x="295" y="144" width="51.578125" height="16" transform="matrix(1 0 0 1 10 -8)"/></g><g><g><path fill="none" stroke="none"/><text fill="#000000" stroke="none" font-family="Arial" font-size="16px" font-style="normal" font-weight="normal" text-decoration="undefined" x="320.7890625" y="152" text-anchor="middle" dominant-baseline="central" transform="matrix(1 0 0 1 10 -8)">inherits</text></g></g><g><path fill="none" stroke="#000000" paint-order="fill stroke markers" d=" M 469 172 L 469 218 L 469 218 A 8 8 0 0 0 477 226 L 730 226" stroke-miterlimit="10" stroke-dasharray=""/></g><g><path fill="#000000" stroke="none" paint-order="stroke fill markers" d=" M 719.8373251423759 230.209517756016 L 730 226 L 719.8373251423758 221.790482243984"/></g><g><path fill="none" stroke="#000000" paint-order="fill stroke markers" d=" M 719.8373251423759 230.209517756016 L 730 226 L 719.8373251423758 221.790482243984 L 719.8373251423759 230.209517756016" stroke-miterlimit="10" stroke-dasharray=""/></g><g><path fill="none" stroke="#000000" paint-order="fill stroke markers" d=" M 244 154 L 244 200 L 244 200 A 8 8 0 0 0 252 208 L 730 208" stroke-miterlimit="10" stroke-dasharray=""/></g><g><path fill="#000000" stroke="none" paint-order="stroke fill markers" d=" M 719.8373251423759 212.209517756016 L 730 208 L 719.8373251423758 203.790482243984"/></g><g><path fill="none" stroke="#000000" paint-order="fill stroke markers" d=" M 719.8373251423759 212.209517756016 L 730 208 L 719.8373251423758 203.790482243984 L 719.8373251423759 212.209517756016" stroke-miterlimit="10" stroke-dasharray=""/></g><g><path fill="none" stroke="#000000" paint-order="fill stroke markers" d=" M 280 46 L 280 236 L 280 236 A 8 8 0 0 0 288 244 L 730 244" stroke-miterlimit="10" stroke-dasharray=""/></g><g><path fill="#000000" stroke="none" paint-order="stroke fill markers" d=" M 719.8373251423759 248.209517756016 L 730 244 L 719.8373251423758 239.790482243984"/></g><g><path fill="none" stroke="#000000" paint-order="fill stroke markers" d=" M 719.8373251423759 248.209517756016 L 730 244 L 719.8373251423758 239.790482243984 L 719.8373251423759 248.209517756016" stroke-miterlimit="10" stroke-dasharray=""/></g></g></svg>