<svg version="1.1" xmlns="http://www.w3.org/2000/svg" xmlns:xlink="http://www.w3.org/1999/xlink" width="830" height="812"><defs/><g><g><rect fill="#ffffff" stroke="none" x="270" y="90" width="432" height="36" transform="matrix(1 0 0 1 -242 -62)"/></g><g><path fill="#ffffff" stroke="none" paint-order="stroke fill markers" d=" M 460 28 A 18 18 0 0 1 460 64"/></g><g><path fill="none" stroke="#000000" paint-order="fill stroke markers" d=" M 28 28 L 28 64" stroke-miterlimit="10" stroke-dasharray=""/></g><g><path fill="none" stroke="#000000" paint-order="fill stroke markers" d=" M 28 28 L 460 28" stroke-miterlimit="10" stroke-dasharray=""/></g><g><path fill="none" stroke="#000000" paint-order="fill stroke markers" d=" M 28 64 L 460 64" stroke-miterlimit="10" stroke-dasharray=""/></g><g><path fill="none" stroke="#000000" paint-order="fill stroke markers" d=" M 460 28 A 18 18 0 0 1 460 64" stroke-miterlimit="10" stroke-dasharray=""/></g><g><g><path fill="none" stroke="none"/><text fill="#000000" stroke="none" font-family="Arial" font-size="16px" font-style="normal" font-weight="normal" text-decoration="undefined" x="448.75" y="108" text-anchor="middle" dominant-baseline="central" transform="matrix(1 0 0 1 -242 -62)">POST /challenges/join-by-link</text></g></g><g><path fill="#ffffff" stroke="none" paint-order="stroke fill markers" d=" M 100 118 L 460 118 L 388 154 L 28 154 L 100 118"/></g><g><path fill="none" stroke="#000000" paint-order="fill stroke markers" d=" M 100 118 L 460 118 L 388 154 L 28 154 L 100 118 L 100 118" stroke-miterlimit="10" stroke-dasharray=""/></g><g><g><path fill="none" stroke="none"/><text fill="#000000" stroke="none" font-family="Arial" font-size="16px" font-style="normal" font-weight="normal" text-decoration="undefined" x="486" y="198" text-anchor="middle" dominant-baseline="central" transform="matrix(1 0 0 1 -242 -62)">PostChallengeJoinByLinkRequest</text></g></g><g><path fill="#ffffff" stroke="none" paint-order="stroke fill markers" d=" M 91 766 L 496 766 L 415 802 L 10 802 L 91 766"/></g><g><path fill="none" stroke="#000000" paint-order="fill stroke markers" d=" M 91 766 L 496 766 L 415 802 L 10 802 L 91 766 L 91 766" stroke-miterlimit="10" stroke-dasharray=""/></g><g><g><path fill="none" stroke="none"/><text fill="#000000" stroke="none" font-family="Arial" font-size="16px" font-style="normal" font-weight="normal" text-decoration="undefined" x="495" y="846" text-anchor="middle" dominant-baseline="central" transform="matrix(1 0 0 1 -242 -62)">PostChallengeJoinByLinkResponse</text></g></g><g><path fill="#ffffff" stroke="#000000" paint-order="fill stroke markers" d=" M 604 44 L 627 10 L 724.484375 10 Q 747.484375 10 747.484375 44 Q 747.484375 78 724.484375 78 L 627 78 L 604 44 Z" stroke-miterlimit="10" stroke-dasharray=""/></g><g><g><path fill="none" stroke="none"/><text fill="#000000" stroke="none" font-family="Arial" font-size="16px" font-style="normal" font-weight="normal" text-decoration="undefined" x="917.7421875" y="90" text-anchor="middle" dominant-baseline="central" transform="matrix(1 0 0 1 -242 -62)">Заголовки</text><text fill="#000000" stroke="none" font-family="Arial" font-size="16px" font-style="normal" font-weight="normal" text-decoration="undefined" x="917.7421875" y="106" text-anchor="middle" dominant-baseline="central" transform="matrix(1 0 0 1 -242 -62)">запроса</text><text fill="#000000" stroke="none" font-family="Arial" font-size="16px" font-style="normal" font-weight="normal" text-decoration="undefined" x="917.7421875" y="122" text-anchor="middle" dominant-baseline="central" transform="matrix(1 0 0 1 -242 -62)">(Авторизирован)</text></g></g><g><path fill="#ffffff" stroke="none" paint-order="stroke fill markers" d=" M 46 262 L 442 262 Q 460 262 460 280 L 460 280 Q 460 298 442 298 L 46 298 Q 28 298 28 280 L 28 280 Q 28 262 46 262 Z"/></g><g><path fill="none" stroke="#000000" paint-order="fill stroke markers" d=" M 46 262 L 442 262 Q 460 262 460 280 L 460 280 Q 460 298 442 298 L 46 298 Q 28 298 28 280 L 28 280 Q 28 262 46 262 Z" stroke-miterlimit="10" stroke-dasharray=""/></g><g><g><path fill="none" stroke="none"/><text fill="#000000" stroke="none" font-family="Arial" font-size="16px" font-style="normal" font-weight="normal" text-decoration="undefined" x="486" y="342" text-anchor="middle" dominant-baseline="central" transform="matrix(1 0 0 1 -242 -62)">Аккаунт не является участником челленджа </text></g></g><g><path fill="#ffffff" stroke="none" paint-order="stroke fill markers" d=" M 46 190 L 442 190 Q 460 190 460 208 L 460 208 Q 460 226 442 226 L 46 226 Q 28 226 28 208 L 28 208 Q 28 190 46 190 Z"/></g><g><path fill="none" stroke="#000000" paint-order="fill stroke markers" d=" M 46 190 L 442 190 Q 460 190 460 208 L 460 208 Q 460 226 442 226 L 46 226 Q 28 226 28 208 L 28 208 Q 28 190 46 190 Z" stroke-miterlimit="10" stroke-dasharray=""/></g><g><g><path fill="none" stroke="none"/><text fill="#000000" stroke="none" font-family="Arial" font-size="16px" font-style="normal" font-weight="normal" text-decoration="undefined" x="486" y="270" text-anchor="middle" dominant-baseline="central" transform="matrix(1 0 0 1 -242 -62)">Ссылка действительна</text></g></g><g><path fill="#ffffff" stroke="none" paint-order="stroke fill markers" d=" M 46 334 L 442 334 Q 460 334 460 352 L 460 352 Q 460 370 442 370 L 46 370 Q 28 370 28 352 L 28 352 Q 28 334 46 334 Z"/></g><g><path fill="none" stroke="#000000" paint-order="fill stroke markers" d=" M 46 334 L 442 334 Q 460 334 460 352 L 460 352 Q 460 370 442 370 L 46 370 Q 28 370 28 352 L 28 352 Q 28 334 46 334 Z" stroke-miterlimit="10" stroke-dasharray=""/></g><g><g><path fill="none" stroke="none"/><text fill="#000000" stroke="none" font-family="Arial" font-size="16px" font-style="normal" font-weight="normal" text-decoration="undefined" x="486" y="414" text-anchor="middle" dominant-baseline="central" transform="matrix(1 0 0 1 -242 -62)">Пользователь не заблокирован</text></g></g><g><path fill="#ffffff" stroke="none" paint-order="stroke fill markers" d=" M 118 474 L 244 442 L 370 474 L 244 506 L 118 474"/></g><g><path fill="none" stroke="#000000" paint-order="fill stroke markers" d=" M 118 474 L 244 442 L 370 474 L 244 506 L 118 474 L 118 474" stroke-miterlimit="10" stroke-dasharray=""/></g><g><g><path fill="none" stroke="none"/><text fill="#000000" stroke="none" font-family="Arial" font-size="16px" font-style="normal" font-weight="normal" text-decoration="undefined" x="486" y="528" text-anchor="middle" dominant-baseline="central" transform="matrix(1 0 0 1 -242 -62)">Сообщество</text><text fill="#000000" stroke="none" font-family="Arial" font-size="16px" font-style="normal" font-weight="normal" text-decoration="undefined" x="486" y="544" text-anchor="middle" dominant-baseline="central" transform="matrix(1 0 0 1 -242 -62)">открыто</text></g></g><g><path fill="#ffffff" stroke="none" paint-order="stroke fill markers" d=" M 442 584 L 568 568 L 694 584 L 568 600 L 442 584"/></g><g><path fill="none" stroke="#000000" paint-order="fill stroke markers" d=" M 442 584 L 568 568 L 694 584 L 568 600 L 442 584 L 442 584" stroke-miterlimit="10" stroke-dasharray=""/></g><g><g><path fill="none" stroke="none"/><text fill="#000000" stroke="none" font-family="Arial" font-size="16px" font-style="normal" font-weight="normal" text-decoration="undefined" x="810" y="646" text-anchor="middle" dominant-baseline="central" transform="matrix(1 0 0 1 -242 -62)">Челледж открыт</text></g></g><g><rect fill="#ffffff" stroke="none" x="468" y="702" width="216" height="52" transform="matrix(1 0 0 1 -242 -62)"/></g><g><path fill="none" stroke="#000000" paint-order="fill stroke markers" d=" M 226 640 L 442 640 L 442 692 L 226 692 L 226 640 Z Z" stroke-miterlimit="10" stroke-dasharray=""/></g><g><g><path fill="none" stroke="none"/><text fill="#000000" stroke="none" font-family="Arial" font-size="16px" font-style="normal" font-weight="normal" text-decoration="undefined" x="576" y="720" text-anchor="middle" dominant-baseline="central" transform="matrix(1 0 0 1 -242 -62)">Отправить запрос на</text><text fill="#000000" stroke="none" font-family="Arial" font-size="16px" font-style="normal" font-weight="normal" text-decoration="undefined" x="576" y="736" text-anchor="middle" dominant-baseline="central" transform="matrix(1 0 0 1 -242 -62)">вступление</text></g></g><g><rect fill="#ffffff" stroke="none" x="882" y="702" width="180" height="52" transform="matrix(1 0 0 1 -242 -62)"/></g><g><path fill="none" stroke="#000000" paint-order="fill stroke markers" d=" M 640 640 L 820 640 L 820 692 L 640 692 L 640 640 Z Z" stroke-miterlimit="10" stroke-dasharray=""/></g><g><g><path fill="none" stroke="none"/><text fill="#000000" stroke="none" font-family="Arial" font-size="16px" font-style="normal" font-weight="normal" text-decoration="undefined" x="972" y="720" text-anchor="middle" dominant-baseline="central" transform="matrix(1 0 0 1 -242 -62)">Аккаунт сделать</text><text fill="#000000" stroke="none" font-family="Arial" font-size="16px" font-style="normal" font-weight="normal" text-decoration="undefined" x="972" y="736" text-anchor="middle" dominant-baseline="central" transform="matrix(1 0 0 1 -242 -62)">участником</text></g></g><g><path fill="#ffffff" stroke="none" paint-order="stroke fill markers" d=" M 694 331 C 694 322.715728 700.715728 316 709 316 C 717.284272 316 724 322.715728 724 331 C 724 339.284272 717.284272 346 709 346 C 700.715728 346 694 339.284272 694 331 Z"/></g><g><path fill="none" stroke="#000000" paint-order="fill stroke markers" d=" M 694 331 C 694 322.715728 700.715728 316 709 316 C 717.284272 316 724 322.715728 724 331 C 724 339.284272 717.284272 346 709 346 C 700.715728 346 694 339.284272 694 331 Z" stroke-miterlimit="10" stroke-dasharray=""/></g><g><g><path fill="none" stroke="none"/></g></g><g><path fill="none" stroke="#000000" paint-order="fill stroke markers" d=" M 338 506 L 338 560 L 338 560 A 8 8 0 0 0 346 568 L 442 568" stroke-miterlimit="10" stroke-dasharray=""/></g><g><path fill="#000000" stroke="none" paint-order="stroke fill markers" d=" M 431.8373251423759 572.209517756016 L 442 568 L 431.8373251423758 563.790482243984"/></g><g><path fill="none" stroke="#000000" paint-order="fill stroke markers" d=" M 431.8373251423759 572.209517756016 L 442 568 L 431.8373251423758 563.790482243984 L 431.8373251423759 572.209517756016" stroke-miterlimit="10" stroke-dasharray=""/></g><g><rect fill="#ffffff" stroke="none" x="571" y="607" width="19.734375" height="16" transform="matrix(1 0 0 1 -242 -62)"/></g><g><g><path fill="none" stroke="none"/><text fill="#000000" stroke="none" font-family="Arial" font-size="16px" font-style="normal" font-weight="normal" text-decoration="undefined" x="580.8671875" y="615" text-anchor="middle" dominant-baseline="central" transform="matrix(1 0 0 1 -242 -62)">Да</text></g></g><g><path fill="none" stroke="#000000" paint-order="fill stroke markers" d=" M 370 442 L 686 442 L 686 442 A 8 8 0 0 0 694 434 L 694 346" stroke-miterlimit="10" stroke-dasharray=""/></g><g><path fill="#000000" stroke="none" paint-order="stroke fill markers" d=" M 698.209517756016 356.16267485762415 L 694 346 L 689.790482243984 356.16267485762415"/></g><g><path fill="none" stroke="#000000" paint-order="fill stroke markers" d=" M 698.209517756016 356.16267485762415 L 694 346 L 689.790482243984 356.16267485762415 L 698.209517756016 356.16267485762415" stroke-miterlimit="10" stroke-dasharray=""/></g><g><path fill="none" stroke="#000000" paint-order="fill stroke markers" d=" M 526 600 L 526 632 L 526 632 A 8 8 0 0 1 518 640 L 442 640" stroke-miterlimit="10" stroke-dasharray=""/></g><g><path fill="#000000" stroke="none" paint-order="stroke fill markers" d=" M 452.1626748576241 635.790482243984 L 442 640 L 452.1626748576241 644.209517756016"/></g><g><path fill="none" stroke="#000000" paint-order="fill stroke markers" d=" M 452.1626748576241 635.790482243984 L 442 640 L 452.1626748576241 644.209517756016 L 452.1626748576241 635.790482243984" stroke-miterlimit="10" stroke-dasharray=""/></g><g><rect fill="#ffffff" stroke="none" x="754" y="709" width="27.25" height="16" transform="matrix(1 0 0 1 -242 -62)"/></g><g><g><path fill="none" stroke="none"/><text fill="#000000" stroke="none" font-family="Arial" font-size="16px" font-style="normal" font-weight="normal" text-decoration="undefined" x="767.625" y="717" text-anchor="middle" dominant-baseline="central" transform="matrix(1 0 0 1 -242 -62)">Нет</text></g></g><g><path fill="none" stroke="#000000" paint-order="fill stroke markers" d=" M 600 600 L 600 632 L 600 632 A 8 8 0 0 0 608 640 L 640 640" stroke-miterlimit="10" stroke-dasharray=""/></g><g><path fill="#000000" stroke="none" paint-order="stroke fill markers" d=" M 629.8373251423759 644.209517756016 L 640 640 L 629.8373251423758 635.790482243984"/></g><g><path fill="none" stroke="#000000" paint-order="fill stroke markers" d=" M 629.8373251423759 644.209517756016 L 640 640 L 629.8373251423758 635.790482243984 L 629.8373251423759 644.209517756016" stroke-miterlimit="10" stroke-dasharray=""/></g><g><rect fill="#ffffff" stroke="none" x="833" y="679" width="19.734375" height="16" transform="matrix(1 0 0 1 -242 -62)"/></g><g><g><path fill="none" stroke="none"/><text fill="#000000" stroke="none" font-family="Arial" font-size="16px" font-style="normal" font-weight="normal" text-decoration="undefined" x="842.8671875" y="687" text-anchor="middle" dominant-baseline="central" transform="matrix(1 0 0 1 -242 -62)">Да</text></g></g><g><path fill="none" stroke="#000000" paint-order="fill stroke markers" d=" M 330 692 L 330 766" stroke-miterlimit="10" stroke-dasharray=""/></g><g><path fill="#000000" stroke="none" paint-order="stroke fill markers" d=" M 325.790482243984 755.8373251423759 L 330 766 L 334.209517756016 755.8373251423759"/></g><g><path fill="none" stroke="#000000" paint-order="fill stroke markers" d=" M 325.790482243984 755.8373251423759 L 330 766 L 334.209517756016 755.8373251423759 L 325.790482243984 755.8373251423759" stroke-miterlimit="10" stroke-dasharray=""/></g><g><path fill="none" stroke="#000000" paint-order="fill stroke markers" d=" M 640 692 L 640 758 L 640 758 A 8 8 0 0 1 632 766 L 496 766" stroke-miterlimit="10" stroke-dasharray=""/></g><g><path fill="#000000" stroke="none" paint-order="stroke fill markers" d=" M 506.1626748576241 761.790482243984 L 496 766 L 506.1626748576241 770.209517756016"/></g><g><path fill="none" stroke="#000000" paint-order="fill stroke markers" d=" M 506.1626748576241 761.790482243984 L 496 766 L 506.1626748576241 770.209517756016 L 506.1626748576241 761.790482243984" stroke-miterlimit="10" stroke-dasharray=""/></g><g><path fill="none" stroke="#000000" paint-order="fill stroke markers" d=" M 251 64 L 251 118" stroke-miterlimit="10" stroke-dasharray=""/></g><g><path fill="#000000" stroke="none" paint-order="stroke fill markers" d=" M 246.790482243984 107.83732514237585 L 251 118 L 255.209517756016 107.83732514237585"/></g><g><path fill="none" stroke="#000000" paint-order="fill stroke markers" d=" M 246.790482243984 107.83732514237585 L 251 118 L 255.209517756016 107.83732514237585 L 246.790482243984 107.83732514237585" stroke-miterlimit="10" stroke-dasharray=""/></g><g><path fill="none" stroke="#000000" paint-order="fill stroke markers" d=" M 244 154 L 244 190" stroke-miterlimit="10" stroke-dasharray=""/></g><g><path fill="#000000" stroke="none" paint-order="stroke fill markers" d=" M 239.790482243984 179.83732514237585 L 244 190 L 248.209517756016 179.83732514237585"/></g><g><path fill="none" stroke="#000000" paint-order="fill stroke markers" d=" M 239.790482243984 179.83732514237585 L 244 190 L 248.209517756016 179.83732514237585 L 239.790482243984 179.83732514237585" stroke-miterlimit="10" stroke-dasharray=""/></g><g><path fill="none" stroke="#000000" paint-order="fill stroke markers" d=" M 244 298 L 244 334" stroke-miterlimit="10" stroke-dasharray=""/></g><g><path fill="#000000" stroke="none" paint-order="stroke fill markers" d=" M 239.790482243984 323.83732514237585 L 244 334 L 248.209517756016 323.83732514237585"/></g><g><path fill="none" stroke="#000000" paint-order="fill stroke markers" d=" M 239.790482243984 323.83732514237585 L 244 334 L 248.209517756016 323.83732514237585 L 239.790482243984 323.83732514237585" stroke-miterlimit="10" stroke-dasharray=""/></g><g><path fill="none" stroke="#000000" paint-order="fill stroke markers" d=" M 244 226 L 244 262" stroke-miterlimit="10" stroke-dasharray=""/></g><g><path fill="#000000" stroke="none" paint-order="stroke fill markers" d=" M 239.790482243984 251.83732514237585 L 244 262 L 248.209517756016 251.83732514237585"/></g><g><path fill="none" stroke="#000000" paint-order="fill stroke markers" d=" M 239.790482243984 251.83732514237585 L 244 262 L 248.209517756016 251.83732514237585 L 239.790482243984 251.83732514237585" stroke-miterlimit="10" stroke-dasharray=""/></g><g><path fill="none" stroke="#000000" paint-order="fill stroke markers" d=" M 604 78 L 604 110 L 604 110 A 8 8 0 0 1 596 118 L 460 118" stroke-miterlimit="10" stroke-dasharray=""/></g><g><path fill="#000000" stroke="none" paint-order="stroke fill markers" d=" M 470.1626748576241 113.790482243984 L 460 118 L 470.1626748576241 122.209517756016"/></g><g><path fill="none" stroke="#000000" paint-order="fill stroke markers" d=" M 470.1626748576241 113.790482243984 L 460 118 L 470.1626748576241 122.209517756016 L 470.1626748576241 113.790482243984" stroke-miterlimit="10" stroke-dasharray=""/></g><g><path fill="none" stroke="#000000" paint-order="fill stroke markers" d=" M 244 370 L 244 442" stroke-miterlimit="10" stroke-dasharray=""/></g><g><path fill="#000000" stroke="none" paint-order="stroke fill markers" d=" M 239.790482243984 431.83732514237585 L 244 442 L 248.209517756016 431.83732514237585"/></g><g><path fill="none" stroke="#000000" paint-order="fill stroke markers" d=" M 239.790482243984 431.83732514237585 L 244 442 L 248.209517756016 431.83732514237585 L 239.790482243984 431.83732514237585" stroke-miterlimit="10" stroke-dasharray=""/></g></g></svg>