<svg version="1.1" xmlns="http://www.w3.org/2000/svg" xmlns:xlink="http://www.w3.org/1999/xlink" width="380" height="254"><defs/><g><g><path fill="#ffffff" stroke="none" paint-order="stroke fill markers" d=" M 109 10 L 334 10 L 289 46 L 64 46 L 109 10"/></g><g><path fill="none" stroke="#000000" paint-order="fill stroke markers" d=" M 109 10 L 334 10 L 289 46 L 64 46 L 109 10 L 109 10" stroke-miterlimit="10" stroke-dasharray=""/></g><g><g><path fill="none" stroke="none"/><text fill="#000000" stroke="none" font-family="Arial" font-size="16px" font-style="normal" font-weight="normal" text-decoration="undefined" x="513" y="90" text-anchor="middle" dominant-baseline="central" transform="matrix(1 0 0 1 -314 -62)">SearchParams</text></g></g><g><path fill="#ffffff" stroke="none" paint-order="stroke fill markers" d=" M 28 136 L 352 136 Q 370 136 370 154 L 370 154 Q 370 172 352 172 L 28 172 Q 10 172 10 154 L 10 154 Q 10 136 28 136 Z"/></g><g><path fill="none" stroke="#000000" paint-order="fill stroke markers" d=" M 28 136 L 352 136 Q 370 136 370 154 L 370 154 Q 370 172 352 172 L 28 172 Q 10 172 10 154 L 10 154 Q 10 136 28 136 Z" stroke-miterlimit="10" stroke-dasharray=""/></g><g><g><path fill="none" stroke="none"/><text fill="#000000" stroke="none" font-family="Arial" font-size="16px" font-style="normal" font-weight="normal" text-decoration="undefined" x="504" y="216" text-anchor="middle" dominant-baseline="central" transform="matrix(1 0 0 1 -314 -62)">Челлендж публичный</text></g></g><g><path fill="#ffffff" stroke="#000000" paint-order="fill stroke markers" d=" M 136 86 C 136 83.79086079999999 157.801631575 82 184.6953125 82 C 211.588993425 82 233.390625 83.79086079999999 233.390625 86 L 233.390625 114 C 233.390625 116.20913920000001 211.588993425 118 184.6953125 118 C 157.801631575 118 136 116.20913920000001 136 114 L 136 86 Z" stroke-miterlimit="10" stroke-dasharray=""/></g><g><path fill="none" stroke="#000000" paint-order="fill stroke markers" d=" M 136 86 C 136 88.20913920000001 157.801631575 90 184.6953125 90 C 211.588993425 90 233.390625 88.20913920000001 233.390625 86" stroke-miterlimit="10" stroke-dasharray=""/></g><g><g><path fill="none" stroke="none"/><text fill="#000000" stroke="none" font-family="Arial" font-size="16px" font-style="normal" font-weight="normal" text-decoration="undefined" x="498.6953125" y="164" text-anchor="middle" dominant-baseline="central" transform="matrix(1 0 0 1 -314 -62)">Запрос</text></g></g><g><path fill="#ffffff" stroke="none" paint-order="stroke fill markers" d=" M 88 208 L 298 208 L 256 244 L 46 244 L 88 208"/></g><g><path fill="none" stroke="#000000" paint-order="fill stroke markers" d=" M 88 208 L 298 208 L 256 244 L 46 244 L 88 208 L 88 208" stroke-miterlimit="10" stroke-dasharray=""/></g><g><g><path fill="none" stroke="none"/><text fill="#000000" stroke="none" font-family="Arial" font-size="16px" font-style="normal" font-weight="normal" text-decoration="undefined" x="486" y="288" text-anchor="middle" dominant-baseline="central" transform="matrix(1 0 0 1 -314 -62)">Result</text></g></g><g><path fill="none" stroke="#000000" paint-order="fill stroke markers" d=" M 195 46 L 195 82" stroke-miterlimit="10" stroke-dasharray=""/></g><g><path fill="#000000" stroke="none" paint-order="stroke fill markers" d=" M 190.790482243984 71.83732514237585 L 195 82 L 199.209517756016 71.83732514237585"/></g><g><path fill="none" stroke="#000000" paint-order="fill stroke markers" d=" M 190.790482243984 71.83732514237585 L 195 82 L 199.209517756016 71.83732514237585 L 190.790482243984 71.83732514237585" stroke-miterlimit="10" stroke-dasharray=""/></g><g><path fill="none" stroke="#000000" paint-order="fill stroke markers" d=" M 186 118 L 186 136" stroke-miterlimit="10" stroke-dasharray=""/></g><g><path fill="#000000" stroke="none" paint-order="stroke fill markers" d=" M 181.790482243984 125.83732514237585 L 186 136 L 190.209517756016 125.83732514237585"/></g><g><path fill="none" stroke="#000000" paint-order="fill stroke markers" d=" M 181.790482243984 125.83732514237585 L 186 136 L 190.209517756016 125.83732514237585 L 181.790482243984 125.83732514237585" stroke-miterlimit="10" stroke-dasharray=""/></g><g><path fill="none" stroke="#000000" paint-order="fill stroke markers" d=" M 186 172 L 186 208" stroke-miterlimit="10" stroke-dasharray=""/></g><g><path fill="#000000" stroke="none" paint-order="stroke fill markers" d=" M 181.790482243984 197.83732514237585 L 186 208 L 190.209517756016 197.83732514237585"/></g><g><path fill="none" stroke="#000000" paint-order="fill stroke markers" d=" M 181.790482243984 197.83732514237585 L 186 208 L 190.209517756016 197.83732514237585 L 181.790482243984 197.83732514237585" stroke-miterlimit="10" stroke-dasharray=""/></g></g></svg>