<svg version="1.1" xmlns="http://www.w3.org/2000/svg" xmlns:xlink="http://www.w3.org/1999/xlink" width="1658" height="632"><defs/><g><g><rect fill="#ffffff" stroke="none" x="252" y="54" width="612" height="36" transform="matrix(1 0 0 1 -242 -26)"/></g><g><path fill="#ffffff" stroke="none" paint-order="stroke fill markers" d=" M 622 28 A 18 18 0 0 1 622 64"/></g><g><path fill="none" stroke="#000000" paint-order="fill stroke markers" d=" M 10 28 L 10 64" stroke-miterlimit="10" stroke-dasharray=""/></g><g><path fill="none" stroke="#000000" paint-order="fill stroke markers" d=" M 10 28 L 622 28" stroke-miterlimit="10" stroke-dasharray=""/></g><g><path fill="none" stroke="#000000" paint-order="fill stroke markers" d=" M 10 64 L 622 64" stroke-miterlimit="10" stroke-dasharray=""/></g><g><path fill="none" stroke="#000000" paint-order="fill stroke markers" d=" M 622 28 A 18 18 0 0 1 622 64" stroke-miterlimit="10" stroke-dasharray=""/></g><g><g><path fill="none" stroke="none"/><text fill="#000000" stroke="none" font-family="Arial" font-size="16px" font-style="normal" font-weight="normal" text-decoration="undefined" x="498.25" y="72" text-anchor="middle" dominant-baseline="central" transform="matrix(1 0 0 1 -242 -26)">GET /challanges/{challangeId}/reports/{reportId}/comments</text></g></g><g><path fill="#ffffff" stroke="none" paint-order="stroke fill markers" d=" M 136 100 L 496 100 L 424 136 L 64 136 L 136 100"/></g><g><path fill="none" stroke="#000000" paint-order="fill stroke markers" d=" M 136 100 L 496 100 L 424 136 L 64 136 L 136 100 L 136 100" stroke-miterlimit="10" stroke-dasharray=""/></g><g><g><path fill="none" stroke="none"/><text fill="#000000" stroke="none" font-family="Arial" font-size="16px" font-style="normal" font-weight="normal" text-decoration="undefined" x="522" y="144" text-anchor="middle" dominant-baseline="central" transform="matrix(1 0 0 1 -242 -26)">GetChallangesReportsCommentsRequest</text></g></g><g><path fill="#ffffff" stroke="none" paint-order="stroke fill markers" d=" M 136 172 L 425.6796875 172 Q 443.6796875 172 443.6796875 190 L 443.6796875 190 Q 443.6796875 208 425.6796875 208 L 136 208 Q 118 208 118 190 L 118 190 Q 118 172 136 172 Z"/></g><g><path fill="none" stroke="#000000" paint-order="fill stroke markers" d=" M 136 172 L 425.6796875 172 Q 443.6796875 172 443.6796875 190 L 443.6796875 190 Q 443.6796875 208 425.6796875 208 L 136 208 Q 118 208 118 190 L 118 190 Q 118 172 136 172 Z" stroke-miterlimit="10" stroke-dasharray=""/></g><g><g><path fill="none" stroke="none"/><text fill="#000000" stroke="none" font-family="Arial" font-size="16px" font-style="normal" font-weight="normal" text-decoration="undefined" x="522.83984375" y="216" text-anchor="middle" dominant-baseline="central" transform="matrix(1 0 0 1 -242 -26)">Аккаунт является участником челленджа</text></g></g><g><rect fill="#ffffff" stroke="none" x="306" y="306" width="432" height="36" transform="matrix(1 0 0 1 -242 -26)"/></g><g><path fill="none" stroke="#000000" paint-order="fill stroke markers" d=" M 64 280 L 496 280 L 496 316 L 64 316 L 64 280 Z Z" stroke-miterlimit="10" stroke-dasharray=""/></g><g><g><path fill="none" stroke="none"/><text fill="#000000" stroke="none" font-family="Arial" font-size="16px" font-style="normal" font-weight="normal" text-decoration="undefined" x="522" y="324" text-anchor="middle" dominant-baseline="central" transform="matrix(1 0 0 1 -242 -26)">Извлечь комментарии из базы</text></g></g><g><path fill="#ffffff" stroke="none" paint-order="stroke fill markers" d=" M 97 586 L 442 586 L 373 622 L 28 622 L 97 586"/></g><g><path fill="none" stroke="#000000" paint-order="fill stroke markers" d=" M 97 586 L 442 586 L 373 622 L 28 622 L 97 586 L 97 586" stroke-miterlimit="10" stroke-dasharray=""/></g><g><g><path fill="none" stroke="none"/><text fill="#000000" stroke="none" font-family="Arial" font-size="16px" font-style="normal" font-weight="normal" text-decoration="undefined" x="477" y="630" text-anchor="middle" dominant-baseline="central" transform="matrix(1 0 0 1 -242 -26)">GetChallangesReportsCommentsResponse</text></g></g><g><path fill="#ffffff" stroke="#000000" paint-order="fill stroke markers" d=" M 748 44 L 771 10 L 868.484375 10 Q 891.484375 10 891.484375 44 Q 891.484375 78 868.484375 78 L 771 78 L 748 44 Z" stroke-miterlimit="10" stroke-dasharray=""/></g><g><g><path fill="none" stroke="none"/><text fill="#000000" stroke="none" font-family="Arial" font-size="16px" font-style="normal" font-weight="normal" text-decoration="undefined" x="1061.7421875" y="54" text-anchor="middle" dominant-baseline="central" transform="matrix(1 0 0 1 -242 -26)">Заголовки</text><text fill="#000000" stroke="none" font-family="Arial" font-size="16px" font-style="normal" font-weight="normal" text-decoration="undefined" x="1061.7421875" y="70" text-anchor="middle" dominant-baseline="central" transform="matrix(1 0 0 1 -242 -26)">запроса</text><text fill="#000000" stroke="none" font-family="Arial" font-size="16px" font-style="normal" font-weight="normal" text-decoration="undefined" x="1061.7421875" y="86" text-anchor="middle" dominant-baseline="central" transform="matrix(1 0 0 1 -242 -26)">(Авторизирован)</text></g></g><g><path fill="#ffffff" stroke="none" paint-order="stroke fill markers" d=" M 526 532 L 856 532 L 790 568 L 460 568 L 526 532"/></g><g><path fill="none" stroke="#000000" paint-order="fill stroke markers" d=" M 526 532 L 856 532 L 790 568 L 460 568 L 526 532 L 526 532" stroke-miterlimit="10" stroke-dasharray=""/></g><g><g><path fill="none" stroke="none"/><text fill="#000000" stroke="none" font-family="Arial" font-size="16px" font-style="normal" font-weight="normal" text-decoration="undefined" x="900" y="576" text-anchor="middle" dominant-baseline="central" transform="matrix(1 0 0 1 -242 -26)">ChallangesReportsCommentsItemDTO</text></g></g><g><path fill="#ffffff" stroke="none" paint-order="stroke fill markers" d=" M 1318 334 L 1648 334 L 1582 370 L 1252 370 L 1318 334"/></g><g><path fill="none" stroke="#000000" paint-order="fill stroke markers" d=" M 1318 334 L 1648 334 L 1582 370 L 1252 370 L 1318 334 L 1318 334" stroke-miterlimit="10" stroke-dasharray=""/></g><g><g><path fill="none" stroke="none"/><text fill="#000000" stroke="none" font-family="Arial" font-size="16px" font-style="normal" font-weight="normal" text-decoration="undefined" x="1692" y="378" text-anchor="middle" dominant-baseline="central" transform="matrix(1 0 0 1 -242 -26)">AReportsCommentsMediaDTO</text></g></g><g><path fill="#ffffff" stroke="none" paint-order="stroke fill markers" d=" M 967 424 L 1252 424 L 1195 460 L 910 460 L 967 424"/></g><g><path fill="none" stroke="#000000" paint-order="fill stroke markers" d=" M 967 424 L 1252 424 L 1195 460 L 910 460 L 967 424 L 967 424" stroke-miterlimit="10" stroke-dasharray=""/></g><g><g><path fill="none" stroke="none"/><text fill="#000000" stroke="none" font-family="Arial" font-size="16px" font-style="normal" font-weight="normal" text-decoration="undefined" x="1323" y="468" text-anchor="middle" dominant-baseline="central" transform="matrix(1 0 0 1 -242 -26)">ReportsCommentsImageDTO</text></g></g><g><path fill="#ffffff" stroke="none" paint-order="stroke fill markers" d=" M 967 460 L 1252 460 L 1195 496 L 910 496 L 967 460"/></g><g><path fill="none" stroke="#000000" paint-order="fill stroke markers" d=" M 967 460 L 1252 460 L 1195 496 L 910 496 L 967 460 L 967 460" stroke-miterlimit="10" stroke-dasharray=""/></g><g><g><path fill="none" stroke="none"/><text fill="#000000" stroke="none" font-family="Arial" font-size="16px" font-style="normal" font-weight="normal" text-decoration="undefined" x="1323" y="504" text-anchor="middle" dominant-baseline="central" transform="matrix(1 0 0 1 -242 -26)">ReportsCommentsVideoDTO</text></g></g><g><path fill="#ffffff" stroke="none" paint-order="stroke fill markers" d=" M 976 496 L 1216 496 L 1168 532 L 928 532 L 976 496"/></g><g><path fill="none" stroke="#000000" paint-order="fill stroke markers" d=" M 976 496 L 1216 496 L 1168 532 L 928 532 L 976 496 L 976 496" stroke-miterlimit="10" stroke-dasharray=""/></g><g><g><path fill="none" stroke="none"/><text fill="#000000" stroke="none" font-family="Arial" font-size="16px" font-style="normal" font-weight="normal" text-decoration="undefined" x="1314" y="540" text-anchor="middle" dominant-baseline="central" transform="matrix(1 0 0 1 -242 -26)">ReportsCommentsAudioDTO</text></g></g><g><path fill="none" stroke="#000000" paint-order="fill stroke markers" d=" M 1376 370 L 1376 416 L 1376 416 A 8 8 0 0 1 1368 424 L 1252 424" stroke-miterlimit="10" stroke-dasharray=""/></g><g><path fill="#000000" stroke="none" paint-order="stroke fill markers" d=" M 1262.162674857624 419.790482243984 L 1252 424 L 1262.162674857624 428.209517756016"/></g><g><path fill="none" stroke="#000000" paint-order="fill stroke markers" d=" M 1262.162674857624 419.790482243984 L 1252 424 L 1262.162674857624 428.209517756016 L 1262.162674857624 419.790482243984" stroke-miterlimit="10" stroke-dasharray=""/></g><g><path fill="none" stroke="#000000" paint-order="fill stroke markers" d=" M 1397 370 L 1397 452 L 1397 452 A 8 8 0 0 1 1389 460 L 1252 460" stroke-miterlimit="10" stroke-dasharray=""/></g><g><path fill="#000000" stroke="none" paint-order="stroke fill markers" d=" M 1262.162674857624 455.790482243984 L 1252 460 L 1262.162674857624 464.209517756016"/></g><g><path fill="none" stroke="#000000" paint-order="fill stroke markers" d=" M 1262.162674857624 455.790482243984 L 1252 460 L 1262.162674857624 464.209517756016 L 1262.162674857624 455.790482243984" stroke-miterlimit="10" stroke-dasharray=""/></g><g><path fill="none" stroke="#000000" paint-order="fill stroke markers" d=" M 1408 370 L 1408 488 L 1408 488 A 8 8 0 0 1 1400 496 L 1216 496" stroke-miterlimit="10" stroke-dasharray=""/></g><g><path fill="#000000" stroke="none" paint-order="stroke fill markers" d=" M 1226.162674857624 491.790482243984 L 1216 496 L 1226.162674857624 500.209517756016"/></g><g><path fill="none" stroke="#000000" paint-order="fill stroke markers" d=" M 1226.162674857624 491.790482243984 L 1216 496 L 1226.162674857624 500.209517756016 L 1226.162674857624 491.790482243984" stroke-miterlimit="10" stroke-dasharray=""/></g><g><path fill="none" stroke="#000000" paint-order="fill stroke markers" d=" M 910 460 L 882 460 L 882 460 A 8 8 0 0 0 874 468 L 874 524 L 874 524 A 8 8 0 0 1 866 532 L 856 532" stroke-miterlimit="10" stroke-dasharray=""/></g><g><path fill="#000000" stroke="none" paint-order="stroke fill markers" d=" M 866.1626748576241 527.790482243984 L 856 532 L 866.1626748576241 536.209517756016"/></g><g><path fill="none" stroke="#000000" paint-order="fill stroke markers" d=" M 866.1626748576241 527.790482243984 L 856 532 L 866.1626748576241 536.209517756016 L 866.1626748576241 527.790482243984" stroke-miterlimit="10" stroke-dasharray=""/></g><g><path fill="none" stroke="#000000" paint-order="fill stroke markers" d=" M 910 460 L 900 460 L 900 460 A 8 8 0 0 0 892 468 L 892 524 L 892 524 A 8 8 0 0 1 884 532 L 856 532" stroke-miterlimit="10" stroke-dasharray=""/></g><g><path fill="#000000" stroke="none" paint-order="stroke fill markers" d=" M 866.1626748576241 527.790482243984 L 856 532 L 866.1626748576241 536.209517756016"/></g><g><path fill="none" stroke="#000000" paint-order="fill stroke markers" d=" M 866.1626748576241 527.790482243984 L 856 532 L 866.1626748576241 536.209517756016 L 866.1626748576241 527.790482243984" stroke-miterlimit="10" stroke-dasharray=""/></g><g><path fill="none" stroke="#000000" paint-order="fill stroke markers" d=" M 928 532 L 928 525 L 928 525 A 8 8 0 0 1 920 533 L 856 533" stroke-miterlimit="10" stroke-dasharray=""/></g><g><path fill="#000000" stroke="none" paint-order="stroke fill markers" d=" M 866.1626748576241 528.790482243984 L 856 533 L 866.1626748576241 537.209517756016"/></g><g><path fill="none" stroke="#000000" paint-order="fill stroke markers" d=" M 866.1626748576241 528.790482243984 L 856 533 L 866.1626748576241 537.209517756016 L 866.1626748576241 528.790482243984" stroke-miterlimit="10" stroke-dasharray=""/></g><g><path fill="none" stroke="#000000" paint-order="fill stroke markers" d=" M 517 568 L 517 578 L 517 578 A 8 8 0 0 1 509 586 L 442 586" stroke-miterlimit="10" stroke-dasharray=""/></g><g><path fill="#000000" stroke="none" paint-order="stroke fill markers" d=" M 452.1626748576241 581.790482243984 L 442 586 L 452.1626748576241 590.209517756016"/></g><g><path fill="none" stroke="#000000" paint-order="fill stroke markers" d=" M 452.1626748576241 581.790482243984 L 442 586 L 452.1626748576241 590.209517756016 L 452.1626748576241 581.790482243984" stroke-miterlimit="10" stroke-dasharray=""/></g><g><path fill="none" stroke="#000000" paint-order="fill stroke markers" d=" M 314 64 L 314 100" stroke-miterlimit="10" stroke-dasharray=""/></g><g><path fill="#000000" stroke="none" paint-order="stroke fill markers" d=" M 309.790482243984 89.83732514237585 L 314 100 L 318.209517756016 89.83732514237585"/></g><g><path fill="none" stroke="#000000" paint-order="fill stroke markers" d=" M 309.790482243984 89.83732514237585 L 314 100 L 318.209517756016 89.83732514237585 L 309.790482243984 89.83732514237585" stroke-miterlimit="10" stroke-dasharray=""/></g><g><path fill="none" stroke="#000000" paint-order="fill stroke markers" d=" M 748 78 L 748 92 L 748 92 A 8 8 0 0 1 740 100 L 496 100" stroke-miterlimit="10" stroke-dasharray=""/></g><g><path fill="#000000" stroke="none" paint-order="stroke fill markers" d=" M 506.1626748576241 95.79048224398402 L 496 100 L 506.1626748576241 104.209517756016"/></g><g><path fill="none" stroke="#000000" paint-order="fill stroke markers" d=" M 506.1626748576241 95.79048224398402 L 496 100 L 506.1626748576241 104.209517756016 L 506.1626748576241 95.79048224398402" stroke-miterlimit="10" stroke-dasharray=""/></g><g><path fill="none" stroke="#000000" paint-order="fill stroke markers" d=" M 280 136 L 280 172" stroke-miterlimit="10" stroke-dasharray=""/></g><g><path fill="#000000" stroke="none" paint-order="stroke fill markers" d=" M 275.790482243984 161.83732514237585 L 280 172 L 284.209517756016 161.83732514237585"/></g><g><path fill="none" stroke="#000000" paint-order="fill stroke markers" d=" M 275.790482243984 161.83732514237585 L 280 172 L 284.209517756016 161.83732514237585 L 275.790482243984 161.83732514237585" stroke-miterlimit="10" stroke-dasharray=""/></g><g><path fill="none" stroke="#000000" paint-order="fill stroke markers" d=" M 280 208 L 280 280" stroke-miterlimit="10" stroke-dasharray=""/></g><g><path fill="#000000" stroke="none" paint-order="stroke fill markers" d=" M 275.790482243984 269.83732514237585 L 280 280 L 284.209517756016 269.83732514237585"/></g><g><path fill="none" stroke="#000000" paint-order="fill stroke markers" d=" M 275.790482243984 269.83732514237585 L 280 280 L 284.209517756016 269.83732514237585 L 275.790482243984 269.83732514237585" stroke-miterlimit="10" stroke-dasharray=""/></g><g><path fill="none" stroke="#000000" paint-order="fill stroke markers" d=" M 277 316 L 277 586" stroke-miterlimit="10" stroke-dasharray=""/></g><g><path fill="#000000" stroke="none" paint-order="stroke fill markers" d=" M 272.790482243984 575.8373251423759 L 277 586 L 281.209517756016 575.8373251423759"/></g><g><path fill="none" stroke="#000000" paint-order="fill stroke markers" d=" M 272.790482243984 575.8373251423759 L 277 586 L 281.209517756016 575.8373251423759 L 272.790482243984 575.8373251423759" stroke-miterlimit="10" stroke-dasharray=""/></g></g></svg>