<svg version="1.1" xmlns="http://www.w3.org/2000/svg" xmlns:xlink="http://www.w3.org/1999/xlink" width="758" height="650"><defs/><g><g><rect fill="#ffffff" stroke="none" x="378" y="108" width="432" height="36" transform="matrix(1 0 0 1 -350 -80)"/></g><g><path fill="#ffffff" stroke="none" paint-order="stroke fill markers" d=" M 460 28 A 18 18 0 0 1 460 64"/></g><g><path fill="none" stroke="#000000" paint-order="fill stroke markers" d=" M 28 28 L 28 64" stroke-miterlimit="10" stroke-dasharray=""/></g><g><path fill="none" stroke="#000000" paint-order="fill stroke markers" d=" M 28 28 L 460 28" stroke-miterlimit="10" stroke-dasharray=""/></g><g><path fill="none" stroke="#000000" paint-order="fill stroke markers" d=" M 28 64 L 460 64" stroke-miterlimit="10" stroke-dasharray=""/></g><g><path fill="none" stroke="#000000" paint-order="fill stroke markers" d=" M 460 28 A 18 18 0 0 1 460 64" stroke-miterlimit="10" stroke-dasharray=""/></g><g><g><path fill="none" stroke="none"/><text fill="#000000" stroke="none" font-family="Arial" font-size="16px" font-style="normal" font-weight="normal" text-decoration="undefined" x="556.75" y="126" text-anchor="middle" dominant-baseline="central" transform="matrix(1 0 0 1 -350 -80)">GET /catalog/templates/{templateId}</text></g></g><g><path fill="#ffffff" stroke="none" paint-order="stroke fill markers" d=" M 121 118 L 406 118 L 349 154 L 64 154 L 121 118"/></g><g><path fill="none" stroke="#000000" paint-order="fill stroke markers" d=" M 121 118 L 406 118 L 349 154 L 64 154 L 121 118 L 121 118" stroke-miterlimit="10" stroke-dasharray=""/></g><g><g><path fill="none" stroke="none"/><text fill="#000000" stroke="none" font-family="Arial" font-size="16px" font-style="normal" font-weight="normal" text-decoration="undefined" x="585" y="216" text-anchor="middle" dominant-baseline="central" transform="matrix(1 0 0 1 -350 -80)">GetChallengeTemplateRequest</text></g></g><g><path fill="#ffffff" stroke="none" paint-order="stroke fill markers" d=" M 85 604 L 460 604 L 385 640 L 10 640 L 85 604"/></g><g><path fill="none" stroke="#000000" paint-order="fill stroke markers" d=" M 85 604 L 460 604 L 385 640 L 10 640 L 85 604 L 85 604" stroke-miterlimit="10" stroke-dasharray=""/></g><g><g><path fill="none" stroke="none"/><text fill="#000000" stroke="none" font-family="Arial" font-size="16px" font-style="normal" font-weight="normal" text-decoration="undefined" x="585" y="702" text-anchor="middle" dominant-baseline="central" transform="matrix(1 0 0 1 -350 -80)">GetChallengeTemplateResponse</text></g></g><g><path fill="#ffffff" stroke="none" paint-order="stroke fill markers" d=" M 538 532 L 748 532 L 706 568 L 496 568 L 538 532"/></g><g><path fill="none" stroke="#000000" paint-order="fill stroke markers" d=" M 538 532 L 748 532 L 706 568 L 496 568 L 538 532 L 538 532" stroke-miterlimit="10" stroke-dasharray=""/></g><g><g><path fill="none" stroke="none"/><text fill="#000000" stroke="none" font-family="Arial" font-size="16px" font-style="normal" font-weight="normal" text-decoration="undefined" x="972" y="630" text-anchor="middle" dominant-baseline="central" transform="matrix(1 0 0 1 -350 -80)">ReportFormatDTO</text></g></g><g><path fill="#ffffff" stroke="none" paint-order="stroke fill markers" d=" M 64 190 L 406 190 Q 424 190 424 208 L 424 208 Q 424 226 406 226 L 64 226 Q 46 226 46 208 L 46 208 Q 46 190 64 190 Z"/></g><g><path fill="none" stroke="#000000" paint-order="fill stroke markers" d=" M 64 190 L 406 190 Q 424 190 424 208 L 424 208 Q 424 226 406 226 L 64 226 Q 46 226 46 208 L 46 208 Q 46 190 64 190 Z" stroke-miterlimit="10" stroke-dasharray=""/></g><g><g><path fill="none" stroke="none"/><text fill="#000000" stroke="none" font-family="Arial" font-size="16px" font-style="normal" font-weight="normal" text-decoration="undefined" x="585" y="288" text-anchor="middle" dominant-baseline="central" transform="matrix(1 0 0 1 -350 -80)">Шаблон являеться общедоступным</text></g></g><g><path fill="#ffffff" stroke="none" paint-order="stroke fill markers" d=" M 316 280 L 676 280 Q 694 280 694 298 L 694 298 Q 694 316 676 316 L 316 316 Q 298 316 298 298 L 298 298 Q 298 280 316 280 Z"/></g><g><path fill="none" stroke="#000000" paint-order="fill stroke markers" d=" M 316 280 L 676 280 Q 694 280 694 298 L 694 298 Q 694 316 676 316 L 316 316 Q 298 316 298 298 L 298 298 Q 298 280 316 280 Z" stroke-miterlimit="10" stroke-dasharray=""/></g><g><g><path fill="none" stroke="none"/><text fill="#000000" stroke="none" font-family="Arial" font-size="16px" font-style="normal" font-weight="normal" text-decoration="undefined" x="846" y="378" text-anchor="middle" dominant-baseline="central" transform="matrix(1 0 0 1 -350 -80)">У пользователя есть доступ к шаблону</text></g></g><g><rect fill="#ffffff" stroke="none" x="450" y="468" width="270" height="36" transform="matrix(1 0 0 1 -350 -80)"/></g><g><path fill="none" stroke="#000000" paint-order="fill stroke markers" d=" M 100 388 L 370 388 L 370 424 L 100 424 L 100 388 Z Z" stroke-miterlimit="10" stroke-dasharray=""/></g><g><g><path fill="none" stroke="none"/><text fill="#000000" stroke="none" font-family="Arial" font-size="16px" font-style="normal" font-weight="normal" text-decoration="undefined" x="585" y="486" text-anchor="middle" dominant-baseline="central" transform="matrix(1 0 0 1 -350 -80)">Извлечь информацию о шаблоне</text></g></g><g><path fill="none" stroke="#000000" paint-order="fill stroke markers" d=" M 249 64 L 249 118" stroke-miterlimit="10" stroke-dasharray=""/></g><g><path fill="#000000" stroke="none" paint-order="stroke fill markers" d=" M 244.790482243984 107.83732514237585 L 249 118 L 253.209517756016 107.83732514237585"/></g><g><path fill="none" stroke="#000000" paint-order="fill stroke markers" d=" M 244.790482243984 107.83732514237585 L 249 118 L 253.209517756016 107.83732514237585 L 244.790482243984 107.83732514237585" stroke-miterlimit="10" stroke-dasharray=""/></g><g><path fill="none" stroke="#000000" paint-order="fill stroke markers" d=" M 235 154 L 235 190" stroke-miterlimit="10" stroke-dasharray=""/></g><g><path fill="#000000" stroke="none" paint-order="stroke fill markers" d=" M 230.790482243984 179.83732514237585 L 235 190 L 239.209517756016 179.83732514237585"/></g><g><path fill="none" stroke="#000000" paint-order="fill stroke markers" d=" M 230.790482243984 179.83732514237585 L 235 190 L 239.209517756016 179.83732514237585 L 230.790482243984 179.83732514237585" stroke-miterlimit="10" stroke-dasharray=""/></g><g><path fill="none" stroke="#000000" paint-order="fill stroke markers" d=" M 287 226 L 287 272 L 287 272 A 8 8 0 0 0 295 280 L 298 280" stroke-miterlimit="10" stroke-dasharray=""/></g><g><path fill="#000000" stroke="none" paint-order="stroke fill markers" d=" M 287.8373251423759 284.209517756016 L 298 280 L 287.8373251423758 275.790482243984"/></g><g><path fill="none" stroke="#000000" paint-order="fill stroke markers" d=" M 287.8373251423759 284.209517756016 L 298 280 L 287.8373251423758 275.790482243984 L 287.8373251423759 284.209517756016" stroke-miterlimit="10" stroke-dasharray=""/></g><g><rect fill="#ffffff" stroke="none" x="624" y="337" width="27.25" height="16" transform="matrix(1 0 0 1 -350 -80)"/></g><g><g><path fill="none" stroke="none"/><text fill="#000000" stroke="none" font-family="Arial" font-size="16px" font-style="normal" font-weight="normal" text-decoration="undefined" x="637.625" y="345" text-anchor="middle" dominant-baseline="central" transform="matrix(1 0 0 1 -350 -80)">Нет</text></g></g><g><path fill="none" stroke="#000000" paint-order="fill stroke markers" d=" M 453 316 L 453 380 L 453 380 A 8 8 0 0 1 445 388 L 370 388" stroke-miterlimit="10" stroke-dasharray=""/></g><g><path fill="#000000" stroke="none" paint-order="stroke fill markers" d=" M 380.1626748576241 383.790482243984 L 370 388 L 380.1626748576241 392.209517756016"/></g><g><path fill="none" stroke="#000000" paint-order="fill stroke markers" d=" M 380.1626748576241 383.790482243984 L 370 388 L 380.1626748576241 392.209517756016 L 380.1626748576241 383.790482243984" stroke-miterlimit="10" stroke-dasharray=""/></g><g><path fill="none" stroke="#000000" paint-order="fill stroke markers" d=" M 235 226 L 235 388" stroke-miterlimit="10" stroke-dasharray=""/></g><g><path fill="#000000" stroke="none" paint-order="stroke fill markers" d=" M 230.790482243984 377.83732514237585 L 235 388 L 239.209517756016 377.83732514237585"/></g><g><path fill="none" stroke="#000000" paint-order="fill stroke markers" d=" M 230.790482243984 377.83732514237585 L 235 388 L 239.209517756016 377.83732514237585 L 230.790482243984 377.83732514237585" stroke-miterlimit="10" stroke-dasharray=""/></g><g><path fill="none" stroke="#000000" paint-order="fill stroke markers" d=" M 235 424 L 235 604" stroke-miterlimit="10" stroke-dasharray=""/></g><g><path fill="#000000" stroke="none" paint-order="stroke fill markers" d=" M 230.790482243984 593.8373251423759 L 235 604 L 239.209517756016 593.8373251423759"/></g><g><path fill="none" stroke="#000000" paint-order="fill stroke markers" d=" M 230.790482243984 593.8373251423759 L 235 604 L 239.209517756016 593.8373251423759 L 230.790482243984 593.8373251423759" stroke-miterlimit="10" stroke-dasharray=""/></g><g><path fill="none" stroke="#000000" paint-order="fill stroke markers" d=" M 525 568 L 525 596 L 525 596 A 8 8 0 0 1 517 604 L 460 604" stroke-miterlimit="10" stroke-dasharray=""/></g><g><path fill="#000000" stroke="none" paint-order="stroke fill markers" d=" M 470.1626748576241 599.790482243984 L 460 604 L 470.1626748576241 608.209517756016"/></g><g><path fill="none" stroke="#000000" paint-order="fill stroke markers" d=" M 470.1626748576241 599.790482243984 L 460 604 L 470.1626748576241 608.209517756016 L 470.1626748576241 599.790482243984" stroke-miterlimit="10" stroke-dasharray=""/></g><g><path fill="#ffffff" stroke="#000000" paint-order="fill stroke markers" d=" M 568 44 L 591 10 L 688.484375 10 Q 711.484375 10 711.484375 44 Q 711.484375 78 688.484375 78 L 591 78 L 568 44 Z" stroke-miterlimit="10" stroke-dasharray=""/></g><g><g><path fill="none" stroke="none"/><text fill="#000000" stroke="none" font-family="Arial" font-size="16px" font-style="normal" font-weight="normal" text-decoration="undefined" x="989.7421875" y="108" text-anchor="middle" dominant-baseline="central" transform="matrix(1 0 0 1 -350 -80)">Заголовки</text><text fill="#000000" stroke="none" font-family="Arial" font-size="16px" font-style="normal" font-weight="normal" text-decoration="undefined" x="989.7421875" y="124" text-anchor="middle" dominant-baseline="central" transform="matrix(1 0 0 1 -350 -80)">запроса</text><text fill="#000000" stroke="none" font-family="Arial" font-size="16px" font-style="normal" font-weight="normal" text-decoration="undefined" x="989.7421875" y="140" text-anchor="middle" dominant-baseline="central" transform="matrix(1 0 0 1 -350 -80)">(Авторизирован)</text></g></g><g><path fill="none" stroke="#000000" paint-order="fill stroke markers" d=" M 568 78 L 568 110 L 568 110 A 8 8 0 0 1 560 118 L 406 118" stroke-miterlimit="10" stroke-dasharray=""/></g><g><path fill="#000000" stroke="none" paint-order="stroke fill markers" d=" M 416.1626748576241 113.790482243984 L 406 118 L 416.1626748576241 122.209517756016"/></g><g><path fill="none" stroke="#000000" paint-order="fill stroke markers" d=" M 416.1626748576241 113.790482243984 L 406 118 L 416.1626748576241 122.209517756016 L 416.1626748576241 113.790482243984" stroke-miterlimit="10" stroke-dasharray=""/></g></g></svg>