<svg version="1.1" xmlns="http://www.w3.org/2000/svg" xmlns:xlink="http://www.w3.org/1999/xlink" width="812" height="232"><defs/><g><g><path fill="#ffffff" stroke="none" paint-order="stroke fill markers" d=" M 62.89046875 73.85 C 62.89046875 68.96227952 66.848271118 65 71.73046875 65 C 76.612666382 65 80.57046875 68.96227952 80.57046875 73.85 C 80.57046875 78.73772048 76.612666382 82.7 71.73046875 82.7 C 66.848271118 82.7 62.89046875 78.73772048 62.89046875 73.85 Z"/></g><g><path fill="none" stroke="#000000" paint-order="fill stroke markers" d=" M 62.89046875 73.85 C 62.89046875 68.96227952 66.848271118 65 71.73046875 65 C 76.612666382 65 80.57046875 68.96227952 80.57046875 73.85 C 80.57046875 78.73772048 76.612666382 82.7 71.73046875 82.7 C 66.848271118 82.7 62.89046875 78.73772048 62.89046875 73.85 Z" stroke-miterlimit="10" stroke-dasharray=""/></g><g><path fill="none" stroke="#000000" paint-order="fill stroke markers" d=" M 71.73046875 82.7 L 71.73046875 100.3" stroke-miterlimit="10" stroke-dasharray=""/></g><g><path fill="none" stroke="#000000" paint-order="fill stroke markers" d=" M 62.37046875 89.3 L 81.09046875 89.3" stroke-miterlimit="10" stroke-dasharray=""/></g><g><path fill="none" stroke="#000000" paint-order="fill stroke markers" d=" M 71.73046875 100.3 L 58.73046875 118" stroke-miterlimit="10" stroke-dasharray=""/></g><g><path fill="none" stroke="#000000" paint-order="fill stroke markers" d=" M 71.73046875 100.3 L 84.73046875 118" stroke-miterlimit="10" stroke-dasharray=""/></g><g><g><path fill="none" stroke="none"/><text fill="#000000" stroke="none" font-family="Arial" font-size="16px" font-style="normal" font-weight="bold" text-decoration="undefined" x="98.23046875" y="142" text-anchor="middle" dominant-baseline="central" transform="matrix(1 0 0 1 -26 -8)">Пользователь</text></g></g><g><g><path fill="none" stroke="none"/><text fill="#000000" stroke="none" font-family="Arial" font-size="16px" font-style="normal" font-weight="normal" text-decoration="undefined" x="98.23046875" y="160" text-anchor="middle" dominant-baseline="central" transform="matrix(1 0 0 1 -26 -8)">(from Actors)</text></g></g><g><path fill="#C0C0C0" stroke="none" paint-order="stroke fill markers" d=" M 251 72 C 251 41.624336 296.4430928 17 352.5 17 C 408.5569072 17 454 41.624336 454 72 C 454 102.375664 408.5569072 127 352.5 127 C 296.4430928 127 251 102.375664 251 72 Z" fill-opacity="0.2"/></g><g><path fill="#A3FFD1" stroke="none" paint-order="stroke fill markers" d=" M 244 65 C 244 34.624336 289.4430928 10 345.5 10 C 401.5569072 10 447 34.624336 447 65 C 447 95.375664 401.5569072 120 345.5 120 C 289.4430928 120 244 95.375664 244 65 Z"/></g><g><path fill="none" stroke="#000000" paint-order="fill stroke markers" d=" M 244 65 C 244 34.624336 289.4430928 10 345.5 10 C 401.5569072 10 447 34.624336 447 65 C 447 95.375664 401.5569072 120 345.5 120 C 289.4430928 120 244 95.375664 244 65 Z" stroke-miterlimit="10" stroke-dasharray=""/></g><g><g><path fill="none" stroke="none"/><text fill="#000000" stroke="none" font-family="Arial" font-size="16px" font-style="normal" font-weight="bold" text-decoration="undefined" x="371.5" y="49" text-anchor="middle" dominant-baseline="central" transform="matrix(1 0 0 1 -26 -8)">Поиск по</text><text fill="#000000" stroke="none" font-family="Arial" font-size="16px" font-style="normal" font-weight="bold" text-decoration="undefined" x="371.5" y="65" text-anchor="middle" dominant-baseline="central" transform="matrix(1 0 0 1 -26 -8)">сущностям</text><text fill="#000000" stroke="none" font-family="Arial" font-size="16px" font-style="normal" font-weight="bold" text-decoration="undefined" x="371.5" y="81" text-anchor="middle" dominant-baseline="central" transform="matrix(1 0 0 1 -26 -8)">приложения</text></g></g><g><g><path fill="none" stroke="none"/><text fill="#000000" stroke="none" font-family="Arial" font-size="16px" font-style="normal" font-weight="normal" text-decoration="undefined" x="371.5" y="99" text-anchor="middle" dominant-baseline="central" transform="matrix(1 0 0 1 -26 -8)">(from PUC: Поиск)</text></g></g><g><path fill="none" stroke="#000000" paint-order="fill stroke markers" d=" M 134 103 L 243 83" stroke-miterlimit="10" stroke-dasharray=""/></g><g><path fill="#ffffff" stroke="none" paint-order="stroke fill markers" d=" M 550 46 L 791 46 L 801 56 L 801 221 L 550 221 L 550 46"/></g><g><path fill="none" stroke="#000000" paint-order="fill stroke markers" d=" M 550 46 L 791 46 L 801 56 L 801 221 L 550 221 L 550 46 L 550 46" stroke-miterlimit="10" stroke-dasharray=""/></g><g><path fill="none" stroke="#000000" paint-order="fill stroke markers" d=" M 791 46 L 791 56 L 801 56 L 791 46" stroke-miterlimit="10" stroke-dasharray=""/></g><g><g><path fill="none" stroke="none"/><text fill="#000000" stroke="none" font-family="Arial" font-size="16px" font-style="normal" font-weight="normal" text-decoration="undefined" x="581" y="59" text-anchor="start" dominant-baseline="text-before-edge" transform="matrix(1 0 0 1 -26 -8)">Вопрос: Та реализация что</text><text fill="#000000" stroke="none" font-family="Arial" font-size="16px" font-style="normal" font-weight="normal" text-decoration="undefined" x="581" y="75" text-anchor="start" dominant-baseline="text-before-edge" transform="matrix(1 0 0 1 -26 -8)">описана сейчас не учитывает</text><text fill="#000000" stroke="none" font-family="Arial" font-size="16px" font-style="normal" font-weight="normal" text-decoration="undefined" x="581" y="91" text-anchor="start" dominant-baseline="text-before-edge" transform="matrix(1 0 0 1 -26 -8)">ранжирования. Все сущности</text><text fill="#000000" stroke="none" font-family="Arial" font-size="16px" font-style="normal" font-weight="normal" text-decoration="undefined" x="581" y="107" text-anchor="start" dominant-baseline="text-before-edge" transform="matrix(1 0 0 1 -26 -8)">будут заполнятся по очереди.</text><text fill="#000000" stroke="none" font-family="Arial" font-size="16px" font-style="normal" font-weight="normal" text-decoration="undefined" x="581" y="123" text-anchor="start" dominant-baseline="text-before-edge" transform="matrix(1 0 0 1 -26 -8)">Как это правильней будет</text><text fill="#000000" stroke="none" font-family="Arial" font-size="16px" font-style="normal" font-weight="normal" text-decoration="undefined" x="581" y="139" text-anchor="start" dominant-baseline="text-before-edge" transform="matrix(1 0 0 1 -26 -8)">сделать?</text></g></g><g><g><path fill="none" stroke="none"/></g></g><g><g><path fill="none" stroke="none"/><text fill="#000000" stroke="none" font-family="Arial" font-size="16px" font-style="normal" font-weight="normal" text-decoration="undefined" x="581" y="159" text-anchor="start" dominant-baseline="text-before-edge" transform="matrix(1 0 0 1 -26 -8)">Возможный ответ: Выбрать</text><text fill="#000000" stroke="none" font-family="Arial" font-size="16px" font-style="normal" font-weight="normal" text-decoration="undefined" x="581" y="175" text-anchor="start" dominant-baseline="text-before-edge" transform="matrix(1 0 0 1 -26 -8)">приоритеты сущностей, а</text><text fill="#000000" stroke="none" font-family="Arial" font-size="16px" font-style="normal" font-weight="normal" text-decoration="undefined" x="581" y="191" text-anchor="start" dominant-baseline="text-before-edge" transform="matrix(1 0 0 1 -26 -8)">внутри самих сущностей делать</text><text fill="#000000" stroke="none" font-family="Arial" font-size="16px" font-style="normal" font-weight="normal" text-decoration="undefined" x="581" y="207" text-anchor="start" dominant-baseline="text-before-edge" transform="matrix(1 0 0 1 -26 -8)">выборки по Order by</text></g></g><g><path fill="none" stroke="#000000" paint-order="fill stroke markers" d=" M 448 86 L 549 108" stroke-miterlimit="10" stroke-dasharray="3"/></g></g></svg>