<svg version="1.1" xmlns="http://www.w3.org/2000/svg" xmlns:xlink="http://www.w3.org/1999/xlink" width="598.125" height="1334"><defs/><g><g><rect fill="#ffffff" stroke="none" x="414" y="72" width="262" height="52" transform="matrix(1 0 0 1 -332 -26)"/></g><g><path fill="#ffffff" stroke="none" paint-order="stroke fill markers" d=" M 344 46 A 26 26 0 0 1 344 98"/></g><g><path fill="none" stroke="#000000" paint-order="fill stroke markers" d=" M 82 46 L 82 98" stroke-miterlimit="10" stroke-dasharray=""/></g><g><path fill="none" stroke="#000000" paint-order="fill stroke markers" d=" M 82 46 L 344 46" stroke-miterlimit="10" stroke-dasharray=""/></g><g><path fill="none" stroke="#000000" paint-order="fill stroke markers" d=" M 82 98 L 344 98" stroke-miterlimit="10" stroke-dasharray=""/></g><g><path fill="none" stroke="#000000" paint-order="fill stroke markers" d=" M 344 46 A 26 26 0 0 1 344 98" stroke-miterlimit="10" stroke-dasharray=""/></g><g><g><path fill="none" stroke="none"/><text fill="#000000" stroke="none" font-family="Arial" font-size="16px" font-style="normal" font-weight="normal" text-decoration="undefined" x="532" y="90" text-anchor="middle" dominant-baseline="central" transform="matrix(1 0 0 1 -332 -26)">DELETE</text><text fill="#000000" stroke="none" font-family="Arial" font-size="16px" font-style="normal" font-weight="normal" text-decoration="undefined" x="532" y="106" text-anchor="middle" dominant-baseline="central" transform="matrix(1 0 0 1 -332 -26)">/templates/{templateId}</text></g></g><g><path fill="#ffffff" stroke="none" paint-order="stroke fill markers" d=" M 64 226 L 386.2578125 226 Q 404.2578125 226 404.2578125 244 L 404.2578125 244 Q 404.2578125 262 386.2578125 262 L 64 262 Q 46 262 46 244 L 46 244 Q 46 226 64 226 Z"/></g><g><path fill="none" stroke="#000000" paint-order="fill stroke markers" d=" M 64 226 L 386.2578125 226 Q 404.2578125 226 404.2578125 244 L 404.2578125 244 Q 404.2578125 262 386.2578125 262 L 64 262 Q 46 262 46 244 L 46 244 Q 46 226 64 226 Z" stroke-miterlimit="10" stroke-dasharray=""/></g><g><g><path fill="none" stroke="none"/><text fill="#000000" stroke="none" font-family="Arial" font-size="16px" font-style="normal" font-weight="normal" text-decoration="undefined" x="557.12890625" y="270" text-anchor="middle" dominant-baseline="central" transform="matrix(1 0 0 1 -332 -26)">пользователь является владельцем шаблона</text></g></g><g><rect fill="#ffffff" stroke="none" x="414" y="522" width="324" height="36" transform="matrix(1 0 0 1 -332 -26)"/></g><g><path fill="none" stroke="#000000" paint-order="fill stroke markers" d=" M 82 496 L 406 496 L 406 532 L 82 532 L 82 496 Z Z" stroke-miterlimit="10" stroke-dasharray=""/></g><g><g><path fill="none" stroke="none"/><text fill="#000000" stroke="none" font-family="Arial" font-size="16px" font-style="normal" font-weight="normal" text-decoration="undefined" x="576" y="540" text-anchor="middle" dominant-baseline="central" transform="matrix(1 0 0 1 -332 -26)">Поменять статус у челленджа</text></g></g><g><rect fill="#ffffff" stroke="none" x="450" y="612" width="252" height="52" transform="matrix(1 0 0 1 -332 -26)"/></g><g><path fill="none" stroke="#000000" paint-order="fill stroke markers" d=" M 118 586 L 370 586 L 370 638 L 118 638 L 118 586 Z Z" stroke-miterlimit="10" stroke-dasharray=""/></g><g><g><path fill="none" stroke="none"/><text fill="#000000" stroke="none" font-family="Arial" font-size="16px" font-style="normal" font-weight="normal" text-decoration="undefined" x="576" y="630" text-anchor="middle" dominant-baseline="central" transform="matrix(1 0 0 1 -332 -26)">Отправить уведомление о</text><text fill="#000000" stroke="none" font-family="Arial" font-size="16px" font-style="normal" font-weight="normal" text-decoration="undefined" x="576" y="646" text-anchor="middle" dominant-baseline="central" transform="matrix(1 0 0 1 -332 -26)">завершении челенджа</text></g></g><g><path fill="#ffffff" stroke="none" paint-order="stroke fill markers" d=" M 478 684 L 496 658 L 570.125 658 L 588.125 684 L 570.125 710 L 496 710 L 478 684"/></g><g><path fill="none" stroke="#000000" paint-order="fill stroke markers" d=" M 478 684 L 496 658 L 570.125 658 L 588.125 684 L 570.125 710 L 496 710 L 478 684 L 478 684" stroke-miterlimit="10" stroke-dasharray=""/></g><g><g><path fill="none" stroke="none"/><text fill="#000000" stroke="none" font-family="Arial" font-size="16px" font-style="normal" font-weight="normal" text-decoration="undefined" x="865.0625" y="702" text-anchor="middle" dominant-baseline="central" transform="matrix(1 0 0 1 -332 -26)">Челлендж</text><text fill="#000000" stroke="none" font-family="Arial" font-size="16px" font-style="normal" font-weight="normal" text-decoration="undefined" x="865.0625" y="718" text-anchor="middle" dominant-baseline="central" transform="matrix(1 0 0 1 -332 -26)">завершился</text></g></g><g><path fill="none" stroke="#000000" paint-order="fill stroke markers" d=" M 296 638 L 296 676 L 296 676 A 8 8 0 0 0 304 684 L 478 684" stroke-miterlimit="10" stroke-dasharray=""/></g><g><path fill="#000000" stroke="none" paint-order="stroke fill markers" d=" M 467.8373251423759 688.209517756016 L 478 684 L 467.8373251423758 679.790482243984"/></g><g><path fill="none" stroke="#000000" paint-order="fill stroke markers" d=" M 467.8373251423759 688.209517756016 L 478 684 L 467.8373251423758 679.790482243984 L 467.8373251423759 688.209517756016" stroke-miterlimit="10" stroke-dasharray=""/></g><g><path fill="none" stroke="#000000" paint-order="fill stroke markers" d=" M 244 532 L 244 586" stroke-miterlimit="10" stroke-dasharray=""/></g><g><path fill="#000000" stroke="none" paint-order="stroke fill markers" d=" M 239.790482243984 575.8373251423759 L 244 586 L 248.209517756016 575.8373251423759"/></g><g><path fill="none" stroke="#000000" paint-order="fill stroke markers" d=" M 239.790482243984 575.8373251423759 L 244 586 L 248.209517756016 575.8373251423759 L 239.790482243984 575.8373251423759" stroke-miterlimit="10" stroke-dasharray=""/></g><g><rect fill="#ffffff" stroke="none" x="360" y="360" width="360" height="54" transform="matrix(1 0 0 1 -332 -26)"/></g><g><path fill="none" stroke="#000000" paint-order="fill stroke markers" d=" M 28 334 L 388 334 L 388 388 L 28 388 L 28 334 Z Z" stroke-miterlimit="10" stroke-dasharray=""/></g><g><g><path fill="none" stroke="none"/><text fill="#000000" stroke="none" font-family="Arial" font-size="16px" font-style="normal" font-weight="normal" text-decoration="undefined" x="540" y="378" text-anchor="middle" dominant-baseline="central" transform="matrix(1 0 0 1 -332 -26)">Извлечь все активные челленджи по</text><text fill="#000000" stroke="none" font-family="Arial" font-size="16px" font-style="normal" font-weight="normal" text-decoration="undefined" x="540" y="394" text-anchor="middle" dominant-baseline="central" transform="matrix(1 0 0 1 -332 -26)">шаблону</text></g></g><g><rect fill="#ffffff" stroke="none" x="396" y="450" width="342" height="36" transform="matrix(1 0 0 1 -332 -26)"/></g><g><path fill="none" stroke="#000000" paint-order="fill stroke markers" d=" M 64 424 L 406 424 L 406 460 L 64 460 L 64 424 Z Z" stroke-miterlimit="10" stroke-dasharray=""/></g><g><g><path fill="none" stroke="none"/><text fill="#000000" stroke="none" font-family="Arial" font-size="16px" font-style="normal" font-weight="normal" text-decoration="undefined" x="567" y="468" text-anchor="middle" dominant-baseline="central" transform="matrix(1 0 0 1 -332 -26)">Пройтись по каждому челленджу</text></g></g><g><path fill="#ffffff" stroke="none" paint-order="stroke fill markers" d=" M 118 906 L 235 874 L 352 906 L 235 938 L 118 906"/></g><g><path fill="none" stroke="#000000" paint-order="fill stroke markers" d=" M 118 906 L 235 874 L 352 906 L 235 938 L 118 906 L 118 906" stroke-miterlimit="10" stroke-dasharray=""/></g><g><g><path fill="none" stroke="none"/><text fill="#000000" stroke="none" font-family="Arial" font-size="16px" font-style="normal" font-weight="normal" text-decoration="undefined" x="567" y="924" text-anchor="middle" dominant-baseline="central" transform="matrix(1 0 0 1 -332 -26)">Челенджи</text><text fill="#000000" stroke="none" font-family="Arial" font-size="16px" font-style="normal" font-weight="normal" text-decoration="undefined" x="567" y="940" text-anchor="middle" dominant-baseline="central" transform="matrix(1 0 0 1 -332 -26)">закончились</text></g></g><g><path fill="none" stroke="#000000" paint-order="fill stroke markers" d=" M 118 874 L 18 874 L 18 874 A 8 8 0 0 1 10 866 L 10 450 L 10 450 A 8 8 0 0 1 18 442 L 64 442" stroke-miterlimit="10" stroke-dasharray=""/></g><g><path fill="#000000" stroke="none" paint-order="stroke fill markers" d=" M 53.837325142375846 446.209517756016 L 64 442 L 53.837325142375846 437.790482243984"/></g><g><path fill="none" stroke="#000000" paint-order="fill stroke markers" d=" M 53.837325142375846 446.209517756016 L 64 442 L 53.837325142375846 437.790482243984 L 53.837325142375846 446.209517756016" stroke-miterlimit="10" stroke-dasharray=""/></g><g><rect fill="#ffffff" stroke="none" x="450" y="1224" width="252" height="54" transform="matrix(1 0 0 1 -332 -26)"/></g><g><path fill="none" stroke="#000000" paint-order="fill stroke markers" d=" M 118 1198 L 370 1198 L 370 1252 L 118 1252 L 118 1198 Z Z" stroke-miterlimit="10" stroke-dasharray=""/></g><g><g><path fill="none" stroke="none"/><text fill="#000000" stroke="none" font-family="Arial" font-size="16px" font-style="normal" font-weight="normal" text-decoration="undefined" x="576" y="1242" text-anchor="middle" dominant-baseline="central" transform="matrix(1 0 0 1 -332 -26)">Удалить шаблон</text></g></g><g><path fill="none" stroke="#000000" paint-order="fill stroke markers" d=" M 244 938 L 244 1000" stroke-miterlimit="10" stroke-dasharray=""/></g><g><path fill="#000000" stroke="none" paint-order="stroke fill markers" d=" M 239.790482243984 989.8373251423759 L 244 1000 L 248.209517756016 989.8373251423759"/></g><g><path fill="none" stroke="#000000" paint-order="fill stroke markers" d=" M 239.790482243984 989.8373251423759 L 244 1000 L 248.209517756016 989.8373251423759 L 239.790482243984 989.8373251423759" stroke-miterlimit="10" stroke-dasharray=""/></g><g><rect fill="#ffffff" stroke="none" x="581" y="972" width="19.734375" height="16" transform="matrix(1 0 0 1 -332 -26)"/></g><g><g><path fill="none" stroke="none"/><text fill="#000000" stroke="none" font-family="Arial" font-size="16px" font-style="normal" font-weight="normal" text-decoration="undefined" x="590.8671875" y="980" text-anchor="middle" dominant-baseline="central" transform="matrix(1 0 0 1 -332 -26)">Да</text></g></g><g><path fill="#ffffff" stroke="none" paint-order="stroke fill markers" d=" M 91 154 L 406 154 L 343 190 L 28 190 L 91 154"/></g><g><path fill="none" stroke="#000000" paint-order="fill stroke markers" d=" M 91 154 L 406 154 L 343 190 L 28 190 L 91 154 L 91 154" stroke-miterlimit="10" stroke-dasharray=""/></g><g><g><path fill="none" stroke="none"/><text fill="#000000" stroke="none" font-family="Arial" font-size="16px" font-style="normal" font-weight="normal" text-decoration="undefined" x="549" y="198" text-anchor="middle" dominant-baseline="central" transform="matrix(1 0 0 1 -332 -26)">DeleteTemplatesReqest</text></g></g><g><path fill="#ffffff" stroke="none" paint-order="stroke fill markers" d=" M 112 1288 L 442 1288 L 376 1324 L 46 1324 L 112 1288"/></g><g><path fill="none" stroke="#000000" paint-order="fill stroke markers" d=" M 112 1288 L 442 1288 L 376 1324 L 46 1324 L 112 1288 L 112 1288" stroke-miterlimit="10" stroke-dasharray=""/></g><g><g><path fill="none" stroke="none"/><text fill="#000000" stroke="none" font-family="Arial" font-size="16px" font-style="normal" font-weight="normal" text-decoration="undefined" x="576" y="1332" text-anchor="middle" dominant-baseline="central" transform="matrix(1 0 0 1 -332 -26)">NoBodyResponse</text></g></g><g><path fill="none" stroke="#000000" paint-order="fill stroke markers" d=" M 224 98 L 224 154" stroke-miterlimit="10" stroke-dasharray=""/></g><g><path fill="#000000" stroke="none" paint-order="stroke fill markers" d=" M 219.790482243984 143.83732514237585 L 224 154 L 228.209517756016 143.83732514237585"/></g><g><path fill="none" stroke="#000000" paint-order="fill stroke markers" d=" M 219.790482243984 143.83732514237585 L 224 154 L 228.209517756016 143.83732514237585 L 219.790482243984 143.83732514237585" stroke-miterlimit="10" stroke-dasharray=""/></g><g><path fill="none" stroke="#000000" paint-order="fill stroke markers" d=" M 208 262 L 208 334" stroke-miterlimit="10" stroke-dasharray=""/></g><g><path fill="#000000" stroke="none" paint-order="stroke fill markers" d=" M 203.790482243984 323.83732514237585 L 208 334 L 212.209517756016 323.83732514237585"/></g><g><path fill="none" stroke="#000000" paint-order="fill stroke markers" d=" M 203.790482243984 323.83732514237585 L 208 334 L 212.209517756016 323.83732514237585 L 203.790482243984 323.83732514237585" stroke-miterlimit="10" stroke-dasharray=""/></g><g><path fill="none" stroke="#000000" paint-order="fill stroke markers" d=" M 213 190 L 213 226" stroke-miterlimit="10" stroke-dasharray=""/></g><g><path fill="#000000" stroke="none" paint-order="stroke fill markers" d=" M 208.790482243984 215.83732514237585 L 213 226 L 217.209517756016 215.83732514237585"/></g><g><path fill="none" stroke="#000000" paint-order="fill stroke markers" d=" M 208.790482243984 215.83732514237585 L 213 226 L 217.209517756016 215.83732514237585 L 208.790482243984 215.83732514237585" stroke-miterlimit="10" stroke-dasharray=""/></g><g><path fill="#ffffff" stroke="#000000" paint-order="fill stroke markers" d=" M 442 44 L 465 10 L 562.484375 10 Q 585.484375 10 585.484375 44 Q 585.484375 78 562.484375 78 L 465 78 L 442 44 Z" stroke-miterlimit="10" stroke-dasharray=""/></g><g><g><path fill="none" stroke="none"/><text fill="#000000" stroke="none" font-family="Arial" font-size="16px" font-style="normal" font-weight="normal" text-decoration="undefined" x="845.7421875" y="54" text-anchor="middle" dominant-baseline="central" transform="matrix(1 0 0 1 -332 -26)">Заголовки</text><text fill="#000000" stroke="none" font-family="Arial" font-size="16px" font-style="normal" font-weight="normal" text-decoration="undefined" x="845.7421875" y="70" text-anchor="middle" dominant-baseline="central" transform="matrix(1 0 0 1 -332 -26)">запроса</text><text fill="#000000" stroke="none" font-family="Arial" font-size="16px" font-style="normal" font-weight="normal" text-decoration="undefined" x="845.7421875" y="86" text-anchor="middle" dominant-baseline="central" transform="matrix(1 0 0 1 -332 -26)">(Авторизирован)</text></g></g><g><path fill="none" stroke="#000000" paint-order="fill stroke markers" d=" M 442 78 L 442 146 L 442 146 A 8 8 0 0 1 434 154 L 406 154" stroke-miterlimit="10" stroke-dasharray=""/></g><g><path fill="#000000" stroke="none" paint-order="stroke fill markers" d=" M 416.1626748576241 149.790482243984 L 406 154 L 416.1626748576241 158.209517756016"/></g><g><path fill="none" stroke="#000000" paint-order="fill stroke markers" d=" M 416.1626748576241 149.790482243984 L 406 154 L 416.1626748576241 158.209517756016 L 416.1626748576241 149.790482243984" stroke-miterlimit="10" stroke-dasharray=""/></g><g><path fill="none" stroke="#000000" paint-order="fill stroke markers" d=" M 217 388 L 217 424" stroke-miterlimit="10" stroke-dasharray=""/></g><g><path fill="#000000" stroke="none" paint-order="stroke fill markers" d=" M 212.790482243984 413.83732514237585 L 217 424 L 221.209517756016 413.83732514237585"/></g><g><path fill="none" stroke="#000000" paint-order="fill stroke markers" d=" M 212.790482243984 413.83732514237585 L 217 424 L 221.209517756016 413.83732514237585 L 212.790482243984 413.83732514237585" stroke-miterlimit="10" stroke-dasharray=""/></g><g><rect fill="#ffffff" stroke="none" x="432" y="1116" width="288" height="36" transform="matrix(1 0 0 1 -332 -26)"/></g><g><path fill="none" stroke="#000000" paint-order="fill stroke markers" d=" M 100 1090 L 388 1090 L 388 1126 L 100 1126 L 100 1090 Z Z" stroke-miterlimit="10" stroke-dasharray=""/></g><g><g><path fill="none" stroke="none"/><text fill="#000000" stroke="none" font-family="Arial" font-size="16px" font-style="normal" font-weight="normal" text-decoration="undefined" x="576" y="1134" text-anchor="middle" dominant-baseline="central" transform="matrix(1 0 0 1 -332 -26)">Удалить все локализации шаблона</text></g></g><g><path fill="none" stroke="#000000" paint-order="fill stroke markers" d=" M 244 1126 L 244 1198" stroke-miterlimit="10" stroke-dasharray=""/></g><g><path fill="#000000" stroke="none" paint-order="stroke fill markers" d=" M 239.790482243984 1187.837325142376 L 244 1198 L 248.209517756016 1187.837325142376"/></g><g><path fill="none" stroke="#000000" paint-order="fill stroke markers" d=" M 239.790482243984 1187.837325142376 L 244 1198 L 248.209517756016 1187.837325142376 L 239.790482243984 1187.837325142376" stroke-miterlimit="10" stroke-dasharray=""/></g><g><path fill="none" stroke="#000000" paint-order="fill stroke markers" d=" M 244 1252 L 244 1288" stroke-miterlimit="10" stroke-dasharray=""/></g><g><path fill="#000000" stroke="none" paint-order="stroke fill markers" d=" M 239.790482243984 1277.837325142376 L 244 1288 L 248.209517756016 1277.837325142376"/></g><g><path fill="none" stroke="#000000" paint-order="fill stroke markers" d=" M 239.790482243984 1277.837325142376 L 244 1288 L 248.209517756016 1277.837325142376 L 239.790482243984 1277.837325142376" stroke-miterlimit="10" stroke-dasharray=""/></g><g><path fill="none" stroke="#000000" paint-order="fill stroke markers" d=" M 243 638 L 243 874" stroke-miterlimit="10" stroke-dasharray=""/></g><g><path fill="#000000" stroke="none" paint-order="stroke fill markers" d=" M 238.790482243984 863.8373251423759 L 243 874 L 247.209517756016 863.8373251423759"/></g><g><path fill="none" stroke="#000000" paint-order="fill stroke markers" d=" M 238.790482243984 863.8373251423759 L 243 874 L 247.209517756016 863.8373251423759 L 238.790482243984 863.8373251423759" stroke-miterlimit="10" stroke-dasharray=""/></g><g><rect fill="#ffffff" stroke="none" x="450" y="1026" width="270" height="52" transform="matrix(1 0 0 1 -332 -26)"/></g><g><path fill="none" stroke="#000000" paint-order="fill stroke markers" d=" M 118 1000 L 388 1000 L 388 1052 L 118 1052 L 118 1000 Z Z" stroke-miterlimit="10" stroke-dasharray=""/></g><g><g><path fill="none" stroke="none"/><text fill="#000000" stroke="none" font-family="Arial" font-size="16px" font-style="normal" font-weight="normal" text-decoration="undefined" x="585" y="1044" text-anchor="middle" dominant-baseline="central" transform="matrix(1 0 0 1 -332 -26)">Удалить линк у фотографии</text><text fill="#000000" stroke="none" font-family="Arial" font-size="16px" font-style="normal" font-weight="normal" text-decoration="undefined" x="585" y="1060" text-anchor="middle" dominant-baseline="central" transform="matrix(1 0 0 1 -332 -26)">шаблона</text></g></g><g><path fill="none" stroke="#000000" paint-order="fill stroke markers" d=" M 253 1052 L 253 1090" stroke-miterlimit="10" stroke-dasharray=""/></g><g><path fill="#000000" stroke="none" paint-order="stroke fill markers" d=" M 248.790482243984 1079.837325142376 L 253 1090 L 257.209517756016 1079.837325142376"/></g><g><path fill="none" stroke="#000000" paint-order="fill stroke markers" d=" M 248.790482243984 1079.837325142376 L 253 1090 L 257.209517756016 1079.837325142376 L 248.790482243984 1079.837325142376" stroke-miterlimit="10" stroke-dasharray=""/></g></g></svg>