<svg version="1.1" xmlns="http://www.w3.org/2000/svg" xmlns:xlink="http://www.w3.org/1999/xlink" width="595.484375" height="362"><defs/><g><g><rect fill="#ffffff" stroke="none" x="324" y="72" width="288" height="36" transform="matrix(1 0 0 1 -296 -44)"/></g><g><path fill="#ffffff" stroke="none" paint-order="stroke fill markers" d=" M 316 28 A 18 18 0 0 1 316 64"/></g><g><path fill="none" stroke="#000000" paint-order="fill stroke markers" d=" M 28 28 L 28 64" stroke-miterlimit="10" stroke-dasharray=""/></g><g><path fill="none" stroke="#000000" paint-order="fill stroke markers" d=" M 28 28 L 316 28" stroke-miterlimit="10" stroke-dasharray=""/></g><g><path fill="none" stroke="#000000" paint-order="fill stroke markers" d=" M 28 64 L 316 64" stroke-miterlimit="10" stroke-dasharray=""/></g><g><path fill="none" stroke="#000000" paint-order="fill stroke markers" d=" M 316 28 A 18 18 0 0 1 316 64" stroke-miterlimit="10" stroke-dasharray=""/></g><g><g><path fill="none" stroke="none"/><text fill="#000000" stroke="none" font-family="Arial" font-size="16px" font-style="normal" font-weight="normal" text-decoration="undefined" x="448.75" y="90" text-anchor="middle" dominant-baseline="central" transform="matrix(1 0 0 1 -296 -44)">POST /accounts/me/privacy</text></g></g><g><path fill="#ffffff" stroke="#000000" paint-order="fill stroke markers" d=" M 442 44 L 465 10 L 562.484375 10 Q 585.484375 10 585.484375 44 Q 585.484375 78 562.484375 78 L 465 78 L 442 44 Z" stroke-miterlimit="10" stroke-dasharray=""/></g><g><g><path fill="none" stroke="none"/><text fill="#000000" stroke="none" font-family="Arial" font-size="16px" font-style="normal" font-weight="normal" text-decoration="undefined" x="809.7421875" y="72" text-anchor="middle" dominant-baseline="central" transform="matrix(1 0 0 1 -296 -44)">Заголовки</text><text fill="#000000" stroke="none" font-family="Arial" font-size="16px" font-style="normal" font-weight="normal" text-decoration="undefined" x="809.7421875" y="88" text-anchor="middle" dominant-baseline="central" transform="matrix(1 0 0 1 -296 -44)">запроса</text><text fill="#000000" stroke="none" font-family="Arial" font-size="16px" font-style="normal" font-weight="normal" text-decoration="undefined" x="809.7421875" y="104" text-anchor="middle" dominant-baseline="central" transform="matrix(1 0 0 1 -296 -44)">(Авторизирован)</text></g></g><g><path fill="#ffffff" stroke="none" paint-order="stroke fill markers" d=" M 61 100 L 316 100 L 265 136 L 10 136 L 61 100"/></g><g><path fill="none" stroke="#000000" paint-order="fill stroke markers" d=" M 61 100 L 316 100 L 265 136 L 10 136 L 61 100 L 61 100" stroke-miterlimit="10" stroke-dasharray=""/></g><g><g><path fill="none" stroke="none"/><text fill="#000000" stroke="none" font-family="Arial" font-size="16px" font-style="normal" font-weight="normal" text-decoration="undefined" x="459" y="162" text-anchor="middle" dominant-baseline="central" transform="matrix(1 0 0 1 -296 -44)">PostAccountMePrivacyRequest</text></g></g><g><path fill="#ffffff" stroke="none" paint-order="stroke fill markers" d=" M 46 172 L 298 172 Q 316 172 316 190 L 316 190 Q 316 208 298 208 L 46 208 Q 28 208 28 190 L 28 190 Q 28 172 46 172 Z"/></g><g><path fill="none" stroke="#000000" paint-order="fill stroke markers" d=" M 46 172 L 298 172 Q 316 172 316 190 L 316 190 Q 316 208 298 208 L 46 208 Q 28 208 28 190 L 28 190 Q 28 172 46 172 Z" stroke-miterlimit="10" stroke-dasharray=""/></g><g><g><path fill="none" stroke="none"/><text fill="#000000" stroke="none" font-family="Arial" font-size="16px" font-style="normal" font-weight="normal" text-decoration="undefined" x="468" y="234" text-anchor="middle" dominant-baseline="central" transform="matrix(1 0 0 1 -296 -44)">Есть ли доступ к аккаунту</text></g></g><g><rect fill="#ffffff" stroke="none" x="324" y="288" width="288" height="36" transform="matrix(1 0 0 1 -296 -44)"/></g><g><path fill="none" stroke="#000000" paint-order="fill stroke markers" d=" M 28 244 L 316 244 L 316 280 L 28 280 L 28 244 Z Z" stroke-miterlimit="10" stroke-dasharray=""/></g><g><g><path fill="none" stroke="none"/><text fill="#000000" stroke="none" font-family="Arial" font-size="16px" font-style="normal" font-weight="normal" text-decoration="undefined" x="468" y="306" text-anchor="middle" dominant-baseline="central" transform="matrix(1 0 0 1 -296 -44)">Изменить приватность аккаунта</text></g></g><g><path fill="#ffffff" stroke="none" paint-order="stroke fill markers" d=" M 76 316 L 316 316 L 268 352 L 28 352 L 76 316"/></g><g><path fill="none" stroke="#000000" paint-order="fill stroke markers" d=" M 76 316 L 316 316 L 268 352 L 28 352 L 76 316 L 76 316" stroke-miterlimit="10" stroke-dasharray=""/></g><g><g><path fill="none" stroke="none"/><text fill="#000000" stroke="none" font-family="Arial" font-size="16px" font-style="normal" font-weight="normal" text-decoration="undefined" x="468" y="378" text-anchor="middle" dominant-baseline="central" transform="matrix(1 0 0 1 -296 -44)">NoBodyResponse</text></g></g><g><path fill="none" stroke="#000000" paint-order="fill stroke markers" d=" M 179 64 L 179 100" stroke-miterlimit="10" stroke-dasharray=""/></g><g><path fill="#000000" stroke="none" paint-order="stroke fill markers" d=" M 174.790482243984 89.83732514237585 L 179 100 L 183.209517756016 89.83732514237585"/></g><g><path fill="none" stroke="#000000" paint-order="fill stroke markers" d=" M 174.790482243984 89.83732514237585 L 179 100 L 183.209517756016 89.83732514237585 L 174.790482243984 89.83732514237585" stroke-miterlimit="10" stroke-dasharray=""/></g><g><path fill="none" stroke="#000000" paint-order="fill stroke markers" d=" M 442 78 L 442 92 L 442 92 A 8 8 0 0 1 434 100 L 316 100" stroke-miterlimit="10" stroke-dasharray=""/></g><g><path fill="#000000" stroke="none" paint-order="stroke fill markers" d=" M 326.1626748576241 95.790482243984 L 316 100 L 326.1626748576241 104.209517756016"/></g><g><path fill="none" stroke="#000000" paint-order="fill stroke markers" d=" M 326.1626748576241 95.790482243984 L 316 100 L 326.1626748576241 104.209517756016 L 326.1626748576241 95.790482243984" stroke-miterlimit="10" stroke-dasharray=""/></g><g><path fill="none" stroke="#000000" paint-order="fill stroke markers" d=" M 172 136 L 172 172" stroke-miterlimit="10" stroke-dasharray=""/></g><g><path fill="#000000" stroke="none" paint-order="stroke fill markers" d=" M 167.790482243984 161.83732514237585 L 172 172 L 176.209517756016 161.83732514237585"/></g><g><path fill="none" stroke="#000000" paint-order="fill stroke markers" d=" M 167.790482243984 161.83732514237585 L 172 172 L 176.209517756016 161.83732514237585 L 167.790482243984 161.83732514237585" stroke-miterlimit="10" stroke-dasharray=""/></g><g><path fill="none" stroke="#000000" paint-order="fill stroke markers" d=" M 172 208 L 172 244" stroke-miterlimit="10" stroke-dasharray=""/></g><g><path fill="#000000" stroke="none" paint-order="stroke fill markers" d=" M 167.790482243984 233.83732514237585 L 172 244 L 176.209517756016 233.83732514237585"/></g><g><path fill="none" stroke="#000000" paint-order="fill stroke markers" d=" M 167.790482243984 233.83732514237585 L 172 244 L 176.209517756016 233.83732514237585 L 167.790482243984 233.83732514237585" stroke-miterlimit="10" stroke-dasharray=""/></g><g><path fill="none" stroke="#000000" paint-order="fill stroke markers" d=" M 172 280 L 172 316" stroke-miterlimit="10" stroke-dasharray=""/></g><g><path fill="#000000" stroke="none" paint-order="stroke fill markers" d=" M 167.790482243984 305.83732514237585 L 172 316 L 176.209517756016 305.83732514237585"/></g><g><path fill="none" stroke="#000000" paint-order="fill stroke markers" d=" M 167.790482243984 305.83732514237585 L 172 316 L 176.209517756016 305.83732514237585 L 167.790482243984 305.83732514237585" stroke-miterlimit="10" stroke-dasharray=""/></g></g></svg>