<svg version="1.1" xmlns="http://www.w3.org/2000/svg" xmlns:xlink="http://www.w3.org/1999/xlink" width="616.208984375" height="756"><defs/><g><g><path fill="none" stroke="#000000" paint-order="fill stroke markers" d=" M 10 10 L 234 10 L 234 746 L 10 746 L 10 10 Z Z" stroke-miterlimit="10" stroke-dasharray=""/></g><g><path fill="none" stroke="#000000" paint-order="fill stroke markers" d=" M 10 33 L 234 33" stroke-miterlimit="10" stroke-dasharray=""/></g><g><g><path fill="none" stroke="none"/><text fill="#000000" stroke="none" font-family="Arial" font-size="13px" font-style="normal" font-weight="normal" text-decoration="undefined" x="400" y="53" text-anchor="middle" dominant-baseline="text-before-edge" transform="matrix(1 0 0 1 -278 -38)">Пользователь</text></g></g><g><path fill="none" stroke="#000000" paint-order="fill stroke markers" d=" M 234 10 L 490 10 L 490 746 L 234 746 L 234 10 Z Z" stroke-miterlimit="10" stroke-dasharray=""/></g><g><path fill="none" stroke="#000000" paint-order="fill stroke markers" d=" M 234 33 L 490 33" stroke-miterlimit="10" stroke-dasharray=""/></g><g><g><path fill="none" stroke="none"/><text fill="#000000" stroke="none" font-family="Arial" font-size="13px" font-style="normal" font-weight="normal" text-decoration="undefined" x="640" y="53" text-anchor="middle" dominant-baseline="text-before-edge" transform="matrix(1 0 0 1 -278 -38)">Api</text></g></g><g><path fill="#C0C0C0" stroke="none" paint-order="stroke fill markers" d=" M 75 65 L 163.96630859375 65 Q 173.96630859375 65 173.96630859375 75 L 173.96630859375 104 Q 173.96630859375 114 163.96630859375 114 L 75 114 Q 65 114 65 104 L 65 75 Q 65 65 75 65 Z" fill-opacity="0.2"/></g><g><path fill="#ffffff" stroke="none" paint-order="stroke fill markers" d=" M 68 58 L 156.96630859375 58 Q 166.96630859375 58 166.96630859375 68 L 166.96630859375 97 Q 166.96630859375 107 156.96630859375 107 L 68 107 Q 58 107 58 97 L 58 68 Q 58 58 68 58 Z"/></g><g><path fill="none" stroke="#000000" paint-order="fill stroke markers" d=" M 68 58 L 156.96630859375 58 Q 166.96630859375 58 166.96630859375 68 L 166.96630859375 97 Q 166.96630859375 107 156.96630859375 107 L 68 107 Q 58 107 58 97 L 58 68 Q 58 58 68 58 Z" stroke-miterlimit="10" stroke-dasharray=""/></g><g><path fill="none" stroke="#000000" paint-order="fill stroke markers" d=" M 68 67 C 68 65.3431456 69.34314560000001 64 71 64 C 72.65685439999999 64 74 65.3431456 74 67 C 74 68.6568544 72.65685439999999 70 71 70 C 69.34314560000001 70 68 68.6568544 68 67 Z" stroke-miterlimit="10" stroke-dasharray=""/></g><g><path fill="none" stroke="#000000" paint-order="fill stroke markers" d=" M 66 71 L 76 71 L 76 78 L 66 78 L 66 71 Z Z" stroke-miterlimit="10" stroke-dasharray=""/></g><g><g><path fill="none" stroke="none"/><text fill="#000000" stroke="none" font-family="Arial" font-size="13px" font-style="normal" font-weight="normal" text-decoration="undefined" x="390.483154296875" y="107.5" text-anchor="middle" dominant-baseline="central" transform="matrix(1 0 0 1 -278 -38)">Отправить</text><text fill="#000000" stroke="none" font-family="Arial" font-size="13px" font-style="normal" font-weight="normal" text-decoration="undefined" x="390.483154296875" y="120.5" text-anchor="middle" dominant-baseline="central" transform="matrix(1 0 0 1 -278 -38)">запрос на</text><text fill="#000000" stroke="none" font-family="Arial" font-size="13px" font-style="normal" font-weight="normal" text-decoration="undefined" x="390.483154296875" y="133.5" text-anchor="middle" dominant-baseline="central" transform="matrix(1 0 0 1 -278 -38)">удаление</text></g></g><g><path fill="#C0C0C0" stroke="none" paint-order="stroke fill markers" d=" M 347 121 L 408.51904296875 121 Q 418.51904296875 121 418.51904296875 131 L 418.51904296875 173 Q 418.51904296875 183 408.51904296875 183 L 347 183 Q 337 183 337 173 L 337 131 Q 337 121 347 121 Z" fill-opacity="0.2"/></g><g><path fill="#ffffff" stroke="none" paint-order="stroke fill markers" d=" M 340 114 L 401.51904296875 114 Q 411.51904296875 114 411.51904296875 124 L 411.51904296875 166 Q 411.51904296875 176 401.51904296875 176 L 340 176 Q 330 176 330 166 L 330 124 Q 330 114 340 114 Z"/></g><g><path fill="none" stroke="#000000" paint-order="fill stroke markers" d=" M 340 114 L 401.51904296875 114 Q 411.51904296875 114 411.51904296875 124 L 411.51904296875 166 Q 411.51904296875 176 401.51904296875 176 L 340 176 Q 330 176 330 166 L 330 124 Q 330 114 340 114 Z" stroke-miterlimit="10" stroke-dasharray=""/></g><g><g><path fill="none" stroke="none"/><text fill="#000000" stroke="none" font-family="Arial" font-size="13px" font-style="normal" font-weight="normal" text-decoration="undefined" x="648.759521484375" y="163.5" text-anchor="middle" dominant-baseline="central" transform="matrix(1 0 0 1 -278 -38)">Добавить в</text><text fill="#000000" stroke="none" font-family="Arial" font-size="13px" font-style="normal" font-weight="normal" text-decoration="undefined" x="648.759521484375" y="176.5" text-anchor="middle" dominant-baseline="central" transform="matrix(1 0 0 1 -278 -38)">список на</text><text fill="#000000" stroke="none" font-family="Arial" font-size="13px" font-style="normal" font-weight="normal" text-decoration="undefined" x="648.759521484375" y="189.5" text-anchor="middle" dominant-baseline="central" transform="matrix(1 0 0 1 -278 -38)">удаление</text><text fill="#000000" stroke="none" font-family="Arial" font-size="13px" font-style="normal" font-weight="normal" text-decoration="undefined" x="648.759521484375" y="202.5" text-anchor="middle" dominant-baseline="central" transform="matrix(1 0 0 1 -278 -38)">аккаунта</text></g></g><g><path fill="#C0C0C0" stroke="none" paint-order="stroke fill markers" d=" M 105 385 L 127.39999999999998 385 L 137 394.6 L 137 425 L 105 425" fill-opacity="0.2"/></g><g><path fill="#ffffff" stroke="none" paint-order="stroke fill markers" d=" M 98 378 L 120.39999999999998 378 L 130 387.6 L 130 418 L 98 418"/></g><g><path fill="none" stroke="#000000" paint-order="fill stroke markers" d=" M 98 378 L 120.39999999999998 378 L 130 387.6 L 130 418 L 98 418 L 98 378" stroke-miterlimit="10" stroke-dasharray=""/></g><g><path fill="none" stroke="#000000" paint-order="fill stroke markers" d=" M 120.39999999999998 378 L 120.39999999999998 387.6 L 130 387.6 L 120.39999999999998 378" stroke-miterlimit="10" stroke-dasharray=""/></g><g><rect fill="#ffffff" stroke="none" x="356.627685546875" y="463" width="70.74462890625" height="78" transform="matrix(1 0 0 1 -278 -38)"/></g><g><g><path fill="none" stroke="none"/><text fill="#000000" stroke="none" font-family="Arial" font-size="13px" font-style="normal" font-weight="normal" text-decoration="undefined" x="392" y="469.5" text-anchor="middle" dominant-baseline="central" transform="matrix(1 0 0 1 -278 -38)">Сообщение</text><text fill="#000000" stroke="none" font-family="Arial" font-size="13px" font-style="normal" font-weight="normal" text-decoration="undefined" x="392" y="482.5" text-anchor="middle" dominant-baseline="central" transform="matrix(1 0 0 1 -278 -38)">"Аккаунт</text><text fill="#000000" stroke="none" font-family="Arial" font-size="13px" font-style="normal" font-weight="normal" text-decoration="undefined" x="392" y="495.5" text-anchor="middle" dominant-baseline="central" transform="matrix(1 0 0 1 -278 -38)">будет</text><text fill="#000000" stroke="none" font-family="Arial" font-size="13px" font-style="normal" font-weight="normal" text-decoration="undefined" x="392" y="508.5" text-anchor="middle" dominant-baseline="central" transform="matrix(1 0 0 1 -278 -38)">удалён</text><text fill="#000000" stroke="none" font-family="Arial" font-size="13px" font-style="normal" font-weight="normal" text-decoration="undefined" x="392" y="521.5" text-anchor="middle" dominant-baseline="central" transform="matrix(1 0 0 1 -278 -38)">через 14</text><text fill="#000000" stroke="none" font-family="Arial" font-size="13px" font-style="normal" font-weight="normal" text-decoration="undefined" x="392" y="534.5" text-anchor="middle" dominant-baseline="central" transform="matrix(1 0 0 1 -278 -38)">дней"</text></g></g><g><path fill="none" stroke="#000000" paint-order="fill stroke markers" d=" M 490 10 L 606.208984375 10 L 606.208984375 746 L 490 746 L 490 10 Z Z" stroke-miterlimit="10" stroke-dasharray=""/></g><g><path fill="none" stroke="#000000" paint-order="fill stroke markers" d=" M 490 33 L 606.208984375 33" stroke-miterlimit="10" stroke-dasharray=""/></g><g><g><path fill="none" stroke="none"/><text fill="#000000" stroke="none" font-family="Arial" font-size="13px" font-style="normal" font-weight="normal" text-decoration="undefined" x="826.1044921875" y="53" text-anchor="middle" dominant-baseline="text-before-edge" transform="matrix(1 0 0 1 -278 -38)">Уведомления</text></g></g><g><path fill="#C0C0C0" stroke="none" paint-order="stroke fill markers" d=" M 339 225 L 409.44384765625 225 Q 419.44384765625 225 419.44384765625 235 L 419.44384765625 329 Q 419.44384765625 339 409.44384765625 339 L 339 339 Q 329 339 329 329 L 329 235 Q 329 225 339 225 Z" fill-opacity="0.2"/></g><g><path fill="#ffffff" stroke="none" paint-order="stroke fill markers" d=" M 332 218 L 402.44384765625 218 Q 412.44384765625 218 412.44384765625 228 L 412.44384765625 322 Q 412.44384765625 332 402.44384765625 332 L 332 332 Q 322 332 322 322 L 322 228 Q 322 218 332 218 Z"/></g><g><path fill="none" stroke="#000000" paint-order="fill stroke markers" d=" M 332 218 L 402.44384765625 218 Q 412.44384765625 218 412.44384765625 228 L 412.44384765625 322 Q 412.44384765625 332 402.44384765625 332 L 332 332 Q 322 332 322 322 L 322 228 Q 322 218 332 218 Z" stroke-miterlimit="10" stroke-dasharray=""/></g><g><g><path fill="none" stroke="none"/><text fill="#000000" stroke="none" font-family="Arial" font-size="13px" font-style="normal" font-weight="normal" text-decoration="undefined" x="645.221923828125" y="280.5" text-anchor="middle" dominant-baseline="central" transform="matrix(1 0 0 1 -278 -38)">Отправить</text><text fill="#000000" stroke="none" font-family="Arial" font-size="13px" font-style="normal" font-weight="normal" text-decoration="undefined" x="645.221923828125" y="293.5" text-anchor="middle" dominant-baseline="central" transform="matrix(1 0 0 1 -278 -38)">уведомление</text><text fill="#000000" stroke="none" font-family="Arial" font-size="13px" font-style="normal" font-weight="normal" text-decoration="undefined" x="645.221923828125" y="306.5" text-anchor="middle" dominant-baseline="central" transform="matrix(1 0 0 1 -278 -38)">всем сессиям</text><text fill="#000000" stroke="none" font-family="Arial" font-size="13px" font-style="normal" font-weight="normal" text-decoration="undefined" x="645.221923828125" y="319.5" text-anchor="middle" dominant-baseline="central" transform="matrix(1 0 0 1 -278 -38)">что аккаунт</text><text fill="#000000" stroke="none" font-family="Arial" font-size="13px" font-style="normal" font-weight="normal" text-decoration="undefined" x="645.221923828125" y="332.5" text-anchor="middle" dominant-baseline="central" transform="matrix(1 0 0 1 -278 -38)">будет удалён</text><text fill="#000000" stroke="none" font-family="Arial" font-size="13px" font-style="normal" font-weight="normal" text-decoration="undefined" x="645.221923828125" y="345.5" text-anchor="middle" dominant-baseline="central" transform="matrix(1 0 0 1 -278 -38)">через 14 дней</text></g></g><g><path fill="none" stroke="#000000" paint-order="fill stroke markers" d=" M 412 261 L 490 261" stroke-miterlimit="10" stroke-dasharray=""/></g><g><path fill="#000000" stroke="none" paint-order="stroke fill markers" d=" M 479.8373251423759 265.209517756016 L 490 261 L 479.8373251423758 256.790482243984"/></g><g><path fill="none" stroke="#000000" paint-order="fill stroke markers" d=" M 479.8373251423759 265.209517756016 L 490 261 L 479.8373251423758 256.790482243984 L 479.8373251423759 265.209517756016" stroke-miterlimit="10" stroke-dasharray=""/></g><g><path fill="#C0C0C0" stroke="none" paint-order="stroke fill markers" d=" M 345 513 C 345 504.16344319999996 352.16344319999996 497 361 497 C 369.83655680000004 497 377 504.16344319999996 377 513 C 377 521.8365568 369.83655680000004 529 361 529 C 352.16344319999996 529 345 521.8365568 345 513 Z" fill-opacity="0.2"/></g><g><path fill="#ffffff" stroke="none" paint-order="stroke fill markers" d=" M 338 506 C 338 497.16344319999996 345.16344319999996 490 354 490 C 362.83655680000004 490 370 497.16344319999996 370 506 C 370 514.8365568 362.83655680000004 522 354 522 C 345.16344319999996 522 338 514.8365568 338 506 Z"/></g><g><path fill="none" stroke="#000000" paint-order="fill stroke markers" d=" M 338 506 C 338 497.16344319999996 345.16344319999996 490 354 490 C 362.83655680000004 490 370 497.16344319999996 370 506 C 370 514.8365568 362.83655680000004 522 354 522 C 345.16344319999996 522 338 514.8365568 338 506 Z" stroke-miterlimit="10" stroke-dasharray=""/></g><g><rect fill="#ffffff" stroke="none" x="579.25732421875" y="573.5" width="105.4853515625" height="13" transform="matrix(1 0 0 1 -278 -38)"/></g><g><g><path fill="none" stroke="none"/><text fill="#000000" stroke="none" font-family="Arial" font-size="13px" font-style="normal" font-weight="normal" text-decoration="undefined" x="632" y="580" text-anchor="middle" dominant-baseline="central" transform="matrix(1 0 0 1 -278 -38)">Спустя 14 дней</text></g></g><g><path fill="#C0C0C0" stroke="none" paint-order="stroke fill markers" d=" M 331 593 L 392.51904296875 593 Q 402.51904296875 593 402.51904296875 603 L 402.51904296875 632 Q 402.51904296875 642 392.51904296875 642 L 331 642 Q 321 642 321 632 L 321 603 Q 321 593 331 593 Z" fill-opacity="0.2"/></g><g><path fill="#ffffff" stroke="none" paint-order="stroke fill markers" d=" M 324 586 L 385.51904296875 586 Q 395.51904296875 586 395.51904296875 596 L 395.51904296875 625 Q 395.51904296875 635 385.51904296875 635 L 324 635 Q 314 635 314 625 L 314 596 Q 314 586 324 586 Z"/></g><g><path fill="none" stroke="#000000" paint-order="fill stroke markers" d=" M 324 586 L 385.51904296875 586 Q 395.51904296875 586 395.51904296875 596 L 395.51904296875 625 Q 395.51904296875 635 385.51904296875 635 L 324 635 Q 314 635 314 625 L 314 596 Q 314 586 324 586 Z" stroke-miterlimit="10" stroke-dasharray=""/></g><g><g><path fill="none" stroke="none"/><text fill="#000000" stroke="none" font-family="Arial" font-size="13px" font-style="normal" font-weight="normal" text-decoration="undefined" x="632.759521484375" y="635.5" text-anchor="middle" dominant-baseline="central" transform="matrix(1 0 0 1 -278 -38)">Удалить</text><text fill="#000000" stroke="none" font-family="Arial" font-size="13px" font-style="normal" font-weight="normal" text-decoration="undefined" x="632.759521484375" y="648.5" text-anchor="middle" dominant-baseline="central" transform="matrix(1 0 0 1 -278 -38)">данные</text><text fill="#000000" stroke="none" font-family="Arial" font-size="13px" font-style="normal" font-weight="normal" text-decoration="undefined" x="632.759521484375" y="661.5" text-anchor="middle" dominant-baseline="central" transform="matrix(1 0 0 1 -278 -38)">аккаунта</text></g></g><g><path fill="#C0C0C0" stroke="none" paint-order="stroke fill markers" d=" M 323 665 L 394.47216796875 665 Q 404.47216796875 665 404.47216796875 675 L 404.47216796875 717 Q 404.47216796875 727 394.47216796875 727 L 323 727 Q 313 727 313 717 L 313 675 Q 313 665 323 665 Z" fill-opacity="0.2"/></g><g><path fill="#ffffff" stroke="none" paint-order="stroke fill markers" d=" M 316 658 L 387.47216796875 658 Q 397.47216796875 658 397.47216796875 668 L 397.47216796875 710 Q 397.47216796875 720 387.47216796875 720 L 316 720 Q 306 720 306 710 L 306 668 Q 306 658 316 658 Z"/></g><g><path fill="none" stroke="#000000" paint-order="fill stroke markers" d=" M 316 658 L 387.47216796875 658 Q 397.47216796875 658 397.47216796875 668 L 397.47216796875 710 Q 397.47216796875 720 387.47216796875 720 L 316 720 Q 306 720 306 710 L 306 668 Q 306 658 316 658 Z" stroke-miterlimit="10" stroke-dasharray=""/></g><g><g><path fill="none" stroke="none"/><text fill="#000000" stroke="none" font-family="Arial" font-size="13px" font-style="normal" font-weight="normal" text-decoration="undefined" x="629.736083984375" y="707.5" text-anchor="middle" dominant-baseline="central" transform="matrix(1 0 0 1 -278 -38)">Уведомление</text><text fill="#000000" stroke="none" font-family="Arial" font-size="13px" font-style="normal" font-weight="normal" text-decoration="undefined" x="629.736083984375" y="720.5" text-anchor="middle" dominant-baseline="central" transform="matrix(1 0 0 1 -278 -38)">на почту что</text><text fill="#000000" stroke="none" font-family="Arial" font-size="13px" font-style="normal" font-weight="normal" text-decoration="undefined" x="629.736083984375" y="733.5" text-anchor="middle" dominant-baseline="central" transform="matrix(1 0 0 1 -278 -38)">аккаунт</text><text fill="#000000" stroke="none" font-family="Arial" font-size="13px" font-style="normal" font-weight="normal" text-decoration="undefined" x="629.736083984375" y="746.5" text-anchor="middle" dominant-baseline="central" transform="matrix(1 0 0 1 -278 -38)">удалён </text></g></g><g><path fill="none" stroke="#000000" paint-order="fill stroke markers" d=" M 397 658 L 490 658" stroke-miterlimit="10" stroke-dasharray=""/></g><g><path fill="#000000" stroke="none" paint-order="stroke fill markers" d=" M 479.8373251423759 662.209517756016 L 490 658 L 479.8373251423758 653.790482243984"/></g><g><path fill="none" stroke="#000000" paint-order="fill stroke markers" d=" M 479.8373251423759 662.209517756016 L 490 658 L 479.8373251423758 653.790482243984 L 479.8373251423759 662.209517756016" stroke-miterlimit="10" stroke-dasharray=""/></g><g><path fill="none" stroke="#000000" paint-order="fill stroke markers" d=" M 112 107 L 112 127 L 112 127 A 8 8 0 0 0 120 135 L 330 135" stroke-miterlimit="10" stroke-dasharray=""/></g><g><path fill="#000000" stroke="none" paint-order="stroke fill markers" d=" M 319.8373251423759 139.209517756016 L 330 135 L 319.8373251423758 130.790482243984"/></g><g><path fill="none" stroke="#000000" paint-order="fill stroke markers" d=" M 319.8373251423759 139.209517756016 L 330 135 L 319.8373251423758 130.790482243984 L 319.8373251423759 139.209517756016" stroke-miterlimit="10" stroke-dasharray=""/></g><g><path fill="none" stroke="#000000" paint-order="fill stroke markers" d=" M 369 176 L 369 218" stroke-miterlimit="10" stroke-dasharray=""/></g><g><path fill="#000000" stroke="none" paint-order="stroke fill markers" d=" M 364.790482243984 207.83732514237585 L 369 218 L 373.209517756016 207.83732514237585"/></g><g><path fill="none" stroke="#000000" paint-order="fill stroke markers" d=" M 364.790482243984 207.83732514237585 L 369 218 L 373.209517756016 207.83732514237585 L 364.790482243984 207.83732514237585" stroke-miterlimit="10" stroke-dasharray=""/></g><g><path fill="none" stroke="#000000" paint-order="fill stroke markers" d=" M 322 332 L 322 382 L 322 382 A 8 8 0 0 1 314 390 L 130 390" stroke-miterlimit="10" stroke-dasharray=""/></g><g><path fill="#000000" stroke="none" paint-order="stroke fill markers" d=" M 140.16267485762415 385.790482243984 L 130 390 L 140.16267485762415 394.209517756016"/></g><g><path fill="none" stroke="#000000" paint-order="fill stroke markers" d=" M 140.16267485762415 385.790482243984 L 130 390 L 140.16267485762415 394.209517756016 L 140.16267485762415 385.790482243984" stroke-miterlimit="10" stroke-dasharray=""/></g><g><path fill="none" stroke="#000000" paint-order="fill stroke markers" d=" M 130 418 L 162 418 L 162 418 A 8 8 0 0 1 170 426 L 170 491 L 170 491 A 8 8 0 0 0 178 499 L 338 499" stroke-miterlimit="10" stroke-dasharray=""/></g><g><path fill="#000000" stroke="none" paint-order="stroke fill markers" d=" M 327.8373251423759 503.209517756016 L 338 499 L 327.8373251423758 494.790482243984"/></g><g><path fill="none" stroke="#000000" paint-order="fill stroke markers" d=" M 327.8373251423759 503.209517756016 L 338 499 L 327.8373251423758 494.790482243984 L 327.8373251423759 503.209517756016" stroke-miterlimit="10" stroke-dasharray=""/></g><g><path fill="none" stroke="#000000" paint-order="fill stroke markers" d=" M 354 522 L 354 586" stroke-miterlimit="10" stroke-dasharray=""/></g><g><path fill="#000000" stroke="none" paint-order="stroke fill markers" d=" M 349.790482243984 575.8373251423759 L 354 586 L 358.209517756016 575.8373251423759"/></g><g><path fill="none" stroke="#000000" paint-order="fill stroke markers" d=" M 349.790482243984 575.8373251423759 L 354 586 L 358.209517756016 575.8373251423759 L 349.790482243984 575.8373251423759" stroke-miterlimit="10" stroke-dasharray=""/></g><g><path fill="none" stroke="#000000" paint-order="fill stroke markers" d=" M 353 635 L 353 658" stroke-miterlimit="10" stroke-dasharray=""/></g><g><path fill="#000000" stroke="none" paint-order="stroke fill markers" d=" M 348.790482243984 647.8373251423759 L 353 658 L 357.209517756016 647.8373251423759"/></g><g><path fill="none" stroke="#000000" paint-order="fill stroke markers" d=" M 348.790482243984 647.8373251423759 L 353 658 L 357.209517756016 647.8373251423759 L 348.790482243984 647.8373251423759" stroke-miterlimit="10" stroke-dasharray=""/></g></g></svg>