<svg version="1.1" xmlns="http://www.w3.org/2000/svg" xmlns:xlink="http://www.w3.org/1999/xlink" width="721.484375" height="578"><defs/><g><g><rect fill="#ffffff" stroke="none" x="216" y="54" width="414" height="36" transform="matrix(1 0 0 1 -170 -44)"/></g><g><path fill="#ffffff" stroke="none" paint-order="stroke fill markers" d=" M 460 10 A 18 18 0 0 1 460 46"/></g><g><path fill="none" stroke="#000000" paint-order="fill stroke markers" d=" M 46 10 L 46 46" stroke-miterlimit="10" stroke-dasharray=""/></g><g><path fill="none" stroke="#000000" paint-order="fill stroke markers" d=" M 46 10 L 460 10" stroke-miterlimit="10" stroke-dasharray=""/></g><g><path fill="none" stroke="#000000" paint-order="fill stroke markers" d=" M 46 46 L 460 46" stroke-miterlimit="10" stroke-dasharray=""/></g><g><path fill="none" stroke="#000000" paint-order="fill stroke markers" d=" M 460 10 A 18 18 0 0 1 460 46" stroke-miterlimit="10" stroke-dasharray=""/></g><g><g><path fill="none" stroke="none"/><text fill="#000000" stroke="none" font-family="Arial" font-size="16px" font-style="normal" font-weight="normal" text-decoration="undefined" x="388" y="72" text-anchor="middle" dominant-baseline="central" transform="matrix(1 0 0 1 -170 -44)">POST /templates/{templateId}/assessments</text></g></g><g><path fill="#ffffff" stroke="none" paint-order="stroke fill markers" d=" M 121 118 L 406 118 L 349 154 L 64 154 L 121 118"/></g><g><path fill="none" stroke="#000000" paint-order="fill stroke markers" d=" M 121 118 L 406 118 L 349 154 L 64 154 L 121 118 L 121 118" stroke-miterlimit="10" stroke-dasharray=""/></g><g><g><path fill="none" stroke="none"/><text fill="#000000" stroke="none" font-family="Arial" font-size="16px" font-style="normal" font-weight="normal" text-decoration="undefined" x="405" y="180" text-anchor="middle" dominant-baseline="central" transform="matrix(1 0 0 1 -170 -44)">PostTemplateAssessmentsRequest</text></g></g><g><path fill="#ffffff" stroke="none" paint-order="stroke fill markers" d=" M 73 532 L 388 532 L 325 568 L 10 568 L 73 532"/></g><g><path fill="none" stroke="#000000" paint-order="fill stroke markers" d=" M 73 532 L 388 532 L 325 568 L 10 568 L 73 532 L 73 532" stroke-miterlimit="10" stroke-dasharray=""/></g><g><g><path fill="none" stroke="none"/><text fill="#000000" stroke="none" font-family="Arial" font-size="16px" font-style="normal" font-weight="normal" text-decoration="undefined" x="369" y="594" text-anchor="middle" dominant-baseline="central" transform="matrix(1 0 0 1 -170 -44)">NoBodyResponse</text></g></g><g><rect fill="#ffffff" stroke="none" x="180" y="468" width="432" height="36" transform="matrix(1 0 0 1 -170 -44)"/></g><g><path fill="none" stroke="#000000" paint-order="fill stroke markers" d=" M 10 424 L 442 424 L 442 460 L 10 460 L 10 424 Z Z" stroke-miterlimit="10" stroke-dasharray=""/></g><g><g><path fill="none" stroke="none"/><text fill="#000000" stroke="none" font-family="Arial" font-size="16px" font-style="normal" font-weight="normal" text-decoration="undefined" x="396" y="486" text-anchor="middle" dominant-baseline="central" transform="matrix(1 0 0 1 -170 -44)">Сохранить запись об отзыве пользователя</text></g></g><g><path fill="#ffffff" stroke="none" paint-order="stroke fill markers" d=" M 64 208 L 424 208 Q 442 208 442 226 L 442 226 Q 442 244 424 244 L 64 244 Q 46 244 46 226 L 46 226 Q 46 208 64 208 Z"/></g><g><path fill="none" stroke="#000000" paint-order="fill stroke markers" d=" M 64 208 L 424 208 Q 442 208 442 226 L 442 226 Q 442 244 424 244 L 64 244 Q 46 244 46 226 L 46 226 Q 46 208 64 208 Z" stroke-miterlimit="10" stroke-dasharray=""/></g><g><g><path fill="none" stroke="none"/><text fill="#000000" stroke="none" font-family="Arial" font-size="16px" font-style="normal" font-weight="normal" text-decoration="undefined" x="414" y="270" text-anchor="middle" dominant-baseline="central" transform="matrix(1 0 0 1 -170 -44)">Отзыв в диапазоне от 1 до 5</text></g></g><g><path fill="#ffffff" stroke="#000000" paint-order="fill stroke markers" d=" M 568 44 L 591 10 L 688.484375 10 Q 711.484375 10 711.484375 44 Q 711.484375 78 688.484375 78 L 591 78 L 568 44 Z" stroke-miterlimit="10" stroke-dasharray=""/></g><g><g><path fill="none" stroke="none"/><text fill="#000000" stroke="none" font-family="Arial" font-size="16px" font-style="normal" font-weight="normal" text-decoration="undefined" x="809.7421875" y="72" text-anchor="middle" dominant-baseline="central" transform="matrix(1 0 0 1 -170 -44)">Заголовки</text><text fill="#000000" stroke="none" font-family="Arial" font-size="16px" font-style="normal" font-weight="normal" text-decoration="undefined" x="809.7421875" y="88" text-anchor="middle" dominant-baseline="central" transform="matrix(1 0 0 1 -170 -44)">запроса</text><text fill="#000000" stroke="none" font-family="Arial" font-size="16px" font-style="normal" font-weight="normal" text-decoration="undefined" x="809.7421875" y="104" text-anchor="middle" dominant-baseline="central" transform="matrix(1 0 0 1 -170 -44)">(Авторизирован)</text></g></g><g><path fill="none" stroke="#000000" paint-order="fill stroke markers" d=" M 257 46 L 257 118" stroke-miterlimit="10" stroke-dasharray=""/></g><g><path fill="#000000" stroke="none" paint-order="stroke fill markers" d=" M 252.790482243984 107.83732514237585 L 257 118 L 261.209517756016 107.83732514237585"/></g><g><path fill="none" stroke="#000000" paint-order="fill stroke markers" d=" M 252.790482243984 107.83732514237585 L 257 118 L 261.209517756016 107.83732514237585 L 252.790482243984 107.83732514237585" stroke-miterlimit="10" stroke-dasharray=""/></g><g><path fill="none" stroke="#000000" paint-order="fill stroke markers" d=" M 568 78 L 568 146 L 568 146 A 8 8 0 0 1 560 154 L 406 154" stroke-miterlimit="10" stroke-dasharray=""/></g><g><path fill="#000000" stroke="none" paint-order="stroke fill markers" d=" M 416.1626748576241 149.790482243984 L 406 154 L 416.1626748576241 158.209517756016"/></g><g><path fill="none" stroke="#000000" paint-order="fill stroke markers" d=" M 416.1626748576241 149.790482243984 L 406 154 L 416.1626748576241 158.209517756016 L 416.1626748576241 149.790482243984" stroke-miterlimit="10" stroke-dasharray=""/></g><g><path fill="none" stroke="#000000" paint-order="fill stroke markers" d=" M 237 154 L 237 208" stroke-miterlimit="10" stroke-dasharray=""/></g><g><path fill="#000000" stroke="none" paint-order="stroke fill markers" d=" M 232.790482243984 197.83732514237585 L 237 208 L 241.209517756016 197.83732514237585"/></g><g><path fill="none" stroke="#000000" paint-order="fill stroke markers" d=" M 232.790482243984 197.83732514237585 L 237 208 L 241.209517756016 197.83732514237585 L 232.790482243984 197.83732514237585" stroke-miterlimit="10" stroke-dasharray=""/></g><g><path fill="none" stroke="#000000" paint-order="fill stroke markers" d=" M 260 460 L 260 532" stroke-miterlimit="10" stroke-dasharray=""/></g><g><path fill="#000000" stroke="none" paint-order="stroke fill markers" d=" M 255.790482243984 521.8373251423759 L 260 532 L 264.209517756016 521.8373251423759"/></g><g><path fill="none" stroke="#000000" paint-order="fill stroke markers" d=" M 255.790482243984 521.8373251423759 L 260 532 L 264.209517756016 521.8373251423759 L 255.790482243984 521.8373251423759" stroke-miterlimit="10" stroke-dasharray=""/></g><g><path fill="#ffffff" stroke="none" paint-order="stroke fill markers" d=" M 64 280 L 424 280 Q 442 280 442 298 L 442 298 Q 442 316 424 316 L 64 316 Q 46 316 46 298 L 46 298 Q 46 280 64 280 Z"/></g><g><path fill="none" stroke="#000000" paint-order="fill stroke markers" d=" M 64 280 L 424 280 Q 442 280 442 298 L 442 298 Q 442 316 424 316 L 64 316 Q 46 316 46 298 L 46 298 Q 46 280 64 280 Z" stroke-miterlimit="10" stroke-dasharray=""/></g><g><g><path fill="none" stroke="none"/><text fill="#000000" stroke="none" font-family="Arial" font-size="16px" font-style="normal" font-weight="normal" text-decoration="undefined" x="414" y="342" text-anchor="middle" dominant-baseline="central" transform="matrix(1 0 0 1 -170 -44)">Пользователь ещё не оставлял отзыв</text></g></g><g><path fill="none" stroke="#000000" paint-order="fill stroke markers" d=" M 244 244 L 244 280" stroke-miterlimit="10" stroke-dasharray=""/></g><g><path fill="#000000" stroke="none" paint-order="stroke fill markers" d=" M 239.790482243984 269.83732514237585 L 244 280 L 248.209517756016 269.83732514237585"/></g><g><path fill="none" stroke="#000000" paint-order="fill stroke markers" d=" M 239.790482243984 269.83732514237585 L 244 280 L 248.209517756016 269.83732514237585 L 239.790482243984 269.83732514237585" stroke-miterlimit="10" stroke-dasharray=""/></g><g><path fill="#ffffff" stroke="none" paint-order="stroke fill markers" d=" M 64 352 L 395.2109375 352 Q 413.2109375 352 413.2109375 370 L 413.2109375 370 Q 413.2109375 388 395.2109375 388 L 64 388 Q 46 388 46 370 L 46 370 Q 46 352 64 352 Z"/></g><g><path fill="none" stroke="#000000" paint-order="fill stroke markers" d=" M 64 352 L 395.2109375 352 Q 413.2109375 352 413.2109375 370 L 413.2109375 370 Q 413.2109375 388 395.2109375 388 L 64 388 Q 46 388 46 370 L 46 370 Q 46 352 64 352 Z" stroke-miterlimit="10" stroke-dasharray=""/></g><g><g><path fill="none" stroke="none"/><text fill="#000000" stroke="none" font-family="Arial" font-size="16px" font-style="normal" font-weight="normal" text-decoration="undefined" x="399.60546875" y="414" text-anchor="middle" dominant-baseline="central" transform="matrix(1 0 0 1 -170 -44)">Кол-во символов в тексте комментария &lt; 1000</text></g></g><g><path fill="none" stroke="#000000" paint-order="fill stroke markers" d=" M 240 316 L 240 352" stroke-miterlimit="10" stroke-dasharray=""/></g><g><path fill="#000000" stroke="none" paint-order="stroke fill markers" d=" M 235.790482243984 341.83732514237585 L 240 352 L 244.209517756016 341.83732514237585"/></g><g><path fill="none" stroke="#000000" paint-order="fill stroke markers" d=" M 235.790482243984 341.83732514237585 L 240 352 L 244.209517756016 341.83732514237585 L 235.790482243984 341.83732514237585" stroke-miterlimit="10" stroke-dasharray=""/></g><g><path fill="none" stroke="#000000" paint-order="fill stroke markers" d=" M 228 388 L 228 424" stroke-miterlimit="10" stroke-dasharray=""/></g><g><path fill="#000000" stroke="none" paint-order="stroke fill markers" d=" M 223.790482243984 413.83732514237585 L 228 424 L 232.209517756016 413.83732514237585"/></g><g><path fill="none" stroke="#000000" paint-order="fill stroke markers" d=" M 223.790482243984 413.83732514237585 L 228 424 L 232.209517756016 413.83732514237585 L 223.790482243984 413.83732514237585" stroke-miterlimit="10" stroke-dasharray=""/></g></g></svg>