<svg version="1.1" xmlns="http://www.w3.org/2000/svg" xmlns:xlink="http://www.w3.org/1999/xlink" width="830" height="398"><defs/><g><g><rect fill="#ffffff" stroke="none" x="306" y="54" width="378" height="36" transform="matrix(1 0 0 1 -242 -44)"/></g><g><path fill="#ffffff" stroke="none" paint-order="stroke fill markers" d=" M 442 10 A 18 18 0 0 1 442 46"/></g><g><path fill="none" stroke="#000000" paint-order="fill stroke markers" d=" M 64 10 L 64 46" stroke-miterlimit="10" stroke-dasharray=""/></g><g><path fill="none" stroke="#000000" paint-order="fill stroke markers" d=" M 64 10 L 442 10" stroke-miterlimit="10" stroke-dasharray=""/></g><g><path fill="none" stroke="#000000" paint-order="fill stroke markers" d=" M 64 46 L 442 46" stroke-miterlimit="10" stroke-dasharray=""/></g><g><path fill="none" stroke="#000000" paint-order="fill stroke markers" d=" M 442 10 A 18 18 0 0 1 442 46" stroke-miterlimit="10" stroke-dasharray=""/></g><g><g><path fill="none" stroke="none"/><text fill="#000000" stroke="none" font-family="Arial" font-size="16px" font-style="normal" font-weight="normal" text-decoration="undefined" x="464.5" y="72" text-anchor="middle" dominant-baseline="central" transform="matrix(1 0 0 1 -242 -44)">GET /cl/by-link/{inviteToken}</text></g></g><g><path fill="#ffffff" stroke="none" paint-order="stroke fill markers" d=" M 130 82 L 460 82 L 394 118 L 64 118 L 130 82"/></g><g><path fill="none" stroke="#000000" paint-order="fill stroke markers" d=" M 130 82 L 460 82 L 394 118 L 64 118 L 130 82 L 130 82" stroke-miterlimit="10" stroke-dasharray=""/></g><g><g><path fill="none" stroke="none"/><text fill="#000000" stroke="none" font-family="Arial" font-size="16px" font-style="normal" font-weight="normal" text-decoration="undefined" x="504" y="144" text-anchor="middle" dominant-baseline="central" transform="matrix(1 0 0 1 -242 -44)">GetChallengeByInviteTokenRequest</text></g></g><g><path fill="#ffffff" stroke="none" paint-order="stroke fill markers" d=" M 82 352 L 442 352 L 370 388 L 10 388 L 82 352"/></g><g><path fill="none" stroke="#000000" paint-order="fill stroke markers" d=" M 82 352 L 442 352 L 370 388 L 10 388 L 82 352 L 82 352" stroke-miterlimit="10" stroke-dasharray=""/></g><g><g><path fill="none" stroke="none"/><text fill="#000000" stroke="none" font-family="Arial" font-size="16px" font-style="normal" font-weight="normal" text-decoration="undefined" x="468" y="414" text-anchor="middle" dominant-baseline="central" transform="matrix(1 0 0 1 -242 -44)">GetChallengeByInviteTokenResponse</text></g></g><g><path fill="#ffffff" stroke="none" paint-order="stroke fill markers" d=" M 550 280 L 820 280 L 766 316 L 496 316 L 550 280"/></g><g><path fill="none" stroke="#000000" paint-order="fill stroke markers" d=" M 550 280 L 820 280 L 766 316 L 496 316 L 550 280 L 550 280" stroke-miterlimit="10" stroke-dasharray=""/></g><g><g><path fill="none" stroke="none"/><text fill="#000000" stroke="none" font-family="Arial" font-size="16px" font-style="normal" font-weight="normal" text-decoration="undefined" x="900" y="342" text-anchor="middle" dominant-baseline="central" transform="matrix(1 0 0 1 -242 -44)">ChallengeParticipantDTO</text></g></g><g><rect fill="#ffffff" stroke="none" x="324" y="216" width="360" height="36" transform="matrix(1 0 0 1 -242 -44)"/></g><g><path fill="none" stroke="#000000" paint-order="fill stroke markers" d=" M 82 172 L 442 172 L 442 208 L 82 208 L 82 172 Z Z" stroke-miterlimit="10" stroke-dasharray=""/></g><g><g><path fill="none" stroke="none"/><text fill="#000000" stroke="none" font-family="Arial" font-size="16px" font-style="normal" font-weight="normal" text-decoration="undefined" x="504" y="234" text-anchor="middle" dominant-baseline="central" transform="matrix(1 0 0 1 -242 -44)">Найти челлендж по токену</text></g></g><g><rect fill="#ffffff" stroke="none" x="324" y="306" width="360" height="36" transform="matrix(1 0 0 1 -242 -44)"/></g><g><path fill="none" stroke="#000000" paint-order="fill stroke markers" d=" M 82 262 L 442 262 L 442 298 L 82 298 L 82 262 Z Z" stroke-miterlimit="10" stroke-dasharray=""/></g><g><g><path fill="none" stroke="none"/><text fill="#000000" stroke="none" font-family="Arial" font-size="16px" font-style="normal" font-weight="normal" text-decoration="undefined" x="504" y="324" text-anchor="middle" dominant-baseline="central" transform="matrix(1 0 0 1 -242 -44)">Извлечь общую информацию о нём</text></g></g><g><path fill="none" stroke="#000000" paint-order="fill stroke markers" d=" M 262 46 L 262 82" stroke-miterlimit="10" stroke-dasharray=""/></g><g><path fill="#000000" stroke="none" paint-order="stroke fill markers" d=" M 257.790482243984 71.83732514237585 L 262 82 L 266.209517756016 71.83732514237585"/></g><g><path fill="none" stroke="#000000" paint-order="fill stroke markers" d=" M 257.790482243984 71.83732514237585 L 262 82 L 266.209517756016 71.83732514237585 L 257.790482243984 71.83732514237585" stroke-miterlimit="10" stroke-dasharray=""/></g><g><path fill="none" stroke="#000000" paint-order="fill stroke markers" d=" M 262 118 L 262 172" stroke-miterlimit="10" stroke-dasharray=""/></g><g><path fill="#000000" stroke="none" paint-order="stroke fill markers" d=" M 257.790482243984 161.83732514237585 L 262 172 L 266.209517756016 161.83732514237585"/></g><g><path fill="none" stroke="#000000" paint-order="fill stroke markers" d=" M 257.790482243984 161.83732514237585 L 262 172 L 266.209517756016 161.83732514237585 L 257.790482243984 161.83732514237585" stroke-miterlimit="10" stroke-dasharray=""/></g><g><path fill="none" stroke="#000000" paint-order="fill stroke markers" d=" M 262 208 L 262 262" stroke-miterlimit="10" stroke-dasharray=""/></g><g><path fill="#000000" stroke="none" paint-order="stroke fill markers" d=" M 257.790482243984 251.83732514237585 L 262 262 L 266.209517756016 251.83732514237585"/></g><g><path fill="none" stroke="#000000" paint-order="fill stroke markers" d=" M 257.790482243984 251.83732514237585 L 262 262 L 266.209517756016 251.83732514237585 L 257.790482243984 251.83732514237585" stroke-miterlimit="10" stroke-dasharray=""/></g><g><path fill="none" stroke="#000000" paint-order="fill stroke markers" d=" M 260 298 L 260 352" stroke-miterlimit="10" stroke-dasharray=""/></g><g><path fill="#000000" stroke="none" paint-order="stroke fill markers" d=" M 255.790482243984 341.83732514237585 L 260 352 L 264.209517756016 341.83732514237585"/></g><g><path fill="none" stroke="#000000" paint-order="fill stroke markers" d=" M 255.790482243984 341.83732514237585 L 260 352 L 264.209517756016 341.83732514237585 L 255.790482243984 341.83732514237585" stroke-miterlimit="10" stroke-dasharray=""/></g><g><path fill="none" stroke="#000000" paint-order="fill stroke markers" d=" M 550 316 L 550 344 L 550 344 A 8 8 0 0 1 542 352 L 442 352" stroke-miterlimit="10" stroke-dasharray=""/></g><g><path fill="#000000" stroke="none" paint-order="stroke fill markers" d=" M 452.1626748576241 347.790482243984 L 442 352 L 452.1626748576241 356.209517756016"/></g><g><path fill="none" stroke="#000000" paint-order="fill stroke markers" d=" M 452.1626748576241 347.790482243984 L 442 352 L 452.1626748576241 356.209517756016 L 452.1626748576241 347.790482243984" stroke-miterlimit="10" stroke-dasharray=""/></g></g></svg>