<svg version="1.1" xmlns="http://www.w3.org/2000/svg" xmlns:xlink="http://www.w3.org/1999/xlink" width="588" height="349"><defs/><g><g><path fill="#ffffff" stroke="none" paint-order="stroke fill markers" d=" M 80 90 L 314 90 L 268 123 L 34 123 L 80 90"/></g><g><path fill="none" stroke="#000000" paint-order="fill stroke markers" d=" M 80 90 L 314 90 L 268 123 L 34 123 L 80 90 L 80 90" stroke-miterlimit="10" stroke-dasharray=""/></g><g><g><path fill="none" stroke="none"/><text fill="#000000" stroke="none" font-family="Arial" font-size="13px" font-style="normal" font-weight="normal" text-decoration="undefined" x="412" y="168.5" text-anchor="middle" dominant-baseline="central" transform="matrix(1 0 0 1 -238 -62)">GetCurrentAmountCoinRequest</text></g></g><g><rect fill="#ffffff" stroke="none" x="256" y="280" width="280" height="46" transform="matrix(1 0 0 1 -238 -62)"/></g><g><path fill="none" stroke="#000000" paint-order="fill stroke markers" d=" M 18 218 L 298 218 L 298 264 L 18 264 L 18 218 Z Z" stroke-miterlimit="10" stroke-dasharray=""/></g><g><g><path fill="none" stroke="none"/><text fill="#000000" stroke="none" font-family="Arial" font-size="13px" font-style="normal" font-weight="normal" text-decoration="undefined" x="396" y="296.5" text-anchor="middle" dominant-baseline="central" transform="matrix(1 0 0 1 -238 -62)">Извлечь массив дней N и сколько было</text><text fill="#000000" stroke="none" font-family="Arial" font-size="13px" font-style="normal" font-weight="normal" text-decoration="undefined" x="396" y="309.5" text-anchor="middle" dominant-baseline="central" transform="matrix(1 0 0 1 -238 -62)">заработано в каждом дне.</text></g></g><g><path fill="#ffffff" stroke="none" paint-order="stroke fill markers" d=" M 34.5 162 L 286.6669921875 162 Q 303.1669921875 162 303.1669921875 178.5 L 303.1669921875 178.5 Q 303.1669921875 195 286.6669921875 195 L 34.5 195 Q 18 195 18 178.5 L 18 178.5 Q 18 162 34.5 162 Z"/></g><g><path fill="none" stroke="#000000" paint-order="fill stroke markers" d=" M 34.5 162 L 286.6669921875 162 Q 303.1669921875 162 303.1669921875 178.5 L 303.1669921875 178.5 Q 303.1669921875 195 286.6669921875 195 L 34.5 195 Q 18 195 18 178.5 L 18 178.5 Q 18 162 34.5 162 Z" stroke-miterlimit="10" stroke-dasharray=""/></g><g><g><path fill="none" stroke="none"/><text fill="#000000" stroke="none" font-family="Arial" font-size="13px" font-style="normal" font-weight="normal" text-decoration="undefined" x="398.58349609375" y="240.5" text-anchor="middle" dominant-baseline="central" transform="matrix(1 0 0 1 -238 -62)">Является ли пользователь создателем чата</text></g></g><g><path fill="#ffffff" stroke="none" paint-order="stroke fill markers" d=" M 59 306 L 306 306 L 257 339 L 10 339 L 59 306"/></g><g><path fill="none" stroke="#000000" paint-order="fill stroke markers" d=" M 59 306 L 306 306 L 257 339 L 10 339 L 59 306 L 59 306" stroke-miterlimit="10" stroke-dasharray=""/></g><g><g><path fill="none" stroke="none"/><text fill="#000000" stroke="none" font-family="Arial" font-size="13px" font-style="normal" font-weight="normal" text-decoration="undefined" x="396" y="384.5" text-anchor="middle" dominant-baseline="central" transform="matrix(1 0 0 1 -238 -62)">GetCurrentAmountCoinResponse</text></g></g><g><path fill="#ffffff" stroke="none" paint-order="stroke fill markers" d=" M 411 306 L 578 306 L 545 339 L 378 339 L 411 306"/></g><g><path fill="none" stroke="#000000" paint-order="fill stroke markers" d=" M 411 306 L 578 306 L 545 339 L 378 339 L 411 306 L 411 306" stroke-miterlimit="10" stroke-dasharray=""/></g><g><g><path fill="none" stroke="none"/><text fill="#000000" stroke="none" font-family="Arial" font-size="13px" font-style="normal" font-weight="normal" text-decoration="undefined" x="716" y="384.5" text-anchor="middle" dominant-baseline="central" transform="matrix(1 0 0 1 -238 -62)">CurrentAmountCoinDay</text></g></g><g><path fill="none" stroke="#000000" paint-order="fill stroke markers" d=" M 171 123 L 171 162" stroke-miterlimit="10" stroke-dasharray=""/></g><g><path fill="#000000" stroke="none" paint-order="stroke fill markers" d=" M 166.790482243984 151.83732514237585 L 171 162 L 175.209517756016 151.83732514237585"/></g><g><path fill="none" stroke="#000000" paint-order="fill stroke markers" d=" M 166.790482243984 151.83732514237585 L 171 162 L 175.209517756016 151.83732514237585 L 166.790482243984 151.83732514237585" stroke-miterlimit="10" stroke-dasharray=""/></g><g><path fill="none" stroke="#000000" paint-order="fill stroke markers" d=" M 159 195 L 159 218" stroke-miterlimit="10" stroke-dasharray=""/></g><g><path fill="#000000" stroke="none" paint-order="stroke fill markers" d=" M 154.790482243984 207.83732514237585 L 159 218 L 163.209517756016 207.83732514237585"/></g><g><path fill="none" stroke="#000000" paint-order="fill stroke markers" d=" M 154.790482243984 207.83732514237585 L 159 218 L 163.209517756016 207.83732514237585 L 154.790482243984 207.83732514237585" stroke-miterlimit="10" stroke-dasharray=""/></g><g><path fill="none" stroke="#000000" paint-order="fill stroke markers" d=" M 158 264 L 158 306" stroke-miterlimit="10" stroke-dasharray=""/></g><g><path fill="#000000" stroke="none" paint-order="stroke fill markers" d=" M 153.790482243984 295.83732514237585 L 158 306 L 162.209517756016 295.83732514237585"/></g><g><path fill="none" stroke="#000000" paint-order="fill stroke markers" d=" M 153.790482243984 295.83732514237585 L 158 306 L 162.209517756016 295.83732514237585 L 153.790482243984 295.83732514237585" stroke-miterlimit="10" stroke-dasharray=""/></g><g><path fill="none" stroke="#000000" paint-order="fill stroke markers" d=" M 378 322 L 306 322" stroke-miterlimit="10" stroke-dasharray=""/></g><g><path fill="#000000" stroke="none" paint-order="stroke fill markers" d=" M 316.1626748576241 317.790482243984 L 306 322 L 316.1626748576241 326.209517756016"/></g><g><path fill="none" stroke="#000000" paint-order="fill stroke markers" d=" M 316.1626748576241 317.790482243984 L 306 322 L 316.1626748576241 326.209517756016 L 316.1626748576241 317.790482243984" stroke-miterlimit="10" stroke-dasharray=""/></g><g><rect fill="#ffffff" stroke="none" x="264" y="72" width="335.5" height="33" transform="matrix(1 0 0 1 -238 -62)"/></g><g><path fill="#ffffff" stroke="none" paint-order="stroke fill markers" d=" M 361.5 10 A 16.5 16.5 0 0 1 361.5 43"/></g><g><path fill="none" stroke="#000000" paint-order="fill stroke markers" d=" M 26 10 L 26 43" stroke-miterlimit="10" stroke-dasharray=""/></g><g><path fill="none" stroke="#000000" paint-order="fill stroke markers" d=" M 26 10 L 361.5 10" stroke-miterlimit="10" stroke-dasharray=""/></g><g><path fill="none" stroke="#000000" paint-order="fill stroke markers" d=" M 26 43 L 361.5 43" stroke-miterlimit="10" stroke-dasharray=""/></g><g><path fill="none" stroke="#000000" paint-order="fill stroke markers" d=" M 361.5 10 A 16.5 16.5 0 0 1 361.5 43" stroke-miterlimit="10" stroke-dasharray=""/></g><g><g><path fill="none" stroke="none"/><text fill="#000000" stroke="none" font-family="Arial" font-size="13px" font-style="normal" font-weight="normal" text-decoration="undefined" x="406" y="88.5" text-anchor="middle" dominant-baseline="central" transform="matrix(1 0 0 1 -238 -62)">GET /influencers/coin/current-ammount</text></g></g><g><path fill="none" stroke="#000000" paint-order="fill stroke markers" d=" M 196 43 L 196 90" stroke-miterlimit="10" stroke-dasharray=""/></g><g><path fill="#000000" stroke="none" paint-order="stroke fill markers" d=" M 191.790482243984 79.83732514237585 L 196 90 L 200.209517756016 79.83732514237585"/></g><g><path fill="none" stroke="#000000" paint-order="fill stroke markers" d=" M 191.790482243984 79.83732514237585 L 196 90 L 200.209517756016 79.83732514237585 L 191.790482243984 79.83732514237585" stroke-miterlimit="10" stroke-dasharray=""/></g></g></svg>