<svg version="1.1" xmlns="http://www.w3.org/2000/svg" xmlns:xlink="http://www.w3.org/1999/xlink" width="254" height="290"><defs/><g><g><path fill="#ffffff" stroke="none" paint-order="stroke fill markers" d=" M 49 10 L 244 10 L 205 46 L 10 46 L 49 10"/></g><g><path fill="none" stroke="#000000" paint-order="fill stroke markers" d=" M 49 10 L 244 10 L 205 46 L 10 46 L 49 10 L 49 10" stroke-miterlimit="10" stroke-dasharray=""/></g><g><g><path fill="none" stroke="none"/><text fill="#000000" stroke="none" font-family="Arial" font-size="16px" font-style="normal" font-weight="normal" text-decoration="undefined" x="459" y="90" text-anchor="middle" dominant-baseline="central" transform="matrix(1 0 0 1 -332 -62)">SearchParams</text></g></g><g><path fill="#ffffff" stroke="#000000" paint-order="fill stroke markers" d=" M 28 86 C 28 83.79086079999999 68.29436800000002 82 118 82 C 167.70563199999998 82 208 83.79086079999999 208 86 L 208 114 C 208 116.20913920000001 167.70563199999998 118 118 118 C 68.29436800000002 118 28 116.20913920000001 28 114 L 28 86 Z" stroke-miterlimit="10" stroke-dasharray=""/></g><g><path fill="none" stroke="#000000" paint-order="fill stroke markers" d=" M 28 86 C 28 88.20913920000001 68.29436800000002 90 118 90 C 167.70563199999998 90 208 88.20913920000001 208 86" stroke-miterlimit="10" stroke-dasharray=""/></g><g><g><path fill="none" stroke="none"/><text fill="#000000" stroke="none" font-family="Arial" font-size="16px" font-style="normal" font-weight="normal" text-decoration="undefined" x="450" y="164" text-anchor="middle" dominant-baseline="central" transform="matrix(1 0 0 1 -332 -62)">Запрос</text></g></g><g><path fill="#ffffff" stroke="none" paint-order="stroke fill markers" d=" M 54 154 L 182 154 Q 208 154 208 180 L 208 180 Q 208 206 182 206 L 54 206 Q 28 206 28 180 L 28 180 Q 28 154 54 154 Z"/></g><g><path fill="none" stroke="#000000" paint-order="fill stroke markers" d=" M 54 154 L 182 154 Q 208 154 208 180 L 208 180 Q 208 206 182 206 L 54 206 Q 28 206 28 180 L 28 180 Q 28 154 54 154 Z" stroke-miterlimit="10" stroke-dasharray=""/></g><g><g><path fill="none" stroke="none"/><text fill="#000000" stroke="none" font-family="Arial" font-size="16px" font-style="normal" font-weight="normal" text-decoration="undefined" x="450" y="234" text-anchor="middle" dominant-baseline="central" transform="matrix(1 0 0 1 -332 -62)">Сообщество</text><text fill="#000000" stroke="none" font-family="Arial" font-size="16px" font-style="normal" font-weight="normal" text-decoration="undefined" x="450" y="250" text-anchor="middle" dominant-baseline="central" transform="matrix(1 0 0 1 -332 -62)">является публичным</text></g></g><g><path fill="#ffffff" stroke="none" paint-order="stroke fill markers" d=" M 49 244 L 244 244 L 205 280 L 10 280 L 49 244"/></g><g><path fill="none" stroke="#000000" paint-order="fill stroke markers" d=" M 49 244 L 244 244 L 205 280 L 10 280 L 49 244 L 49 244" stroke-miterlimit="10" stroke-dasharray=""/></g><g><g><path fill="none" stroke="none"/><text fill="#000000" stroke="none" font-family="Arial" font-size="16px" font-style="normal" font-weight="normal" text-decoration="undefined" x="459" y="324" text-anchor="middle" dominant-baseline="central" transform="matrix(1 0 0 1 -332 -62)">Result</text></g></g><g><path fill="none" stroke="#000000" paint-order="fill stroke markers" d=" M 125 46 L 125 82" stroke-miterlimit="10" stroke-dasharray=""/></g><g><path fill="#000000" stroke="none" paint-order="stroke fill markers" d=" M 120.790482243984 71.83732514237585 L 125 82 L 129.209517756016 71.83732514237585"/></g><g><path fill="none" stroke="#000000" paint-order="fill stroke markers" d=" M 120.790482243984 71.83732514237585 L 125 82 L 129.209517756016 71.83732514237585 L 120.790482243984 71.83732514237585" stroke-miterlimit="10" stroke-dasharray=""/></g><g><path fill="none" stroke="#000000" paint-order="fill stroke markers" d=" M 118 118 L 118 154" stroke-miterlimit="10" stroke-dasharray=""/></g><g><path fill="#000000" stroke="none" paint-order="stroke fill markers" d=" M 113.790482243984 143.83732514237585 L 118 154 L 122.209517756016 143.83732514237585"/></g><g><path fill="none" stroke="#000000" paint-order="fill stroke markers" d=" M 113.790482243984 143.83732514237585 L 118 154 L 122.209517756016 143.83732514237585 L 113.790482243984 143.83732514237585" stroke-miterlimit="10" stroke-dasharray=""/></g><g><path fill="none" stroke="#000000" paint-order="fill stroke markers" d=" M 121 206 L 121 244" stroke-miterlimit="10" stroke-dasharray=""/></g><g><path fill="#000000" stroke="none" paint-order="stroke fill markers" d=" M 116.790482243984 233.83732514237585 L 121 244 L 125.209517756016 233.83732514237585"/></g><g><path fill="none" stroke="#000000" paint-order="fill stroke markers" d=" M 116.790482243984 233.83732514237585 L 121 244 L 125.209517756016 233.83732514237585 L 116.790482243984 233.83732514237585" stroke-miterlimit="10" stroke-dasharray=""/></g></g></svg>