<svg version="1.1" xmlns="http://www.w3.org/2000/svg" xmlns:xlink="http://www.w3.org/1999/xlink" width="488" height="668"><defs/><g><g><rect fill="#ffffff" stroke="none" x="252" y="108" width="406" height="52" transform="matrix(1 0 0 1 -224 -98)"/></g><g><path fill="#ffffff" stroke="none" paint-order="stroke fill markers" d=" M 434 10 A 26 26 0 0 1 434 62"/></g><g><path fill="none" stroke="#000000" paint-order="fill stroke markers" d=" M 28 10 L 28 62" stroke-miterlimit="10" stroke-dasharray=""/></g><g><path fill="none" stroke="#000000" paint-order="fill stroke markers" d=" M 28 10 L 434 10" stroke-miterlimit="10" stroke-dasharray=""/></g><g><path fill="none" stroke="#000000" paint-order="fill stroke markers" d=" M 28 62 L 434 62" stroke-miterlimit="10" stroke-dasharray=""/></g><g><path fill="none" stroke="#000000" paint-order="fill stroke markers" d=" M 434 10 A 26 26 0 0 1 434 62" stroke-miterlimit="10" stroke-dasharray=""/></g><g><g><path fill="none" stroke="none"/><text fill="#000000" stroke="none" font-family="Arial" font-size="16px" font-style="normal" font-weight="normal" text-decoration="undefined" x="424" y="126" text-anchor="middle" dominant-baseline="central" transform="matrix(1 0 0 1 -224 -98)">GET</text><text fill="#000000" stroke="none" font-family="Arial" font-size="16px" font-style="normal" font-weight="normal" text-decoration="undefined" x="424" y="142" text-anchor="middle" dominant-baseline="central" transform="matrix(1 0 0 1 -224 -98)">/challenges/{challengeId}/members/{accountId}</text></g></g><g><path fill="#ffffff" stroke="none" paint-order="stroke fill markers" d=" M 97 100 L 442 100 L 373 136 L 28 136 L 97 100"/></g><g><path fill="none" stroke="#000000" paint-order="fill stroke markers" d=" M 97 100 L 442 100 L 373 136 L 28 136 L 97 100 L 97 100" stroke-miterlimit="10" stroke-dasharray=""/></g><g><g><path fill="none" stroke="none"/><text fill="#000000" stroke="none" font-family="Arial" font-size="16px" font-style="normal" font-weight="normal" text-decoration="undefined" x="459" y="216" text-anchor="middle" dominant-baseline="central" transform="matrix(1 0 0 1 -224 -98)">GetChallengeMemberRequest</text></g></g><g><path fill="#ffffff" stroke="none" paint-order="stroke fill markers" d=" M 97 622 L 442 622 L 373 658 L 28 658 L 97 622"/></g><g><path fill="none" stroke="#000000" paint-order="fill stroke markers" d=" M 97 622 L 442 622 L 373 658 L 28 658 L 97 622 L 97 622" stroke-miterlimit="10" stroke-dasharray=""/></g><g><g><path fill="none" stroke="none"/><text fill="#000000" stroke="none" font-family="Arial" font-size="16px" font-style="normal" font-weight="normal" text-decoration="undefined" x="459" y="738" text-anchor="middle" dominant-baseline="central" transform="matrix(1 0 0 1 -224 -98)">GetChallengeMemberInfoResponse</text></g></g><g><rect fill="#ffffff" stroke="none" x="270" y="468" width="378" height="52" transform="matrix(1 0 0 1 -224 -98)"/></g><g><path fill="none" stroke="#000000" paint-order="fill stroke markers" d=" M 46 370 L 424 370 L 424 422 L 46 422 L 46 370 Z Z" stroke-miterlimit="10" stroke-dasharray=""/></g><g><g><path fill="none" stroke="none"/><text fill="#000000" stroke="none" font-family="Arial" font-size="16px" font-style="normal" font-weight="normal" text-decoration="undefined" x="459" y="486" text-anchor="middle" dominant-baseline="central" transform="matrix(1 0 0 1 -224 -98)">Получение данных участника и прогресса по</text><text fill="#000000" stroke="none" font-family="Arial" font-size="16px" font-style="normal" font-weight="normal" text-decoration="undefined" x="459" y="502" text-anchor="middle" dominant-baseline="central" transform="matrix(1 0 0 1 -224 -98)">задачам</text></g></g><g><rect fill="#ffffff" stroke="none" x="270" y="540" width="378" height="36" transform="matrix(1 0 0 1 -224 -98)"/></g><g><path fill="none" stroke="#000000" paint-order="fill stroke markers" d=" M 46 442 L 424 442 L 424 478 L 46 478 L 46 442 Z Z" stroke-miterlimit="10" stroke-dasharray=""/></g><g><g><path fill="none" stroke="none"/><text fill="#000000" stroke="none" font-family="Arial" font-size="16px" font-style="normal" font-weight="normal" text-decoration="undefined" x="459" y="558" text-anchor="middle" dominant-baseline="central" transform="matrix(1 0 0 1 -224 -98)">Расчёт времени до конца выполнения</text></g></g><g><rect fill="#ffffff" stroke="none" x="288" y="594" width="342" height="36" transform="matrix(1 0 0 1 -224 -98)"/></g><g><path fill="none" stroke="#000000" paint-order="fill stroke markers" d=" M 64 496 L 406 496 L 406 532 L 64 532 L 64 496 Z Z" stroke-miterlimit="10" stroke-dasharray=""/></g><g><g><path fill="none" stroke="none"/><text fill="#000000" stroke="none" font-family="Arial" font-size="16px" font-style="normal" font-weight="normal" text-decoration="undefined" x="459" y="612" text-anchor="middle" dominant-baseline="central" transform="matrix(1 0 0 1 -224 -98)">Вычисление дней без перерыва</text></g></g><g><rect fill="#ffffff" stroke="none" x="252" y="648" width="414" height="36" transform="matrix(1 0 0 1 -224 -98)"/></g><g><path fill="none" stroke="#000000" paint-order="fill stroke markers" d=" M 28 550 L 442 550 L 442 586 L 28 586 L 28 550 Z Z" stroke-miterlimit="10" stroke-dasharray=""/></g><g><g><path fill="none" stroke="none"/><text fill="#000000" stroke="none" font-family="Arial" font-size="16px" font-style="normal" font-weight="normal" text-decoration="undefined" x="459" y="666" text-anchor="middle" dominant-baseline="central" transform="matrix(1 0 0 1 -224 -98)">Проверка наличия активного вызова и его суммы</text></g></g><g><path fill="#ffffff" stroke="none" paint-order="stroke fill markers" d=" M 28 172 L 460 172 Q 478 172 478 190 L 478 190 Q 478 208 460 208 L 28 208 Q 10 208 10 190 L 10 190 Q 10 172 28 172 Z"/></g><g><path fill="none" stroke="#000000" paint-order="fill stroke markers" d=" M 28 172 L 460 172 Q 478 172 478 190 L 478 190 Q 478 208 460 208 L 28 208 Q 10 208 10 190 L 10 190 Q 10 172 28 172 Z" stroke-miterlimit="10" stroke-dasharray=""/></g><g><g><path fill="none" stroke="none"/><text fill="#000000" stroke="none" font-family="Arial" font-size="16px" font-style="normal" font-weight="normal" text-decoration="undefined" x="468" y="288" text-anchor="middle" dominant-baseline="central" transform="matrix(1 0 0 1 -224 -98)">Аккаунт является участником челленджа</text></g></g><g><path fill="#ffffff" stroke="none" paint-order="stroke fill markers" d=" M 46 244 L 406 244 Q 424 244 424 262 L 424 262 Q 424 280 406 280 L 46 280 Q 28 280 28 262 L 28 262 Q 28 244 46 244 Z"/></g><g><path fill="none" stroke="#000000" paint-order="fill stroke markers" d=" M 46 244 L 406 244 Q 424 244 424 262 L 424 262 Q 424 280 406 280 L 46 280 Q 28 280 28 262 L 28 262 Q 28 244 46 244 Z" stroke-miterlimit="10" stroke-dasharray=""/></g><g><g><path fill="none" stroke="none"/><text fill="#000000" stroke="none" font-family="Arial" font-size="16px" font-style="normal" font-weight="normal" text-decoration="undefined" x="450" y="360" text-anchor="middle" dominant-baseline="central" transform="matrix(1 0 0 1 -224 -98)">Челлендж активен</text></g></g><g><path fill="none" stroke="#000000" paint-order="fill stroke markers" d=" M 241 62 L 241 100" stroke-miterlimit="10" stroke-dasharray=""/></g><g><path fill="#000000" stroke="none" paint-order="stroke fill markers" d=" M 236.790482243984 89.83732514237585 L 241 100 L 245.209517756016 89.83732514237585"/></g><g><path fill="none" stroke="#000000" paint-order="fill stroke markers" d=" M 236.790482243984 89.83732514237585 L 241 100 L 245.209517756016 89.83732514237585 L 236.790482243984 89.83732514237585" stroke-miterlimit="10" stroke-dasharray=""/></g><g><path fill="none" stroke="#000000" paint-order="fill stroke markers" d=" M 237 136 L 237 172" stroke-miterlimit="10" stroke-dasharray=""/></g><g><path fill="#000000" stroke="none" paint-order="stroke fill markers" d=" M 232.790482243984 161.83732514237585 L 237 172 L 241.209517756016 161.83732514237585"/></g><g><path fill="none" stroke="#000000" paint-order="fill stroke markers" d=" M 232.790482243984 161.83732514237585 L 237 172 L 241.209517756016 161.83732514237585 L 232.790482243984 161.83732514237585" stroke-miterlimit="10" stroke-dasharray=""/></g><g><path fill="none" stroke="#000000" paint-order="fill stroke markers" d=" M 240 208 L 240 244" stroke-miterlimit="10" stroke-dasharray=""/></g><g><path fill="#000000" stroke="none" paint-order="stroke fill markers" d=" M 235.790482243984 233.83732514237585 L 240 244 L 244.209517756016 233.83732514237585"/></g><g><path fill="none" stroke="#000000" paint-order="fill stroke markers" d=" M 235.790482243984 233.83732514237585 L 240 244 L 244.209517756016 233.83732514237585 L 235.790482243984 233.83732514237585" stroke-miterlimit="10" stroke-dasharray=""/></g><g><path fill="none" stroke="#000000" paint-order="fill stroke markers" d=" M 227 280 L 227 370" stroke-miterlimit="10" stroke-dasharray=""/></g><g><path fill="#000000" stroke="none" paint-order="stroke fill markers" d=" M 222.790482243984 359.83732514237585 L 227 370 L 231.209517756016 359.83732514237585"/></g><g><path fill="none" stroke="#000000" paint-order="fill stroke markers" d=" M 222.790482243984 359.83732514237585 L 227 370 L 231.209517756016 359.83732514237585 L 222.790482243984 359.83732514237585" stroke-miterlimit="10" stroke-dasharray=""/></g><g><path fill="none" stroke="#000000" paint-order="fill stroke markers" d=" M 235 422 L 235 442" stroke-miterlimit="10" stroke-dasharray=""/></g><g><path fill="#000000" stroke="none" paint-order="stroke fill markers" d=" M 230.790482243984 431.8373251423759 L 235 442 L 239.209517756016 431.8373251423759"/></g><g><path fill="none" stroke="#000000" paint-order="fill stroke markers" d=" M 230.790482243984 431.8373251423759 L 235 442 L 239.209517756016 431.8373251423759 L 230.790482243984 431.8373251423759" stroke-miterlimit="10" stroke-dasharray=""/></g><g><path fill="none" stroke="#000000" paint-order="fill stroke markers" d=" M 235 478 L 235 496" stroke-miterlimit="10" stroke-dasharray=""/></g><g><path fill="#000000" stroke="none" paint-order="stroke fill markers" d=" M 230.790482243984 485.8373251423759 L 235 496 L 239.209517756016 485.8373251423759"/></g><g><path fill="none" stroke="#000000" paint-order="fill stroke markers" d=" M 230.790482243984 485.8373251423759 L 235 496 L 239.209517756016 485.8373251423759 L 230.790482243984 485.8373251423759" stroke-miterlimit="10" stroke-dasharray=""/></g><g><path fill="none" stroke="#000000" paint-order="fill stroke markers" d=" M 235 532 L 235 550" stroke-miterlimit="10" stroke-dasharray=""/></g><g><path fill="#000000" stroke="none" paint-order="stroke fill markers" d=" M 230.790482243984 539.8373251423759 L 235 550 L 239.209517756016 539.8373251423759"/></g><g><path fill="none" stroke="#000000" paint-order="fill stroke markers" d=" M 230.790482243984 539.8373251423759 L 235 550 L 239.209517756016 539.8373251423759 L 230.790482243984 539.8373251423759" stroke-miterlimit="10" stroke-dasharray=""/></g><g><path fill="none" stroke="#000000" paint-order="fill stroke markers" d=" M 235 586 L 235 622" stroke-miterlimit="10" stroke-dasharray=""/></g><g><path fill="#000000" stroke="none" paint-order="stroke fill markers" d=" M 230.790482243984 611.8373251423759 L 235 622 L 239.209517756016 611.8373251423759"/></g><g><path fill="none" stroke="#000000" paint-order="fill stroke markers" d=" M 230.790482243984 611.8373251423759 L 235 622 L 239.209517756016 611.8373251423759 L 230.790482243984 611.8373251423759" stroke-miterlimit="10" stroke-dasharray=""/></g></g></svg>