<svg version="1.1" xmlns="http://www.w3.org/2000/svg" xmlns:xlink="http://www.w3.org/1999/xlink" width="348.3310546875" height="380"><defs/><g><g><rect fill="#ffffff" stroke="none" x="360" y="108" width="158.8525390625" height="33" transform="matrix(1 0 0 1 -350 -78)"/></g><g><path fill="#ffffff" stroke="none" paint-order="stroke fill markers" d=" M 168.8525390625 30 A 16.5 16.5 0 0 1 168.8525390625 63"/></g><g><path fill="none" stroke="#000000" paint-order="fill stroke markers" d=" M 10 30 L 10 63" stroke-miterlimit="10" stroke-dasharray=""/></g><g><path fill="none" stroke="#000000" paint-order="fill stroke markers" d=" M 10 30 L 168.8525390625 30" stroke-miterlimit="10" stroke-dasharray=""/></g><g><path fill="none" stroke="#000000" paint-order="fill stroke markers" d=" M 10 63 L 168.8525390625 63" stroke-miterlimit="10" stroke-dasharray=""/></g><g><path fill="none" stroke="#000000" paint-order="fill stroke markers" d=" M 168.8525390625 30 A 16.5 16.5 0 0 1 168.8525390625 63" stroke-miterlimit="10" stroke-dasharray=""/></g><g><g><path fill="none" stroke="none"/><text fill="#000000" stroke="none" font-family="Arial" font-size="13px" font-style="normal" font-weight="normal" text-decoration="undefined" x="435.7572021484375" y="124.5" text-anchor="middle" dominant-baseline="central" transform="matrix(1 0 0 1 -350 -78)">POST /accounts/me/delete</text></g></g><g><path fill="#ffffff" stroke="#000000" paint-order="fill stroke markers" d=" M 218 39.5 L 238 10 L 318.3310546875 10 Q 338.3310546875 10 338.3310546875 39.5 Q 338.3310546875 69 318.3310546875 69 L 238 69 L 218 39.5 Z" stroke-miterlimit="10" stroke-dasharray=""/></g><g><g><path fill="none" stroke="none"/><text fill="#000000" stroke="none" font-family="Arial" font-size="13px" font-style="normal" font-weight="normal" text-decoration="undefined" x="628.16552734375" y="104.5" text-anchor="middle" dominant-baseline="central" transform="matrix(1 0 0 1 -350 -78)">Заголовки</text><text fill="#000000" stroke="none" font-family="Arial" font-size="13px" font-style="normal" font-weight="normal" text-decoration="undefined" x="628.16552734375" y="117.5" text-anchor="middle" dominant-baseline="central" transform="matrix(1 0 0 1 -350 -78)">запроса</text><text fill="#000000" stroke="none" font-family="Arial" font-size="13px" font-style="normal" font-weight="normal" text-decoration="undefined" x="628.16552734375" y="130.5" text-anchor="middle" dominant-baseline="central" transform="matrix(1 0 0 1 -350 -78)">(Авторизирован)</text></g></g><g><rect fill="#ffffff" stroke="none" x="416" y="312" width="77.45263671875" height="72" transform="matrix(1 0 0 1 -350 -78)"/></g><g><path fill="none" stroke="#000000" paint-order="fill stroke markers" d=" M 66 234 L 143.45263671875 234 L 143.45263671875 306 L 66 306 L 66 234 Z Z" stroke-miterlimit="10" stroke-dasharray=""/></g><g><g><path fill="none" stroke="none"/><text fill="#000000" stroke="none" font-family="Arial" font-size="13px" font-style="normal" font-weight="normal" text-decoration="undefined" x="454.726318359375" y="328.5" text-anchor="middle" dominant-baseline="central" transform="matrix(1 0 0 1 -350 -78)">Добавить</text><text fill="#000000" stroke="none" font-family="Arial" font-size="13px" font-style="normal" font-weight="normal" text-decoration="undefined" x="454.726318359375" y="341.5" text-anchor="middle" dominant-baseline="central" transform="matrix(1 0 0 1 -350 -78)">в список</text><text fill="#000000" stroke="none" font-family="Arial" font-size="13px" font-style="normal" font-weight="normal" text-decoration="undefined" x="454.726318359375" y="354.5" text-anchor="middle" dominant-baseline="central" transform="matrix(1 0 0 1 -350 -78)">на</text><text fill="#000000" stroke="none" font-family="Arial" font-size="13px" font-style="normal" font-weight="normal" text-decoration="undefined" x="454.726318359375" y="367.5" text-anchor="middle" dominant-baseline="central" transform="matrix(1 0 0 1 -350 -78)">удаление</text></g></g><g><path fill="#ffffff" stroke="none" paint-order="stroke fill markers" d=" M 44 330 L 178 330 L 152 370 L 18 370 L 44 330"/></g><g><path fill="none" stroke="#000000" paint-order="fill stroke markers" d=" M 44 330 L 178 330 L 152 370 L 18 370 L 44 330 L 44 330" stroke-miterlimit="10" stroke-dasharray=""/></g><g><g><path fill="none" stroke="none"/><text fill="#000000" stroke="none" font-family="Arial" font-size="13px" font-style="normal" font-weight="normal" text-decoration="undefined" x="448" y="424.5" text-anchor="middle" dominant-baseline="central" transform="matrix(1 0 0 1 -350 -78)">NoBodyResponse</text></g></g><g><path fill="#ffffff" stroke="none" paint-order="stroke fill markers" d=" M 41 154 L 171 154 Q 194 154 194 177 L 194 177 Q 194 200 171 200 L 41 200 Q 18 200 18 177 L 18 177 Q 18 154 41 154 Z"/></g><g><path fill="none" stroke="#000000" paint-order="fill stroke markers" d=" M 41 154 L 171 154 Q 194 154 194 177 L 194 177 Q 194 200 171 200 L 41 200 Q 18 200 18 177 L 18 177 Q 18 154 41 154 Z" stroke-miterlimit="10" stroke-dasharray=""/></g><g><g><path fill="none" stroke="none"/><text fill="#000000" stroke="none" font-family="Arial" font-size="13px" font-style="normal" font-weight="normal" text-decoration="undefined" x="456" y="248.5" text-anchor="middle" dominant-baseline="central" transform="matrix(1 0 0 1 -350 -78)">Нету в списке на</text><text fill="#000000" stroke="none" font-family="Arial" font-size="13px" font-style="normal" font-weight="normal" text-decoration="undefined" x="456" y="261.5" text-anchor="middle" dominant-baseline="central" transform="matrix(1 0 0 1 -350 -78)">удаление</text></g></g><g><path fill="#ffffff" stroke="none" paint-order="stroke fill markers" d=" M 77 98 L 134.419921875 98 L 123.419921875 131 L 66 131 L 77 98"/></g><g><path fill="none" stroke="#000000" paint-order="fill stroke markers" d=" M 77 98 L 134.419921875 98 L 123.419921875 131 L 66 131 L 77 98 L 77 98" stroke-miterlimit="10" stroke-dasharray=""/></g><g><g><path fill="none" stroke="none"/><text fill="#000000" stroke="none" font-family="Arial" font-size="13px" font-style="normal" font-weight="normal" text-decoration="undefined" x="450.2099609375" y="192.5" text-anchor="middle" dominant-baseline="central" transform="matrix(1 0 0 1 -350 -78)">Request</text></g></g><g><path fill="none" stroke="#000000" paint-order="fill stroke markers" d=" M 218 69 L 218 93 L 218 93 A 8 8 0 0 1 210 101 L 134 101" stroke-miterlimit="10" stroke-dasharray=""/></g><g><path fill="#000000" stroke="none" paint-order="stroke fill markers" d=" M 144.16267485762415 96.790482243984 L 134 101 L 144.16267485762415 105.209517756016"/></g><g><path fill="none" stroke="#000000" paint-order="fill stroke markers" d=" M 144.16267485762415 96.790482243984 L 134 101 L 144.16267485762415 105.209517756016 L 144.16267485762415 96.790482243984" stroke-miterlimit="10" stroke-dasharray=""/></g><g><path fill="none" stroke="#000000" paint-order="fill stroke markers" d=" M 100 63 L 100 98" stroke-miterlimit="10" stroke-dasharray=""/></g><g><path fill="#000000" stroke="none" paint-order="stroke fill markers" d=" M 95.790482243984 87.83732514237585 L 100 98 L 104.209517756016 87.83732514237585"/></g><g><path fill="none" stroke="#000000" paint-order="fill stroke markers" d=" M 95.790482243984 87.83732514237585 L 100 98 L 104.209517756016 87.83732514237585 L 95.790482243984 87.83732514237585" stroke-miterlimit="10" stroke-dasharray=""/></g><g><path fill="none" stroke="#000000" paint-order="fill stroke markers" d=" M 106 200 L 106 234" stroke-miterlimit="10" stroke-dasharray=""/></g><g><path fill="#000000" stroke="none" paint-order="stroke fill markers" d=" M 101.790482243984 223.83732514237585 L 106 234 L 110.209517756016 223.83732514237585"/></g><g><path fill="none" stroke="#000000" paint-order="fill stroke markers" d=" M 101.790482243984 223.83732514237585 L 106 234 L 110.209517756016 223.83732514237585 L 101.790482243984 223.83732514237585" stroke-miterlimit="10" stroke-dasharray=""/></g><g><path fill="none" stroke="#000000" paint-order="fill stroke markers" d=" M 101 306 L 101 330" stroke-miterlimit="10" stroke-dasharray=""/></g><g><path fill="#000000" stroke="none" paint-order="stroke fill markers" d=" M 96.790482243984 319.83732514237585 L 101 330 L 105.209517756016 319.83732514237585"/></g><g><path fill="none" stroke="#000000" paint-order="fill stroke markers" d=" M 96.790482243984 319.83732514237585 L 101 330 L 105.209517756016 319.83732514237585 L 96.790482243984 319.83732514237585" stroke-miterlimit="10" stroke-dasharray=""/></g><g><path fill="none" stroke="#000000" paint-order="fill stroke markers" d=" M 99 131 L 99 154" stroke-miterlimit="10" stroke-dasharray=""/></g><g><path fill="#000000" stroke="none" paint-order="stroke fill markers" d=" M 94.790482243984 143.83732514237585 L 99 154 L 103.209517756016 143.83732514237585"/></g><g><path fill="none" stroke="#000000" paint-order="fill stroke markers" d=" M 94.790482243984 143.83732514237585 L 99 154 L 103.209517756016 143.83732514237585 L 94.790482243984 143.83732514237585" stroke-miterlimit="10" stroke-dasharray=""/></g></g></svg>