<svg version="1.1" xmlns="http://www.w3.org/2000/svg" xmlns:xlink="http://www.w3.org/1999/xlink" width="757.484375" height="380"><defs/><g><g><rect fill="#ffffff" stroke="none" x="234" y="90" width="496" height="52" transform="matrix(1 0 0 1 -224 -62)"/></g><g><path fill="#ffffff" stroke="none" paint-order="stroke fill markers" d=" M 506 28 A 26 26 0 0 1 506 80"/></g><g><path fill="none" stroke="#000000" paint-order="fill stroke markers" d=" M 10 28 L 10 80" stroke-miterlimit="10" stroke-dasharray=""/></g><g><path fill="none" stroke="#000000" paint-order="fill stroke markers" d=" M 10 28 L 506 28" stroke-miterlimit="10" stroke-dasharray=""/></g><g><path fill="none" stroke="#000000" paint-order="fill stroke markers" d=" M 10 80 L 506 80" stroke-miterlimit="10" stroke-dasharray=""/></g><g><path fill="none" stroke="#000000" paint-order="fill stroke markers" d=" M 506 28 A 26 26 0 0 1 506 80" stroke-miterlimit="10" stroke-dasharray=""/></g><g><g><path fill="none" stroke="none"/><text fill="#000000" stroke="none" font-family="Arial" font-size="16px" font-style="normal" font-weight="normal" text-decoration="undefined" x="439.75" y="108" text-anchor="middle" dominant-baseline="central" transform="matrix(1 0 0 1 -224 -62)">POST</text><text fill="#000000" stroke="none" font-family="Arial" font-size="16px" font-style="normal" font-weight="normal" text-decoration="undefined" x="439.75" y="124" text-anchor="middle" dominant-baseline="central" transform="matrix(1 0 0 1 -224 -62)">/challenges/{challengeId}/invitations/{invitationId}/decline</text></g></g><g><path fill="#ffffff" stroke="#000000" paint-order="fill stroke markers" d=" M 604 44 L 627 10 L 724.484375 10 Q 747.484375 10 747.484375 44 Q 747.484375 78 724.484375 78 L 627 78 L 604 44 Z" stroke-miterlimit="10" stroke-dasharray=""/></g><g><g><path fill="none" stroke="none"/><text fill="#000000" stroke="none" font-family="Arial" font-size="16px" font-style="normal" font-weight="normal" text-decoration="undefined" x="899.7421875" y="90" text-anchor="middle" dominant-baseline="central" transform="matrix(1 0 0 1 -224 -62)">Заголовки</text><text fill="#000000" stroke="none" font-family="Arial" font-size="16px" font-style="normal" font-weight="normal" text-decoration="undefined" x="899.7421875" y="106" text-anchor="middle" dominant-baseline="central" transform="matrix(1 0 0 1 -224 -62)">запроса</text><text fill="#000000" stroke="none" font-family="Arial" font-size="16px" font-style="normal" font-weight="normal" text-decoration="undefined" x="899.7421875" y="122" text-anchor="middle" dominant-baseline="central" transform="matrix(1 0 0 1 -224 -62)">(Авторизирован)</text></g></g><g><path fill="#ffffff" stroke="none" paint-order="stroke fill markers" d=" M 91 118 L 496 118 L 415 154 L 10 154 L 91 118"/></g><g><path fill="none" stroke="#000000" paint-order="fill stroke markers" d=" M 91 118 L 496 118 L 415 154 L 10 154 L 91 118 L 91 118" stroke-miterlimit="10" stroke-dasharray=""/></g><g><g><path fill="none" stroke="none"/><text fill="#000000" stroke="none" font-family="Arial" font-size="16px" font-style="normal" font-weight="normal" text-decoration="undefined" x="477" y="198" text-anchor="middle" dominant-baseline="central" transform="matrix(1 0 0 1 -224 -62)">ChallengeInvitationDeclineRequest</text></g></g><g><path fill="#ffffff" stroke="none" paint-order="stroke fill markers" d=" M 64 190 L 424 190 Q 442 190 442 208 L 442 208 Q 442 226 424 226 L 64 226 Q 46 226 46 208 L 46 208 Q 46 190 64 190 Z"/></g><g><path fill="none" stroke="#000000" paint-order="fill stroke markers" d=" M 64 190 L 424 190 Q 442 190 442 208 L 442 208 Q 442 226 424 226 L 64 226 Q 46 226 46 208 L 46 208 Q 46 190 64 190 Z" stroke-miterlimit="10" stroke-dasharray=""/></g><g><g><path fill="none" stroke="none"/><text fill="#000000" stroke="none" font-family="Arial" font-size="16px" font-style="normal" font-weight="normal" text-decoration="undefined" x="468" y="270" text-anchor="middle" dominant-baseline="central" transform="matrix(1 0 0 1 -224 -62)">У аккаунта есть доступ к этому приглашению</text></g></g><g><rect fill="#ffffff" stroke="none" x="270" y="324" width="414" height="36" transform="matrix(1 0 0 1 -224 -62)"/></g><g><path fill="none" stroke="#000000" paint-order="fill stroke markers" d=" M 46 262 L 460 262 L 460 298 L 46 298 L 46 262 Z Z" stroke-miterlimit="10" stroke-dasharray=""/></g><g><g><path fill="none" stroke="none"/><text fill="#000000" stroke="none" font-family="Arial" font-size="16px" font-style="normal" font-weight="normal" text-decoration="undefined" x="477" y="342" text-anchor="middle" dominant-baseline="central" transform="matrix(1 0 0 1 -224 -62)">Удалить приглашение у аккаунта</text></g></g><g><path fill="#ffffff" stroke="none" paint-order="stroke fill markers" d=" M 100 334 L 460 334 L 388 370 L 28 370 L 100 334"/></g><g><path fill="none" stroke="#000000" paint-order="fill stroke markers" d=" M 100 334 L 460 334 L 388 370 L 28 370 L 100 334 L 100 334" stroke-miterlimit="10" stroke-dasharray=""/></g><g><g><path fill="none" stroke="none"/><text fill="#000000" stroke="none" font-family="Arial" font-size="16px" font-style="normal" font-weight="normal" text-decoration="undefined" x="468" y="414" text-anchor="middle" dominant-baseline="central" transform="matrix(1 0 0 1 -224 -62)">NoBodyResponse</text></g></g><g><path fill="none" stroke="#000000" paint-order="fill stroke markers" d=" M 265 80 L 265 118" stroke-miterlimit="10" stroke-dasharray=""/></g><g><path fill="#000000" stroke="none" paint-order="stroke fill markers" d=" M 260.790482243984 107.83732514237585 L 265 118 L 269.209517756016 107.83732514237585"/></g><g><path fill="none" stroke="#000000" paint-order="fill stroke markers" d=" M 260.790482243984 107.83732514237585 L 265 118 L 269.209517756016 107.83732514237585 L 260.790482243984 107.83732514237585" stroke-miterlimit="10" stroke-dasharray=""/></g><g><path fill="none" stroke="#000000" paint-order="fill stroke markers" d=" M 251 154 L 251 190" stroke-miterlimit="10" stroke-dasharray=""/></g><g><path fill="#000000" stroke="none" paint-order="stroke fill markers" d=" M 246.790482243984 179.83732514237585 L 251 190 L 255.209517756016 179.83732514237585"/></g><g><path fill="none" stroke="#000000" paint-order="fill stroke markers" d=" M 246.790482243984 179.83732514237585 L 251 190 L 255.209517756016 179.83732514237585 L 246.790482243984 179.83732514237585" stroke-miterlimit="10" stroke-dasharray=""/></g><g><path fill="none" stroke="#000000" paint-order="fill stroke markers" d=" M 246 226 L 246 262" stroke-miterlimit="10" stroke-dasharray=""/></g><g><path fill="#000000" stroke="none" paint-order="stroke fill markers" d=" M 241.790482243984 251.83732514237585 L 246 262 L 250.209517756016 251.83732514237585"/></g><g><path fill="none" stroke="#000000" paint-order="fill stroke markers" d=" M 241.790482243984 251.83732514237585 L 246 262 L 250.209517756016 251.83732514237585 L 241.790482243984 251.83732514237585" stroke-miterlimit="10" stroke-dasharray=""/></g><g><path fill="none" stroke="#000000" paint-order="fill stroke markers" d=" M 251 298 L 251 334" stroke-miterlimit="10" stroke-dasharray=""/></g><g><path fill="#000000" stroke="none" paint-order="stroke fill markers" d=" M 246.790482243984 323.83732514237585 L 251 334 L 255.209517756016 323.83732514237585"/></g><g><path fill="none" stroke="#000000" paint-order="fill stroke markers" d=" M 246.790482243984 323.83732514237585 L 251 334 L 255.209517756016 323.83732514237585 L 246.790482243984 323.83732514237585" stroke-miterlimit="10" stroke-dasharray=""/></g><g><path fill="none" stroke="#000000" paint-order="fill stroke markers" d=" M 604 78 L 604 110 L 604 110 A 8 8 0 0 1 596 118 L 496 118" stroke-miterlimit="10" stroke-dasharray=""/></g><g><path fill="#000000" stroke="none" paint-order="stroke fill markers" d=" M 506.1626748576241 113.790482243984 L 496 118 L 506.1626748576241 122.209517756016"/></g><g><path fill="none" stroke="#000000" paint-order="fill stroke markers" d=" M 506.1626748576241 113.790482243984 L 496 118 L 506.1626748576241 122.209517756016 L 506.1626748576241 113.790482243984" stroke-miterlimit="10" stroke-dasharray=""/></g></g></svg>