<svg version="1.1" xmlns="http://www.w3.org/2000/svg" xmlns:xlink="http://www.w3.org/1999/xlink" width="326" height="470"><defs/><g><g><rect fill="#ffffff" stroke="none" x="360" y="108" width="198" height="36" transform="matrix(1 0 0 1 -296 -98)"/></g><g><path fill="#ffffff" stroke="none" paint-order="stroke fill markers" d=" M 262 10 A 18 18 0 0 1 262 46"/></g><g><path fill="none" stroke="#000000" paint-order="fill stroke markers" d=" M 64 10 L 64 46" stroke-miterlimit="10" stroke-dasharray=""/></g><g><path fill="none" stroke="#000000" paint-order="fill stroke markers" d=" M 64 10 L 262 10" stroke-miterlimit="10" stroke-dasharray=""/></g><g><path fill="none" stroke="#000000" paint-order="fill stroke markers" d=" M 64 46 L 262 46" stroke-miterlimit="10" stroke-dasharray=""/></g><g><path fill="none" stroke="#000000" paint-order="fill stroke markers" d=" M 262 10 A 18 18 0 0 1 262 46" stroke-miterlimit="10" stroke-dasharray=""/></g><g><g><path fill="none" stroke="none"/><text fill="#000000" stroke="none" font-family="Arial" font-size="16px" font-style="normal" font-weight="normal" text-decoration="undefined" x="451" y="126" text-anchor="middle" dominant-baseline="central" transform="matrix(1 0 0 1 -296 -98)">GET /a/{userName}</text></g></g><g><path fill="#ffffff" stroke="none" paint-order="stroke fill markers" d=" M 88 82 L 298 82 L 256 118 L 46 118 L 88 82"/></g><g><path fill="none" stroke="#000000" paint-order="fill stroke markers" d=" M 88 82 L 298 82 L 256 118 L 46 118 L 88 82 L 88 82" stroke-miterlimit="10" stroke-dasharray=""/></g><g><g><path fill="none" stroke="none"/><text fill="#000000" stroke="none" font-family="Arial" font-size="16px" font-style="normal" font-weight="normal" text-decoration="undefined" x="468" y="198" text-anchor="middle" dominant-baseline="central" transform="matrix(1 0 0 1 -296 -98)">GetAccountLinkRequest</text></g></g><g><path fill="#ffffff" stroke="none" paint-order="stroke fill markers" d=" M 36 172 L 290 172 Q 316 172 316 198 L 316 198 Q 316 224 290 224 L 36 224 Q 10 224 10 198 L 10 198 Q 10 172 36 172 Z"/></g><g><path fill="none" stroke="#000000" paint-order="fill stroke markers" d=" M 36 172 L 290 172 Q 316 172 316 198 L 316 198 Q 316 224 290 224 L 36 224 Q 10 224 10 198 L 10 198 Q 10 172 36 172 Z" stroke-miterlimit="10" stroke-dasharray=""/></g><g><g><path fill="none" stroke="none"/><text fill="#000000" stroke="none" font-family="Arial" font-size="16px" font-style="normal" font-weight="normal" text-decoration="undefined" x="459" y="288" text-anchor="middle" dominant-baseline="central" transform="matrix(1 0 0 1 -296 -98)">Существует аккаунт с указанным</text><text fill="#000000" stroke="none" font-family="Arial" font-size="16px" font-style="normal" font-weight="normal" text-decoration="undefined" x="459" y="304" text-anchor="middle" dominant-baseline="central" transform="matrix(1 0 0 1 -296 -98)">userName</text></g></g><g><rect fill="#ffffff" stroke="none" x="342" y="432" width="234" height="52" transform="matrix(1 0 0 1 -296 -98)"/></g><g><path fill="none" stroke="#000000" paint-order="fill stroke markers" d=" M 46 334 L 280 334 L 280 386 L 46 386 L 46 334 Z Z" stroke-miterlimit="10" stroke-dasharray=""/></g><g><g><path fill="none" stroke="none"/><text fill="#000000" stroke="none" font-family="Arial" font-size="16px" font-style="normal" font-weight="normal" text-decoration="undefined" x="459" y="450" text-anchor="middle" dominant-baseline="central" transform="matrix(1 0 0 1 -296 -98)">Извлечь информацию о</text><text fill="#000000" stroke="none" font-family="Arial" font-size="16px" font-style="normal" font-weight="normal" text-decoration="undefined" x="459" y="466" text-anchor="middle" dominant-baseline="central" transform="matrix(1 0 0 1 -296 -98)">пользователе</text></g></g><g><path fill="#ffffff" stroke="none" paint-order="stroke fill markers" d=" M 73 424 L 298 424 L 253 460 L 28 460 L 73 424"/></g><g><path fill="none" stroke="#000000" paint-order="fill stroke markers" d=" M 73 424 L 298 424 L 253 460 L 28 460 L 73 424 L 73 424" stroke-miterlimit="10" stroke-dasharray=""/></g><g><g><path fill="none" stroke="none"/><text fill="#000000" stroke="none" font-family="Arial" font-size="16px" font-style="normal" font-weight="normal" text-decoration="undefined" x="459" y="540" text-anchor="middle" dominant-baseline="central" transform="matrix(1 0 0 1 -296 -98)">GetAccountLinkResponse</text></g></g><g><path fill="none" stroke="#000000" paint-order="fill stroke markers" d=" M 172 46 L 172 82" stroke-miterlimit="10" stroke-dasharray=""/></g><g><path fill="#000000" stroke="none" paint-order="stroke fill markers" d=" M 167.790482243984 71.83732514237585 L 172 82 L 176.209517756016 71.83732514237585"/></g><g><path fill="none" stroke="#000000" paint-order="fill stroke markers" d=" M 167.790482243984 71.83732514237585 L 172 82 L 176.209517756016 71.83732514237585 L 167.790482243984 71.83732514237585" stroke-miterlimit="10" stroke-dasharray=""/></g><g><path fill="none" stroke="#000000" paint-order="fill stroke markers" d=" M 170 118 L 170 172" stroke-miterlimit="10" stroke-dasharray=""/></g><g><path fill="#000000" stroke="none" paint-order="stroke fill markers" d=" M 165.790482243984 161.83732514237585 L 170 172 L 174.209517756016 161.83732514237585"/></g><g><path fill="none" stroke="#000000" paint-order="fill stroke markers" d=" M 165.790482243984 161.83732514237585 L 170 172 L 174.209517756016 161.83732514237585 L 165.790482243984 161.83732514237585" stroke-miterlimit="10" stroke-dasharray=""/></g><g><path fill="none" stroke="#000000" paint-order="fill stroke markers" d=" M 163 386 L 163 424" stroke-miterlimit="10" stroke-dasharray=""/></g><g><path fill="#000000" stroke="none" paint-order="stroke fill markers" d=" M 158.790482243984 413.83732514237585 L 163 424 L 167.209517756016 413.83732514237585"/></g><g><path fill="none" stroke="#000000" paint-order="fill stroke markers" d=" M 158.790482243984 413.83732514237585 L 163 424 L 167.209517756016 413.83732514237585 L 158.790482243984 413.83732514237585" stroke-miterlimit="10" stroke-dasharray=""/></g><g><path fill="#ffffff" stroke="none" paint-order="stroke fill markers" d=" M 54 262 L 290 262 Q 316 262 316 288 L 316 288 Q 316 314 290 314 L 54 314 Q 28 314 28 288 L 28 288 Q 28 262 54 262 Z"/></g><g><path fill="none" stroke="#000000" paint-order="fill stroke markers" d=" M 54 262 L 290 262 Q 316 262 316 288 L 316 288 Q 316 314 290 314 L 54 314 Q 28 314 28 288 L 28 288 Q 28 262 54 262 Z" stroke-miterlimit="10" stroke-dasharray=""/></g><g><g><path fill="none" stroke="none"/><text fill="#000000" stroke="none" font-family="Arial" font-size="16px" font-style="normal" font-weight="normal" text-decoration="undefined" x="468" y="378" text-anchor="middle" dominant-baseline="central" transform="matrix(1 0 0 1 -296 -98)">Указанный аккаунт не</text><text fill="#000000" stroke="none" font-family="Arial" font-size="16px" font-style="normal" font-weight="normal" text-decoration="undefined" x="468" y="394" text-anchor="middle" dominant-baseline="central" transform="matrix(1 0 0 1 -296 -98)">заблокирован</text></g></g><g><path fill="none" stroke="#000000" paint-order="fill stroke markers" d=" M 166 224 L 166 262" stroke-miterlimit="10" stroke-dasharray=""/></g><g><path fill="#000000" stroke="none" paint-order="stroke fill markers" d=" M 161.790482243984 251.83732514237585 L 166 262 L 170.209517756016 251.83732514237585"/></g><g><path fill="none" stroke="#000000" paint-order="fill stroke markers" d=" M 161.790482243984 251.83732514237585 L 166 262 L 170.209517756016 251.83732514237585 L 161.790482243984 251.83732514237585" stroke-miterlimit="10" stroke-dasharray=""/></g><g><path fill="none" stroke="#000000" paint-order="fill stroke markers" d=" M 170 314 L 170 334" stroke-miterlimit="10" stroke-dasharray=""/></g><g><path fill="#000000" stroke="none" paint-order="stroke fill markers" d=" M 165.790482243984 323.83732514237585 L 170 334 L 174.209517756016 323.83732514237585"/></g><g><path fill="none" stroke="#000000" paint-order="fill stroke markers" d=" M 165.790482243984 323.83732514237585 L 170 334 L 174.209517756016 323.83732514237585 L 165.790482243984 323.83732514237585" stroke-miterlimit="10" stroke-dasharray=""/></g></g></svg>