<svg version="1.1" xmlns="http://www.w3.org/2000/svg" xmlns:xlink="http://www.w3.org/1999/xlink" width="703.484375" height="470"><defs/><g><g><rect fill="#ffffff" stroke="none" x="324" y="90" width="388" height="52" transform="matrix(1 0 0 1 -296 -62)"/></g><g><path fill="#ffffff" stroke="none" paint-order="stroke fill markers" d=" M 416 28 A 26 26 0 0 1 416 80"/></g><g><path fill="none" stroke="#000000" paint-order="fill stroke markers" d=" M 28 28 L 28 80" stroke-miterlimit="10" stroke-dasharray=""/></g><g><path fill="none" stroke="#000000" paint-order="fill stroke markers" d=" M 28 28 L 416 28" stroke-miterlimit="10" stroke-dasharray=""/></g><g><path fill="none" stroke="#000000" paint-order="fill stroke markers" d=" M 28 80 L 416 80" stroke-miterlimit="10" stroke-dasharray=""/></g><g><path fill="none" stroke="#000000" paint-order="fill stroke markers" d=" M 416 28 A 26 26 0 0 1 416 80" stroke-miterlimit="10" stroke-dasharray=""/></g><g><g><path fill="none" stroke="none"/><text fill="#000000" stroke="none" font-family="Arial" font-size="16px" font-style="normal" font-weight="normal" text-decoration="undefined" x="489.25" y="108" text-anchor="middle" dominant-baseline="central" transform="matrix(1 0 0 1 -296 -62)">DELETE</text><text fill="#000000" stroke="none" font-family="Arial" font-size="16px" font-style="normal" font-weight="normal" text-decoration="undefined" x="489.25" y="124" text-anchor="middle" dominant-baseline="central" transform="matrix(1 0 0 1 -296 -62)">/chellenges/block-accounts/{accounId}</text></g></g><g><path fill="#ffffff" stroke="#000000" paint-order="fill stroke markers" d=" M 550 44 L 573 10 L 670.484375 10 Q 693.484375 10 693.484375 44 Q 693.484375 78 670.484375 78 L 573 78 L 550 44 Z" stroke-miterlimit="10" stroke-dasharray=""/></g><g><g><path fill="none" stroke="none"/><text fill="#000000" stroke="none" font-family="Arial" font-size="16px" font-style="normal" font-weight="normal" text-decoration="undefined" x="917.7421875" y="90" text-anchor="middle" dominant-baseline="central" transform="matrix(1 0 0 1 -296 -62)">Заголовки</text><text fill="#000000" stroke="none" font-family="Arial" font-size="16px" font-style="normal" font-weight="normal" text-decoration="undefined" x="917.7421875" y="106" text-anchor="middle" dominant-baseline="central" transform="matrix(1 0 0 1 -296 -62)">запроса</text><text fill="#000000" stroke="none" font-family="Arial" font-size="16px" font-style="normal" font-weight="normal" text-decoration="undefined" x="917.7421875" y="122" text-anchor="middle" dominant-baseline="central" transform="matrix(1 0 0 1 -296 -62)">(Авторизирован)</text></g></g><g><path fill="#ffffff" stroke="none" paint-order="stroke fill markers" d=" M 46 208 L 402.6328125 208 Q 420.6328125 208 420.6328125 226 L 420.6328125 226 Q 420.6328125 244 402.6328125 244 L 46 244 Q 28 244 28 226 L 28 226 Q 28 208 46 208 Z"/></g><g><path fill="none" stroke="#000000" paint-order="fill stroke markers" d=" M 46 208 L 402.6328125 208 Q 420.6328125 208 420.6328125 226 L 420.6328125 226 Q 420.6328125 244 402.6328125 244 L 46 244 Q 28 244 28 226 L 28 226 Q 28 208 46 208 Z" stroke-miterlimit="10" stroke-dasharray=""/></g><g><g><path fill="none" stroke="none"/><text fill="#000000" stroke="none" font-family="Arial" font-size="16px" font-style="normal" font-weight="normal" text-decoration="undefined" x="520.31640625" y="288" text-anchor="middle" dominant-baseline="central" transform="matrix(1 0 0 1 -296 -62)">Роль пользователя в челлендже "Администратор"</text></g></g><g><path fill="#ffffff" stroke="none" paint-order="stroke fill markers" d=" M 82 136 L 442 136 L 370 172 L 10 172 L 82 136"/></g><g><path fill="none" stroke="#000000" paint-order="fill stroke markers" d=" M 82 136 L 442 136 L 370 172 L 10 172 L 82 136 L 82 136" stroke-miterlimit="10" stroke-dasharray=""/></g><g><g><path fill="none" stroke="none"/><text fill="#000000" stroke="none" font-family="Arial" font-size="16px" font-style="normal" font-weight="normal" text-decoration="undefined" x="522" y="216" text-anchor="middle" dominant-baseline="central" transform="matrix(1 0 0 1 -296 -62)">DeleteChellengeBlockAccountRequest</text></g></g><g><path fill="#ffffff" stroke="none" paint-order="stroke fill markers" d=" M 46 280 L 424 280 Q 442 280 442 298 L 442 298 Q 442 316 424 316 L 46 316 Q 28 316 28 298 L 28 298 Q 28 280 46 280 Z"/></g><g><path fill="none" stroke="#000000" paint-order="fill stroke markers" d=" M 46 280 L 424 280 Q 442 280 442 298 L 442 298 Q 442 316 424 316 L 46 316 Q 28 316 28 298 L 28 298 Q 28 280 46 280 Z" stroke-miterlimit="10" stroke-dasharray=""/></g><g><g><path fill="none" stroke="none"/><text fill="#000000" stroke="none" font-family="Arial" font-size="16px" font-style="normal" font-weight="normal" text-decoration="undefined" x="531" y="360" text-anchor="middle" dominant-baseline="central" transform="matrix(1 0 0 1 -296 -62)">Указанный аккаунт заблокирован в челлендже</text></g></g><g><rect fill="#ffffff" stroke="none" x="324" y="414" width="396" height="36" transform="matrix(1 0 0 1 -296 -62)"/></g><g><path fill="none" stroke="#000000" paint-order="fill stroke markers" d=" M 28 352 L 424 352 L 424 388 L 28 388 L 28 352 Z Z" stroke-miterlimit="10" stroke-dasharray=""/></g><g><g><path fill="none" stroke="none"/><text fill="#000000" stroke="none" font-family="Arial" font-size="16px" font-style="normal" font-weight="normal" text-decoration="undefined" x="522" y="432" text-anchor="middle" dominant-baseline="central" transform="matrix(1 0 0 1 -296 -62)">Удалить аккаунт из бан листа </text></g></g><g><path fill="#ffffff" stroke="none" paint-order="stroke fill markers" d=" M 88 424 L 388 424 L 328 460 L 28 460 L 88 424"/></g><g><path fill="none" stroke="#000000" paint-order="fill stroke markers" d=" M 88 424 L 388 424 L 328 460 L 28 460 L 88 424 L 88 424" stroke-miterlimit="10" stroke-dasharray=""/></g><g><g><path fill="none" stroke="none"/><text fill="#000000" stroke="none" font-family="Arial" font-size="16px" font-style="normal" font-weight="normal" text-decoration="undefined" x="504" y="504" text-anchor="middle" dominant-baseline="central" transform="matrix(1 0 0 1 -296 -62)">NoBodyResponse</text></g></g><g><path fill="none" stroke="#000000" paint-order="fill stroke markers" d=" M 233 80 L 233 136" stroke-miterlimit="10" stroke-dasharray=""/></g><g><path fill="#000000" stroke="none" paint-order="stroke fill markers" d=" M 228.790482243984 125.83732514237585 L 233 136 L 237.209517756016 125.83732514237585"/></g><g><path fill="none" stroke="#000000" paint-order="fill stroke markers" d=" M 228.790482243984 125.83732514237585 L 233 136 L 237.209517756016 125.83732514237585 L 228.790482243984 125.83732514237585" stroke-miterlimit="10" stroke-dasharray=""/></g><g><path fill="none" stroke="#000000" paint-order="fill stroke markers" d=" M 550 78 L 550 128 L 550 128 A 8 8 0 0 1 542 136 L 442 136" stroke-miterlimit="10" stroke-dasharray=""/></g><g><path fill="#000000" stroke="none" paint-order="stroke fill markers" d=" M 452.1626748576241 131.790482243984 L 442 136 L 452.1626748576241 140.209517756016"/></g><g><path fill="none" stroke="#000000" paint-order="fill stroke markers" d=" M 452.1626748576241 131.790482243984 L 442 136 L 452.1626748576241 140.209517756016 L 452.1626748576241 131.790482243984" stroke-miterlimit="10" stroke-dasharray=""/></g><g><path fill="none" stroke="#000000" paint-order="fill stroke markers" d=" M 226 172 L 226 208" stroke-miterlimit="10" stroke-dasharray=""/></g><g><path fill="#000000" stroke="none" paint-order="stroke fill markers" d=" M 221.790482243984 197.83732514237585 L 226 208 L 230.209517756016 197.83732514237585"/></g><g><path fill="none" stroke="#000000" paint-order="fill stroke markers" d=" M 221.790482243984 197.83732514237585 L 226 208 L 230.209517756016 197.83732514237585 L 221.790482243984 197.83732514237585" stroke-miterlimit="10" stroke-dasharray=""/></g><g><path fill="none" stroke="#000000" paint-order="fill stroke markers" d=" M 227 244 L 227 280" stroke-miterlimit="10" stroke-dasharray=""/></g><g><path fill="#000000" stroke="none" paint-order="stroke fill markers" d=" M 222.790482243984 269.83732514237585 L 227 280 L 231.209517756016 269.83732514237585"/></g><g><path fill="none" stroke="#000000" paint-order="fill stroke markers" d=" M 222.790482243984 269.83732514237585 L 227 280 L 231.209517756016 269.83732514237585 L 222.790482243984 269.83732514237585" stroke-miterlimit="10" stroke-dasharray=""/></g><g><path fill="none" stroke="#000000" paint-order="fill stroke markers" d=" M 234 316 L 234 352" stroke-miterlimit="10" stroke-dasharray=""/></g><g><path fill="#000000" stroke="none" paint-order="stroke fill markers" d=" M 229.790482243984 341.83732514237585 L 234 352 L 238.209517756016 341.83732514237585"/></g><g><path fill="none" stroke="#000000" paint-order="fill stroke markers" d=" M 229.790482243984 341.83732514237585 L 234 352 L 238.209517756016 341.83732514237585 L 229.790482243984 341.83732514237585" stroke-miterlimit="10" stroke-dasharray=""/></g><g><path fill="none" stroke="#000000" paint-order="fill stroke markers" d=" M 222 388 L 222 424" stroke-miterlimit="10" stroke-dasharray=""/></g><g><path fill="#000000" stroke="none" paint-order="stroke fill markers" d=" M 217.790482243984 413.83732514237585 L 222 424 L 226.209517756016 413.83732514237585"/></g><g><path fill="none" stroke="#000000" paint-order="fill stroke markers" d=" M 217.790482243984 413.83732514237585 L 222 424 L 226.209517756016 413.83732514237585 L 217.790482243984 413.83732514237585" stroke-miterlimit="10" stroke-dasharray=""/></g></g></svg>