<svg version="1.1" xmlns="http://www.w3.org/2000/svg" xmlns:xlink="http://www.w3.org/1999/xlink" width="667.484375" height="416"><defs/><g><g><rect fill="#ffffff" stroke="none" x="252" y="90" width="361.3125" height="52" transform="matrix(1 0 0 1 -188 -80)"/></g><g><path fill="#ffffff" stroke="none" paint-order="stroke fill markers" d=" M 425.3125 10 A 26 26 0 0 1 425.3125 62"/></g><g><path fill="none" stroke="#000000" paint-order="fill stroke markers" d=" M 64 10 L 64 62" stroke-miterlimit="10" stroke-dasharray=""/></g><g><path fill="none" stroke="#000000" paint-order="fill stroke markers" d=" M 64 10 L 425.3125 10" stroke-miterlimit="10" stroke-dasharray=""/></g><g><path fill="none" stroke="#000000" paint-order="fill stroke markers" d=" M 64 62 L 425.3125 62" stroke-miterlimit="10" stroke-dasharray=""/></g><g><path fill="none" stroke="#000000" paint-order="fill stroke markers" d=" M 425.3125 10 A 26 26 0 0 1 425.3125 62" stroke-miterlimit="10" stroke-dasharray=""/></g><g><g><path fill="none" stroke="none"/><text fill="#000000" stroke="none" font-family="Arial" font-size="16px" font-style="normal" font-weight="normal" text-decoration="undefined" x="407.2421875" y="108" text-anchor="middle" dominant-baseline="central" transform="matrix(1 0 0 1 -188 -80)">DELETE</text><text fill="#000000" stroke="none" font-family="Arial" font-size="16px" font-style="normal" font-weight="normal" text-decoration="undefined" x="407.2421875" y="124" text-anchor="middle" dominant-baseline="central" transform="matrix(1 0 0 1 -188 -80)">/templates/{templateId}/assessments/{assesmentId}</text></g></g><g><path fill="#ffffff" stroke="none" paint-order="stroke fill markers" d=" M 28 190 L 423.0234375 190 Q 441.0234375 190 441.0234375 208 L 441.0234375 208 Q 441.0234375 226 423.0234375 226 L 28 226 Q 10 226 10 208 L 10 208 Q 10 190 28 190 Z"/></g><g><path fill="none" stroke="#000000" paint-order="fill stroke markers" d=" M 28 190 L 423.0234375 190 Q 441.0234375 190 441.0234375 208 L 441.0234375 208 Q 441.0234375 226 423.0234375 226 L 28 226 Q 10 226 10 208 L 10 208 Q 10 190 28 190 Z" stroke-miterlimit="10" stroke-dasharray=""/></g><g><g><path fill="none" stroke="none"/><text fill="#000000" stroke="none" font-family="Arial" font-size="16px" font-style="normal" font-weight="normal" text-decoration="undefined" x="413.51171875" y="288" text-anchor="middle" dominant-baseline="central" transform="matrix(1 0 0 1 -188 -80)">Пользователь является владельцем указанной оценки </text></g></g><g><path fill="#ffffff" stroke="none" paint-order="stroke fill markers" d=" M 112 118 L 442 118 L 376 154 L 46 154 L 112 118"/></g><g><path fill="none" stroke="#000000" paint-order="fill stroke markers" d=" M 112 118 L 442 118 L 376 154 L 46 154 L 112 118 L 112 118" stroke-miterlimit="10" stroke-dasharray=""/></g><g><g><path fill="none" stroke="none"/><text fill="#000000" stroke="none" font-family="Arial" font-size="16px" font-style="normal" font-weight="normal" text-decoration="undefined" x="432" y="216" text-anchor="middle" dominant-baseline="central" transform="matrix(1 0 0 1 -188 -80)">DeleteTemplateAssessmentsRequest</text></g></g><g><path fill="#ffffff" stroke="#000000" paint-order="fill stroke markers" d=" M 514 44 L 537 10 L 634.484375 10 Q 657.484375 10 657.484375 44 Q 657.484375 78 634.484375 78 L 537 78 L 514 44 Z" stroke-miterlimit="10" stroke-dasharray=""/></g><g><g><path fill="none" stroke="none"/><text fill="#000000" stroke="none" font-family="Arial" font-size="16px" font-style="normal" font-weight="normal" text-decoration="undefined" x="773.7421875" y="108" text-anchor="middle" dominant-baseline="central" transform="matrix(1 0 0 1 -188 -80)">Заголовки</text><text fill="#000000" stroke="none" font-family="Arial" font-size="16px" font-style="normal" font-weight="normal" text-decoration="undefined" x="773.7421875" y="124" text-anchor="middle" dominant-baseline="central" transform="matrix(1 0 0 1 -188 -80)">запроса</text><text fill="#000000" stroke="none" font-family="Arial" font-size="16px" font-style="normal" font-weight="normal" text-decoration="undefined" x="773.7421875" y="140" text-anchor="middle" dominant-baseline="central" transform="matrix(1 0 0 1 -188 -80)">(Авторизирован)</text></g></g><g><rect fill="#ffffff" stroke="none" x="252" y="360" width="324" height="36" transform="matrix(1 0 0 1 -188 -80)"/></g><g><path fill="none" stroke="#000000" paint-order="fill stroke markers" d=" M 64 280 L 388 280 L 388 316 L 64 316 L 64 280 Z Z" stroke-miterlimit="10" stroke-dasharray=""/></g><g><g><path fill="none" stroke="none"/><text fill="#000000" stroke="none" font-family="Arial" font-size="16px" font-style="normal" font-weight="normal" text-decoration="undefined" x="414" y="378" text-anchor="middle" dominant-baseline="central" transform="matrix(1 0 0 1 -188 -80)">Удалить отзыв </text></g></g><g><path fill="#ffffff" stroke="none" paint-order="stroke fill markers" d=" M 145 370 L 370 370 L 325 406 L 100 406 L 145 370"/></g><g><path fill="none" stroke="#000000" paint-order="fill stroke markers" d=" M 145 370 L 370 370 L 325 406 L 100 406 L 145 370 L 145 370" stroke-miterlimit="10" stroke-dasharray=""/></g><g><g><path fill="none" stroke="none"/><text fill="#000000" stroke="none" font-family="Arial" font-size="16px" font-style="normal" font-weight="normal" text-decoration="undefined" x="423" y="468" text-anchor="middle" dominant-baseline="central" transform="matrix(1 0 0 1 -188 -80)">NoBodyResponse</text></g></g><g><path fill="none" stroke="#000000" paint-order="fill stroke markers" d=" M 254 62 L 254 118" stroke-miterlimit="10" stroke-dasharray=""/></g><g><path fill="#000000" stroke="none" paint-order="stroke fill markers" d=" M 249.790482243984 107.83732514237585 L 254 118 L 258.209517756016 107.83732514237585"/></g><g><path fill="none" stroke="#000000" paint-order="fill stroke markers" d=" M 249.790482243984 107.83732514237585 L 254 118 L 258.209517756016 107.83732514237585 L 249.790482243984 107.83732514237585" stroke-miterlimit="10" stroke-dasharray=""/></g><g><path fill="none" stroke="#000000" paint-order="fill stroke markers" d=" M 514 78 L 514 110 L 514 110 A 8 8 0 0 1 506 118 L 442 118" stroke-miterlimit="10" stroke-dasharray=""/></g><g><path fill="#000000" stroke="none" paint-order="stroke fill markers" d=" M 452.1626748576241 113.790482243984 L 442 118 L 452.1626748576241 122.209517756016"/></g><g><path fill="none" stroke="#000000" paint-order="fill stroke markers" d=" M 452.1626748576241 113.790482243984 L 442 118 L 452.1626748576241 122.209517756016 L 452.1626748576241 113.790482243984" stroke-miterlimit="10" stroke-dasharray=""/></g><g><path fill="none" stroke="#000000" paint-order="fill stroke markers" d=" M 239 154 L 239 190" stroke-miterlimit="10" stroke-dasharray=""/></g><g><path fill="#000000" stroke="none" paint-order="stroke fill markers" d=" M 234.790482243984 179.83732514237585 L 239 190 L 243.209517756016 179.83732514237585"/></g><g><path fill="none" stroke="#000000" paint-order="fill stroke markers" d=" M 234.790482243984 179.83732514237585 L 239 190 L 243.209517756016 179.83732514237585 L 234.790482243984 179.83732514237585" stroke-miterlimit="10" stroke-dasharray=""/></g><g><path fill="none" stroke="#000000" paint-order="fill stroke markers" d=" M 225 226 L 225 280" stroke-miterlimit="10" stroke-dasharray=""/></g><g><path fill="#000000" stroke="none" paint-order="stroke fill markers" d=" M 220.790482243984 269.83732514237585 L 225 280 L 229.209517756016 269.83732514237585"/></g><g><path fill="none" stroke="#000000" paint-order="fill stroke markers" d=" M 220.790482243984 269.83732514237585 L 225 280 L 229.209517756016 269.83732514237585 L 220.790482243984 269.83732514237585" stroke-miterlimit="10" stroke-dasharray=""/></g><g><path fill="none" stroke="#000000" paint-order="fill stroke markers" d=" M 228 316 L 228 370" stroke-miterlimit="10" stroke-dasharray=""/></g><g><path fill="#000000" stroke="none" paint-order="stroke fill markers" d=" M 223.790482243984 359.83732514237585 L 228 370 L 232.209517756016 359.83732514237585"/></g><g><path fill="none" stroke="#000000" paint-order="fill stroke markers" d=" M 223.790482243984 359.83732514237585 L 228 370 L 232.209517756016 359.83732514237585 L 223.790482243984 359.83732514237585" stroke-miterlimit="10" stroke-dasharray=""/></g></g></svg>