<svg version="1.1" xmlns="http://www.w3.org/2000/svg" xmlns:xlink="http://www.w3.org/1999/xlink" width="1676" height="1078.71875"><defs/><g><g><path fill="none" stroke="#000000" paint-order="fill stroke markers" d=" M 10 82 L 1666 82 L 1666 460 L 10 460 L 10 82 Z Z" stroke-miterlimit="10" stroke-dasharray=""/></g><g><path fill="none" stroke="#000000" paint-order="fill stroke markers" d=" M 36 82 L 36 460" stroke-miterlimit="10" stroke-dasharray=""/></g><g><g><path fill="none" stroke="none"/><text fill="#000000" stroke="none" font-family="Arial" font-size="16px" font-style="normal" font-weight="normal" text-decoration="undefined" x="0" y="0" text-anchor="middle" dominant-baseline="text-before-edge" transform="matrix(6.123233995736766e-17 -1 1 6.123233995736766e-17 15 271)">Пользователь</text></g></g><g><path fill="none" stroke="#000000" paint-order="fill stroke markers" d=" M 10 568 L 1666 568 L 1666 820 L 10 820 L 10 568 Z Z" stroke-miterlimit="10" stroke-dasharray=""/></g><g><path fill="none" stroke="#000000" paint-order="fill stroke markers" d=" M 36 568 L 36 820" stroke-miterlimit="10" stroke-dasharray=""/></g><g><g><path fill="none" stroke="none"/><text fill="#000000" stroke="none" font-family="Arial" font-size="16px" font-style="normal" font-weight="normal" text-decoration="undefined" x="0" y="0" text-anchor="middle" dominant-baseline="text-before-edge" transform="matrix(6.123233995736766e-17 -1 1 6.123233995736766e-17 15 694)">Api</text></g></g><g><path fill="#C0C0C0" stroke="none" paint-order="stroke fill markers" d=" M 125 285 C 125 276.1634432 132.16344320000002 269 141 269 C 149.83655679999998 269 157 276.1634432 157 285 C 157 293.8365568 149.83655679999998 301 141 301 C 132.16344320000002 301 125 293.8365568 125 285 Z" fill-opacity="0.2"/></g><g><path fill="#ffffff" stroke="none" paint-order="stroke fill markers" d=" M 118 278 C 118 269.1634432 125.16344320000002 262 134 262 C 142.83655679999998 262 150 269.1634432 150 278 C 150 286.8365568 142.83655679999998 294 134 294 C 125.16344320000002 294 118 286.8365568 118 278 Z"/></g><g><path fill="none" stroke="#000000" paint-order="fill stroke markers" d=" M 118 278 C 118 269.1634432 125.16344320000002 262 134 262 C 142.83655679999998 262 150 269.1634432 150 278 C 150 286.8365568 142.83655679999998 294 134 294 C 125.16344320000002 294 118 286.8365568 118 278 Z" stroke-miterlimit="10" stroke-dasharray=""/></g><g><rect fill="#ffffff" stroke="none" x="188.85546875" y="494" width="158.2890625" height="16" transform="matrix(1 0 0 1 -134 -188)"/></g><g><g><path fill="none" stroke="none"/><text fill="#000000" stroke="none" font-family="Arial" font-size="16px" font-style="normal" font-weight="normal" text-decoration="undefined" x="268" y="502" text-anchor="middle" dominant-baseline="central" transform="matrix(1 0 0 1 -134 -188)">Открыть приложение</text></g></g><g><path fill="#C0C0C0" stroke="none" paint-order="stroke fill markers" d=" M 351 233 L 493 233 Q 503 233 503 243 L 503 295 Q 503 305 493 305 L 351 305 Q 341 305 341 295 L 341 243 Q 341 233 351 233 Z" fill-opacity="0.2"/></g><g><path fill="#ffffff" stroke="none" paint-order="stroke fill markers" d=" M 344 226 L 486 226 Q 496 226 496 236 L 496 288 Q 496 298 486 298 L 344 298 Q 334 298 334 288 L 334 236 Q 334 226 344 226 Z"/></g><g><path fill="none" stroke="#000000" paint-order="fill stroke markers" d=" M 344 226 L 486 226 Q 496 226 496 236 L 496 288 Q 496 298 486 298 L 344 298 Q 334 298 334 288 L 334 236 Q 334 226 344 226 Z" stroke-miterlimit="10" stroke-dasharray=""/></g><g><path fill="none" stroke="#000000" paint-order="fill stroke markers" d=" M 344 235 C 344 233.3431456 345.3431456 232 347 232 C 348.6568544 232 350 233.3431456 350 235 C 350 236.6568544 348.6568544 238 347 238 C 345.3431456 238 344 236.6568544 344 235 Z" stroke-miterlimit="10" stroke-dasharray=""/></g><g><path fill="none" stroke="#000000" paint-order="fill stroke markers" d=" M 342 239 L 352 239 L 352 246 L 342 246 L 342 239 Z Z" stroke-miterlimit="10" stroke-dasharray=""/></g><g><g><path fill="none" stroke="none"/><text fill="#000000" stroke="none" font-family="Arial" font-size="16px" font-style="normal" font-weight="normal" text-decoration="undefined" x="549" y="442" text-anchor="middle" dominant-baseline="central" transform="matrix(1 0 0 1 -134 -188)">Открыть вкладку</text><text fill="#000000" stroke="none" font-family="Arial" font-size="16px" font-style="normal" font-weight="normal" text-decoration="undefined" x="549" y="458" text-anchor="middle" dominant-baseline="central" transform="matrix(1 0 0 1 -134 -188)">поиска</text></g></g><g><path fill="#C0C0C0" stroke="none" paint-order="stroke fill markers" d=" M 603 215 L 799 215 Q 809 215 809 225 L 809 295 Q 809 305 799 305 L 603 305 Q 593 305 593 295 L 593 225 Q 593 215 603 215 Z" fill-opacity="0.2"/></g><g><path fill="#ffffff" stroke="none" paint-order="stroke fill markers" d=" M 596 208 L 792 208 Q 802 208 802 218 L 802 288 Q 802 298 792 298 L 596 298 Q 586 298 586 288 L 586 218 Q 586 208 596 208 Z"/></g><g><path fill="none" stroke="#000000" paint-order="fill stroke markers" d=" M 596 208 L 792 208 Q 802 208 802 218 L 802 288 Q 802 298 792 298 L 596 298 Q 586 298 586 288 L 586 218 Q 586 208 596 208 Z" stroke-miterlimit="10" stroke-dasharray=""/></g><g><path fill="none" stroke="#000000" paint-order="fill stroke markers" d=" M 596 217 C 596 215.3431456 597.3431456 214 599 214 C 600.6568544 214 602 215.3431456 602 217 C 602 218.6568544 600.6568544 220 599 220 C 597.3431456 220 596 218.6568544 596 217 Z" stroke-miterlimit="10" stroke-dasharray=""/></g><g><path fill="none" stroke="#000000" paint-order="fill stroke markers" d=" M 594 221 L 604 221 L 604 228 L 594 228 L 594 221 Z Z" stroke-miterlimit="10" stroke-dasharray=""/></g><g><g><path fill="none" stroke="none"/><text fill="#000000" stroke="none" font-family="Arial" font-size="16px" font-style="normal" font-weight="normal" text-decoration="undefined" x="828" y="433" text-anchor="middle" dominant-baseline="central" transform="matrix(1 0 0 1 -134 -188)">Ввести Название КД в</text><text fill="#000000" stroke="none" font-family="Arial" font-size="16px" font-style="normal" font-weight="normal" text-decoration="undefined" x="828" y="449" text-anchor="middle" dominant-baseline="central" transform="matrix(1 0 0 1 -134 -188)">строку поиска</text></g></g><g><path fill="#C0C0C0" stroke="none" paint-order="stroke fill markers" d=" M 1287 233 L 1406.921875 233 Q 1416.921875 233 1416.921875 243 L 1416.921875 297 Q 1416.921875 307 1406.921875 307 L 1287 307 Q 1277 307 1277 297 L 1277 243 Q 1277 233 1287 233 Z" fill-opacity="0.2"/></g><g><path fill="#ffffff" stroke="none" paint-order="stroke fill markers" d=" M 1280 226 L 1399.921875 226 Q 1409.921875 226 1409.921875 236 L 1409.921875 290 Q 1409.921875 300 1399.921875 300 L 1280 300 Q 1270 300 1270 290 L 1270 236 Q 1270 226 1280 226 Z"/></g><g><path fill="none" stroke="#000000" paint-order="fill stroke markers" d=" M 1280 226 L 1399.921875 226 Q 1409.921875 226 1409.921875 236 L 1409.921875 290 Q 1409.921875 300 1399.921875 300 L 1280 300 Q 1270 300 1270 290 L 1270 236 Q 1270 226 1280 226 Z" stroke-miterlimit="10" stroke-dasharray=""/></g><g><path fill="none" stroke="#000000" paint-order="fill stroke markers" d=" M 1280 235 C 1280 233.3431456 1281.3431456 232 1283 232 C 1284.6568544 232 1286 233.3431456 1286 235 C 1286 236.6568544 1284.6568544 238 1283 238 C 1281.3431456 238 1280 236.6568544 1280 235 Z" stroke-miterlimit="10" stroke-dasharray=""/></g><g><path fill="none" stroke="#000000" paint-order="fill stroke markers" d=" M 1278 239 L 1288 239 L 1288 246 L 1278 246 L 1278 239 Z Z" stroke-miterlimit="10" stroke-dasharray=""/></g><g><g><path fill="none" stroke="none"/><text fill="#000000" stroke="none" font-family="Arial" font-size="16px" font-style="normal" font-weight="normal" text-decoration="undefined" x="1473.9609375" y="427" text-anchor="middle" dominant-baseline="central" transform="matrix(1 0 0 1 -134 -188)">Нажать на</text><text fill="#000000" stroke="none" font-family="Arial" font-size="16px" font-style="normal" font-weight="normal" text-decoration="undefined" x="1473.9609375" y="443" text-anchor="middle" dominant-baseline="central" transform="matrix(1 0 0 1 -134 -188)">элемент из</text><text fill="#000000" stroke="none" font-family="Arial" font-size="16px" font-style="normal" font-weight="normal" text-decoration="undefined" x="1473.9609375" y="459" text-anchor="middle" dominant-baseline="central" transform="matrix(1 0 0 1 -134 -188)">результирующего</text><text fill="#000000" stroke="none" font-family="Arial" font-size="16px" font-style="normal" font-weight="normal" text-decoration="undefined" x="1473.9609375" y="475" text-anchor="middle" dominant-baseline="central" transform="matrix(1 0 0 1 -134 -188)">списка</text></g></g><g><path fill="none" stroke="#000000" paint-order="fill stroke markers" d=" M 496 259 L 586 259" stroke-miterlimit="10" stroke-dasharray=""/></g><g><path fill="#000000" stroke="none" paint-order="stroke fill markers" d=" M 575.8373251423759 263.209517756016 L 586 259 L 575.8373251423758 254.790482243984"/></g><g><path fill="none" stroke="#000000" paint-order="fill stroke markers" d=" M 575.8373251423759 263.209517756016 L 586 259 L 575.8373251423758 254.790482243984 L 575.8373251423759 263.209517756016" stroke-miterlimit="10" stroke-dasharray=""/></g><g><path fill="#C0C0C0" stroke="none" paint-order="stroke fill markers" d=" M 891 665 L 969.0234375 665 Q 979.0234375 665 979.0234375 675 L 979.0234375 729 Q 979.0234375 739 969.0234375 739 L 891 739 Q 881 739 881 729 L 881 675 Q 881 665 891 665 Z" fill-opacity="0.2"/></g><g><path fill="#ffffff" stroke="none" paint-order="stroke fill markers" d=" M 884 658 L 962.0234375 658 Q 972.0234375 658 972.0234375 668 L 972.0234375 722 Q 972.0234375 732 962.0234375 732 L 884 732 Q 874 732 874 722 L 874 668 Q 874 658 884 658 Z"/></g><g><path fill="none" stroke="#000000" paint-order="fill stroke markers" d=" M 884 658 L 962.0234375 658 Q 972.0234375 658 972.0234375 668 L 972.0234375 722 Q 972.0234375 732 962.0234375 732 L 884 732 Q 874 732 874 722 L 874 668 Q 874 658 884 658 Z" stroke-miterlimit="10" stroke-dasharray=""/></g><g><g><path fill="none" stroke="none"/><text fill="#000000" stroke="none" font-family="Arial" font-size="16px" font-style="normal" font-weight="normal" text-decoration="undefined" x="1057.01171875" y="867" text-anchor="middle" dominant-baseline="central" transform="matrix(1 0 0 1 -134 -188)">Извлекаем</text><text fill="#000000" stroke="none" font-family="Arial" font-size="16px" font-style="normal" font-weight="normal" text-decoration="undefined" x="1057.01171875" y="883" text-anchor="middle" dominant-baseline="central" transform="matrix(1 0 0 1 -134 -188)">похожие</text><text fill="#000000" stroke="none" font-family="Arial" font-size="16px" font-style="normal" font-weight="normal" text-decoration="undefined" x="1057.01171875" y="899" text-anchor="middle" dominant-baseline="central" transform="matrix(1 0 0 1 -134 -188)">название</text></g></g><g><path fill="none" stroke="#000000" paint-order="fill stroke markers" d=" M 10 928 L 1522 928 L 1522 1068.71875 L 10 1068.71875 L 10 928 Z Z" stroke-miterlimit="10" stroke-dasharray=""/></g><g><path fill="none" stroke="#000000" paint-order="fill stroke markers" d=" M 36 928 L 36 1068.71875" stroke-miterlimit="10" stroke-dasharray=""/></g><g><g><path fill="none" stroke="none"/><text fill="#000000" stroke="none" font-family="Arial" font-size="16px" font-style="normal" font-weight="normal" text-decoration="undefined" x="0" y="0" text-anchor="middle" dominant-baseline="text-before-edge" transform="matrix(6.123233995736766e-17 -1 1 6.123233995736766e-17 15 998.359375)">База данных</text></g></g><g><path fill="none" stroke="#000000" paint-order="fill stroke markers" d=" M 904 732 L 904 928" stroke-miterlimit="10" stroke-dasharray=""/></g><g><path fill="#000000" stroke="none" paint-order="stroke fill markers" d=" M 899.7904822439841 917.8373251423759 L 904 928 L 908.2095177560159 917.8373251423759"/></g><g><path fill="none" stroke="#000000" paint-order="fill stroke markers" d=" M 899.7904822439841 917.8373251423759 L 904 928 L 908.2095177560159 917.8373251423759 L 899.7904822439841 917.8373251423759" stroke-miterlimit="10" stroke-dasharray=""/></g><g><path fill="#C0C0C0" stroke="none" paint-order="stroke fill markers" d=" M 1115 251 L 1137.4 251 L 1147 260.6 L 1147 291 L 1115 291" fill-opacity="0.2"/></g><g><path fill="#ffffff" stroke="none" paint-order="stroke fill markers" d=" M 1108 244 L 1130.4 244 L 1140 253.60000000000002 L 1140 284 L 1108 284"/></g><g><path fill="none" stroke="#000000" paint-order="fill stroke markers" d=" M 1108 244 L 1130.4 244 L 1140 253.60000000000002 L 1140 284 L 1108 284 L 1108 244" stroke-miterlimit="10" stroke-dasharray=""/></g><g><path fill="none" stroke="#000000" paint-order="fill stroke markers" d=" M 1130.4 244 L 1130.4 253.60000000000002 L 1140 253.60000000000002 L 1130.4 244" stroke-miterlimit="10" stroke-dasharray=""/></g><g><rect fill="#ffffff" stroke="none" x="1190.41796875" y="480" width="135.1640625" height="16" transform="matrix(1 0 0 1 -134 -188)"/></g><g><g><path fill="none" stroke="none"/><text fill="#000000" stroke="none" font-family="Arial" font-size="16px" font-style="normal" font-weight="normal" text-decoration="undefined" x="1258" y="488" text-anchor="middle" dominant-baseline="central" transform="matrix(1 0 0 1 -134 -188)">Результат поиска</text></g></g><g><path fill="none" stroke="#000000" paint-order="fill stroke markers" d=" M 717 298 L 717 650 L 717 650 A 8 8 0 0 0 725 658 L 874 658" stroke-miterlimit="10" stroke-dasharray=""/></g><g><path fill="#000000" stroke="none" paint-order="stroke fill markers" d=" M 863.8373251423759 662.209517756016 L 874 658 L 863.8373251423758 653.790482243984"/></g><g><path fill="none" stroke="#000000" paint-order="fill stroke markers" d=" M 863.8373251423759 662.209517756016 L 874 658 L 863.8373251423758 653.790482243984 L 863.8373251423759 662.209517756016" stroke-miterlimit="10" stroke-dasharray=""/></g><g><path fill="none" stroke="#000000" paint-order="fill stroke markers" d=" M 972 658 L 1107 658 L 1107 658 A 8 8 0 0 0 1115 650 L 1115 284" stroke-miterlimit="10" stroke-dasharray=""/></g><g><path fill="#000000" stroke="none" paint-order="stroke fill markers" d=" M 1119.2095177560159 294.16267485762415 L 1115 284 L 1110.7904822439841 294.16267485762415"/></g><g><path fill="none" stroke="#000000" paint-order="fill stroke markers" d=" M 1119.2095177560159 294.16267485762415 L 1115 284 L 1110.7904822439841 294.16267485762415 L 1119.2095177560159 294.16267485762415" stroke-miterlimit="10" stroke-dasharray=""/></g><g><path fill="none" stroke="#000000" paint-order="fill stroke markers" d=" M 1140 264 L 1270 264" stroke-miterlimit="10" stroke-dasharray=""/></g><g><path fill="#000000" stroke="none" paint-order="stroke fill markers" d=" M 1259.837325142376 268.209517756016 L 1270 264 L 1259.837325142376 259.790482243984"/></g><g><path fill="none" stroke="#000000" paint-order="fill stroke markers" d=" M 1259.837325142376 268.209517756016 L 1270 264 L 1259.837325142376 259.790482243984 L 1259.837325142376 268.209517756016" stroke-miterlimit="10" stroke-dasharray=""/></g><g><path fill="#C0C0C0" stroke="none" paint-order="stroke fill markers" d=" M 1547 267 C 1547 258.1634432 1554.1634432 251 1563 251 C 1571.8365568 251 1579 258.1634432 1579 267 C 1579 275.8365568 1571.8365568 283 1563 283 C 1554.1634432 283 1547 275.8365568 1547 267 Z" fill-opacity="0.2"/></g><g><path fill="#ffffff" stroke="none" paint-order="stroke fill markers" d=" M 1540 260 C 1540 251.16344320000002 1547.1634432 244 1556 244 C 1564.8365568 244 1572 251.16344320000002 1572 260 C 1572 268.8365568 1564.8365568 276 1556 276 C 1547.1634432 276 1540 268.8365568 1540 260 Z"/></g><g><path fill="none" stroke="#000000" paint-order="fill stroke markers" d=" M 1540 260 C 1540 251.16344320000002 1547.1634432 244 1556 244 C 1564.8365568 244 1572 251.16344320000002 1572 260 C 1572 268.8365568 1564.8365568 276 1556 276 C 1547.1634432 276 1540 268.8365568 1540 260 Z" stroke-miterlimit="10" stroke-width="3" stroke-dasharray=""/></g><g><rect fill="#ffffff" stroke="none" x="1627.74609375" y="476" width="124.5078125" height="16" transform="matrix(1 0 0 1 -134 -188)"/></g><g><g><path fill="none" stroke="none"/><text fill="#000000" stroke="none" font-family="Arial" font-size="16px" font-style="normal" font-weight="normal" text-decoration="undefined" x="1690" y="484" text-anchor="middle" dominant-baseline="central" transform="matrix(1 0 0 1 -134 -188)">Поиск завершон</text></g></g><g><path fill="none" stroke="#000000" paint-order="fill stroke markers" d=" M 1410 262 L 1540 262" stroke-miterlimit="10" stroke-dasharray=""/></g><g><path fill="#000000" stroke="none" paint-order="stroke fill markers" d=" M 1529.837325142376 266.209517756016 L 1540 262 L 1529.837325142376 257.790482243984"/></g><g><path fill="none" stroke="#000000" paint-order="fill stroke markers" d=" M 1529.837325142376 266.209517756016 L 1540 262 L 1529.837325142376 257.790482243984 L 1529.837325142376 266.209517756016" stroke-miterlimit="10" stroke-dasharray=""/></g><g><path fill="#FF8282" stroke="none" paint-order="stroke fill markers" d=" M 838 10 L 1007 10 L 1017 20 L 1017 339 L 838 339 L 838 10"/></g><g><path fill="none" stroke="#000000" paint-order="fill stroke markers" d=" M 838 10 L 1007 10 L 1017 20 L 1017 339 L 838 339 L 838 10 L 838 10" stroke-miterlimit="10" stroke-dasharray=""/></g><g><path fill="none" stroke="#000000" paint-order="fill stroke markers" d=" M 1007 10 L 1007 20 L 1017 20 L 1007 10" stroke-miterlimit="10" stroke-dasharray=""/></g><g><g><path fill="none" stroke="none"/><text fill="#000000" stroke="none" font-family="Arial" font-size="16px" font-style="normal" font-weight="normal" text-decoration="undefined" x="977" y="203" text-anchor="start" dominant-baseline="text-before-edge" transform="matrix(1 0 0 1 -134 -188)">question:</text></g></g><g><g><path fill="none" stroke="none"/></g></g><g><g><path fill="none" stroke="none"/><text fill="#000000" stroke="none" font-family="Arial" font-size="16px" font-style="normal" font-weight="normal" text-decoration="undefined" x="977" y="223" text-anchor="start" dominant-baseline="text-before-edge" transform="matrix(1 0 0 1 -134 -188)">Есть ли ограничения</text><text fill="#000000" stroke="none" font-family="Arial" font-size="16px" font-style="normal" font-weight="normal" text-decoration="undefined" x="977" y="239" text-anchor="start" dominant-baseline="text-before-edge" transform="matrix(1 0 0 1 -134 -188)">для поиска? (Уровень</text><text fill="#000000" stroke="none" font-family="Arial" font-size="16px" font-style="normal" font-weight="normal" text-decoration="undefined" x="977" y="255" text-anchor="start" dominant-baseline="text-before-edge" transform="matrix(1 0 0 1 -134 -188)">пользователя и т.д.) </text></g></g><g><g><path fill="none" stroke="none"/><text fill="#000000" stroke="none" font-family="Arial" font-size="16px" font-style="normal" font-weight="normal" text-decoration="undefined" x="977" y="273" text-anchor="start" dominant-baseline="text-before-edge" transform="matrix(1 0 0 1 -134 -188)">Ответ: Ограничения</text><text fill="#000000" stroke="none" font-family="Arial" font-size="16px" font-style="normal" font-weight="normal" text-decoration="undefined" x="977" y="289" text-anchor="start" dominant-baseline="text-before-edge" transform="matrix(1 0 0 1 -134 -188)">нету.</text></g></g><g><g><path fill="none" stroke="none"/><text fill="#000000" stroke="none" font-family="Arial" font-size="16px" font-style="normal" font-weight="normal" text-decoration="undefined" x="977" y="307" text-anchor="start" dominant-baseline="text-before-edge" transform="matrix(1 0 0 1 -134 -188)">Ищет ли поиск по</text><text fill="#000000" stroke="none" font-family="Arial" font-size="16px" font-style="normal" font-weight="normal" text-decoration="undefined" x="977" y="323" text-anchor="start" dominant-baseline="text-before-edge" transform="matrix(1 0 0 1 -134 -188)">сообществам в</text><text fill="#000000" stroke="none" font-family="Arial" font-size="16px" font-style="normal" font-weight="normal" text-decoration="undefined" x="977" y="339" text-anchor="start" dominant-baseline="text-before-edge" transform="matrix(1 0 0 1 -134 -188)">которых состоит</text><text fill="#000000" stroke="none" font-family="Arial" font-size="16px" font-style="normal" font-weight="normal" text-decoration="undefined" x="977" y="355" text-anchor="start" dominant-baseline="text-before-edge" transform="matrix(1 0 0 1 -134 -188)">пользователь или</text><text fill="#000000" stroke="none" font-family="Arial" font-size="16px" font-style="normal" font-weight="normal" text-decoration="undefined" x="977" y="371" text-anchor="start" dominant-baseline="text-before-edge" transform="matrix(1 0 0 1 -134 -188)">только глобальное?</text></g></g><g><g><path fill="none" stroke="none"/><text fill="#000000" stroke="none" font-family="Arial" font-size="16px" font-style="normal" font-weight="normal" text-decoration="undefined" x="977" y="389" text-anchor="start" dominant-baseline="text-before-edge" transform="matrix(1 0 0 1 -134 -188)">Ответ: Да. Поиск</text><text fill="#000000" stroke="none" font-family="Arial" font-size="16px" font-style="normal" font-weight="normal" text-decoration="undefined" x="977" y="405" text-anchor="start" dominant-baseline="text-before-edge" transform="matrix(1 0 0 1 -134 -188)">происходит в рамках</text><text fill="#000000" stroke="none" font-family="Arial" font-size="16px" font-style="normal" font-weight="normal" text-decoration="undefined" x="977" y="421" text-anchor="start" dominant-baseline="text-before-edge" transform="matrix(1 0 0 1 -134 -188)">как глобального</text><text fill="#000000" stroke="none" font-family="Arial" font-size="16px" font-style="normal" font-weight="normal" text-decoration="undefined" x="977" y="437" text-anchor="start" dominant-baseline="text-before-edge" transform="matrix(1 0 0 1 -134 -188)">сообщества так и</text><text fill="#000000" stroke="none" font-family="Arial" font-size="16px" font-style="normal" font-weight="normal" text-decoration="undefined" x="977" y="453" text-anchor="start" dominant-baseline="text-before-edge" transform="matrix(1 0 0 1 -134 -188)">сообществ в которых</text><text fill="#000000" stroke="none" font-family="Arial" font-size="16px" font-style="normal" font-weight="normal" text-decoration="undefined" x="977" y="469" text-anchor="start" dominant-baseline="text-before-edge" transform="matrix(1 0 0 1 -134 -188)">состоит пользователь.</text></g></g><g><g><path fill="none" stroke="none"/></g></g><g><g><path fill="none" stroke="none"/></g></g><g><path fill="none" stroke="#000000" paint-order="fill stroke markers" d=" M 150 277 L 334 277" stroke-miterlimit="10" stroke-dasharray=""/></g><g><path fill="#000000" stroke="none" paint-order="stroke fill markers" d=" M 323.83732514237585 281.209517756016 L 334 277 L 323.83732514237585 272.790482243984"/></g><g><path fill="none" stroke="#000000" paint-order="fill stroke markers" d=" M 323.83732514237585 281.209517756016 L 334 277 L 323.83732514237585 272.790482243984 L 323.83732514237585 281.209517756016" stroke-miterlimit="10" stroke-dasharray=""/></g></g></svg>