<svg version="1.1" xmlns="http://www.w3.org/2000/svg" xmlns:xlink="http://www.w3.org/1999/xlink" width="848" height="1532"><defs/><g><g><rect fill="#ffffff" stroke="none" x="108" y="90" width="568" height="52" transform="matrix(1 0 0 1 -98 -62)"/></g><g><path fill="#ffffff" stroke="none" paint-order="stroke fill markers" d=" M 578 28 A 26 26 0 0 1 578 80"/></g><g><path fill="none" stroke="#000000" paint-order="fill stroke markers" d=" M 10 28 L 10 80" stroke-miterlimit="10" stroke-dasharray=""/></g><g><path fill="none" stroke="#000000" paint-order="fill stroke markers" d=" M 10 28 L 578 28" stroke-miterlimit="10" stroke-dasharray=""/></g><g><path fill="none" stroke="#000000" paint-order="fill stroke markers" d=" M 10 80 L 578 80" stroke-miterlimit="10" stroke-dasharray=""/></g><g><path fill="none" stroke="#000000" paint-order="fill stroke markers" d=" M 578 28 A 26 26 0 0 1 578 80" stroke-miterlimit="10" stroke-dasharray=""/></g><g><g><path fill="none" stroke="none"/><text fill="#000000" stroke="none" font-family="Arial" font-size="16px" font-style="normal" font-weight="normal" text-decoration="undefined" x="340.75" y="108" text-anchor="middle" dominant-baseline="central" transform="matrix(1 0 0 1 -98 -62)">POST /chellanges/{challangeId}/reports/{reportId}/comments</text></g></g><g><path fill="#ffffff" stroke="#000000" paint-order="fill stroke markers" d=" M 676 44 L 699 10 L 796.484375 10 Q 819.484375 10 819.484375 44 Q 819.484375 78 796.484375 78 L 699 78 L 676 44 Z" stroke-miterlimit="10" stroke-dasharray=""/></g><g><g><path fill="none" stroke="none"/><text fill="#000000" stroke="none" font-family="Arial" font-size="16px" font-style="normal" font-weight="normal" text-decoration="undefined" x="845.7421875" y="90" text-anchor="middle" dominant-baseline="central" transform="matrix(1 0 0 1 -98 -62)">Заголовки</text><text fill="#000000" stroke="none" font-family="Arial" font-size="16px" font-style="normal" font-weight="normal" text-decoration="undefined" x="845.7421875" y="106" text-anchor="middle" dominant-baseline="central" transform="matrix(1 0 0 1 -98 -62)">запроса</text><text fill="#000000" stroke="none" font-family="Arial" font-size="16px" font-style="normal" font-weight="normal" text-decoration="undefined" x="845.7421875" y="122" text-anchor="middle" dominant-baseline="central" transform="matrix(1 0 0 1 -98 -62)">(Авторизирован)</text></g></g><g><path fill="#ffffff" stroke="none" paint-order="stroke fill markers" d=" M 106 154 L 586 154 L 490 190 L 10 190 L 106 154"/></g><g><path fill="none" stroke="#000000" paint-order="fill stroke markers" d=" M 106 154 L 586 154 L 490 190 L 10 190 L 106 154 L 106 154" stroke-miterlimit="10" stroke-dasharray=""/></g><g><g><path fill="none" stroke="none"/><text fill="#000000" stroke="none" font-family="Arial" font-size="16px" font-style="normal" font-weight="normal" text-decoration="undefined" x="396" y="234" text-anchor="middle" dominant-baseline="central" transform="matrix(1 0 0 1 -98 -62)">PostChallangesReportsCommentsRequest</text></g></g><g><path fill="#ffffff" stroke="none" paint-order="stroke fill markers" d=" M 118 244 L 487 244 Q 505 244 505 262 L 505 262 Q 505 280 487 280 L 118 280 Q 100 280 100 262 L 100 262 Q 100 244 118 244 Z"/></g><g><path fill="none" stroke="#000000" paint-order="fill stroke markers" d=" M 118 244 L 487 244 Q 505 244 505 262 L 505 262 Q 505 280 487 280 L 118 280 Q 100 280 100 262 L 100 262 Q 100 244 118 244 Z" stroke-miterlimit="10" stroke-dasharray=""/></g><g><g><path fill="none" stroke="none"/><text fill="#000000" stroke="none" font-family="Arial" font-size="16px" font-style="normal" font-weight="normal" text-decoration="undefined" x="400.5" y="324" text-anchor="middle" dominant-baseline="central" transform="matrix(1 0 0 1 -98 -62)">Аккаунт является участником челленджа</text></g></g><g><path fill="#ffffff" stroke="none" paint-order="stroke fill markers" d=" M 64 388 L 532 388 Q 550 388 550 406 L 550 406 Q 550 424 532 424 L 64 424 Q 46 424 46 406 L 46 406 Q 46 388 64 388 Z"/></g><g><path fill="none" stroke="#000000" paint-order="fill stroke markers" d=" M 64 388 L 532 388 Q 550 388 550 406 L 550 406 Q 550 424 532 424 L 64 424 Q 46 424 46 406 L 46 406 Q 46 388 64 388 Z" stroke-miterlimit="10" stroke-dasharray=""/></g><g><g><path fill="none" stroke="none"/><text fill="#000000" stroke="none" font-family="Arial" font-size="16px" font-style="normal" font-weight="normal" text-decoration="undefined" x="396" y="468" text-anchor="middle" dominant-baseline="central" transform="matrix(1 0 0 1 -98 -62)">Заполнено поле либо MediaIds либо Text</text></g></g><g><rect fill="#ffffff" stroke="none" x="126" y="648" width="504" height="36" transform="matrix(1 0 0 1 -98 -62)"/></g><g><path fill="none" stroke="#000000" paint-order="fill stroke markers" d=" M 28 586 L 532 586 L 532 622 L 28 622 L 28 586 Z Z" stroke-miterlimit="10" stroke-dasharray=""/></g><g><g><path fill="none" stroke="none"/><text fill="#000000" stroke="none" font-family="Arial" font-size="16px" font-style="normal" font-weight="normal" text-decoration="undefined" x="378" y="666" text-anchor="middle" dominant-baseline="central" transform="matrix(1 0 0 1 -98 -62)">Добавляем новый комментарий к отчёту</text></g></g><g><path fill="#ffffff" stroke="none" paint-order="stroke fill markers" d=" M 558 460 L 812 460 Q 838 460 838 486 L 838 486 Q 838 512 812 512 L 558 512 Q 532 512 532 486 L 532 486 Q 532 460 558 460 Z"/></g><g><path fill="none" stroke="#000000" paint-order="fill stroke markers" d=" M 558 460 L 812 460 Q 838 460 838 486 L 838 486 Q 838 512 812 512 L 558 512 Q 532 512 532 486 L 532 486 Q 532 460 558 460 Z" stroke-miterlimit="10" stroke-dasharray=""/></g><g><g><path fill="none" stroke="none"/><text fill="#000000" stroke="none" font-family="Arial" font-size="16px" font-style="normal" font-weight="normal" text-decoration="undefined" x="783" y="540" text-anchor="middle" dominant-baseline="central" transform="matrix(1 0 0 1 -98 -62)">Существуют медиа в хранилище с</text><text fill="#000000" stroke="none" font-family="Arial" font-size="16px" font-style="normal" font-weight="normal" text-decoration="undefined" x="783" y="556" text-anchor="middle" dominant-baseline="central" transform="matrix(1 0 0 1 -98 -62)">указанным ИД</text></g></g><g><path fill="none" stroke="#000000" paint-order="fill stroke markers" d=" M 550 388 L 686 388 L 686 388 A 8 8 0 0 1 694 396 L 694 460" stroke-miterlimit="10" stroke-dasharray=""/></g><g><path fill="#000000" stroke="none" paint-order="stroke fill markers" d=" M 689.790482243984 449.83732514237585 L 694 460 L 698.209517756016 449.83732514237585"/></g><g><path fill="none" stroke="#000000" paint-order="fill stroke markers" d=" M 689.790482243984 449.83732514237585 L 694 460 L 698.209517756016 449.83732514237585 L 689.790482243984 449.83732514237585" stroke-miterlimit="10" stroke-dasharray=""/></g><g><rect fill="#ffffff" stroke="none" x="730" y="441" width="152.546875" height="16" transform="matrix(1 0 0 1 -98 -62)"/></g><g><g><path fill="none" stroke="none"/><text fill="#000000" stroke="none" font-family="Arial" font-size="16px" font-style="normal" font-weight="normal" text-decoration="undefined" x="806.2734375" y="449" text-anchor="middle" dominant-baseline="central" transform="matrix(1 0 0 1 -98 -62)">Заполнены MediaIds</text></g></g><g><rect fill="#ffffff" stroke="none" x="630" y="1404" width="306" height="52" transform="matrix(1 0 0 1 -98 -62)"/></g><g><path fill="none" stroke="#000000" paint-order="fill stroke markers" d=" M 532 1342 L 838 1342 L 838 1394 L 532 1394 L 532 1342 Z Z" stroke-miterlimit="10" stroke-dasharray=""/></g><g><g><path fill="none" stroke="none"/><text fill="#000000" stroke="none" font-family="Arial" font-size="16px" font-style="normal" font-weight="normal" text-decoration="undefined" x="783" y="1422" text-anchor="middle" dominant-baseline="central" transform="matrix(1 0 0 1 -98 -62)">Отправляем уведомление об новом</text><text fill="#000000" stroke="none" font-family="Arial" font-size="16px" font-style="normal" font-weight="normal" text-decoration="undefined" x="783" y="1438" text-anchor="middle" dominant-baseline="central" transform="matrix(1 0 0 1 -98 -62)">комментарии</text></g></g><g><path fill="#ffffff" stroke="none" paint-order="stroke fill markers" d=" M 136 952 L 248.0390625 856 L 360.078125 952 L 248.0390625 1048 L 136 952"/></g><g><path fill="none" stroke="#000000" paint-order="fill stroke markers" d=" M 136 952 L 248.0390625 856 L 360.078125 952 L 248.0390625 1048 L 136 952 L 136 952" stroke-miterlimit="10" stroke-dasharray=""/></g><g><g><path fill="none" stroke="none"/><text fill="#000000" stroke="none" font-family="Arial" font-size="16px" font-style="normal" font-weight="normal" text-decoration="undefined" x="346.0390625" y="982" text-anchor="middle" dominant-baseline="central" transform="matrix(1 0 0 1 -98 -62)">В настройках</text><text fill="#000000" stroke="none" font-family="Arial" font-size="16px" font-style="normal" font-weight="normal" text-decoration="undefined" x="346.0390625" y="998" text-anchor="middle" dominant-baseline="central" transform="matrix(1 0 0 1 -98 -62)">включены</text><text fill="#000000" stroke="none" font-family="Arial" font-size="16px" font-style="normal" font-weight="normal" text-decoration="undefined" x="346.0390625" y="1014" text-anchor="middle" dominant-baseline="central" transform="matrix(1 0 0 1 -98 -62)">уведомление</text><text fill="#000000" stroke="none" font-family="Arial" font-size="16px" font-style="normal" font-weight="normal" text-decoration="undefined" x="346.0390625" y="1030" text-anchor="middle" dominant-baseline="central" transform="matrix(1 0 0 1 -98 -62)">"о новых</text><text fill="#000000" stroke="none" font-family="Arial" font-size="16px" font-style="normal" font-weight="normal" text-decoration="undefined" x="346.0390625" y="1046" text-anchor="middle" dominant-baseline="central" transform="matrix(1 0 0 1 -98 -62)">комментариях"</text></g></g><g><path fill="none" stroke="#000000" paint-order="fill stroke markers" d=" M 360 946 L 632 946 L 632 946 A 8 8 0 0 1 640 954 L 640 1342" stroke-miterlimit="10" stroke-dasharray=""/></g><g><path fill="#000000" stroke="none" paint-order="stroke fill markers" d=" M 635.790482243984 1331.837325142376 L 640 1342 L 644.209517756016 1331.837325142376"/></g><g><path fill="none" stroke="#000000" paint-order="fill stroke markers" d=" M 635.790482243984 1331.837325142376 L 640 1342 L 644.209517756016 1331.837325142376 L 635.790482243984 1331.837325142376" stroke-miterlimit="10" stroke-dasharray=""/></g><g><rect fill="#ffffff" stroke="none" x="522" y="989" width="19.734375" height="16" transform="matrix(1 0 0 1 -98 -62)"/></g><g><g><path fill="none" stroke="none"/><text fill="#000000" stroke="none" font-family="Arial" font-size="16px" font-style="normal" font-weight="normal" text-decoration="undefined" x="531.8671875" y="997" text-anchor="middle" dominant-baseline="central" transform="matrix(1 0 0 1 -98 -62)">Да</text></g></g><g><path fill="#ffffff" stroke="none" paint-order="stroke fill markers" d=" M 64 316 L 550 316 Q 568 316 568 334 L 568 334 Q 568 352 550 352 L 64 352 Q 46 352 46 334 L 46 334 Q 46 316 64 316 Z"/></g><g><path fill="none" stroke="#000000" paint-order="fill stroke markers" d=" M 64 316 L 550 316 Q 568 316 568 334 L 568 334 Q 568 352 550 352 L 64 352 Q 46 352 46 334 L 46 334 Q 46 316 64 316 Z" stroke-miterlimit="10" stroke-dasharray=""/></g><g><g><path fill="none" stroke="none"/><text fill="#000000" stroke="none" font-family="Arial" font-size="16px" font-style="normal" font-weight="normal" text-decoration="undefined" x="405" y="396" text-anchor="middle" dominant-baseline="central" transform="matrix(1 0 0 1 -98 -62)">IsMentor равен true и аккаунт является тренером в сообществе</text></g></g><g><path fill="#ffffff" stroke="none" paint-order="stroke fill markers" d=" M 64 1226 L 253 1162 L 442 1226 L 253 1290 L 64 1226"/></g><g><path fill="none" stroke="#000000" paint-order="fill stroke markers" d=" M 64 1226 L 253 1162 L 442 1226 L 253 1290 L 64 1226 L 64 1226" stroke-miterlimit="10" stroke-dasharray=""/></g><g><g><path fill="none" stroke="none"/><text fill="#000000" stroke="none" font-family="Arial" font-size="16px" font-style="normal" font-weight="normal" text-decoration="undefined" x="351" y="1264" text-anchor="middle" dominant-baseline="central" transform="matrix(1 0 0 1 -98 -62)">В настройках включены</text><text fill="#000000" stroke="none" font-family="Arial" font-size="16px" font-style="normal" font-weight="normal" text-decoration="undefined" x="351" y="1280" text-anchor="middle" dominant-baseline="central" transform="matrix(1 0 0 1 -98 -62)">уведомления "О новых</text><text fill="#000000" stroke="none" font-family="Arial" font-size="16px" font-style="normal" font-weight="normal" text-decoration="undefined" x="351" y="1296" text-anchor="middle" dominant-baseline="central" transform="matrix(1 0 0 1 -98 -62)">комментариях от</text><text fill="#000000" stroke="none" font-family="Arial" font-size="16px" font-style="normal" font-weight="normal" text-decoration="undefined" x="351" y="1312" text-anchor="middle" dominant-baseline="central" transform="matrix(1 0 0 1 -98 -62)">тренера"</text></g></g><g><path fill="none" stroke="#000000" paint-order="fill stroke markers" d=" M 442 1216 L 632 1216 L 632 1216 A 8 8 0 0 1 640 1224 L 640 1342" stroke-miterlimit="10" stroke-dasharray=""/></g><g><path fill="#000000" stroke="none" paint-order="stroke fill markers" d=" M 635.790482243984 1331.837325142376 L 640 1342 L 644.209517756016 1331.837325142376"/></g><g><path fill="none" stroke="#000000" paint-order="fill stroke markers" d=" M 635.790482243984 1331.837325142376 L 640 1342 L 644.209517756016 1331.837325142376 L 635.790482243984 1331.837325142376" stroke-miterlimit="10" stroke-dasharray=""/></g><g><rect fill="#ffffff" stroke="none" x="612" y="1257" width="19.734375" height="16" transform="matrix(1 0 0 1 -98 -62)"/></g><g><g><path fill="none" stroke="none"/><text fill="#000000" stroke="none" font-family="Arial" font-size="16px" font-style="normal" font-weight="normal" text-decoration="undefined" x="621.8671875" y="1265" text-anchor="middle" dominant-baseline="central" transform="matrix(1 0 0 1 -98 -62)">Да</text></g></g><g><path fill="none" stroke="#000000" paint-order="fill stroke markers" d=" M 250 1048 L 250 1162" stroke-miterlimit="10" stroke-dasharray=""/></g><g><path fill="#000000" stroke="none" paint-order="stroke fill markers" d=" M 245.790482243984 1151.837325142376 L 250 1162 L 254.209517756016 1151.837325142376"/></g><g><path fill="none" stroke="#000000" paint-order="fill stroke markers" d=" M 245.790482243984 1151.837325142376 L 250 1162 L 254.209517756016 1151.837325142376 L 245.790482243984 1151.837325142376" stroke-miterlimit="10" stroke-dasharray=""/></g><g><rect fill="#ffffff" stroke="none" x="349" y="1158" width="27.25" height="16" transform="matrix(1 0 0 1 -98 -62)"/></g><g><g><path fill="none" stroke="none"/><text fill="#000000" stroke="none" font-family="Arial" font-size="16px" font-style="normal" font-weight="normal" text-decoration="undefined" x="362.625" y="1166" text-anchor="middle" dominant-baseline="central" transform="matrix(1 0 0 1 -98 -62)">Нет</text></g></g><g><path fill="#ffffff" stroke="none" paint-order="stroke fill markers" d=" M 100 708 L 253 676 L 406 708 L 253 740 L 100 708"/></g><g><path fill="none" stroke="#000000" paint-order="fill stroke markers" d=" M 100 708 L 253 676 L 406 708 L 253 740 L 100 708 L 100 708" stroke-miterlimit="10" stroke-dasharray=""/></g><g><g><path fill="none" stroke="none"/><text fill="#000000" stroke="none" font-family="Arial" font-size="16px" font-style="normal" font-weight="normal" text-decoration="undefined" x="351" y="762" text-anchor="middle" dominant-baseline="central" transform="matrix(1 0 0 1 -98 -62)">MediaIds имеет</text><text fill="#000000" stroke="none" font-family="Arial" font-size="16px" font-style="normal" font-weight="normal" text-decoration="undefined" x="351" y="778" text-anchor="middle" dominant-baseline="central" transform="matrix(1 0 0 1 -98 -62)">элементы</text></g></g><g><rect fill="#ffffff" stroke="none" x="594" y="828" width="324" height="36" transform="matrix(1 0 0 1 -98 -62)"/></g><g><path fill="none" stroke="#000000" paint-order="fill stroke markers" d=" M 496 766 L 820 766 L 820 802 L 496 802 L 496 766 Z Z" stroke-miterlimit="10" stroke-dasharray=""/></g><g><g><path fill="none" stroke="none"/><text fill="#000000" stroke="none" font-family="Arial" font-size="16px" font-style="normal" font-weight="normal" text-decoration="undefined" x="756" y="846" text-anchor="middle" dominant-baseline="central" transform="matrix(1 0 0 1 -98 -62)">Привязать к медиа новые ссылки </text></g></g><g><path fill="none" stroke="#000000" paint-order="fill stroke markers" d=" M 406 730 L 668 730 L 668 730 A 8 8 0 0 1 676 738 L 676 766" stroke-miterlimit="10" stroke-dasharray=""/></g><g><path fill="#000000" stroke="none" paint-order="stroke fill markers" d=" M 671.790482243984 755.8373251423759 L 676 766 L 680.209517756016 755.8373251423759"/></g><g><path fill="none" stroke="#000000" paint-order="fill stroke markers" d=" M 671.790482243984 755.8373251423759 L 676 766 L 680.209517756016 755.8373251423759 L 671.790482243984 755.8373251423759" stroke-miterlimit="10" stroke-dasharray=""/></g><g><rect fill="#ffffff" stroke="none" x="540" y="755" width="19.734375" height="16" transform="matrix(1 0 0 1 -98 -62)"/></g><g><g><path fill="none" stroke="none"/><text fill="#000000" stroke="none" font-family="Arial" font-size="16px" font-style="normal" font-weight="normal" text-decoration="undefined" x="549.8671875" y="763" text-anchor="middle" dominant-baseline="central" transform="matrix(1 0 0 1 -98 -62)">Да</text></g></g><g><path fill="none" stroke="#000000" paint-order="fill stroke markers" d=" M 252 740 L 252 856" stroke-miterlimit="10" stroke-dasharray=""/></g><g><path fill="#000000" stroke="none" paint-order="stroke fill markers" d=" M 247.790482243984 845.8373251423759 L 252 856 L 256.209517756016 845.8373251423759"/></g><g><path fill="none" stroke="#000000" paint-order="fill stroke markers" d=" M 247.790482243984 845.8373251423759 L 252 856 L 256.209517756016 845.8373251423759 L 247.790482243984 845.8373251423759" stroke-miterlimit="10" stroke-dasharray=""/></g><g><rect fill="#ffffff" stroke="none" x="351" y="851" width="27.25" height="16" transform="matrix(1 0 0 1 -98 -62)"/></g><g><g><path fill="none" stroke="none"/><text fill="#000000" stroke="none" font-family="Arial" font-size="16px" font-style="normal" font-weight="normal" text-decoration="undefined" x="364.625" y="859" text-anchor="middle" dominant-baseline="central" transform="matrix(1 0 0 1 -98 -62)">Нет</text></g></g><g><path fill="#ffffff" stroke="none" paint-order="stroke fill markers" d=" M 139 1486 L 514 1486 L 439 1522 L 64 1522 L 139 1486"/></g><g><path fill="none" stroke="#000000" paint-order="fill stroke markers" d=" M 139 1486 L 514 1486 L 439 1522 L 64 1522 L 139 1486 L 139 1486" stroke-miterlimit="10" stroke-dasharray=""/></g><g><g><path fill="none" stroke="none"/><text fill="#000000" stroke="none" font-family="Arial" font-size="16px" font-style="normal" font-weight="normal" text-decoration="undefined" x="387" y="1566" text-anchor="middle" dominant-baseline="central" transform="matrix(1 0 0 1 -98 -62)">CreatedResponse</text></g></g><g><path fill="none" stroke="#000000" paint-order="fill stroke markers" d=" M 305 80 L 305 154" stroke-miterlimit="10" stroke-dasharray=""/></g><g><path fill="#000000" stroke="none" paint-order="stroke fill markers" d=" M 300.790482243984 143.83732514237585 L 305 154 L 309.209517756016 143.83732514237585"/></g><g><path fill="none" stroke="#000000" paint-order="fill stroke markers" d=" M 300.790482243984 143.83732514237585 L 305 154 L 309.209517756016 143.83732514237585 L 300.790482243984 143.83732514237585" stroke-miterlimit="10" stroke-dasharray=""/></g><g><path fill="none" stroke="#000000" paint-order="fill stroke markers" d=" M 676 78 L 676 146 L 676 146 A 8 8 0 0 1 668 154 L 586 154" stroke-miterlimit="10" stroke-dasharray=""/></g><g><path fill="#000000" stroke="none" paint-order="stroke fill markers" d=" M 596.1626748576241 149.790482243984 L 586 154 L 596.1626748576241 158.209517756016"/></g><g><path fill="none" stroke="#000000" paint-order="fill stroke markers" d=" M 596.1626748576241 149.790482243984 L 586 154 L 596.1626748576241 158.209517756016 L 596.1626748576241 149.790482243984" stroke-miterlimit="10" stroke-dasharray=""/></g><g><path fill="none" stroke="#000000" paint-order="fill stroke markers" d=" M 299 190 L 299 244" stroke-miterlimit="10" stroke-dasharray=""/></g><g><path fill="#000000" stroke="none" paint-order="stroke fill markers" d=" M 294.790482243984 233.83732514237585 L 299 244 L 303.209517756016 233.83732514237585"/></g><g><path fill="none" stroke="#000000" paint-order="fill stroke markers" d=" M 294.790482243984 233.83732514237585 L 299 244 L 303.209517756016 233.83732514237585 L 294.790482243984 233.83732514237585" stroke-miterlimit="10" stroke-dasharray=""/></g><g><path fill="none" stroke="#000000" paint-order="fill stroke markers" d=" M 303 280 L 303 316" stroke-miterlimit="10" stroke-dasharray=""/></g><g><path fill="#000000" stroke="none" paint-order="stroke fill markers" d=" M 298.790482243984 305.83732514237585 L 303 316 L 307.209517756016 305.83732514237585"/></g><g><path fill="none" stroke="#000000" paint-order="fill stroke markers" d=" M 298.790482243984 305.83732514237585 L 303 316 L 307.209517756016 305.83732514237585 L 298.790482243984 305.83732514237585" stroke-miterlimit="10" stroke-dasharray=""/></g><g><path fill="none" stroke="#000000" paint-order="fill stroke markers" d=" M 305 352 L 305 388" stroke-miterlimit="10" stroke-dasharray=""/></g><g><path fill="#000000" stroke="none" paint-order="stroke fill markers" d=" M 300.790482243984 377.83732514237585 L 305 388 L 309.209517756016 377.83732514237585"/></g><g><path fill="none" stroke="#000000" paint-order="fill stroke markers" d=" M 300.790482243984 377.83732514237585 L 305 388 L 309.209517756016 377.83732514237585 L 300.790482243984 377.83732514237585" stroke-miterlimit="10" stroke-dasharray=""/></g><g><path fill="none" stroke="#000000" paint-order="fill stroke markers" d=" M 532 512 L 378 512 L 378 512 A 8 8 0 0 0 370 520 L 370 586" stroke-miterlimit="10" stroke-dasharray=""/></g><g><path fill="#000000" stroke="none" paint-order="stroke fill markers" d=" M 365.790482243984 575.8373251423759 L 370 586 L 374.209517756016 575.8373251423759"/></g><g><path fill="none" stroke="#000000" paint-order="fill stroke markers" d=" M 365.790482243984 575.8373251423759 L 370 586 L 374.209517756016 575.8373251423759 L 365.790482243984 575.8373251423759" stroke-miterlimit="10" stroke-dasharray=""/></g><g><path fill="none" stroke="#000000" paint-order="fill stroke markers" d=" M 296 424 L 296 586" stroke-miterlimit="10" stroke-dasharray=""/></g><g><path fill="#000000" stroke="none" paint-order="stroke fill markers" d=" M 291.790482243984 575.8373251423759 L 296 586 L 300.209517756016 575.8373251423759"/></g><g><path fill="none" stroke="#000000" paint-order="fill stroke markers" d=" M 291.790482243984 575.8373251423759 L 296 586 L 300.209517756016 575.8373251423759 L 291.790482243984 575.8373251423759" stroke-miterlimit="10" stroke-dasharray=""/></g><g><path fill="none" stroke="#000000" paint-order="fill stroke markers" d=" M 275 622 L 275 676" stroke-miterlimit="10" stroke-dasharray=""/></g><g><path fill="#000000" stroke="none" paint-order="stroke fill markers" d=" M 270.790482243984 665.8373251423759 L 275 676 L 279.209517756016 665.8373251423759"/></g><g><path fill="none" stroke="#000000" paint-order="fill stroke markers" d=" M 270.790482243984 665.8373251423759 L 275 676 L 279.209517756016 665.8373251423759 L 270.790482243984 665.8373251423759" stroke-miterlimit="10" stroke-dasharray=""/></g><g><path fill="none" stroke="#000000" paint-order="fill stroke markers" d=" M 496 802 L 496 812 L 496 812 A 8 8 0 0 1 488 820 L 270 820 L 270 820 A 8 8 0 0 0 262 828 L 262 856" stroke-miterlimit="10" stroke-dasharray=""/></g><g><path fill="#000000" stroke="none" paint-order="stroke fill markers" d=" M 257.790482243984 845.8373251423759 L 262 856 L 266.209517756016 845.8373251423759"/></g><g><path fill="none" stroke="#000000" paint-order="fill stroke markers" d=" M 257.790482243984 845.8373251423759 L 262 856 L 266.209517756016 845.8373251423759 L 257.790482243984 845.8373251423759" stroke-miterlimit="10" stroke-dasharray=""/></g><g><path fill="none" stroke="#000000" paint-order="fill stroke markers" d=" M 582 1394 L 582 1496 L 582 1496 A 8 8 0 0 1 574 1504 L 514 1504" stroke-miterlimit="10" stroke-dasharray=""/></g><g><path fill="#000000" stroke="none" paint-order="stroke fill markers" d=" M 524.1626748576241 1499.7904822439841 L 514 1504 L 524.1626748576241 1508.2095177560159"/></g><g><path fill="none" stroke="#000000" paint-order="fill stroke markers" d=" M 524.1626748576241 1499.7904822439841 L 514 1504 L 524.1626748576241 1508.2095177560159 L 524.1626748576241 1499.7904822439841" stroke-miterlimit="10" stroke-dasharray=""/></g><g><path fill="none" stroke="#000000" paint-order="fill stroke markers" d=" M 263 1290 L 263 1486" stroke-miterlimit="10" stroke-dasharray=""/></g><g><path fill="#000000" stroke="none" paint-order="stroke fill markers" d=" M 258.790482243984 1475.837325142376 L 263 1486 L 267.209517756016 1475.837325142376"/></g><g><path fill="none" stroke="#000000" paint-order="fill stroke markers" d=" M 258.790482243984 1475.837325142376 L 263 1486 L 267.209517756016 1475.837325142376 L 258.790482243984 1475.837325142376" stroke-miterlimit="10" stroke-dasharray=""/></g><g><rect fill="#ffffff" stroke="none" x="363" y="1441" width="27.25" height="16" transform="matrix(1 0 0 1 -98 -62)"/></g><g><g><path fill="none" stroke="none"/><text fill="#000000" stroke="none" font-family="Arial" font-size="16px" font-style="normal" font-weight="normal" text-decoration="undefined" x="376.625" y="1449" text-anchor="middle" dominant-baseline="central" transform="matrix(1 0 0 1 -98 -62)">Нет</text></g></g></g></svg>