<svg version="1.1" xmlns="http://www.w3.org/2000/svg" xmlns:xlink="http://www.w3.org/1999/xlink" width="580" height="319"><defs/><g><g><rect fill="#ffffff" stroke="none" x="400" y="54" width="159.5" height="33" transform="matrix(1 0 0 1 -310 -44)"/></g><g><path fill="#ffffff" stroke="none" paint-order="stroke fill markers" d=" M 249.5 10 A 16.5 16.5 0 0 1 249.5 43"/></g><g><path fill="none" stroke="#000000" paint-order="fill stroke markers" d=" M 90 10 L 90 43" stroke-miterlimit="10" stroke-dasharray=""/></g><g><path fill="none" stroke="#000000" paint-order="fill stroke markers" d=" M 90 10 L 249.5 10" stroke-miterlimit="10" stroke-dasharray=""/></g><g><path fill="none" stroke="#000000" paint-order="fill stroke markers" d=" M 90 43 L 249.5 43" stroke-miterlimit="10" stroke-dasharray=""/></g><g><path fill="none" stroke="#000000" paint-order="fill stroke markers" d=" M 249.5 10 A 16.5 16.5 0 0 1 249.5 43" stroke-miterlimit="10" stroke-dasharray=""/></g><g><g><path fill="none" stroke="none"/><text fill="#000000" stroke="none" font-family="Arial" font-size="13px" font-style="normal" font-weight="normal" text-decoration="undefined" x="476" y="70.5" text-anchor="middle" dominant-baseline="central" transform="matrix(1 0 0 1 -310 -44)">PATCH /accounts/me</text></g></g><g><path fill="#ffffff" stroke="none" paint-order="stroke fill markers" d=" M 60 64 L 314 64 L 264 97 L 10 97 L 60 64"/></g><g><path fill="none" stroke="#000000" paint-order="fill stroke markers" d=" M 60 64 L 314 64 L 264 97 L 10 97 L 60 64 L 60 64" stroke-miterlimit="10" stroke-dasharray=""/></g><g><g><path fill="none" stroke="none"/><text fill="#000000" stroke="none" font-family="Arial" font-size="13px" font-style="normal" font-weight="normal" text-decoration="undefined" x="472" y="124.5" text-anchor="middle" dominant-baseline="central" transform="matrix(1 0 0 1 -310 -44)">PatchAccountMeRequest</text></g></g><g><path fill="#ffffff" stroke="#000000" paint-order="fill stroke markers" d=" M 346 35 L 383 12 L 533 12 Q 570 12 570 35 Q 570 58 533 58 L 383 58 L 346 35 Z" stroke-miterlimit="10" stroke-dasharray=""/></g><g><g><path fill="none" stroke="none"/><text fill="#000000" stroke="none" font-family="Arial" font-size="13px" font-style="normal" font-weight="normal" text-decoration="undefined" x="768" y="72.5" text-anchor="middle" dominant-baseline="central" transform="matrix(1 0 0 1 -310 -44)">Заголовки запроса</text><text fill="#000000" stroke="none" font-family="Arial" font-size="13px" font-style="normal" font-weight="normal" text-decoration="undefined" x="768" y="85.5" text-anchor="middle" dominant-baseline="central" transform="matrix(1 0 0 1 -310 -44)">(Авторизирован)</text></g></g><g><path fill="#ffffff" stroke="none" paint-order="stroke fill markers" d=" M 42 132 L 250 132 Q 274 132 274 156 L 274 156 Q 274 180 250 180 L 42 180 Q 18 180 18 156 L 18 156 Q 18 132 42 132 Z"/></g><g><path fill="none" stroke="#000000" paint-order="fill stroke markers" d=" M 42 132 L 250 132 Q 274 132 274 156 L 274 156 Q 274 180 250 180 L 42 180 Q 18 180 18 156 L 18 156 Q 18 132 42 132 Z" stroke-miterlimit="10" stroke-dasharray=""/></g><g><g><path fill="none" stroke="none"/><text fill="#000000" stroke="none" font-family="Arial" font-size="13px" font-style="normal" font-weight="normal" text-decoration="undefined" x="456" y="192.5" text-anchor="middle" dominant-baseline="central" transform="matrix(1 0 0 1 -310 -44)">Данные не менялись последние 24</text><text fill="#000000" stroke="none" font-family="Arial" font-size="13px" font-style="normal" font-weight="normal" text-decoration="undefined" x="456" y="205.5" text-anchor="middle" dominant-baseline="central" transform="matrix(1 0 0 1 -310 -44)">часа</text></g></g><g><rect fill="#ffffff" stroke="none" x="344" y="248" width="264" height="33" transform="matrix(1 0 0 1 -310 -44)"/></g><g><path fill="none" stroke="#000000" paint-order="fill stroke markers" d=" M 34 204 L 298 204 L 298 237 L 34 237 L 34 204 Z Z" stroke-miterlimit="10" stroke-dasharray=""/></g><g><g><path fill="none" stroke="none"/><text fill="#000000" stroke="none" font-family="Arial" font-size="13px" font-style="normal" font-weight="normal" text-decoration="undefined" x="476" y="264.5" text-anchor="middle" dominant-baseline="central" transform="matrix(1 0 0 1 -310 -44)">Обновить данные у пользователя </text></g></g><g><path fill="#ffffff" stroke="none" paint-order="stroke fill markers" d=" M 82 276 L 282 276 L 242 309 L 42 309 L 82 276"/></g><g><path fill="none" stroke="#000000" paint-order="fill stroke markers" d=" M 82 276 L 282 276 L 242 309 L 42 309 L 82 276 L 82 276" stroke-miterlimit="10" stroke-dasharray=""/></g><g><g><path fill="none" stroke="none"/><text fill="#000000" stroke="none" font-family="Arial" font-size="13px" font-style="normal" font-weight="normal" text-decoration="undefined" x="472" y="336.5" text-anchor="middle" dominant-baseline="central" transform="matrix(1 0 0 1 -310 -44)">NoBodyResponse</text></g></g><g><path fill="none" stroke="#000000" paint-order="fill stroke markers" d=" M 174 43 L 174 64" stroke-miterlimit="10" stroke-dasharray=""/></g><g><path fill="#000000" stroke="none" paint-order="stroke fill markers" d=" M 169.790482243984 53.837325142375846 L 174 64 L 178.209517756016 53.837325142375846"/></g><g><path fill="none" stroke="#000000" paint-order="fill stroke markers" d=" M 169.790482243984 53.837325142375846 L 174 64 L 178.209517756016 53.837325142375846 L 169.790482243984 53.837325142375846" stroke-miterlimit="10" stroke-dasharray=""/></g><g><path fill="none" stroke="#000000" paint-order="fill stroke markers" d=" M 346 58 L 346 68 L 346 68 A 8 8 0 0 1 338 76 L 314 76" stroke-miterlimit="10" stroke-dasharray=""/></g><g><path fill="#000000" stroke="none" paint-order="stroke fill markers" d=" M 324.1626748576241 71.79048224398402 L 314 76 L 324.1626748576241 80.20951775601598"/></g><g><path fill="none" stroke="#000000" paint-order="fill stroke markers" d=" M 324.1626748576241 71.79048224398402 L 314 76 L 324.1626748576241 80.20951775601598 L 324.1626748576241 71.79048224398402" stroke-miterlimit="10" stroke-dasharray=""/></g><g><path fill="none" stroke="#000000" paint-order="fill stroke markers" d=" M 158 97 L 158 132" stroke-miterlimit="10" stroke-dasharray=""/></g><g><path fill="#000000" stroke="none" paint-order="stroke fill markers" d=" M 153.790482243984 121.83732514237585 L 158 132 L 162.209517756016 121.83732514237585"/></g><g><path fill="none" stroke="#000000" paint-order="fill stroke markers" d=" M 153.790482243984 121.83732514237585 L 158 132 L 162.209517756016 121.83732514237585 L 153.790482243984 121.83732514237585" stroke-miterlimit="10" stroke-dasharray=""/></g><g><path fill="none" stroke="#000000" paint-order="fill stroke markers" d=" M 154 180 L 154 204" stroke-miterlimit="10" stroke-dasharray=""/></g><g><path fill="#000000" stroke="none" paint-order="stroke fill markers" d=" M 149.790482243984 193.83732514237585 L 154 204 L 158.209517756016 193.83732514237585"/></g><g><path fill="none" stroke="#000000" paint-order="fill stroke markers" d=" M 149.790482243984 193.83732514237585 L 154 204 L 158.209517756016 193.83732514237585 L 149.790482243984 193.83732514237585" stroke-miterlimit="10" stroke-dasharray=""/></g><g><path fill="none" stroke="#000000" paint-order="fill stroke markers" d=" M 165 237 L 165 276" stroke-miterlimit="10" stroke-dasharray=""/></g><g><path fill="#000000" stroke="none" paint-order="stroke fill markers" d=" M 160.790482243984 265.83732514237585 L 165 276 L 169.209517756016 265.83732514237585"/></g><g><path fill="none" stroke="#000000" paint-order="fill stroke markers" d=" M 160.790482243984 265.83732514237585 L 165 276 L 169.209517756016 265.83732514237585 L 160.790482243984 265.83732514237585" stroke-miterlimit="10" stroke-dasharray=""/></g></g></svg>