<svg version="1.1" xmlns="http://www.w3.org/2000/svg" xmlns:xlink="http://www.w3.org/1999/xlink" width="1460" height="1298"><defs/><g><g><path fill="none" stroke="#000000" paint-order="fill stroke markers" d=" M 10 10 L 406 10 L 406 1288 L 10 1288 L 10 10 Z Z" stroke-miterlimit="10" stroke-dasharray=""/></g><g><path fill="none" stroke="#000000" paint-order="fill stroke markers" d=" M 10 36 L 406 36" stroke-miterlimit="10" stroke-dasharray=""/></g><g><g><path fill="none" stroke="none"/><text fill="#000000" stroke="none" font-family="Arial" font-size="16px" font-style="normal" font-weight="normal" text-decoration="undefined" x="306" y="149" text-anchor="middle" dominant-baseline="text-before-edge" transform="matrix(1 0 0 1 -98 -134)">Пользователь</text></g></g><g><path fill="none" stroke="#000000" paint-order="fill stroke markers" d=" M 820 10 L 1108 10 L 1108 1288 L 820 1288 L 820 10 Z Z" stroke-miterlimit="10" stroke-dasharray=""/></g><g><path fill="none" stroke="#000000" paint-order="fill stroke markers" d=" M 820 36 L 1108 36" stroke-miterlimit="10" stroke-dasharray=""/></g><g><g><path fill="none" stroke="none"/><text fill="#000000" stroke="none" font-family="Arial" font-size="16px" font-style="normal" font-weight="normal" text-decoration="undefined" x="1062" y="149" text-anchor="middle" dominant-baseline="text-before-edge" transform="matrix(1 0 0 1 -98 -134)">Azure Blob</text></g></g><g><path fill="none" stroke="#000000" paint-order="fill stroke markers" d=" M 406 10 L 820 10 L 820 1288 L 406 1288 L 406 10 Z Z" stroke-miterlimit="10" stroke-dasharray=""/></g><g><path fill="none" stroke="#000000" paint-order="fill stroke markers" d=" M 406 36 L 820 36" stroke-miterlimit="10" stroke-dasharray=""/></g><g><g><path fill="none" stroke="none"/><text fill="#000000" stroke="none" font-family="Arial" font-size="16px" font-style="normal" font-weight="normal" text-decoration="undefined" x="711" y="149" text-anchor="middle" dominant-baseline="text-before-edge" transform="matrix(1 0 0 1 -98 -134)">Azure Function</text></g></g><g><path fill="#C0C0C0" stroke="none" paint-order="stroke fill markers" d=" M 215 105 C 215 96.16344319999999 222.16344320000002 89 231 89 C 239.83655679999998 89 247 96.16344319999999 247 105 C 247 113.83655680000001 239.83655679999998 121 231 121 C 222.16344320000002 121 215 113.83655680000001 215 105 Z" fill-opacity="0.2"/></g><g><path fill="#ffffff" stroke="none" paint-order="stroke fill markers" d=" M 208 98 C 208 89.16344319999999 215.16344320000002 82 224 82 C 232.83655679999998 82 240 89.16344319999999 240 98 C 240 106.83655680000001 232.83655679999998 114 224 114 C 215.16344320000002 114 208 106.83655680000001 208 98 Z"/></g><g><path fill="none" stroke="#000000" paint-order="fill stroke markers" d=" M 208 98 C 208 89.16344319999999 215.16344320000002 82 224 82 C 232.83655679999998 82 240 89.16344319999999 240 98 C 240 106.83655680000001 232.83655679999998 114 224 114 C 215.16344320000002 114 208 106.83655680000001 208 98 Z" stroke-miterlimit="10" stroke-dasharray=""/></g><g><rect fill="#ffffff" stroke="none" x="257.0859375" y="260" width="129.828125" height="16" transform="matrix(1 0 0 1 -98 -134)"/></g><g><g><path fill="none" stroke="none"/><text fill="#000000" stroke="none" font-family="Arial" font-size="16px" font-style="normal" font-weight="normal" text-decoration="undefined" x="322" y="268" text-anchor="middle" dominant-baseline="central" transform="matrix(1 0 0 1 -98 -134)">Выбраны файлы</text></g></g><g><path fill="#C0C0C0" stroke="none" paint-order="stroke fill markers" d=" M 117 233 L 295 233 Q 305 233 305 243 L 305 277 Q 305 287 295 287 L 117 287 Q 107 287 107 277 L 107 243 Q 107 233 117 233 Z" fill-opacity="0.2"/></g><g><path fill="#ffffff" stroke="none" paint-order="stroke fill markers" d=" M 110 226 L 288 226 Q 298 226 298 236 L 298 270 Q 298 280 288 280 L 110 280 Q 100 280 100 270 L 100 236 Q 100 226 110 226 Z"/></g><g><path fill="none" stroke="#000000" paint-order="fill stroke markers" d=" M 110 226 L 288 226 Q 298 226 298 236 L 298 270 Q 298 280 288 280 L 110 280 Q 100 280 100 270 L 100 236 Q 100 226 110 226 Z" stroke-miterlimit="10" stroke-dasharray=""/></g><g><g><path fill="none" stroke="none"/><text fill="#000000" stroke="none" font-family="Arial" font-size="16px" font-style="normal" font-weight="normal" text-decoration="undefined" x="297" y="379" text-anchor="middle" dominant-baseline="central" transform="matrix(1 0 0 1 -98 -134)">Загружаем файл на</text><text fill="#000000" stroke="none" font-family="Arial" font-size="16px" font-style="normal" font-weight="normal" text-decoration="undefined" x="297" y="395" text-anchor="middle" dominant-baseline="central" transform="matrix(1 0 0 1 -98 -134)">сервер</text></g></g><g><path fill="#C0C0C0" stroke="none" paint-order="stroke fill markers" d=" M 495 215 L 709 215 Q 719 215 719 225 L 719 259 Q 719 269 709 269 L 495 269 Q 485 269 485 259 L 485 225 Q 485 215 495 215 Z" fill-opacity="0.2"/></g><g><path fill="#ffffff" stroke="none" paint-order="stroke fill markers" d=" M 488 208 L 702 208 Q 712 208 712 218 L 712 252 Q 712 262 702 262 L 488 262 Q 478 262 478 252 L 478 218 Q 478 208 488 208 Z"/></g><g><path fill="none" stroke="#000000" paint-order="fill stroke markers" d=" M 488 208 L 702 208 Q 712 208 712 218 L 712 252 Q 712 262 702 262 L 488 262 Q 478 262 478 252 L 478 218 Q 478 208 488 208 Z" stroke-miterlimit="10" stroke-dasharray=""/></g><g><g><path fill="none" stroke="none"/><text fill="#000000" stroke="none" font-family="Arial" font-size="16px" font-style="normal" font-weight="normal" text-decoration="undefined" x="693" y="369" text-anchor="middle" dominant-baseline="central" transform="matrix(1 0 0 1 -98 -134)">Проверяем формат и размер</text></g></g><g><path fill="none" stroke="#000000" paint-order="fill stroke markers" d=" M 1108 10 L 1450 10 L 1450 1288 L 1108 1288 L 1108 10 Z Z" stroke-miterlimit="10" stroke-dasharray=""/></g><g><path fill="none" stroke="#000000" paint-order="fill stroke markers" d=" M 1108 36 L 1450 36" stroke-miterlimit="10" stroke-dasharray=""/></g><g><g><path fill="none" stroke="none"/><text fill="#000000" stroke="none" font-family="Arial" font-size="16px" font-style="normal" font-weight="normal" text-decoration="undefined" x="1377" y="149" text-anchor="middle" dominant-baseline="text-before-edge" transform="matrix(1 0 0 1 -98 -134)">Api сервис</text></g></g><g><path fill="none" stroke="#000000" paint-order="fill stroke markers" d=" M 298 234 L 478 234" stroke-miterlimit="10" stroke-dasharray=""/></g><g><path fill="#000000" stroke="none" paint-order="stroke fill markers" d=" M 467.8373251423759 238.209517756016 L 478 234 L 467.8373251423758 229.790482243984"/></g><g><path fill="none" stroke="#000000" paint-order="fill stroke markers" d=" M 467.8373251423759 238.209517756016 L 478 234 L 467.8373251423758 229.790482243984 L 467.8373251423759 238.209517756016" stroke-miterlimit="10" stroke-dasharray=""/></g><g><path fill="none" stroke="#000000" paint-order="fill stroke markers" d=" M 224 114 L 224 226" stroke-miterlimit="10" stroke-dasharray=""/></g><g><path fill="#000000" stroke="none" paint-order="stroke fill markers" d=" M 219.790482243984 215.83732514237585 L 224 226 L 228.209517756016 215.83732514237585"/></g><g><path fill="none" stroke="#000000" paint-order="fill stroke markers" d=" M 219.790482243984 215.83732514237585 L 224 226 L 228.209517756016 215.83732514237585 L 219.790482243984 215.83732514237585" stroke-miterlimit="10" stroke-dasharray=""/></g><g><path fill="#C0C0C0" stroke="none" paint-order="stroke fill markers" d=" M 477 341 L 745 341 Q 755 341 755 351 L 755 385 Q 755 395 745 395 L 477 395 Q 467 395 467 385 L 467 351 Q 467 341 477 341 Z" fill-opacity="0.2"/></g><g><path fill="#ffffff" stroke="none" paint-order="stroke fill markers" d=" M 470 334 L 738 334 Q 748 334 748 344 L 748 378 Q 748 388 738 388 L 470 388 Q 460 388 460 378 L 460 344 Q 460 334 470 334 Z"/></g><g><path fill="none" stroke="#000000" paint-order="fill stroke markers" d=" M 470 334 L 738 334 Q 748 334 748 344 L 748 378 Q 748 388 738 388 L 470 388 Q 460 388 460 378 L 460 344 Q 460 334 470 334 Z" stroke-miterlimit="10" stroke-dasharray=""/></g><g><g><path fill="none" stroke="none"/><text fill="#000000" stroke="none" font-family="Arial" font-size="16px" font-style="normal" font-weight="normal" text-decoration="undefined" x="702" y="495" text-anchor="middle" dominant-baseline="central" transform="matrix(1 0 0 1 -98 -134)">Отправка в блоб</text></g></g><g><path fill="#C0C0C0" stroke="none" paint-order="stroke fill markers" d=" M 927 413 L 1005.0234375 413 Q 1015.0234375 413 1015.0234375 423 L 1015.0234375 461 Q 1015.0234375 471 1005.0234375 471 L 927 471 Q 917 471 917 461 L 917 423 Q 917 413 927 413 Z" fill-opacity="0.2"/></g><g><path fill="#ffffff" stroke="none" paint-order="stroke fill markers" d=" M 920 406 L 998.0234375 406 Q 1008.0234375 406 1008.0234375 416 L 1008.0234375 454 Q 1008.0234375 464 998.0234375 464 L 920 464 Q 910 464 910 454 L 910 416 Q 910 406 920 406 Z"/></g><g><path fill="none" stroke="#000000" paint-order="fill stroke markers" d=" M 920 406 L 998.0234375 406 Q 1008.0234375 406 1008.0234375 416 L 1008.0234375 454 Q 1008.0234375 464 998.0234375 464 L 920 464 Q 910 464 910 454 L 910 416 Q 910 406 920 406 Z" stroke-miterlimit="10" stroke-dasharray=""/></g><g><g><path fill="none" stroke="none"/><text fill="#000000" stroke="none" font-family="Arial" font-size="16px" font-style="normal" font-weight="normal" text-decoration="undefined" x="1057.01171875" y="553" text-anchor="middle" dominant-baseline="central" transform="matrix(1 0 0 1 -98 -134)">Загрузка</text><text fill="#000000" stroke="none" font-family="Arial" font-size="16px" font-style="normal" font-weight="normal" text-decoration="undefined" x="1057.01171875" y="569" text-anchor="middle" dominant-baseline="central" transform="matrix(1 0 0 1 -98 -134)">файла в</text><text fill="#000000" stroke="none" font-family="Arial" font-size="16px" font-style="normal" font-weight="normal" text-decoration="undefined" x="1057.01171875" y="585" text-anchor="middle" dominant-baseline="central" transform="matrix(1 0 0 1 -98 -134)">блоб</text></g></g><g><path fill="#C0C0C0" stroke="none" paint-order="stroke fill markers" d=" M 495 503 L 709 503 Q 719 503 719 513 L 719 547 Q 719 557 709 557 L 495 557 Q 485 557 485 547 L 485 513 Q 485 503 495 503 Z" fill-opacity="0.2"/></g><g><path fill="#ffffff" stroke="none" paint-order="stroke fill markers" d=" M 488 496 L 702 496 Q 712 496 712 506 L 712 540 Q 712 550 702 550 L 488 550 Q 478 550 478 540 L 478 506 Q 478 496 488 496 Z"/></g><g><path fill="none" stroke="#000000" paint-order="fill stroke markers" d=" M 488 496 L 702 496 Q 712 496 712 506 L 712 540 Q 712 550 702 550 L 488 550 Q 478 550 478 540 L 478 506 Q 478 496 488 496 Z" stroke-miterlimit="10" stroke-dasharray=""/></g><g><g><path fill="none" stroke="none"/><text fill="#000000" stroke="none" font-family="Arial" font-size="16px" font-style="normal" font-weight="normal" text-decoration="undefined" x="693" y="649" text-anchor="middle" dominant-baseline="central" transform="matrix(1 0 0 1 -98 -134)">Формирование данных для</text><text fill="#000000" stroke="none" font-family="Arial" font-size="16px" font-style="normal" font-weight="normal" text-decoration="undefined" x="693" y="665" text-anchor="middle" dominant-baseline="central" transform="matrix(1 0 0 1 -98 -134)">ответа</text></g></g><g><path fill="#C0C0C0" stroke="none" paint-order="stroke fill markers" d=" M 135 575 L 287.890625 575 Q 297.890625 575 297.890625 585 L 297.890625 639 Q 297.890625 649 287.890625 649 L 135 649 Q 125 649 125 639 L 125 585 Q 125 575 135 575 Z" fill-opacity="0.2"/></g><g><path fill="#ffffff" stroke="none" paint-order="stroke fill markers" d=" M 128 568 L 280.890625 568 Q 290.890625 568 290.890625 578 L 290.890625 632 Q 290.890625 642 280.890625 642 L 128 642 Q 118 642 118 632 L 118 578 Q 118 568 128 568 Z"/></g><g><path fill="none" stroke="#000000" paint-order="fill stroke markers" d=" M 128 568 L 280.890625 568 Q 290.890625 568 290.890625 578 L 290.890625 632 Q 290.890625 642 280.890625 642 L 128 642 Q 118 642 118 632 L 118 578 Q 118 568 128 568 Z" stroke-miterlimit="10" stroke-dasharray=""/></g><g><g><path fill="none" stroke="none"/><text fill="#000000" stroke="none" font-family="Arial" font-size="16px" font-style="normal" font-weight="normal" text-decoration="undefined" x="302.4453125" y="731" text-anchor="middle" dominant-baseline="central" transform="matrix(1 0 0 1 -98 -134)">Отправка отчёта об</text><text fill="#000000" stroke="none" font-family="Arial" font-size="16px" font-style="normal" font-weight="normal" text-decoration="undefined" x="302.4453125" y="747" text-anchor="middle" dominant-baseline="central" transform="matrix(1 0 0 1 -98 -134)">выполненни челенджа</text></g></g><g><path fill="#C0C0C0" stroke="none" paint-order="stroke fill markers" d=" M 1161 683 L 1411 683 Q 1421 683 1421 693 L 1421 727 Q 1421 737 1411 737 L 1161 737 Q 1151 737 1151 727 L 1151 693 Q 1151 683 1161 683 Z" fill-opacity="0.2"/></g><g><path fill="#ffffff" stroke="none" paint-order="stroke fill markers" d=" M 1154 676 L 1404 676 Q 1414 676 1414 686 L 1414 720 Q 1414 730 1404 730 L 1154 730 Q 1144 730 1144 720 L 1144 686 Q 1144 676 1154 676 Z"/></g><g><path fill="none" stroke="#000000" paint-order="fill stroke markers" d=" M 1154 676 L 1404 676 Q 1414 676 1414 686 L 1414 720 Q 1414 730 1404 730 L 1154 730 Q 1144 730 1144 720 L 1144 686 Q 1144 676 1154 676 Z" stroke-miterlimit="10" stroke-dasharray=""/></g><g><g><path fill="none" stroke="none"/><text fill="#000000" stroke="none" font-family="Arial" font-size="16px" font-style="normal" font-weight="normal" text-decoration="undefined" x="1377" y="837" text-anchor="middle" dominant-baseline="central" transform="matrix(1 0 0 1 -98 -134)">Проверка наличия файлов в блоб</text></g></g><g><path fill="#C0C0C0" stroke="none" paint-order="stroke fill markers" d=" M 1161 791 L 1429 791 Q 1439 791 1439 801 L 1439 835 Q 1439 845 1429 845 L 1161 845 Q 1151 845 1151 835 L 1151 801 Q 1151 791 1161 791 Z" fill-opacity="0.2"/></g><g><path fill="#ffffff" stroke="none" paint-order="stroke fill markers" d=" M 1154 784 L 1422 784 Q 1432 784 1432 794 L 1432 828 Q 1432 838 1422 838 L 1154 838 Q 1144 838 1144 828 L 1144 794 Q 1144 784 1154 784 Z"/></g><g><path fill="none" stroke="#000000" paint-order="fill stroke markers" d=" M 1154 784 L 1422 784 Q 1432 784 1432 794 L 1432 828 Q 1432 838 1422 838 L 1154 838 Q 1144 838 1144 828 L 1144 794 Q 1144 784 1154 784 Z" stroke-miterlimit="10" stroke-dasharray=""/></g><g><g><path fill="none" stroke="none"/><text fill="#000000" stroke="none" font-family="Arial" font-size="16px" font-style="normal" font-weight="normal" text-decoration="undefined" x="1386" y="937" text-anchor="middle" dominant-baseline="central" transform="matrix(1 0 0 1 -98 -134)">Добавление записи в бд об</text><text fill="#000000" stroke="none" font-family="Arial" font-size="16px" font-style="normal" font-weight="normal" text-decoration="undefined" x="1386" y="953" text-anchor="middle" dominant-baseline="central" transform="matrix(1 0 0 1 -98 -134)">выполнении челленджа</text></g></g><g><path fill="#C0C0C0" stroke="none" paint-order="stroke fill markers" d=" M 171 935 L 343.59375 935 Q 353.59375 935 353.59375 945 L 353.59375 1015 Q 353.59375 1025 343.59375 1025 L 171 1025 Q 161 1025 161 1015 L 161 945 Q 161 935 171 935 Z" fill-opacity="0.2"/></g><g><path fill="#ffffff" stroke="none" paint-order="stroke fill markers" d=" M 164 928 L 336.59375 928 Q 346.59375 928 346.59375 938 L 346.59375 1008 Q 346.59375 1018 336.59375 1018 L 164 1018 Q 154 1018 154 1008 L 154 938 Q 154 928 164 928 Z"/></g><g><path fill="none" stroke="#000000" paint-order="fill stroke markers" d=" M 164 928 L 336.59375 928 Q 346.59375 928 346.59375 938 L 346.59375 1008 Q 346.59375 1018 336.59375 1018 L 164 1018 Q 154 1018 154 1008 L 154 938 Q 154 928 164 928 Z" stroke-miterlimit="10" stroke-dasharray=""/></g><g><g><path fill="none" stroke="none"/><text fill="#000000" stroke="none" font-family="Arial" font-size="16px" font-style="normal" font-weight="normal" text-decoration="undefined" x="348.296875" y="1091" text-anchor="middle" dominant-baseline="central" transform="matrix(1 0 0 1 -98 -134)">Отобразить статус</text><text fill="#000000" stroke="none" font-family="Arial" font-size="16px" font-style="normal" font-weight="normal" text-decoration="undefined" x="348.296875" y="1107" text-anchor="middle" dominant-baseline="central" transform="matrix(1 0 0 1 -98 -134)">загрузки файлов</text><text fill="#000000" stroke="none" font-family="Arial" font-size="16px" font-style="normal" font-weight="normal" text-decoration="undefined" x="348.296875" y="1123" text-anchor="middle" dominant-baseline="central" transform="matrix(1 0 0 1 -98 -134)">"Загружены"</text></g></g><g><path fill="#C0C0C0" stroke="none" paint-order="stroke fill markers" d=" M 233 1142 C 233 1127.0883104 245.0883104 1115 260 1115 C 274.9116896 1115 287 1127.0883104 287 1142 C 287 1156.9116896 274.9116896 1169 260 1169 C 245.0883104 1169 233 1156.9116896 233 1142 Z" fill-opacity="0.2"/></g><g><path fill="#ffffff" stroke="none" paint-order="stroke fill markers" d=" M 226 1135 C 226 1120.0883104 238.0883104 1108 253 1108 C 267.9116896 1108 280 1120.0883104 280 1135 C 280 1149.9116896 267.9116896 1162 253 1162 C 238.0883104 1162 226 1149.9116896 226 1135 Z"/></g><g><path fill="none" stroke="#000000" paint-order="fill stroke markers" d=" M 226 1135 C 226 1120.0883104 238.0883104 1108 253 1108 C 267.9116896 1108 280 1120.0883104 280 1135 C 280 1149.9116896 267.9116896 1162 253 1162 C 238.0883104 1162 226 1149.9116896 226 1135 Z" stroke-miterlimit="10" stroke-width="3" stroke-dasharray=""/></g><g><rect fill="#ffffff" stroke="none" x="240.0234375" y="1297" width="221.953125" height="16" transform="matrix(1 0 0 1 -98 -134)"/></g><g><g><path fill="none" stroke="none"/><text fill="#000000" stroke="none" font-family="Arial" font-size="16px" font-style="normal" font-weight="normal" text-decoration="undefined" x="351" y="1305" text-anchor="middle" dominant-baseline="central" transform="matrix(1 0 0 1 -98 -134)">Завершение загрузки файлов</text></g></g><g><path fill="none" stroke="#000000" paint-order="fill stroke markers" d=" M 647 262 L 647 334" stroke-miterlimit="10" stroke-dasharray=""/></g><g><path fill="#000000" stroke="none" paint-order="stroke fill markers" d=" M 642.790482243984 323.83732514237585 L 647 334 L 651.209517756016 323.83732514237585"/></g><g><path fill="none" stroke="#000000" paint-order="fill stroke markers" d=" M 642.790482243984 323.83732514237585 L 647 334 L 651.209517756016 323.83732514237585 L 642.790482243984 323.83732514237585" stroke-miterlimit="10" stroke-dasharray=""/></g><g><path fill="none" stroke="#000000" paint-order="fill stroke markers" d=" M 748 352 L 951 352 L 951 352 A 8 8 0 0 1 959 360 L 959 406" stroke-miterlimit="10" stroke-dasharray=""/></g><g><path fill="#000000" stroke="none" paint-order="stroke fill markers" d=" M 954.7904822439841 395.8373251423759 L 959 406 L 963.2095177560159 395.8373251423759"/></g><g><path fill="none" stroke="#000000" paint-order="fill stroke markers" d=" M 954.7904822439841 395.8373251423759 L 959 406 L 963.2095177560159 395.8373251423759 L 954.7904822439841 395.8373251423759" stroke-miterlimit="10" stroke-dasharray=""/></g><g><path fill="none" stroke="#000000" paint-order="fill stroke markers" d=" M 959 464 L 959 488 L 959 488 A 8 8 0 0 1 951 496 L 712 496" stroke-miterlimit="10" stroke-dasharray=""/></g><g><path fill="#000000" stroke="none" paint-order="stroke fill markers" d=" M 722.1626748576241 491.790482243984 L 712 496 L 722.1626748576241 500.209517756016"/></g><g><path fill="none" stroke="#000000" paint-order="fill stroke markers" d=" M 722.1626748576241 491.790482243984 L 712 496 L 722.1626748576241 500.209517756016 L 722.1626748576241 491.790482243984" stroke-miterlimit="10" stroke-dasharray=""/></g><g><path fill="none" stroke="#000000" paint-order="fill stroke markers" d=" M 478 514 L 248 514 L 248 514 A 8 8 0 0 0 240 522 L 240 568" stroke-miterlimit="10" stroke-dasharray=""/></g><g><path fill="#000000" stroke="none" paint-order="stroke fill markers" d=" M 235.790482243984 557.8373251423759 L 240 568 L 244.209517756016 557.8373251423759"/></g><g><path fill="none" stroke="#000000" paint-order="fill stroke markers" d=" M 235.790482243984 557.8373251423759 L 240 568 L 244.209517756016 557.8373251423759 L 235.790482243984 557.8373251423759" stroke-miterlimit="10" stroke-dasharray=""/></g><g><path fill="none" stroke="#000000" paint-order="fill stroke markers" d=" M 291 607 L 1271 607 L 1271 607 A 8 8 0 0 1 1279 615 L 1279 676" stroke-miterlimit="10" stroke-dasharray=""/></g><g><path fill="#000000" stroke="none" paint-order="stroke fill markers" d=" M 1274.7904822439841 665.8373251423759 L 1279 676 L 1283.2095177560159 665.8373251423759"/></g><g><path fill="none" stroke="#000000" paint-order="fill stroke markers" d=" M 1274.7904822439841 665.8373251423759 L 1279 676 L 1283.2095177560159 665.8373251423759 L 1274.7904822439841 665.8373251423759" stroke-miterlimit="10" stroke-dasharray=""/></g><g><path fill="none" stroke="#000000" paint-order="fill stroke markers" d=" M 1281 730 L 1281 784" stroke-miterlimit="10" stroke-dasharray=""/></g><g><path fill="#000000" stroke="none" paint-order="stroke fill markers" d=" M 1276.7904822439841 773.8373251423759 L 1281 784 L 1285.2095177560159 773.8373251423759"/></g><g><path fill="none" stroke="#000000" paint-order="fill stroke markers" d=" M 1276.7904822439841 773.8373251423759 L 1281 784 L 1285.2095177560159 773.8373251423759 L 1276.7904822439841 773.8373251423759" stroke-miterlimit="10" stroke-dasharray=""/></g><g><path fill="none" stroke="#000000" paint-order="fill stroke markers" d=" M 1144 820 L 231 820 L 231 820 A 8 8 0 0 0 223 828 L 223 928" stroke-miterlimit="10" stroke-dasharray=""/></g><g><path fill="#000000" stroke="none" paint-order="stroke fill markers" d=" M 218.790482243984 917.8373251423759 L 223 928 L 227.209517756016 917.8373251423759"/></g><g><path fill="none" stroke="#000000" paint-order="fill stroke markers" d=" M 218.790482243984 917.8373251423759 L 223 928 L 227.209517756016 917.8373251423759 L 218.790482243984 917.8373251423759" stroke-miterlimit="10" stroke-dasharray=""/></g><g><path fill="none" stroke="#000000" paint-order="fill stroke markers" d=" M 261 1018 L 261 1108" stroke-miterlimit="10" stroke-dasharray=""/></g><g><path fill="#000000" stroke="none" paint-order="stroke fill markers" d=" M 256.790482243984 1097.837325142376 L 261 1108 L 265.209517756016 1097.837325142376"/></g><g><path fill="none" stroke="#000000" paint-order="fill stroke markers" d=" M 256.790482243984 1097.837325142376 L 261 1108 L 265.209517756016 1097.837325142376 L 256.790482243984 1097.837325142376" stroke-miterlimit="10" stroke-dasharray=""/></g></g></svg>