<svg version="1.1" xmlns="http://www.w3.org/2000/svg" xmlns:xlink="http://www.w3.org/1999/xlink" width="685.484375" height="632"><defs/><g><g><rect fill="#ffffff" stroke="none" x="324" y="54" width="234" height="36" transform="matrix(1 0 0 1 -188 -44)"/></g><g><path fill="#ffffff" stroke="none" paint-order="stroke fill markers" d=" M 370 10 A 18 18 0 0 1 370 46"/></g><g><path fill="none" stroke="#000000" paint-order="fill stroke markers" d=" M 136 10 L 136 46" stroke-miterlimit="10" stroke-dasharray=""/></g><g><path fill="none" stroke="#000000" paint-order="fill stroke markers" d=" M 136 10 L 370 10" stroke-miterlimit="10" stroke-dasharray=""/></g><g><path fill="none" stroke="#000000" paint-order="fill stroke markers" d=" M 136 46 L 370 46" stroke-miterlimit="10" stroke-dasharray=""/></g><g><path fill="none" stroke="#000000" paint-order="fill stroke markers" d=" M 370 10 A 18 18 0 0 1 370 46" stroke-miterlimit="10" stroke-dasharray=""/></g><g><g><path fill="none" stroke="none"/><text fill="#000000" stroke="none" font-family="Arial" font-size="16px" font-style="normal" font-weight="normal" text-decoration="undefined" x="428.5" y="72" text-anchor="middle" dominant-baseline="central" transform="matrix(1 0 0 1 -188 -44)">POST /chellenges</text></g></g><g><path fill="#ffffff" stroke="#000000" paint-order="fill stroke markers" d=" M 532 44 L 555 10 L 652.484375 10 Q 675.484375 10 675.484375 44 Q 675.484375 78 652.484375 78 L 555 78 L 532 44 Z" stroke-miterlimit="10" stroke-dasharray=""/></g><g><g><path fill="none" stroke="none"/><text fill="#000000" stroke="none" font-family="Arial" font-size="16px" font-style="normal" font-weight="normal" text-decoration="undefined" x="791.7421875" y="72" text-anchor="middle" dominant-baseline="central" transform="matrix(1 0 0 1 -188 -44)">Заголовки</text><text fill="#000000" stroke="none" font-family="Arial" font-size="16px" font-style="normal" font-weight="normal" text-decoration="undefined" x="791.7421875" y="88" text-anchor="middle" dominant-baseline="central" transform="matrix(1 0 0 1 -188 -44)">запроса</text><text fill="#000000" stroke="none" font-family="Arial" font-size="16px" font-style="normal" font-weight="normal" text-decoration="undefined" x="791.7421875" y="104" text-anchor="middle" dominant-baseline="central" transform="matrix(1 0 0 1 -188 -44)">(Авторизирован)</text></g></g><g><path fill="#ffffff" stroke="none" paint-order="stroke fill markers" d=" M 115 100 L 460 100 L 391 136 L 46 136 L 115 100"/></g><g><path fill="none" stroke="#000000" paint-order="fill stroke markers" d=" M 115 100 L 460 100 L 391 136 L 46 136 L 115 100 L 115 100" stroke-miterlimit="10" stroke-dasharray=""/></g><g><g><path fill="none" stroke="none"/><text fill="#000000" stroke="none" font-family="Arial" font-size="16px" font-style="normal" font-weight="normal" text-decoration="undefined" x="441" y="162" text-anchor="middle" dominant-baseline="central" transform="matrix(1 0 0 1 -188 -44)">PostChallengeRequest</text></g></g><g><rect fill="#ffffff" stroke="none" x="234" y="432" width="432" height="36" transform="matrix(1 0 0 1 -188 -44)"/></g><g><path fill="none" stroke="#000000" paint-order="fill stroke markers" d=" M 46 388 L 478 388 L 478 424 L 46 424 L 46 388 Z Z" stroke-miterlimit="10" stroke-dasharray=""/></g><g><g><path fill="none" stroke="none"/><text fill="#000000" stroke="none" font-family="Arial" font-size="16px" font-style="normal" font-weight="normal" text-decoration="undefined" x="450" y="450" text-anchor="middle" dominant-baseline="central" transform="matrix(1 0 0 1 -188 -44)">Создать новый челлндж</text></g></g><g><path fill="#ffffff" stroke="none" paint-order="stroke fill markers" d=" M 88 586 L 478 586 L 400 622 L 10 622 L 88 586"/></g><g><path fill="none" stroke="#000000" paint-order="fill stroke markers" d=" M 88 586 L 478 586 L 400 622 L 10 622 L 88 586 L 88 586" stroke-miterlimit="10" stroke-dasharray=""/></g><g><g><path fill="none" stroke="none"/><text fill="#000000" stroke="none" font-family="Arial" font-size="16px" font-style="normal" font-weight="normal" text-decoration="undefined" x="432" y="648" text-anchor="middle" dominant-baseline="central" transform="matrix(1 0 0 1 -188 -44)">NoBodyResponse</text></g></g><g><path fill="none" stroke="#000000" paint-order="fill stroke markers" d=" M 532 78 L 532 92 L 532 92 A 8 8 0 0 1 524 100 L 460 100" stroke-miterlimit="10" stroke-dasharray=""/></g><g><path fill="#000000" stroke="none" paint-order="stroke fill markers" d=" M 470.1626748576241 95.790482243984 L 460 100 L 470.1626748576241 104.209517756016"/></g><g><path fill="none" stroke="#000000" paint-order="fill stroke markers" d=" M 470.1626748576241 95.790482243984 L 460 100 L 470.1626748576241 104.209517756016 L 470.1626748576241 95.790482243984" stroke-miterlimit="10" stroke-dasharray=""/></g><g><path fill="none" stroke="#000000" paint-order="fill stroke markers" d=" M 260 46 L 260 100" stroke-miterlimit="10" stroke-dasharray=""/></g><g><path fill="#000000" stroke="none" paint-order="stroke fill markers" d=" M 255.790482243984 89.83732514237585 L 260 100 L 264.209517756016 89.83732514237585"/></g><g><path fill="none" stroke="#000000" paint-order="fill stroke markers" d=" M 255.790482243984 89.83732514237585 L 260 100 L 264.209517756016 89.83732514237585 L 255.790482243984 89.83732514237585" stroke-miterlimit="10" stroke-dasharray=""/></g><g><path fill="#ffffff" stroke="none" paint-order="stroke fill markers" d=" M 532 504 L 550 478 L 625.6171875 478 L 643.6171875 504 L 625.6171875 530 L 550 530 L 532 504"/></g><g><path fill="none" stroke="#000000" paint-order="fill stroke markers" d=" M 532 504 L 550 478 L 625.6171875 478 L 643.6171875 504 L 625.6171875 530 L 550 530 L 532 504 L 532 504" stroke-miterlimit="10" stroke-dasharray=""/></g><g><g><path fill="none" stroke="none"/><text fill="#000000" stroke="none" font-family="Arial" font-size="16px" font-style="normal" font-weight="normal" text-decoration="undefined" x="775.80859375" y="540" text-anchor="middle" dominant-baseline="central" transform="matrix(1 0 0 1 -188 -44)">Создание</text><text fill="#000000" stroke="none" font-family="Arial" font-size="16px" font-style="normal" font-weight="normal" text-decoration="undefined" x="775.80859375" y="556" text-anchor="middle" dominant-baseline="central" transform="matrix(1 0 0 1 -188 -44)">челленджа</text></g></g><g><path fill="none" stroke="#000000" paint-order="fill stroke markers" d=" M 260 424 L 260 586" stroke-miterlimit="10" stroke-dasharray=""/></g><g><path fill="#000000" stroke="none" paint-order="stroke fill markers" d=" M 255.790482243984 575.8373251423759 L 260 586 L 264.209517756016 575.8373251423759"/></g><g><path fill="none" stroke="#000000" paint-order="fill stroke markers" d=" M 255.790482243984 575.8373251423759 L 260 586 L 264.209517756016 575.8373251423759 L 255.790482243984 575.8373251423759" stroke-miterlimit="10" stroke-dasharray=""/></g><g><path fill="none" stroke="#000000" paint-order="fill stroke markers" d=" M 335 424 L 335 482 L 335 482 A 8 8 0 0 0 343 490 L 532 490" stroke-miterlimit="10" stroke-dasharray=""/></g><g><path fill="#000000" stroke="none" paint-order="stroke fill markers" d=" M 521.8373251423759 494.209517756016 L 532 490 L 521.8373251423758 485.790482243984"/></g><g><path fill="none" stroke="#000000" paint-order="fill stroke markers" d=" M 521.8373251423759 494.209517756016 L 532 490 L 521.8373251423758 485.790482243984 L 521.8373251423759 494.209517756016" stroke-miterlimit="10" stroke-dasharray=""/></g><g><path fill="#ffffff" stroke="none" paint-order="stroke fill markers" d=" M 100 172 L 416.21875 172 Q 434.21875 172 434.21875 190 L 434.21875 190 Q 434.21875 208 416.21875 208 L 100 208 Q 82 208 82 190 L 82 190 Q 82 172 100 172 Z"/></g><g><path fill="none" stroke="#000000" paint-order="fill stroke markers" d=" M 100 172 L 416.21875 172 Q 434.21875 172 434.21875 190 L 434.21875 190 Q 434.21875 208 416.21875 208 L 100 208 Q 82 208 82 190 L 82 190 Q 82 172 100 172 Z" stroke-miterlimit="10" stroke-dasharray=""/></g><g><g><path fill="none" stroke="none"/><text fill="#000000" stroke="none" font-family="Arial" font-size="16px" font-style="normal" font-weight="normal" text-decoration="undefined" x="446.109375" y="234" text-anchor="middle" dominant-baseline="central" transform="matrix(1 0 0 1 -188 -44)">Роль пользователя в сообществе "Участник"</text></g></g><g><path fill="none" stroke="#000000" paint-order="fill stroke markers" d=" M 336 136 L 336 172" stroke-miterlimit="10" stroke-dasharray=""/></g><g><path fill="#000000" stroke="none" paint-order="stroke fill markers" d=" M 331.790482243984 161.83732514237585 L 336 172 L 340.209517756016 161.83732514237585"/></g><g><path fill="none" stroke="#000000" paint-order="fill stroke markers" d=" M 331.790482243984 161.83732514237585 L 336 172 L 340.209517756016 161.83732514237585 L 331.790482243984 161.83732514237585" stroke-miterlimit="10" stroke-dasharray=""/></g><g><path fill="#ffffff" stroke="none" paint-order="stroke fill markers" d=" M 118 262 L 406 262 Q 424 262 424 280 L 424 280 Q 424 298 406 298 L 118 298 Q 100 298 100 280 L 100 280 Q 100 262 118 262 Z"/></g><g><path fill="none" stroke="#000000" paint-order="fill stroke markers" d=" M 118 262 L 406 262 Q 424 262 424 280 L 424 280 Q 424 298 406 298 L 118 298 Q 100 298 100 280 L 100 280 Q 100 262 118 262 Z" stroke-miterlimit="10" stroke-dasharray=""/></g><g><g><path fill="none" stroke="none"/><text fill="#000000" stroke="none" font-family="Arial" font-size="16px" font-style="normal" font-weight="normal" text-decoration="undefined" x="450" y="324" text-anchor="middle" dominant-baseline="central" transform="matrix(1 0 0 1 -188 -44)">Шаблон кд разрешен в сообществе</text></g></g><g><path fill="none" stroke="#000000" paint-order="fill stroke markers" d=" M 259 208 L 259 262" stroke-miterlimit="10" stroke-dasharray=""/></g><g><path fill="#000000" stroke="none" paint-order="stroke fill markers" d=" M 254.790482243984 251.83732514237585 L 259 262 L 263.209517756016 251.83732514237585"/></g><g><path fill="none" stroke="#000000" paint-order="fill stroke markers" d=" M 254.790482243984 251.83732514237585 L 259 262 L 263.209517756016 251.83732514237585 L 254.790482243984 251.83732514237585" stroke-miterlimit="10" stroke-dasharray=""/></g><g><path fill="none" stroke="#000000" paint-order="fill stroke markers" d=" M 262 298 L 262 388" stroke-miterlimit="10" stroke-dasharray=""/></g><g><path fill="#000000" stroke="none" paint-order="stroke fill markers" d=" M 257.790482243984 377.83732514237585 L 262 388 L 266.209517756016 377.83732514237585"/></g><g><path fill="none" stroke="#000000" paint-order="fill stroke markers" d=" M 257.790482243984 377.83732514237585 L 262 388 L 266.209517756016 377.83732514237585 L 257.790482243984 377.83732514237585" stroke-miterlimit="10" stroke-dasharray=""/></g></g></svg>