<svg version="1.1" xmlns="http://www.w3.org/2000/svg" xmlns:xlink="http://www.w3.org/1999/xlink" width="703.484375" height="434"><defs/><g><g><rect fill="#ffffff" stroke="none" x="252" y="72" width="450" height="36" transform="matrix(1 0 0 1 -242 -44)"/></g><g><path fill="#ffffff" stroke="none" paint-order="stroke fill markers" d=" M 460 28 A 18 18 0 0 1 460 64"/></g><g><path fill="none" stroke="#000000" paint-order="fill stroke markers" d=" M 10 28 L 10 64" stroke-miterlimit="10" stroke-dasharray=""/></g><g><path fill="none" stroke="#000000" paint-order="fill stroke markers" d=" M 10 28 L 460 28" stroke-miterlimit="10" stroke-dasharray=""/></g><g><path fill="none" stroke="#000000" paint-order="fill stroke markers" d=" M 10 64 L 460 64" stroke-miterlimit="10" stroke-dasharray=""/></g><g><path fill="none" stroke="#000000" paint-order="fill stroke markers" d=" M 460 28 A 18 18 0 0 1 460 64" stroke-miterlimit="10" stroke-dasharray=""/></g><g><g><path fill="none" stroke="none"/><text fill="#000000" stroke="none" font-family="Arial" font-size="16px" font-style="normal" font-weight="normal" text-decoration="undefined" x="437.5" y="90" text-anchor="middle" dominant-baseline="central" transform="matrix(1 0 0 1 -242 -44)">GET /challanges/{challangeId}/info</text></g></g><g><path fill="#ffffff" stroke="#000000" paint-order="fill stroke markers" d=" M 550 44 L 573 10 L 670.484375 10 Q 693.484375 10 693.484375 44 Q 693.484375 78 670.484375 78 L 573 78 L 550 44 Z" stroke-miterlimit="10" stroke-dasharray=""/></g><g><g><path fill="none" stroke="none"/><text fill="#000000" stroke="none" font-family="Arial" font-size="16px" font-style="normal" font-weight="normal" text-decoration="undefined" x="863.7421875" y="72" text-anchor="middle" dominant-baseline="central" transform="matrix(1 0 0 1 -242 -44)">Заголовки</text><text fill="#000000" stroke="none" font-family="Arial" font-size="16px" font-style="normal" font-weight="normal" text-decoration="undefined" x="863.7421875" y="88" text-anchor="middle" dominant-baseline="central" transform="matrix(1 0 0 1 -242 -44)">запроса</text><text fill="#000000" stroke="none" font-family="Arial" font-size="16px" font-style="normal" font-weight="normal" text-decoration="undefined" x="863.7421875" y="104" text-anchor="middle" dominant-baseline="central" transform="matrix(1 0 0 1 -242 -44)">(Авторизирован)</text></g></g><g><path fill="#ffffff" stroke="none" paint-order="stroke fill markers" d=" M 97 118 L 442 118 L 373 154 L 28 154 L 97 118"/></g><g><path fill="none" stroke="#000000" paint-order="fill stroke markers" d=" M 97 118 L 442 118 L 373 154 L 28 154 L 97 118 L 97 118" stroke-miterlimit="10" stroke-dasharray=""/></g><g><g><path fill="none" stroke="none"/><text fill="#000000" stroke="none" font-family="Arial" font-size="16px" font-style="normal" font-weight="normal" text-decoration="undefined" x="477" y="180" text-anchor="middle" dominant-baseline="central" transform="matrix(1 0 0 1 -242 -44)">GetChallangesInfoRequest</text></g></g><g><path fill="#ffffff" stroke="none" paint-order="stroke fill markers" d=" M 100 190 L 389.6796875 190 Q 407.6796875 190 407.6796875 208 L 407.6796875 208 Q 407.6796875 226 389.6796875 226 L 100 226 Q 82 226 82 208 L 82 208 Q 82 190 100 190 Z"/></g><g><path fill="none" stroke="#000000" paint-order="fill stroke markers" d=" M 100 190 L 389.6796875 190 Q 407.6796875 190 407.6796875 208 L 407.6796875 208 Q 407.6796875 226 389.6796875 226 L 100 226 Q 82 226 82 208 L 82 208 Q 82 190 100 190 Z" stroke-miterlimit="10" stroke-dasharray=""/></g><g><g><path fill="none" stroke="none"/><text fill="#000000" stroke="none" font-family="Arial" font-size="16px" font-style="normal" font-weight="normal" text-decoration="undefined" x="486.83984375" y="252" text-anchor="middle" dominant-baseline="central" transform="matrix(1 0 0 1 -242 -44)">Аккаунт является участником челленджа</text></g></g><g><path fill="#ffffff" stroke="none" paint-order="stroke fill markers" d=" M 100 388 L 460 388 L 388 424 L 28 424 L 100 388"/></g><g><path fill="none" stroke="#000000" paint-order="fill stroke markers" d=" M 100 388 L 460 388 L 388 424 L 28 424 L 100 388 L 100 388" stroke-miterlimit="10" stroke-dasharray=""/></g><g><g><path fill="none" stroke="none"/><text fill="#000000" stroke="none" font-family="Arial" font-size="16px" font-style="normal" font-weight="normal" text-decoration="undefined" x="486" y="450" text-anchor="middle" dominant-baseline="central" transform="matrix(1 0 0 1 -242 -44)">GetChallangesInfoResponse</text></g></g><g><rect fill="#ffffff" stroke="none" x="306" y="324" width="360" height="36" transform="matrix(1 0 0 1 -242 -44)"/></g><g><path fill="none" stroke="#000000" paint-order="fill stroke markers" d=" M 64 280 L 424 280 L 424 316 L 64 316 L 64 280 Z Z" stroke-miterlimit="10" stroke-dasharray=""/></g><g><g><path fill="none" stroke="none"/><text fill="#000000" stroke="none" font-family="Arial" font-size="16px" font-style="normal" font-weight="normal" text-decoration="undefined" x="486" y="342" text-anchor="middle" dominant-baseline="central" transform="matrix(1 0 0 1 -242 -44)">Извлечь информацию про челлендж</text></g></g><g><path fill="none" stroke="#000000" paint-order="fill stroke markers" d=" M 242 64 L 242 118" stroke-miterlimit="10" stroke-dasharray=""/></g><g><path fill="#000000" stroke="none" paint-order="stroke fill markers" d=" M 237.790482243984 107.83732514237585 L 242 118 L 246.209517756016 107.83732514237585"/></g><g><path fill="none" stroke="#000000" paint-order="fill stroke markers" d=" M 237.790482243984 107.83732514237585 L 242 118 L 246.209517756016 107.83732514237585 L 237.790482243984 107.83732514237585" stroke-miterlimit="10" stroke-dasharray=""/></g><g><path fill="none" stroke="#000000" paint-order="fill stroke markers" d=" M 550 78 L 550 110 L 550 110 A 8 8 0 0 1 542 118 L 442 118" stroke-miterlimit="10" stroke-dasharray=""/></g><g><path fill="#000000" stroke="none" paint-order="stroke fill markers" d=" M 452.1626748576241 113.790482243984 L 442 118 L 452.1626748576241 122.209517756016"/></g><g><path fill="none" stroke="#000000" paint-order="fill stroke markers" d=" M 452.1626748576241 113.790482243984 L 442 118 L 452.1626748576241 122.209517756016 L 452.1626748576241 113.790482243984" stroke-miterlimit="10" stroke-dasharray=""/></g><g><path fill="none" stroke="#000000" paint-order="fill stroke markers" d=" M 237 154 L 237 190" stroke-miterlimit="10" stroke-dasharray=""/></g><g><path fill="#000000" stroke="none" paint-order="stroke fill markers" d=" M 232.790482243984 179.83732514237585 L 237 190 L 241.209517756016 179.83732514237585"/></g><g><path fill="none" stroke="#000000" paint-order="fill stroke markers" d=" M 232.790482243984 179.83732514237585 L 237 190 L 241.209517756016 179.83732514237585 L 232.790482243984 179.83732514237585" stroke-miterlimit="10" stroke-dasharray=""/></g><g><path fill="none" stroke="#000000" paint-order="fill stroke markers" d=" M 244 226 L 244 280" stroke-miterlimit="10" stroke-dasharray=""/></g><g><path fill="#000000" stroke="none" paint-order="stroke fill markers" d=" M 239.790482243984 269.83732514237585 L 244 280 L 248.209517756016 269.83732514237585"/></g><g><path fill="none" stroke="#000000" paint-order="fill stroke markers" d=" M 239.790482243984 269.83732514237585 L 244 280 L 248.209517756016 269.83732514237585 L 239.790482243984 269.83732514237585" stroke-miterlimit="10" stroke-dasharray=""/></g><g><path fill="none" stroke="#000000" paint-order="fill stroke markers" d=" M 244 316 L 244 388" stroke-miterlimit="10" stroke-dasharray=""/></g><g><path fill="#000000" stroke="none" paint-order="stroke fill markers" d=" M 239.790482243984 377.83732514237585 L 244 388 L 248.209517756016 377.83732514237585"/></g><g><path fill="none" stroke="#000000" paint-order="fill stroke markers" d=" M 239.790482243984 377.83732514237585 L 244 388 L 248.209517756016 377.83732514237585 L 239.790482243984 377.83732514237585" stroke-miterlimit="10" stroke-dasharray=""/></g></g></svg>