<svg version="1.1" xmlns="http://www.w3.org/2000/svg" xmlns:xlink="http://www.w3.org/1999/xlink" width="1838" height="1154"><defs/><g><g><path fill="none" stroke="#000000" paint-order="fill stroke markers" d=" M 10 10 L 1828 10 L 1828 406 L 10 406 L 10 10 Z Z" stroke-miterlimit="10" stroke-dasharray=""/></g><g><path fill="none" stroke="#000000" paint-order="fill stroke markers" d=" M 36 10 L 36 406" stroke-miterlimit="10" stroke-dasharray=""/></g><g><g><path fill="none" stroke="none"/><text fill="#000000" stroke="none" font-family="Arial" font-size="16px" font-style="normal" font-weight="normal" text-decoration="undefined" x="0" y="0" text-anchor="middle" dominant-baseline="text-before-edge" transform="matrix(6.123233995736766e-17 -1 1 6.123233995736766e-17 15 208)">Пользователь</text></g></g><g><path fill="#C0C0C0" stroke="none" paint-order="stroke fill markers" d=" M 197 195 C 197 186.16344320000002 204.16344320000002 179 213 179 C 221.83655679999998 179 229 186.16344320000002 229 195 C 229 203.83655679999998 221.83655679999998 211 213 211 C 204.16344320000002 211 197 203.83655679999998 197 195 Z" fill-opacity="0.2"/></g><g><path fill="#ffffff" stroke="none" paint-order="stroke fill markers" d=" M 190 188 C 190 179.16344320000002 197.16344320000002 172 206 172 C 214.83655679999998 172 222 179.16344320000002 222 188 C 222 196.83655679999998 214.83655679999998 204 206 204 C 197.16344320000002 204 190 196.83655679999998 190 188 Z"/></g><g><path fill="none" stroke="#000000" paint-order="fill stroke markers" d=" M 190 188 C 190 179.16344320000002 197.16344320000002 172 206 172 C 214.83655679999998 172 222 179.16344320000002 222 188 C 222 196.83655679999998 214.83655679999998 204 206 204 C 197.16344320000002 204 190 196.83655679999998 190 188 Z" stroke-miterlimit="10" stroke-dasharray=""/></g><g><rect fill="#ffffff" stroke="none" x="145.73828125" y="296" width="244.5234375" height="16" transform="matrix(1 0 0 1 -62 -80)"/></g><g><g><path fill="none" stroke="none"/><text fill="#000000" stroke="none" font-family="Arial" font-size="16px" font-style="normal" font-weight="normal" text-decoration="undefined" x="268" y="304" text-anchor="middle" dominant-baseline="central" transform="matrix(1 0 0 1 -62 -80)">Открывает экран приглашений </text></g></g><g><path fill="#FF8282" stroke="none" paint-order="stroke fill markers" d=" M 82 10 L 189.6640625 10 L 199.6640625 20 L 199.6640625 133 L 82 133 L 82 10"/></g><g><path fill="none" stroke="#000000" paint-order="fill stroke markers" d=" M 82 10 L 189.6640625 10 L 199.6640625 20 L 199.6640625 133 L 82 133 L 82 10 L 82 10" stroke-miterlimit="10" stroke-dasharray=""/></g><g><path fill="none" stroke="#000000" paint-order="fill stroke markers" d=" M 189.6640625 10 L 189.6640625 20 L 199.6640625 20 L 189.6640625 10" stroke-miterlimit="10" stroke-dasharray=""/></g><g><g><path fill="none" stroke="none"/><text fill="#000000" stroke="none" font-family="Arial" font-size="16px" font-style="normal" font-weight="normal" text-decoration="undefined" x="149" y="95" text-anchor="start" dominant-baseline="text-before-edge" transform="matrix(1 0 0 1 -62 -80)">question: Где</text><text fill="#000000" stroke="none" font-family="Arial" font-size="16px" font-style="normal" font-weight="normal" text-decoration="undefined" x="149" y="111" text-anchor="start" dominant-baseline="text-before-edge" transform="matrix(1 0 0 1 -62 -80)">находится</text><text fill="#000000" stroke="none" font-family="Arial" font-size="16px" font-style="normal" font-weight="normal" text-decoration="undefined" x="149" y="127" text-anchor="start" dominant-baseline="text-before-edge" transform="matrix(1 0 0 1 -62 -80)">экран</text><text fill="#000000" stroke="none" font-family="Arial" font-size="16px" font-style="normal" font-weight="normal" text-decoration="undefined" x="149" y="143" text-anchor="start" dominant-baseline="text-before-edge" transform="matrix(1 0 0 1 -62 -80)">приглашений</text><text fill="#000000" stroke="none" font-family="Arial" font-size="16px" font-style="normal" font-weight="normal" text-decoration="undefined" x="149" y="159" text-anchor="start" dominant-baseline="text-before-edge" transform="matrix(1 0 0 1 -62 -80)">на</text><text fill="#000000" stroke="none" font-family="Arial" font-size="16px" font-style="normal" font-weight="normal" text-decoration="undefined" x="149" y="175" text-anchor="start" dominant-baseline="text-before-edge" transform="matrix(1 0 0 1 -62 -80)">вступление?</text></g></g><g><path fill="#C0C0C0" stroke="none" paint-order="stroke fill markers" d=" M 405 179 L 516.8046875 179 Q 526.8046875 179 526.8046875 189 L 526.8046875 211 Q 526.8046875 221 516.8046875 221 L 405 221 Q 395 221 395 211 L 395 189 Q 395 179 405 179 Z" fill-opacity="0.2"/></g><g><path fill="#ffffff" stroke="none" paint-order="stroke fill markers" d=" M 398 172 L 509.8046875 172 Q 519.8046875 172 519.8046875 182 L 519.8046875 204 Q 519.8046875 214 509.8046875 214 L 398 214 Q 388 214 388 204 L 388 182 Q 388 172 398 172 Z"/></g><g><path fill="none" stroke="#000000" paint-order="fill stroke markers" d=" M 398 172 L 509.8046875 172 Q 519.8046875 172 519.8046875 182 L 519.8046875 204 Q 519.8046875 214 509.8046875 214 L 398 214 Q 388 214 388 204 L 388 182 Q 388 172 398 172 Z" stroke-miterlimit="10" stroke-dasharray=""/></g><g><path fill="none" stroke="#000000" paint-order="fill stroke markers" d=" M 398 181 C 398 179.3431456 399.3431456 178 401 178 C 402.6568544 178 404 179.3431456 404 181 C 404 182.6568544 402.6568544 184 401 184 C 399.3431456 184 398 182.6568544 398 181 Z" stroke-miterlimit="10" stroke-dasharray=""/></g><g><path fill="none" stroke="#000000" paint-order="fill stroke markers" d=" M 396 185 L 406 185 L 406 192 L 396 192 L 396 185 Z Z" stroke-miterlimit="10" stroke-dasharray=""/></g><g><g><path fill="none" stroke="none"/><text fill="#000000" stroke="none" font-family="Arial" font-size="16px" font-style="normal" font-weight="normal" text-decoration="undefined" x="515.90234375" y="265" text-anchor="middle" dominant-baseline="central" transform="matrix(1 0 0 1 -62 -80)">Выбирает</text><text fill="#000000" stroke="none" font-family="Arial" font-size="16px" font-style="normal" font-weight="normal" text-decoration="undefined" x="515.90234375" y="281" text-anchor="middle" dominant-baseline="central" transform="matrix(1 0 0 1 -62 -80)">приглашение</text></g></g><g><path fill="#FF8282" stroke="none" paint-order="stroke fill markers" d=" M 244 10 L 351.390625 10 L 361.390625 20 L 361.390625 133 L 244 133 L 244 10"/></g><g><path fill="none" stroke="#000000" paint-order="fill stroke markers" d=" M 244 10 L 351.390625 10 L 361.390625 20 L 361.390625 133 L 244 133 L 244 10 L 244 10" stroke-miterlimit="10" stroke-dasharray=""/></g><g><path fill="none" stroke="#000000" paint-order="fill stroke markers" d=" M 351.390625 10 L 351.390625 20 L 361.390625 20 L 351.390625 10" stroke-miterlimit="10" stroke-dasharray=""/></g><g><g><path fill="none" stroke="none"/><text fill="#000000" stroke="none" font-family="Arial" font-size="16px" font-style="normal" font-weight="normal" text-decoration="undefined" x="311" y="95" text-anchor="start" dominant-baseline="text-before-edge" transform="matrix(1 0 0 1 -62 -80)">Будем ли</text><text fill="#000000" stroke="none" font-family="Arial" font-size="16px" font-style="normal" font-weight="normal" text-decoration="undefined" x="311" y="111" text-anchor="start" dominant-baseline="text-before-edge" transform="matrix(1 0 0 1 -62 -80)">объединять</text><text fill="#000000" stroke="none" font-family="Arial" font-size="16px" font-style="normal" font-weight="normal" text-decoration="undefined" x="311" y="127" text-anchor="start" dominant-baseline="text-before-edge" transform="matrix(1 0 0 1 -62 -80)">приглашения</text><text fill="#000000" stroke="none" font-family="Arial" font-size="16px" font-style="normal" font-weight="normal" text-decoration="undefined" x="311" y="143" text-anchor="start" dominant-baseline="text-before-edge" transform="matrix(1 0 0 1 -62 -80)">в сообщество</text><text fill="#000000" stroke="none" font-family="Arial" font-size="16px" font-style="normal" font-weight="normal" text-decoration="undefined" x="311" y="159" text-anchor="start" dominant-baseline="text-before-edge" transform="matrix(1 0 0 1 -62 -80)">и КД в один</text><text fill="#000000" stroke="none" font-family="Arial" font-size="16px" font-style="normal" font-weight="normal" text-decoration="undefined" x="311" y="175" text-anchor="start" dominant-baseline="text-before-edge" transform="matrix(1 0 0 1 -62 -80)">экран?</text></g></g><g><path fill="#C0C0C0" stroke="none" paint-order="stroke fill markers" d=" M 963 215 L 1105 215 Q 1115 215 1115 225 L 1115 277 Q 1115 287 1105 287 L 963 287 Q 953 287 953 277 L 953 225 Q 953 215 963 215 Z" fill-opacity="0.2"/></g><g><path fill="#ffffff" stroke="none" paint-order="stroke fill markers" d=" M 956 208 L 1098 208 Q 1108 208 1108 218 L 1108 270 Q 1108 280 1098 280 L 956 280 Q 946 280 946 270 L 946 218 Q 946 208 956 208 Z"/></g><g><path fill="none" stroke="#000000" paint-order="fill stroke markers" d=" M 956 208 L 1098 208 Q 1108 208 1108 218 L 1108 270 Q 1108 280 1098 280 L 956 280 Q 946 280 946 270 L 946 218 Q 946 208 956 208 Z" stroke-miterlimit="10" stroke-dasharray=""/></g><g><path fill="none" stroke="#000000" paint-order="fill stroke markers" d=" M 956 217 C 956 215.3431456 957.3431456 214 959 214 C 960.6568544 214 962 215.3431456 962 217 C 962 218.6568544 960.6568544 220 959 220 C 957.3431456 220 956 218.6568544 956 217 Z" stroke-miterlimit="10" stroke-dasharray=""/></g><g><path fill="none" stroke="#000000" paint-order="fill stroke markers" d=" M 954 221 L 964 221 L 964 228 L 954 228 L 954 221 Z Z" stroke-miterlimit="10" stroke-dasharray=""/></g><g><g><path fill="none" stroke="none"/><text fill="#000000" stroke="none" font-family="Arial" font-size="16px" font-style="normal" font-weight="normal" text-decoration="undefined" x="1089" y="324" text-anchor="middle" dominant-baseline="central" transform="matrix(1 0 0 1 -62 -80)">Нажать "Принять"</text></g></g><g><path fill="#C0C0C0" stroke="none" paint-order="stroke fill markers" d=" M 701 143 L 723.4 143 L 733 152.6 L 733 183 L 701 183" fill-opacity="0.2"/></g><g><path fill="#ffffff" stroke="none" paint-order="stroke fill markers" d=" M 694 136 L 716.4 136 L 726 145.6 L 726 176 L 694 176"/></g><g><path fill="none" stroke="#000000" paint-order="fill stroke markers" d=" M 694 136 L 716.4 136 L 726 145.6 L 726 176 L 694 176 L 694 136" stroke-miterlimit="10" stroke-dasharray=""/></g><g><path fill="none" stroke="#000000" paint-order="fill stroke markers" d=" M 716.4 136 L 716.4 145.6 L 726 145.6 L 716.4 136" stroke-miterlimit="10" stroke-dasharray=""/></g><g><rect fill="#ffffff" stroke="none" x="695.265625" y="264" width="153.46875" height="16" transform="matrix(1 0 0 1 -62 -80)"/></g><g><g><path fill="none" stroke="none"/><text fill="#000000" stroke="none" font-family="Arial" font-size="16px" font-style="normal" font-weight="normal" text-decoration="undefined" x="772" y="272" text-anchor="middle" dominant-baseline="central" transform="matrix(1 0 0 1 -62 -80)">Информация про КД</text></g></g><g><path fill="#C0C0C0" stroke="none" paint-order="stroke fill markers" d=" M 981 89 L 1092.8046875 89 Q 1102.8046875 89 1102.8046875 99 L 1102.8046875 121 Q 1102.8046875 131 1092.8046875 131 L 981 131 Q 971 131 971 121 L 971 99 Q 971 89 981 89 Z" fill-opacity="0.2"/></g><g><path fill="#ffffff" stroke="none" paint-order="stroke fill markers" d=" M 974 82 L 1085.8046875 82 Q 1095.8046875 82 1095.8046875 92 L 1095.8046875 114 Q 1095.8046875 124 1085.8046875 124 L 974 124 Q 964 124 964 114 L 964 92 Q 964 82 974 82 Z"/></g><g><path fill="none" stroke="#000000" paint-order="fill stroke markers" d=" M 974 82 L 1085.8046875 82 Q 1095.8046875 82 1095.8046875 92 L 1095.8046875 114 Q 1095.8046875 124 1085.8046875 124 L 974 124 Q 964 124 964 114 L 964 92 Q 964 82 974 82 Z" stroke-miterlimit="10" stroke-dasharray=""/></g><g><path fill="none" stroke="#000000" paint-order="fill stroke markers" d=" M 974 91 C 974 89.34314560000001 975.3431456000001 88 977 88 C 978.6568543999999 88 980 89.34314560000001 980 91 C 980 92.65685439999999 978.6568543999999 94 977 94 C 975.3431456000001 94 974 92.65685439999999 974 91 Z" stroke-miterlimit="10" stroke-dasharray=""/></g><g><path fill="none" stroke="#000000" paint-order="fill stroke markers" d=" M 972 95 L 982 95 L 982 102 L 972 102 L 972 95 Z Z" stroke-miterlimit="10" stroke-dasharray=""/></g><g><g><path fill="none" stroke="none"/><text fill="#000000" stroke="none" font-family="Arial" font-size="16px" font-style="normal" font-weight="normal" text-decoration="undefined" x="1091.90234375" y="175" text-anchor="middle" dominant-baseline="central" transform="matrix(1 0 0 1 -62 -80)">Нажать</text><text fill="#000000" stroke="none" font-family="Arial" font-size="16px" font-style="normal" font-weight="normal" text-decoration="undefined" x="1091.90234375" y="191" text-anchor="middle" dominant-baseline="central" transform="matrix(1 0 0 1 -62 -80)">"Отказать"</text></g></g><g><path fill="none" stroke="#000000" paint-order="fill stroke markers" d=" M 10 460 L 1828 460 L 1828 838 L 10 838 L 10 460 Z Z" stroke-miterlimit="10" stroke-dasharray=""/></g><g><path fill="none" stroke="#000000" paint-order="fill stroke markers" d=" M 36 460 L 36 838" stroke-miterlimit="10" stroke-dasharray=""/></g><g><g><path fill="none" stroke="none"/><text fill="#000000" stroke="none" font-family="Arial" font-size="16px" font-style="normal" font-weight="normal" text-decoration="undefined" x="0" y="0" text-anchor="middle" dominant-baseline="text-before-edge" transform="matrix(6.123233995736766e-17 -1 1 6.123233995736766e-17 15 649)">Api</text></g></g><g><path fill="#C0C0C0" stroke="none" paint-order="stroke fill markers" d=" M 279 593 L 367.8515625 593 Q 377.8515625 593 377.8515625 603 L 377.8515625 657 Q 377.8515625 667 367.8515625 667 L 279 667 Q 269 667 269 657 L 269 603 Q 269 593 279 593 Z" fill-opacity="0.2"/></g><g><path fill="#ffffff" stroke="none" paint-order="stroke fill markers" d=" M 272 586 L 360.8515625 586 Q 370.8515625 586 370.8515625 596 L 370.8515625 650 Q 370.8515625 660 360.8515625 660 L 272 660 Q 262 660 262 650 L 262 596 Q 262 586 272 586 Z"/></g><g><path fill="none" stroke="#000000" paint-order="fill stroke markers" d=" M 272 586 L 360.8515625 586 Q 370.8515625 586 370.8515625 596 L 370.8515625 650 Q 370.8515625 660 360.8515625 660 L 272 660 Q 262 660 262 650 L 262 596 Q 262 586 272 586 Z" stroke-miterlimit="10" stroke-dasharray=""/></g><g><g><path fill="none" stroke="none"/><text fill="#000000" stroke="none" font-family="Arial" font-size="16px" font-style="normal" font-weight="normal" text-decoration="undefined" x="378.42578125" y="679" text-anchor="middle" dominant-baseline="central" transform="matrix(1 0 0 1 -62 -80)">Извлечть все</text><text fill="#000000" stroke="none" font-family="Arial" font-size="16px" font-style="normal" font-weight="normal" text-decoration="undefined" x="378.42578125" y="695" text-anchor="middle" dominant-baseline="central" transform="matrix(1 0 0 1 -62 -80)">не</text><text fill="#000000" stroke="none" font-family="Arial" font-size="16px" font-style="normal" font-weight="normal" text-decoration="undefined" x="378.42578125" y="711" text-anchor="middle" dominant-baseline="central" transform="matrix(1 0 0 1 -62 -80)">обработаные</text><text fill="#000000" stroke="none" font-family="Arial" font-size="16px" font-style="normal" font-weight="normal" text-decoration="undefined" x="378.42578125" y="727" text-anchor="middle" dominant-baseline="central" transform="matrix(1 0 0 1 -62 -80)">приглашения</text></g></g><g><path fill="#C0C0C0" stroke="none" paint-order="stroke fill markers" d=" M 585 611 L 673.734375 611 Q 683.734375 611 683.734375 621 L 683.734375 659 Q 683.734375 669 673.734375 669 L 585 669 Q 575 669 575 659 L 575 621 Q 575 611 585 611 Z" fill-opacity="0.2"/></g><g><path fill="#ffffff" stroke="none" paint-order="stroke fill markers" d=" M 578 604 L 666.734375 604 Q 676.734375 604 676.734375 614 L 676.734375 652 Q 676.734375 662 666.734375 662 L 578 662 Q 568 662 568 652 L 568 614 Q 568 604 578 604 Z"/></g><g><path fill="none" stroke="#000000" paint-order="fill stroke markers" d=" M 578 604 L 666.734375 604 Q 676.734375 604 676.734375 614 L 676.734375 652 Q 676.734375 662 666.734375 662 L 578 662 Q 568 662 568 652 L 568 614 Q 568 604 578 604 Z" stroke-miterlimit="10" stroke-dasharray=""/></g><g><g><path fill="none" stroke="none"/><text fill="#000000" stroke="none" font-family="Arial" font-size="16px" font-style="normal" font-weight="normal" text-decoration="undefined" x="684.3671875" y="697" text-anchor="middle" dominant-baseline="central" transform="matrix(1 0 0 1 -62 -80)">Извлекаем</text><text fill="#000000" stroke="none" font-family="Arial" font-size="16px" font-style="normal" font-weight="normal" text-decoration="undefined" x="684.3671875" y="713" text-anchor="middle" dominant-baseline="central" transform="matrix(1 0 0 1 -62 -80)">информацию</text><text fill="#000000" stroke="none" font-family="Arial" font-size="16px" font-style="normal" font-weight="normal" text-decoration="undefined" x="684.3671875" y="729" text-anchor="middle" dominant-baseline="central" transform="matrix(1 0 0 1 -62 -80)">про КД</text></g></g><g><path fill="#C0C0C0" stroke="none" paint-order="stroke fill markers" d=" M 1305 503 L 1393.390625 503 Q 1403.390625 503 1403.390625 513 L 1403.390625 583 Q 1403.390625 593 1393.390625 593 L 1305 593 Q 1295 593 1295 583 L 1295 513 Q 1295 503 1305 503 Z" fill-opacity="0.2"/></g><g><path fill="#ffffff" stroke="none" paint-order="stroke fill markers" d=" M 1298 496 L 1386.390625 496 Q 1396.390625 496 1396.390625 506 L 1396.390625 576 Q 1396.390625 586 1386.390625 586 L 1298 586 Q 1288 586 1288 576 L 1288 506 Q 1288 496 1298 496 Z"/></g><g><path fill="none" stroke="#000000" paint-order="fill stroke markers" d=" M 1298 496 L 1386.390625 496 Q 1396.390625 496 1396.390625 506 L 1396.390625 576 Q 1396.390625 586 1386.390625 586 L 1298 586 Q 1288 586 1288 576 L 1288 506 Q 1288 496 1298 496 Z" stroke-miterlimit="10" stroke-dasharray=""/></g><g><g><path fill="none" stroke="none"/><text fill="#000000" stroke="none" font-family="Arial" font-size="16px" font-style="normal" font-weight="normal" text-decoration="undefined" x="1404.1953125" y="589" text-anchor="middle" dominant-baseline="central" transform="matrix(1 0 0 1 -62 -80)">Изменить</text><text fill="#000000" stroke="none" font-family="Arial" font-size="16px" font-style="normal" font-weight="normal" text-decoration="undefined" x="1404.1953125" y="605" text-anchor="middle" dominant-baseline="central" transform="matrix(1 0 0 1 -62 -80)">статус</text><text fill="#000000" stroke="none" font-family="Arial" font-size="16px" font-style="normal" font-weight="normal" text-decoration="undefined" x="1404.1953125" y="621" text-anchor="middle" dominant-baseline="central" transform="matrix(1 0 0 1 -62 -80)">приглашения</text><text fill="#000000" stroke="none" font-family="Arial" font-size="16px" font-style="normal" font-weight="normal" text-decoration="undefined" x="1404.1953125" y="637" text-anchor="middle" dominant-baseline="central" transform="matrix(1 0 0 1 -62 -80)">на</text><text fill="#000000" stroke="none" font-family="Arial" font-size="16px" font-style="normal" font-weight="normal" text-decoration="undefined" x="1404.1953125" y="653" text-anchor="middle" dominant-baseline="central" transform="matrix(1 0 0 1 -62 -80)">"Отказаное"</text></g></g><g><path fill="#C0C0C0" stroke="none" paint-order="stroke fill markers" d=" M 1197 683 L 1285.390625 683 Q 1295.390625 683 1295.390625 693 L 1295.390625 763 Q 1295.390625 773 1285.390625 773 L 1197 773 Q 1187 773 1187 763 L 1187 693 Q 1187 683 1197 683 Z" fill-opacity="0.2"/></g><g><path fill="#ffffff" stroke="none" paint-order="stroke fill markers" d=" M 1190 676 L 1278.390625 676 Q 1288.390625 676 1288.390625 686 L 1288.390625 756 Q 1288.390625 766 1278.390625 766 L 1190 766 Q 1180 766 1180 756 L 1180 686 Q 1180 676 1190 676 Z"/></g><g><path fill="none" stroke="#000000" paint-order="fill stroke markers" d=" M 1190 676 L 1278.390625 676 Q 1288.390625 676 1288.390625 686 L 1288.390625 756 Q 1288.390625 766 1278.390625 766 L 1190 766 Q 1180 766 1180 756 L 1180 686 Q 1180 676 1190 676 Z" stroke-miterlimit="10" stroke-dasharray=""/></g><g><g><path fill="none" stroke="none"/><text fill="#000000" stroke="none" font-family="Arial" font-size="16px" font-style="normal" font-weight="normal" text-decoration="undefined" x="1296.1953125" y="777" text-anchor="middle" dominant-baseline="central" transform="matrix(1 0 0 1 -62 -80)">Изменить</text><text fill="#000000" stroke="none" font-family="Arial" font-size="16px" font-style="normal" font-weight="normal" text-decoration="undefined" x="1296.1953125" y="793" text-anchor="middle" dominant-baseline="central" transform="matrix(1 0 0 1 -62 -80)">статус</text><text fill="#000000" stroke="none" font-family="Arial" font-size="16px" font-style="normal" font-weight="normal" text-decoration="undefined" x="1296.1953125" y="809" text-anchor="middle" dominant-baseline="central" transform="matrix(1 0 0 1 -62 -80)">приглашения</text><text fill="#000000" stroke="none" font-family="Arial" font-size="16px" font-style="normal" font-weight="normal" text-decoration="undefined" x="1296.1953125" y="825" text-anchor="middle" dominant-baseline="central" transform="matrix(1 0 0 1 -62 -80)">на "Принятое"</text></g></g><g><path fill="#C0C0C0" stroke="none" paint-order="stroke fill markers" d=" M 1359 701 L 1450.3203125 701 Q 1460.3203125 701 1460.3203125 711 L 1460.3203125 749 Q 1460.3203125 759 1450.3203125 759 L 1359 759 Q 1349 759 1349 749 L 1349 711 Q 1349 701 1359 701 Z" fill-opacity="0.2"/></g><g><path fill="#ffffff" stroke="none" paint-order="stroke fill markers" d=" M 1352 694 L 1443.3203125 694 Q 1453.3203125 694 1453.3203125 704 L 1453.3203125 742 Q 1453.3203125 752 1443.3203125 752 L 1352 752 Q 1342 752 1342 742 L 1342 704 Q 1342 694 1352 694 Z"/></g><g><path fill="none" stroke="#000000" paint-order="fill stroke markers" d=" M 1352 694 L 1443.3203125 694 Q 1453.3203125 694 1453.3203125 704 L 1453.3203125 742 Q 1453.3203125 752 1443.3203125 752 L 1352 752 Q 1342 752 1342 742 L 1342 704 Q 1342 694 1352 694 Z" stroke-miterlimit="10" stroke-dasharray=""/></g><g><g><path fill="none" stroke="none"/><text fill="#000000" stroke="none" font-family="Arial" font-size="16px" font-style="normal" font-weight="normal" text-decoration="undefined" x="1459.66015625" y="787" text-anchor="middle" dominant-baseline="central" transform="matrix(1 0 0 1 -62 -80)">Добавить</text><text fill="#000000" stroke="none" font-family="Arial" font-size="16px" font-style="normal" font-weight="normal" text-decoration="undefined" x="1459.66015625" y="803" text-anchor="middle" dominant-baseline="central" transform="matrix(1 0 0 1 -62 -80)">пользователя</text><text fill="#000000" stroke="none" font-family="Arial" font-size="16px" font-style="normal" font-weight="normal" text-decoration="undefined" x="1459.66015625" y="819" text-anchor="middle" dominant-baseline="central" transform="matrix(1 0 0 1 -62 -80)">в КД</text></g></g><g><path fill="none" stroke="#000000" paint-order="fill stroke markers" d=" M 206 204 L 206 578 L 206 578 A 8 8 0 0 0 214 586 L 262 586" stroke-miterlimit="10" stroke-dasharray=""/></g><g><path fill="#000000" stroke="none" paint-order="stroke fill markers" d=" M 251.83732514237585 590.209517756016 L 262 586 L 251.83732514237585 581.790482243984"/></g><g><path fill="none" stroke="#000000" paint-order="fill stroke markers" d=" M 251.83732514237585 590.209517756016 L 262 586 L 251.83732514237585 581.790482243984 L 251.83732514237585 590.209517756016" stroke-miterlimit="10" stroke-dasharray=""/></g><g><path fill="none" stroke="#000000" paint-order="fill stroke markers" d=" M 371 586 L 439 586 L 439 586 A 8 8 0 0 0 447 578 L 447 214" stroke-miterlimit="10" stroke-dasharray=""/></g><g><path fill="#000000" stroke="none" paint-order="stroke fill markers" d=" M 451.209517756016 224.16267485762415 L 447 214 L 442.790482243984 224.16267485762415"/></g><g><path fill="none" stroke="#000000" paint-order="fill stroke markers" d=" M 451.209517756016 224.16267485762415 L 447 214 L 442.790482243984 224.16267485762415 L 451.209517756016 224.16267485762415" stroke-miterlimit="10" stroke-dasharray=""/></g><g><path fill="none" stroke="#000000" paint-order="fill stroke markers" d=" M 461 214 L 461 596 L 461 596 A 8 8 0 0 0 469 604 L 568 604" stroke-miterlimit="10" stroke-dasharray=""/></g><g><path fill="#000000" stroke="none" paint-order="stroke fill markers" d=" M 557.8373251423759 608.209517756016 L 568 604 L 557.8373251423758 599.790482243984"/></g><g><path fill="none" stroke="#000000" paint-order="fill stroke markers" d=" M 557.8373251423759 608.209517756016 L 568 604 L 557.8373251423758 599.790482243984 L 557.8373251423759 608.209517756016" stroke-miterlimit="10" stroke-dasharray=""/></g><g><path fill="none" stroke="#000000" paint-order="fill stroke markers" d=" M 677 604 L 698 604 L 698 604 A 8 8 0 0 0 706 596 L 706 176" stroke-miterlimit="10" stroke-dasharray=""/></g><g><path fill="#000000" stroke="none" paint-order="stroke fill markers" d=" M 710.209517756016 186.16267485762415 L 706 176 L 701.790482243984 186.16267485762415"/></g><g><path fill="none" stroke="#000000" paint-order="fill stroke markers" d=" M 710.209517756016 186.16267485762415 L 706 176 L 701.790482243984 186.16267485762415 L 710.209517756016 186.16267485762415" stroke-miterlimit="10" stroke-dasharray=""/></g><g><path fill="none" stroke="#000000" paint-order="fill stroke markers" d=" M 726 176 L 726 214 L 726 214 A 8 8 0 0 0 734 222 L 946 222" stroke-miterlimit="10" stroke-dasharray=""/></g><g><path fill="#000000" stroke="none" paint-order="stroke fill markers" d=" M 935.8373251423759 226.209517756016 L 946 222 L 935.8373251423758 217.790482243984"/></g><g><path fill="none" stroke="#000000" paint-order="fill stroke markers" d=" M 935.8373251423759 226.209517756016 L 946 222 L 935.8373251423758 217.790482243984 L 935.8373251423759 226.209517756016" stroke-miterlimit="10" stroke-dasharray=""/></g><g><path fill="none" stroke="#000000" paint-order="fill stroke markers" d=" M 726 153 L 956 153 L 956 153 A 8 8 0 0 0 964 145 L 964 124" stroke-miterlimit="10" stroke-dasharray=""/></g><g><path fill="#000000" stroke="none" paint-order="stroke fill markers" d=" M 968.2095177560159 134.16267485762415 L 964 124 L 959.790482243984 134.16267485762415"/></g><g><path fill="none" stroke="#000000" paint-order="fill stroke markers" d=" M 968.2095177560159 134.16267485762415 L 964 124 L 959.790482243984 134.16267485762415 L 968.2095177560159 134.16267485762415" stroke-miterlimit="10" stroke-dasharray=""/></g><g><path fill="none" stroke="#000000" paint-order="fill stroke markers" d=" M 1096 103 L 1190 103 L 1190 103 A 8 8 0 0 1 1198 111 L 1198 488 L 1198 488 A 8 8 0 0 0 1206 496 L 1288 496" stroke-miterlimit="10" stroke-dasharray=""/></g><g><path fill="#000000" stroke="none" paint-order="stroke fill markers" d=" M 1277.837325142376 500.209517756016 L 1288 496 L 1277.837325142376 491.790482243984"/></g><g><path fill="none" stroke="#000000" paint-order="fill stroke markers" d=" M 1277.837325142376 500.209517756016 L 1288 496 L 1277.837325142376 491.790482243984 L 1277.837325142376 500.209517756016" stroke-miterlimit="10" stroke-dasharray=""/></g><g><path fill="none" stroke="#000000" paint-order="fill stroke markers" d=" M 1042 280 L 1042 668 L 1042 668 A 8 8 0 0 0 1050 676 L 1180 676" stroke-miterlimit="10" stroke-dasharray=""/></g><g><path fill="#000000" stroke="none" paint-order="stroke fill markers" d=" M 1169.837325142376 680.209517756016 L 1180 676 L 1169.837325142376 671.790482243984"/></g><g><path fill="none" stroke="#000000" paint-order="fill stroke markers" d=" M 1169.837325142376 680.209517756016 L 1180 676 L 1169.837325142376 671.790482243984 L 1169.837325142376 680.209517756016" stroke-miterlimit="10" stroke-dasharray=""/></g><g><path fill="none" stroke="#000000" paint-order="fill stroke markers" d=" M 1288 722 L 1342 722" stroke-miterlimit="10" stroke-dasharray=""/></g><g><path fill="#000000" stroke="none" paint-order="stroke fill markers" d=" M 1331.837325142376 726.209517756016 L 1342 722 L 1331.837325142376 717.790482243984"/></g><g><path fill="none" stroke="#000000" paint-order="fill stroke markers" d=" M 1331.837325142376 726.209517756016 L 1342 722 L 1331.837325142376 717.790482243984 L 1331.837325142376 726.209517756016" stroke-miterlimit="10" stroke-dasharray=""/></g><g><path fill="#C0C0C0" stroke="none" paint-order="stroke fill markers" d=" M 1565 609 C 1565 600.1634432 1572.1634432 593 1581 593 C 1589.8365568 593 1597 600.1634432 1597 609 C 1597 617.8365568 1589.8365568 625 1581 625 C 1572.1634432 625 1565 617.8365568 1565 609 Z" fill-opacity="0.2"/></g><g><path fill="#ffffff" stroke="none" paint-order="stroke fill markers" d=" M 1558 602 C 1558 593.1634432 1565.1634432 586 1574 586 C 1582.8365568 586 1590 593.1634432 1590 602 C 1590 610.8365568 1582.8365568 618 1574 618 C 1565.1634432 618 1558 610.8365568 1558 602 Z"/></g><g><path fill="none" stroke="#000000" paint-order="fill stroke markers" d=" M 1558 602 C 1558 593.1634432 1565.1634432 586 1574 586 C 1582.8365568 586 1590 593.1634432 1590 602 C 1590 610.8365568 1582.8365568 618 1574 618 C 1565.1634432 618 1558 610.8365568 1558 602 Z" stroke-miterlimit="10" stroke-width="3" stroke-dasharray=""/></g><g><rect fill="#ffffff" stroke="none" x="1501.1015625" y="710" width="269.796875" height="16" transform="matrix(1 0 0 1 -62 -80)"/></g><g><g><path fill="none" stroke="none"/><text fill="#000000" stroke="none" font-family="Arial" font-size="16px" font-style="normal" font-weight="normal" text-decoration="undefined" x="1636" y="718" text-anchor="middle" dominant-baseline="central" transform="matrix(1 0 0 1 -62 -80)">Обработка приглашения завершена</text></g></g><g><path fill="none" stroke="#000000" paint-order="fill stroke markers" d=" M 1396 586 L 1396 590 L 1396 590 A 8 8 0 0 0 1404 598 L 1558 598" stroke-miterlimit="10" stroke-dasharray=""/></g><g><path fill="#000000" stroke="none" paint-order="stroke fill markers" d=" M 1547.837325142376 602.209517756016 L 1558 598 L 1547.837325142376 593.790482243984"/></g><g><path fill="none" stroke="#000000" paint-order="fill stroke markers" d=" M 1547.837325142376 602.209517756016 L 1558 598 L 1547.837325142376 593.790482243984 L 1547.837325142376 602.209517756016" stroke-miterlimit="10" stroke-dasharray=""/></g><g><path fill="none" stroke="#000000" paint-order="fill stroke markers" d=" M 1453 694 L 1550 694 L 1550 694 A 8 8 0 0 0 1558 686 L 1558 618" stroke-miterlimit="10" stroke-dasharray=""/></g><g><path fill="#000000" stroke="none" paint-order="stroke fill markers" d=" M 1562.2095177560159 628.1626748576241 L 1558 618 L 1553.7904822439841 628.1626748576241"/></g><g><path fill="none" stroke="#000000" paint-order="fill stroke markers" d=" M 1562.2095177560159 628.1626748576241 L 1558 618 L 1553.7904822439841 628.1626748576241 L 1562.2095177560159 628.1626748576241" stroke-miterlimit="10" stroke-dasharray=""/></g><g><path fill="#FF8282" stroke="none" paint-order="stroke fill markers" d=" M 1594 676 L 1712.890625 676 L 1722.890625 686 L 1722.890625 831 L 1594 831 L 1594 676"/></g><g><path fill="none" stroke="#000000" paint-order="fill stroke markers" d=" M 1594 676 L 1712.890625 676 L 1722.890625 686 L 1722.890625 831 L 1594 831 L 1594 676 L 1594 676" stroke-miterlimit="10" stroke-dasharray=""/></g><g><path fill="none" stroke="#000000" paint-order="fill stroke markers" d=" M 1712.890625 676 L 1712.890625 686 L 1722.890625 686 L 1712.890625 676" stroke-miterlimit="10" stroke-dasharray=""/></g><g><g><path fill="none" stroke="none"/><text fill="#000000" stroke="none" font-family="Arial" font-size="16px" font-style="normal" font-weight="normal" text-decoration="undefined" x="1661" y="761" text-anchor="start" dominant-baseline="text-before-edge" transform="matrix(1 0 0 1 -62 -80)">question: Нужно</text><text fill="#000000" stroke="none" font-family="Arial" font-size="16px" font-style="normal" font-weight="normal" text-decoration="undefined" x="1661" y="777" text-anchor="start" dominant-baseline="text-before-edge" transform="matrix(1 0 0 1 -62 -80)">ли уведомлять</text><text fill="#000000" stroke="none" font-family="Arial" font-size="16px" font-style="normal" font-weight="normal" text-decoration="undefined" x="1661" y="793" text-anchor="start" dominant-baseline="text-before-edge" transform="matrix(1 0 0 1 -62 -80)">участников КД</text><text fill="#000000" stroke="none" font-family="Arial" font-size="16px" font-style="normal" font-weight="normal" text-decoration="undefined" x="1661" y="809" text-anchor="start" dominant-baseline="text-before-edge" transform="matrix(1 0 0 1 -62 -80)">что появился</text><text fill="#000000" stroke="none" font-family="Arial" font-size="16px" font-style="normal" font-weight="normal" text-decoration="undefined" x="1661" y="825" text-anchor="start" dominant-baseline="text-before-edge" transform="matrix(1 0 0 1 -62 -80)">новый</text><text fill="#000000" stroke="none" font-family="Arial" font-size="16px" font-style="normal" font-weight="normal" text-decoration="undefined" x="1661" y="841" text-anchor="start" dominant-baseline="text-before-edge" transform="matrix(1 0 0 1 -62 -80)">пользователь?</text><text fill="#000000" stroke="none" font-family="Arial" font-size="16px" font-style="normal" font-weight="normal" text-decoration="undefined" x="1661" y="857" text-anchor="start" dominant-baseline="text-before-edge" transform="matrix(1 0 0 1 -62 -80)">Если да то как?</text></g></g><g><path fill="none" stroke="#000000" paint-order="fill stroke markers" d=" M 10 928 L 1828 928 L 1828 1144 L 10 1144 L 10 928 Z Z" stroke-miterlimit="10" stroke-dasharray=""/></g><g><path fill="none" stroke="#000000" paint-order="fill stroke markers" d=" M 36 928 L 36 1144" stroke-miterlimit="10" stroke-dasharray=""/></g><g><g><path fill="none" stroke="none"/><text fill="#000000" stroke="none" font-family="Arial" font-size="16px" font-style="normal" font-weight="normal" text-decoration="undefined" x="0" y="0" text-anchor="middle" dominant-baseline="text-before-edge" transform="matrix(6.123233995736766e-17 -1 1 6.123233995736766e-17 15 1036)">База данных</text></g></g><g><path fill="none" stroke="#000000" paint-order="fill stroke markers" d=" M 370 660 L 370 928" stroke-miterlimit="10" stroke-dasharray=""/></g><g><path fill="#000000" stroke="none" paint-order="stroke fill markers" d=" M 365.790482243984 917.8373251423759 L 370 928 L 374.209517756016 917.8373251423759"/></g><g><path fill="none" stroke="#000000" paint-order="fill stroke markers" d=" M 365.790482243984 917.8373251423759 L 370 928 L 374.209517756016 917.8373251423759 L 365.790482243984 917.8373251423759" stroke-miterlimit="10" stroke-dasharray=""/></g><g><path fill="none" stroke="#000000" paint-order="fill stroke markers" d=" M 643 662 L 643 928" stroke-miterlimit="10" stroke-dasharray=""/></g><g><path fill="#000000" stroke="none" paint-order="stroke fill markers" d=" M 638.790482243984 917.8373251423759 L 643 928 L 647.209517756016 917.8373251423759"/></g><g><path fill="none" stroke="#000000" paint-order="fill stroke markers" d=" M 638.790482243984 917.8373251423759 L 643 928 L 647.209517756016 917.8373251423759 L 638.790482243984 917.8373251423759" stroke-miterlimit="10" stroke-dasharray=""/></g><g><path fill="none" stroke="#000000" paint-order="fill stroke markers" d=" M 1189 766 L 1189 928" stroke-miterlimit="10" stroke-dasharray=""/></g><g><path fill="#000000" stroke="none" paint-order="stroke fill markers" d=" M 1184.7904822439841 917.8373251423759 L 1189 928 L 1193.2095177560159 917.8373251423759"/></g><g><path fill="none" stroke="#000000" paint-order="fill stroke markers" d=" M 1184.7904822439841 917.8373251423759 L 1189 928 L 1193.2095177560159 917.8373251423759 L 1184.7904822439841 917.8373251423759" stroke-miterlimit="10" stroke-dasharray=""/></g><g><path fill="none" stroke="#000000" paint-order="fill stroke markers" d=" M 1353 752 L 1353 928" stroke-miterlimit="10" stroke-dasharray=""/></g><g><path fill="#000000" stroke="none" paint-order="stroke fill markers" d=" M 1348.7904822439841 917.8373251423759 L 1353 928 L 1357.2095177560159 917.8373251423759"/></g><g><path fill="none" stroke="#000000" paint-order="fill stroke markers" d=" M 1348.7904822439841 917.8373251423759 L 1353 928 L 1357.2095177560159 917.8373251423759 L 1348.7904822439841 917.8373251423759" stroke-miterlimit="10" stroke-dasharray=""/></g><g><path fill="none" stroke="#000000" paint-order="fill stroke markers" d=" M 1304 586 L 1304 928" stroke-miterlimit="10" stroke-dasharray=""/></g><g><path fill="#000000" stroke="none" paint-order="stroke fill markers" d=" M 1299.7904822439841 917.8373251423759 L 1304 928 L 1308.2095177560159 917.8373251423759"/></g><g><path fill="none" stroke="#000000" paint-order="fill stroke markers" d=" M 1299.7904822439841 917.8373251423759 L 1304 928 L 1308.2095177560159 917.8373251423759 L 1299.7904822439841 917.8373251423759" stroke-miterlimit="10" stroke-dasharray=""/></g></g></svg>