<svg version="1.1" xmlns="http://www.w3.org/2000/svg" xmlns:xlink="http://www.w3.org/1999/xlink" width="848" height="1406"><defs/><g><g><path fill="none" stroke="#000000" paint-order="fill stroke markers" d=" M 10 10 L 334 10 L 334 1396 L 10 1396 L 10 10 Z Z" stroke-miterlimit="10" stroke-dasharray=""/></g><g><path fill="none" stroke="#000000" paint-order="fill stroke markers" d=" M 10 36 L 334 36" stroke-miterlimit="10" stroke-dasharray=""/></g><g><g><path fill="none" stroke="none"/><text fill="#000000" stroke="none" font-family="Arial" font-size="16px" font-style="normal" font-weight="normal" text-decoration="undefined" x="234" y="77" text-anchor="middle" dominant-baseline="text-before-edge" transform="matrix(1 0 0 1 -62 -62)">Пользователь</text></g></g><g><path fill="none" stroke="#000000" paint-order="fill stroke markers" d=" M 334 10 L 586 10 L 586 1396 L 334 1396 L 334 10 Z Z" stroke-miterlimit="10" stroke-dasharray=""/></g><g><path fill="none" stroke="#000000" paint-order="fill stroke markers" d=" M 334 36 L 586 36" stroke-miterlimit="10" stroke-dasharray=""/></g><g><g><path fill="none" stroke="none"/><text fill="#000000" stroke="none" font-family="Arial" font-size="16px" font-style="normal" font-weight="normal" text-decoration="undefined" x="522" y="77" text-anchor="middle" dominant-baseline="text-before-edge" transform="matrix(1 0 0 1 -62 -62)">Api</text></g></g><g><path fill="none" stroke="#000000" paint-order="fill stroke markers" d=" M 586 10 L 838 10 L 838 1396 L 586 1396 L 586 10 Z Z" stroke-miterlimit="10" stroke-dasharray=""/></g><g><path fill="none" stroke="#000000" paint-order="fill stroke markers" d=" M 586 36 L 838 36" stroke-miterlimit="10" stroke-dasharray=""/></g><g><g><path fill="none" stroke="none"/><text fill="#000000" stroke="none" font-family="Arial" font-size="16px" font-style="normal" font-weight="normal" text-decoration="undefined" x="774" y="77" text-anchor="middle" dominant-baseline="text-before-edge" transform="matrix(1 0 0 1 -62 -62)">Stripe</text></g></g><g><path fill="#C0C0C0" stroke="none" paint-order="stroke fill markers" d=" M 143 89 C 143 79.0588736 151.0588736 71 161 71 C 170.9411264 71 179 79.0588736 179 89 C 179 98.9411264 170.9411264 107 161 107 C 151.0588736 107 143 98.9411264 143 89 Z" fill-opacity="0.2"/></g><g><path fill="#ffffff" stroke="none" paint-order="stroke fill markers" d=" M 136 82 C 136 72.0588736 144.0588736 64 154 64 C 163.9411264 64 172 72.0588736 172 82 C 172 91.9411264 163.9411264 100 154 100 C 144.0588736 100 136 91.9411264 136 82 Z"/></g><g><path fill="none" stroke="#000000" paint-order="fill stroke markers" d=" M 136 82 C 136 72.0588736 144.0588736 64 154 64 C 163.9411264 64 172 72.0588736 172 82 C 172 91.9411264 163.9411264 100 154 100 C 144.0588736 100 136 91.9411264 136 82 Z" stroke-miterlimit="10" stroke-dasharray=""/></g><g><rect fill="#ffffff" stroke="none" x="85.10546875" y="172" width="261.7890625" height="16" transform="matrix(1 0 0 1 -62 -62)"/></g><g><g><path fill="none" stroke="none"/><text fill="#000000" stroke="none" font-family="Arial" font-size="16px" font-style="normal" font-weight="normal" text-decoration="undefined" x="216" y="180" text-anchor="middle" dominant-baseline="central" transform="matrix(1 0 0 1 -62 -62)">Нажать кнопку "Купить N коинов"</text></g></g><g><path fill="#C0C0C0" stroke="none" paint-order="stroke fill markers" d=" M 117 197 L 223 197 Q 233 197 233 207 L 233 277 Q 233 287 223 287 L 117 287 Q 107 287 107 277 L 107 207 Q 107 197 117 197 Z" fill-opacity="0.2"/></g><g><path fill="#ffffff" stroke="none" paint-order="stroke fill markers" d=" M 110 190 L 216 190 Q 226 190 226 200 L 226 270 Q 226 280 216 280 L 110 280 Q 100 280 100 270 L 100 200 Q 100 190 110 190 Z"/></g><g><path fill="none" stroke="#000000" paint-order="fill stroke markers" d=" M 110 190 L 216 190 Q 226 190 226 200 L 226 270 Q 226 280 216 280 L 110 280 Q 100 280 100 270 L 100 200 Q 100 190 110 190 Z" stroke-miterlimit="10" stroke-dasharray=""/></g><g><g><path fill="none" stroke="none"/><text fill="#000000" stroke="none" font-family="Arial" font-size="16px" font-style="normal" font-weight="normal" text-decoration="undefined" x="225" y="265" text-anchor="middle" dominant-baseline="central" transform="matrix(1 0 0 1 -62 -62)">Отправить</text><text fill="#000000" stroke="none" font-family="Arial" font-size="16px" font-style="normal" font-weight="normal" text-decoration="undefined" x="225" y="281" text-anchor="middle" dominant-baseline="central" transform="matrix(1 0 0 1 -62 -62)">запрос на</text><text fill="#000000" stroke="none" font-family="Arial" font-size="16px" font-style="normal" font-weight="normal" text-decoration="undefined" x="225" y="297" text-anchor="middle" dominant-baseline="central" transform="matrix(1 0 0 1 -62 -62)">генерацию</text><text fill="#000000" stroke="none" font-family="Arial" font-size="16px" font-style="normal" font-weight="normal" text-decoration="undefined" x="225" y="313" text-anchor="middle" dominant-baseline="central" transform="matrix(1 0 0 1 -62 -62)">ссылки покупки</text><text fill="#000000" stroke="none" font-family="Arial" font-size="16px" font-style="normal" font-weight="normal" text-decoration="undefined" x="225" y="329" text-anchor="middle" dominant-baseline="central" transform="matrix(1 0 0 1 -62 -62)">валюты</text></g></g><g><path fill="#C0C0C0" stroke="none" paint-order="stroke fill markers" d=" M 405 233 L 529 233 Q 539 233 539 243 L 539 295 Q 539 305 529 305 L 405 305 Q 395 305 395 295 L 395 243 Q 395 233 405 233 Z" fill-opacity="0.2"/></g><g><path fill="#ffffff" stroke="none" paint-order="stroke fill markers" d=" M 398 226 L 522 226 Q 532 226 532 236 L 532 288 Q 532 298 522 298 L 398 298 Q 388 298 388 288 L 388 236 Q 388 226 398 226 Z"/></g><g><path fill="none" stroke="#000000" paint-order="fill stroke markers" d=" M 398 226 L 522 226 Q 532 226 532 236 L 532 288 Q 532 298 522 298 L 398 298 Q 388 298 388 288 L 388 236 Q 388 226 398 226 Z" stroke-miterlimit="10" stroke-dasharray=""/></g><g><g><path fill="none" stroke="none"/><text fill="#000000" stroke="none" font-family="Arial" font-size="16px" font-style="normal" font-weight="normal" text-decoration="undefined" x="522" y="308" text-anchor="middle" dominant-baseline="central" transform="matrix(1 0 0 1 -62 -62)">Проверка</text><text fill="#000000" stroke="none" font-family="Arial" font-size="16px" font-style="normal" font-weight="normal" text-decoration="undefined" x="522" y="324" text-anchor="middle" dominant-baseline="central" transform="matrix(1 0 0 1 -62 -62)">пользователя на</text><text fill="#000000" stroke="none" font-family="Arial" font-size="16px" font-style="normal" font-weight="normal" text-decoration="undefined" x="522" y="340" text-anchor="middle" dominant-baseline="central" transform="matrix(1 0 0 1 -62 -62)">валидность</text></g></g><g><path fill="#C0C0C0" stroke="none" paint-order="stroke fill markers" d=" M 405 377 L 529 377 Q 539 377 539 387 L 539 457 Q 539 467 529 467 L 405 467 Q 395 467 395 457 L 395 387 Q 395 377 405 377 Z" fill-opacity="0.2"/></g><g><path fill="#ffffff" stroke="none" paint-order="stroke fill markers" d=" M 398 370 L 522 370 Q 532 370 532 380 L 532 450 Q 532 460 522 460 L 398 460 Q 388 460 388 450 L 388 380 Q 388 370 398 370 Z"/></g><g><path fill="none" stroke="#000000" paint-order="fill stroke markers" d=" M 398 370 L 522 370 Q 532 370 532 380 L 532 450 Q 532 460 522 460 L 398 460 Q 388 460 388 450 L 388 380 Q 388 370 398 370 Z" stroke-miterlimit="10" stroke-dasharray=""/></g><g><g><path fill="none" stroke="none"/><text fill="#000000" stroke="none" font-family="Arial" font-size="16px" font-style="normal" font-weight="normal" text-decoration="undefined" x="522" y="445" text-anchor="middle" dominant-baseline="central" transform="matrix(1 0 0 1 -62 -62)">Отправить запрос</text><text fill="#000000" stroke="none" font-family="Arial" font-size="16px" font-style="normal" font-weight="normal" text-decoration="undefined" x="522" y="461" text-anchor="middle" dominant-baseline="central" transform="matrix(1 0 0 1 -62 -62)">в платёжную</text><text fill="#000000" stroke="none" font-family="Arial" font-size="16px" font-style="normal" font-weight="normal" text-decoration="undefined" x="522" y="477" text-anchor="middle" dominant-baseline="central" transform="matrix(1 0 0 1 -62 -62)">систему на</text><text fill="#000000" stroke="none" font-family="Arial" font-size="16px" font-style="normal" font-weight="normal" text-decoration="undefined" x="522" y="493" text-anchor="middle" dominant-baseline="central" transform="matrix(1 0 0 1 -62 -62)">генерацию ссылки</text><text fill="#000000" stroke="none" font-family="Arial" font-size="16px" font-style="normal" font-weight="normal" text-decoration="undefined" x="522" y="509" text-anchor="middle" dominant-baseline="central" transform="matrix(1 0 0 1 -62 -62)">покупки товара</text></g></g><g><path fill="#C0C0C0" stroke="none" paint-order="stroke fill markers" d=" M 657 503 L 781 503 Q 791 503 791 513 L 791 547 Q 791 557 781 557 L 657 557 Q 647 557 647 547 L 647 513 Q 647 503 657 503 Z" fill-opacity="0.2"/></g><g><path fill="#ffffff" stroke="none" paint-order="stroke fill markers" d=" M 650 496 L 774 496 Q 784 496 784 506 L 784 540 Q 784 550 774 550 L 650 550 Q 640 550 640 540 L 640 506 Q 640 496 650 496 Z"/></g><g><path fill="none" stroke="#000000" paint-order="fill stroke markers" d=" M 650 496 L 774 496 Q 784 496 784 506 L 784 540 Q 784 550 774 550 L 650 550 Q 640 550 640 540 L 640 506 Q 640 496 650 496 Z" stroke-miterlimit="10" stroke-dasharray=""/></g><g><g><path fill="none" stroke="none"/><text fill="#000000" stroke="none" font-family="Arial" font-size="16px" font-style="normal" font-weight="normal" text-decoration="undefined" x="774" y="577" text-anchor="middle" dominant-baseline="central" transform="matrix(1 0 0 1 -62 -62)">Сгенерировать</text><text fill="#000000" stroke="none" font-family="Arial" font-size="16px" font-style="normal" font-weight="normal" text-decoration="undefined" x="774" y="593" text-anchor="middle" dominant-baseline="central" transform="matrix(1 0 0 1 -62 -62)">ссылку </text></g></g><g><path fill="#C0C0C0" stroke="none" paint-order="stroke fill markers" d=" M 405 593 L 529 593 Q 539 593 539 603 L 539 637 Q 539 647 529 647 L 405 647 Q 395 647 395 637 L 395 603 Q 395 593 405 593 Z" fill-opacity="0.2"/></g><g><path fill="#ffffff" stroke="none" paint-order="stroke fill markers" d=" M 398 586 L 522 586 Q 532 586 532 596 L 532 630 Q 532 640 522 640 L 398 640 Q 388 640 388 630 L 388 596 Q 388 586 398 586 Z"/></g><g><path fill="none" stroke="#000000" paint-order="fill stroke markers" d=" M 398 586 L 522 586 Q 532 586 532 596 L 532 630 Q 532 640 522 640 L 398 640 Q 388 640 388 630 L 388 596 Q 388 586 398 586 Z" stroke-miterlimit="10" stroke-dasharray=""/></g><g><g><path fill="none" stroke="none"/><text fill="#000000" stroke="none" font-family="Arial" font-size="16px" font-style="normal" font-weight="normal" text-decoration="undefined" x="522" y="667" text-anchor="middle" dominant-baseline="central" transform="matrix(1 0 0 1 -62 -62)">Сформировать</text><text fill="#000000" stroke="none" font-family="Arial" font-size="16px" font-style="normal" font-weight="normal" text-decoration="undefined" x="522" y="683" text-anchor="middle" dominant-baseline="central" transform="matrix(1 0 0 1 -62 -62)">ответ</text></g></g><g><path fill="#C0C0C0" stroke="none" paint-order="stroke fill markers" d=" M 99 683 L 241 683 Q 251 683 251 693 L 251 709 Q 251 719 241 719 L 99 719 Q 89 719 89 709 L 89 693 Q 89 683 99 683 Z" fill-opacity="0.2"/></g><g><path fill="#ffffff" stroke="none" paint-order="stroke fill markers" d=" M 92 676 L 234 676 Q 244 676 244 686 L 244 702 Q 244 712 234 712 L 92 712 Q 82 712 82 702 L 82 686 Q 82 676 92 676 Z"/></g><g><path fill="none" stroke="#000000" paint-order="fill stroke markers" d=" M 92 676 L 234 676 Q 244 676 244 686 L 244 702 Q 244 712 234 712 L 92 712 Q 82 712 82 702 L 82 686 Q 82 676 92 676 Z" stroke-miterlimit="10" stroke-dasharray=""/></g><g><g><path fill="none" stroke="none"/><text fill="#000000" stroke="none" font-family="Arial" font-size="16px" font-style="normal" font-weight="normal" text-decoration="undefined" x="225" y="756" text-anchor="middle" dominant-baseline="central" transform="matrix(1 0 0 1 -62 -62)">Перейти по ссылке</text></g></g><g><path fill="#C0C0C0" stroke="none" paint-order="stroke fill markers" d=" M 99 791 L 241 791 Q 251 791 251 801 L 251 855 Q 251 865 241 865 L 99 865 Q 89 865 89 855 L 89 801 Q 89 791 99 791 Z" fill-opacity="0.2"/></g><g><path fill="#ffffff" stroke="none" paint-order="stroke fill markers" d=" M 92 784 L 234 784 Q 244 784 244 794 L 244 848 Q 244 858 234 858 L 92 858 Q 82 858 82 848 L 82 794 Q 82 784 92 784 Z"/></g><g><path fill="none" stroke="#000000" paint-order="fill stroke markers" d=" M 92 784 L 234 784 Q 244 784 244 794 L 244 848 Q 244 858 234 858 L 92 858 Q 82 858 82 848 L 82 794 Q 82 784 92 784 Z" stroke-miterlimit="10" stroke-dasharray=""/></g><g><g><path fill="none" stroke="none"/><text fill="#000000" stroke="none" font-family="Arial" font-size="16px" font-style="normal" font-weight="normal" text-decoration="undefined" x="225" y="867" text-anchor="middle" dominant-baseline="central" transform="matrix(1 0 0 1 -62 -62)">Отправить запрос</text><text fill="#000000" stroke="none" font-family="Arial" font-size="16px" font-style="normal" font-weight="normal" text-decoration="undefined" x="225" y="883" text-anchor="middle" dominant-baseline="central" transform="matrix(1 0 0 1 -62 -62)">который включает в</text><text fill="#000000" stroke="none" font-family="Arial" font-size="16px" font-style="normal" font-weight="normal" text-decoration="undefined" x="225" y="899" text-anchor="middle" dominant-baseline="central" transform="matrix(1 0 0 1 -62 -62)">себя данные карты</text></g></g><g><path fill="#C0C0C0" stroke="none" paint-order="stroke fill markers" d=" M 675 899 L 781 899 Q 791 899 791 909 L 791 963 Q 791 973 781 973 L 675 973 Q 665 973 665 963 L 665 909 Q 665 899 675 899 Z" fill-opacity="0.2"/></g><g><path fill="#ffffff" stroke="none" paint-order="stroke fill markers" d=" M 668 892 L 774 892 Q 784 892 784 902 L 784 956 Q 784 966 774 966 L 668 966 Q 658 966 658 956 L 658 902 Q 658 892 668 892 Z"/></g><g><path fill="none" stroke="#000000" paint-order="fill stroke markers" d=" M 668 892 L 774 892 Q 784 892 784 902 L 784 956 Q 784 966 774 966 L 668 966 Q 658 966 658 956 L 658 902 Q 658 892 668 892 Z" stroke-miterlimit="10" stroke-dasharray=""/></g><g><g><path fill="none" stroke="none"/><text fill="#000000" stroke="none" font-family="Arial" font-size="16px" font-style="normal" font-weight="normal" text-decoration="undefined" x="783" y="975" text-anchor="middle" dominant-baseline="central" transform="matrix(1 0 0 1 -62 -62)">Обработать</text><text fill="#000000" stroke="none" font-family="Arial" font-size="16px" font-style="normal" font-weight="normal" text-decoration="undefined" x="783" y="991" text-anchor="middle" dominant-baseline="central" transform="matrix(1 0 0 1 -62 -62)">запрос перевода</text><text fill="#000000" stroke="none" font-family="Arial" font-size="16px" font-style="normal" font-weight="normal" text-decoration="undefined" x="783" y="1007" text-anchor="middle" dominant-baseline="central" transform="matrix(1 0 0 1 -62 -62)">средств</text></g></g><g><path fill="#C0C0C0" stroke="none" paint-order="stroke fill markers" d=" M 405 1169 L 529 1169 Q 539 1169 539 1179 L 539 1231 Q 539 1241 529 1241 L 405 1241 Q 395 1241 395 1231 L 395 1179 Q 395 1169 405 1169 Z" fill-opacity="0.2"/></g><g><path fill="#ffffff" stroke="none" paint-order="stroke fill markers" d=" M 398 1162 L 522 1162 Q 532 1162 532 1172 L 532 1224 Q 532 1234 522 1234 L 398 1234 Q 388 1234 388 1224 L 388 1172 Q 388 1162 398 1162 Z"/></g><g><path fill="none" stroke="#000000" paint-order="fill stroke markers" d=" M 398 1162 L 522 1162 Q 532 1162 532 1172 L 532 1224 Q 532 1234 522 1234 L 398 1234 Q 388 1234 388 1224 L 388 1172 Q 388 1162 398 1162 Z" stroke-miterlimit="10" stroke-dasharray=""/></g><g><g><path fill="none" stroke="none"/><text fill="#000000" stroke="none" font-family="Arial" font-size="16px" font-style="normal" font-weight="normal" text-decoration="undefined" x="522" y="1252" text-anchor="middle" dominant-baseline="central" transform="matrix(1 0 0 1 -62 -62)">Обработать запрос</text><text fill="#000000" stroke="none" font-family="Arial" font-size="16px" font-style="normal" font-weight="normal" text-decoration="undefined" x="522" y="1268" text-anchor="middle" dominant-baseline="central" transform="matrix(1 0 0 1 -62 -62)">покупки валюты</text></g></g><g><path fill="#C0C0C0" stroke="none" paint-order="stroke fill markers" d=" M 693 1079 L 781 1079 Q 791 1079 791 1089 L 791 1143 Q 791 1153 781 1153 L 693 1153 Q 683 1153 683 1143 L 683 1089 Q 683 1079 693 1079 Z" fill-opacity="0.2"/></g><g><path fill="#ffffff" stroke="none" paint-order="stroke fill markers" d=" M 686 1072 L 774 1072 Q 784 1072 784 1082 L 784 1136 Q 784 1146 774 1146 L 686 1146 Q 676 1146 676 1136 L 676 1082 Q 676 1072 686 1072 Z"/></g><g><path fill="none" stroke="#000000" paint-order="fill stroke markers" d=" M 686 1072 L 774 1072 Q 784 1072 784 1082 L 784 1136 Q 784 1146 774 1146 L 686 1146 Q 676 1146 676 1136 L 676 1082 Q 676 1072 686 1072 Z" stroke-miterlimit="10" stroke-dasharray=""/></g><g><g><path fill="none" stroke="none"/><text fill="#000000" stroke="none" font-family="Arial" font-size="16px" font-style="normal" font-weight="normal" text-decoration="undefined" x="792" y="1147" text-anchor="middle" dominant-baseline="central" transform="matrix(1 0 0 1 -62 -62)">Отправить на</text><text fill="#000000" stroke="none" font-family="Arial" font-size="16px" font-style="normal" font-weight="normal" text-decoration="undefined" x="792" y="1163" text-anchor="middle" dominant-baseline="central" transform="matrix(1 0 0 1 -62 -62)">вебхук</text><text fill="#000000" stroke="none" font-family="Arial" font-size="16px" font-style="normal" font-weight="normal" text-decoration="undefined" x="792" y="1179" text-anchor="middle" dominant-baseline="central" transform="matrix(1 0 0 1 -62 -62)">результат</text><text fill="#000000" stroke="none" font-family="Arial" font-size="16px" font-style="normal" font-weight="normal" text-decoration="undefined" x="792" y="1195" text-anchor="middle" dominant-baseline="central" transform="matrix(1 0 0 1 -62 -62)">покупки</text></g></g><g><path fill="#C0C0C0" stroke="none" paint-order="stroke fill markers" d=" M 431 1331 C 431 1311.1177472 447.1177472 1295 467 1295 C 486.88225279999995 1295 503 1311.1177472 503 1331 C 503 1350.8822528 486.88225279999995 1367 467 1367 C 447.1177472 1367 431 1350.8822528 431 1331 Z" fill-opacity="0.2"/></g><g><path fill="#ffffff" stroke="none" paint-order="stroke fill markers" d=" M 424 1324 C 424 1304.1177472 440.1177472 1288 460 1288 C 479.88225279999995 1288 496 1304.1177472 496 1324 C 496 1343.8822528 479.88225279999995 1360 460 1360 C 440.1177472 1360 424 1343.8822528 424 1324 Z"/></g><g><path fill="none" stroke="#000000" paint-order="fill stroke markers" d=" M 424 1324 C 424 1304.1177472 440.1177472 1288 460 1288 C 479.88225279999995 1288 496 1304.1177472 496 1324 C 496 1343.8822528 479.88225279999995 1360 460 1360 C 440.1177472 1360 424 1343.8822528 424 1324 Z" stroke-miterlimit="10" stroke-width="3" stroke-dasharray=""/></g><g><rect fill="#ffffff" stroke="none" x="448.62109375" y="1414" width="146.7578125" height="16" transform="matrix(1 0 0 1 -62 -62)"/></g><g><g><path fill="none" stroke="none"/><text fill="#000000" stroke="none" font-family="Arial" font-size="16px" font-style="normal" font-weight="normal" text-decoration="undefined" x="522" y="1422" text-anchor="middle" dominant-baseline="central" transform="matrix(1 0 0 1 -62 -62)">Покупка завершена</text></g></g><g><path fill="none" stroke="#000000" paint-order="fill stroke markers" d=" M 155 100 L 155 190" stroke-miterlimit="10" stroke-dasharray=""/></g><g><path fill="#000000" stroke="none" paint-order="stroke fill markers" d=" M 150.790482243984 179.83732514237585 L 155 190 L 159.209517756016 179.83732514237585"/></g><g><path fill="none" stroke="#000000" paint-order="fill stroke markers" d=" M 150.790482243984 179.83732514237585 L 155 190 L 159.209517756016 179.83732514237585 L 150.790482243984 179.83732514237585" stroke-miterlimit="10" stroke-dasharray=""/></g><g><path fill="none" stroke="#000000" paint-order="fill stroke markers" d=" M 226 255 L 388 255" stroke-miterlimit="10" stroke-dasharray=""/></g><g><path fill="#000000" stroke="none" paint-order="stroke fill markers" d=" M 377.83732514237585 259.209517756016 L 388 255 L 377.83732514237585 250.790482243984"/></g><g><path fill="none" stroke="#000000" paint-order="fill stroke markers" d=" M 377.83732514237585 259.209517756016 L 388 255 L 377.83732514237585 250.790482243984 L 377.83732514237585 259.209517756016" stroke-miterlimit="10" stroke-dasharray=""/></g><g><path fill="none" stroke="#000000" paint-order="fill stroke markers" d=" M 460 298 L 460 370" stroke-miterlimit="10" stroke-dasharray=""/></g><g><path fill="#000000" stroke="none" paint-order="stroke fill markers" d=" M 455.790482243984 359.83732514237585 L 460 370 L 464.209517756016 359.83732514237585"/></g><g><path fill="none" stroke="#000000" paint-order="fill stroke markers" d=" M 455.790482243984 359.83732514237585 L 460 370 L 464.209517756016 359.83732514237585 L 455.790482243984 359.83732514237585" stroke-miterlimit="10" stroke-dasharray=""/></g><g><path fill="none" stroke="#000000" paint-order="fill stroke markers" d=" M 532 460 L 532 488 L 532 488 A 8 8 0 0 0 540 496 L 640 496" stroke-miterlimit="10" stroke-dasharray=""/></g><g><path fill="#000000" stroke="none" paint-order="stroke fill markers" d=" M 629.8373251423759 500.209517756016 L 640 496 L 629.8373251423758 491.790482243984"/></g><g><path fill="none" stroke="#000000" paint-order="fill stroke markers" d=" M 629.8373251423759 500.209517756016 L 640 496 L 629.8373251423758 491.790482243984 L 629.8373251423759 500.209517756016" stroke-miterlimit="10" stroke-dasharray=""/></g><g><path fill="none" stroke="#000000" paint-order="fill stroke markers" d=" M 640 550 L 640 579 L 640 579 A 8 8 0 0 1 632 587 L 532 587" stroke-miterlimit="10" stroke-dasharray=""/></g><g><path fill="#000000" stroke="none" paint-order="stroke fill markers" d=" M 542.1626748576241 582.790482243984 L 532 587 L 542.1626748576241 591.209517756016"/></g><g><path fill="none" stroke="#000000" paint-order="fill stroke markers" d=" M 542.1626748576241 582.790482243984 L 532 587 L 542.1626748576241 591.209517756016 L 542.1626748576241 582.790482243984" stroke-miterlimit="10" stroke-dasharray=""/></g><g><path fill="none" stroke="#000000" paint-order="fill stroke markers" d=" M 388 640 L 388 668 L 388 668 A 8 8 0 0 1 380 676 L 244 676" stroke-miterlimit="10" stroke-dasharray=""/></g><g><path fill="#000000" stroke="none" paint-order="stroke fill markers" d=" M 254.16267485762415 671.790482243984 L 244 676 L 254.16267485762415 680.209517756016"/></g><g><path fill="none" stroke="#000000" paint-order="fill stroke markers" d=" M 254.16267485762415 671.790482243984 L 244 676 L 254.16267485762415 680.209517756016 L 254.16267485762415 671.790482243984" stroke-miterlimit="10" stroke-dasharray=""/></g><g><path fill="none" stroke="#000000" paint-order="fill stroke markers" d=" M 163 712 L 163 784" stroke-miterlimit="10" stroke-dasharray=""/></g><g><path fill="#000000" stroke="none" paint-order="stroke fill markers" d=" M 158.790482243984 773.8373251423759 L 163 784 L 167.209517756016 773.8373251423759"/></g><g><path fill="none" stroke="#000000" paint-order="fill stroke markers" d=" M 158.790482243984 773.8373251423759 L 163 784 L 167.209517756016 773.8373251423759 L 158.790482243984 773.8373251423759" stroke-miterlimit="10" stroke-dasharray=""/></g><g><path fill="none" stroke="#000000" paint-order="fill stroke markers" d=" M 244 858 L 244 909 L 244 909 A 8 8 0 0 0 252 917 L 658 917" stroke-miterlimit="10" stroke-dasharray=""/></g><g><path fill="#000000" stroke="none" paint-order="stroke fill markers" d=" M 647.8373251423759 921.209517756016 L 658 917 L 647.8373251423758 912.790482243984"/></g><g><path fill="none" stroke="#000000" paint-order="fill stroke markers" d=" M 647.8373251423759 921.209517756016 L 658 917 L 647.8373251423758 912.790482243984 L 647.8373251423759 921.209517756016" stroke-miterlimit="10" stroke-dasharray=""/></g><g><path fill="none" stroke="#000000" paint-order="fill stroke markers" d=" M 723 966 L 723 1072" stroke-miterlimit="10" stroke-dasharray=""/></g><g><path fill="#000000" stroke="none" paint-order="stroke fill markers" d=" M 718.790482243984 1061.837325142376 L 723 1072 L 727.209517756016 1061.837325142376"/></g><g><path fill="none" stroke="#000000" paint-order="fill stroke markers" d=" M 718.790482243984 1061.837325142376 L 723 1072 L 727.209517756016 1061.837325142376 L 718.790482243984 1061.837325142376" stroke-miterlimit="10" stroke-dasharray=""/></g><g><path fill="none" stroke="#000000" paint-order="fill stroke markers" d=" M 676 1146 L 676 1166 L 676 1166 A 8 8 0 0 1 668 1174 L 532 1174" stroke-miterlimit="10" stroke-dasharray=""/></g><g><path fill="#000000" stroke="none" paint-order="stroke fill markers" d=" M 542.1626748576241 1169.7904822439841 L 532 1174 L 542.1626748576241 1178.2095177560159"/></g><g><path fill="none" stroke="#000000" paint-order="fill stroke markers" d=" M 542.1626748576241 1169.7904822439841 L 532 1174 L 542.1626748576241 1178.2095177560159 L 542.1626748576241 1169.7904822439841" stroke-miterlimit="10" stroke-dasharray=""/></g><g><path fill="none" stroke="#000000" paint-order="fill stroke markers" d=" M 460 1234 L 460 1288" stroke-miterlimit="10" stroke-dasharray=""/></g><g><path fill="#000000" stroke="none" paint-order="stroke fill markers" d=" M 455.790482243984 1277.837325142376 L 460 1288 L 464.209517756016 1277.837325142376"/></g><g><path fill="none" stroke="#000000" paint-order="fill stroke markers" d=" M 455.790482243984 1277.837325142376 L 460 1288 L 464.209517756016 1277.837325142376 L 455.790482243984 1277.837325142376" stroke-miterlimit="10" stroke-dasharray=""/></g></g></svg>