<svg version="1.1" xmlns="http://www.w3.org/2000/svg" xmlns:xlink="http://www.w3.org/1999/xlink" width="452.4609375" height="1705"><defs/><g><g><path fill="#C0C0C0" stroke="none" paint-order="stroke fill markers" d=" M 170.4609375 60.5 C 170.4609375 36.4756112 232.9172079 17 309.9609375 17 C 387.0046671 17 449.4609375 36.4756112 449.4609375 60.5 C 449.4609375 84.5243888 387.0046671 104 309.9609375 104 C 232.9172079 104 170.4609375 84.5243888 170.4609375 60.5 Z" fill-opacity="0.2"/></g><g><path fill="#ffffff" stroke="none" paint-order="stroke fill markers" d=" M 163.4609375 53.5 C 163.4609375 29.475611200000003 225.9172079 10 302.9609375 10 C 380.0046671 10 442.4609375 29.475611200000003 442.4609375 53.5 C 442.4609375 77.5243888 380.0046671 97 302.9609375 97 C 225.9172079 97 163.4609375 77.5243888 163.4609375 53.5 Z"/></g><g><path fill="none" stroke="#000000" paint-order="fill stroke markers" d=" M 163.4609375 53.5 C 163.4609375 29.475611200000003 225.9172079 10 302.9609375 10 C 380.0046671 10 442.4609375 29.475611200000003 442.4609375 53.5 C 442.4609375 77.5243888 380.0046671 97 302.9609375 97 C 225.9172079 97 163.4609375 77.5243888 163.4609375 53.5 Z" stroke-miterlimit="10" stroke-dasharray=""/></g><g><g><path fill="none" stroke="none"/><text fill="#000000" stroke="none" font-family="Arial" font-size="16px" font-style="normal" font-weight="bold" text-decoration="undefined" x="312.9609375" y="171.5" text-anchor="middle" dominant-baseline="central" transform="matrix(1 0 0 1 -10 -134)">Отображение суммы</text><text fill="#000000" stroke="none" font-family="Arial" font-size="16px" font-style="normal" font-weight="bold" text-decoration="undefined" x="312.9609375" y="187.5" text-anchor="middle" dominant-baseline="central" transform="matrix(1 0 0 1 -10 -134)">заработка </text></g></g><g><g><path fill="none" stroke="none"/><text fill="#000000" stroke="none" font-family="Arial" font-size="16px" font-style="normal" font-weight="normal" text-decoration="undefined" x="312.9609375" y="205.5" text-anchor="middle" dominant-baseline="central" transform="matrix(1 0 0 1 -10 -134)">(from PUC: Инфлюенсер)</text></g></g><g><path fill="#C0C0C0" stroke="none" paint-order="stroke fill markers" d=" M 170.4609375 317 C 170.4609375 280.5492032 232.9172079 251 309.9609375 251 C 387.0046671 251 449.4609375 280.5492032 449.4609375 317 C 449.4609375 353.4507968 387.0046671 383 309.9609375 383 C 232.9172079 383 170.4609375 353.4507968 170.4609375 317 Z" fill-opacity="0.2"/></g><g><path fill="#ffffff" stroke="none" paint-order="stroke fill markers" d=" M 163.4609375 310 C 163.4609375 273.5492032 225.9172079 244 302.9609375 244 C 380.0046671 244 442.4609375 273.5492032 442.4609375 310 C 442.4609375 346.4507968 380.0046671 376 302.9609375 376 C 225.9172079 376 163.4609375 346.4507968 163.4609375 310 Z"/></g><g><path fill="none" stroke="#000000" paint-order="fill stroke markers" d=" M 163.4609375 310 C 163.4609375 273.5492032 225.9172079 244 302.9609375 244 C 380.0046671 244 442.4609375 273.5492032 442.4609375 310 C 442.4609375 346.4507968 380.0046671 376 302.9609375 376 C 225.9172079 376 163.4609375 346.4507968 163.4609375 310 Z" stroke-miterlimit="10" stroke-dasharray=""/></g><g><g><path fill="none" stroke="none"/><text fill="#000000" stroke="none" font-family="Arial" font-size="16px" font-style="normal" font-weight="bold" text-decoration="undefined" x="312.9609375" y="412" text-anchor="middle" dominant-baseline="central" transform="matrix(1 0 0 1 -10 -134)">(СТАТ) Отслеживание</text><text fill="#000000" stroke="none" font-family="Arial" font-size="16px" font-style="normal" font-weight="bold" text-decoration="undefined" x="312.9609375" y="428" text-anchor="middle" dominant-baseline="central" transform="matrix(1 0 0 1 -10 -134)">зарегистрированных</text><text fill="#000000" stroke="none" font-family="Arial" font-size="16px" font-style="normal" font-weight="bold" text-decoration="undefined" x="312.9609375" y="444" text-anchor="middle" dominant-baseline="central" transform="matrix(1 0 0 1 -10 -134)">по ссылке</text><text fill="#000000" stroke="none" font-family="Arial" font-size="16px" font-style="normal" font-weight="bold" text-decoration="undefined" x="312.9609375" y="460" text-anchor="middle" dominant-baseline="central" transform="matrix(1 0 0 1 -10 -134)">пользователей</text></g></g><g><g><path fill="none" stroke="none"/><text fill="#000000" stroke="none" font-family="Arial" font-size="16px" font-style="normal" font-weight="normal" text-decoration="undefined" x="312.9609375" y="478" text-anchor="middle" dominant-baseline="central" transform="matrix(1 0 0 1 -10 -134)">(from PUC: Инфлюенсер)</text></g></g><g><path fill="#C0C0C0" stroke="none" paint-order="stroke fill markers" d=" M 170.4609375 468 C 170.4609375 437.62433599999997 232.9172079 413 309.9609375 413 C 387.0046671 413 449.4609375 437.62433599999997 449.4609375 468 C 449.4609375 498.37566400000003 387.0046671 523 309.9609375 523 C 232.9172079 523 170.4609375 498.37566400000003 170.4609375 468 Z" fill-opacity="0.2"/></g><g><path fill="#ffffff" stroke="none" paint-order="stroke fill markers" d=" M 163.4609375 461 C 163.4609375 430.62433599999997 225.9172079 406 302.9609375 406 C 380.0046671 406 442.4609375 430.62433599999997 442.4609375 461 C 442.4609375 491.37566400000003 380.0046671 516 302.9609375 516 C 225.9172079 516 163.4609375 491.37566400000003 163.4609375 461 Z"/></g><g><path fill="none" stroke="#000000" paint-order="fill stroke markers" d=" M 163.4609375 461 C 163.4609375 430.62433599999997 225.9172079 406 302.9609375 406 C 380.0046671 406 442.4609375 430.62433599999997 442.4609375 461 C 442.4609375 491.37566400000003 380.0046671 516 302.9609375 516 C 225.9172079 516 163.4609375 491.37566400000003 163.4609375 461 Z" stroke-miterlimit="10" stroke-dasharray=""/></g><g><g><path fill="none" stroke="none"/><text fill="#000000" stroke="none" font-family="Arial" font-size="16px" font-style="normal" font-weight="bold" text-decoration="undefined" x="312.9609375" y="571" text-anchor="middle" dominant-baseline="central" transform="matrix(1 0 0 1 -10 -134)">Просмотр историю</text><text fill="#000000" stroke="none" font-family="Arial" font-size="16px" font-style="normal" font-weight="bold" text-decoration="undefined" x="312.9609375" y="587" text-anchor="middle" dominant-baseline="central" transform="matrix(1 0 0 1 -10 -134)">зачислений по</text><text fill="#000000" stroke="none" font-family="Arial" font-size="16px" font-style="normal" font-weight="bold" text-decoration="undefined" x="312.9609375" y="603" text-anchor="middle" dominant-baseline="central" transform="matrix(1 0 0 1 -10 -134)">сообществу</text></g></g><g><g><path fill="none" stroke="none"/><text fill="#000000" stroke="none" font-family="Arial" font-size="16px" font-style="normal" font-weight="normal" text-decoration="undefined" x="312.9609375" y="621" text-anchor="middle" dominant-baseline="central" transform="matrix(1 0 0 1 -10 -134)">(from PUC: Инфлюенсер)</text></g></g><g><path fill="#C0C0C0" stroke="none" paint-order="stroke fill markers" d=" M 170.4609375 969.5 C 170.4609375 945.4756112 232.9172079 926 309.9609375 926 C 387.0046671 926 449.4609375 945.4756112 449.4609375 969.5 C 449.4609375 993.5243888 387.0046671 1013 309.9609375 1013 C 232.9172079 1013 170.4609375 993.5243888 170.4609375 969.5 Z" fill-opacity="0.2"/></g><g><path fill="#00D8B4" stroke="none" paint-order="stroke fill markers" d=" M 163.4609375 962.5 C 163.4609375 938.4756112 225.9172079 919 302.9609375 919 C 380.0046671 919 442.4609375 938.4756112 442.4609375 962.5 C 442.4609375 986.5243888 380.0046671 1006 302.9609375 1006 C 225.9172079 1006 163.4609375 986.5243888 163.4609375 962.5 Z"/></g><g><path fill="none" stroke="#000000" paint-order="fill stroke markers" d=" M 163.4609375 962.5 C 163.4609375 938.4756112 225.9172079 919 302.9609375 919 C 380.0046671 919 442.4609375 938.4756112 442.4609375 962.5 C 442.4609375 986.5243888 380.0046671 1006 302.9609375 1006 C 225.9172079 1006 163.4609375 986.5243888 163.4609375 962.5 Z" stroke-miterlimit="10" stroke-dasharray=""/></g><g><g><path fill="none" stroke="none"/><text fill="#000000" stroke="none" font-family="Arial" font-size="16px" font-style="normal" font-weight="bold" text-decoration="undefined" x="312.9609375" y="1080.5" text-anchor="middle" dominant-baseline="central" transform="matrix(1 0 0 1 -10 -134)">Анализ вовлечённости</text><text fill="#000000" stroke="none" font-family="Arial" font-size="16px" font-style="normal" font-weight="bold" text-decoration="undefined" x="312.9609375" y="1096.5" text-anchor="middle" dominant-baseline="central" transform="matrix(1 0 0 1 -10 -134)">рефералов</text></g></g><g><g><path fill="none" stroke="none"/><text fill="#000000" stroke="none" font-family="Arial" font-size="16px" font-style="normal" font-weight="normal" text-decoration="undefined" x="312.9609375" y="1114.5" text-anchor="middle" dominant-baseline="central" transform="matrix(1 0 0 1 -10 -134)">(from PUC: Инфлюенсер)</text></g></g><g><path fill="#C0C0C0" stroke="none" paint-order="stroke fill markers" d=" M 170.4609375 1355 C 170.4609375 1324.624336 232.9172079 1300 309.9609375 1300 C 387.0046671 1300 449.4609375 1324.624336 449.4609375 1355 C 449.4609375 1385.375664 387.0046671 1410 309.9609375 1410 C 232.9172079 1410 170.4609375 1385.375664 170.4609375 1355 Z" fill-opacity="0.2"/></g><g><path fill="#00D8B4" stroke="none" paint-order="stroke fill markers" d=" M 163.4609375 1348 C 163.4609375 1317.624336 225.9172079 1293 302.9609375 1293 C 380.0046671 1293 442.4609375 1317.624336 442.4609375 1348 C 442.4609375 1378.375664 380.0046671 1403 302.9609375 1403 C 225.9172079 1403 163.4609375 1378.375664 163.4609375 1348 Z"/></g><g><path fill="none" stroke="#000000" paint-order="fill stroke markers" d=" M 163.4609375 1348 C 163.4609375 1317.624336 225.9172079 1293 302.9609375 1293 C 380.0046671 1293 442.4609375 1317.624336 442.4609375 1348 C 442.4609375 1378.375664 380.0046671 1403 302.9609375 1403 C 225.9172079 1403 163.4609375 1378.375664 163.4609375 1348 Z" stroke-miterlimit="10" stroke-dasharray=""/></g><g><g><path fill="none" stroke="none"/><text fill="#000000" stroke="none" font-family="Arial" font-size="16px" font-style="normal" font-weight="bold" text-decoration="undefined" x="312.9609375" y="1458" text-anchor="middle" dominant-baseline="central" transform="matrix(1 0 0 1 -10 -134)">Просмотр подробной</text><text fill="#000000" stroke="none" font-family="Arial" font-size="16px" font-style="normal" font-weight="bold" text-decoration="undefined" x="312.9609375" y="1474" text-anchor="middle" dominant-baseline="central" transform="matrix(1 0 0 1 -10 -134)">статистики дохода по</text><text fill="#000000" stroke="none" font-family="Arial" font-size="16px" font-style="normal" font-weight="bold" text-decoration="undefined" x="312.9609375" y="1490" text-anchor="middle" dominant-baseline="central" transform="matrix(1 0 0 1 -10 -134)">дням и челенджам</text></g></g><g><g><path fill="none" stroke="none"/><text fill="#000000" stroke="none" font-family="Arial" font-size="16px" font-style="normal" font-weight="normal" text-decoration="undefined" x="312.9609375" y="1508" text-anchor="middle" dominant-baseline="central" transform="matrix(1 0 0 1 -10 -134)">(from PUC: Инфлюенсер)</text></g></g><g><path fill="#C0C0C0" stroke="none" paint-order="stroke fill markers" d=" M 170.4609375 1624.5 C 170.4609375 1581.697928 232.9172079 1547 309.9609375 1547 C 387.0046671 1547 449.4609375 1581.697928 449.4609375 1624.5 C 449.4609375 1667.302072 387.0046671 1702 309.9609375 1702 C 232.9172079 1702 170.4609375 1667.302072 170.4609375 1624.5 Z" fill-opacity="0.2"/></g><g><path fill="#00D8B4" stroke="none" paint-order="stroke fill markers" d=" M 163.4609375 1617.5 C 163.4609375 1574.697928 225.9172079 1540 302.9609375 1540 C 380.0046671 1540 442.4609375 1574.697928 442.4609375 1617.5 C 442.4609375 1660.302072 380.0046671 1695 302.9609375 1695 C 225.9172079 1695 163.4609375 1660.302072 163.4609375 1617.5 Z"/></g><g><path fill="none" stroke="#000000" paint-order="fill stroke markers" d=" M 163.4609375 1617.5 C 163.4609375 1574.697928 225.9172079 1540 302.9609375 1540 C 380.0046671 1540 442.4609375 1574.697928 442.4609375 1617.5 C 442.4609375 1660.302072 380.0046671 1695 302.9609375 1695 C 225.9172079 1695 163.4609375 1660.302072 163.4609375 1617.5 Z" stroke-miterlimit="10" stroke-dasharray=""/></g><g><g><path fill="none" stroke="none"/><text fill="#000000" stroke="none" font-family="Arial" font-size="16px" font-style="normal" font-weight="bold" text-decoration="undefined" x="312.9609375" y="1711.5" text-anchor="middle" dominant-baseline="central" transform="matrix(1 0 0 1 -10 -134)">Получение</text><text fill="#000000" stroke="none" font-family="Arial" font-size="16px" font-style="normal" font-weight="bold" text-decoration="undefined" x="312.9609375" y="1727.5" text-anchor="middle" dominant-baseline="central" transform="matrix(1 0 0 1 -10 -134)">уведомлений о</text><text fill="#000000" stroke="none" font-family="Arial" font-size="16px" font-style="normal" font-weight="bold" text-decoration="undefined" x="312.9609375" y="1743.5" text-anchor="middle" dominant-baseline="central" transform="matrix(1 0 0 1 -10 -134)">повышении процента</text><text fill="#000000" stroke="none" font-family="Arial" font-size="16px" font-style="normal" font-weight="bold" text-decoration="undefined" x="312.9609375" y="1759.5" text-anchor="middle" dominant-baseline="central" transform="matrix(1 0 0 1 -10 -134)">пропусков  в</text><text fill="#000000" stroke="none" font-family="Arial" font-size="16px" font-style="normal" font-weight="bold" text-decoration="undefined" x="312.9609375" y="1775.5" text-anchor="middle" dominant-baseline="central" transform="matrix(1 0 0 1 -10 -134)">сообществе</text></g></g><g><g><path fill="none" stroke="none"/><text fill="#000000" stroke="none" font-family="Arial" font-size="16px" font-style="normal" font-weight="normal" text-decoration="undefined" x="312.9609375" y="1793.5" text-anchor="middle" dominant-baseline="central" transform="matrix(1 0 0 1 -10 -134)">(from PUC: Инфлюенсер)</text></g></g><g><path fill="#ffffff" stroke="none" paint-order="stroke fill markers" d=" M 62.89046875 804.85 C 62.89046875 799.96227952 66.848271118 796 71.73046875 796 C 76.612666382 796 80.57046875 799.96227952 80.57046875 804.85 C 80.57046875 809.73772048 76.612666382 813.7 71.73046875 813.7 C 66.848271118 813.7 62.89046875 809.73772048 62.89046875 804.85 Z"/></g><g><path fill="none" stroke="#000000" paint-order="fill stroke markers" d=" M 62.89046875 804.85 C 62.89046875 799.96227952 66.848271118 796 71.73046875 796 C 76.612666382 796 80.57046875 799.96227952 80.57046875 804.85 C 80.57046875 809.73772048 76.612666382 813.7 71.73046875 813.7 C 66.848271118 813.7 62.89046875 809.73772048 62.89046875 804.85 Z" stroke-miterlimit="10" stroke-dasharray=""/></g><g><path fill="none" stroke="#000000" paint-order="fill stroke markers" d=" M 71.73046875 813.7 L 71.73046875 831.3" stroke-miterlimit="10" stroke-dasharray=""/></g><g><path fill="none" stroke="#000000" paint-order="fill stroke markers" d=" M 62.37046875 820.3 L 81.09046875 820.3" stroke-miterlimit="10" stroke-dasharray=""/></g><g><path fill="none" stroke="#000000" paint-order="fill stroke markers" d=" M 71.73046875 831.3 L 58.73046875 849" stroke-miterlimit="10" stroke-dasharray=""/></g><g><path fill="none" stroke="#000000" paint-order="fill stroke markers" d=" M 71.73046875 831.3 L 84.73046875 849" stroke-miterlimit="10" stroke-dasharray=""/></g><g><g><path fill="none" stroke="none"/><text fill="#000000" stroke="none" font-family="Arial" font-size="16px" font-style="normal" font-weight="bold" text-decoration="undefined" x="82.23046875" y="999" text-anchor="middle" dominant-baseline="central" transform="matrix(1 0 0 1 -10 -134)">Пользователь</text></g></g><g><g><path fill="none" stroke="none"/><text fill="#000000" stroke="none" font-family="Arial" font-size="16px" font-style="normal" font-weight="normal" text-decoration="undefined" x="82.23046875" y="1017" text-anchor="middle" dominant-baseline="central" transform="matrix(1 0 0 1 -10 -134)">(from Actors)</text></g></g><g><path fill="none" stroke="#000000" paint-order="fill stroke markers" d=" M 76 794 Q 148 54 162 54" stroke-miterlimit="10" stroke-dasharray=""/></g><g><path fill="none" stroke="#000000" paint-order="fill stroke markers" d=" M 78 794 Q 148 310 162 310" stroke-miterlimit="10" stroke-dasharray=""/></g><g><path fill="none" stroke="#000000" paint-order="fill stroke markers" d=" M 81 794 Q 148 450 162 451" stroke-miterlimit="10" stroke-dasharray=""/></g><g><path fill="none" stroke="#000000" paint-order="fill stroke markers" d=" M 105 897 Q 148 963 162 963" stroke-miterlimit="10" stroke-dasharray=""/></g><g><path fill="none" stroke="#000000" paint-order="fill stroke markers" d=" M 79 897 Q 148 1348 162 1348" stroke-miterlimit="10" stroke-dasharray=""/></g><g><path fill="none" stroke="#000000" paint-order="fill stroke markers" d=" M 76 897 Q 148 1661 162 1657" stroke-miterlimit="10" stroke-dasharray=""/></g></g></svg>