<svg version="1.1" xmlns="http://www.w3.org/2000/svg" xmlns:xlink="http://www.w3.org/1999/xlink" width="423.84375" height="430"><defs/><g><g><path fill="#C0C0C0" stroke="none" paint-order="stroke fill markers" d=" M 320.4296875 34 C 320.4296875 24.611158400000022 328.0408459 17 337.4296875 17 C 346.8185291 17 354.4296875 24.611158400000022 354.4296875 34 C 354.4296875 43.38884159999998 346.8185291 51 337.4296875 51 C 328.0408459 51 320.4296875 43.38884159999998 320.4296875 34 Z" fill-opacity="0.2"/></g><g><path fill="#C0C0C0" stroke="none" paint-order="stroke fill markers" d=" M 293 59 L 381.859375 59 Q 387.859375 59 387.859375 65 L 387.859375 145 Q 387.859375 151 381.859375 151 L 293 151 Q 287 151 287 145 L 287 65 Q 287 59 293 59 Z" fill-opacity="0.2"/></g><g><path fill="#38bcff" stroke="none" paint-order="stroke fill markers" d=" M 313.4296875 27 C 313.4296875 17.611158400000022 321.0408459 10 330.4296875 10 C 339.8185291 10 347.4296875 17.611158400000022 347.4296875 27 C 347.4296875 36.38884159999998 339.8185291 44 330.4296875 44 C 321.0408459 44 313.4296875 36.38884159999998 313.4296875 27 Z"/></g><g><path fill="none" stroke="#000000" paint-order="fill stroke markers" d=" M 313.4296875 27 C 313.4296875 17.611158400000022 321.0408459 10 330.4296875 10 C 339.8185291 10 347.4296875 17.611158400000022 347.4296875 27 C 347.4296875 36.38884159999998 339.8185291 44 330.4296875 44 C 321.0408459 44 313.4296875 36.38884159999998 313.4296875 27 Z" stroke-miterlimit="10" stroke-dasharray=""/></g><g><path fill="#38bcff" stroke="none" paint-order="stroke fill markers" d=" M 286 52 L 374.859375 52 Q 380.859375 52 380.859375 58 L 380.859375 138 Q 380.859375 144 374.859375 144 L 286 144 Q 280 144 280 138 L 280 58 Q 280 52 286 52 Z"/></g><g><path fill="none" stroke="#000000" paint-order="fill stroke markers" d=" M 286 52 L 374.859375 52 Q 380.859375 52 380.859375 58 L 380.859375 138 Q 380.859375 144 374.859375 144 L 286 144 Q 280 144 280 138 L 280 58 Q 280 52 286 52 Z" stroke-miterlimit="10" stroke-dasharray=""/></g><g><g><path fill="none" stroke="none"/><text fill="#000000" stroke="none" font-family="Arial" font-size="16px" font-style="normal" font-weight="bold" text-decoration="undefined" x="1130.4296875" y="328" text-anchor="middle" dominant-baseline="central" transform="matrix(1 0 0 1 -800 -260)">Создатель</text><text fill="#000000" stroke="none" font-family="Arial" font-size="16px" font-style="normal" font-weight="bold" text-decoration="undefined" x="1130.4296875" y="344" text-anchor="middle" dominant-baseline="central" transform="matrix(1 0 0 1 -800 -260)">шаблона</text><text fill="#000000" stroke="none" font-family="Arial" font-size="16px" font-style="normal" font-weight="bold" text-decoration="undefined" x="1130.4296875" y="360" text-anchor="middle" dominant-baseline="central" transform="matrix(1 0 0 1 -800 -260)">КД</text></g></g><g><g><path fill="none" stroke="none"/><text fill="#000000" stroke="none" font-family="Arial" font-size="16px" font-style="normal" font-weight="normal" text-decoration="undefined" x="1130.4296875" y="378" text-anchor="middle" dominant-baseline="central" transform="matrix(1 0 0 1 -800 -260)">[Person]</text></g></g><g><g><path fill="none" stroke="none"/></g></g><g><path fill="#C0C0C0" stroke="none" paint-order="stroke fill markers" d=" M 257 287 L 414.84375 287 Q 420.84375 287 420.84375 293 L 420.84375 421 Q 420.84375 427 414.84375 427 L 257 427 Q 251 427 251 421 L 251 293 Q 251 287 257 287 Z" fill-opacity="0.2"/></g><g><path fill="#6dceff" stroke="none" paint-order="stroke fill markers" d=" M 250 280 L 407.84375 280 Q 413.84375 280 413.84375 286 L 413.84375 414 Q 413.84375 420 407.84375 420 L 250 420 Q 244 420 244 414 L 244 286 Q 244 280 250 280 Z"/></g><g><path fill="none" stroke="#000000" paint-order="fill stroke markers" d=" M 250 280 L 407.84375 280 Q 413.84375 280 413.84375 286 L 413.84375 414 Q 413.84375 420 407.84375 420 L 250 420 Q 244 420 244 414 L 244 286 Q 244 280 250 280 Z" stroke-miterlimit="10" stroke-dasharray=""/></g><g><g><path fill="none" stroke="none"/><text fill="#000000" stroke="none" font-family="Arial" font-size="16px" font-style="normal" font-weight="bold" text-decoration="undefined" x="1128.921875" y="556" text-anchor="middle" dominant-baseline="central" transform="matrix(1 0 0 1 -800 -260)">С4 Создание</text><text fill="#000000" stroke="none" font-family="Arial" font-size="16px" font-style="normal" font-weight="bold" text-decoration="undefined" x="1128.921875" y="572" text-anchor="middle" dominant-baseline="central" transform="matrix(1 0 0 1 -800 -260)">Шаблона КД</text></g></g><g><g><path fill="none" stroke="none"/><text fill="#000000" stroke="none" font-family="Arial" font-size="16px" font-style="normal" font-weight="normal" text-decoration="undefined" x="1128.921875" y="590" text-anchor="middle" dominant-baseline="central" transform="matrix(1 0 0 1 -800 -260)">[Software System]</text></g></g><g><g><path fill="none" stroke="none"/><text fill="#000000" stroke="none" font-family="Arial" font-size="16px" font-style="normal" font-weight="normal" text-decoration="undefined" x="1128.921875" y="616" text-anchor="middle" dominant-baseline="central" transform="matrix(1 0 0 1 -800 -260)">Эта система</text><text fill="#000000" stroke="none" font-family="Arial" font-size="16px" font-style="normal" font-weight="normal" text-decoration="undefined" x="1128.921875" y="632" text-anchor="middle" dominant-baseline="central" transform="matrix(1 0 0 1 -800 -260)">описывает то, как</text><text fill="#000000" stroke="none" font-family="Arial" font-size="16px" font-style="normal" font-weight="normal" text-decoration="undefined" x="1128.921875" y="648" text-anchor="middle" dominant-baseline="central" transform="matrix(1 0 0 1 -800 -260)">создаётся шаблон</text><text fill="#000000" stroke="none" font-family="Arial" font-size="16px" font-style="normal" font-weight="normal" text-decoration="undefined" x="1128.921875" y="664" text-anchor="middle" dominant-baseline="central" transform="matrix(1 0 0 1 -800 -260)">кд.</text></g></g><g><path fill="none" stroke="#000000" paint-order="fill stroke markers" d=" M 330 145 L 329 279" stroke-miterlimit="10" stroke-dasharray="3"/></g><g><path fill="#000000" stroke="none" paint-order="stroke fill markers" d=" M 324.86643820205063 268.8061946819387 L 329 279 L 333.285239288713 268.86902155571977"/></g><g><path fill="none" stroke="#000000" paint-order="fill stroke markers" d=" M 324.86643820205063 268.8061946819387 L 329 279 L 333.285239288713 268.86902155571977 L 324.86643820205063 268.8061946819387" stroke-miterlimit="10" stroke-dasharray=""/></g><g><rect fill="#ffffff" stroke="none" x="810" y="270" width="254.4140625" height="26" transform="matrix(1 0 0 1 -800 -260)"/></g><g><path fill="none" stroke="#000000" paint-order="fill stroke markers" d=" M 10 10 L 264.4140625 10 L 264.4140625 36 L 10 36 L 10 10 Z Z" stroke-miterlimit="10" stroke-dasharray=""/></g><g><path fill="none" stroke="#000000" paint-order="fill stroke markers" d=" M 47.5625 10 L 47.5625 36" stroke-miterlimit="10" stroke-dasharray=""/></g><g><g><path fill="none" stroke="none"/><text fill="#000000" stroke="none" font-family="Arial" font-size="16px" font-style="normal" font-weight="normal" text-decoration="undefined" x="955.98828125" y="283" text-anchor="middle" dominant-baseline="central" transform="matrix(1 0 0 1 -800 -260)">BPMN Создать шаблона КД</text></g></g><g><g><path fill="none" stroke="none"/><text fill="#000000" stroke="none" font-family="Arial" font-size="16px" font-style="normal" font-weight="bold" text-decoration="undefined" x="828.78125" y="283" text-anchor="middle" dominant-baseline="central" transform="matrix(1 0 0 1 -800 -260)">link</text></g></g></g></svg>