<svg version="1.1" xmlns="http://www.w3.org/2000/svg" xmlns:xlink="http://www.w3.org/1999/xlink" width="2198" height="956"><defs/><g><g><path fill="none" stroke="#000000" paint-order="fill stroke markers" d=" M 10 10 L 2188 10 L 2188 388 L 10 388 L 10 10 Z Z" stroke-miterlimit="10" stroke-dasharray=""/></g><g><path fill="none" stroke="#000000" paint-order="fill stroke markers" d=" M 36 10 L 36 388" stroke-miterlimit="10" stroke-dasharray=""/></g><g><g><path fill="none" stroke="none"/><text fill="#000000" stroke="none" font-family="Arial" font-size="16px" font-style="normal" font-weight="normal" text-decoration="undefined" x="0" y="0" text-anchor="middle" dominant-baseline="text-before-edge" transform="matrix(6.123233995736766e-17 -1 1 6.123233995736766e-17 15 199)">Пользователь</text></g></g><g><path fill="none" stroke="#000000" paint-order="fill stroke markers" d=" M 10 424 L 2188 424 L 2188 946 L 10 946 L 10 424 Z Z" stroke-miterlimit="10" stroke-dasharray=""/></g><g><path fill="none" stroke="#000000" paint-order="fill stroke markers" d=" M 36 424 L 36 946" stroke-miterlimit="10" stroke-dasharray=""/></g><g><g><path fill="none" stroke="none"/><text fill="#000000" stroke="none" font-family="Arial" font-size="16px" font-style="normal" font-weight="normal" text-decoration="undefined" x="0" y="0" text-anchor="middle" dominant-baseline="text-before-edge" transform="matrix(6.123233995736766e-17 -1 1 6.123233995736766e-17 15 685)">Апи Сервер</text></g></g><g><path fill="#C0C0C0" stroke="none" paint-order="stroke fill markers" d=" M 161 159 C 161 150.16344320000002 168.16344320000002 143 177 143 C 185.83655679999998 143 193 150.16344320000002 193 159 C 193 167.83655679999998 185.83655679999998 175 177 175 C 168.16344320000002 175 161 167.83655679999998 161 159 Z" fill-opacity="0.2"/></g><g><path fill="#ffffff" stroke="none" paint-order="stroke fill markers" d=" M 154 152 C 154 143.16344320000002 161.16344320000002 136 170 136 C 178.83655679999998 136 186 143.16344320000002 186 152 C 186 160.83655679999998 178.83655679999998 168 170 168 C 161.16344320000002 168 154 160.83655679999998 154 152 Z"/></g><g><path fill="none" stroke="#000000" paint-order="fill stroke markers" d=" M 154 152 C 154 143.16344320000002 161.16344320000002 136 170 136 C 178.83655679999998 136 186 143.16344320000002 186 152 C 186 160.83655679999998 178.83655679999998 168 170 168 C 161.16344320000002 168 154 160.83655679999998 154 152 Z" stroke-miterlimit="10" stroke-dasharray=""/></g><g><rect fill="#ffffff" stroke="none" x="290.82421875" y="395" width="134.3515625" height="48" transform="matrix(1 0 0 1 -188 -224)"/></g><g><g><path fill="none" stroke="none"/><text fill="#000000" stroke="none" font-family="Arial" font-size="16px" font-style="normal" font-weight="normal" text-decoration="undefined" x="358" y="403" text-anchor="middle" dominant-baseline="central" transform="matrix(1 0 0 1 -188 -224)">Зашёл на</text><text fill="#000000" stroke="none" font-family="Arial" font-size="16px" font-style="normal" font-weight="normal" text-decoration="undefined" x="358" y="419" text-anchor="middle" dominant-baseline="central" transform="matrix(1 0 0 1 -188 -224)">вкладку</text><text fill="#000000" stroke="none" font-family="Arial" font-size="16px" font-style="normal" font-weight="normal" text-decoration="undefined" x="358" y="435" text-anchor="middle" dominant-baseline="central" transform="matrix(1 0 0 1 -188 -224)">сообщества</text></g></g><g><path fill="#C0C0C0" stroke="none" paint-order="stroke fill markers" d=" M 351 125 L 430.5703125 125 Q 440.5703125 125 440.5703125 135 L 440.5703125 205 Q 440.5703125 215 430.5703125 215 L 351 215 Q 341 215 341 205 L 341 135 Q 341 125 351 125 Z" fill-opacity="0.2"/></g><g><path fill="#ffffff" stroke="none" paint-order="stroke fill markers" d=" M 344 118 L 423.5703125 118 Q 433.5703125 118 433.5703125 128 L 433.5703125 198 Q 433.5703125 208 423.5703125 208 L 344 208 Q 334 208 334 198 L 334 128 Q 334 118 344 118 Z"/></g><g><path fill="none" stroke="#000000" paint-order="fill stroke markers" d=" M 344 118 L 423.5703125 118 Q 433.5703125 118 433.5703125 128 L 433.5703125 198 Q 433.5703125 208 423.5703125 208 L 344 208 Q 334 208 334 198 L 334 128 Q 334 118 344 118 Z" stroke-miterlimit="10" stroke-dasharray=""/></g><g><g><path fill="none" stroke="none"/><text fill="#000000" stroke="none" font-family="Arial" font-size="16px" font-style="normal" font-weight="normal" text-decoration="undefined" x="571.78515625" y="355" text-anchor="middle" dominant-baseline="central" transform="matrix(1 0 0 1 -188 -224)">Раскрыл</text><text fill="#000000" stroke="none" font-family="Arial" font-size="16px" font-style="normal" font-weight="normal" text-decoration="undefined" x="571.78515625" y="371" text-anchor="middle" dominant-baseline="central" transform="matrix(1 0 0 1 -188 -224)">вкладку всех</text><text fill="#000000" stroke="none" font-family="Arial" font-size="16px" font-style="normal" font-weight="normal" text-decoration="undefined" x="571.78515625" y="387" text-anchor="middle" dominant-baseline="central" transform="matrix(1 0 0 1 -188 -224)">командных</text><text fill="#000000" stroke="none" font-family="Arial" font-size="16px" font-style="normal" font-weight="normal" text-decoration="undefined" x="571.78515625" y="403" text-anchor="middle" dominant-baseline="central" transform="matrix(1 0 0 1 -188 -224)">действий</text><text fill="#000000" stroke="none" font-family="Arial" font-size="16px" font-style="normal" font-weight="normal" text-decoration="undefined" x="571.78515625" y="419" text-anchor="middle" dominant-baseline="central" transform="matrix(1 0 0 1 -188 -224)">сообщества</text></g></g><g><path fill="#C0C0C0" stroke="none" paint-order="stroke fill markers" d=" M 737 89 L 759.4 89 L 769 98.60000000000002 L 769 129 L 737 129" fill-opacity="0.2"/></g><g><path fill="#ffffff" stroke="none" paint-order="stroke fill markers" d=" M 730 82 L 752.4 82 L 762 91.60000000000002 L 762 122 L 730 122"/></g><g><path fill="none" stroke="#000000" paint-order="fill stroke markers" d=" M 730 82 L 752.4 82 L 762 91.60000000000002 L 762 122 L 730 122 L 730 82" stroke-miterlimit="10" stroke-dasharray=""/></g><g><path fill="none" stroke="#000000" paint-order="fill stroke markers" d=" M 752.4 82 L 752.4 91.60000000000002 L 762 91.60000000000002 L 752.4 82" stroke-miterlimit="10" stroke-dasharray=""/></g><g><rect fill="#ffffff" stroke="none" x="850.51171875" y="359" width="166.9765625" height="32" transform="matrix(1 0 0 1 -188 -224)"/></g><g><g><path fill="none" stroke="none"/><text fill="#000000" stroke="none" font-family="Arial" font-size="16px" font-style="normal" font-weight="normal" text-decoration="undefined" x="934" y="367" text-anchor="middle" dominant-baseline="central" transform="matrix(1 0 0 1 -188 -224)">Список КД в которых </text><text fill="#000000" stroke="none" font-family="Arial" font-size="16px" font-style="normal" font-weight="normal" text-decoration="undefined" x="934" y="383" text-anchor="middle" dominant-baseline="central" transform="matrix(1 0 0 1 -188 -224)">состоит Пользователь</text></g></g><g><path fill="#C0C0C0" stroke="none" paint-order="stroke fill markers" d=" M 863 233 L 885.4000000000001 233 L 895 242.60000000000002 L 895 273 L 863 273" fill-opacity="0.2"/></g><g><path fill="#ffffff" stroke="none" paint-order="stroke fill markers" d=" M 856 226 L 878.4000000000001 226 L 888 235.60000000000002 L 888 266 L 856 266"/></g><g><path fill="none" stroke="#000000" paint-order="fill stroke markers" d=" M 856 226 L 878.4000000000001 226 L 888 235.60000000000002 L 888 266 L 856 266 L 856 226" stroke-miterlimit="10" stroke-dasharray=""/></g><g><path fill="none" stroke="#000000" paint-order="fill stroke markers" d=" M 878.4000000000001 226 L 878.4000000000001 235.60000000000002 L 888 235.60000000000002 L 878.4000000000001 226" stroke-miterlimit="10" stroke-dasharray=""/></g><g><rect fill="#ffffff" stroke="none" x="887.57421875" y="498" width="344.8515625" height="16" transform="matrix(1 0 0 1 -188 -224)"/></g><g><g><path fill="none" stroke="none"/><text fill="#000000" stroke="none" font-family="Arial" font-size="16px" font-style="normal" font-weight="normal" text-decoration="undefined" x="1060" y="506" text-anchor="middle" dominant-baseline="central" transform="matrix(1 0 0 1 -188 -224)">Список КД в которых не состоит пользователь</text></g></g><g><path fill="#C0C0C0" stroke="none" paint-order="stroke fill markers" d=" M 621 485 L 711.9921875 485 Q 721.9921875 485 721.9921875 495 L 721.9921875 581 Q 721.9921875 591 711.9921875 591 L 621 591 Q 611 591 611 581 L 611 495 Q 611 485 621 485 Z" fill-opacity="0.2"/></g><g><path fill="#ffffff" stroke="none" paint-order="stroke fill markers" d=" M 614 478 L 704.9921875 478 Q 714.9921875 478 714.9921875 488 L 714.9921875 574 Q 714.9921875 584 704.9921875 584 L 614 584 Q 604 584 604 574 L 604 488 Q 604 478 614 478 Z"/></g><g><path fill="none" stroke="#000000" paint-order="fill stroke markers" d=" M 614 478 L 704.9921875 478 Q 714.9921875 478 714.9921875 488 L 714.9921875 574 Q 714.9921875 584 704.9921875 584 L 614 584 Q 604 584 604 574 L 604 488 Q 604 478 614 478 Z" stroke-miterlimit="10" stroke-dasharray=""/></g><g><g><path fill="none" stroke="none"/><text fill="#000000" stroke="none" font-family="Arial" font-size="16px" font-style="normal" font-weight="normal" text-decoration="undefined" x="847.49609375" y="723" text-anchor="middle" dominant-baseline="central" transform="matrix(1 0 0 1 -188 -224)">Извлекаем КД</text><text fill="#000000" stroke="none" font-family="Arial" font-size="16px" font-style="normal" font-weight="normal" text-decoration="undefined" x="847.49609375" y="739" text-anchor="middle" dominant-baseline="central" transform="matrix(1 0 0 1 -188 -224)">сообщества в</text><text fill="#000000" stroke="none" font-family="Arial" font-size="16px" font-style="normal" font-weight="normal" text-decoration="undefined" x="847.49609375" y="755" text-anchor="middle" dominant-baseline="central" transform="matrix(1 0 0 1 -188 -224)">которых</text><text fill="#000000" stroke="none" font-family="Arial" font-size="16px" font-style="normal" font-weight="normal" text-decoration="undefined" x="847.49609375" y="771" text-anchor="middle" dominant-baseline="central" transform="matrix(1 0 0 1 -188 -224)">состоит</text><text fill="#000000" stroke="none" font-family="Arial" font-size="16px" font-style="normal" font-weight="normal" text-decoration="undefined" x="847.49609375" y="787" text-anchor="middle" dominant-baseline="central" transform="matrix(1 0 0 1 -188 -224)">пользователь</text></g></g><g><path fill="#C0C0C0" stroke="none" paint-order="stroke fill markers" d=" M 657 629 L 747.9921875 629 Q 757.9921875 629 757.9921875 639 L 757.9921875 725 Q 757.9921875 735 747.9921875 735 L 657 735 Q 647 735 647 725 L 647 639 Q 647 629 657 629 Z" fill-opacity="0.2"/></g><g><path fill="#ffffff" stroke="none" paint-order="stroke fill markers" d=" M 650 622 L 740.9921875 622 Q 750.9921875 622 750.9921875 632 L 750.9921875 718 Q 750.9921875 728 740.9921875 728 L 650 728 Q 640 728 640 718 L 640 632 Q 640 622 650 622 Z"/></g><g><path fill="none" stroke="#000000" paint-order="fill stroke markers" d=" M 650 622 L 740.9921875 622 Q 750.9921875 622 750.9921875 632 L 750.9921875 718 Q 750.9921875 728 740.9921875 728 L 650 728 Q 640 728 640 718 L 640 632 Q 640 622 650 622 Z" stroke-miterlimit="10" stroke-dasharray=""/></g><g><g><path fill="none" stroke="none"/><text fill="#000000" stroke="none" font-family="Arial" font-size="16px" font-style="normal" font-weight="normal" text-decoration="undefined" x="883.49609375" y="867" text-anchor="middle" dominant-baseline="central" transform="matrix(1 0 0 1 -188 -224)">Извлекаем КД</text><text fill="#000000" stroke="none" font-family="Arial" font-size="16px" font-style="normal" font-weight="normal" text-decoration="undefined" x="883.49609375" y="883" text-anchor="middle" dominant-baseline="central" transform="matrix(1 0 0 1 -188 -224)">сообщества в</text><text fill="#000000" stroke="none" font-family="Arial" font-size="16px" font-style="normal" font-weight="normal" text-decoration="undefined" x="883.49609375" y="899" text-anchor="middle" dominant-baseline="central" transform="matrix(1 0 0 1 -188 -224)">которых</text><text fill="#000000" stroke="none" font-family="Arial" font-size="16px" font-style="normal" font-weight="normal" text-decoration="undefined" x="883.49609375" y="915" text-anchor="middle" dominant-baseline="central" transform="matrix(1 0 0 1 -188 -224)">пользователь</text><text fill="#000000" stroke="none" font-family="Arial" font-size="16px" font-style="normal" font-weight="normal" text-decoration="undefined" x="883.49609375" y="931" text-anchor="middle" dominant-baseline="central" transform="matrix(1 0 0 1 -188 -224)">не состоит </text></g></g><g><path fill="#C0C0C0" stroke="none" paint-order="stroke fill markers" d=" M 467 627 L 483 611 L 499 627 L 483 643 L 467 627" fill-opacity="0.2"/></g><g><path fill="#ffffff" stroke="none" paint-order="stroke fill markers" d=" M 460 620 L 476 604 L 492 620 L 476 636 L 460 620"/></g><g><path fill="none" stroke="#000000" paint-order="fill stroke markers" d=" M 460 620 L 476 604 L 492 620 L 476 636 L 460 620 L 460 620" stroke-miterlimit="10" stroke-dasharray=""/></g><g><path fill="none" stroke="#000000" paint-order="fill stroke markers" d=" M 476 612 L 476 628" stroke-miterlimit="10" stroke-width="3" stroke-dasharray=""/></g><g><path fill="none" stroke="#000000" paint-order="fill stroke markers" d=" M 468 620 L 484 620" stroke-miterlimit="10" stroke-width="3" stroke-dasharray=""/></g><g><path fill="none" stroke="#000000" paint-order="fill stroke markers" d=" M 392 208 L 392 612 L 392 612 A 8 8 0 0 0 400 620 L 460 620" stroke-miterlimit="10" stroke-dasharray=""/></g><g><path fill="#000000" stroke="none" paint-order="stroke fill markers" d=" M 449.8373251423759 624.209517756016 L 460 620 L 449.8373251423758 615.790482243984"/></g><g><path fill="none" stroke="#000000" paint-order="fill stroke markers" d=" M 449.8373251423759 624.209517756016 L 460 620 L 449.8373251423758 615.790482243984 L 449.8373251423759 624.209517756016" stroke-miterlimit="10" stroke-dasharray=""/></g><g><path fill="none" stroke="#000000" paint-order="fill stroke markers" d=" M 492 612 L 596 612 L 596 612 A 8 8 0 0 0 604 604 L 604 584" stroke-miterlimit="10" stroke-dasharray=""/></g><g><path fill="#000000" stroke="none" paint-order="stroke fill markers" d=" M 608.209517756016 594.1626748576241 L 604 584 L 599.790482243984 594.1626748576241"/></g><g><path fill="none" stroke="#000000" paint-order="fill stroke markers" d=" M 608.209517756016 594.1626748576241 L 604 584 L 599.790482243984 594.1626748576241 L 608.209517756016 594.1626748576241" stroke-miterlimit="10" stroke-dasharray=""/></g><g><path fill="none" stroke="#000000" paint-order="fill stroke markers" d=" M 492 636 L 492 653 L 492 653 A 8 8 0 0 0 500 661 L 640 661" stroke-miterlimit="10" stroke-dasharray=""/></g><g><path fill="#000000" stroke="none" paint-order="stroke fill markers" d=" M 629.8373251423759 665.209517756016 L 640 661 L 629.8373251423758 656.790482243984"/></g><g><path fill="none" stroke="#000000" paint-order="fill stroke markers" d=" M 629.8373251423759 665.209517756016 L 640 661 L 629.8373251423758 656.790482243984 L 629.8373251423759 665.209517756016" stroke-miterlimit="10" stroke-dasharray=""/></g><g><path fill="none" stroke="#000000" paint-order="fill stroke markers" d=" M 715 567 L 734 567 L 734 567 A 8 8 0 0 0 742 559 L 742 122" stroke-miterlimit="10" stroke-dasharray=""/></g><g><path fill="#000000" stroke="none" paint-order="stroke fill markers" d=" M 746.209517756016 132.16267485762415 L 742 122 L 737.790482243984 132.16267485762415"/></g><g><path fill="none" stroke="#000000" paint-order="fill stroke markers" d=" M 746.209517756016 132.16267485762415 L 742 122 L 737.790482243984 132.16267485762415 L 746.209517756016 132.16267485762415" stroke-miterlimit="10" stroke-dasharray=""/></g><g><path fill="none" stroke="#000000" paint-order="fill stroke markers" d=" M 751 711 L 776 711 L 776 711 A 8 8 0 0 0 784 703 L 784 274 L 784 274 A 8 8 0 0 1 792 266 L 856 266" stroke-miterlimit="10" stroke-dasharray=""/></g><g><path fill="#000000" stroke="none" paint-order="stroke fill markers" d=" M 845.8373251423759 270.209517756016 L 856 266 L 845.8373251423759 261.790482243984"/></g><g><path fill="none" stroke="#000000" paint-order="fill stroke markers" d=" M 845.8373251423759 270.209517756016 L 856 266 L 845.8373251423759 261.790482243984 L 845.8373251423759 270.209517756016" stroke-miterlimit="10" stroke-dasharray=""/></g><g><path fill="#C0C0C0" stroke="none" paint-order="stroke fill markers" d=" M 1017 305 L 1096.5703125 305 Q 1106.5703125 305 1106.5703125 315 L 1106.5703125 369 Q 1106.5703125 379 1096.5703125 379 L 1017 379 Q 1007 379 1007 369 L 1007 315 Q 1007 305 1017 305 Z" fill-opacity="0.2"/></g><g><path fill="#ffffff" stroke="none" paint-order="stroke fill markers" d=" M 1010 298 L 1089.5703125 298 Q 1099.5703125 298 1099.5703125 308 L 1099.5703125 362 Q 1099.5703125 372 1089.5703125 372 L 1010 372 Q 1000 372 1000 362 L 1000 308 Q 1000 298 1010 298 Z"/></g><g><path fill="none" stroke="#000000" paint-order="fill stroke markers" d=" M 1010 298 L 1089.5703125 298 Q 1099.5703125 298 1099.5703125 308 L 1099.5703125 362 Q 1099.5703125 372 1089.5703125 372 L 1010 372 Q 1000 372 1000 362 L 1000 308 Q 1000 298 1010 298 Z" stroke-miterlimit="10" stroke-dasharray=""/></g><g><g><path fill="none" stroke="none"/><text fill="#000000" stroke="none" font-family="Arial" font-size="16px" font-style="normal" font-weight="normal" text-decoration="undefined" x="1237.78515625" y="535" text-anchor="middle" dominant-baseline="central" transform="matrix(1 0 0 1 -188 -224)">Прогрузил</text><text fill="#000000" stroke="none" font-family="Arial" font-size="16px" font-style="normal" font-weight="normal" text-decoration="undefined" x="1237.78515625" y="551" text-anchor="middle" dominant-baseline="central" transform="matrix(1 0 0 1 -188 -224)">следующий</text><text fill="#000000" stroke="none" font-family="Arial" font-size="16px" font-style="normal" font-weight="normal" text-decoration="undefined" x="1237.78515625" y="567" text-anchor="middle" dominant-baseline="central" transform="matrix(1 0 0 1 -188 -224)">лист КД</text><text fill="#000000" stroke="none" font-family="Arial" font-size="16px" font-style="normal" font-weight="normal" text-decoration="undefined" x="1237.78515625" y="583" text-anchor="middle" dominant-baseline="central" transform="matrix(1 0 0 1 -188 -224)">сообщества</text></g></g><g><path fill="#C0C0C0" stroke="none" paint-order="stroke fill markers" d=" M 1143 125 L 1221.0234375 125 Q 1231.0234375 125 1231.0234375 135 L 1231.0234375 189 Q 1231.0234375 199 1221.0234375 199 L 1143 199 Q 1133 199 1133 189 L 1133 135 Q 1133 125 1143 125 Z" fill-opacity="0.2"/></g><g><path fill="#ffffff" stroke="none" paint-order="stroke fill markers" d=" M 1136 118 L 1214.0234375 118 Q 1224.0234375 118 1224.0234375 128 L 1224.0234375 182 Q 1224.0234375 192 1214.0234375 192 L 1136 192 Q 1126 192 1126 182 L 1126 128 Q 1126 118 1136 118 Z"/></g><g><path fill="none" stroke="#000000" paint-order="fill stroke markers" d=" M 1136 118 L 1214.0234375 118 Q 1224.0234375 118 1224.0234375 128 L 1224.0234375 182 Q 1224.0234375 192 1214.0234375 192 L 1136 192 Q 1126 192 1126 182 L 1126 128 Q 1126 118 1136 118 Z" stroke-miterlimit="10" stroke-dasharray=""/></g><g><g><path fill="none" stroke="none"/><text fill="#000000" stroke="none" font-family="Arial" font-size="16px" font-style="normal" font-weight="normal" text-decoration="undefined" x="1363.01171875" y="355" text-anchor="middle" dominant-baseline="central" transform="matrix(1 0 0 1 -188 -224)">Нажал на кд</text><text fill="#000000" stroke="none" font-family="Arial" font-size="16px" font-style="normal" font-weight="normal" text-decoration="undefined" x="1363.01171875" y="371" text-anchor="middle" dominant-baseline="central" transform="matrix(1 0 0 1 -188 -224)">в котором</text><text fill="#000000" stroke="none" font-family="Arial" font-size="16px" font-style="normal" font-weight="normal" text-decoration="undefined" x="1363.01171875" y="387" text-anchor="middle" dominant-baseline="central" transform="matrix(1 0 0 1 -188 -224)">ещё не</text><text fill="#000000" stroke="none" font-family="Arial" font-size="16px" font-style="normal" font-weight="normal" text-decoration="undefined" x="1363.01171875" y="403" text-anchor="middle" dominant-baseline="central" transform="matrix(1 0 0 1 -188 -224)">состоит</text></g></g><g><path fill="#C0C0C0" stroke="none" paint-order="stroke fill markers" d=" M 1359 629 L 1447.734375 629 Q 1457.734375 629 1457.734375 639 L 1457.734375 693 Q 1457.734375 703 1447.734375 703 L 1359 703 Q 1349 703 1349 693 L 1349 639 Q 1349 629 1359 629 Z" fill-opacity="0.2"/></g><g><path fill="#ffffff" stroke="none" paint-order="stroke fill markers" d=" M 1352 622 L 1440.734375 622 Q 1450.734375 622 1450.734375 632 L 1450.734375 686 Q 1450.734375 696 1440.734375 696 L 1352 696 Q 1342 696 1342 686 L 1342 632 Q 1342 622 1352 622 Z"/></g><g><path fill="none" stroke="#000000" paint-order="fill stroke markers" d=" M 1352 622 L 1440.734375 622 Q 1450.734375 622 1450.734375 632 L 1450.734375 686 Q 1450.734375 696 1440.734375 696 L 1352 696 Q 1342 696 1342 686 L 1342 632 Q 1342 622 1352 622 Z" stroke-miterlimit="10" stroke-dasharray=""/></g><g><g><path fill="none" stroke="none"/><text fill="#000000" stroke="none" font-family="Arial" font-size="16px" font-style="normal" font-weight="normal" text-decoration="undefined" x="1584.3671875" y="859" text-anchor="middle" dominant-baseline="central" transform="matrix(1 0 0 1 -188 -224)">Извлечь</text><text fill="#000000" stroke="none" font-family="Arial" font-size="16px" font-style="normal" font-weight="normal" text-decoration="undefined" x="1584.3671875" y="875" text-anchor="middle" dominant-baseline="central" transform="matrix(1 0 0 1 -188 -224)">полную</text><text fill="#000000" stroke="none" font-family="Arial" font-size="16px" font-style="normal" font-weight="normal" text-decoration="undefined" x="1584.3671875" y="891" text-anchor="middle" dominant-baseline="central" transform="matrix(1 0 0 1 -188 -224)">информацию</text><text fill="#000000" stroke="none" font-family="Arial" font-size="16px" font-style="normal" font-weight="normal" text-decoration="undefined" x="1584.3671875" y="907" text-anchor="middle" dominant-baseline="central" transform="matrix(1 0 0 1 -188 -224)">о КД</text></g></g><g><path fill="none" stroke="#000000" paint-order="fill stroke markers" d=" M 888 260 L 1077 260 L 1077 260 A 8 8 0 0 1 1085 268 L 1085 298" stroke-miterlimit="10" stroke-dasharray=""/></g><g><path fill="#000000" stroke="none" paint-order="stroke fill markers" d=" M 1080.7904822439841 287.83732514237585 L 1085 298 L 1089.2095177560159 287.83732514237585"/></g><g><path fill="none" stroke="#000000" paint-order="fill stroke markers" d=" M 1080.7904822439841 287.83732514237585 L 1085 298 L 1089.2095177560159 287.83732514237585 L 1080.7904822439841 287.83732514237585" stroke-miterlimit="10" stroke-dasharray=""/></g><g><path fill="none" stroke="#000000" paint-order="fill stroke markers" d=" M 1085 372 L 1085 667 L 1085 667 A 8 8 0 0 1 1077 675 L 751 675" stroke-miterlimit="10" stroke-dasharray=""/></g><g><path fill="#000000" stroke="none" paint-order="stroke fill markers" d=" M 761.1626748576241 670.790482243984 L 751 675 L 761.1626748576241 679.209517756016"/></g><g><path fill="none" stroke="#000000" paint-order="fill stroke markers" d=" M 761.1626748576241 670.790482243984 L 751 675 L 761.1626748576241 679.209517756016 L 761.1626748576241 670.790482243984" stroke-miterlimit="10" stroke-dasharray=""/></g><g><path fill="none" stroke="#000000" paint-order="fill stroke markers" d=" M 888 243 L 1167 243 L 1167 243 A 8 8 0 0 0 1175 235 L 1175 192" stroke-miterlimit="10" stroke-dasharray=""/></g><g><path fill="#000000" stroke="none" paint-order="stroke fill markers" d=" M 1179.2095177560159 202.16267485762415 L 1175 192 L 1170.7904822439841 202.16267485762415"/></g><g><path fill="none" stroke="#000000" paint-order="fill stroke markers" d=" M 1179.2095177560159 202.16267485762415 L 1175 192 L 1170.7904822439841 202.16267485762415 L 1179.2095177560159 202.16267485762415" stroke-miterlimit="10" stroke-dasharray=""/></g><g><path fill="none" stroke="#000000" paint-order="fill stroke markers" d=" M 1191 192 L 1191 632 L 1191 632 A 8 8 0 0 0 1199 640 L 1342 640" stroke-miterlimit="10" stroke-dasharray=""/></g><g><path fill="#000000" stroke="none" paint-order="stroke fill markers" d=" M 1331.837325142376 644.209517756016 L 1342 640 L 1331.837325142376 635.790482243984"/></g><g><path fill="none" stroke="#000000" paint-order="fill stroke markers" d=" M 1331.837325142376 644.209517756016 L 1342 640 L 1331.837325142376 635.790482243984 L 1331.837325142376 644.209517756016" stroke-miterlimit="10" stroke-dasharray=""/></g><g><path fill="#C0C0C0" stroke="none" paint-order="stroke fill markers" d=" M 1457 197 L 1479.4 197 L 1489 206.60000000000002 L 1489 237 L 1457 237" fill-opacity="0.2"/></g><g><path fill="#ffffff" stroke="none" paint-order="stroke fill markers" d=" M 1450 190 L 1472.4 190 L 1482 199.60000000000002 L 1482 230 L 1450 230"/></g><g><path fill="none" stroke="#000000" paint-order="fill stroke markers" d=" M 1450 190 L 1472.4 190 L 1482 199.60000000000002 L 1482 230 L 1450 230 L 1450 190" stroke-miterlimit="10" stroke-dasharray=""/></g><g><path fill="none" stroke="#000000" paint-order="fill stroke markers" d=" M 1472.4 190 L 1472.4 199.60000000000002 L 1482 199.60000000000002 L 1472.4 190" stroke-miterlimit="10" stroke-dasharray=""/></g><g><rect fill="#ffffff" stroke="none" x="1531.8828125" y="462" width="244.234375" height="16" transform="matrix(1 0 0 1 -188 -224)"/></g><g><g><path fill="none" stroke="none"/><text fill="#000000" stroke="none" font-family="Arial" font-size="16px" font-style="normal" font-weight="normal" text-decoration="undefined" x="1654" y="470" text-anchor="middle" dominant-baseline="central" transform="matrix(1 0 0 1 -188 -224)">Отображение информации  о КД</text></g></g><g><path fill="#C0C0C0" stroke="none" paint-order="stroke fill markers" d=" M 2051 645 C 2051 636.1634432 2058.1634432 629 2067 629 C 2075.8365568 629 2083 636.1634432 2083 645 C 2083 653.8365568 2075.8365568 661 2067 661 C 2058.1634432 661 2051 653.8365568 2051 645 Z" fill-opacity="0.2"/></g><g><path fill="#ffffff" stroke="none" paint-order="stroke fill markers" d=" M 2044 638 C 2044 629.1634432 2051.1634432 622 2060 622 C 2068.8365568 622 2076 629.1634432 2076 638 C 2076 646.8365568 2068.8365568 654 2060 654 C 2051.1634432 654 2044 646.8365568 2044 638 Z"/></g><g><path fill="none" stroke="#000000" paint-order="fill stroke markers" d=" M 2044 638 C 2044 629.1634432 2051.1634432 622 2060 622 C 2068.8365568 622 2076 629.1634432 2076 638 C 2076 646.8365568 2068.8365568 654 2060 654 C 2051.1634432 654 2044 646.8365568 2044 638 Z" stroke-miterlimit="10" stroke-width="3" stroke-dasharray=""/></g><g><rect fill="#ffffff" stroke="none" x="2160.9921875" y="890" width="174.015625" height="16" transform="matrix(1 0 0 1 -188 -224)"/></g><g><g><path fill="none" stroke="none"/><text fill="#000000" stroke="none" font-family="Arial" font-size="16px" font-style="normal" font-weight="normal" text-decoration="undefined" x="2248" y="898" text-anchor="middle" dominant-baseline="central" transform="matrix(1 0 0 1 -188 -224)">Вступление завершено</text></g></g><g><path fill="none" stroke="#000000" paint-order="fill stroke markers" d=" M 1451 640 L 1455 640 L 1455 640 A 8 8 0 0 0 1463 632 L 1463 230" stroke-miterlimit="10" stroke-dasharray=""/></g><g><path fill="#000000" stroke="none" paint-order="stroke fill markers" d=" M 1467.2095177560159 240.16267485762415 L 1463 230 L 1458.7904822439841 240.16267485762415"/></g><g><path fill="none" stroke="#000000" paint-order="fill stroke markers" d=" M 1467.2095177560159 240.16267485762415 L 1463 230 L 1458.7904822439841 240.16267485762415 L 1467.2095177560159 240.16267485762415" stroke-miterlimit="10" stroke-dasharray=""/></g><g><path fill="#C0C0C0" stroke="none" paint-order="stroke fill markers" d=" M 1820 644 L 1911.3203125 644 Q 1921.3203125 644 1921.3203125 654 L 1921.3203125 692 Q 1921.3203125 702 1911.3203125 702 L 1820 702 Q 1810 702 1810 692 L 1810 654 Q 1810 644 1820 644 Z" fill-opacity="0.2"/></g><g><path fill="#ffffff" stroke="none" paint-order="stroke fill markers" d=" M 1813 637 L 1904.3203125 637 Q 1914.3203125 637 1914.3203125 647 L 1914.3203125 685 Q 1914.3203125 695 1904.3203125 695 L 1813 695 Q 1803 695 1803 685 L 1803 647 Q 1803 637 1813 637 Z"/></g><g><path fill="none" stroke="#000000" paint-order="fill stroke markers" d=" M 1813 637 L 1904.3203125 637 Q 1914.3203125 637 1914.3203125 647 L 1914.3203125 685 Q 1914.3203125 695 1904.3203125 695 L 1813 695 Q 1803 695 1803 685 L 1803 647 Q 1803 637 1813 637 Z" stroke-miterlimit="10" stroke-dasharray=""/></g><g><path fill="none" stroke="#000000" paint-order="fill stroke markers" d=" M 1853 680 L 1865 680 L 1865 692 L 1853 692 L 1853 680 Z Z" stroke-miterlimit="10" stroke-dasharray=""/></g><g><path fill="none" stroke="#000000" paint-order="fill stroke markers" d=" M 1855 686 L 1863 686" stroke-miterlimit="10" stroke-dasharray=""/></g><g><path fill="none" stroke="#000000" paint-order="fill stroke markers" d=" M 1859 682 L 1859 690" stroke-miterlimit="10" stroke-dasharray=""/></g><g><g><path fill="none" stroke="none"/><text fill="#000000" stroke="none" font-family="Arial" font-size="16px" font-style="normal" font-weight="normal" text-decoration="undefined" x="2046.66015625" y="874" text-anchor="middle" dominant-baseline="central" transform="matrix(1 0 0 1 -188 -224)">Process</text><text fill="#000000" stroke="none" font-family="Arial" font-size="16px" font-style="normal" font-weight="normal" text-decoration="undefined" x="2046.66015625" y="890" text-anchor="middle" dominant-baseline="central" transform="matrix(1 0 0 1 -188 -224)">Добавление</text><text fill="#000000" stroke="none" font-family="Arial" font-size="16px" font-style="normal" font-weight="normal" text-decoration="undefined" x="2046.66015625" y="906" text-anchor="middle" dominant-baseline="central" transform="matrix(1 0 0 1 -188 -224)">пользователя</text></g></g><g><path fill="none" stroke="#000000" paint-order="fill stroke markers" d=" M 1914 690 L 2036 690 L 2036 690 A 8 8 0 0 0 2044 682 L 2044 654" stroke-miterlimit="10" stroke-dasharray=""/></g><g><path fill="#000000" stroke="none" paint-order="stroke fill markers" d=" M 2048.209517756016 664.1626748576241 L 2044 654 L 2039.7904822439841 664.1626748576241"/></g><g><path fill="none" stroke="#000000" paint-order="fill stroke markers" d=" M 2048.209517756016 664.1626748576241 L 2044 654 L 2039.7904822439841 664.1626748576241 L 2048.209517756016 664.1626748576241" stroke-miterlimit="10" stroke-dasharray=""/></g><g><path fill="none" stroke="#000000" paint-order="fill stroke markers" d=" M 186 160 L 334 160" stroke-miterlimit="10" stroke-dasharray=""/></g><g><path fill="#000000" stroke="none" paint-order="stroke fill markers" d=" M 323.83732514237585 164.209517756016 L 334 160 L 323.83732514237585 155.790482243984"/></g><g><path fill="none" stroke="#000000" paint-order="fill stroke markers" d=" M 323.83732514237585 164.209517756016 L 334 160 L 323.83732514237585 155.790482243984 L 323.83732514237585 164.209517756016" stroke-miterlimit="10" stroke-dasharray=""/></g><g><path fill="none" stroke="#000000" paint-order="fill stroke markers" d=" M 1762 302 L 1762 629 L 1762 629 A 8 8 0 0 0 1770 637 L 1803 637" stroke-miterlimit="10" stroke-dasharray=""/></g><g><path fill="#000000" stroke="none" paint-order="stroke fill markers" d=" M 1792.837325142376 641.209517756016 L 1803 637 L 1792.837325142376 632.790482243984"/></g><g><path fill="none" stroke="#000000" paint-order="fill stroke markers" d=" M 1792.837325142376 641.209517756016 L 1803 637 L 1792.837325142376 632.790482243984 L 1792.837325142376 641.209517756016" stroke-miterlimit="10" stroke-dasharray=""/></g><g><path fill="#C0C0C0" stroke="none" paint-order="stroke fill markers" d=" M 1755 251 L 1823.8046875 251 Q 1833.8046875 251 1833.8046875 261 L 1833.8046875 299 Q 1833.8046875 309 1823.8046875 309 L 1755 309 Q 1745 309 1745 299 L 1745 261 Q 1745 251 1755 251 Z" fill-opacity="0.2"/></g><g><path fill="#ffffff" stroke="none" paint-order="stroke fill markers" d=" M 1748 244 L 1816.8046875 244 Q 1826.8046875 244 1826.8046875 254 L 1826.8046875 292 Q 1826.8046875 302 1816.8046875 302 L 1748 302 Q 1738 302 1738 292 L 1738 254 Q 1738 244 1748 244 Z"/></g><g><path fill="none" stroke="#000000" paint-order="fill stroke markers" d=" M 1748 244 L 1816.8046875 244 Q 1826.8046875 244 1826.8046875 254 L 1826.8046875 292 Q 1826.8046875 302 1816.8046875 302 L 1748 302 Q 1738 302 1738 292 L 1738 254 Q 1738 244 1748 244 Z" stroke-miterlimit="10" stroke-dasharray=""/></g><g><path fill="none" stroke="#000000" paint-order="fill stroke markers" d=" M 1748 253 C 1748 251.3431456 1749.3431456 250 1751 250 C 1752.6568544 250 1754 251.3431456 1754 253 C 1754 254.6568544 1752.6568544 256 1751 256 C 1749.3431456 256 1748 254.6568544 1748 253 Z" stroke-miterlimit="10" stroke-dasharray=""/></g><g><path fill="none" stroke="#000000" paint-order="fill stroke markers" d=" M 1746 257 L 1756 257 L 1756 264 L 1746 264 L 1746 257 Z Z" stroke-miterlimit="10" stroke-dasharray=""/></g><g><g><path fill="none" stroke="none"/><text fill="#000000" stroke="none" font-family="Arial" font-size="16px" font-style="normal" font-weight="normal" text-decoration="undefined" x="1970.40234375" y="481" text-anchor="middle" dominant-baseline="central" transform="matrix(1 0 0 1 -188 -224)">Нажать</text><text fill="#000000" stroke="none" font-family="Arial" font-size="16px" font-style="normal" font-weight="normal" text-decoration="undefined" x="1970.40234375" y="497" text-anchor="middle" dominant-baseline="central" transform="matrix(1 0 0 1 -188 -224)">кнопку</text><text fill="#000000" stroke="none" font-family="Arial" font-size="16px" font-style="normal" font-weight="normal" text-decoration="undefined" x="1970.40234375" y="513" text-anchor="middle" dominant-baseline="central" transform="matrix(1 0 0 1 -188 -224)">"Вступить"</text></g></g><g><path fill="none" stroke="#000000" paint-order="fill stroke markers" d=" M 1482 230 L 1482 256 L 1482 256 A 8 8 0 0 0 1490 264 L 1738 264" stroke-miterlimit="10" stroke-dasharray=""/></g><g><path fill="#000000" stroke="none" paint-order="stroke fill markers" d=" M 1727.837325142376 268.209517756016 L 1738 264 L 1727.837325142376 259.790482243984"/></g><g><path fill="none" stroke="#000000" paint-order="fill stroke markers" d=" M 1727.837325142376 268.209517756016 L 1738 264 L 1727.837325142376 259.790482243984 L 1727.837325142376 268.209517756016" stroke-miterlimit="10" stroke-dasharray=""/></g></g></svg>