<svg version="1.1" xmlns="http://www.w3.org/2000/svg" xmlns:xlink="http://www.w3.org/1999/xlink" width="641" height="382"><defs/><g><g><path fill="#ffffff" stroke="none" paint-order="stroke fill markers" d=" M 102.02328125 127.85 C 102.02328125 122.96227952000001 105.98108361799999 119 110.86328125 119 C 115.74547888200001 119 119.70328125 122.96227952000001 119.70328125 127.85 C 119.70328125 132.73772047999998 115.74547888200001 136.7 110.86328125 136.7 C 105.98108361799999 136.7 102.02328125 132.73772047999998 102.02328125 127.85 Z"/></g><g><path fill="none" stroke="#000000" paint-order="fill stroke markers" d=" M 102.02328125 127.85 C 102.02328125 122.96227952000001 105.98108361799999 119 110.86328125 119 C 115.74547888200001 119 119.70328125 122.96227952000001 119.70328125 127.85 C 119.70328125 132.73772047999998 115.74547888200001 136.7 110.86328125 136.7 C 105.98108361799999 136.7 102.02328125 132.73772047999998 102.02328125 127.85 Z" stroke-miterlimit="10" stroke-dasharray=""/></g><g><path fill="none" stroke="#000000" paint-order="fill stroke markers" d=" M 110.86328125 136.7 L 110.86328125 154.3" stroke-miterlimit="10" stroke-dasharray=""/></g><g><path fill="none" stroke="#000000" paint-order="fill stroke markers" d=" M 101.50328124999999 143.3 L 120.22328125000001 143.3" stroke-miterlimit="10" stroke-dasharray=""/></g><g><path fill="none" stroke="#000000" paint-order="fill stroke markers" d=" M 110.86328125 154.3 L 97.86328125 172" stroke-miterlimit="10" stroke-dasharray=""/></g><g><path fill="none" stroke="#000000" paint-order="fill stroke markers" d=" M 110.86328125 154.3 L 123.86328125 172" stroke-miterlimit="10" stroke-dasharray=""/></g><g><g><path fill="none" stroke="none"/><text fill="#000000" stroke="none" font-family="Arial" font-size="16px" font-style="normal" font-weight="bold" text-decoration="undefined" x="155.36328125" y="268" text-anchor="middle" dominant-baseline="central" transform="matrix(1 0 0 1 -44 -80)">Модератор Приложения</text></g></g><g><g><path fill="none" stroke="none"/><text fill="#000000" stroke="none" font-family="Arial" font-size="16px" font-style="normal" font-weight="normal" text-decoration="undefined" x="155.36328125" y="286" text-anchor="middle" dominant-baseline="central" transform="matrix(1 0 0 1 -44 -80)">(from Actors)</text></g></g><g><path fill="#C0C0C0" stroke="none" paint-order="stroke fill markers" d=" M 377 60.5 C 377 36.4756112 435.4268336 17 507.5 17 C 579.5731664 17 638 36.4756112 638 60.5 C 638 84.5243888 579.5731664 104 507.5 104 C 435.4268336 104 377 84.5243888 377 60.5 Z" fill-opacity="0.2"/></g><g><path fill="#A3FFD1" stroke="none" paint-order="stroke fill markers" d=" M 370 53.5 C 370 29.475611200000003 428.4268336 10 500.5 10 C 572.5731664 10 631 29.475611200000003 631 53.5 C 631 77.5243888 572.5731664 97 500.5 97 C 428.4268336 97 370 77.5243888 370 53.5 Z"/></g><g><path fill="none" stroke="#000000" paint-order="fill stroke markers" d=" M 370 53.5 C 370 29.475611200000003 428.4268336 10 500.5 10 C 572.5731664 10 631 29.475611200000003 631 53.5 C 631 77.5243888 572.5731664 97 500.5 97 C 428.4268336 97 370 77.5243888 370 53.5 Z" stroke-miterlimit="10" stroke-dasharray=""/></g><g><g><path fill="none" stroke="none"/><text fill="#000000" stroke="none" font-family="Arial" font-size="16px" font-style="normal" font-weight="bold" text-decoration="undefined" x="544.5" y="117.5" text-anchor="middle" dominant-baseline="central" transform="matrix(1 0 0 1 -44 -80)">Заблокировать</text><text fill="#000000" stroke="none" font-family="Arial" font-size="16px" font-style="normal" font-weight="bold" text-decoration="undefined" x="544.5" y="133.5" text-anchor="middle" dominant-baseline="central" transform="matrix(1 0 0 1 -44 -80)">аккаунт</text></g></g><g><g><path fill="none" stroke="none"/><text fill="#000000" stroke="none" font-family="Arial" font-size="16px" font-style="normal" font-weight="normal" text-decoration="undefined" x="544.5" y="151.5" text-anchor="middle" dominant-baseline="central" transform="matrix(1 0 0 1 -44 -80)">(from PUC: Модерация)</text></g></g><g><path fill="#C0C0C0" stroke="none" paint-order="stroke fill markers" d=" M 377 204.5 C 377 180.4756112 435.4268336 161 507.5 161 C 579.5731664 161 638 180.4756112 638 204.5 C 638 228.5243888 579.5731664 248 507.5 248 C 435.4268336 248 377 228.5243888 377 204.5 Z" fill-opacity="0.2"/></g><g><path fill="#A3FFD1" stroke="none" paint-order="stroke fill markers" d=" M 370 197.5 C 370 173.4756112 428.4268336 154 500.5 154 C 572.5731664 154 631 173.4756112 631 197.5 C 631 221.5243888 572.5731664 241 500.5 241 C 428.4268336 241 370 221.5243888 370 197.5 Z"/></g><g><path fill="none" stroke="#000000" paint-order="fill stroke markers" d=" M 370 197.5 C 370 173.4756112 428.4268336 154 500.5 154 C 572.5731664 154 631 173.4756112 631 197.5 C 631 221.5243888 572.5731664 241 500.5 241 C 428.4268336 241 370 221.5243888 370 197.5 Z" stroke-miterlimit="10" stroke-dasharray=""/></g><g><g><path fill="none" stroke="none"/><text fill="#000000" stroke="none" font-family="Arial" font-size="16px" font-style="normal" font-weight="bold" text-decoration="undefined" x="544.5" y="261.5" text-anchor="middle" dominant-baseline="central" transform="matrix(1 0 0 1 -44 -80)">Разблокировать</text><text fill="#000000" stroke="none" font-family="Arial" font-size="16px" font-style="normal" font-weight="bold" text-decoration="undefined" x="544.5" y="277.5" text-anchor="middle" dominant-baseline="central" transform="matrix(1 0 0 1 -44 -80)">аккаунт</text></g></g><g><g><path fill="none" stroke="none"/><text fill="#000000" stroke="none" font-family="Arial" font-size="16px" font-style="normal" font-weight="normal" text-decoration="undefined" x="544.5" y="295.5" text-anchor="middle" dominant-baseline="central" transform="matrix(1 0 0 1 -44 -80)">(from PUC: Модерация)</text></g></g><g><path fill="#C0C0C0" stroke="none" paint-order="stroke fill markers" d=" M 377 324 C 377 293.62433599999997 435.4268336 269 507.5 269 C 579.5731664 269 638 293.62433599999997 638 324 C 638 354.37566400000003 579.5731664 379 507.5 379 C 435.4268336 379 377 354.37566400000003 377 324 Z" fill-opacity="0.2"/></g><g><path fill="#A3FFD1" stroke="none" paint-order="stroke fill markers" d=" M 370 317 C 370 286.62433599999997 428.4268336 262 500.5 262 C 572.5731664 262 631 286.62433599999997 631 317 C 631 347.37566400000003 572.5731664 372 500.5 372 C 428.4268336 372 370 347.37566400000003 370 317 Z"/></g><g><path fill="none" stroke="#000000" paint-order="fill stroke markers" d=" M 370 317 C 370 286.62433599999997 428.4268336 262 500.5 262 C 572.5731664 262 631 286.62433599999997 631 317 C 631 347.37566400000003 572.5731664 372 500.5 372 C 428.4268336 372 370 347.37566400000003 370 317 Z" stroke-miterlimit="10" stroke-dasharray=""/></g><g><g><path fill="none" stroke="none"/><text fill="#000000" stroke="none" font-family="Arial" font-size="16px" font-style="normal" font-weight="bold" text-decoration="undefined" x="544.5" y="373" text-anchor="middle" dominant-baseline="central" transform="matrix(1 0 0 1 -44 -80)">Проверить текущий</text><text fill="#000000" stroke="none" font-family="Arial" font-size="16px" font-style="normal" font-weight="bold" text-decoration="undefined" x="544.5" y="389" text-anchor="middle" dominant-baseline="central" transform="matrix(1 0 0 1 -44 -80)">статус блокировки</text><text fill="#000000" stroke="none" font-family="Arial" font-size="16px" font-style="normal" font-weight="bold" text-decoration="undefined" x="544.5" y="405" text-anchor="middle" dominant-baseline="central" transform="matrix(1 0 0 1 -44 -80)">аккаунта</text></g></g><g><g><path fill="none" stroke="none"/><text fill="#000000" stroke="none" font-family="Arial" font-size="16px" font-style="normal" font-weight="normal" text-decoration="undefined" x="544.5" y="423" text-anchor="middle" dominant-baseline="central" transform="matrix(1 0 0 1 -44 -80)">(from PUC: Модерация)</text></g></g><g><path fill="none" stroke="#000000" paint-order="fill stroke markers" d=" M 213 138 L 369 92" stroke-miterlimit="10" stroke-dasharray=""/></g><g><path fill="none" stroke="#000000" paint-order="fill stroke markers" d=" M 213 176 L 369 187" stroke-miterlimit="10" stroke-dasharray=""/></g><g><path fill="none" stroke="#000000" paint-order="fill stroke markers" d=" M 213 207 L 369 267" stroke-miterlimit="10" stroke-dasharray=""/></g></g></svg>