<svg version="1.1" xmlns="http://www.w3.org/2000/svg" xmlns:xlink="http://www.w3.org/1999/xlink" width="990" height="2430"><defs/><g><g><path fill="#C0C0C0" stroke="none" paint-order="stroke fill markers" d=" M 170.4609375 72 C 170.4609375 41.624336 220.1573247 17 281.4609375 17 C 342.7645503 17 392.4609375 41.624336 392.4609375 72 C 392.4609375 102.375664 342.7645503 127 281.4609375 127 C 220.1573247 127 170.4609375 102.375664 170.4609375 72 Z" fill-opacity="0.2"/></g><g><path fill="#A3FFD1" stroke="none" paint-order="stroke fill markers" d=" M 163.4609375 65 C 163.4609375 34.624336 213.1573247 10 274.4609375 10 C 335.7645503 10 385.4609375 34.624336 385.4609375 65 C 385.4609375 95.375664 335.7645503 120 274.4609375 120 C 213.1573247 120 163.4609375 95.375664 163.4609375 65 Z"/></g><g><path fill="none" stroke="#000000" paint-order="fill stroke markers" d=" M 163.4609375 65 C 163.4609375 34.624336 213.1573247 10 274.4609375 10 C 335.7645503 10 385.4609375 34.624336 385.4609375 65 C 385.4609375 95.375664 335.7645503 120 274.4609375 120 C 213.1573247 120 163.4609375 95.375664 163.4609375 65 Z" stroke-miterlimit="10" stroke-dasharray=""/></g><g><g><path fill="none" stroke="none"/><text fill="#000000" stroke="none" font-family="Arial" font-size="16px" font-style="normal" font-weight="bold" text-decoration="undefined" x="284.4609375" y="31" text-anchor="middle" dominant-baseline="central" transform="matrix(1 0 0 1 -10 10)">Регистрация</text><text fill="#000000" stroke="none" font-family="Arial" font-size="16px" font-style="normal" font-weight="bold" text-decoration="undefined" x="284.4609375" y="47" text-anchor="middle" dominant-baseline="central" transform="matrix(1 0 0 1 -10 10)">через внешние</text><text fill="#000000" stroke="none" font-family="Arial" font-size="16px" font-style="normal" font-weight="bold" text-decoration="undefined" x="284.4609375" y="63" text-anchor="middle" dominant-baseline="central" transform="matrix(1 0 0 1 -10 10)">сервисы</text></g></g><g><g><path fill="none" stroke="none"/><text fill="#000000" stroke="none" font-family="Arial" font-size="16px" font-style="normal" font-weight="normal" text-decoration="undefined" x="284.4609375" y="81" text-anchor="middle" dominant-baseline="central" transform="matrix(1 0 0 1 -10 10)">(from PUC: Аккаунт)</text></g></g><g><path fill="#C0C0C0" stroke="none" paint-order="stroke fill markers" d=" M 170.4609375 234 C 170.4609375 203.624336 220.1573247 179 281.4609375 179 C 342.7645503 179 392.4609375 203.624336 392.4609375 234 C 392.4609375 264.37566400000003 342.7645503 289 281.4609375 289 C 220.1573247 289 170.4609375 264.37566400000003 170.4609375 234 Z" fill-opacity="0.2"/></g><g><path fill="#A3FFD1" stroke="none" paint-order="stroke fill markers" d=" M 163.4609375 227 C 163.4609375 196.624336 213.1573247 172 274.4609375 172 C 335.7645503 172 385.4609375 196.624336 385.4609375 227 C 385.4609375 257.37566400000003 335.7645503 282 274.4609375 282 C 213.1573247 282 163.4609375 257.37566400000003 163.4609375 227 Z"/></g><g><path fill="none" stroke="#000000" paint-order="fill stroke markers" d=" M 163.4609375 227 C 163.4609375 196.624336 213.1573247 172 274.4609375 172 C 335.7645503 172 385.4609375 196.624336 385.4609375 227 C 385.4609375 257.37566400000003 335.7645503 282 274.4609375 282 C 213.1573247 282 163.4609375 257.37566400000003 163.4609375 227 Z" stroke-miterlimit="10" stroke-dasharray=""/></g><g><g><path fill="none" stroke="none"/><text fill="#000000" stroke="none" font-family="Arial" font-size="16px" font-style="normal" font-weight="bold" text-decoration="undefined" x="284.4609375" y="193" text-anchor="middle" dominant-baseline="central" transform="matrix(1 0 0 1 -10 10)">Изменение</text><text fill="#000000" stroke="none" font-family="Arial" font-size="16px" font-style="normal" font-weight="bold" text-decoration="undefined" x="284.4609375" y="209" text-anchor="middle" dominant-baseline="central" transform="matrix(1 0 0 1 -10 10)">информации</text><text fill="#000000" stroke="none" font-family="Arial" font-size="16px" font-style="normal" font-weight="bold" text-decoration="undefined" x="284.4609375" y="225" text-anchor="middle" dominant-baseline="central" transform="matrix(1 0 0 1 -10 10)">профиля</text></g></g><g><g><path fill="none" stroke="none"/><text fill="#000000" stroke="none" font-family="Arial" font-size="16px" font-style="normal" font-weight="normal" text-decoration="undefined" x="284.4609375" y="243" text-anchor="middle" dominant-baseline="central" transform="matrix(1 0 0 1 -10 10)">(from PUC: Аккаунт)</text></g></g><g><path fill="#C0C0C0" stroke="none" paint-order="stroke fill markers" d=" M 170.4609375 360 C 170.4609375 329.62433599999997 220.1573247 305 281.4609375 305 C 342.7645503 305 392.4609375 329.62433599999997 392.4609375 360 C 392.4609375 390.37566400000003 342.7645503 415 281.4609375 415 C 220.1573247 415 170.4609375 390.37566400000003 170.4609375 360 Z" fill-opacity="0.2"/></g><g><path fill="#A3FFD1" stroke="none" paint-order="stroke fill markers" d=" M 163.4609375 353 C 163.4609375 322.62433599999997 213.1573247 298 274.4609375 298 C 335.7645503 298 385.4609375 322.62433599999997 385.4609375 353 C 385.4609375 383.37566400000003 335.7645503 408 274.4609375 408 C 213.1573247 408 163.4609375 383.37566400000003 163.4609375 353 Z"/></g><g><path fill="none" stroke="#000000" paint-order="fill stroke markers" d=" M 163.4609375 353 C 163.4609375 322.62433599999997 213.1573247 298 274.4609375 298 C 335.7645503 298 385.4609375 322.62433599999997 385.4609375 353 C 385.4609375 383.37566400000003 335.7645503 408 274.4609375 408 C 213.1573247 408 163.4609375 383.37566400000003 163.4609375 353 Z" stroke-miterlimit="10" stroke-dasharray=""/></g><g><g><path fill="none" stroke="none"/><text fill="#000000" stroke="none" font-family="Arial" font-size="16px" font-style="normal" font-weight="bold" text-decoration="undefined" x="284.4609375" y="319" text-anchor="middle" dominant-baseline="central" transform="matrix(1 0 0 1 -10 10)">Просмотр</text><text fill="#000000" stroke="none" font-family="Arial" font-size="16px" font-style="normal" font-weight="bold" text-decoration="undefined" x="284.4609375" y="335" text-anchor="middle" dominant-baseline="central" transform="matrix(1 0 0 1 -10 10)">профиля других</text><text fill="#000000" stroke="none" font-family="Arial" font-size="16px" font-style="normal" font-weight="bold" text-decoration="undefined" x="284.4609375" y="351" text-anchor="middle" dominant-baseline="central" transform="matrix(1 0 0 1 -10 10)">участников</text></g></g><g><g><path fill="none" stroke="none"/><text fill="#000000" stroke="none" font-family="Arial" font-size="16px" font-style="normal" font-weight="normal" text-decoration="undefined" x="284.4609375" y="369" text-anchor="middle" dominant-baseline="central" transform="matrix(1 0 0 1 -10 10)">(from PUC: Аккаунт)</text></g></g><g><path fill="#C0C0C0" stroke="none" paint-order="stroke fill markers" d=" M 170.4609375 492.5 C 170.4609375 468.4756112 220.1573247 449 281.4609375 449 C 342.7645503 449 392.4609375 468.4756112 392.4609375 492.5 C 392.4609375 516.5243888 342.7645503 536 281.4609375 536 C 220.1573247 536 170.4609375 516.5243888 170.4609375 492.5 Z" fill-opacity="0.2"/></g><g><path fill="#A3FFD1" stroke="none" paint-order="stroke fill markers" d=" M 163.4609375 485.5 C 163.4609375 461.4756112 213.1573247 442 274.4609375 442 C 335.7645503 442 385.4609375 461.4756112 385.4609375 485.5 C 385.4609375 509.5243888 335.7645503 529 274.4609375 529 C 213.1573247 529 163.4609375 509.5243888 163.4609375 485.5 Z"/></g><g><path fill="none" stroke="#000000" paint-order="fill stroke markers" d=" M 163.4609375 485.5 C 163.4609375 461.4756112 213.1573247 442 274.4609375 442 C 335.7645503 442 385.4609375 461.4756112 385.4609375 485.5 C 385.4609375 509.5243888 335.7645503 529 274.4609375 529 C 213.1573247 529 163.4609375 509.5243888 163.4609375 485.5 Z" stroke-miterlimit="10" stroke-dasharray=""/></g><g><g><path fill="none" stroke="none"/><text fill="#000000" stroke="none" font-family="Arial" font-size="16px" font-style="normal" font-weight="bold" text-decoration="undefined" x="284.4609375" y="459.5" text-anchor="middle" dominant-baseline="central" transform="matrix(1 0 0 1 -10 10)">Удаление</text><text fill="#000000" stroke="none" font-family="Arial" font-size="16px" font-style="normal" font-weight="bold" text-decoration="undefined" x="284.4609375" y="475.5" text-anchor="middle" dominant-baseline="central" transform="matrix(1 0 0 1 -10 10)">аккаунта</text></g></g><g><g><path fill="none" stroke="none"/><text fill="#000000" stroke="none" font-family="Arial" font-size="16px" font-style="normal" font-weight="normal" text-decoration="undefined" x="284.4609375" y="493.5" text-anchor="middle" dominant-baseline="central" transform="matrix(1 0 0 1 -10 10)">(from PUC: Аккаунт)</text></g></g><g><path fill="#C0C0C0" stroke="none" paint-order="stroke fill markers" d=" M 177 630 C 177 599.624336 226.6963872 575 288 575 C 349.3036128 575 399 599.624336 399 630 C 399 660.375664 349.3036128 685 288 685 C 226.6963872 685 177 660.375664 177 630 Z" fill-opacity="0.2"/></g><g><path fill="#A3FFD1" stroke="none" paint-order="stroke fill markers" d=" M 170 623 C 170 592.624336 219.6963872 568 281 568 C 342.3036128 568 392 592.624336 392 623 C 392 653.375664 342.3036128 678 281 678 C 219.6963872 678 170 653.375664 170 623 Z"/></g><g><path fill="none" stroke="#000000" paint-order="fill stroke markers" d=" M 170 623 C 170 592.624336 219.6963872 568 281 568 C 342.3036128 568 392 592.624336 392 623 C 392 653.375664 342.3036128 678 281 678 C 219.6963872 678 170 653.375664 170 623 Z" stroke-miterlimit="10" stroke-dasharray=""/></g><g><g><path fill="none" stroke="none"/><text fill="#000000" stroke="none" font-family="Arial" font-size="16px" font-style="normal" font-weight="bold" text-decoration="undefined" x="291" y="589" text-anchor="middle" dominant-baseline="central" transform="matrix(1 0 0 1 -10 10)">Изменение</text><text fill="#000000" stroke="none" font-family="Arial" font-size="16px" font-style="normal" font-weight="bold" text-decoration="undefined" x="291" y="605" text-anchor="middle" dominant-baseline="central" transform="matrix(1 0 0 1 -10 10)">приватности</text><text fill="#000000" stroke="none" font-family="Arial" font-size="16px" font-style="normal" font-weight="bold" text-decoration="undefined" x="291" y="621" text-anchor="middle" dominant-baseline="central" transform="matrix(1 0 0 1 -10 10)">профиля</text></g></g><g><g><path fill="none" stroke="none"/><text fill="#000000" stroke="none" font-family="Arial" font-size="16px" font-style="normal" font-weight="normal" text-decoration="undefined" x="291" y="639" text-anchor="middle" dominant-baseline="central" transform="matrix(1 0 0 1 -10 10)">(from PUC: Аккаунт)</text></g></g><g><path fill="#C0C0C0" stroke="none" paint-order="stroke fill markers" d=" M 170.4609375 780 C 170.4609375 743.5492032 220.1573247 714 281.4609375 714 C 342.7645503 714 392.4609375 743.5492032 392.4609375 780 C 392.4609375 816.4507968 342.7645503 846 281.4609375 846 C 220.1573247 846 170.4609375 816.4507968 170.4609375 780 Z" fill-opacity="0.2"/></g><g><path fill="#00D8B4" stroke="none" paint-order="stroke fill markers" d=" M 163.4609375 773 C 163.4609375 736.5492032 213.1573247 707 274.4609375 707 C 335.7645503 707 385.4609375 736.5492032 385.4609375 773 C 385.4609375 809.4507968 335.7645503 839 274.4609375 839 C 213.1573247 839 163.4609375 809.4507968 163.4609375 773 Z"/></g><g><path fill="none" stroke="#000000" paint-order="fill stroke markers" d=" M 163.4609375 773 C 163.4609375 736.5492032 213.1573247 707 274.4609375 707 C 335.7645503 707 385.4609375 736.5492032 385.4609375 773 C 385.4609375 809.4507968 335.7645503 839 274.4609375 839 C 213.1573247 839 163.4609375 809.4507968 163.4609375 773 Z" stroke-miterlimit="10" stroke-dasharray=""/></g><g><g><path fill="none" stroke="none"/><text fill="#000000" stroke="none" font-family="Arial" font-size="16px" font-style="normal" font-weight="bold" text-decoration="undefined" x="284.4609375" y="731" text-anchor="middle" dominant-baseline="central" transform="matrix(1 0 0 1 -10 10)">Авторизация с</text><text fill="#000000" stroke="none" font-family="Arial" font-size="16px" font-style="normal" font-weight="bold" text-decoration="undefined" x="284.4609375" y="747" text-anchor="middle" dominant-baseline="central" transform="matrix(1 0 0 1 -10 10)">привязкой к</text><text fill="#000000" stroke="none" font-family="Arial" font-size="16px" font-style="normal" font-weight="bold" text-decoration="undefined" x="284.4609375" y="763" text-anchor="middle" dominant-baseline="central" transform="matrix(1 0 0 1 -10 10)">нескольким</text><text fill="#000000" stroke="none" font-family="Arial" font-size="16px" font-style="normal" font-weight="bold" text-decoration="undefined" x="284.4609375" y="779" text-anchor="middle" dominant-baseline="central" transform="matrix(1 0 0 1 -10 10)">соцсетям</text></g></g><g><g><path fill="none" stroke="none"/><text fill="#000000" stroke="none" font-family="Arial" font-size="16px" font-style="normal" font-weight="normal" text-decoration="undefined" x="284.4609375" y="797" text-anchor="middle" dominant-baseline="central" transform="matrix(1 0 0 1 -10 10)">(from PUC: Аккаунт)</text></g></g><g><path fill="#C0C0C0" stroke="none" paint-order="stroke fill markers" d=" M 177 947 C 177 910.5492032 226.6963872 881 288 881 C 349.3036128 881 399 910.5492032 399 947 C 399 983.4507968 349.3036128 1013 288 1013 C 226.6963872 1013 177 983.4507968 177 947 Z" fill-opacity="0.2"/></g><g><path fill="#A3FFD1" stroke="none" paint-order="stroke fill markers" d=" M 170 940 C 170 903.5492032 219.6963872 874 281 874 C 342.3036128 874 392 903.5492032 392 940 C 392 976.4507968 342.3036128 1006 281 1006 C 219.6963872 1006 170 976.4507968 170 940 Z"/></g><g><path fill="none" stroke="#000000" paint-order="fill stroke markers" d=" M 170 940 C 170 903.5492032 219.6963872 874 281 874 C 342.3036128 874 392 903.5492032 392 940 C 392 976.4507968 342.3036128 1006 281 1006 C 219.6963872 1006 170 976.4507968 170 940 Z" stroke-miterlimit="10" stroke-dasharray=""/></g><g><g><path fill="none" stroke="none"/><text fill="#000000" stroke="none" font-family="Arial" font-size="16px" font-style="normal" font-weight="bold" text-decoration="undefined" x="291" y="898" text-anchor="middle" dominant-baseline="central" transform="matrix(1 0 0 1 -10 10)">Восстановление</text><text fill="#000000" stroke="none" font-family="Arial" font-size="16px" font-style="normal" font-weight="bold" text-decoration="undefined" x="291" y="914" text-anchor="middle" dominant-baseline="central" transform="matrix(1 0 0 1 -10 10)">аккаунта при</text><text fill="#000000" stroke="none" font-family="Arial" font-size="16px" font-style="normal" font-weight="bold" text-decoration="undefined" x="291" y="930" text-anchor="middle" dominant-baseline="central" transform="matrix(1 0 0 1 -10 10)">потере доступа к</text><text fill="#000000" stroke="none" font-family="Arial" font-size="16px" font-style="normal" font-weight="bold" text-decoration="undefined" x="291" y="946" text-anchor="middle" dominant-baseline="central" transform="matrix(1 0 0 1 -10 10)">соцсети</text></g></g><g><g><path fill="none" stroke="none"/><text fill="#000000" stroke="none" font-family="Arial" font-size="16px" font-style="normal" font-weight="normal" text-decoration="undefined" x="291" y="964" text-anchor="middle" dominant-baseline="central" transform="matrix(1 0 0 1 -10 10)">(from PUC: Аккаунт)</text></g></g><g><path fill="#C0C0C0" stroke="none" paint-order="stroke fill markers" d=" M 177 1343 C 177 1306.5492032 226.6963872 1277 288 1277 C 349.3036128 1277 399 1306.5492032 399 1343 C 399 1379.4507968 349.3036128 1409 288 1409 C 226.6963872 1409 177 1379.4507968 177 1343 Z" fill-opacity="0.2"/></g><g><path fill="#ffffff" stroke="none" paint-order="stroke fill markers" d=" M 170 1336 C 170 1299.5492032 219.6963872 1270 281 1270 C 342.3036128 1270 392 1299.5492032 392 1336 C 392 1372.4507968 342.3036128 1402 281 1402 C 219.6963872 1402 170 1372.4507968 170 1336 Z"/></g><g><path fill="none" stroke="#000000" paint-order="fill stroke markers" d=" M 170 1336 C 170 1299.5492032 219.6963872 1270 281 1270 C 342.3036128 1270 392 1299.5492032 392 1336 C 392 1372.4507968 342.3036128 1402 281 1402 C 219.6963872 1402 170 1372.4507968 170 1336 Z" stroke-miterlimit="10" stroke-dasharray=""/></g><g><g><path fill="none" stroke="none"/><text fill="#000000" stroke="none" font-family="Arial" font-size="16px" font-style="normal" font-weight="bold" text-decoration="undefined" x="291" y="1294" text-anchor="middle" dominant-baseline="central" transform="matrix(1 0 0 1 -10 10)">(СТАТ)</text><text fill="#000000" stroke="none" font-family="Arial" font-size="16px" font-style="normal" font-weight="bold" text-decoration="undefined" x="291" y="1310" text-anchor="middle" dominant-baseline="central" transform="matrix(1 0 0 1 -10 10)">Отображение</text><text fill="#000000" stroke="none" font-family="Arial" font-size="16px" font-style="normal" font-weight="bold" text-decoration="undefined" x="291" y="1326" text-anchor="middle" dominant-baseline="central" transform="matrix(1 0 0 1 -10 10)">статистики</text><text fill="#000000" stroke="none" font-family="Arial" font-size="16px" font-style="normal" font-weight="bold" text-decoration="undefined" x="291" y="1342" text-anchor="middle" dominant-baseline="central" transform="matrix(1 0 0 1 -10 10)">аккаунта</text></g></g><g><g><path fill="none" stroke="none"/><text fill="#000000" stroke="none" font-family="Arial" font-size="16px" font-style="normal" font-weight="normal" text-decoration="undefined" x="291" y="1360" text-anchor="middle" dominant-baseline="central" transform="matrix(1 0 0 1 -10 10)">(from PUC: Аккаунт)</text></g></g><g><path fill="#C0C0C0" stroke="none" paint-order="stroke fill markers" d=" M 177 1559 C 177 1522.5492032 226.6963872 1493 288 1493 C 349.3036128 1493 399 1522.5492032 399 1559 C 399 1595.4507968 349.3036128 1625 288 1625 C 226.6963872 1625 177 1595.4507968 177 1559 Z" fill-opacity="0.2"/></g><g><path fill="#A3FFD1" stroke="none" paint-order="stroke fill markers" d=" M 170 1552 C 170 1515.5492032 219.6963872 1486 281 1486 C 342.3036128 1486 392 1515.5492032 392 1552 C 392 1588.4507968 342.3036128 1618 281 1618 C 219.6963872 1618 170 1588.4507968 170 1552 Z"/></g><g><path fill="none" stroke="#000000" paint-order="fill stroke markers" d=" M 170 1552 C 170 1515.5492032 219.6963872 1486 281 1486 C 342.3036128 1486 392 1515.5492032 392 1552 C 392 1588.4507968 342.3036128 1618 281 1618 C 219.6963872 1618 170 1588.4507968 170 1552 Z" stroke-miterlimit="10" stroke-dasharray=""/></g><g><g><path fill="none" stroke="none"/><text fill="#000000" stroke="none" font-family="Arial" font-size="16px" font-style="normal" font-weight="bold" text-decoration="undefined" x="291" y="1518" text-anchor="middle" dominant-baseline="central" transform="matrix(1 0 0 1 -10 10)">Открытие</text><text fill="#000000" stroke="none" font-family="Arial" font-size="16px" font-style="normal" font-weight="bold" text-decoration="undefined" x="291" y="1534" text-anchor="middle" dominant-baseline="central" transform="matrix(1 0 0 1 -10 10)">профиля по</text><text fill="#000000" stroke="none" font-family="Arial" font-size="16px" font-style="normal" font-weight="bold" text-decoration="undefined" x="291" y="1550" text-anchor="middle" dominant-baseline="central" transform="matrix(1 0 0 1 -10 10)">ссылке</text></g></g><g><g><path fill="none" stroke="none"/><text fill="#000000" stroke="none" font-family="Arial" font-size="16px" font-style="normal" font-weight="normal" text-decoration="undefined" x="291" y="1568" text-anchor="middle" dominant-baseline="central" transform="matrix(1 0 0 1 -10 10)">(from PUC: Аккаунт)</text></g></g><g><path fill="#ffffff" stroke="none" paint-order="stroke fill markers" d=" M 62.89046875 975.35 C 62.89046875 970.46227952 66.848271118 966.5 71.73046875 966.5 C 76.612666382 966.5 80.57046875 970.46227952 80.57046875 975.35 C 80.57046875 980.23772048 76.612666382 984.2 71.73046875 984.2 C 66.848271118 984.2 62.89046875 980.23772048 62.89046875 975.35 Z"/></g><g><path fill="none" stroke="#000000" paint-order="fill stroke markers" d=" M 62.89046875 975.35 C 62.89046875 970.46227952 66.848271118 966.5 71.73046875 966.5 C 76.612666382 966.5 80.57046875 970.46227952 80.57046875 975.35 C 80.57046875 980.23772048 76.612666382 984.2 71.73046875 984.2 C 66.848271118 984.2 62.89046875 980.23772048 62.89046875 975.35 Z" stroke-miterlimit="10" stroke-dasharray=""/></g><g><path fill="none" stroke="#000000" paint-order="fill stroke markers" d=" M 71.73046875 984.2 L 71.73046875 1001.8" stroke-miterlimit="10" stroke-dasharray=""/></g><g><path fill="none" stroke="#000000" paint-order="fill stroke markers" d=" M 62.37046875 990.8 L 81.09046875 990.8" stroke-miterlimit="10" stroke-dasharray=""/></g><g><path fill="none" stroke="#000000" paint-order="fill stroke markers" d=" M 71.73046875 1001.8 L 58.73046875 1019.5" stroke-miterlimit="10" stroke-dasharray=""/></g><g><path fill="none" stroke="#000000" paint-order="fill stroke markers" d=" M 71.73046875 1001.8 L 84.73046875 1019.5" stroke-miterlimit="10" stroke-dasharray=""/></g><g><g><path fill="none" stroke="none"/><text fill="#000000" stroke="none" font-family="Arial" font-size="16px" font-style="normal" font-weight="bold" text-decoration="undefined" x="82.23046875" y="1025.5" text-anchor="middle" dominant-baseline="central" transform="matrix(1 0 0 1 -10 10)">Пользователь</text></g></g><g><g><path fill="none" stroke="none"/><text fill="#000000" stroke="none" font-family="Arial" font-size="16px" font-style="normal" font-weight="normal" text-decoration="undefined" x="82.23046875" y="1043.5" text-anchor="middle" dominant-baseline="central" transform="matrix(1 0 0 1 -10 10)">(from Actors)</text></g></g><g><path fill="none" stroke="#000000" paint-order="fill stroke markers" d=" M 75 965 Q 148 85 162 83" stroke-miterlimit="10" stroke-dasharray=""/></g><g><path fill="none" stroke="#000000" paint-order="fill stroke markers" d=" M 76 965 Q 148 225 162 225" stroke-miterlimit="10" stroke-dasharray=""/></g><g><path fill="none" stroke="#000000" paint-order="fill stroke markers" d=" M 77 965 Q 148 365 162 364" stroke-miterlimit="10" stroke-dasharray=""/></g><g><path fill="none" stroke="#000000" paint-order="fill stroke markers" d=" M 79 965 Q 148 494 162 493" stroke-miterlimit="10" stroke-dasharray=""/></g><g><path fill="none" stroke="#000000" paint-order="fill stroke markers" d=" M 81 965 Q 148 622 169 622" stroke-miterlimit="10" stroke-dasharray=""/></g><g><path fill="none" stroke="#000000" paint-order="fill stroke markers" d=" M 87 965 Q 148 773 162 773" stroke-miterlimit="10" stroke-dasharray=""/></g><g><path fill="none" stroke="#000000" paint-order="fill stroke markers" d=" M 120 965 Q 148 935 169 936" stroke-miterlimit="10" stroke-dasharray=""/></g><g><path fill="none" stroke="#000000" paint-order="fill stroke markers" d=" M 82 1068 Q 148 1388 169 1380" stroke-miterlimit="10" stroke-dasharray=""/></g><g><path fill="none" stroke="#000000" paint-order="fill stroke markers" d=" M 77 1068 Q 148 1701 221 1619" stroke-miterlimit="10" stroke-dasharray=""/></g><g><path fill="#C0C0C0" stroke="none" paint-order="stroke fill markers" d=" M 177 1782 C 177 1751.624336 226.6963872 1727 288 1727 C 349.3036128 1727 399 1751.624336 399 1782 C 399 1812.375664 349.3036128 1837 288 1837 C 226.6963872 1837 177 1812.375664 177 1782 Z" fill-opacity="0.2"/></g><g><path fill="#A3FFD1" stroke="none" paint-order="stroke fill markers" d=" M 170 1775 C 170 1744.624336 219.6963872 1720 281 1720 C 342.3036128 1720 392 1744.624336 392 1775 C 392 1805.375664 342.3036128 1830 281 1830 C 219.6963872 1830 170 1805.375664 170 1775 Z"/></g><g><path fill="none" stroke="#000000" paint-order="fill stroke markers" d=" M 170 1775 C 170 1744.624336 219.6963872 1720 281 1720 C 342.3036128 1720 392 1744.624336 392 1775 C 392 1805.375664 342.3036128 1830 281 1830 C 219.6963872 1830 170 1805.375664 170 1775 Z" stroke-miterlimit="10" stroke-dasharray=""/></g><g><g><path fill="none" stroke="none"/><text fill="#000000" stroke="none" font-family="Arial" font-size="16px" font-style="normal" font-weight="bold" text-decoration="undefined" x="291" y="1749" text-anchor="middle" dominant-baseline="central" transform="matrix(1 0 0 1 -10 10)">Отмена удаления</text><text fill="#000000" stroke="none" font-family="Arial" font-size="16px" font-style="normal" font-weight="bold" text-decoration="undefined" x="291" y="1765" text-anchor="middle" dominant-baseline="central" transform="matrix(1 0 0 1 -10 10)">аккаунта</text></g></g><g><g><path fill="none" stroke="none"/><text fill="#000000" stroke="none" font-family="Arial" font-size="16px" font-style="normal" font-weight="normal" text-decoration="undefined" x="291" y="1783" text-anchor="middle" dominant-baseline="central" transform="matrix(1 0 0 1 -10 10)">(from PUC: Аккаунт)</text></g></g><g><path fill="none" stroke="#000000" paint-order="fill stroke markers" d=" M 76 1068 Q 148 1852 184 1831" stroke-miterlimit="10" stroke-dasharray=""/></g><g><path fill="#C0C0C0" stroke="none" paint-order="stroke fill markers" d=" M 177 1944 C 177 1913.624336 226.6963872 1889 288 1889 C 349.3036128 1889 399 1913.624336 399 1944 C 399 1974.375664 349.3036128 1999 288 1999 C 226.6963872 1999 177 1974.375664 177 1944 Z" fill-opacity="0.2"/></g><g><path fill="#A3FFD1" stroke="none" paint-order="stroke fill markers" d=" M 170 1937 C 170 1906.624336 219.6963872 1882 281 1882 C 342.3036128 1882 392 1906.624336 392 1937 C 392 1967.375664 342.3036128 1992 281 1992 C 219.6963872 1992 170 1967.375664 170 1937 Z"/></g><g><path fill="none" stroke="#000000" paint-order="fill stroke markers" d=" M 170 1937 C 170 1906.624336 219.6963872 1882 281 1882 C 342.3036128 1882 392 1906.624336 392 1937 C 392 1967.375664 342.3036128 1992 281 1992 C 219.6963872 1992 170 1967.375664 170 1937 Z" stroke-miterlimit="10" stroke-dasharray=""/></g><g><g><path fill="none" stroke="none"/><text fill="#000000" stroke="none" font-family="Arial" font-size="16px" font-style="normal" font-weight="bold" text-decoration="undefined" x="291" y="1903" text-anchor="middle" dominant-baseline="central" transform="matrix(1 0 0 1 -10 10)">Получение</text><text fill="#000000" stroke="none" font-family="Arial" font-size="16px" font-style="normal" font-weight="bold" text-decoration="undefined" x="291" y="1919" text-anchor="middle" dominant-baseline="central" transform="matrix(1 0 0 1 -10 10)">информации о</text><text fill="#000000" stroke="none" font-family="Arial" font-size="16px" font-style="normal" font-weight="bold" text-decoration="undefined" x="291" y="1935" text-anchor="middle" dominant-baseline="central" transform="matrix(1 0 0 1 -10 10)">моем аккаунте</text></g></g><g><g><path fill="none" stroke="none"/><text fill="#000000" stroke="none" font-family="Arial" font-size="16px" font-style="normal" font-weight="normal" text-decoration="undefined" x="291" y="1953" text-anchor="middle" dominant-baseline="central" transform="matrix(1 0 0 1 -10 10)">(from PUC: Аккаунт)</text></g></g><g><path fill="none" stroke="#000000" paint-order="fill stroke markers" d=" M 75 1068 Q 148 1992 169 1983" stroke-miterlimit="10" stroke-dasharray=""/></g><g><path fill="#ffffff" stroke="none" paint-order="stroke fill markers" d=" M 68.38265625 2287.85 C 68.38265625 2282.96227952 72.340458618 2279 77.22265625 2279 C 82.104853882 2279 86.06265625 2282.96227952 86.06265625 2287.85 C 86.06265625 2292.73772048 82.104853882 2296.7 77.22265625 2296.7 C 72.340458618 2296.7 68.38265625 2292.73772048 68.38265625 2287.85 Z"/></g><g><path fill="none" stroke="#000000" paint-order="fill stroke markers" d=" M 68.38265625 2287.85 C 68.38265625 2282.96227952 72.340458618 2279 77.22265625 2279 C 82.104853882 2279 86.06265625 2282.96227952 86.06265625 2287.85 C 86.06265625 2292.73772048 82.104853882 2296.7 77.22265625 2296.7 C 72.340458618 2296.7 68.38265625 2292.73772048 68.38265625 2287.85 Z" stroke-miterlimit="10" stroke-dasharray=""/></g><g><path fill="none" stroke="#000000" paint-order="fill stroke markers" d=" M 77.22265625 2296.7 L 77.22265625 2314.3" stroke-miterlimit="10" stroke-dasharray=""/></g><g><path fill="none" stroke="#000000" paint-order="fill stroke markers" d=" M 67.86265625 2303.3 L 86.58265625 2303.3" stroke-miterlimit="10" stroke-dasharray=""/></g><g><path fill="none" stroke="#000000" paint-order="fill stroke markers" d=" M 77.22265625 2314.3 L 64.22265625 2332" stroke-miterlimit="10" stroke-dasharray=""/></g><g><path fill="none" stroke="#000000" paint-order="fill stroke markers" d=" M 77.22265625 2314.3 L 90.22265625 2332" stroke-miterlimit="10" stroke-dasharray=""/></g><g><g><path fill="none" stroke="none"/><text fill="#000000" stroke="none" font-family="Arial" font-size="16px" font-style="normal" font-weight="bold" text-decoration="undefined" x="87.72265625" y="2338" text-anchor="middle" dominant-baseline="central" transform="matrix(1 0 0 1 -10 10)">Система</text></g></g><g><g><path fill="none" stroke="none"/><text fill="#000000" stroke="none" font-family="Arial" font-size="16px" font-style="normal" font-weight="normal" text-decoration="undefined" x="87.72265625" y="2356" text-anchor="middle" dominant-baseline="central" transform="matrix(1 0 0 1 -10 10)">(from Actors)</text></g></g><g><path fill="#C0C0C0" stroke="none" paint-order="stroke fill markers" d=" M 177 2338 C 177 2288.8466528 226.6963872 2249 288 2249 C 349.3036128 2249 399 2288.8466528 399 2338 C 399 2387.1533472 349.3036128 2427 288 2427 C 226.6963872 2427 177 2387.1533472 177 2338 Z" fill-opacity="0.2"/></g><g><path fill="#FF8056" stroke="none" paint-order="stroke fill markers" d=" M 170 2331 C 170 2281.8466528 219.6963872 2242 281 2242 C 342.3036128 2242 392 2281.8466528 392 2331 C 392 2380.1533472 342.3036128 2420 281 2420 C 219.6963872 2420 170 2380.1533472 170 2331 Z"/></g><g><path fill="none" stroke="#000000" paint-order="fill stroke markers" d=" M 170 2331 C 170 2281.8466528 219.6963872 2242 281 2242 C 342.3036128 2242 392 2281.8466528 392 2331 C 392 2380.1533472 342.3036128 2420 281 2420 C 219.6963872 2420 170 2380.1533472 170 2331 Z" stroke-miterlimit="10" stroke-dasharray=""/></g><g><g><path fill="none" stroke="none"/><text fill="#000000" stroke="none" font-family="Arial" font-size="16px" font-style="normal" font-weight="bold" text-decoration="undefined" x="291" y="2281" text-anchor="middle" dominant-baseline="central" transform="matrix(1 0 0 1 -10 10)">Отправка</text><text fill="#000000" stroke="none" font-family="Arial" font-size="16px" font-style="normal" font-weight="bold" text-decoration="undefined" x="291" y="2297" text-anchor="middle" dominant-baseline="central" transform="matrix(1 0 0 1 -10 10)">уведомлений об</text><text fill="#000000" stroke="none" font-family="Arial" font-size="16px" font-style="normal" font-weight="bold" text-decoration="undefined" x="291" y="2313" text-anchor="middle" dominant-baseline="central" transform="matrix(1 0 0 1 -10 10)">изменении</text><text fill="#000000" stroke="none" font-family="Arial" font-size="16px" font-style="normal" font-weight="bold" text-decoration="undefined" x="291" y="2329" text-anchor="middle" dominant-baseline="central" transform="matrix(1 0 0 1 -10 10)">информации в</text><text fill="#000000" stroke="none" font-family="Arial" font-size="16px" font-style="normal" font-weight="bold" text-decoration="undefined" x="291" y="2345" text-anchor="middle" dominant-baseline="central" transform="matrix(1 0 0 1 -10 10)">аккаунте</text></g></g><g><g><path fill="none" stroke="none"/><text fill="#000000" stroke="none" font-family="Arial" font-size="16px" font-style="normal" font-weight="normal" text-decoration="undefined" x="291" y="2363" text-anchor="middle" dominant-baseline="central" transform="matrix(1 0 0 1 -10 10)">(from PUC: Аккаунт)</text></g></g><g><path fill="none" stroke="#000000" paint-order="fill stroke markers" d=" M 129 2329 L 169 2329" stroke-miterlimit="10" stroke-dasharray=""/></g><g><path fill="#C0C0C0" stroke="none" paint-order="stroke fill markers" d=" M 177 1104.5 C 177 1080.4756112 226.6963872 1061 288 1061 C 349.3036128 1061 399 1080.4756112 399 1104.5 C 399 1128.5243888 349.3036128 1148 288 1148 C 226.6963872 1148 177 1128.5243888 177 1104.5 Z" fill-opacity="0.2"/></g><g><path fill="#00D8B4" stroke="none" paint-order="stroke fill markers" d=" M 170 1097.5 C 170 1073.4756112 219.6963872 1054 281 1054 C 342.3036128 1054 392 1073.4756112 392 1097.5 C 392 1121.5243888 342.3036128 1141 281 1141 C 219.6963872 1141 170 1121.5243888 170 1097.5 Z"/></g><g><path fill="none" stroke="#000000" paint-order="fill stroke markers" d=" M 170 1097.5 C 170 1073.4756112 219.6963872 1054 281 1054 C 342.3036128 1054 392 1073.4756112 392 1097.5 C 392 1121.5243888 342.3036128 1141 281 1141 C 219.6963872 1141 170 1121.5243888 170 1097.5 Z" stroke-miterlimit="10" stroke-dasharray=""/></g><g><g><path fill="none" stroke="none"/><text fill="#000000" stroke="none" font-family="Arial" font-size="16px" font-style="normal" font-weight="bold" text-decoration="undefined" x="291" y="1071.5" text-anchor="middle" dominant-baseline="central" transform="matrix(1 0 0 1 -10 10)">Заменить аккаунт</text><text fill="#000000" stroke="none" font-family="Arial" font-size="16px" font-style="normal" font-weight="bold" text-decoration="undefined" x="291" y="1087.5" text-anchor="middle" dominant-baseline="central" transform="matrix(1 0 0 1 -10 10)">для авторизации</text></g></g><g><g><path fill="none" stroke="none"/><text fill="#000000" stroke="none" font-family="Arial" font-size="16px" font-style="normal" font-weight="normal" text-decoration="undefined" x="291" y="1105.5" text-anchor="middle" dominant-baseline="central" transform="matrix(1 0 0 1 -10 10)">(from PUC: Аккаунт)</text></g></g><g><path fill="none" stroke="#000000" paint-order="fill stroke markers" d=" M 134 1040 L 169 1054" stroke-miterlimit="10" stroke-dasharray=""/></g><g><path fill="#FFADAD" stroke="none" paint-order="stroke fill markers" d=" M 584 2296 L 969 2296 L 979 2306 L 979 2375 L 584 2375 L 584 2296"/></g><g><path fill="none" stroke="#000000" paint-order="fill stroke markers" d=" M 584 2296 L 969 2296 L 979 2306 L 979 2375 L 584 2375 L 584 2296 L 584 2296" stroke-miterlimit="10" stroke-dasharray=""/></g><g><path fill="none" stroke="#000000" paint-order="fill stroke markers" d=" M 969 2296 L 969 2306 L 979 2306 L 969 2296" stroke-miterlimit="10" stroke-dasharray=""/></g><g><g><path fill="none" stroke="none"/><text fill="#000000" stroke="none" font-family="Arial" font-size="16px" font-style="normal" font-weight="normal" text-decoration="undefined" x="599" y="2291" text-anchor="start" dominant-baseline="text-before-edge" transform="matrix(1 0 0 1 -10 10)">Вопрос: Какая информация при замене нуждается</text><text fill="#000000" stroke="none" font-family="Arial" font-size="16px" font-style="normal" font-weight="normal" text-decoration="undefined" x="599" y="2307" text-anchor="start" dominant-baseline="text-before-edge" transform="matrix(1 0 0 1 -10 10)">в уведомлении пользователя? (Перепривязка</text><text fill="#000000" stroke="none" font-family="Arial" font-size="16px" font-style="normal" font-weight="normal" text-decoration="undefined" x="599" y="2323" text-anchor="start" dominant-baseline="text-before-edge" transform="matrix(1 0 0 1 -10 10)">аккаунта авторизации)</text></g></g><g><g><path fill="none" stroke="none"/><text fill="#000000" stroke="none" font-family="Arial" font-size="16px" font-style="normal" font-weight="normal" text-decoration="undefined" x="599" y="2341" text-anchor="start" dominant-baseline="text-before-edge" transform="matrix(1 0 0 1 -10 10)">Куда отправлять уведомления?</text></g></g><g><g><path fill="none" stroke="none"/></g></g><g><path fill="none" stroke="#000000" paint-order="fill stroke markers" d=" M 393 2332 L 583 2334" stroke-miterlimit="10" stroke-dasharray="3"/></g><g><path fill="#C0C0C0" stroke="none" paint-order="stroke fill markers" d=" M 177 2112.5 C 177 2088.4756112 226.6963872 2069 288 2069 C 349.3036128 2069 399 2088.4756112 399 2112.5 C 399 2136.5243888 349.3036128 2156 288 2156 C 226.6963872 2156 177 2136.5243888 177 2112.5 Z" fill-opacity="0.2"/></g><g><path fill="#ffffff" stroke="none" paint-order="stroke fill markers" d=" M 170 2105.5 C 170 2081.4756112 219.6963872 2062 281 2062 C 342.3036128 2062 392 2081.4756112 392 2105.5 C 392 2129.5243888 342.3036128 2149 281 2149 C 219.6963872 2149 170 2129.5243888 170 2105.5 Z"/></g><g><path fill="none" stroke="#000000" paint-order="fill stroke markers" d=" M 170 2105.5 C 170 2081.4756112 219.6963872 2062 281 2062 C 342.3036128 2062 392 2081.4756112 392 2105.5 C 392 2129.5243888 342.3036128 2149 281 2149 C 219.6963872 2149 170 2129.5243888 170 2105.5 Z" stroke-miterlimit="10" stroke-dasharray=""/></g><g><g><path fill="none" stroke="none"/><text fill="#000000" stroke="none" font-family="Arial" font-size="16px" font-style="normal" font-weight="bold" text-decoration="undefined" x="291" y="2079.5" text-anchor="middle" dominant-baseline="central" transform="matrix(1 0 0 1 -10 10)">Просмотр</text><text fill="#000000" stroke="none" font-family="Arial" font-size="16px" font-style="normal" font-weight="bold" text-decoration="undefined" x="291" y="2095.5" text-anchor="middle" dominant-baseline="central" transform="matrix(1 0 0 1 -10 10)">приглашений</text></g></g><g><g><path fill="none" stroke="none"/><text fill="#000000" stroke="none" font-family="Arial" font-size="16px" font-style="normal" font-weight="normal" text-decoration="undefined" x="291" y="2113.5" text-anchor="middle" dominant-baseline="central" transform="matrix(1 0 0 1 -10 10)">(from PUC: Аккаунт)</text></g></g><g><path fill="none" stroke="#000000" paint-order="fill stroke markers" d=" M 81 1068 L 273 2061" stroke-miterlimit="10" stroke-dasharray=""/></g></g></svg>