<svg version="1.1" xmlns="http://www.w3.org/2000/svg" xmlns:xlink="http://www.w3.org/1999/xlink" width="612" height="828"><defs/><g><g><path fill="none" stroke="#000000" paint-order="fill stroke markers" d=" M 10 10 L 390.32861328125 10 L 390.32861328125 818 L 10 818 L 10 10 Z Z" stroke-miterlimit="10" stroke-dasharray=""/></g><g><path fill="none" stroke="#000000" paint-order="fill stroke markers" d=" M 10 33 L 390.32861328125 33" stroke-miterlimit="10" stroke-dasharray=""/></g><g><g><path fill="none" stroke="none"/><text fill="#000000" stroke="none" font-family="Arial" font-size="13px" font-style="normal" font-weight="normal" text-decoration="undefined" x="382.164306640625" y="109" text-anchor="middle" dominant-baseline="text-before-edge" transform="matrix(1 0 0 1 -182 -94)">Пользователь</text></g></g><g><path fill="none" stroke="#000000" paint-order="fill stroke markers" d=" M 298 10 L 602 10 L 602 818 L 298 818 L 298 10 Z Z" stroke-miterlimit="10" stroke-dasharray=""/></g><g><path fill="none" stroke="#000000" paint-order="fill stroke markers" d=" M 298 33 L 602 33" stroke-miterlimit="10" stroke-dasharray=""/></g><g><g><path fill="none" stroke="none"/><text fill="#000000" stroke="none" font-family="Arial" font-size="13px" font-style="normal" font-weight="normal" text-decoration="undefined" x="632" y="109" text-anchor="middle" dominant-baseline="text-before-edge" transform="matrix(1 0 0 1 -182 -94)">API</text></g></g><g><path fill="#C0C0C0" stroke="none" paint-order="stroke fill markers" d=" M 137 81 C 137 72.16344319999999 144.16344320000002 65 153 65 C 161.83655679999998 65 169 72.16344319999999 169 81 C 169 89.83655680000001 161.83655679999998 97 153 97 C 144.16344320000002 97 137 89.83655680000001 137 81 Z" fill-opacity="0.2"/></g><g><path fill="#ffffff" stroke="none" paint-order="stroke fill markers" d=" M 130 74 C 130 65.16344319999999 137.16344320000002 58 146 58 C 154.83655679999998 58 162 65.16344319999999 162 74 C 162 82.83655680000001 154.83655679999998 90 146 90 C 137.16344320000002 90 130 82.83655680000001 130 74 Z"/></g><g><path fill="none" stroke="#000000" paint-order="fill stroke markers" d=" M 130 74 C 130 65.16344319999999 137.16344320000002 58 146 58 C 154.83655679999998 58 162 65.16344319999999 162 74 C 162 82.83655680000001 154.83655679999998 90 146 90 C 137.16344320000002 90 130 82.83655680000001 130 74 Z" stroke-miterlimit="10" stroke-dasharray=""/></g><g><rect fill="#ffffff" stroke="none" x="277.5616455078125" y="191" width="100.876708984375" height="26" transform="matrix(1 0 0 1 -182 -94)"/></g><g><g><path fill="none" stroke="none"/><text fill="#000000" stroke="none" font-family="Arial" font-size="13px" font-style="normal" font-weight="normal" text-decoration="undefined" x="328" y="197.5" text-anchor="middle" dominant-baseline="central" transform="matrix(1 0 0 1 -182 -94)">Открытие</text><text fill="#000000" stroke="none" font-family="Arial" font-size="13px" font-style="normal" font-weight="normal" text-decoration="undefined" x="328" y="210.5" text-anchor="middle" dominant-baseline="central" transform="matrix(1 0 0 1 -182 -94)">приложения</text></g></g><g><path fill="#C0C0C0" stroke="none" paint-order="stroke fill markers" d=" M 115 185 L 187.32275390625 185 Q 197.32275390625 185 197.32275390625 195 L 197.32275390625 250 Q 197.32275390625 260 187.32275390625 260 L 115 260 Q 105 260 105 250 L 105 195 Q 105 185 115 185 Z" fill-opacity="0.2"/></g><g><path fill="#ffffff" stroke="none" paint-order="stroke fill markers" d=" M 108 178 L 180.32275390625 178 Q 190.32275390625 178 190.32275390625 188 L 190.32275390625 243 Q 190.32275390625 253 180.32275390625 253 L 108 253 Q 98 253 98 243 L 98 188 Q 98 178 108 178 Z"/></g><g><path fill="none" stroke="#000000" paint-order="fill stroke markers" d=" M 108 178 L 180.32275390625 178 Q 190.32275390625 178 190.32275390625 188 L 190.32275390625 243 Q 190.32275390625 253 180.32275390625 253 L 108 253 Q 98 253 98 243 L 98 188 Q 98 178 108 178 Z" stroke-miterlimit="10" stroke-dasharray=""/></g><g><g><path fill="none" stroke="none"/><text fill="#000000" stroke="none" font-family="Arial" font-size="13px" font-style="normal" font-weight="normal" text-decoration="undefined" x="326.161376953125" y="283.5" text-anchor="middle" dominant-baseline="central" transform="matrix(1 0 0 1 -182 -94)">Запрос на</text><text fill="#000000" stroke="none" font-family="Arial" font-size="13px" font-style="normal" font-weight="normal" text-decoration="undefined" x="326.161376953125" y="296.5" text-anchor="middle" dominant-baseline="central" transform="matrix(1 0 0 1 -182 -94)">получение</text><text fill="#000000" stroke="none" font-family="Arial" font-size="13px" font-style="normal" font-weight="normal" text-decoration="undefined" x="326.161376953125" y="309.5" text-anchor="middle" dominant-baseline="central" transform="matrix(1 0 0 1 -182 -94)">информации</text><text fill="#000000" stroke="none" font-family="Arial" font-size="13px" font-style="normal" font-weight="normal" text-decoration="undefined" x="326.161376953125" y="322.5" text-anchor="middle" dominant-baseline="central" transform="matrix(1 0 0 1 -182 -94)">об аккаунте</text><text fill="#000000" stroke="none" font-family="Arial" font-size="13px" font-style="normal" font-weight="normal" text-decoration="undefined" x="326.161376953125" y="335.5" text-anchor="middle" dominant-baseline="central" transform="matrix(1 0 0 1 -182 -94)">пользователя</text></g></g><g><path fill="#C0C0C0" stroke="none" paint-order="stroke fill markers" d=" M 129 313 L 145 297 L 161 313 L 145 329 L 129 313" fill-opacity="0.2"/></g><g><path fill="#ffffff" stroke="none" paint-order="stroke fill markers" d=" M 122 306 L 138 290 L 154 306 L 138 322 L 122 306"/></g><g><path fill="none" stroke="#000000" paint-order="fill stroke markers" d=" M 122 306 L 138 290 L 154 306 L 138 322 L 122 306 L 122 306" stroke-miterlimit="10" stroke-dasharray=""/></g><g><rect fill="#ffffff" stroke="none" x="231.5244140625" y="415.5" width="160.951171875" height="39" transform="matrix(1 0 0 1 -182 -94)"/></g><g><g><path fill="none" stroke="none"/><text fill="#000000" stroke="none" font-family="Arial" font-size="13px" font-style="normal" font-weight="normal" text-decoration="undefined" x="312" y="422" text-anchor="middle" dominant-baseline="central" transform="matrix(1 0 0 1 -182 -94)">Аккаунт находится в</text><text fill="#000000" stroke="none" font-family="Arial" font-size="13px" font-style="normal" font-weight="normal" text-decoration="undefined" x="312" y="435" text-anchor="middle" dominant-baseline="central" transform="matrix(1 0 0 1 -182 -94)">статусе ожидания на</text><text fill="#000000" stroke="none" font-family="Arial" font-size="13px" font-style="normal" font-weight="normal" text-decoration="undefined" x="312" y="448" text-anchor="middle" dominant-baseline="central" transform="matrix(1 0 0 1 -182 -94)">удаление</text></g></g><g><path fill="#C0C0C0" stroke="none" paint-order="stroke fill markers" d=" M 129 457 L 151.39999999999998 457 L 161 466.6 L 161 497 L 129 497" fill-opacity="0.2"/></g><g><path fill="#ffffff" stroke="none" paint-order="stroke fill markers" d=" M 122 450 L 144.39999999999998 450 L 154 459.6 L 154 490 L 122 490"/></g><g><path fill="none" stroke="#000000" paint-order="fill stroke markers" d=" M 122 450 L 144.39999999999998 450 L 154 459.6 L 154 490 L 122 490 L 122 450" stroke-miterlimit="10" stroke-dasharray=""/></g><g><path fill="none" stroke="#000000" paint-order="fill stroke markers" d=" M 144.39999999999998 450 L 144.39999999999998 459.6 L 154 459.6 L 144.39999999999998 450" stroke-miterlimit="10" stroke-dasharray=""/></g><g><rect fill="#ffffff" stroke="none" x="210.7840576171875" y="619.5" width="208.431884765625" height="39" transform="matrix(1 0 0 1 -182 -94)"/></g><g><g><path fill="none" stroke="none"/><text fill="#000000" stroke="none" font-family="Arial" font-size="13px" font-style="normal" font-weight="normal" text-decoration="undefined" x="315" y="626" text-anchor="middle" dominant-baseline="central" transform="matrix(1 0 0 1 -182 -94)">Отобразить модал с</text><text fill="#000000" stroke="none" font-family="Arial" font-size="13px" font-style="normal" font-weight="normal" text-decoration="undefined" x="315" y="639" text-anchor="middle" dominant-baseline="central" transform="matrix(1 0 0 1 -182 -94)">подтверждением отменны</text><text fill="#000000" stroke="none" font-family="Arial" font-size="13px" font-style="normal" font-weight="normal" text-decoration="undefined" x="315" y="652" text-anchor="middle" dominant-baseline="central" transform="matrix(1 0 0 1 -182 -94)">удаления аккаунта</text></g></g><g><path fill="#C0C0C0" stroke="none" paint-order="stroke fill markers" d=" M 123 585 L 177.01611328125 585 Q 187.01611328125 585 187.01611328125 595 L 187.01611328125 637 Q 187.01611328125 647 177.01611328125 647 L 123 647 Q 113 647 113 637 L 113 595 Q 113 585 123 585 Z" fill-opacity="0.2"/></g><g><path fill="#ffffff" stroke="none" paint-order="stroke fill markers" d=" M 116 578 L 170.01611328125 578 Q 180.01611328125 578 180.01611328125 588 L 180.01611328125 630 Q 180.01611328125 640 170.01611328125 640 L 116 640 Q 106 640 106 630 L 106 588 Q 106 578 116 578 Z"/></g><g><path fill="none" stroke="#000000" paint-order="fill stroke markers" d=" M 116 578 L 170.01611328125 578 Q 180.01611328125 578 180.01611328125 588 L 180.01611328125 630 Q 180.01611328125 640 170.01611328125 640 L 116 640 Q 106 640 106 630 L 106 588 Q 106 578 116 578 Z" stroke-miterlimit="10" stroke-dasharray=""/></g><g><path fill="none" stroke="#000000" paint-order="fill stroke markers" d=" M 116 587 C 116 585.3431456 117.34314560000001 584 119 584 C 120.65685439999999 584 122 585.3431456 122 587 C 122 588.6568544 120.65685439999999 590 119 590 C 117.34314560000001 590 116 588.6568544 116 587 Z" stroke-miterlimit="10" stroke-dasharray=""/></g><g><path fill="none" stroke="#000000" paint-order="fill stroke markers" d=" M 114 591 L 124 591 L 124 598 L 114 598 L 114 591 Z Z" stroke-miterlimit="10" stroke-dasharray=""/></g><g><g><path fill="none" stroke="none"/><text fill="#000000" stroke="none" font-family="Arial" font-size="13px" font-style="normal" font-weight="normal" text-decoration="undefined" x="325.008056640625" y="683.5" text-anchor="middle" dominant-baseline="central" transform="matrix(1 0 0 1 -182 -94)">Нажать</text><text fill="#000000" stroke="none" font-family="Arial" font-size="13px" font-style="normal" font-weight="normal" text-decoration="undefined" x="325.008056640625" y="696.5" text-anchor="middle" dominant-baseline="central" transform="matrix(1 0 0 1 -182 -94)">кнопку</text><text fill="#000000" stroke="none" font-family="Arial" font-size="13px" font-style="normal" font-weight="normal" text-decoration="undefined" x="325.008056640625" y="709.5" text-anchor="middle" dominant-baseline="central" transform="matrix(1 0 0 1 -182 -94)">"Отменить</text><text fill="#000000" stroke="none" font-family="Arial" font-size="13px" font-style="normal" font-weight="normal" text-decoration="undefined" x="325.008056640625" y="722.5" text-anchor="middle" dominant-baseline="central" transform="matrix(1 0 0 1 -182 -94)">удаление"</text></g></g><g><path fill="#C0C0C0" stroke="none" paint-order="stroke fill markers" d=" M 475 569 L 547.32275390625 569 Q 557.32275390625 569 557.32275390625 579 L 557.32275390625 621 Q 557.32275390625 631 547.32275390625 631 L 475 631 Q 465 631 465 621 L 465 579 Q 465 569 475 569 Z" fill-opacity="0.2"/></g><g><path fill="#ffffff" stroke="none" paint-order="stroke fill markers" d=" M 468 562 L 540.32275390625 562 Q 550.32275390625 562 550.32275390625 572 L 550.32275390625 614 Q 550.32275390625 624 540.32275390625 624 L 468 624 Q 458 624 458 614 L 458 572 Q 458 562 468 562 Z"/></g><g><path fill="none" stroke="#000000" paint-order="fill stroke markers" d=" M 468 562 L 540.32275390625 562 Q 550.32275390625 562 550.32275390625 572 L 550.32275390625 614 Q 550.32275390625 624 540.32275390625 624 L 468 624 Q 458 624 458 614 L 458 572 Q 458 562 468 562 Z" stroke-miterlimit="10" stroke-dasharray=""/></g><g><g><path fill="none" stroke="none"/><text fill="#000000" stroke="none" font-family="Arial" font-size="13px" font-style="normal" font-weight="normal" text-decoration="undefined" x="686.161376953125" y="667.5" text-anchor="middle" dominant-baseline="central" transform="matrix(1 0 0 1 -182 -94)">Отменить</text><text fill="#000000" stroke="none" font-family="Arial" font-size="13px" font-style="normal" font-weight="normal" text-decoration="undefined" x="686.161376953125" y="680.5" text-anchor="middle" dominant-baseline="central" transform="matrix(1 0 0 1 -182 -94)">удаление</text><text fill="#000000" stroke="none" font-family="Arial" font-size="13px" font-style="normal" font-weight="normal" text-decoration="undefined" x="686.161376953125" y="693.5" text-anchor="middle" dominant-baseline="central" transform="matrix(1 0 0 1 -182 -94)">аккаунт</text><text fill="#000000" stroke="none" font-family="Arial" font-size="13px" font-style="normal" font-weight="normal" text-decoration="undefined" x="686.161376953125" y="706.5" text-anchor="middle" dominant-baseline="central" transform="matrix(1 0 0 1 -182 -94)">пользователя</text></g></g><g><path fill="#C0C0C0" stroke="none" paint-order="stroke fill markers" d=" M 481 761 C 481 752.1634432 488.16344319999996 745 497 745 C 505.83655680000004 745 513 752.1634432 513 761 C 513 769.8365568 505.83655680000004 777 497 777 C 488.16344319999996 777 481 769.8365568 481 761 Z" fill-opacity="0.2"/></g><g><path fill="#ffffff" stroke="none" paint-order="stroke fill markers" d=" M 474 754 C 474 745.1634432 481.16344319999996 738 490 738 C 498.83655680000004 738 506 745.1634432 506 754 C 506 762.8365568 498.83655680000004 770 490 770 C 481.16344319999996 770 474 762.8365568 474 754 Z"/></g><g><path fill="none" stroke="#000000" paint-order="fill stroke markers" d=" M 474 754 C 474 745.1634432 481.16344319999996 738 490 738 C 498.83655680000004 738 506 745.1634432 506 754 C 506 762.8365568 498.83655680000004 770 490 770 C 481.16344319999996 770 474 762.8365568 474 754 Z" stroke-miterlimit="10" stroke-width="3" stroke-dasharray=""/></g><g><rect fill="#ffffff" stroke="none" x="634.183837890625" y="864.5" width="75.63232421875" height="39" transform="matrix(1 0 0 1 -182 -94)"/></g><g><g><path fill="none" stroke="none"/><text fill="#000000" stroke="none" font-family="Arial" font-size="13px" font-style="normal" font-weight="normal" text-decoration="undefined" x="672" y="871" text-anchor="middle" dominant-baseline="central" transform="matrix(1 0 0 1 -182 -94)">Завершение</text><text fill="#000000" stroke="none" font-family="Arial" font-size="13px" font-style="normal" font-weight="normal" text-decoration="undefined" x="672" y="884" text-anchor="middle" dominant-baseline="central" transform="matrix(1 0 0 1 -182 -94)">отменны</text><text fill="#000000" stroke="none" font-family="Arial" font-size="13px" font-style="normal" font-weight="normal" text-decoration="undefined" x="672" y="897" text-anchor="middle" dominant-baseline="central" transform="matrix(1 0 0 1 -182 -94)">удаления</text></g></g><g><path fill="none" stroke="#000000" paint-order="fill stroke markers" d=" M 146 90 L 146 178" stroke-miterlimit="10" stroke-dasharray=""/></g><g><path fill="#000000" stroke="none" paint-order="stroke fill markers" d=" M 141.790482243984 167.83732514237585 L 146 178 L 150.209517756016 167.83732514237585"/></g><g><path fill="none" stroke="#000000" paint-order="fill stroke markers" d=" M 141.790482243984 167.83732514237585 L 146 178 L 150.209517756016 167.83732514237585 L 141.790482243984 167.83732514237585" stroke-miterlimit="10" stroke-dasharray=""/></g><g><path fill="none" stroke="#000000" paint-order="fill stroke markers" d=" M 143 253 L 143 290" stroke-miterlimit="10" stroke-dasharray=""/></g><g><path fill="#000000" stroke="none" paint-order="stroke fill markers" d=" M 138.790482243984 279.83732514237585 L 143 290 L 147.209517756016 279.83732514237585"/></g><g><path fill="none" stroke="#000000" paint-order="fill stroke markers" d=" M 138.790482243984 279.83732514237585 L 143 290 L 147.209517756016 279.83732514237585 L 138.790482243984 279.83732514237585" stroke-miterlimit="10" stroke-dasharray=""/></g><g><path fill="none" stroke="#000000" paint-order="fill stroke markers" d=" M 138 322 L 138 450" stroke-miterlimit="10" stroke-dasharray=""/></g><g><path fill="#000000" stroke="none" paint-order="stroke fill markers" d=" M 133.790482243984 439.8373251423759 L 138 450 L 142.209517756016 439.8373251423759"/></g><g><path fill="none" stroke="#000000" paint-order="fill stroke markers" d=" M 133.790482243984 439.8373251423759 L 138 450 L 142.209517756016 439.8373251423759 L 133.790482243984 439.8373251423759" stroke-miterlimit="10" stroke-dasharray=""/></g><g><rect fill="#ffffff" stroke="none" x="312" y="503" width="16.0341796875" height="13" transform="matrix(1 0 0 1 -182 -94)"/></g><g><g><path fill="none" stroke="none"/><text fill="#000000" stroke="none" font-family="Arial" font-size="13px" font-style="normal" font-weight="normal" text-decoration="undefined" x="320.01708984375" y="509.5" text-anchor="middle" dominant-baseline="central" transform="matrix(1 0 0 1 -182 -94)">Да</text></g></g><g><path fill="none" stroke="#000000" paint-order="fill stroke markers" d=" M 138 490 L 138 578" stroke-miterlimit="10" stroke-dasharray=""/></g><g><path fill="#000000" stroke="none" paint-order="stroke fill markers" d=" M 133.790482243984 567.8373251423759 L 138 578 L 142.209517756016 567.8373251423759"/></g><g><path fill="none" stroke="#000000" paint-order="fill stroke markers" d=" M 133.790482243984 567.8373251423759 L 138 578 L 142.209517756016 567.8373251423759 L 133.790482243984 567.8373251423759" stroke-miterlimit="10" stroke-dasharray=""/></g><g><path fill="none" stroke="#000000" paint-order="fill stroke markers" d=" M 180 591 L 458 591" stroke-miterlimit="10" stroke-dasharray=""/></g><g><path fill="#000000" stroke="none" paint-order="stroke fill markers" d=" M 447.8373251423759 595.209517756016 L 458 591 L 447.8373251423758 586.790482243984"/></g><g><path fill="none" stroke="#000000" paint-order="fill stroke markers" d=" M 447.8373251423759 595.209517756016 L 458 591 L 447.8373251423758 586.790482243984 L 447.8373251423759 595.209517756016" stroke-miterlimit="10" stroke-dasharray=""/></g><g><path fill="none" stroke="#000000" paint-order="fill stroke markers" d=" M 490 624 L 490 738" stroke-miterlimit="10" stroke-dasharray=""/></g><g><path fill="#000000" stroke="none" paint-order="stroke fill markers" d=" M 485.790482243984 727.8373251423759 L 490 738 L 494.209517756016 727.8373251423759"/></g><g><path fill="none" stroke="#000000" paint-order="fill stroke markers" d=" M 485.790482243984 727.8373251423759 L 490 738 L 494.209517756016 727.8373251423759 L 485.790482243984 727.8373251423759" stroke-miterlimit="10" stroke-dasharray=""/></g></g></svg>