<svg version="1.1" xmlns="http://www.w3.org/2000/svg" xmlns:xlink="http://www.w3.org/1999/xlink" width="326" height="308"><defs/><g><g><path fill="#ffffff" stroke="none" paint-order="stroke fill markers" d=" M 88 10 L 298 10 L 256 46 L 46 46 L 88 10"/></g><g><path fill="none" stroke="#000000" paint-order="fill stroke markers" d=" M 88 10 L 298 10 L 256 46 L 46 46 L 88 10 L 88 10" stroke-miterlimit="10" stroke-dasharray=""/></g><g><g><path fill="none" stroke="none"/><text fill="#000000" stroke="none" font-family="Arial" font-size="16px" font-style="normal" font-weight="normal" text-decoration="undefined" x="450" y="90" text-anchor="middle" dominant-baseline="central" transform="matrix(1 0 0 1 -278 -62)">SearchParams</text></g></g><g><path fill="#ffffff" stroke="#000000" paint-order="fill stroke markers" d=" M 64 86 C 64 83.79086079999999 108.3238048 82 163 82 C 217.6761952 82 262 83.79086079999999 262 86 L 262 114 C 262 116.20913920000001 217.6761952 118 163 118 C 108.3238048 118 64 116.20913920000001 64 114 L 64 86 Z" stroke-miterlimit="10" stroke-dasharray=""/></g><g><path fill="none" stroke="#000000" paint-order="fill stroke markers" d=" M 64 86 C 64 88.20913920000001 108.3238048 90 163 90 C 217.6761952 90 262 88.20913920000001 262 86" stroke-miterlimit="10" stroke-dasharray=""/></g><g><g><path fill="none" stroke="none"/><text fill="#000000" stroke="none" font-family="Arial" font-size="16px" font-style="normal" font-weight="normal" text-decoration="undefined" x="441" y="164" text-anchor="middle" dominant-baseline="central" transform="matrix(1 0 0 1 -278 -62)">Запрос</text></g></g><g><path fill="#ffffff" stroke="none" paint-order="stroke fill markers" d=" M 36 154 L 290 154 Q 316 154 316 180 L 316 180 Q 316 206 290 206 L 36 206 Q 10 206 10 180 L 10 180 Q 10 154 36 154 Z"/></g><g><path fill="none" stroke="#000000" paint-order="fill stroke markers" d=" M 36 154 L 290 154 Q 316 154 316 180 L 316 180 Q 316 206 290 206 L 36 206 Q 10 206 10 180 L 10 180 Q 10 154 36 154 Z" stroke-miterlimit="10" stroke-dasharray=""/></g><g><g><path fill="none" stroke="none"/><text fill="#000000" stroke="none" font-family="Arial" font-size="16px" font-style="normal" font-weight="normal" text-decoration="undefined" x="441" y="234" text-anchor="middle" dominant-baseline="central" transform="matrix(1 0 0 1 -278 -62)">У пользователя в настройках</text><text fill="#000000" stroke="none" font-family="Arial" font-size="16px" font-style="normal" font-weight="normal" text-decoration="undefined" x="441" y="250" text-anchor="middle" dominant-baseline="central" transform="matrix(1 0 0 1 -278 -62)">приватности разрешен поиск</text></g></g><g><path fill="#ffffff" stroke="none" paint-order="stroke fill markers" d=" M 97 262 L 262 262 L 229 298 L 64 298 L 97 262"/></g><g><path fill="none" stroke="#000000" paint-order="fill stroke markers" d=" M 97 262 L 262 262 L 229 298 L 64 298 L 97 262 L 97 262" stroke-miterlimit="10" stroke-dasharray=""/></g><g><g><path fill="none" stroke="none"/><text fill="#000000" stroke="none" font-family="Arial" font-size="16px" font-style="normal" font-weight="normal" text-decoration="undefined" x="441" y="342" text-anchor="middle" dominant-baseline="central" transform="matrix(1 0 0 1 -278 -62)">Result</text></g></g><g><path fill="none" stroke="#000000" paint-order="fill stroke markers" d=" M 170 46 L 170 82" stroke-miterlimit="10" stroke-dasharray=""/></g><g><path fill="#000000" stroke="none" paint-order="stroke fill markers" d=" M 165.790482243984 71.83732514237585 L 170 82 L 174.209517756016 71.83732514237585"/></g><g><path fill="none" stroke="#000000" paint-order="fill stroke markers" d=" M 165.790482243984 71.83732514237585 L 170 82 L 174.209517756016 71.83732514237585 L 165.790482243984 71.83732514237585" stroke-miterlimit="10" stroke-dasharray=""/></g><g><path fill="none" stroke="#000000" paint-order="fill stroke markers" d=" M 163 118 L 163 154" stroke-miterlimit="10" stroke-dasharray=""/></g><g><path fill="#000000" stroke="none" paint-order="stroke fill markers" d=" M 158.790482243984 143.83732514237585 L 163 154 L 167.209517756016 143.83732514237585"/></g><g><path fill="none" stroke="#000000" paint-order="fill stroke markers" d=" M 158.790482243984 143.83732514237585 L 163 154 L 167.209517756016 143.83732514237585 L 158.790482243984 143.83732514237585" stroke-miterlimit="10" stroke-dasharray=""/></g><g><path fill="none" stroke="#000000" paint-order="fill stroke markers" d=" M 163 206 L 163 262" stroke-miterlimit="10" stroke-dasharray=""/></g><g><path fill="#000000" stroke="none" paint-order="stroke fill markers" d=" M 158.790482243984 251.83732514237585 L 163 262 L 167.209517756016 251.83732514237585"/></g><g><path fill="none" stroke="#000000" paint-order="fill stroke markers" d=" M 158.790482243984 251.83732514237585 L 163 262 L 167.209517756016 251.83732514237585 L 158.790482243984 251.83732514237585" stroke-miterlimit="10" stroke-dasharray=""/></g></g></svg>