<svg version="1.1" xmlns="http://www.w3.org/2000/svg" xmlns:xlink="http://www.w3.org/1999/xlink" width="786.484375" height="1154"><defs/><g><g><rect fill="#ffffff" stroke="none" x="36" y="54" width="564.0859375" height="52" transform="matrix(1 0 0 1 -26 -44)"/></g><g><path fill="#ffffff" stroke="none" paint-order="stroke fill markers" d=" M 574.0859375 10 A 26 26 0 0 1 574.0859375 62"/></g><g><path fill="none" stroke="#000000" paint-order="fill stroke markers" d=" M 10 10 L 10 62" stroke-miterlimit="10" stroke-dasharray=""/></g><g><path fill="none" stroke="#000000" paint-order="fill stroke markers" d=" M 10 10 L 574.0859375 10" stroke-miterlimit="10" stroke-dasharray=""/></g><g><path fill="none" stroke="#000000" paint-order="fill stroke markers" d=" M 10 62 L 574.0859375 62" stroke-miterlimit="10" stroke-dasharray=""/></g><g><path fill="none" stroke="#000000" paint-order="fill stroke markers" d=" M 574.0859375 10 A 26 26 0 0 1 574.0859375 62" stroke-miterlimit="10" stroke-dasharray=""/></g><g><g><path fill="none" stroke="none"/><text fill="#000000" stroke="none" font-family="Arial" font-size="16px" font-style="normal" font-weight="normal" text-decoration="undefined" x="267.2822265625" y="72" text-anchor="middle" dominant-baseline="central" transform="matrix(1 0 0 1 -26 -44)">POST</text><text fill="#000000" stroke="none" font-family="Arial" font-size="16px" font-style="normal" font-weight="normal" text-decoration="undefined" x="267.2822265625" y="88" text-anchor="middle" dominant-baseline="central" transform="matrix(1 0 0 1 -26 -44)">/communities/payment-account-invitation/{paymentAccountInvitationId}/accounts</text></g></g><g><path fill="#ffffff" stroke="#000000" paint-order="fill stroke markers" d=" M 633 44 L 656 10 L 753.484375 10 Q 776.484375 10 776.484375 44 Q 776.484375 78 753.484375 78 L 656 78 L 633 44 Z" stroke-miterlimit="10" stroke-dasharray=""/></g><g><g><path fill="none" stroke="none"/><text fill="#000000" stroke="none" font-family="Arial" font-size="16px" font-style="normal" font-weight="normal" text-decoration="undefined" x="730.7421875" y="72" text-anchor="middle" dominant-baseline="central" transform="matrix(1 0 0 1 -26 -44)">Заголовки</text><text fill="#000000" stroke="none" font-family="Arial" font-size="16px" font-style="normal" font-weight="normal" text-decoration="undefined" x="730.7421875" y="88" text-anchor="middle" dominant-baseline="central" transform="matrix(1 0 0 1 -26 -44)">запроса</text><text fill="#000000" stroke="none" font-family="Arial" font-size="16px" font-style="normal" font-weight="normal" text-decoration="undefined" x="730.7421875" y="104" text-anchor="middle" dominant-baseline="central" transform="matrix(1 0 0 1 -26 -44)">(Авторизирован)</text></g></g><g><path fill="#ffffff" stroke="none" paint-order="stroke fill markers" d=" M 259 100 L 514 100 L 463 136 L 208 136 L 259 100"/></g><g><path fill="none" stroke="#000000" paint-order="fill stroke markers" d=" M 259 100 L 514 100 L 463 136 L 208 136 L 259 100 L 259 100" stroke-miterlimit="10" stroke-dasharray=""/></g><g><g><path fill="none" stroke="none"/><text fill="#000000" stroke="none" font-family="Arial" font-size="16px" font-style="normal" font-weight="normal" text-decoration="undefined" x="387" y="162" text-anchor="middle" dominant-baseline="central" transform="matrix(1 0 0 1 -26 -44)">PostComunityInviteUserRequest</text></g></g><g><path fill="#ffffff" stroke="none" paint-order="stroke fill markers" d=" M 260 172 L 480 172 Q 514 172 514 206 L 514 206 Q 514 240 480 240 L 260 240 Q 226 240 226 206 L 226 206 Q 226 172 260 172 Z"/></g><g><path fill="none" stroke="#000000" paint-order="fill stroke markers" d=" M 260 172 L 480 172 Q 514 172 514 206 L 514 206 Q 514 240 480 240 L 260 240 Q 226 240 226 206 L 226 206 Q 226 172 260 172 Z" stroke-miterlimit="10" stroke-dasharray=""/></g><g><g><path fill="none" stroke="none"/><text fill="#000000" stroke="none" font-family="Arial" font-size="16px" font-style="normal" font-weight="normal" text-decoration="undefined" x="396" y="234" text-anchor="middle" dominant-baseline="central" transform="matrix(1 0 0 1 -26 -44)">Есть ли доступ у ид этого</text><text fill="#000000" stroke="none" font-family="Arial" font-size="16px" font-style="normal" font-weight="normal" text-decoration="undefined" x="396" y="250" text-anchor="middle" dominant-baseline="central" transform="matrix(1 0 0 1 -26 -44)">пользователя к ид этого</text><text fill="#000000" stroke="none" font-family="Arial" font-size="16px" font-style="normal" font-weight="normal" text-decoration="undefined" x="396" y="266" text-anchor="middle" dominant-baseline="central" transform="matrix(1 0 0 1 -26 -44)">приглашения</text></g></g><g><rect fill="#ffffff" stroke="none" x="252" y="324" width="288" height="36" transform="matrix(1 0 0 1 -26 -44)"/></g><g><path fill="none" stroke="#000000" paint-order="fill stroke markers" d=" M 226 280 L 514 280 L 514 316 L 226 316 L 226 280 Z Z" stroke-miterlimit="10" stroke-dasharray=""/></g><g><g><path fill="none" stroke="none"/><text fill="#000000" stroke="none" font-family="Arial" font-size="16px" font-style="normal" font-weight="normal" text-decoration="undefined" x="396" y="342" text-anchor="middle" dominant-baseline="central" transform="matrix(1 0 0 1 -26 -44)">Удалить приглашение</text></g></g><g><path fill="#ffffff" stroke="none" paint-order="stroke fill markers" d=" M 262 498 L 365.828125 370 L 469.65625 498 L 365.828125 626 L 262 498"/></g><g><path fill="none" stroke="#000000" paint-order="fill stroke markers" d=" M 262 498 L 365.828125 370 L 469.65625 498 L 365.828125 626 L 262 498 L 262 498" stroke-miterlimit="10" stroke-dasharray=""/></g><g><g><path fill="none" stroke="none"/><text fill="#000000" stroke="none" font-family="Arial" font-size="16px" font-style="normal" font-weight="normal" text-decoration="undefined" x="391.828125" y="486" text-anchor="middle" dominant-baseline="central" transform="matrix(1 0 0 1 -26 -44)">Пользователь</text><text fill="#000000" stroke="none" font-family="Arial" font-size="16px" font-style="normal" font-weight="normal" text-decoration="undefined" x="391.828125" y="502" text-anchor="middle" dominant-baseline="central" transform="matrix(1 0 0 1 -26 -44)">подтвердил</text><text fill="#000000" stroke="none" font-family="Arial" font-size="16px" font-style="normal" font-weight="normal" text-decoration="undefined" x="391.828125" y="518" text-anchor="middle" dominant-baseline="central" transform="matrix(1 0 0 1 -26 -44)">приглашение</text><text fill="#000000" stroke="none" font-family="Arial" font-size="16px" font-style="normal" font-weight="normal" text-decoration="undefined" x="391.828125" y="534" text-anchor="middle" dominant-baseline="central" transform="matrix(1 0 0 1 -26 -44)">стать</text><text fill="#000000" stroke="none" font-family="Arial" font-size="16px" font-style="normal" font-weight="normal" text-decoration="undefined" x="391.828125" y="550" text-anchor="middle" dominant-baseline="central" transform="matrix(1 0 0 1 -26 -44)">аккаунтом</text><text fill="#000000" stroke="none" font-family="Arial" font-size="16px" font-style="normal" font-weight="normal" text-decoration="undefined" x="391.828125" y="566" text-anchor="middle" dominant-baseline="central" transform="matrix(1 0 0 1 -26 -44)">для оплаты</text><text fill="#000000" stroke="none" font-family="Arial" font-size="16px" font-style="normal" font-weight="normal" text-decoration="undefined" x="391.828125" y="582" text-anchor="middle" dominant-baseline="central" transform="matrix(1 0 0 1 -26 -44)">(param:</text><text fill="#000000" stroke="none" font-family="Arial" font-size="16px" font-style="normal" font-weight="normal" text-decoration="undefined" x="391.828125" y="598" text-anchor="middle" dominant-baseline="central" transform="matrix(1 0 0 1 -26 -44)">IsConfirm)</text></g></g><g><rect fill="#ffffff" stroke="none" x="540" y="666" width="121.3203125" height="100" transform="matrix(1 0 0 1 -26 -44)"/></g><g><path fill="none" stroke="#000000" paint-order="fill stroke markers" d=" M 514 622 L 635.3203125 622 L 635.3203125 722 L 514 722 L 514 622 Z Z" stroke-miterlimit="10" stroke-dasharray=""/></g><g><g><path fill="none" stroke="none"/><text fill="#000000" stroke="none" font-family="Arial" font-size="16px" font-style="normal" font-weight="normal" text-decoration="undefined" x="600.66015625" y="684" text-anchor="middle" dominant-baseline="central" transform="matrix(1 0 0 1 -26 -44)">Указать</text><text fill="#000000" stroke="none" font-family="Arial" font-size="16px" font-style="normal" font-weight="normal" text-decoration="undefined" x="600.66015625" y="700" text-anchor="middle" dominant-baseline="central" transform="matrix(1 0 0 1 -26 -44)">аккаунт</text><text fill="#000000" stroke="none" font-family="Arial" font-size="16px" font-style="normal" font-weight="normal" text-decoration="undefined" x="600.66015625" y="716" text-anchor="middle" dominant-baseline="central" transform="matrix(1 0 0 1 -26 -44)">пользователя</text><text fill="#000000" stroke="none" font-family="Arial" font-size="16px" font-style="normal" font-weight="normal" text-decoration="undefined" x="600.66015625" y="732" text-anchor="middle" dominant-baseline="central" transform="matrix(1 0 0 1 -26 -44)">для оплаты в</text><text fill="#000000" stroke="none" font-family="Arial" font-size="16px" font-style="normal" font-weight="normal" text-decoration="undefined" x="600.66015625" y="748" text-anchor="middle" dominant-baseline="central" transform="matrix(1 0 0 1 -26 -44)">сообществе</text></g></g><g><path fill="#ffffff" stroke="none" paint-order="stroke fill markers" d=" M 262 862 L 365.3828125 766 L 468.765625 862 L 365.3828125 958 L 262 862"/></g><g><path fill="none" stroke="#000000" paint-order="fill stroke markers" d=" M 262 862 L 365.3828125 766 L 468.765625 862 L 365.3828125 958 L 262 862 L 262 862" stroke-miterlimit="10" stroke-dasharray=""/></g><g><g><path fill="none" stroke="none"/><text fill="#000000" stroke="none" font-family="Arial" font-size="16px" font-style="normal" font-weight="normal" text-decoration="undefined" x="391.3828125" y="866" text-anchor="middle" dominant-baseline="central" transform="matrix(1 0 0 1 -26 -44)">пользователь</text><text fill="#000000" stroke="none" font-family="Arial" font-size="16px" font-style="normal" font-weight="normal" text-decoration="undefined" x="391.3828125" y="882" text-anchor="middle" dominant-baseline="central" transform="matrix(1 0 0 1 -26 -44)">заблокировал</text><text fill="#000000" stroke="none" font-family="Arial" font-size="16px" font-style="normal" font-weight="normal" text-decoration="undefined" x="391.3828125" y="898" text-anchor="middle" dominant-baseline="central" transform="matrix(1 0 0 1 -26 -44)">этого</text><text fill="#000000" stroke="none" font-family="Arial" font-size="16px" font-style="normal" font-weight="normal" text-decoration="undefined" x="391.3828125" y="914" text-anchor="middle" dominant-baseline="central" transform="matrix(1 0 0 1 -26 -44)">пользователя</text><text fill="#000000" stroke="none" font-family="Arial" font-size="16px" font-style="normal" font-weight="normal" text-decoration="undefined" x="391.3828125" y="930" text-anchor="middle" dominant-baseline="central" transform="matrix(1 0 0 1 -26 -44)">(param:</text><text fill="#000000" stroke="none" font-family="Arial" font-size="16px" font-style="normal" font-weight="normal" text-decoration="undefined" x="391.3828125" y="946" text-anchor="middle" dominant-baseline="central" transform="matrix(1 0 0 1 -26 -44)">IsBlockUser)</text></g></g><g><path fill="none" stroke="#000000" paint-order="fill stroke markers" d=" M 470 622 L 514 622" stroke-miterlimit="10" stroke-dasharray=""/></g><g><path fill="#000000" stroke="none" paint-order="stroke fill markers" d=" M 503.8373251423759 626.209517756016 L 514 622 L 503.8373251423758 617.790482243984"/></g><g><path fill="none" stroke="#000000" paint-order="fill stroke markers" d=" M 503.8373251423759 626.209517756016 L 514 622 L 503.8373251423758 617.790482243984 L 503.8373251423759 626.209517756016" stroke-miterlimit="10" stroke-dasharray=""/></g><g><rect fill="#ffffff" stroke="none" x="509" y="643" width="19.734375" height="16" transform="matrix(1 0 0 1 -26 -44)"/></g><g><g><path fill="none" stroke="none"/><text fill="#000000" stroke="none" font-family="Arial" font-size="16px" font-style="normal" font-weight="normal" text-decoration="undefined" x="518.8671875" y="651" text-anchor="middle" dominant-baseline="central" transform="matrix(1 0 0 1 -26 -44)">Да</text></g></g><g><path fill="none" stroke="#000000" paint-order="fill stroke markers" d=" M 365 626 L 365 766" stroke-miterlimit="10" stroke-dasharray=""/></g><g><path fill="#000000" stroke="none" paint-order="stroke fill markers" d=" M 360.790482243984 755.8373251423759 L 365 766 L 369.209517756016 755.8373251423759"/></g><g><path fill="none" stroke="#000000" paint-order="fill stroke markers" d=" M 360.790482243984 755.8373251423759 L 365 766 L 369.209517756016 755.8373251423759 L 360.790482243984 755.8373251423759" stroke-miterlimit="10" stroke-dasharray=""/></g><g><rect fill="#ffffff" stroke="none" x="392" y="731" width="27.25" height="16" transform="matrix(1 0 0 1 -26 -44)"/></g><g><g><path fill="none" stroke="none"/><text fill="#000000" stroke="none" font-family="Arial" font-size="16px" font-style="normal" font-weight="normal" text-decoration="undefined" x="405.625" y="739" text-anchor="middle" dominant-baseline="central" transform="matrix(1 0 0 1 -26 -44)">Нет</text></g></g><g><path fill="none" stroke="#000000" paint-order="fill stroke markers" d=" M 519 722 L 519 760 L 519 760 A 8 8 0 0 1 511 768 L 469 768" stroke-miterlimit="10" stroke-dasharray=""/></g><g><path fill="#000000" stroke="none" paint-order="stroke fill markers" d=" M 479.16267485762415 763.790482243984 L 469 768 L 479.16267485762415 772.209517756016"/></g><g><path fill="none" stroke="#000000" paint-order="fill stroke markers" d=" M 479.16267485762415 763.790482243984 L 469 768 L 479.16267485762415 772.209517756016 L 479.16267485762415 763.790482243984" stroke-miterlimit="10" stroke-dasharray=""/></g><g><rect fill="#ffffff" stroke="none" x="540" y="1044" width="131.6875" height="52" transform="matrix(1 0 0 1 -26 -44)"/></g><g><path fill="none" stroke="#000000" paint-order="fill stroke markers" d=" M 514 1000 L 645.6875 1000 L 645.6875 1052 L 514 1052 L 514 1000 Z Z" stroke-miterlimit="10" stroke-dasharray=""/></g><g><g><path fill="none" stroke="none"/><text fill="#000000" stroke="none" font-family="Arial" font-size="16px" font-style="normal" font-weight="normal" text-decoration="undefined" x="605.84375" y="1062" text-anchor="middle" dominant-baseline="central" transform="matrix(1 0 0 1 -26 -44)">Заблокировать</text><text fill="#000000" stroke="none" font-family="Arial" font-size="16px" font-style="normal" font-weight="normal" text-decoration="undefined" x="605.84375" y="1078" text-anchor="middle" dominant-baseline="central" transform="matrix(1 0 0 1 -26 -44)">пользователя</text></g></g><g><path fill="none" stroke="#000000" paint-order="fill stroke markers" d=" M 424 958 L 424 992 L 424 992 A 8 8 0 0 0 432 1000 L 514 1000" stroke-miterlimit="10" stroke-dasharray=""/></g><g><path fill="#000000" stroke="none" paint-order="stroke fill markers" d=" M 503.8373251423759 1004.2095177560159 L 514 1000 L 503.8373251423758 995.7904822439841"/></g><g><path fill="none" stroke="#000000" paint-order="fill stroke markers" d=" M 503.8373251423759 1004.2095177560159 L 514 1000 L 503.8373251423758 995.7904822439841 L 503.8373251423759 1004.2095177560159" stroke-miterlimit="10" stroke-dasharray=""/></g><g><rect fill="#ffffff" stroke="none" x="441" y="1021" width="19.734375" height="16" transform="matrix(1 0 0 1 -26 -44)"/></g><g><g><path fill="none" stroke="none"/><text fill="#000000" stroke="none" font-family="Arial" font-size="16px" font-style="normal" font-weight="normal" text-decoration="undefined" x="450.8671875" y="1029" text-anchor="middle" dominant-baseline="central" transform="matrix(1 0 0 1 -26 -44)">Да</text></g></g><g><path fill="#ffffff" stroke="none" paint-order="stroke fill markers" d=" M 263 1108 L 543.6640625 1108 L 488.6640625 1144 L 208 1144 L 263 1108"/></g><g><path fill="none" stroke="#000000" paint-order="fill stroke markers" d=" M 263 1108 L 543.6640625 1108 L 488.6640625 1144 L 208 1144 L 263 1108 L 263 1108" stroke-miterlimit="10" stroke-dasharray=""/></g><g><g><path fill="none" stroke="none"/><text fill="#000000" stroke="none" font-family="Arial" font-size="16px" font-style="normal" font-weight="normal" text-decoration="undefined" x="401.83203125" y="1170" text-anchor="middle" dominant-baseline="central" transform="matrix(1 0 0 1 -26 -44)">NoBodyResponse</text></g></g><g><path fill="none" stroke="#000000" paint-order="fill stroke markers" d=" M 526 1052 L 526 1108" stroke-miterlimit="10" stroke-dasharray=""/></g><g><path fill="#000000" stroke="none" paint-order="stroke fill markers" d=" M 521.790482243984 1097.837325142376 L 526 1108 L 530.209517756016 1097.837325142376"/></g><g><path fill="none" stroke="#000000" paint-order="fill stroke markers" d=" M 521.790482243984 1097.837325142376 L 526 1108 L 530.209517756016 1097.837325142376 L 521.790482243984 1097.837325142376" stroke-miterlimit="10" stroke-dasharray=""/></g><g><path fill="none" stroke="#000000" paint-order="fill stroke markers" d=" M 316 958 L 316 1108" stroke-miterlimit="10" stroke-dasharray=""/></g><g><path fill="#000000" stroke="none" paint-order="stroke fill markers" d=" M 311.790482243984 1097.837325142376 L 316 1108 L 320.209517756016 1097.837325142376"/></g><g><path fill="none" stroke="#000000" paint-order="fill stroke markers" d=" M 311.790482243984 1097.837325142376 L 316 1108 L 320.209517756016 1097.837325142376 L 311.790482243984 1097.837325142376" stroke-miterlimit="10" stroke-dasharray=""/></g><g><rect fill="#ffffff" stroke="none" x="343" y="1068" width="27.25" height="16" transform="matrix(1 0 0 1 -26 -44)"/></g><g><g><path fill="none" stroke="none"/><text fill="#000000" stroke="none" font-family="Arial" font-size="16px" font-style="normal" font-weight="normal" text-decoration="undefined" x="356.625" y="1076" text-anchor="middle" dominant-baseline="central" transform="matrix(1 0 0 1 -26 -44)">Нет</text></g></g><g><path fill="none" stroke="#000000" paint-order="fill stroke markers" d=" M 368 62 L 368 100" stroke-miterlimit="10" stroke-dasharray=""/></g><g><path fill="#000000" stroke="none" paint-order="stroke fill markers" d=" M 363.790482243984 89.83732514237585 L 368 100 L 372.209517756016 89.83732514237585"/></g><g><path fill="none" stroke="#000000" paint-order="fill stroke markers" d=" M 363.790482243984 89.83732514237585 L 368 100 L 372.209517756016 89.83732514237585 L 363.790482243984 89.83732514237585" stroke-miterlimit="10" stroke-dasharray=""/></g><g><path fill="none" stroke="#000000" paint-order="fill stroke markers" d=" M 633 78 L 633 92 L 633 92 A 8 8 0 0 1 625 100 L 514 100" stroke-miterlimit="10" stroke-dasharray=""/></g><g><path fill="#000000" stroke="none" paint-order="stroke fill markers" d=" M 524.1626748576241 95.790482243984 L 514 100 L 524.1626748576241 104.209517756016"/></g><g><path fill="none" stroke="#000000" paint-order="fill stroke markers" d=" M 524.1626748576241 95.790482243984 L 514 100 L 524.1626748576241 104.209517756016 L 524.1626748576241 95.790482243984" stroke-miterlimit="10" stroke-dasharray=""/></g><g><path fill="none" stroke="#000000" paint-order="fill stroke markers" d=" M 363 136 L 363 172" stroke-miterlimit="10" stroke-dasharray=""/></g><g><path fill="#000000" stroke="none" paint-order="stroke fill markers" d=" M 358.790482243984 161.83732514237585 L 363 172 L 367.209517756016 161.83732514237585"/></g><g><path fill="none" stroke="#000000" paint-order="fill stroke markers" d=" M 358.790482243984 161.83732514237585 L 363 172 L 367.209517756016 161.83732514237585 L 358.790482243984 161.83732514237585" stroke-miterlimit="10" stroke-dasharray=""/></g><g><path fill="none" stroke="#000000" paint-order="fill stroke markers" d=" M 370 240 L 370 280" stroke-miterlimit="10" stroke-dasharray=""/></g><g><path fill="#000000" stroke="none" paint-order="stroke fill markers" d=" M 365.790482243984 269.83732514237585 L 370 280 L 374.209517756016 269.83732514237585"/></g><g><path fill="none" stroke="#000000" paint-order="fill stroke markers" d=" M 365.790482243984 269.83732514237585 L 370 280 L 374.209517756016 269.83732514237585 L 365.790482243984 269.83732514237585" stroke-miterlimit="10" stroke-dasharray=""/></g><g><path fill="none" stroke="#000000" paint-order="fill stroke markers" d=" M 370 316 L 370 370" stroke-miterlimit="10" stroke-dasharray=""/></g><g><path fill="#000000" stroke="none" paint-order="stroke fill markers" d=" M 365.790482243984 359.83732514237585 L 370 370 L 374.209517756016 359.83732514237585"/></g><g><path fill="none" stroke="#000000" paint-order="fill stroke markers" d=" M 365.790482243984 359.83732514237585 L 370 370 L 374.209517756016 359.83732514237585 L 365.790482243984 359.83732514237585" stroke-miterlimit="10" stroke-dasharray=""/></g></g></svg>