<svg version="1.1" xmlns="http://www.w3.org/2000/svg" xmlns:xlink="http://www.w3.org/1999/xlink" width="739.484375" height="704"><defs/><g><g><rect fill="#ffffff" stroke="none" x="198" y="36" width="496" height="52" transform="matrix(1 0 0 1 -188 -26)"/></g><g><path fill="#ffffff" stroke="none" paint-order="stroke fill markers" d=" M 506 10 A 26 26 0 0 1 506 62"/></g><g><path fill="none" stroke="#000000" paint-order="fill stroke markers" d=" M 10 10 L 10 62" stroke-miterlimit="10" stroke-dasharray=""/></g><g><path fill="none" stroke="#000000" paint-order="fill stroke markers" d=" M 10 10 L 506 10" stroke-miterlimit="10" stroke-dasharray=""/></g><g><path fill="none" stroke="#000000" paint-order="fill stroke markers" d=" M 10 62 L 506 62" stroke-miterlimit="10" stroke-dasharray=""/></g><g><path fill="none" stroke="#000000" paint-order="fill stroke markers" d=" M 506 10 A 26 26 0 0 1 506 62" stroke-miterlimit="10" stroke-dasharray=""/></g><g><g><path fill="none" stroke="none"/><text fill="#000000" stroke="none" font-family="Arial" font-size="16px" font-style="normal" font-weight="normal" text-decoration="undefined" x="403.75" y="54" text-anchor="middle" dominant-baseline="central" transform="matrix(1 0 0 1 -188 -26)">POST</text><text fill="#000000" stroke="none" font-family="Arial" font-size="16px" font-style="normal" font-weight="normal" text-decoration="undefined" x="403.75" y="70" text-anchor="middle" dominant-baseline="central" transform="matrix(1 0 0 1 -188 -26)">/communities/{comunityId}/members/{accountId}/block</text></g></g><g><path fill="#ffffff" stroke="#000000" paint-order="fill stroke markers" d=" M 586 62 L 609 28 L 706.484375 28 Q 729.484375 28 729.484375 62 Q 729.484375 96 706.484375 96 L 609 96 L 586 62 Z" stroke-miterlimit="10" stroke-dasharray=""/></g><g><g><path fill="none" stroke="none"/><text fill="#000000" stroke="none" font-family="Arial" font-size="16px" font-style="normal" font-weight="normal" text-decoration="undefined" x="845.7421875" y="72" text-anchor="middle" dominant-baseline="central" transform="matrix(1 0 0 1 -188 -26)">Заголовки</text><text fill="#000000" stroke="none" font-family="Arial" font-size="16px" font-style="normal" font-weight="normal" text-decoration="undefined" x="845.7421875" y="88" text-anchor="middle" dominant-baseline="central" transform="matrix(1 0 0 1 -188 -26)">запроса</text><text fill="#000000" stroke="none" font-family="Arial" font-size="16px" font-style="normal" font-weight="normal" text-decoration="undefined" x="845.7421875" y="104" text-anchor="middle" dominant-baseline="central" transform="matrix(1 0 0 1 -188 -26)">(Авторизирован)</text></g></g><g><path fill="#ffffff" stroke="none" paint-order="stroke fill markers" d=" M 46 226 L 478 226 Q 496 226 496 244 L 496 244 Q 496 262 478 262 L 46 262 Q 28 262 28 244 L 28 244 Q 28 226 46 226 Z"/></g><g><path fill="none" stroke="#000000" paint-order="fill stroke markers" d=" M 46 226 L 478 226 Q 496 226 496 244 L 496 244 Q 496 262 478 262 L 46 262 Q 28 262 28 244 L 28 244 Q 28 226 46 226 Z" stroke-miterlimit="10" stroke-dasharray=""/></g><g><g><path fill="none" stroke="none"/><text fill="#000000" stroke="none" font-family="Arial" font-size="16px" font-style="normal" font-weight="normal" text-decoration="undefined" x="450" y="270" text-anchor="middle" dominant-baseline="central" transform="matrix(1 0 0 1 -188 -26)">Роль пользователя в сообществе "Админ"</text></g></g><g><path fill="#ffffff" stroke="none" paint-order="stroke fill markers" d=" M 124 136 L 424 136 L 364 172 L 64 172 L 124 136"/></g><g><path fill="none" stroke="#000000" paint-order="fill stroke markers" d=" M 124 136 L 424 136 L 364 172 L 64 172 L 124 136 L 124 136" stroke-miterlimit="10" stroke-dasharray=""/></g><g><g><path fill="none" stroke="none"/><text fill="#000000" stroke="none" font-family="Arial" font-size="16px" font-style="normal" font-weight="normal" text-decoration="undefined" x="432" y="180" text-anchor="middle" dominant-baseline="central" transform="matrix(1 0 0 1 -188 -26)">PostComunitiesMembersBlockRequest</text></g></g><g><path fill="#ffffff" stroke="none" paint-order="stroke fill markers" d=" M 190 348 L 260.2578125 316 L 330.515625 348 L 260.2578125 380 L 190 348"/></g><g><path fill="none" stroke="#000000" paint-order="fill stroke markers" d=" M 190 348 L 260.2578125 316 L 330.515625 348 L 260.2578125 380 L 190 348 L 190 348" stroke-miterlimit="10" stroke-dasharray=""/></g><g><g><path fill="none" stroke="none"/><text fill="#000000" stroke="none" font-family="Arial" font-size="16px" font-style="normal" font-weight="normal" text-decoration="undefined" x="448.2578125" y="366" text-anchor="middle" dominant-baseline="central" transform="matrix(1 0 0 1 -188 -26)">If IsBlock</text><text fill="#000000" stroke="none" font-family="Arial" font-size="16px" font-style="normal" font-weight="normal" text-decoration="undefined" x="448.2578125" y="382" text-anchor="middle" dominant-baseline="central" transform="matrix(1 0 0 1 -188 -26)">is true </text></g></g><g><rect fill="#ffffff" stroke="none" x="612" y="414" width="144" height="52" transform="matrix(1 0 0 1 -188 -26)"/></g><g><path fill="none" stroke="#000000" paint-order="fill stroke markers" d=" M 424 388 L 568 388 L 568 440 L 424 440 L 424 388 Z Z" stroke-miterlimit="10" stroke-dasharray=""/></g><g><g><path fill="none" stroke="none"/><text fill="#000000" stroke="none" font-family="Arial" font-size="16px" font-style="normal" font-weight="normal" text-decoration="undefined" x="684" y="432" text-anchor="middle" dominant-baseline="central" transform="matrix(1 0 0 1 -188 -26)">Исключить из</text><text fill="#000000" stroke="none" font-family="Arial" font-size="16px" font-style="normal" font-weight="normal" text-decoration="undefined" x="684" y="448" text-anchor="middle" dominant-baseline="central" transform="matrix(1 0 0 1 -188 -26)">сообщества</text></g></g><g><rect fill="#ffffff" stroke="none" x="360" y="540" width="216" height="84" transform="matrix(1 0 0 1 -188 -26)"/></g><g><path fill="none" stroke="#000000" paint-order="fill stroke markers" d=" M 172 514 L 388 514 L 388 598 L 172 598 L 172 514 Z Z" stroke-miterlimit="10" stroke-dasharray=""/></g><g><g><path fill="none" stroke="none"/><text fill="#000000" stroke="none" font-family="Arial" font-size="16px" font-style="normal" font-weight="normal" text-decoration="undefined" x="468" y="558" text-anchor="middle" dominant-baseline="central" transform="matrix(1 0 0 1 -188 -26)">Поменять статус</text><text fill="#000000" stroke="none" font-family="Arial" font-size="16px" font-style="normal" font-weight="normal" text-decoration="undefined" x="468" y="574" text-anchor="middle" dominant-baseline="central" transform="matrix(1 0 0 1 -188 -26)">блокировки у</text><text fill="#000000" stroke="none" font-family="Arial" font-size="16px" font-style="normal" font-weight="normal" text-decoration="undefined" x="468" y="590" text-anchor="middle" dominant-baseline="central" transform="matrix(1 0 0 1 -188 -26)">пользователя для</text><text fill="#000000" stroke="none" font-family="Arial" font-size="16px" font-style="normal" font-weight="normal" text-decoration="undefined" x="468" y="606" text-anchor="middle" dominant-baseline="central" transform="matrix(1 0 0 1 -188 -26)">выбраного сообщества</text></g></g><g><path fill="#ffffff" stroke="none" paint-order="stroke fill markers" d=" M 208 658 L 388 658 L 352 694 L 172 694 L 208 658"/></g><g><path fill="none" stroke="#000000" paint-order="fill stroke markers" d=" M 208 658 L 388 658 L 352 694 L 172 694 L 208 658 L 208 658" stroke-miterlimit="10" stroke-dasharray=""/></g><g><g><path fill="none" stroke="none"/><text fill="#000000" stroke="none" font-family="Arial" font-size="16px" font-style="normal" font-weight="normal" text-decoration="undefined" x="468" y="702" text-anchor="middle" dominant-baseline="central" transform="matrix(1 0 0 1 -188 -26)">NoBodyResponse</text></g></g><g><path fill="none" stroke="#000000" paint-order="fill stroke markers" d=" M 264 62 L 264 136" stroke-miterlimit="10" stroke-dasharray=""/></g><g><path fill="#000000" stroke="none" paint-order="stroke fill markers" d=" M 259.790482243984 125.83732514237585 L 264 136 L 268.209517756016 125.83732514237585"/></g><g><path fill="none" stroke="#000000" paint-order="fill stroke markers" d=" M 259.790482243984 125.83732514237585 L 264 136 L 268.209517756016 125.83732514237585 L 259.790482243984 125.83732514237585" stroke-miterlimit="10" stroke-dasharray=""/></g><g><path fill="none" stroke="#000000" paint-order="fill stroke markers" d=" M 586 96 L 586 128 L 586 128 A 8 8 0 0 1 578 136 L 424 136" stroke-miterlimit="10" stroke-dasharray=""/></g><g><path fill="#000000" stroke="none" paint-order="stroke fill markers" d=" M 434.1626748576241 131.790482243984 L 424 136 L 434.1626748576241 140.209517756016"/></g><g><path fill="none" stroke="#000000" paint-order="fill stroke markers" d=" M 434.1626748576241 131.790482243984 L 424 136 L 434.1626748576241 140.209517756016 L 434.1626748576241 131.790482243984" stroke-miterlimit="10" stroke-dasharray=""/></g><g><path fill="none" stroke="#000000" paint-order="fill stroke markers" d=" M 248 172 L 248 226" stroke-miterlimit="10" stroke-dasharray=""/></g><g><path fill="#000000" stroke="none" paint-order="stroke fill markers" d=" M 243.790482243984 215.83732514237585 L 248 226 L 252.209517756016 215.83732514237585"/></g><g><path fill="none" stroke="#000000" paint-order="fill stroke markers" d=" M 243.790482243984 215.83732514237585 L 248 226 L 252.209517756016 215.83732514237585 L 243.790482243984 215.83732514237585" stroke-miterlimit="10" stroke-dasharray=""/></g><g><path fill="none" stroke="#000000" paint-order="fill stroke markers" d=" M 262 262 L 262 316" stroke-miterlimit="10" stroke-dasharray=""/></g><g><path fill="#000000" stroke="none" paint-order="stroke fill markers" d=" M 257.790482243984 305.83732514237585 L 262 316 L 266.209517756016 305.83732514237585"/></g><g><path fill="none" stroke="#000000" paint-order="fill stroke markers" d=" M 257.790482243984 305.83732514237585 L 262 316 L 266.209517756016 305.83732514237585 L 257.790482243984 305.83732514237585" stroke-miterlimit="10" stroke-dasharray=""/></g><g><path fill="none" stroke="#000000" paint-order="fill stroke markers" d=" M 260 380 L 260 386 L 260 386 A 8 8 0 0 0 268 394 L 424 394" stroke-miterlimit="10" stroke-dasharray=""/></g><g><path fill="#000000" stroke="none" paint-order="stroke fill markers" d=" M 413.8373251423759 398.209517756016 L 424 394 L 413.8373251423758 389.790482243984"/></g><g><path fill="none" stroke="#000000" paint-order="fill stroke markers" d=" M 413.8373251423759 398.209517756016 L 424 394 L 413.8373251423758 389.790482243984 L 413.8373251423759 398.209517756016" stroke-miterlimit="10" stroke-dasharray=""/></g><g><rect fill="#ffffff" stroke="none" x="439" y="397" width="19.734375" height="16" transform="matrix(1 0 0 1 -188 -26)"/></g><g><g><path fill="none" stroke="none"/><text fill="#000000" stroke="none" font-family="Arial" font-size="16px" font-style="normal" font-weight="normal" text-decoration="undefined" x="448.8671875" y="405" text-anchor="middle" dominant-baseline="central" transform="matrix(1 0 0 1 -188 -26)">Да</text></g></g><g><path fill="none" stroke="#000000" paint-order="fill stroke markers" d=" M 226 380 L 226 514" stroke-miterlimit="10" stroke-dasharray=""/></g><g><path fill="#000000" stroke="none" paint-order="stroke fill markers" d=" M 221.790482243984 503.8373251423759 L 226 514 L 230.209517756016 503.8373251423759"/></g><g><path fill="none" stroke="#000000" paint-order="fill stroke markers" d=" M 221.790482243984 503.8373251423759 L 226 514 L 230.209517756016 503.8373251423759 L 221.790482243984 503.8373251423759" stroke-miterlimit="10" stroke-dasharray=""/></g><g><rect fill="#ffffff" stroke="none" x="415" y="464" width="27.25" height="16" transform="matrix(1 0 0 1 -188 -26)"/></g><g><g><path fill="none" stroke="none"/><text fill="#000000" stroke="none" font-family="Arial" font-size="16px" font-style="normal" font-weight="normal" text-decoration="undefined" x="428.625" y="472" text-anchor="middle" dominant-baseline="central" transform="matrix(1 0 0 1 -188 -26)">Нет</text></g></g><g><path fill="none" stroke="#000000" paint-order="fill stroke markers" d=" M 456 440 L 456 506 L 456 506 A 8 8 0 0 1 448 514 L 388 514" stroke-miterlimit="10" stroke-dasharray=""/></g><g><path fill="#000000" stroke="none" paint-order="stroke fill markers" d=" M 398.1626748576241 509.790482243984 L 388 514 L 398.1626748576241 518.209517756016"/></g><g><path fill="none" stroke="#000000" paint-order="fill stroke markers" d=" M 398.1626748576241 509.790482243984 L 388 514 L 398.1626748576241 518.209517756016 L 398.1626748576241 509.790482243984" stroke-miterlimit="10" stroke-dasharray=""/></g><g><path fill="none" stroke="#000000" paint-order="fill stroke markers" d=" M 280 598 L 280 658" stroke-miterlimit="10" stroke-dasharray=""/></g><g><path fill="#000000" stroke="none" paint-order="stroke fill markers" d=" M 275.790482243984 647.8373251423759 L 280 658 L 284.209517756016 647.8373251423759"/></g><g><path fill="none" stroke="#000000" paint-order="fill stroke markers" d=" M 275.790482243984 647.8373251423759 L 280 658 L 284.209517756016 647.8373251423759 L 275.790482243984 647.8373251423759" stroke-miterlimit="10" stroke-dasharray=""/></g></g></svg>