<svg version="1.1" xmlns="http://www.w3.org/2000/svg" xmlns:xlink="http://www.w3.org/1999/xlink" width="739.484375" height="434"><defs/><g><g><rect fill="#ffffff" stroke="none" x="198" y="72" width="468" height="36" transform="matrix(1 0 0 1 -152 -62)"/></g><g><path fill="#ffffff" stroke="none" paint-order="stroke fill markers" d=" M 514 10 A 18 18 0 0 1 514 46"/></g><g><path fill="none" stroke="#000000" paint-order="fill stroke markers" d=" M 46 10 L 46 46" stroke-miterlimit="10" stroke-dasharray=""/></g><g><path fill="none" stroke="#000000" paint-order="fill stroke markers" d=" M 46 10 L 514 10" stroke-miterlimit="10" stroke-dasharray=""/></g><g><path fill="none" stroke="#000000" paint-order="fill stroke markers" d=" M 46 46 L 514 46" stroke-miterlimit="10" stroke-dasharray=""/></g><g><path fill="none" stroke="#000000" paint-order="fill stroke markers" d=" M 514 10 A 18 18 0 0 1 514 46" stroke-miterlimit="10" stroke-dasharray=""/></g><g><g><path fill="none" stroke="none"/><text fill="#000000" stroke="none" font-family="Arial" font-size="16px" font-style="normal" font-weight="normal" text-decoration="undefined" x="390.25" y="90" text-anchor="middle" dominant-baseline="central" transform="matrix(1 0 0 1 -152 -62)">POST /uploader</text></g></g><g><path fill="#ffffff" stroke="#000000" paint-order="fill stroke markers" d=" M 586 44 L 609 10 L 706.484375 10 Q 729.484375 10 729.484375 44 Q 729.484375 78 706.484375 78 L 609 78 L 586 44 Z" stroke-miterlimit="10" stroke-dasharray=""/></g><g><g><path fill="none" stroke="none"/><text fill="#000000" stroke="none" font-family="Arial" font-size="16px" font-style="normal" font-weight="normal" text-decoration="undefined" x="809.7421875" y="90" text-anchor="middle" dominant-baseline="central" transform="matrix(1 0 0 1 -152 -62)">Заголовки</text><text fill="#000000" stroke="none" font-family="Arial" font-size="16px" font-style="normal" font-weight="normal" text-decoration="undefined" x="809.7421875" y="106" text-anchor="middle" dominant-baseline="central" transform="matrix(1 0 0 1 -152 -62)">запроса</text><text fill="#000000" stroke="none" font-family="Arial" font-size="16px" font-style="normal" font-weight="normal" text-decoration="undefined" x="809.7421875" y="122" text-anchor="middle" dominant-baseline="central" transform="matrix(1 0 0 1 -152 -62)">(Авторизирован)</text></g></g><g><path fill="#ffffff" stroke="none" paint-order="stroke fill markers" d=" M 109 118 L 514 118 L 433 154 L 28 154 L 109 118"/></g><g><path fill="none" stroke="#000000" paint-order="fill stroke markers" d=" M 109 118 L 514 118 L 433 154 L 28 154 L 109 118 L 109 118" stroke-miterlimit="10" stroke-dasharray=""/></g><g><g><path fill="none" stroke="none"/><text fill="#000000" stroke="none" font-family="Arial" font-size="16px" font-style="normal" font-weight="normal" text-decoration="undefined" x="423" y="198" text-anchor="middle" dominant-baseline="central" transform="matrix(1 0 0 1 -152 -62)">PostUploaderRequest</text></g></g><g><path fill="#ffffff" stroke="none" paint-order="stroke fill markers" d=" M 97 388 L 532 388 L 445 424 L 10 424 L 97 388"/></g><g><path fill="none" stroke="#000000" paint-order="fill stroke markers" d=" M 97 388 L 532 388 L 445 424 L 10 424 L 97 388 L 97 388" stroke-miterlimit="10" stroke-dasharray=""/></g><g><g><path fill="none" stroke="none"/><text fill="#000000" stroke="none" font-family="Arial" font-size="16px" font-style="normal" font-weight="normal" text-decoration="undefined" x="423" y="468" text-anchor="middle" dominant-baseline="central" transform="matrix(1 0 0 1 -152 -62)">PostUploaderResponse</text></g></g><g><path fill="#ffffff" stroke="none" paint-order="stroke fill markers" d=" M 73 190 L 487 190 Q 514 190 514 217 L 514 217 Q 514 244 487 244 L 73 244 Q 46 244 46 217 L 46 217 Q 46 190 73 190 Z"/></g><g><path fill="none" stroke="#000000" paint-order="fill stroke markers" d=" M 73 190 L 487 190 Q 514 190 514 217 L 514 217 Q 514 244 487 244 L 73 244 Q 46 244 46 217 L 46 217 Q 46 190 73 190 Z" stroke-miterlimit="10" stroke-dasharray=""/></g><g><g><path fill="none" stroke="none"/><text fill="#000000" stroke="none" font-family="Arial" font-size="16px" font-style="normal" font-weight="normal" text-decoration="undefined" x="432" y="270" text-anchor="middle" dominant-baseline="central" transform="matrix(1 0 0 1 -152 -62)">Размер файла меньше 50 мб</text></g></g><g><rect fill="#ffffff" stroke="none" x="198" y="342" width="486" height="36" transform="matrix(1 0 0 1 -152 -62)"/></g><g><path fill="none" stroke="#000000" paint-order="fill stroke markers" d=" M 46 280 L 532 280 L 532 316 L 46 316 L 46 280 Z Z" stroke-miterlimit="10" stroke-dasharray=""/></g><g><g><path fill="none" stroke="none"/><text fill="#000000" stroke="none" font-family="Arial" font-size="16px" font-style="normal" font-weight="normal" text-decoration="undefined" x="441" y="360" text-anchor="middle" dominant-baseline="central" transform="matrix(1 0 0 1 -152 -62)">Сохранить файл в блоб</text></g></g><g><path fill="none" stroke="#000000" paint-order="fill stroke markers" d=" M 586 78 L 586 128 L 586 128 A 8 8 0 0 1 578 136 L 514 136" stroke-miterlimit="10" stroke-dasharray=""/></g><g><path fill="#000000" stroke="none" paint-order="stroke fill markers" d=" M 524.1626748576241 131.790482243984 L 514 136 L 524.1626748576241 140.209517756016"/></g><g><path fill="none" stroke="#000000" paint-order="fill stroke markers" d=" M 524.1626748576241 131.790482243984 L 514 136 L 524.1626748576241 140.209517756016 L 524.1626748576241 131.790482243984" stroke-miterlimit="10" stroke-dasharray=""/></g><g><path fill="none" stroke="#000000" paint-order="fill stroke markers" d=" M 286 46 L 286 118" stroke-miterlimit="10" stroke-dasharray=""/></g><g><path fill="#000000" stroke="none" paint-order="stroke fill markers" d=" M 281.790482243984 107.83732514237585 L 286 118 L 290.209517756016 107.83732514237585"/></g><g><path fill="none" stroke="#000000" paint-order="fill stroke markers" d=" M 281.790482243984 107.83732514237585 L 286 118 L 290.209517756016 107.83732514237585 L 281.790482243984 107.83732514237585" stroke-miterlimit="10" stroke-dasharray=""/></g><g><path fill="none" stroke="#000000" paint-order="fill stroke markers" d=" M 270 154 L 270 190" stroke-miterlimit="10" stroke-dasharray=""/></g><g><path fill="#000000" stroke="none" paint-order="stroke fill markers" d=" M 265.790482243984 179.83732514237585 L 270 190 L 274.209517756016 179.83732514237585"/></g><g><path fill="none" stroke="#000000" paint-order="fill stroke markers" d=" M 265.790482243984 179.83732514237585 L 270 190 L 274.209517756016 179.83732514237585 L 265.790482243984 179.83732514237585" stroke-miterlimit="10" stroke-dasharray=""/></g><g><path fill="none" stroke="#000000" paint-order="fill stroke markers" d=" M 286 316 L 286 388" stroke-miterlimit="10" stroke-dasharray=""/></g><g><path fill="#000000" stroke="none" paint-order="stroke fill markers" d=" M 281.790482243984 377.83732514237585 L 286 388 L 290.209517756016 377.83732514237585"/></g><g><path fill="none" stroke="#000000" paint-order="fill stroke markers" d=" M 281.790482243984 377.83732514237585 L 286 388 L 290.209517756016 377.83732514237585 L 281.790482243984 377.83732514237585" stroke-miterlimit="10" stroke-dasharray=""/></g><g><path fill="none" stroke="#000000" paint-order="fill stroke markers" d=" M 279 244 L 279 280" stroke-miterlimit="10" stroke-dasharray=""/></g><g><path fill="#000000" stroke="none" paint-order="stroke fill markers" d=" M 274.790482243984 269.83732514237585 L 279 280 L 283.209517756016 269.83732514237585"/></g><g><path fill="none" stroke="#000000" paint-order="fill stroke markers" d=" M 274.790482243984 269.83732514237585 L 279 280 L 283.209517756016 269.83732514237585 L 274.790482243984 269.83732514237585" stroke-miterlimit="10" stroke-dasharray=""/></g></g></svg>