<svg version="1.1" xmlns="http://www.w3.org/2000/svg" xmlns:xlink="http://www.w3.org/1999/xlink" width="739.484375" height="578"><defs/><g><g><rect fill="#ffffff" stroke="none" x="252" y="72" width="468" height="36" transform="matrix(1 0 0 1 -224 -44)"/></g><g><path fill="#ffffff" stroke="none" paint-order="stroke fill markers" d=" M 496 28 A 18 18 0 0 1 496 64"/></g><g><path fill="none" stroke="#000000" paint-order="fill stroke markers" d=" M 28 28 L 28 64" stroke-miterlimit="10" stroke-dasharray=""/></g><g><path fill="none" stroke="#000000" paint-order="fill stroke markers" d=" M 28 28 L 496 28" stroke-miterlimit="10" stroke-dasharray=""/></g><g><path fill="none" stroke="#000000" paint-order="fill stroke markers" d=" M 28 64 L 496 64" stroke-miterlimit="10" stroke-dasharray=""/></g><g><path fill="none" stroke="#000000" paint-order="fill stroke markers" d=" M 496 28 A 18 18 0 0 1 496 64" stroke-miterlimit="10" stroke-dasharray=""/></g><g><g><path fill="none" stroke="none"/><text fill="#000000" stroke="none" font-family="Arial" font-size="16px" font-style="normal" font-weight="normal" text-decoration="undefined" x="444.25" y="90" text-anchor="middle" dominant-baseline="central" transform="matrix(1 0 0 1 -224 -44)">POST /challenges/{challengeId}/leave</text></g></g><g><path fill="#ffffff" stroke="#000000" paint-order="fill stroke markers" d=" M 586 44 L 609 10 L 706.484375 10 Q 729.484375 10 729.484375 44 Q 729.484375 78 706.484375 78 L 609 78 L 586 44 Z" stroke-miterlimit="10" stroke-dasharray=""/></g><g><g><path fill="none" stroke="none"/><text fill="#000000" stroke="none" font-family="Arial" font-size="16px" font-style="normal" font-weight="normal" text-decoration="undefined" x="881.7421875" y="72" text-anchor="middle" dominant-baseline="central" transform="matrix(1 0 0 1 -224 -44)">Заголовки</text><text fill="#000000" stroke="none" font-family="Arial" font-size="16px" font-style="normal" font-weight="normal" text-decoration="undefined" x="881.7421875" y="88" text-anchor="middle" dominant-baseline="central" transform="matrix(1 0 0 1 -224 -44)">запроса</text><text fill="#000000" stroke="none" font-family="Arial" font-size="16px" font-style="normal" font-weight="normal" text-decoration="undefined" x="881.7421875" y="104" text-anchor="middle" dominant-baseline="central" transform="matrix(1 0 0 1 -224 -44)">(Авторизирован)</text></g></g><g><path fill="#ffffff" stroke="none" paint-order="stroke fill markers" d=" M 106 136 L 496 136 L 418 172 L 28 172 L 106 136"/></g><g><path fill="none" stroke="#000000" paint-order="fill stroke markers" d=" M 106 136 L 496 136 L 418 172 L 28 172 L 106 136 L 106 136" stroke-miterlimit="10" stroke-dasharray=""/></g><g><g><path fill="none" stroke="none"/><text fill="#000000" stroke="none" font-family="Arial" font-size="16px" font-style="normal" font-weight="normal" text-decoration="undefined" x="486" y="198" text-anchor="middle" dominant-baseline="central" transform="matrix(1 0 0 1 -224 -44)">PostChallengesLeaveRequest</text></g></g><g><path fill="#ffffff" stroke="none" paint-order="stroke fill markers" d=" M 118 244 L 407.6796875 244 Q 425.6796875 244 425.6796875 262 L 425.6796875 262 Q 425.6796875 280 407.6796875 280 L 118 280 Q 100 280 100 262 L 100 262 Q 100 244 118 244 Z"/></g><g><path fill="none" stroke="#000000" paint-order="fill stroke markers" d=" M 118 244 L 407.6796875 244 Q 425.6796875 244 425.6796875 262 L 425.6796875 262 Q 425.6796875 280 407.6796875 280 L 118 280 Q 100 280 100 262 L 100 262 Q 100 244 118 244 Z" stroke-miterlimit="10" stroke-dasharray=""/></g><g><g><path fill="none" stroke="none"/><text fill="#000000" stroke="none" font-family="Arial" font-size="16px" font-style="normal" font-weight="normal" text-decoration="undefined" x="486.83984375" y="306" text-anchor="middle" dominant-baseline="central" transform="matrix(1 0 0 1 -224 -44)">Аккаунт является участником челленджа</text></g></g><g><rect fill="#ffffff" stroke="none" x="324" y="378" width="324" height="36" transform="matrix(1 0 0 1 -224 -44)"/></g><g><path fill="none" stroke="#000000" paint-order="fill stroke markers" d=" M 100 334 L 424 334 L 424 370 L 100 370 L 100 334 Z Z" stroke-miterlimit="10" stroke-dasharray=""/></g><g><g><path fill="none" stroke="none"/><text fill="#000000" stroke="none" font-family="Arial" font-size="16px" font-style="normal" font-weight="normal" text-decoration="undefined" x="486" y="396" text-anchor="middle" dominant-baseline="central" transform="matrix(1 0 0 1 -224 -44)">Удалить пользователя из челленджа</text></g></g><g><path fill="#ffffff" stroke="none" paint-order="stroke fill markers" d=" M 100 450 L 157 424 L 385 424 L 442 450 L 385 476 L 157 476 L 100 450"/></g><g><path fill="none" stroke="#000000" paint-order="fill stroke markers" d=" M 100 450 L 157 424 L 385 424 L 442 450 L 385 476 L 157 476 L 100 450 L 100 450" stroke-miterlimit="10" stroke-dasharray=""/></g><g><g><path fill="none" stroke="none"/><text fill="#000000" stroke="none" font-family="Arial" font-size="16px" font-style="normal" font-weight="normal" text-decoration="undefined" x="495" y="486" text-anchor="middle" dominant-baseline="central" transform="matrix(1 0 0 1 -224 -44)">Пользователь покинул</text><text fill="#000000" stroke="none" font-family="Arial" font-size="16px" font-style="normal" font-weight="normal" text-decoration="undefined" x="495" y="502" text-anchor="middle" dominant-baseline="central" transform="matrix(1 0 0 1 -224 -44)">челлендж</text></g></g><g><path fill="#ffffff" stroke="none" paint-order="stroke fill markers" d=" M 91 532 L 496 532 L 415 568 L 10 568 L 91 532"/></g><g><path fill="none" stroke="#000000" paint-order="fill stroke markers" d=" M 91 532 L 496 532 L 415 568 L 10 568 L 91 532 L 91 532" stroke-miterlimit="10" stroke-dasharray=""/></g><g><g><path fill="none" stroke="none"/><text fill="#000000" stroke="none" font-family="Arial" font-size="16px" font-style="normal" font-weight="normal" text-decoration="undefined" x="477" y="594" text-anchor="middle" dominant-baseline="central" transform="matrix(1 0 0 1 -224 -44)">NoBodyResponse</text></g></g><g><path fill="none" stroke="#000000" paint-order="fill stroke markers" d=" M 270 64 L 270 136" stroke-miterlimit="10" stroke-dasharray=""/></g><g><path fill="#000000" stroke="none" paint-order="stroke fill markers" d=" M 265.790482243984 125.83732514237585 L 270 136 L 274.209517756016 125.83732514237585"/></g><g><path fill="none" stroke="#000000" paint-order="fill stroke markers" d=" M 265.790482243984 125.83732514237585 L 270 136 L 274.209517756016 125.83732514237585 L 265.790482243984 125.83732514237585" stroke-miterlimit="10" stroke-dasharray=""/></g><g><path fill="none" stroke="#000000" paint-order="fill stroke markers" d=" M 586 78 L 586 128 L 586 128 A 8 8 0 0 1 578 136 L 496 136" stroke-miterlimit="10" stroke-dasharray=""/></g><g><path fill="#000000" stroke="none" paint-order="stroke fill markers" d=" M 506.1626748576241 131.790482243984 L 496 136 L 506.1626748576241 140.209517756016"/></g><g><path fill="none" stroke="#000000" paint-order="fill stroke markers" d=" M 506.1626748576241 131.790482243984 L 496 136 L 506.1626748576241 140.209517756016 L 506.1626748576241 131.790482243984" stroke-miterlimit="10" stroke-dasharray=""/></g><g><path fill="none" stroke="#000000" paint-order="fill stroke markers" d=" M 262 172 L 262 244" stroke-miterlimit="10" stroke-dasharray=""/></g><g><path fill="#000000" stroke="none" paint-order="stroke fill markers" d=" M 257.790482243984 233.83732514237585 L 262 244 L 266.209517756016 233.83732514237585"/></g><g><path fill="none" stroke="#000000" paint-order="fill stroke markers" d=" M 257.790482243984 233.83732514237585 L 262 244 L 266.209517756016 233.83732514237585 L 257.790482243984 233.83732514237585" stroke-miterlimit="10" stroke-dasharray=""/></g><g><path fill="none" stroke="#000000" paint-order="fill stroke markers" d=" M 262 280 L 262 334" stroke-miterlimit="10" stroke-dasharray=""/></g><g><path fill="#000000" stroke="none" paint-order="stroke fill markers" d=" M 257.790482243984 323.83732514237585 L 262 334 L 266.209517756016 323.83732514237585"/></g><g><path fill="none" stroke="#000000" paint-order="fill stroke markers" d=" M 257.790482243984 323.83732514237585 L 262 334 L 266.209517756016 323.83732514237585 L 257.790482243984 323.83732514237585" stroke-miterlimit="10" stroke-dasharray=""/></g><g><path fill="none" stroke="#000000" paint-order="fill stroke markers" d=" M 264 370 L 264 424" stroke-miterlimit="10" stroke-dasharray=""/></g><g><path fill="#000000" stroke="none" paint-order="stroke fill markers" d=" M 259.790482243984 413.83732514237585 L 264 424 L 268.209517756016 413.83732514237585"/></g><g><path fill="none" stroke="#000000" paint-order="fill stroke markers" d=" M 259.790482243984 413.83732514237585 L 264 424 L 268.209517756016 413.83732514237585 L 259.790482243984 413.83732514237585" stroke-miterlimit="10" stroke-dasharray=""/></g><g><path fill="none" stroke="#000000" paint-order="fill stroke markers" d=" M 266 476 L 266 532" stroke-miterlimit="10" stroke-dasharray=""/></g><g><path fill="#000000" stroke="none" paint-order="stroke fill markers" d=" M 261.790482243984 521.8373251423759 L 266 532 L 270.209517756016 521.8373251423759"/></g><g><path fill="none" stroke="#000000" paint-order="fill stroke markers" d=" M 261.790482243984 521.8373251423759 L 266 532 L 270.209517756016 521.8373251423759 L 261.790482243984 521.8373251423759" stroke-miterlimit="10" stroke-dasharray=""/></g></g></svg>