<svg version="1.1" xmlns="http://www.w3.org/2000/svg" xmlns:xlink="http://www.w3.org/1999/xlink" width="2720" height="988.71875"><defs/><g><g><path fill="none" stroke="#000000" paint-order="fill stroke markers" d=" M 10 46 L 2710 46 L 2710 550 L 10 550 L 10 46 Z Z" stroke-miterlimit="10" stroke-dasharray=""/></g><g><path fill="none" stroke="#000000" paint-order="fill stroke markers" d=" M 36 46 L 36 550" stroke-miterlimit="10" stroke-dasharray=""/></g><g><g><path fill="none" stroke="none"/><text fill="#000000" stroke="none" font-family="Arial" font-size="16px" font-style="normal" font-weight="normal" text-decoration="undefined" x="0" y="0" text-anchor="middle" dominant-baseline="text-before-edge" transform="matrix(6.123233995736766e-17 -1 1 6.123233995736766e-17 15 298)">Создатель сообщества</text></g></g><g><path fill="none" stroke="#000000" paint-order="fill stroke markers" d=" M 10 622 L 2710 622 L 2710 766 L 10 766 L 10 622 Z Z" stroke-miterlimit="10" stroke-dasharray=""/></g><g><path fill="none" stroke="#000000" paint-order="fill stroke markers" d=" M 36 622 L 36 766" stroke-miterlimit="10" stroke-dasharray=""/></g><g><g><path fill="none" stroke="none"/><text fill="#000000" stroke="none" font-family="Arial" font-size="16px" font-style="normal" font-weight="normal" text-decoration="undefined" x="0" y="0" text-anchor="middle" dominant-baseline="text-before-edge" transform="matrix(6.123233995736766e-17 -1 1 6.123233995736766e-17 15 694)">Api</text></g></g><g><path fill="none" stroke="#000000" paint-order="fill stroke markers" d=" M 10 838 L 2710 838 L 2710 978.71875 L 10 978.71875 L 10 838 Z Z" stroke-miterlimit="10" stroke-dasharray=""/></g><g><path fill="none" stroke="#000000" paint-order="fill stroke markers" d=" M 36 838 L 36 978.71875" stroke-miterlimit="10" stroke-dasharray=""/></g><g><g><path fill="none" stroke="none"/><text fill="#000000" stroke="none" font-family="Arial" font-size="16px" font-style="normal" font-weight="normal" text-decoration="undefined" x="0" y="0" text-anchor="middle" dominant-baseline="text-before-edge" transform="matrix(6.123233995736766e-17 -1 1 6.123233995736766e-17 15 908.359375)">База данных</text></g></g><g><path fill="#C0C0C0" stroke="none" paint-order="stroke fill markers" d=" M 161 303 C 161 294.1634432 168.1634432 287 177 287 C 185.8365568 287 193 294.1634432 193 303 C 193 311.8365568 185.8365568 319 177 319 C 168.1634432 319 161 311.8365568 161 303 Z" fill-opacity="0.2"/></g><g><path fill="#ffffff" stroke="none" paint-order="stroke fill markers" d=" M 154 296 C 154 287.1634432 161.1634432 280 170 280 C 178.8365568 280 186 287.1634432 186 296 C 186 304.8365568 178.8365568 312 170 312 C 161.1634432 312 154 304.8365568 154 296 Z"/></g><g><path fill="none" stroke="#000000" paint-order="fill stroke markers" d=" M 154 296 C 154 287.1634432 161.1634432 280 170 280 C 178.8365568 280 186 287.1634432 186 296 C 186 304.8365568 178.8365568 312 170 312 C 161.1634432 312 154 304.8365568 154 296 Z" stroke-miterlimit="10" stroke-dasharray=""/></g><g><rect fill="#ffffff" stroke="none" x="142.8125" y="350" width="178.375" height="16" transform="matrix(1 0 0 1 -62 -26)"/></g><g><g><path fill="none" stroke="none"/><text fill="#000000" stroke="none" font-family="Arial" font-size="16px" font-style="normal" font-weight="normal" text-decoration="undefined" x="232" y="358" text-anchor="middle" dominant-baseline="central" transform="matrix(1 0 0 1 -62 -26)">Открывает Приложение</text></g></g><g><path fill="#C0C0C0" stroke="none" paint-order="stroke fill markers" d=" M 333 269 L 493 269 Q 503 269 503 279 L 503 349 Q 503 359 493 359 L 333 359 Q 323 359 323 349 L 323 279 Q 323 269 333 269 Z" fill-opacity="0.2"/></g><g><path fill="#ffffff" stroke="none" paint-order="stroke fill markers" d=" M 326 262 L 486 262 Q 496 262 496 272 L 496 342 Q 496 352 486 352 L 326 352 Q 316 352 316 342 L 316 272 Q 316 262 326 262 Z"/></g><g><path fill="none" stroke="#000000" paint-order="fill stroke markers" d=" M 326 262 L 486 262 Q 496 262 496 272 L 496 342 Q 496 352 486 352 L 326 352 Q 316 352 316 342 L 316 272 Q 316 262 326 262 Z" stroke-miterlimit="10" stroke-dasharray=""/></g><g><path fill="none" stroke="#000000" paint-order="fill stroke markers" d=" M 326 271 C 326 269.3431456 327.3431456 268 329 268 C 330.6568544 268 332 269.3431456 332 271 C 332 272.6568544 330.6568544 274 329 274 C 327.3431456 274 326 272.6568544 326 271 Z" stroke-miterlimit="10" stroke-dasharray=""/></g><g><path fill="none" stroke="#000000" paint-order="fill stroke markers" d=" M 324 275 L 334 275 L 334 282 L 324 282 L 324 275 Z Z" stroke-miterlimit="10" stroke-dasharray=""/></g><g><g><path fill="none" stroke="none"/><text fill="#000000" stroke="none" font-family="Arial" font-size="16px" font-style="normal" font-weight="normal" text-decoration="undefined" x="468" y="325" text-anchor="middle" dominant-baseline="central" transform="matrix(1 0 0 1 -62 -26)">Нажал кнопку "Создать</text><text fill="#000000" stroke="none" font-family="Arial" font-size="16px" font-style="normal" font-weight="normal" text-decoration="undefined" x="468" y="341" text-anchor="middle" dominant-baseline="central" transform="matrix(1 0 0 1 -62 -26)">сообщество"</text></g></g><g><path fill="#ffffff" stroke="none" paint-order="stroke fill markers" d=" M 262 136 L 431 136 L 441 146 L 441 226 L 262 226 L 262 136"/></g><g><path fill="none" stroke="#000000" paint-order="fill stroke markers" d=" M 262 136 L 431 136 L 441 146 L 441 226 L 262 226 L 262 136 L 262 136" stroke-miterlimit="10" stroke-dasharray=""/></g><g><path fill="none" stroke="#000000" paint-order="fill stroke markers" d=" M 431 136 L 431 146 L 441 146 L 431 136" stroke-miterlimit="10" stroke-dasharray=""/></g><g><g><path fill="none" stroke="none"/><text fill="#000000" stroke="none" font-family="Arial" font-size="16px" font-style="normal" font-weight="normal" text-decoration="undefined" x="329" y="167" text-anchor="start" dominant-baseline="text-before-edge" transform="matrix(1 0 0 1 -62 -26)">question:</text></g></g><g><g><path fill="none" stroke="none"/><text fill="#000000" stroke="none" font-family="Arial" font-size="16px" font-style="normal" font-weight="normal" text-decoration="undefined" x="329" y="185" text-anchor="start" dominant-baseline="text-before-edge" transform="matrix(1 0 0 1 -62 -26)">Где находится кнопка</text><text fill="#000000" stroke="none" font-family="Arial" font-size="16px" font-style="normal" font-weight="normal" text-decoration="undefined" x="329" y="201" text-anchor="start" dominant-baseline="text-before-edge" transform="matrix(1 0 0 1 -62 -26)">создать сообщество?</text></g></g><g><path fill="#C0C0C0" stroke="none" paint-order="stroke fill markers" d=" M 629 287 L 651.4 287 L 661 296.6 L 661 327 L 629 327" fill-opacity="0.2"/></g><g><path fill="#ffffff" stroke="none" paint-order="stroke fill markers" d=" M 622 280 L 644.4 280 L 654 289.6 L 654 320 L 622 320"/></g><g><path fill="none" stroke="#000000" paint-order="fill stroke markers" d=" M 622 280 L 644.4 280 L 654 289.6 L 654 320 L 622 320 L 622 280" stroke-miterlimit="10" stroke-dasharray=""/></g><g><path fill="none" stroke="#000000" paint-order="fill stroke markers" d=" M 644.4 280 L 644.4 289.6 L 654 289.6 L 644.4 280" stroke-miterlimit="10" stroke-dasharray=""/></g><g><rect fill="#ffffff" stroke="none" x="628.6328125" y="354" width="142.734375" height="16" transform="matrix(1 0 0 1 -62 -26)"/></g><g><g><path fill="none" stroke="none"/><text fill="#000000" stroke="none" font-family="Arial" font-size="16px" font-style="normal" font-weight="normal" text-decoration="undefined" x="700" y="362" text-anchor="middle" dominant-baseline="central" transform="matrix(1 0 0 1 -62 -26)">Экран создания КД</text></g></g><g><path fill="#C0C0C0" stroke="none" paint-order="stroke fill markers" d=" M 855 269 L 997 269 Q 1007 269 1007 279 L 1007 331 Q 1007 341 997 341 L 855 341 Q 845 341 845 331 L 845 279 Q 845 269 855 269 Z" fill-opacity="0.2"/></g><g><path fill="#ffffff" stroke="none" paint-order="stroke fill markers" d=" M 848 262 L 990 262 Q 1000 262 1000 272 L 1000 324 Q 1000 334 990 334 L 848 334 Q 838 334 838 324 L 838 272 Q 838 262 848 262 Z"/></g><g><path fill="none" stroke="#000000" paint-order="fill stroke markers" d=" M 848 262 L 990 262 Q 1000 262 1000 272 L 1000 324 Q 1000 334 990 334 L 848 334 Q 838 334 838 324 L 838 272 Q 838 262 848 262 Z" stroke-miterlimit="10" stroke-dasharray=""/></g><g><path fill="none" stroke="#000000" paint-order="fill stroke markers" d=" M 848 271 C 848 269.3431456 849.3431456 268 851 268 C 852.6568544 268 854 269.3431456 854 271 C 854 272.6568544 852.6568544 274 851 274 C 849.3431456 274 848 272.6568544 848 271 Z" stroke-miterlimit="10" stroke-dasharray=""/></g><g><path fill="none" stroke="#000000" paint-order="fill stroke markers" d=" M 846 275 L 856 275 L 856 282 L 846 282 L 846 275 Z Z" stroke-miterlimit="10" stroke-dasharray=""/></g><g><g><path fill="none" stroke="none"/><text fill="#000000" stroke="none" font-family="Arial" font-size="16px" font-style="normal" font-weight="normal" text-decoration="undefined" x="981" y="324" text-anchor="middle" dominant-baseline="central" transform="matrix(1 0 0 1 -62 -26)">Указать фото</text></g></g><g><path fill="#C0C0C0" stroke="none" paint-order="stroke fill markers" d=" M 1071 269 L 1249 269 Q 1259 269 1259 279 L 1259 331 Q 1259 341 1249 341 L 1071 341 Q 1061 341 1061 331 L 1061 279 Q 1061 269 1071 269 Z" fill-opacity="0.2"/></g><g><path fill="#ffffff" stroke="none" paint-order="stroke fill markers" d=" M 1064 262 L 1242 262 Q 1252 262 1252 272 L 1252 324 Q 1252 334 1242 334 L 1064 334 Q 1054 334 1054 324 L 1054 272 Q 1054 262 1064 262 Z"/></g><g><path fill="none" stroke="#000000" paint-order="fill stroke markers" d=" M 1064 262 L 1242 262 Q 1252 262 1252 272 L 1252 324 Q 1252 334 1242 334 L 1064 334 Q 1054 334 1054 324 L 1054 272 Q 1054 262 1064 262 Z" stroke-miterlimit="10" stroke-dasharray=""/></g><g><path fill="none" stroke="#000000" paint-order="fill stroke markers" d=" M 1064 271 C 1064 269.3431456 1065.3431456 268 1067 268 C 1068.6568544 268 1070 269.3431456 1070 271 C 1070 272.6568544 1068.6568544 274 1067 274 C 1065.3431456 274 1064 272.6568544 1064 271 Z" stroke-miterlimit="10" stroke-dasharray=""/></g><g><path fill="none" stroke="#000000" paint-order="fill stroke markers" d=" M 1062 275 L 1072 275 L 1072 282 L 1062 282 L 1062 275 Z Z" stroke-miterlimit="10" stroke-dasharray=""/></g><g><g><path fill="none" stroke="none"/><text fill="#000000" stroke="none" font-family="Arial" font-size="16px" font-style="normal" font-weight="normal" text-decoration="undefined" x="1215" y="324" text-anchor="middle" dominant-baseline="central" transform="matrix(1 0 0 1 -62 -26)">Ввести название</text></g></g><g><path fill="#C0C0C0" stroke="none" paint-order="stroke fill markers" d=" M 1305 269 L 1483 269 Q 1493 269 1493 279 L 1493 331 Q 1493 341 1483 341 L 1305 341 Q 1295 341 1295 331 L 1295 279 Q 1295 269 1305 269 Z" fill-opacity="0.2"/></g><g><path fill="#ffffff" stroke="none" paint-order="stroke fill markers" d=" M 1298 262 L 1476 262 Q 1486 262 1486 272 L 1486 324 Q 1486 334 1476 334 L 1298 334 Q 1288 334 1288 324 L 1288 272 Q 1288 262 1298 262 Z"/></g><g><path fill="none" stroke="#000000" paint-order="fill stroke markers" d=" M 1298 262 L 1476 262 Q 1486 262 1486 272 L 1486 324 Q 1486 334 1476 334 L 1298 334 Q 1288 334 1288 324 L 1288 272 Q 1288 262 1298 262 Z" stroke-miterlimit="10" stroke-dasharray=""/></g><g><path fill="none" stroke="#000000" paint-order="fill stroke markers" d=" M 1298 271 C 1298 269.3431456 1299.3431456 268 1301 268 C 1302.6568544 268 1304 269.3431456 1304 271 C 1304 272.6568544 1302.6568544 274 1301 274 C 1299.3431456 274 1298 272.6568544 1298 271 Z" stroke-miterlimit="10" stroke-dasharray=""/></g><g><path fill="none" stroke="#000000" paint-order="fill stroke markers" d=" M 1296 275 L 1306 275 L 1306 282 L 1296 282 L 1296 275 Z Z" stroke-miterlimit="10" stroke-dasharray=""/></g><g><g><path fill="none" stroke="none"/><text fill="#000000" stroke="none" font-family="Arial" font-size="16px" font-style="normal" font-weight="normal" text-decoration="undefined" x="1449" y="324" text-anchor="middle" dominant-baseline="central" transform="matrix(1 0 0 1 -62 -26)">Ввести описание</text></g></g><g><path fill="#C0C0C0" stroke="none" paint-order="stroke fill markers" d=" M 1575 269 L 1699 269 Q 1709 269 1709 279 L 1709 313 Q 1709 323 1699 323 L 1575 323 Q 1565 323 1565 313 L 1565 279 Q 1565 269 1575 269 Z" fill-opacity="0.2"/></g><g><path fill="#ffffff" stroke="none" paint-order="stroke fill markers" d=" M 1568 262 L 1692 262 Q 1702 262 1702 272 L 1702 306 Q 1702 316 1692 316 L 1568 316 Q 1558 316 1558 306 L 1558 272 Q 1558 262 1568 262 Z"/></g><g><path fill="none" stroke="#000000" paint-order="fill stroke markers" d=" M 1568 262 L 1692 262 Q 1702 262 1702 272 L 1702 306 Q 1702 316 1692 316 L 1568 316 Q 1558 316 1558 306 L 1558 272 Q 1558 262 1568 262 Z" stroke-miterlimit="10" stroke-dasharray=""/></g><g><path fill="none" stroke="#000000" paint-order="fill stroke markers" d=" M 1568 271 C 1568 269.3431456 1569.3431456 268 1571 268 C 1572.6568544 268 1574 269.3431456 1574 271 C 1574 272.6568544 1572.6568544 274 1571 274 C 1569.3431456 274 1568 272.6568544 1568 271 Z" stroke-miterlimit="10" stroke-dasharray=""/></g><g><path fill="none" stroke="#000000" paint-order="fill stroke markers" d=" M 1566 275 L 1576 275 L 1576 282 L 1566 282 L 1566 275 Z Z" stroke-miterlimit="10" stroke-dasharray=""/></g><g><g><path fill="none" stroke="none"/><text fill="#000000" stroke="none" font-family="Arial" font-size="16px" font-style="normal" font-weight="normal" text-decoration="undefined" x="1692" y="307" text-anchor="middle" dominant-baseline="central" transform="matrix(1 0 0 1 -62 -26)">Нажать</text><text fill="#000000" stroke="none" font-family="Arial" font-size="16px" font-style="normal" font-weight="normal" text-decoration="undefined" x="1692" y="323" text-anchor="middle" dominant-baseline="central" transform="matrix(1 0 0 1 -62 -26)">"разрешенные КД"</text></g></g><g><path fill="#C0C0C0" stroke="none" paint-order="stroke fill markers" d=" M 1781 179 L 1803.4 179 L 1813 188.6 L 1813 219 L 1781 219" fill-opacity="0.2"/></g><g><path fill="#ffffff" stroke="none" paint-order="stroke fill markers" d=" M 1774 172 L 1796.4 172 L 1806 181.6 L 1806 212 L 1774 212"/></g><g><path fill="none" stroke="#000000" paint-order="fill stroke markers" d=" M 1774 172 L 1796.4 172 L 1806 181.6 L 1806 212 L 1774 212 L 1774 172" stroke-miterlimit="10" stroke-dasharray=""/></g><g><path fill="none" stroke="#000000" paint-order="fill stroke markers" d=" M 1796.4 172 L 1796.4 181.6 L 1806 181.6 L 1796.4 172" stroke-miterlimit="10" stroke-dasharray=""/></g><g><rect fill="#ffffff" stroke="none" x="1784.41796875" y="246" width="135.1640625" height="16" transform="matrix(1 0 0 1 -62 -26)"/></g><g><g><path fill="none" stroke="none"/><text fill="#000000" stroke="none" font-family="Arial" font-size="16px" font-style="normal" font-weight="normal" text-decoration="undefined" x="1852" y="254" text-anchor="middle" dominant-baseline="central" transform="matrix(1 0 0 1 -62 -26)">Экран выбора КД</text></g></g><g><path fill="#ffffff" stroke="none" paint-order="stroke fill markers" d=" M 1522 64 L 1727 64 L 1737 74 L 1737 139 L 1522 139 L 1522 64"/></g><g><path fill="none" stroke="#000000" paint-order="fill stroke markers" d=" M 1522 64 L 1727 64 L 1737 74 L 1737 139 L 1522 139 L 1522 64 L 1522 64" stroke-miterlimit="10" stroke-dasharray=""/></g><g><path fill="none" stroke="#000000" paint-order="fill stroke markers" d=" M 1727 64 L 1727 74 L 1737 74 L 1727 64" stroke-miterlimit="10" stroke-dasharray=""/></g><g><g><path fill="none" stroke="none"/><text fill="#000000" stroke="none" font-family="Arial" font-size="16px" font-style="normal" font-weight="normal" text-decoration="undefined" x="1589" y="95" text-anchor="start" dominant-baseline="text-before-edge" transform="matrix(1 0 0 1 -62 -26)">question: Как выглядит</text><text fill="#000000" stroke="none" font-family="Arial" font-size="16px" font-style="normal" font-weight="normal" text-decoration="undefined" x="1589" y="111" text-anchor="start" dominant-baseline="text-before-edge" transform="matrix(1 0 0 1 -62 -26)">экран ограничения кд для</text><text fill="#000000" stroke="none" font-family="Arial" font-size="16px" font-style="normal" font-weight="normal" text-decoration="undefined" x="1589" y="127" text-anchor="start" dominant-baseline="text-before-edge" transform="matrix(1 0 0 1 -62 -26)">сообществе</text></g></g><g><path fill="#C0C0C0" stroke="none" paint-order="stroke fill markers" d=" M 2025 179 L 2136.8046875 179 Q 2146.8046875 179 2146.8046875 189 L 2146.8046875 211 Q 2146.8046875 221 2136.8046875 221 L 2025 221 Q 2015 221 2015 211 L 2015 189 Q 2015 179 2025 179 Z" fill-opacity="0.2"/></g><g><path fill="#ffffff" stroke="none" paint-order="stroke fill markers" d=" M 2018 172 L 2129.8046875 172 Q 2139.8046875 172 2139.8046875 182 L 2139.8046875 204 Q 2139.8046875 214 2129.8046875 214 L 2018 214 Q 2008 214 2008 204 L 2008 182 Q 2008 172 2018 172 Z"/></g><g><path fill="none" stroke="#000000" paint-order="fill stroke markers" d=" M 2018 172 L 2129.8046875 172 Q 2139.8046875 172 2139.8046875 182 L 2139.8046875 204 Q 2139.8046875 214 2129.8046875 214 L 2018 214 Q 2008 214 2008 204 L 2008 182 Q 2008 172 2018 172 Z" stroke-miterlimit="10" stroke-dasharray=""/></g><g><path fill="none" stroke="#000000" paint-order="fill stroke markers" d=" M 2018 181 C 2018 179.3431456 2019.3431455999998 178 2021 178 C 2022.6568544000002 178 2024 179.3431456 2024 181 C 2024 182.6568544 2022.6568544000002 184 2021 184 C 2019.3431455999998 184 2018 182.6568544 2018 181 Z" stroke-miterlimit="10" stroke-dasharray=""/></g><g><path fill="none" stroke="#000000" paint-order="fill stroke markers" d=" M 2016 185 L 2026 185 L 2026 192 L 2016 192 L 2016 185 Z Z" stroke-miterlimit="10" stroke-dasharray=""/></g><g><g><path fill="none" stroke="none"/><text fill="#000000" stroke="none" font-family="Arial" font-size="16px" font-style="normal" font-weight="normal" text-decoration="undefined" x="2135.90234375" y="211" text-anchor="middle" dominant-baseline="central" transform="matrix(1 0 0 1 -62 -26)">Отметить</text><text fill="#000000" stroke="none" font-family="Arial" font-size="16px" font-style="normal" font-weight="normal" text-decoration="undefined" x="2135.90234375" y="227" text-anchor="middle" dominant-baseline="central" transform="matrix(1 0 0 1 -62 -26)">разрешенные КД</text></g></g><g><path fill="#C0C0C0" stroke="none" paint-order="stroke fill markers" d=" M 2151 287 L 2293 287 Q 2303 287 2303 297 L 2303 349 Q 2303 359 2293 359 L 2151 359 Q 2141 359 2141 349 L 2141 297 Q 2141 287 2151 287 Z" fill-opacity="0.2"/></g><g><path fill="#ffffff" stroke="none" paint-order="stroke fill markers" d=" M 2144 280 L 2286 280 Q 2296 280 2296 290 L 2296 342 Q 2296 352 2286 352 L 2144 352 Q 2134 352 2134 342 L 2134 290 Q 2134 280 2144 280 Z"/></g><g><path fill="none" stroke="#000000" paint-order="fill stroke markers" d=" M 2144 280 L 2286 280 Q 2296 280 2296 290 L 2296 342 Q 2296 352 2286 352 L 2144 352 Q 2134 352 2134 342 L 2134 290 Q 2134 280 2144 280 Z" stroke-miterlimit="10" stroke-dasharray=""/></g><g><path fill="none" stroke="#000000" paint-order="fill stroke markers" d=" M 2144 289 C 2144 287.3431456 2145.3431456 286 2147 286 C 2148.6568544 286 2150 287.3431456 2150 289 C 2150 290.6568544 2148.6568544 292 2147 292 C 2145.3431456 292 2144 290.6568544 2144 289 Z" stroke-miterlimit="10" stroke-dasharray=""/></g><g><path fill="none" stroke="#000000" paint-order="fill stroke markers" d=" M 2142 293 L 2152 293 L 2152 300 L 2142 300 L 2142 293 Z Z" stroke-miterlimit="10" stroke-dasharray=""/></g><g><g><path fill="none" stroke="none"/><text fill="#000000" stroke="none" font-family="Arial" font-size="16px" font-style="normal" font-weight="normal" text-decoration="undefined" x="2277" y="342" text-anchor="middle" dominant-baseline="central" transform="matrix(1 0 0 1 -62 -26)">Нажать "Создать КД"</text></g></g><g><path fill="#ffffff" stroke="none" paint-order="stroke fill markers" d=" M 2188 10 L 2339 10 L 2349 20 L 2349 201 L 2188 201 L 2188 10"/></g><g><path fill="none" stroke="#000000" paint-order="fill stroke markers" d=" M 2188 10 L 2339 10 L 2349 20 L 2349 201 L 2188 201 L 2188 10 L 2188 10" stroke-miterlimit="10" stroke-dasharray=""/></g><g><path fill="none" stroke="#000000" paint-order="fill stroke markers" d=" M 2339 10 L 2339 20 L 2349 20 L 2339 10" stroke-miterlimit="10" stroke-dasharray=""/></g><g><g><path fill="none" stroke="none"/><text fill="#000000" stroke="none" font-family="Arial" font-size="16px" font-style="normal" font-weight="normal" text-decoration="undefined" x="2255" y="41" text-anchor="start" dominant-baseline="text-before-edge" transform="matrix(1 0 0 1 -62 -26)">question:</text></g></g><g><g><path fill="none" stroke="none"/><text fill="#000000" stroke="none" font-family="Arial" font-size="16px" font-style="normal" font-weight="normal" text-decoration="undefined" x="2255" y="59" text-anchor="start" dominant-baseline="text-before-edge" transform="matrix(1 0 0 1 -62 -26)">Есть ли вкладка</text><text fill="#000000" stroke="none" font-family="Arial" font-size="16px" font-style="normal" font-weight="normal" text-decoration="undefined" x="2255" y="75" text-anchor="start" dominant-baseline="text-before-edge" transform="matrix(1 0 0 1 -62 -26)">пригласить свои</text><text fill="#000000" stroke="none" font-family="Arial" font-size="16px" font-style="normal" font-weight="normal" text-decoration="undefined" x="2255" y="91" text-anchor="start" dominant-baseline="text-before-edge" transform="matrix(1 0 0 1 -62 -26)">контакты? Есть ли у</text><text fill="#000000" stroke="none" font-family="Arial" font-size="16px" font-style="normal" font-weight="normal" text-decoration="undefined" x="2255" y="107" text-anchor="start" dominant-baseline="text-before-edge" transform="matrix(1 0 0 1 -62 -26)">нас в целом фича</text><text fill="#000000" stroke="none" font-family="Arial" font-size="16px" font-style="normal" font-weight="normal" text-decoration="undefined" x="2255" y="123" text-anchor="start" dominant-baseline="text-before-edge" transform="matrix(1 0 0 1 -62 -26)">контакты? </text></g></g><g><g><path fill="none" stroke="none"/><text fill="#000000" stroke="none" font-family="Arial" font-size="16px" font-style="normal" font-weight="normal" text-decoration="undefined" x="2255" y="141" text-anchor="start" dominant-baseline="text-before-edge" transform="matrix(1 0 0 1 -62 -26)">Можем ли мы как-то</text><text fill="#000000" stroke="none" font-family="Arial" font-size="16px" font-style="normal" font-weight="normal" text-decoration="undefined" x="2255" y="157" text-anchor="start" dominant-baseline="text-before-edge" transform="matrix(1 0 0 1 -62 -26)">пригласить людей</text><text fill="#000000" stroke="none" font-family="Arial" font-size="16px" font-style="normal" font-weight="normal" text-decoration="undefined" x="2255" y="173" text-anchor="start" dominant-baseline="text-before-edge" transform="matrix(1 0 0 1 -62 -26)">на стадии создания</text><text fill="#000000" stroke="none" font-family="Arial" font-size="16px" font-style="normal" font-weight="normal" text-decoration="undefined" x="2255" y="189" text-anchor="start" dominant-baseline="text-before-edge" transform="matrix(1 0 0 1 -62 -26)">Сообщества?</text></g></g><g><path fill="#ffffff" stroke="none" paint-order="stroke fill markers" d=" M 1324 64 L 1475 64 L 1485 74 L 1485 202 L 1324 202 L 1324 64"/></g><g><path fill="none" stroke="#000000" paint-order="fill stroke markers" d=" M 1324 64 L 1475 64 L 1485 74 L 1485 202 L 1324 202 L 1324 64 L 1324 64" stroke-miterlimit="10" stroke-dasharray=""/></g><g><path fill="none" stroke="#000000" paint-order="fill stroke markers" d=" M 1475 64 L 1475 74 L 1485 74 L 1475 64" stroke-miterlimit="10" stroke-dasharray=""/></g><g><g><path fill="none" stroke="none"/><text fill="#000000" stroke="none" font-family="Arial" font-size="16px" font-style="normal" font-weight="normal" text-decoration="undefined" x="1391" y="95" text-anchor="start" dominant-baseline="text-before-edge" transform="matrix(1 0 0 1 -62 -26)">question: Есть ли</text><text fill="#000000" stroke="none" font-family="Arial" font-size="16px" font-style="normal" font-weight="normal" text-decoration="undefined" x="1391" y="111" text-anchor="start" dominant-baseline="text-before-edge" transform="matrix(1 0 0 1 -62 -26)">ограничения на</text><text fill="#000000" stroke="none" font-family="Arial" font-size="16px" font-style="normal" font-weight="normal" text-decoration="undefined" x="1391" y="127" text-anchor="start" dominant-baseline="text-before-edge" transform="matrix(1 0 0 1 -62 -26)">создание</text><text fill="#000000" stroke="none" font-family="Arial" font-size="16px" font-style="normal" font-weight="normal" text-decoration="undefined" x="1391" y="143" text-anchor="start" dominant-baseline="text-before-edge" transform="matrix(1 0 0 1 -62 -26)">сообщества?</text><text fill="#000000" stroke="none" font-family="Arial" font-size="16px" font-style="normal" font-weight="normal" text-decoration="undefined" x="1391" y="159" text-anchor="start" dominant-baseline="text-before-edge" transform="matrix(1 0 0 1 -62 -26)">(Например уровень,</text><text fill="#000000" stroke="none" font-family="Arial" font-size="16px" font-style="normal" font-weight="normal" text-decoration="undefined" x="1391" y="175" text-anchor="start" dominant-baseline="text-before-edge" transform="matrix(1 0 0 1 -62 -26)">или статус?)</text></g></g><g><path fill="none" stroke="#000000" paint-order="fill stroke markers" d=" M 186 303 L 316 303" stroke-miterlimit="10" stroke-dasharray=""/></g><g><path fill="#000000" stroke="none" paint-order="stroke fill markers" d=" M 305.83732514237585 307.209517756016 L 316 303 L 305.83732514237585 298.790482243984"/></g><g><path fill="none" stroke="#000000" paint-order="fill stroke markers" d=" M 305.83732514237585 307.209517756016 L 316 303 L 305.83732514237585 298.790482243984 L 305.83732514237585 307.209517756016" stroke-miterlimit="10" stroke-dasharray=""/></g><g><path fill="none" stroke="#000000" paint-order="fill stroke markers" d=" M 496 304 L 622 304" stroke-miterlimit="10" stroke-dasharray=""/></g><g><path fill="#000000" stroke="none" paint-order="stroke fill markers" d=" M 611.8373251423759 308.209517756016 L 622 304 L 611.8373251423758 299.790482243984"/></g><g><path fill="none" stroke="#000000" paint-order="fill stroke markers" d=" M 611.8373251423759 308.209517756016 L 622 304 L 611.8373251423758 299.790482243984 L 611.8373251423759 308.209517756016" stroke-miterlimit="10" stroke-dasharray=""/></g><g><path fill="none" stroke="#000000" paint-order="fill stroke markers" d=" M 654 300 L 838 300" stroke-miterlimit="10" stroke-dasharray=""/></g><g><path fill="#000000" stroke="none" paint-order="stroke fill markers" d=" M 827.8373251423759 304.209517756016 L 838 300 L 827.8373251423758 295.790482243984"/></g><g><path fill="none" stroke="#000000" paint-order="fill stroke markers" d=" M 827.8373251423759 304.209517756016 L 838 300 L 827.8373251423758 295.790482243984 L 827.8373251423759 304.209517756016" stroke-miterlimit="10" stroke-dasharray=""/></g><g><path fill="none" stroke="#000000" paint-order="fill stroke markers" d=" M 1000 298 L 1054 298" stroke-miterlimit="10" stroke-dasharray=""/></g><g><path fill="#000000" stroke="none" paint-order="stroke fill markers" d=" M 1043.837325142376 302.209517756016 L 1054 298 L 1043.837325142376 293.790482243984"/></g><g><path fill="none" stroke="#000000" paint-order="fill stroke markers" d=" M 1043.837325142376 302.209517756016 L 1054 298 L 1043.837325142376 293.790482243984 L 1043.837325142376 302.209517756016" stroke-miterlimit="10" stroke-dasharray=""/></g><g><path fill="none" stroke="#000000" paint-order="fill stroke markers" d=" M 1252 298 L 1288 298" stroke-miterlimit="10" stroke-dasharray=""/></g><g><path fill="#000000" stroke="none" paint-order="stroke fill markers" d=" M 1277.837325142376 302.209517756016 L 1288 298 L 1277.837325142376 293.790482243984"/></g><g><path fill="none" stroke="#000000" paint-order="fill stroke markers" d=" M 1277.837325142376 302.209517756016 L 1288 298 L 1277.837325142376 293.790482243984 L 1277.837325142376 302.209517756016" stroke-miterlimit="10" stroke-dasharray=""/></g><g><path fill="none" stroke="#000000" paint-order="fill stroke markers" d=" M 1486 294 L 1558 294" stroke-miterlimit="10" stroke-dasharray=""/></g><g><path fill="#000000" stroke="none" paint-order="stroke fill markers" d=" M 1547.837325142376 298.209517756016 L 1558 294 L 1547.837325142376 289.790482243984"/></g><g><path fill="none" stroke="#000000" paint-order="fill stroke markers" d=" M 1547.837325142376 298.209517756016 L 1558 294 L 1547.837325142376 289.790482243984 L 1547.837325142376 298.209517756016" stroke-miterlimit="10" stroke-dasharray=""/></g><g><path fill="none" stroke="#000000" paint-order="fill stroke markers" d=" M 1486 334 L 1486 398 L 1486 398 A 8 8 0 0 0 1494 406 L 2126 406 L 2126 406 A 8 8 0 0 0 2134 398 L 2134 352" stroke-miterlimit="10" stroke-dasharray=""/></g><g><path fill="#000000" stroke="none" paint-order="stroke fill markers" d=" M 2138.209517756016 362.16267485762415 L 2134 352 L 2129.790482243984 362.16267485762415"/></g><g><path fill="none" stroke="#000000" paint-order="fill stroke markers" d=" M 2138.209517756016 362.16267485762415 L 2134 352 L 2129.790482243984 362.16267485762415 L 2138.209517756016 362.16267485762415" stroke-miterlimit="10" stroke-dasharray=""/></g><g><path fill="#C0C0C0" stroke="none" paint-order="stroke fill markers" d=" M 1863 53 L 1974.8046875 53 Q 1984.8046875 53 1984.8046875 63 L 1984.8046875 133 Q 1984.8046875 143 1974.8046875 143 L 1863 143 Q 1853 143 1853 133 L 1853 63 Q 1853 53 1863 53 Z" fill-opacity="0.2"/></g><g><path fill="#ffffff" stroke="none" paint-order="stroke fill markers" d=" M 1856 46 L 1967.8046875 46 Q 1977.8046875 46 1977.8046875 56 L 1977.8046875 126 Q 1977.8046875 136 1967.8046875 136 L 1856 136 Q 1846 136 1846 126 L 1846 56 Q 1846 46 1856 46 Z"/></g><g><path fill="none" stroke="#000000" paint-order="fill stroke markers" d=" M 1856 46 L 1967.8046875 46 Q 1977.8046875 46 1977.8046875 56 L 1977.8046875 126 Q 1977.8046875 136 1967.8046875 136 L 1856 136 Q 1846 136 1846 126 L 1846 56 Q 1846 46 1856 46 Z" stroke-miterlimit="10" stroke-dasharray=""/></g><g><path fill="none" stroke="#000000" paint-order="fill stroke markers" d=" M 1856 55 C 1856 53.3431456 1857.3431456 52 1859 52 C 1860.6568544 52 1862 53.3431456 1862 55 C 1862 56.6568544 1860.6568544 58 1859 58 C 1857.3431456 58 1856 56.6568544 1856 55 Z" stroke-miterlimit="10" stroke-dasharray=""/></g><g><path fill="none" stroke="#000000" paint-order="fill stroke markers" d=" M 1854 59 L 1864 59 L 1864 66 L 1854 66 L 1854 59 Z Z" stroke-miterlimit="10" stroke-dasharray=""/></g><g><g><path fill="none" stroke="none"/><text fill="#000000" stroke="none" font-family="Arial" font-size="16px" font-style="normal" font-weight="normal" text-decoration="undefined" x="1973.90234375" y="109" text-anchor="middle" dominant-baseline="central" transform="matrix(1 0 0 1 -62 -26)">Ввести в поиск</text><text fill="#000000" stroke="none" font-family="Arial" font-size="16px" font-style="normal" font-weight="normal" text-decoration="undefined" x="1973.90234375" y="125" text-anchor="middle" dominant-baseline="central" transform="matrix(1 0 0 1 -62 -26)">название КД</text></g></g><g><path fill="#C0C0C0" stroke="none" paint-order="stroke fill markers" d=" M 1773 665 L 1851.578125 665 Q 1861.578125 665 1861.578125 675 L 1861.578125 729 Q 1861.578125 739 1851.578125 739 L 1773 739 Q 1763 739 1763 729 L 1763 675 Q 1763 665 1773 665 Z" fill-opacity="0.2"/></g><g><path fill="#ffffff" stroke="none" paint-order="stroke fill markers" d=" M 1766 658 L 1844.578125 658 Q 1854.578125 658 1854.578125 668 L 1854.578125 722 Q 1854.578125 732 1844.578125 732 L 1766 732 Q 1756 732 1756 722 L 1756 668 Q 1756 658 1766 658 Z"/></g><g><path fill="none" stroke="#000000" paint-order="fill stroke markers" d=" M 1766 658 L 1844.578125 658 Q 1854.578125 658 1854.578125 668 L 1854.578125 722 Q 1854.578125 732 1844.578125 732 L 1766 732 Q 1756 732 1756 722 L 1756 668 Q 1756 658 1766 658 Z" stroke-miterlimit="10" stroke-dasharray=""/></g><g><g><path fill="none" stroke="none"/><text fill="#000000" stroke="none" font-family="Arial" font-size="16px" font-style="normal" font-weight="normal" text-decoration="undefined" x="1867.2890625" y="697" text-anchor="middle" dominant-baseline="central" transform="matrix(1 0 0 1 -62 -26)">Извлечение</text><text fill="#000000" stroke="none" font-family="Arial" font-size="16px" font-style="normal" font-weight="normal" text-decoration="undefined" x="1867.2890625" y="713" text-anchor="middle" dominant-baseline="central" transform="matrix(1 0 0 1 -62 -26)">верхнего</text><text fill="#000000" stroke="none" font-family="Arial" font-size="16px" font-style="normal" font-weight="normal" text-decoration="undefined" x="1867.2890625" y="729" text-anchor="middle" dominant-baseline="central" transform="matrix(1 0 0 1 -62 -26)">уровня</text><text fill="#000000" stroke="none" font-family="Arial" font-size="16px" font-style="normal" font-weight="normal" text-decoration="undefined" x="1867.2890625" y="745" text-anchor="middle" dominant-baseline="central" transform="matrix(1 0 0 1 -62 -26)">Каталога</text></g></g><g><path fill="none" stroke="#000000" paint-order="fill stroke markers" d=" M 1642 316 L 1642 650 L 1642 650 A 8 8 0 0 0 1650 658 L 1756 658" stroke-miterlimit="10" stroke-dasharray=""/></g><g><path fill="#000000" stroke="none" paint-order="stroke fill markers" d=" M 1745.837325142376 662.209517756016 L 1756 658 L 1745.837325142376 653.790482243984"/></g><g><path fill="none" stroke="#000000" paint-order="fill stroke markers" d=" M 1745.837325142376 662.209517756016 L 1756 658 L 1745.837325142376 653.790482243984 L 1745.837325142376 662.209517756016" stroke-miterlimit="10" stroke-dasharray=""/></g><g><path fill="none" stroke="#000000" paint-order="fill stroke markers" d=" M 1791 658 L 1791 212" stroke-miterlimit="10" stroke-dasharray=""/></g><g><path fill="#000000" stroke="none" paint-order="stroke fill markers" d=" M 1795.2095177560159 222.16267485762415 L 1791 212 L 1786.7904822439841 222.16267485762415"/></g><g><path fill="none" stroke="#000000" paint-order="fill stroke markers" d=" M 1795.2095177560159 222.16267485762415 L 1791 212 L 1786.7904822439841 222.16267485762415 L 1795.2095177560159 222.16267485762415" stroke-miterlimit="10" stroke-dasharray=""/></g><g><path fill="none" stroke="#000000" paint-order="fill stroke markers" d=" M 1806 193 L 2008 193" stroke-miterlimit="10" stroke-dasharray=""/></g><g><path fill="#000000" stroke="none" paint-order="stroke fill markers" d=" M 1997.837325142376 197.209517756016 L 2008 193 L 1997.837325142376 188.790482243984"/></g><g><path fill="none" stroke="#000000" paint-order="fill stroke markers" d=" M 1997.837325142376 197.209517756016 L 2008 193 L 1997.837325142376 188.790482243984 L 1997.837325142376 197.209517756016" stroke-miterlimit="10" stroke-dasharray=""/></g><g><path fill="none" stroke="#000000" paint-order="fill stroke markers" d=" M 1806 184 L 1874 184 L 1874 184 A 8 8 0 0 0 1882 176 L 1882 136" stroke-miterlimit="10" stroke-dasharray=""/></g><g><path fill="#000000" stroke="none" paint-order="stroke fill markers" d=" M 1886.2095177560159 146.16267485762415 L 1882 136 L 1877.7904822439841 146.16267485762415"/></g><g><path fill="none" stroke="#000000" paint-order="fill stroke markers" d=" M 1886.2095177560159 146.16267485762415 L 1882 136 L 1877.7904822439841 146.16267485762415 L 1886.2095177560159 146.16267485762415" stroke-miterlimit="10" stroke-dasharray=""/></g><g><path fill="none" stroke="#000000" paint-order="fill stroke markers" d=" M 2097 214 L 2097 272 L 2097 272 A 8 8 0 0 0 2105 280 L 2134 280" stroke-miterlimit="10" stroke-dasharray=""/></g><g><path fill="#000000" stroke="none" paint-order="stroke fill markers" d=" M 2123.837325142376 284.209517756016 L 2134 280 L 2123.837325142376 275.790482243984"/></g><g><path fill="none" stroke="#000000" paint-order="fill stroke markers" d=" M 2123.837325142376 284.209517756016 L 2134 280 L 2123.837325142376 275.790482243984 L 2123.837325142376 284.209517756016" stroke-miterlimit="10" stroke-dasharray=""/></g><g><path fill="#C0C0C0" stroke="none" paint-order="stroke fill markers" d=" M 1917 665 L 1998.5859375 665 Q 2008.5859375 665 2008.5859375 675 L 2008.5859375 729 Q 2008.5859375 739 1998.5859375 739 L 1917 739 Q 1907 739 1907 729 L 1907 675 Q 1907 665 1917 665 Z" fill-opacity="0.2"/></g><g><path fill="#ffffff" stroke="none" paint-order="stroke fill markers" d=" M 1910 658 L 1991.5859375 658 Q 2001.5859375 658 2001.5859375 668 L 2001.5859375 722 Q 2001.5859375 732 1991.5859375 732 L 1910 732 Q 1900 732 1900 722 L 1900 668 Q 1900 658 1910 658 Z"/></g><g><path fill="none" stroke="#000000" paint-order="fill stroke markers" d=" M 1910 658 L 1991.5859375 658 Q 2001.5859375 658 2001.5859375 668 L 2001.5859375 722 Q 2001.5859375 732 1991.5859375 732 L 1910 732 Q 1900 732 1900 722 L 1900 668 Q 1900 658 1910 658 Z" stroke-miterlimit="10" stroke-dasharray=""/></g><g><g><path fill="none" stroke="none"/><text fill="#000000" stroke="none" font-family="Arial" font-size="16px" font-style="normal" font-weight="normal" text-decoration="undefined" x="2012.79296875" y="697" text-anchor="middle" dominant-baseline="central" transform="matrix(1 0 0 1 -62 -26)">Извлечь</text><text fill="#000000" stroke="none" font-family="Arial" font-size="16px" font-style="normal" font-weight="normal" text-decoration="undefined" x="2012.79296875" y="713" text-anchor="middle" dominant-baseline="central" transform="matrix(1 0 0 1 -62 -26)">подходяшие</text><text fill="#000000" stroke="none" font-family="Arial" font-size="16px" font-style="normal" font-weight="normal" text-decoration="undefined" x="2012.79296875" y="729" text-anchor="middle" dominant-baseline="central" transform="matrix(1 0 0 1 -62 -26)">по названию</text><text fill="#000000" stroke="none" font-family="Arial" font-size="16px" font-style="normal" font-weight="normal" text-decoration="undefined" x="2012.79296875" y="745" text-anchor="middle" dominant-baseline="central" transform="matrix(1 0 0 1 -62 -26)">КД</text></g></g><g><path fill="none" stroke="#000000" paint-order="fill stroke markers" d=" M 1914 136 L 1914 658" stroke-miterlimit="10" stroke-dasharray=""/></g><g><path fill="#000000" stroke="none" paint-order="stroke fill markers" d=" M 1909.7904822439841 647.8373251423759 L 1914 658 L 1918.2095177560159 647.8373251423759"/></g><g><path fill="none" stroke="#000000" paint-order="fill stroke markers" d=" M 1909.7904822439841 647.8373251423759 L 1914 658 L 1918.2095177560159 647.8373251423759 L 1909.7904822439841 647.8373251423759" stroke-miterlimit="10" stroke-dasharray=""/></g><g><path fill="none" stroke="#000000" paint-order="fill stroke markers" d=" M 2002 658 L 2060 658 L 2060 658 A 8 8 0 0 0 2068 650 L 2068 214" stroke-miterlimit="10" stroke-dasharray=""/></g><g><path fill="#000000" stroke="none" paint-order="stroke fill markers" d=" M 2072.209517756016 224.16267485762415 L 2068 214 L 2063.790482243984 224.16267485762415"/></g><g><path fill="none" stroke="#000000" paint-order="fill stroke markers" d=" M 2072.209517756016 224.16267485762415 L 2068 214 L 2063.790482243984 224.16267485762415 L 2072.209517756016 224.16267485762415" stroke-miterlimit="10" stroke-dasharray=""/></g><g><path fill="#C0C0C0" stroke="none" paint-order="stroke fill markers" d=" M 2483 303 C 2483 294.1634432 2490.1634432 287 2499 287 C 2507.8365568 287 2515 294.1634432 2515 303 C 2515 311.8365568 2507.8365568 319 2499 319 C 2490.1634432 319 2483 311.8365568 2483 303 Z" fill-opacity="0.2"/></g><g><path fill="#ffffff" stroke="none" paint-order="stroke fill markers" d=" M 2476 296 C 2476 287.1634432 2483.1634432 280 2492 280 C 2500.8365568 280 2508 287.1634432 2508 296 C 2508 304.8365568 2500.8365568 312 2492 312 C 2483.1634432 312 2476 304.8365568 2476 296 Z"/></g><g><path fill="none" stroke="#000000" paint-order="fill stroke markers" d=" M 2476 296 C 2476 287.1634432 2483.1634432 280 2492 280 C 2500.8365568 280 2508 287.1634432 2508 296 C 2508 304.8365568 2500.8365568 312 2492 312 C 2483.1634432 312 2476 304.8365568 2476 296 Z" stroke-miterlimit="10" stroke-width="3" stroke-dasharray=""/></g><g><rect fill="#ffffff" stroke="none" x="2458.65625" y="350" width="190.6875" height="16" transform="matrix(1 0 0 1 -62 -26)"/></g><g><g><path fill="none" stroke="none"/><text fill="#000000" stroke="none" font-family="Arial" font-size="16px" font-style="normal" font-weight="normal" text-decoration="undefined" x="2554" y="358" text-anchor="middle" dominant-baseline="central" transform="matrix(1 0 0 1 -62 -26)">Завершение создания КД</text></g></g><g><path fill="none" stroke="#000000" paint-order="fill stroke markers" d=" M 2296 310 L 2476 310" stroke-miterlimit="10" stroke-dasharray=""/></g><g><path fill="#000000" stroke="none" paint-order="stroke fill markers" d=" M 2465.837325142376 314.209517756016 L 2476 310 L 2465.837325142376 305.790482243984"/></g><g><path fill="none" stroke="#000000" paint-order="fill stroke markers" d=" M 2465.837325142376 314.209517756016 L 2476 310 L 2465.837325142376 305.790482243984 L 2465.837325142376 314.209517756016" stroke-miterlimit="10" stroke-dasharray=""/></g><g><path fill="none" stroke="#000000" paint-order="fill stroke markers" d=" M 1756 732 L 1756 838" stroke-miterlimit="10" stroke-dasharray=""/></g><g><path fill="#000000" stroke="none" paint-order="stroke fill markers" d=" M 1751.7904822439841 827.8373251423759 L 1756 838 L 1760.2095177560159 827.8373251423759"/></g><g><path fill="none" stroke="#000000" paint-order="fill stroke markers" d=" M 1751.7904822439841 827.8373251423759 L 1756 838 L 1760.2095177560159 827.8373251423759 L 1751.7904822439841 827.8373251423759" stroke-miterlimit="10" stroke-dasharray=""/></g><g><path fill="none" stroke="#000000" paint-order="fill stroke markers" d=" M 1900 732 L 1900 838" stroke-miterlimit="10" stroke-dasharray=""/></g><g><path fill="#000000" stroke="none" paint-order="stroke fill markers" d=" M 1895.7904822439841 827.8373251423759 L 1900 838 L 1904.2095177560159 827.8373251423759"/></g><g><path fill="none" stroke="#000000" paint-order="fill stroke markers" d=" M 1895.7904822439841 827.8373251423759 L 1900 838 L 1904.2095177560159 827.8373251423759 L 1895.7904822439841 827.8373251423759" stroke-miterlimit="10" stroke-dasharray=""/></g></g></svg>