<svg version="1.1" xmlns="http://www.w3.org/2000/svg" xmlns:xlink="http://www.w3.org/1999/xlink" width="1406" height="470"><defs/><g><g><rect fill="#ffffff" stroke="none" x="108" y="72" width="298" height="52" transform="matrix(1 0 0 1 -62 -62)"/></g><g><path fill="#ffffff" stroke="none" paint-order="stroke fill markers" d=" M 344 10 A 26 26 0 0 1 344 62"/></g><g><path fill="none" stroke="#000000" paint-order="fill stroke markers" d=" M 46 10 L 46 62" stroke-miterlimit="10" stroke-dasharray=""/></g><g><path fill="none" stroke="#000000" paint-order="fill stroke markers" d=" M 46 10 L 344 10" stroke-miterlimit="10" stroke-dasharray=""/></g><g><path fill="none" stroke="#000000" paint-order="fill stroke markers" d=" M 46 62 L 344 62" stroke-miterlimit="10" stroke-dasharray=""/></g><g><path fill="none" stroke="#000000" paint-order="fill stroke markers" d=" M 344 10 A 26 26 0 0 1 344 62" stroke-miterlimit="10" stroke-dasharray=""/></g><g><g><path fill="none" stroke="none"/><text fill="#000000" stroke="none" font-family="Arial" font-size="16px" font-style="normal" font-weight="normal" text-decoration="undefined" x="239.5" y="90" text-anchor="middle" dominant-baseline="central" transform="matrix(1 0 0 1 -62 -62)">POST /accounts/recovery/request</text></g></g><g><path fill="#ffffff" stroke="none" paint-order="stroke fill markers" d=" M 89 118 L 394.984375 118 L 333.984375 154 L 28 154 L 89 118"/></g><g><path fill="none" stroke="#000000" paint-order="fill stroke markers" d=" M 89 118 L 394.984375 118 L 333.984375 154 L 28 154 L 89 118 L 89 118" stroke-miterlimit="10" stroke-dasharray=""/></g><g><g><path fill="none" stroke="none"/><text fill="#000000" stroke="none" font-family="Arial" font-size="16px" font-style="normal" font-weight="normal" text-decoration="undefined" x="273.4921875" y="198" text-anchor="middle" dominant-baseline="central" transform="matrix(1 0 0 1 -62 -62)">PostAccountRecoveryRequestRequest</text></g></g><g><rect fill="#ffffff" stroke="none" x="126" y="288" width="270" height="52" transform="matrix(1 0 0 1 -62 -62)"/></g><g><path fill="none" stroke="#000000" paint-order="fill stroke markers" d=" M 64 226 L 334 226 L 334 278 L 64 278 L 64 226 Z Z" stroke-miterlimit="10" stroke-dasharray=""/></g><g><g><path fill="none" stroke="none"/><text fill="#000000" stroke="none" font-family="Arial" font-size="16px" font-style="normal" font-weight="normal" text-decoration="undefined" x="261" y="306" text-anchor="middle" dominant-baseline="central" transform="matrix(1 0 0 1 -62 -62)">Отправить код в выбраный</text><text fill="#000000" stroke="none" font-family="Arial" font-size="16px" font-style="normal" font-weight="normal" text-decoration="undefined" x="261" y="322" text-anchor="middle" dominant-baseline="central" transform="matrix(1 0 0 1 -62 -62)">способ восстановления</text></g></g><g><path fill="#ffffff" stroke="none" paint-order="stroke fill markers" d=" M 74 334 L 395.03125 334 L 331.03125 370 L 10 370 L 74 334"/></g><g><path fill="none" stroke="#000000" paint-order="fill stroke markers" d=" M 74 334 L 395.03125 334 L 331.03125 370 L 10 370 L 74 334 L 74 334" stroke-miterlimit="10" stroke-dasharray=""/></g><g><g><path fill="none" stroke="none"/><text fill="#000000" stroke="none" font-family="Arial" font-size="16px" font-style="normal" font-weight="normal" text-decoration="undefined" x="264.515625" y="414" text-anchor="middle" dominant-baseline="central" transform="matrix(1 0 0 1 -62 -62)">PostAccountRecoveryRequestResponse</text></g></g><g><path fill="none" stroke="#000000" paint-order="fill stroke markers" d=" M 195 62 L 195 118" stroke-miterlimit="10" stroke-dasharray=""/></g><g><path fill="#000000" stroke="none" paint-order="stroke fill markers" d=" M 190.790482243984 107.83732514237585 L 195 118 L 199.209517756016 107.83732514237585"/></g><g><path fill="none" stroke="#000000" paint-order="fill stroke markers" d=" M 190.790482243984 107.83732514237585 L 195 118 L 199.209517756016 107.83732514237585 L 190.790482243984 107.83732514237585" stroke-miterlimit="10" stroke-dasharray=""/></g><g><path fill="none" stroke="#000000" paint-order="fill stroke markers" d=" M 209 154 L 209 226" stroke-miterlimit="10" stroke-dasharray=""/></g><g><path fill="#000000" stroke="none" paint-order="stroke fill markers" d=" M 204.790482243984 215.83732514237585 L 209 226 L 213.209517756016 215.83732514237585"/></g><g><path fill="none" stroke="#000000" paint-order="fill stroke markers" d=" M 204.790482243984 215.83732514237585 L 209 226 L 213.209517756016 215.83732514237585 L 204.790482243984 215.83732514237585" stroke-miterlimit="10" stroke-dasharray=""/></g><g><path fill="none" stroke="#000000" paint-order="fill stroke markers" d=" M 200 278 L 200 334" stroke-miterlimit="10" stroke-dasharray=""/></g><g><path fill="#000000" stroke="none" paint-order="stroke fill markers" d=" M 195.790482243984 323.83732514237585 L 200 334 L 204.209517756016 323.83732514237585"/></g><g><path fill="none" stroke="#000000" paint-order="fill stroke markers" d=" M 195.790482243984 323.83732514237585 L 200 334 L 204.209517756016 323.83732514237585 L 195.790482243984 323.83732514237585" stroke-miterlimit="10" stroke-dasharray=""/></g><g><rect fill="#ffffff" stroke="none" x="540" y="72" width="316" height="52" transform="matrix(1 0 0 1 -62 -62)"/></g><g><path fill="#ffffff" stroke="none" paint-order="stroke fill markers" d=" M 794 10 A 26 26 0 0 1 794 62"/></g><g><path fill="none" stroke="#000000" paint-order="fill stroke markers" d=" M 478 10 L 478 62" stroke-miterlimit="10" stroke-dasharray=""/></g><g><path fill="none" stroke="#000000" paint-order="fill stroke markers" d=" M 478 10 L 794 10" stroke-miterlimit="10" stroke-dasharray=""/></g><g><path fill="none" stroke="#000000" paint-order="fill stroke markers" d=" M 478 62 L 794 62" stroke-miterlimit="10" stroke-dasharray=""/></g><g><path fill="none" stroke="#000000" paint-order="fill stroke markers" d=" M 794 10 A 26 26 0 0 1 794 62" stroke-miterlimit="10" stroke-dasharray=""/></g><g><g><path fill="none" stroke="none"/><text fill="#000000" stroke="none" font-family="Arial" font-size="16px" font-style="normal" font-weight="normal" text-decoration="undefined" x="678.25" y="90" text-anchor="middle" dominant-baseline="central" transform="matrix(1 0 0 1 -62 -62)">POST</text><text fill="#000000" stroke="none" font-family="Arial" font-size="16px" font-style="normal" font-weight="normal" text-decoration="undefined" x="678.25" y="106" text-anchor="middle" dominant-baseline="central" transform="matrix(1 0 0 1 -62 -62)">/accounts/recovery/verify-code</text></g></g><g><path fill="#ffffff" stroke="none" paint-order="stroke fill markers" d=" M 505 118 L 820 118 L 757 154 L 442 154 L 505 118"/></g><g><path fill="none" stroke="#000000" paint-order="fill stroke markers" d=" M 505 118 L 820 118 L 757 154 L 442 154 L 505 118 L 505 118" stroke-miterlimit="10" stroke-dasharray=""/></g><g><g><path fill="none" stroke="none"/><text fill="#000000" stroke="none" font-family="Arial" font-size="16px" font-style="normal" font-weight="normal" text-decoration="undefined" x="693" y="198" text-anchor="middle" dominant-baseline="central" transform="matrix(1 0 0 1 -62 -62)">PostAccountRecoveryVerifyCodeRequest</text></g></g><g><rect fill="#ffffff" stroke="none" x="522" y="360" width="360" height="52" transform="matrix(1 0 0 1 -62 -62)"/></g><g><path fill="none" stroke="#000000" paint-order="fill stroke markers" d=" M 460 298 L 820 298 L 820 350 L 460 350 L 460 298 Z Z" stroke-miterlimit="10" stroke-dasharray=""/></g><g><g><path fill="none" stroke="none"/><text fill="#000000" stroke="none" font-family="Arial" font-size="16px" font-style="normal" font-weight="normal" text-decoration="undefined" x="702" y="378" text-anchor="middle" dominant-baseline="central" transform="matrix(1 0 0 1 -62 -62)">Обработать запрос на восстановление</text><text fill="#000000" stroke="none" font-family="Arial" font-size="16px" font-style="normal" font-weight="normal" text-decoration="undefined" x="702" y="394" text-anchor="middle" dominant-baseline="central" transform="matrix(1 0 0 1 -62 -62)">доступа к аккаунту</text></g></g><g><path fill="#ffffff" stroke="none" paint-order="stroke fill markers" d=" M 523 424 L 838 424 L 775 460 L 460 460 L 523 424"/></g><g><path fill="none" stroke="#000000" paint-order="fill stroke markers" d=" M 523 424 L 838 424 L 775 460 L 460 460 L 523 424 L 523 424" stroke-miterlimit="10" stroke-dasharray=""/></g><g><g><path fill="none" stroke="none"/><text fill="#000000" stroke="none" font-family="Arial" font-size="16px" font-style="normal" font-weight="normal" text-decoration="undefined" x="711" y="504" text-anchor="middle" dominant-baseline="central" transform="matrix(1 0 0 1 -62 -62)">PostAccountRecoveryVerifyCodeResponse</text></g></g><g><path fill="none" stroke="#000000" paint-order="fill stroke markers" d=" M 644 62 L 644 118" stroke-miterlimit="10" stroke-dasharray=""/></g><g><path fill="#000000" stroke="none" paint-order="stroke fill markers" d=" M 639.790482243984 107.83732514237585 L 644 118 L 648.209517756016 107.83732514237585"/></g><g><path fill="none" stroke="#000000" paint-order="fill stroke markers" d=" M 639.790482243984 107.83732514237585 L 644 118 L 648.209517756016 107.83732514237585 L 639.790482243984 107.83732514237585" stroke-miterlimit="10" stroke-dasharray=""/></g><g><path fill="none" stroke="#000000" paint-order="fill stroke markers" d=" M 642 350 L 642 424" stroke-miterlimit="10" stroke-dasharray=""/></g><g><path fill="#000000" stroke="none" paint-order="stroke fill markers" d=" M 637.790482243984 413.83732514237585 L 642 424 L 646.209517756016 413.83732514237585"/></g><g><path fill="none" stroke="#000000" paint-order="fill stroke markers" d=" M 637.790482243984 413.83732514237585 L 642 424 L 646.209517756016 413.83732514237585 L 637.790482243984 413.83732514237585" stroke-miterlimit="10" stroke-dasharray=""/></g><g><rect fill="#ffffff" stroke="none" x="1062" y="72" width="352" height="52" transform="matrix(1 0 0 1 -62 -62)"/></g><g><path fill="#ffffff" stroke="none" paint-order="stroke fill markers" d=" M 1352 10 A 26 26 0 0 1 1352 62"/></g><g><path fill="none" stroke="#000000" paint-order="fill stroke markers" d=" M 1000 10 L 1000 62" stroke-miterlimit="10" stroke-dasharray=""/></g><g><path fill="none" stroke="#000000" paint-order="fill stroke markers" d=" M 1000 10 L 1352 10" stroke-miterlimit="10" stroke-dasharray=""/></g><g><path fill="none" stroke="#000000" paint-order="fill stroke markers" d=" M 1000 62 L 1352 62" stroke-miterlimit="10" stroke-dasharray=""/></g><g><path fill="none" stroke="#000000" paint-order="fill stroke markers" d=" M 1352 10 A 26 26 0 0 1 1352 62" stroke-miterlimit="10" stroke-dasharray=""/></g><g><g><path fill="none" stroke="none"/><text fill="#000000" stroke="none" font-family="Arial" font-size="16px" font-style="normal" font-weight="normal" text-decoration="undefined" x="1213.75" y="90" text-anchor="middle" dominant-baseline="central" transform="matrix(1 0 0 1 -62 -62)">POST</text><text fill="#000000" stroke="none" font-family="Arial" font-size="16px" font-style="normal" font-weight="normal" text-decoration="undefined" x="1213.75" y="106" text-anchor="middle" dominant-baseline="central" transform="matrix(1 0 0 1 -62 -62)">/accounts/recovery/restore-access</text></g></g><g><path fill="#ffffff" stroke="none" paint-order="stroke fill markers" d=" M 1006 118 L 1396 118 L 1318 154 L 928 154 L 1006 118"/></g><g><path fill="none" stroke="#000000" paint-order="fill stroke markers" d=" M 1006 118 L 1396 118 L 1318 154 L 928 154 L 1006 118 L 1006 118" stroke-miterlimit="10" stroke-dasharray=""/></g><g><g><path fill="none" stroke="none"/><text fill="#000000" stroke="none" font-family="Arial" font-size="16px" font-style="normal" font-weight="normal" text-decoration="undefined" x="1224" y="198" text-anchor="middle" dominant-baseline="central" transform="matrix(1 0 0 1 -62 -62)">PostAccountsRecoveryRestoreAccessRequest</text></g></g><g><rect fill="#ffffff" stroke="none" x="1026" y="288" width="396" height="36" transform="matrix(1 0 0 1 -62 -62)"/></g><g><path fill="none" stroke="#000000" paint-order="fill stroke markers" d=" M 964 226 L 1360 226 L 1360 262 L 964 262 L 964 226 Z Z" stroke-miterlimit="10" stroke-dasharray=""/></g><g><g><path fill="none" stroke="none"/><text fill="#000000" stroke="none" font-family="Arial" font-size="16px" font-style="normal" font-weight="normal" text-decoration="undefined" x="1224" y="306" text-anchor="middle" dominant-baseline="central" transform="matrix(1 0 0 1 -62 -62)">Заменить способ авторизации</text></g></g><g><path fill="#ffffff" stroke="none" paint-order="stroke fill markers" d=" M 1018 352 L 1378 352 L 1306 388 L 946 388 L 1018 352"/></g><g><path fill="none" stroke="#000000" paint-order="fill stroke markers" d=" M 1018 352 L 1378 352 L 1306 388 L 946 388 L 1018 352 L 1018 352" stroke-miterlimit="10" stroke-dasharray=""/></g><g><g><path fill="none" stroke="none"/><text fill="#000000" stroke="none" font-family="Arial" font-size="16px" font-style="normal" font-weight="normal" text-decoration="undefined" x="1224" y="432" text-anchor="middle" dominant-baseline="central" transform="matrix(1 0 0 1 -62 -62)">PostAccountsRecoveryRestoreAccessResponse</text></g></g><g><path fill="none" stroke="#000000" paint-order="fill stroke markers" d=" M 1182 62 L 1182 118" stroke-miterlimit="10" stroke-dasharray=""/></g><g><path fill="#000000" stroke="none" paint-order="stroke fill markers" d=" M 1177.7904822439841 107.83732514237585 L 1182 118 L 1186.2095177560159 107.83732514237585"/></g><g><path fill="none" stroke="#000000" paint-order="fill stroke markers" d=" M 1177.7904822439841 107.83732514237585 L 1182 118 L 1186.2095177560159 107.83732514237585 L 1177.7904822439841 107.83732514237585" stroke-miterlimit="10" stroke-dasharray=""/></g><g><path fill="none" stroke="#000000" paint-order="fill stroke markers" d=" M 1162 154 L 1162 226" stroke-miterlimit="10" stroke-dasharray=""/></g><g><path fill="#000000" stroke="none" paint-order="stroke fill markers" d=" M 1157.7904822439841 215.83732514237585 L 1162 226 L 1166.2095177560159 215.83732514237585"/></g><g><path fill="none" stroke="#000000" paint-order="fill stroke markers" d=" M 1157.7904822439841 215.83732514237585 L 1162 226 L 1166.2095177560159 215.83732514237585 L 1157.7904822439841 215.83732514237585" stroke-miterlimit="10" stroke-dasharray=""/></g><g><path fill="none" stroke="#000000" paint-order="fill stroke markers" d=" M 1162 262 L 1162 352" stroke-miterlimit="10" stroke-dasharray=""/></g><g><path fill="#000000" stroke="none" paint-order="stroke fill markers" d=" M 1157.7904822439841 341.83732514237585 L 1162 352 L 1166.2095177560159 341.83732514237585"/></g><g><path fill="none" stroke="#000000" paint-order="fill stroke markers" d=" M 1157.7904822439841 341.83732514237585 L 1162 352 L 1166.2095177560159 341.83732514237585 L 1157.7904822439841 341.83732514237585" stroke-miterlimit="10" stroke-dasharray=""/></g><g><path fill="#ffffff" stroke="none" paint-order="stroke fill markers" d=" M 452 208 L 828 208 Q 838 208 838 218 L 838 234 Q 838 244 828 244 L 452 244 Q 442 244 442 234 L 442 218 Q 442 208 452 208 Z"/></g><g><path fill="none" stroke="#000000" paint-order="fill stroke markers" d=" M 452 208 L 828 208 Q 838 208 838 218 L 838 234 Q 838 244 828 244 L 452 244 Q 442 244 442 234 L 442 218 Q 442 208 452 208 Z" stroke-miterlimit="10" stroke-dasharray=""/></g><g><g><path fill="none" stroke="none"/><text fill="#000000" stroke="none" font-family="Arial" font-size="16px" font-style="normal" font-weight="normal" text-decoration="undefined" x="702" y="288" text-anchor="middle" dominant-baseline="central" transform="matrix(1 0 0 1 -62 -62)">Прошло меньше 10 минут после запроса</text></g></g><g><path fill="none" stroke="#000000" paint-order="fill stroke markers" d=" M 633 154 L 633 208" stroke-miterlimit="10" stroke-dasharray=""/></g><g><path fill="#000000" stroke="none" paint-order="stroke fill markers" d=" M 628.790482243984 197.83732514237585 L 633 208 L 637.209517756016 197.83732514237585"/></g><g><path fill="none" stroke="#000000" paint-order="fill stroke markers" d=" M 628.790482243984 197.83732514237585 L 633 208 L 637.209517756016 197.83732514237585 L 628.790482243984 197.83732514237585" stroke-miterlimit="10" stroke-dasharray=""/></g><g><path fill="none" stroke="#000000" paint-order="fill stroke markers" d=" M 640 244 L 640 298" stroke-miterlimit="10" stroke-dasharray=""/></g><g><path fill="#000000" stroke="none" paint-order="stroke fill markers" d=" M 635.790482243984 287.83732514237585 L 640 298 L 644.209517756016 287.83732514237585"/></g><g><path fill="none" stroke="#000000" paint-order="fill stroke markers" d=" M 635.790482243984 287.83732514237585 L 640 298 L 644.209517756016 287.83732514237585 L 635.790482243984 287.83732514237585" stroke-miterlimit="10" stroke-dasharray=""/></g></g></svg>