<svg version="1.1" xmlns="http://www.w3.org/2000/svg" xmlns:xlink="http://www.w3.org/1999/xlink" width="902" height="1928"><defs/><g><g><path fill="none" stroke="#000000" paint-order="fill stroke markers" d=" M 10 10 L 424 10 L 424 1918 L 10 1918 L 10 10 Z Z" stroke-miterlimit="10" stroke-dasharray=""/></g><g><path fill="none" stroke="#000000" paint-order="fill stroke markers" d=" M 10 36 L 424 36" stroke-miterlimit="10" stroke-dasharray=""/></g><g><g><path fill="none" stroke="none"/><text fill="#000000" stroke="none" font-family="Arial" font-size="16px" font-style="normal" font-weight="normal" text-decoration="undefined" x="423" y="77" text-anchor="middle" dominant-baseline="text-before-edge" transform="matrix(1 0 0 1 -206 -62)">Пользователь</text></g></g><g><path fill="none" stroke="#000000" paint-order="fill stroke markers" d=" M 424 10 L 676 10 L 676 1918 L 424 1918 L 424 10 Z Z" stroke-miterlimit="10" stroke-dasharray=""/></g><g><path fill="none" stroke="#000000" paint-order="fill stroke markers" d=" M 424 36 L 676 36" stroke-miterlimit="10" stroke-dasharray=""/></g><g><g><path fill="none" stroke="none"/><text fill="#000000" stroke="none" font-family="Arial" font-size="16px" font-style="normal" font-weight="normal" text-decoration="undefined" x="756" y="77" text-anchor="middle" dominant-baseline="text-before-edge" transform="matrix(1 0 0 1 -206 -62)">Сервис авторизации гугл</text></g></g><g><path fill="none" stroke="#000000" paint-order="fill stroke markers" d=" M 676 10 L 892 10 L 892 1918 L 676 1918 L 676 10 Z Z" stroke-miterlimit="10" stroke-dasharray=""/></g><g><path fill="none" stroke="#000000" paint-order="fill stroke markers" d=" M 676 36 L 892 36" stroke-miterlimit="10" stroke-dasharray=""/></g><g><g><path fill="none" stroke="none"/><text fill="#000000" stroke="none" font-family="Arial" font-size="16px" font-style="normal" font-weight="normal" text-decoration="undefined" x="990" y="77" text-anchor="middle" dominant-baseline="text-before-edge" transform="matrix(1 0 0 1 -206 -62)">Api</text></g></g><g><path fill="#C0C0C0" stroke="none" paint-order="stroke fill markers" d=" M 197 105 C 197 96.16344319999999 204.16344320000002 89 213 89 C 221.83655679999998 89 229 96.16344319999999 229 105 C 229 113.83655680000001 221.83655679999998 121 213 121 C 204.16344320000002 121 197 113.83655680000001 197 105 Z" fill-opacity="0.2"/></g><g><path fill="#ffffff" stroke="none" paint-order="stroke fill markers" d=" M 190 98 C 190 89.16344319999999 197.16344320000002 82 206 82 C 214.83655679999998 82 222 89.16344319999999 222 98 C 222 106.83655680000001 214.83655679999998 114 206 114 C 197.16344320000002 114 190 106.83655680000001 190 98 Z"/></g><g><path fill="none" stroke="#000000" paint-order="fill stroke markers" d=" M 190 98 C 190 89.16344319999999 197.16344320000002 82 206 82 C 214.83655679999998 82 222 89.16344319999999 222 98 C 222 106.83655680000001 214.83655679999998 114 206 114 C 197.16344320000002 114 190 106.83655680000001 190 98 Z" stroke-miterlimit="10" stroke-dasharray=""/></g><g><rect fill="#ffffff" stroke="none" x="328.22265625" y="188" width="167.5546875" height="16" transform="matrix(1 0 0 1 -206 -62)"/></g><g><g><path fill="none" stroke="none"/><text fill="#000000" stroke="none" font-family="Arial" font-size="16px" font-style="normal" font-weight="normal" text-decoration="undefined" x="412" y="196" text-anchor="middle" dominant-baseline="central" transform="matrix(1 0 0 1 -206 -62)">Открытие приложения</text></g></g><g><path fill="#C0C0C0" stroke="none" paint-order="stroke fill markers" d=" M 171 233 L 282.8046875 233 Q 292.8046875 233 292.8046875 243 L 292.8046875 281 Q 292.8046875 291 282.8046875 291 L 171 291 Q 161 291 161 281 L 161 243 Q 161 233 171 233 Z" fill-opacity="0.2"/></g><g><path fill="#ffffff" stroke="none" paint-order="stroke fill markers" d=" M 164 226 L 275.8046875 226 Q 285.8046875 226 285.8046875 236 L 285.8046875 274 Q 285.8046875 284 275.8046875 284 L 164 284 Q 154 284 154 274 L 154 236 Q 154 226 164 226 Z"/></g><g><path fill="none" stroke="#000000" paint-order="fill stroke markers" d=" M 164 226 L 275.8046875 226 Q 285.8046875 226 285.8046875 236 L 285.8046875 274 Q 285.8046875 284 275.8046875 284 L 164 284 Q 154 284 154 274 L 154 236 Q 154 226 164 226 Z" stroke-miterlimit="10" stroke-dasharray=""/></g><g><path fill="none" stroke="#000000" paint-order="fill stroke markers" d=" M 164 235 C 164 233.3431456 165.3431456 232 167 232 C 168.6568544 232 170 233.3431456 170 235 C 170 236.6568544 168.6568544 238 167 238 C 165.3431456 238 164 236.6568544 164 235 Z" stroke-miterlimit="10" stroke-dasharray=""/></g><g><path fill="none" stroke="#000000" paint-order="fill stroke markers" d=" M 162 239 L 172 239 L 172 246 L 162 246 L 162 239 Z Z" stroke-miterlimit="10" stroke-dasharray=""/></g><g><g><path fill="none" stroke="none"/><text fill="#000000" stroke="none" font-family="Arial" font-size="16px" font-style="normal" font-weight="normal" text-decoration="undefined" x="425.90234375" y="301" text-anchor="middle" dominant-baseline="central" transform="matrix(1 0 0 1 -206 -62)">Нажать кнопку</text><text fill="#000000" stroke="none" font-family="Arial" font-size="16px" font-style="normal" font-weight="normal" text-decoration="undefined" x="425.90234375" y="317" text-anchor="middle" dominant-baseline="central" transform="matrix(1 0 0 1 -206 -62)">"Авторизация</text><text fill="#000000" stroke="none" font-family="Arial" font-size="16px" font-style="normal" font-weight="normal" text-decoration="undefined" x="425.90234375" y="333" text-anchor="middle" dominant-baseline="central" transform="matrix(1 0 0 1 -206 -62)">через Google"</text></g></g><g><path fill="#C0C0C0" stroke="none" paint-order="stroke fill markers" d=" M 197 503 L 219.39999999999998 503 L 229 512.6 L 229 543 L 197 543" fill-opacity="0.2"/></g><g><path fill="#ffffff" stroke="none" paint-order="stroke fill markers" d=" M 190 496 L 212.39999999999998 496 L 222 505.6 L 222 536 L 190 536"/></g><g><path fill="none" stroke="#000000" paint-order="fill stroke markers" d=" M 190 496 L 212.39999999999998 496 L 222 505.6 L 222 536 L 190 536 L 190 496" stroke-miterlimit="10" stroke-dasharray=""/></g><g><path fill="none" stroke="#000000" paint-order="fill stroke markers" d=" M 212.39999999999998 496 L 212.39999999999998 505.6 L 222 505.6 L 212.39999999999998 496" stroke-miterlimit="10" stroke-dasharray=""/></g><g><rect fill="#ffffff" stroke="none" x="327.53515625" y="606" width="168.9296875" height="16" transform="matrix(1 0 0 1 -206 -62)"/></g><g><g><path fill="none" stroke="none"/><text fill="#000000" stroke="none" font-family="Arial" font-size="16px" font-style="normal" font-weight="normal" text-decoration="undefined" x="412" y="614" text-anchor="middle" dominant-baseline="central" transform="matrix(1 0 0 1 -206 -62)">Окно авторизации гугл</text></g></g><g><path fill="#C0C0C0" stroke="none" paint-order="stroke fill markers" d=" M 197 681 L 213 665 L 229 681 L 213 697 L 197 681" fill-opacity="0.2"/></g><g><path fill="#ffffff" stroke="none" paint-order="stroke fill markers" d=" M 190 674 L 206 658 L 222 674 L 206 690 L 190 674"/></g><g><path fill="none" stroke="#000000" paint-order="fill stroke markers" d=" M 190 674 L 206 658 L 222 674 L 206 690 L 190 674 L 190 674" stroke-miterlimit="10" stroke-dasharray=""/></g><g><rect fill="#ffffff" stroke="none" x="319.078125" y="764" width="185.84375" height="16" transform="matrix(1 0 0 1 -206 -62)"/></g><g><g><path fill="none" stroke="none"/><text fill="#000000" stroke="none" font-family="Arial" font-size="16px" font-style="normal" font-weight="normal" text-decoration="undefined" x="412" y="772" text-anchor="middle" dominant-baseline="central" transform="matrix(1 0 0 1 -206 -62)">Несколько аккаунтов</text></g></g><g><path fill="#C0C0C0" stroke="none" paint-order="stroke fill markers" d=" M 495 341 L 596.8359375 341 Q 606.8359375 341 606.8359375 351 L 606.8359375 421 Q 606.8359375 431 596.8359375 431 L 495 431 Q 485 431 485 421 L 485 351 Q 485 341 495 341 Z" fill-opacity="0.2"/></g><g><path fill="#ffffff" stroke="none" paint-order="stroke fill markers" d=" M 488 334 L 589.8359375 334 Q 599.8359375 334 599.8359375 344 L 599.8359375 414 Q 599.8359375 424 589.8359375 424 L 488 424 Q 478 424 478 414 L 478 344 Q 478 334 488 334 Z"/></g><g><path fill="none" stroke="#000000" paint-order="fill stroke markers" d=" M 488 334 L 589.8359375 334 Q 599.8359375 334 599.8359375 344 L 599.8359375 414 Q 599.8359375 424 589.8359375 424 L 488 424 Q 478 424 478 414 L 478 344 Q 478 334 488 334 Z" stroke-miterlimit="10" stroke-dasharray=""/></g><g><g><path fill="none" stroke="none"/><text fill="#000000" stroke="none" font-family="Arial" font-size="16px" font-style="normal" font-weight="normal" text-decoration="undefined" x="744.91796875" y="409" text-anchor="middle" dominant-baseline="central" transform="matrix(1 0 0 1 -206 -62)">Сгенерировать</text><text fill="#000000" stroke="none" font-family="Arial" font-size="16px" font-style="normal" font-weight="normal" text-decoration="undefined" x="744.91796875" y="425" text-anchor="middle" dominant-baseline="central" transform="matrix(1 0 0 1 -206 -62)">ссылку на</text><text fill="#000000" stroke="none" font-family="Arial" font-size="16px" font-style="normal" font-weight="normal" text-decoration="undefined" x="744.91796875" y="441" text-anchor="middle" dominant-baseline="central" transform="matrix(1 0 0 1 -206 -62)">авторизацию</text><text fill="#000000" stroke="none" font-family="Arial" font-size="16px" font-style="normal" font-weight="normal" text-decoration="undefined" x="744.91796875" y="457" text-anchor="middle" dominant-baseline="central" transform="matrix(1 0 0 1 -206 -62)">для</text><text fill="#000000" stroke="none" font-family="Arial" font-size="16px" font-style="normal" font-weight="normal" text-decoration="undefined" x="744.91796875" y="473" text-anchor="middle" dominant-baseline="central" transform="matrix(1 0 0 1 -206 -62)">пользователя</text></g></g><g><path fill="#C0C0C0" stroke="none" paint-order="stroke fill markers" d=" M 81 773 L 159.0234375 773 Q 169.0234375 773 169.0234375 783 L 169.0234375 805 Q 169.0234375 815 159.0234375 815 L 81 815 Q 71 815 71 805 L 71 783 Q 71 773 81 773 Z" fill-opacity="0.2"/></g><g><path fill="#ffffff" stroke="none" paint-order="stroke fill markers" d=" M 74 766 L 152.0234375 766 Q 162.0234375 766 162.0234375 776 L 162.0234375 798 Q 162.0234375 808 152.0234375 808 L 74 808 Q 64 808 64 798 L 64 776 Q 64 766 74 766 Z"/></g><g><path fill="none" stroke="#000000" paint-order="fill stroke markers" d=" M 74 766 L 152.0234375 766 Q 162.0234375 766 162.0234375 776 L 162.0234375 798 Q 162.0234375 808 152.0234375 808 L 74 808 Q 64 808 64 798 L 64 776 Q 64 766 74 766 Z" stroke-miterlimit="10" stroke-dasharray=""/></g><g><g><path fill="none" stroke="none"/><text fill="#000000" stroke="none" font-family="Arial" font-size="16px" font-style="normal" font-weight="normal" text-decoration="undefined" x="319.01171875" y="841" text-anchor="middle" dominant-baseline="central" transform="matrix(1 0 0 1 -206 -62)">Выбрать</text><text fill="#000000" stroke="none" font-family="Arial" font-size="16px" font-style="normal" font-weight="normal" text-decoration="undefined" x="319.01171875" y="857" text-anchor="middle" dominant-baseline="central" transform="matrix(1 0 0 1 -206 -62)">аккаунт</text></g></g><g><path fill="#C0C0C0" stroke="none" paint-order="stroke fill markers" d=" M 279 773 L 366.265625 773 Q 376.265625 773 376.265625 783 L 376.265625 821 Q 376.265625 831 366.265625 831 L 279 831 Q 269 831 269 821 L 269 783 Q 269 773 279 773 Z" fill-opacity="0.2"/></g><g><path fill="#ffffff" stroke="none" paint-order="stroke fill markers" d=" M 272 766 L 359.265625 766 Q 369.265625 766 369.265625 776 L 369.265625 814 Q 369.265625 824 359.265625 824 L 272 824 Q 262 824 262 814 L 262 776 Q 262 766 272 766 Z"/></g><g><path fill="none" stroke="#000000" paint-order="fill stroke markers" d=" M 272 766 L 359.265625 766 Q 369.265625 766 369.265625 776 L 369.265625 814 Q 369.265625 824 359.265625 824 L 272 824 Q 262 824 262 814 L 262 776 Q 262 766 272 766 Z" stroke-miterlimit="10" stroke-dasharray=""/></g><g><g><path fill="none" stroke="none"/><text fill="#000000" stroke="none" font-family="Arial" font-size="16px" font-style="normal" font-weight="normal" text-decoration="undefined" x="521.6328125" y="841" text-anchor="middle" dominant-baseline="central" transform="matrix(1 0 0 1 -206 -62)">Нажимает</text><text fill="#000000" stroke="none" font-family="Arial" font-size="16px" font-style="normal" font-weight="normal" text-decoration="undefined" x="521.6328125" y="857" text-anchor="middle" dominant-baseline="central" transform="matrix(1 0 0 1 -206 -62)">подтвердить</text><text fill="#000000" stroke="none" font-family="Arial" font-size="16px" font-style="normal" font-weight="normal" text-decoration="undefined" x="521.6328125" y="873" text-anchor="middle" dominant-baseline="central" transform="matrix(1 0 0 1 -206 -62)">авторизацию</text></g></g><g><path fill="none" stroke="#000000" paint-order="fill stroke markers" d=" M 207 114 L 207 226" stroke-miterlimit="10" stroke-dasharray=""/></g><g><path fill="#000000" stroke="none" paint-order="stroke fill markers" d=" M 202.790482243984 215.83732514237585 L 207 226 L 211.209517756016 215.83732514237585"/></g><g><path fill="none" stroke="#000000" paint-order="fill stroke markers" d=" M 202.790482243984 215.83732514237585 L 207 226 L 211.209517756016 215.83732514237585 L 202.790482243984 215.83732514237585" stroke-miterlimit="10" stroke-dasharray=""/></g><g><path fill="none" stroke="#000000" paint-order="fill stroke markers" d=" M 219 284 L 219 367 L 219 367 A 8 8 0 0 0 227 375 L 478 375" stroke-miterlimit="10" stroke-dasharray=""/></g><g><path fill="#000000" stroke="none" paint-order="stroke fill markers" d=" M 467.8373251423759 379.209517756016 L 478 375 L 467.8373251423758 370.790482243984"/></g><g><path fill="none" stroke="#000000" paint-order="fill stroke markers" d=" M 467.8373251423759 379.209517756016 L 478 375 L 467.8373251423758 370.790482243984 L 467.8373251423759 379.209517756016" stroke-miterlimit="10" stroke-dasharray=""/></g><g><path fill="none" stroke="#000000" paint-order="fill stroke markers" d=" M 550 424 L 550 503 L 550 503 A 8 8 0 0 1 542 511 L 222 511" stroke-miterlimit="10" stroke-dasharray=""/></g><g><path fill="#000000" stroke="none" paint-order="stroke fill markers" d=" M 232.16267485762415 506.790482243984 L 222 511 L 232.16267485762415 515.209517756016"/></g><g><path fill="none" stroke="#000000" paint-order="fill stroke markers" d=" M 232.16267485762415 506.790482243984 L 222 511 L 232.16267485762415 515.209517756016 L 232.16267485762415 506.790482243984" stroke-miterlimit="10" stroke-dasharray=""/></g><g><path fill="none" stroke="#000000" paint-order="fill stroke markers" d=" M 206 536 L 206 658" stroke-miterlimit="10" stroke-dasharray=""/></g><g><path fill="#000000" stroke="none" paint-order="stroke fill markers" d=" M 201.790482243984 647.8373251423759 L 206 658 L 210.209517756016 647.8373251423759"/></g><g><path fill="none" stroke="#000000" paint-order="fill stroke markers" d=" M 201.790482243984 647.8373251423759 L 206 658 L 210.209517756016 647.8373251423759 L 201.790482243984 647.8373251423759" stroke-miterlimit="10" stroke-dasharray=""/></g><g><path fill="none" stroke="#000000" paint-order="fill stroke markers" d=" M 190 690 L 108 690 L 108 690 A 8 8 0 0 0 100 698 L 100 766" stroke-miterlimit="10" stroke-dasharray=""/></g><g><path fill="#000000" stroke="none" paint-order="stroke fill markers" d=" M 95.790482243984 755.8373251423759 L 100 766 L 104.209517756016 755.8373251423759"/></g><g><path fill="none" stroke="#000000" paint-order="fill stroke markers" d=" M 95.790482243984 755.8373251423759 L 100 766 L 104.209517756016 755.8373251423759 L 95.790482243984 755.8373251423759" stroke-miterlimit="10" stroke-dasharray=""/></g><g><rect fill="#ffffff" stroke="none" x="311" y="743" width="19.734375" height="16" transform="matrix(1 0 0 1 -206 -62)"/></g><g><g><path fill="none" stroke="none"/><text fill="#000000" stroke="none" font-family="Arial" font-size="16px" font-style="normal" font-weight="normal" text-decoration="undefined" x="320.8671875" y="751" text-anchor="middle" dominant-baseline="central" transform="matrix(1 0 0 1 -206 -62)">Да</text></g></g><g><path fill="none" stroke="#000000" paint-order="fill stroke markers" d=" M 222 690 L 308 690 L 308 690 A 8 8 0 0 1 316 698 L 316 766" stroke-miterlimit="10" stroke-dasharray=""/></g><g><path fill="#000000" stroke="none" paint-order="stroke fill markers" d=" M 311.790482243984 755.8373251423759 L 316 766 L 320.209517756016 755.8373251423759"/></g><g><path fill="none" stroke="#000000" paint-order="fill stroke markers" d=" M 311.790482243984 755.8373251423759 L 316 766 L 320.209517756016 755.8373251423759 L 311.790482243984 755.8373251423759" stroke-miterlimit="10" stroke-dasharray=""/></g><g><rect fill="#ffffff" stroke="none" x="523" y="743" width="27.25" height="16" transform="matrix(1 0 0 1 -206 -62)"/></g><g><g><path fill="none" stroke="none"/><text fill="#000000" stroke="none" font-family="Arial" font-size="16px" font-style="normal" font-weight="normal" text-decoration="undefined" x="536.625" y="751" text-anchor="middle" dominant-baseline="central" transform="matrix(1 0 0 1 -206 -62)">Нет</text></g></g><g><path fill="none" stroke="#000000" paint-order="fill stroke markers" d=" M 162 795 L 262 795" stroke-miterlimit="10" stroke-dasharray=""/></g><g><path fill="#000000" stroke="none" paint-order="stroke fill markers" d=" M 251.83732514237585 799.209517756016 L 262 795 L 251.83732514237585 790.790482243984"/></g><g><path fill="none" stroke="#000000" paint-order="fill stroke markers" d=" M 251.83732514237585 799.209517756016 L 262 795 L 251.83732514237585 790.790482243984 L 251.83732514237585 799.209517756016" stroke-miterlimit="10" stroke-dasharray=""/></g><g><path fill="#C0C0C0" stroke="none" paint-order="stroke fill markers" d=" M 495 863 L 586.3203125 863 Q 596.3203125 863 596.3203125 873 L 596.3203125 927 Q 596.3203125 937 586.3203125 937 L 495 937 Q 485 937 485 927 L 485 873 Q 485 863 495 863 Z" fill-opacity="0.2"/></g><g><path fill="#ffffff" stroke="none" paint-order="stroke fill markers" d=" M 488 856 L 579.3203125 856 Q 589.3203125 856 589.3203125 866 L 589.3203125 920 Q 589.3203125 930 579.3203125 930 L 488 930 Q 478 930 478 920 L 478 866 Q 478 856 488 856 Z"/></g><g><path fill="none" stroke="#000000" paint-order="fill stroke markers" d=" M 488 856 L 579.3203125 856 Q 589.3203125 856 589.3203125 866 L 589.3203125 920 Q 589.3203125 930 579.3203125 930 L 488 930 Q 478 930 478 920 L 478 866 Q 478 856 488 856 Z" stroke-miterlimit="10" stroke-dasharray=""/></g><g><g><path fill="none" stroke="none"/><text fill="#000000" stroke="none" font-family="Arial" font-size="16px" font-style="normal" font-weight="normal" text-decoration="undefined" x="739.66015625" y="931" text-anchor="middle" dominant-baseline="central" transform="matrix(1 0 0 1 -206 -62)">Получить код</text><text fill="#000000" stroke="none" font-family="Arial" font-size="16px" font-style="normal" font-weight="normal" text-decoration="undefined" x="739.66015625" y="947" text-anchor="middle" dominant-baseline="central" transform="matrix(1 0 0 1 -206 -62)">для</text><text fill="#000000" stroke="none" font-family="Arial" font-size="16px" font-style="normal" font-weight="normal" text-decoration="undefined" x="739.66015625" y="963" text-anchor="middle" dominant-baseline="central" transform="matrix(1 0 0 1 -206 -62)">авторизации</text><text fill="#000000" stroke="none" font-family="Arial" font-size="16px" font-style="normal" font-weight="normal" text-decoration="undefined" x="739.66015625" y="979" text-anchor="middle" dominant-baseline="central" transform="matrix(1 0 0 1 -206 -62)">пользователя</text></g></g><g><path fill="none" stroke="#000000" paint-order="fill stroke markers" d=" M 345 824 L 345 885 L 345 885 A 8 8 0 0 0 353 893 L 478 893" stroke-miterlimit="10" stroke-dasharray=""/></g><g><path fill="#000000" stroke="none" paint-order="stroke fill markers" d=" M 467.8373251423759 897.209517756016 L 478 893 L 467.8373251423758 888.790482243984"/></g><g><path fill="none" stroke="#000000" paint-order="fill stroke markers" d=" M 467.8373251423759 897.209517756016 L 478 893 L 467.8373251423758 888.790482243984 L 467.8373251423759 897.209517756016" stroke-miterlimit="10" stroke-dasharray=""/></g><g><path fill="#C0C0C0" stroke="none" paint-order="stroke fill markers" d=" M 279 971 L 357.0234375 971 Q 367.0234375 971 367.0234375 981 L 367.0234375 1003 Q 367.0234375 1013 357.0234375 1013 L 279 1013 Q 269 1013 269 1003 L 269 981 Q 269 971 279 971 Z" fill-opacity="0.2"/></g><g><path fill="#ffffff" stroke="none" paint-order="stroke fill markers" d=" M 272 964 L 350.0234375 964 Q 360.0234375 964 360.0234375 974 L 360.0234375 996 Q 360.0234375 1006 350.0234375 1006 L 272 1006 Q 262 1006 262 996 L 262 974 Q 262 964 272 964 Z"/></g><g><path fill="none" stroke="#000000" paint-order="fill stroke markers" d=" M 272 964 L 350.0234375 964 Q 360.0234375 964 360.0234375 974 L 360.0234375 996 Q 360.0234375 1006 350.0234375 1006 L 272 1006 Q 262 1006 262 996 L 262 974 Q 262 964 272 964 Z" stroke-miterlimit="10" stroke-dasharray=""/></g><g><g><path fill="none" stroke="none"/><text fill="#000000" stroke="none" font-family="Arial" font-size="16px" font-style="normal" font-weight="normal" text-decoration="undefined" x="517.01171875" y="1039" text-anchor="middle" dominant-baseline="central" transform="matrix(1 0 0 1 -206 -62)">Отправка</text><text fill="#000000" stroke="none" font-family="Arial" font-size="16px" font-style="normal" font-weight="normal" text-decoration="undefined" x="517.01171875" y="1055" text-anchor="middle" dominant-baseline="central" transform="matrix(1 0 0 1 -206 -62)">кода</text></g></g><g><path fill="none" stroke="#000000" paint-order="fill stroke markers" d=" M 550 930 L 550 977 L 550 977 A 8 8 0 0 1 542 985 L 360 985" stroke-miterlimit="10" stroke-dasharray=""/></g><g><path fill="#000000" stroke="none" paint-order="stroke fill markers" d=" M 370.1626748576241 980.7904822439841 L 360 985 L 370.1626748576241 989.2095177560159"/></g><g><path fill="none" stroke="#000000" paint-order="fill stroke markers" d=" M 370.1626748576241 980.7904822439841 L 360 985 L 370.1626748576241 989.2095177560159 L 370.1626748576241 980.7904822439841" stroke-miterlimit="10" stroke-dasharray=""/></g><g><path fill="#C0C0C0" stroke="none" paint-order="stroke fill markers" d=" M 747 1025 L 831.203125 1025 Q 841.203125 1025 841.203125 1035 L 841.203125 1089 Q 841.203125 1099 831.203125 1099 L 747 1099 Q 737 1099 737 1089 L 737 1035 Q 737 1025 747 1025 Z" fill-opacity="0.2"/></g><g><path fill="#ffffff" stroke="none" paint-order="stroke fill markers" d=" M 740 1018 L 824.203125 1018 Q 834.203125 1018 834.203125 1028 L 834.203125 1082 Q 834.203125 1092 824.203125 1092 L 740 1092 Q 730 1092 730 1082 L 730 1028 Q 730 1018 740 1018 Z"/></g><g><path fill="none" stroke="#000000" paint-order="fill stroke markers" d=" M 740 1018 L 824.203125 1018 Q 834.203125 1018 834.203125 1028 L 834.203125 1082 Q 834.203125 1092 824.203125 1092 L 740 1092 Q 730 1092 730 1082 L 730 1028 Q 730 1018 740 1018 Z" stroke-miterlimit="10" stroke-dasharray=""/></g><g><g><path fill="none" stroke="none"/><text fill="#000000" stroke="none" font-family="Arial" font-size="16px" font-style="normal" font-weight="normal" text-decoration="undefined" x="988.1015625" y="1093" text-anchor="middle" dominant-baseline="central" transform="matrix(1 0 0 1 -206 -62)">получение</text><text fill="#000000" stroke="none" font-family="Arial" font-size="16px" font-style="normal" font-weight="normal" text-decoration="undefined" x="988.1015625" y="1109" text-anchor="middle" dominant-baseline="central" transform="matrix(1 0 0 1 -206 -62)">кода</text><text fill="#000000" stroke="none" font-family="Arial" font-size="16px" font-style="normal" font-weight="normal" text-decoration="undefined" x="988.1015625" y="1125" text-anchor="middle" dominant-baseline="central" transform="matrix(1 0 0 1 -206 -62)">авторизации</text><text fill="#000000" stroke="none" font-family="Arial" font-size="16px" font-style="normal" font-weight="normal" text-decoration="undefined" x="988.1015625" y="1141" text-anchor="middle" dominant-baseline="central" transform="matrix(1 0 0 1 -206 -62)">через гугл</text></g></g><g><path fill="#C0C0C0" stroke="none" paint-order="stroke fill markers" d=" M 747 1151 L 838.3203125 1151 Q 848.3203125 1151 848.3203125 1161 L 848.3203125 1247 Q 848.3203125 1257 838.3203125 1257 L 747 1257 Q 737 1257 737 1247 L 737 1161 Q 737 1151 747 1151 Z" fill-opacity="0.2"/></g><g><path fill="#ffffff" stroke="none" paint-order="stroke fill markers" d=" M 740 1144 L 831.3203125 1144 Q 841.3203125 1144 841.3203125 1154 L 841.3203125 1240 Q 841.3203125 1250 831.3203125 1250 L 740 1250 Q 730 1250 730 1240 L 730 1154 Q 730 1144 740 1144 Z"/></g><g><path fill="none" stroke="#000000" paint-order="fill stroke markers" d=" M 740 1144 L 831.3203125 1144 Q 841.3203125 1144 841.3203125 1154 L 841.3203125 1240 Q 841.3203125 1250 831.3203125 1250 L 740 1250 Q 730 1250 730 1240 L 730 1154 Q 730 1144 740 1144 Z" stroke-miterlimit="10" stroke-dasharray=""/></g><g><g><path fill="none" stroke="none"/><text fill="#000000" stroke="none" font-family="Arial" font-size="16px" font-style="normal" font-weight="normal" text-decoration="undefined" x="991.66015625" y="1219" text-anchor="middle" dominant-baseline="central" transform="matrix(1 0 0 1 -206 -62)">Запрос на</text><text fill="#000000" stroke="none" font-family="Arial" font-size="16px" font-style="normal" font-weight="normal" text-decoration="undefined" x="991.66015625" y="1235" text-anchor="middle" dominant-baseline="central" transform="matrix(1 0 0 1 -206 -62)">получение</text><text fill="#000000" stroke="none" font-family="Arial" font-size="16px" font-style="normal" font-weight="normal" text-decoration="undefined" x="991.66015625" y="1251" text-anchor="middle" dominant-baseline="central" transform="matrix(1 0 0 1 -206 -62)">данных</text><text fill="#000000" stroke="none" font-family="Arial" font-size="16px" font-style="normal" font-weight="normal" text-decoration="undefined" x="991.66015625" y="1267" text-anchor="middle" dominant-baseline="central" transform="matrix(1 0 0 1 -206 -62)">пользователя</text><text fill="#000000" stroke="none" font-family="Arial" font-size="16px" font-style="normal" font-weight="normal" text-decoration="undefined" x="991.66015625" y="1283" text-anchor="middle" dominant-baseline="central" transform="matrix(1 0 0 1 -206 -62)">из системы</text><text fill="#000000" stroke="none" font-family="Arial" font-size="16px" font-style="normal" font-weight="normal" text-decoration="undefined" x="991.66015625" y="1299" text-anchor="middle" dominant-baseline="central" transform="matrix(1 0 0 1 -206 -62)">гугл</text></g></g><g><path fill="none" stroke="#000000" paint-order="fill stroke markers" d=" M 311 1006 L 311 1042 L 311 1042 A 8 8 0 0 0 319 1050 L 730 1050" stroke-miterlimit="10" stroke-dasharray=""/></g><g><path fill="#000000" stroke="none" paint-order="stroke fill markers" d=" M 719.8373251423759 1054.2095177560159 L 730 1050 L 719.8373251423758 1045.7904822439841"/></g><g><path fill="none" stroke="#000000" paint-order="fill stroke markers" d=" M 719.8373251423759 1054.2095177560159 L 730 1050 L 719.8373251423758 1045.7904822439841 L 719.8373251423759 1054.2095177560159" stroke-miterlimit="10" stroke-dasharray=""/></g><g><path fill="none" stroke="#000000" paint-order="fill stroke markers" d=" M 783 1092 L 783 1144" stroke-miterlimit="10" stroke-dasharray=""/></g><g><path fill="#000000" stroke="none" paint-order="stroke fill markers" d=" M 778.790482243984 1133.837325142376 L 783 1144 L 787.209517756016 1133.837325142376"/></g><g><path fill="none" stroke="#000000" paint-order="fill stroke markers" d=" M 778.790482243984 1133.837325142376 L 783 1144 L 787.209517756016 1133.837325142376 L 778.790482243984 1133.837325142376" stroke-miterlimit="10" stroke-dasharray=""/></g><g><path fill="#C0C0C0" stroke="none" paint-order="stroke fill markers" d=" M 513 1223 L 604.3203125 1223 Q 614.3203125 1223 614.3203125 1233 L 614.3203125 1271 Q 614.3203125 1281 604.3203125 1281 L 513 1281 Q 503 1281 503 1271 L 503 1233 Q 503 1223 513 1223 Z" fill-opacity="0.2"/></g><g><path fill="#ffffff" stroke="none" paint-order="stroke fill markers" d=" M 506 1216 L 597.3203125 1216 Q 607.3203125 1216 607.3203125 1226 L 607.3203125 1264 Q 607.3203125 1274 597.3203125 1274 L 506 1274 Q 496 1274 496 1264 L 496 1226 Q 496 1216 506 1216 Z"/></g><g><path fill="none" stroke="#000000" paint-order="fill stroke markers" d=" M 506 1216 L 597.3203125 1216 Q 607.3203125 1216 607.3203125 1226 L 607.3203125 1264 Q 607.3203125 1274 597.3203125 1274 L 506 1274 Q 496 1274 496 1264 L 496 1226 Q 496 1216 506 1216 Z" stroke-miterlimit="10" stroke-dasharray=""/></g><g><g><path fill="none" stroke="none"/><text fill="#000000" stroke="none" font-family="Arial" font-size="16px" font-style="normal" font-weight="normal" text-decoration="undefined" x="757.66015625" y="1291" text-anchor="middle" dominant-baseline="central" transform="matrix(1 0 0 1 -206 -62)">Отправка</text><text fill="#000000" stroke="none" font-family="Arial" font-size="16px" font-style="normal" font-weight="normal" text-decoration="undefined" x="757.66015625" y="1307" text-anchor="middle" dominant-baseline="central" transform="matrix(1 0 0 1 -206 -62)">данных</text><text fill="#000000" stroke="none" font-family="Arial" font-size="16px" font-style="normal" font-weight="normal" text-decoration="undefined" x="757.66015625" y="1323" text-anchor="middle" dominant-baseline="central" transform="matrix(1 0 0 1 -206 -62)">пользователя</text></g></g><g><path fill="#C0C0C0" stroke="none" paint-order="stroke fill markers" d=" M 747 1349 L 838.3203125 1349 Q 848.3203125 1349 848.3203125 1359 L 848.3203125 1397 Q 848.3203125 1407 838.3203125 1407 L 747 1407 Q 737 1407 737 1397 L 737 1359 Q 737 1349 747 1349 Z" fill-opacity="0.2"/></g><g><path fill="#ffffff" stroke="none" paint-order="stroke fill markers" d=" M 740 1342 L 831.3203125 1342 Q 841.3203125 1342 841.3203125 1352 L 841.3203125 1390 Q 841.3203125 1400 831.3203125 1400 L 740 1400 Q 730 1400 730 1390 L 730 1352 Q 730 1342 740 1342 Z"/></g><g><path fill="none" stroke="#000000" paint-order="fill stroke markers" d=" M 740 1342 L 831.3203125 1342 Q 841.3203125 1342 841.3203125 1352 L 841.3203125 1390 Q 841.3203125 1400 831.3203125 1400 L 740 1400 Q 730 1400 730 1390 L 730 1352 Q 730 1342 740 1342 Z" stroke-miterlimit="10" stroke-dasharray=""/></g><g><g><path fill="none" stroke="none"/><text fill="#000000" stroke="none" font-family="Arial" font-size="16px" font-style="normal" font-weight="normal" text-decoration="undefined" x="991.66015625" y="1417" text-anchor="middle" dominant-baseline="central" transform="matrix(1 0 0 1 -206 -62)">Создание</text><text fill="#000000" stroke="none" font-family="Arial" font-size="16px" font-style="normal" font-weight="normal" text-decoration="undefined" x="991.66015625" y="1433" text-anchor="middle" dominant-baseline="central" transform="matrix(1 0 0 1 -206 -62)">нового</text><text fill="#000000" stroke="none" font-family="Arial" font-size="16px" font-style="normal" font-weight="normal" text-decoration="undefined" x="991.66015625" y="1449" text-anchor="middle" dominant-baseline="central" transform="matrix(1 0 0 1 -206 -62)">пользователя</text></g></g><g><path fill="#C0C0C0" stroke="none" paint-order="stroke fill markers" d=" M 729 1457 L 842.2578125 1457 Q 852.2578125 1457 852.2578125 1467 L 852.2578125 1505 Q 852.2578125 1515 842.2578125 1515 L 729 1515 Q 719 1515 719 1505 L 719 1467 Q 719 1457 729 1457 Z" fill-opacity="0.2"/></g><g><path fill="#ffffff" stroke="none" paint-order="stroke fill markers" d=" M 722 1450 L 835.2578125 1450 Q 845.2578125 1450 845.2578125 1460 L 845.2578125 1498 Q 845.2578125 1508 835.2578125 1508 L 722 1508 Q 712 1508 712 1498 L 712 1460 Q 712 1450 722 1450 Z"/></g><g><path fill="none" stroke="#000000" paint-order="fill stroke markers" d=" M 722 1450 L 835.2578125 1450 Q 845.2578125 1450 845.2578125 1460 L 845.2578125 1498 Q 845.2578125 1508 835.2578125 1508 L 722 1508 Q 712 1508 712 1498 L 712 1460 Q 712 1450 722 1450 Z" stroke-miterlimit="10" stroke-dasharray=""/></g><g><g><path fill="none" stroke="none"/><text fill="#000000" stroke="none" font-family="Arial" font-size="16px" font-style="normal" font-weight="normal" text-decoration="undefined" x="984.62890625" y="1533" text-anchor="middle" dominant-baseline="central" transform="matrix(1 0 0 1 -206 -62)">Создание сессии</text><text fill="#000000" stroke="none" font-family="Arial" font-size="16px" font-style="normal" font-weight="normal" text-decoration="undefined" x="984.62890625" y="1549" text-anchor="middle" dominant-baseline="central" transform="matrix(1 0 0 1 -206 -62)">аутентификации</text></g></g><g><path fill="none" stroke="#000000" paint-order="fill stroke markers" d=" M 730 1239 L 607 1239" stroke-miterlimit="10" stroke-dasharray=""/></g><g><path fill="#000000" stroke="none" paint-order="stroke fill markers" d=" M 617.1626748576241 1234.7904822439841 L 607 1239 L 617.1626748576241 1243.2095177560159"/></g><g><path fill="none" stroke="#000000" paint-order="fill stroke markers" d=" M 617.1626748576241 1234.7904822439841 L 607 1239 L 617.1626748576241 1243.2095177560159 L 617.1626748576241 1234.7904822439841" stroke-miterlimit="10" stroke-dasharray=""/></g><g><path fill="none" stroke="#000000" paint-order="fill stroke markers" d=" M 571 1274 L 571 1348 L 571 1348 A 8 8 0 0 0 579 1356 L 730 1356" stroke-miterlimit="10" stroke-dasharray=""/></g><g><path fill="#000000" stroke="none" paint-order="stroke fill markers" d=" M 719.8373251423759 1360.2095177560159 L 730 1356 L 719.8373251423758 1351.7904822439841"/></g><g><path fill="none" stroke="#000000" paint-order="fill stroke markers" d=" M 719.8373251423759 1360.2095177560159 L 730 1356 L 719.8373251423758 1351.7904822439841 L 719.8373251423759 1360.2095177560159" stroke-miterlimit="10" stroke-dasharray=""/></g><g><path fill="none" stroke="#000000" paint-order="fill stroke markers" d=" M 783 1400 L 783 1450" stroke-miterlimit="10" stroke-dasharray=""/></g><g><path fill="#000000" stroke="none" paint-order="stroke fill markers" d=" M 778.790482243984 1439.837325142376 L 783 1450 L 787.209517756016 1439.837325142376"/></g><g><path fill="none" stroke="#000000" paint-order="fill stroke markers" d=" M 778.790482243984 1439.837325142376 L 783 1450 L 787.209517756016 1439.837325142376 L 778.790482243984 1439.837325142376" stroke-miterlimit="10" stroke-dasharray=""/></g><g><path fill="#C0C0C0" stroke="none" paint-order="stroke fill markers" d=" M 747 1601 L 825.0234375 1601 Q 835.0234375 1601 835.0234375 1611 L 835.0234375 1633 Q 835.0234375 1643 825.0234375 1643 L 747 1643 Q 737 1643 737 1633 L 737 1611 Q 737 1601 747 1601 Z" fill-opacity="0.2"/></g><g><path fill="#ffffff" stroke="none" paint-order="stroke fill markers" d=" M 740 1594 L 818.0234375 1594 Q 828.0234375 1594 828.0234375 1604 L 828.0234375 1626 Q 828.0234375 1636 818.0234375 1636 L 740 1636 Q 730 1636 730 1626 L 730 1604 Q 730 1594 740 1594 Z"/></g><g><path fill="none" stroke="#000000" paint-order="fill stroke markers" d=" M 740 1594 L 818.0234375 1594 Q 828.0234375 1594 828.0234375 1604 L 828.0234375 1626 Q 828.0234375 1636 818.0234375 1636 L 740 1636 Q 730 1636 730 1626 L 730 1604 Q 730 1594 740 1594 Z" stroke-miterlimit="10" stroke-dasharray=""/></g><g><g><path fill="none" stroke="none"/><text fill="#000000" stroke="none" font-family="Arial" font-size="16px" font-style="normal" font-weight="normal" text-decoration="undefined" x="985.01171875" y="1669" text-anchor="middle" dominant-baseline="central" transform="matrix(1 0 0 1 -206 -62)">Генерация</text><text fill="#000000" stroke="none" font-family="Arial" font-size="16px" font-style="normal" font-weight="normal" text-decoration="undefined" x="985.01171875" y="1685" text-anchor="middle" dominant-baseline="central" transform="matrix(1 0 0 1 -206 -62)">JWT токена</text></g></g><g><path fill="none" stroke="#000000" paint-order="fill stroke markers" d=" M 778 1508 L 778 1594" stroke-miterlimit="10" stroke-dasharray=""/></g><g><path fill="#000000" stroke="none" paint-order="stroke fill markers" d=" M 773.790482243984 1583.837325142376 L 778 1594 L 782.209517756016 1583.837325142376"/></g><g><path fill="none" stroke="#000000" paint-order="fill stroke markers" d=" M 773.790482243984 1583.837325142376 L 778 1594 L 782.209517756016 1583.837325142376 L 773.790482243984 1583.837325142376" stroke-miterlimit="10" stroke-dasharray=""/></g><g><path fill="#C0C0C0" stroke="none" paint-order="stroke fill markers" d=" M 179 1691 L 201.39999999999998 1691 L 211 1700.6 L 211 1731 L 179 1731" fill-opacity="0.2"/></g><g><path fill="#ffffff" stroke="none" paint-order="stroke fill markers" d=" M 172 1684 L 194.39999999999998 1684 L 204 1693.6 L 204 1724 L 172 1724"/></g><g><path fill="none" stroke="#000000" paint-order="fill stroke markers" d=" M 172 1684 L 194.39999999999998 1684 L 204 1693.6 L 204 1724 L 172 1724 L 172 1684" stroke-miterlimit="10" stroke-dasharray=""/></g><g><path fill="none" stroke="#000000" paint-order="fill stroke markers" d=" M 194.39999999999998 1684 L 194.39999999999998 1693.6 L 204 1693.6 L 194.39999999999998 1684" stroke-miterlimit="10" stroke-dasharray=""/></g><g><rect fill="#ffffff" stroke="none" x="293.234375" y="1794" width="201.53125" height="16" transform="matrix(1 0 0 1 -206 -62)"/></g><g><g><path fill="none" stroke="none"/><text fill="#000000" stroke="none" font-family="Arial" font-size="16px" font-style="normal" font-weight="normal" text-decoration="undefined" x="394" y="1802" text-anchor="middle" dominant-baseline="central" transform="matrix(1 0 0 1 -206 -62)">Главное меню приложения</text></g></g><g><path fill="#C0C0C0" stroke="none" paint-order="stroke fill markers" d=" M 179 1833 C 179 1824.1634432 186.16344320000002 1817 195 1817 C 203.83655679999998 1817 211 1824.1634432 211 1833 C 211 1841.8365568 203.83655679999998 1849 195 1849 C 186.16344320000002 1849 179 1841.8365568 179 1833 Z" fill-opacity="0.2"/></g><g><path fill="#ffffff" stroke="none" paint-order="stroke fill markers" d=" M 172 1826 C 172 1817.1634432 179.16344320000002 1810 188 1810 C 196.83655679999998 1810 204 1817.1634432 204 1826 C 204 1834.8365568 196.83655679999998 1842 188 1842 C 179.16344320000002 1842 172 1834.8365568 172 1826 Z"/></g><g><path fill="none" stroke="#000000" paint-order="fill stroke markers" d=" M 172 1826 C 172 1817.1634432 179.16344320000002 1810 188 1810 C 196.83655679999998 1810 204 1817.1634432 204 1826 C 204 1834.8365568 196.83655679999998 1842 188 1842 C 179.16344320000002 1842 172 1834.8365568 172 1826 Z" stroke-miterlimit="10" stroke-width="3" stroke-dasharray=""/></g><g><rect fill="#ffffff" stroke="none" x="303.015625" y="1916" width="181.96875" height="16" transform="matrix(1 0 0 1 -206 -62)"/></g><g><g><path fill="none" stroke="none"/><text fill="#000000" stroke="none" font-family="Arial" font-size="16px" font-style="normal" font-weight="normal" text-decoration="undefined" x="394" y="1924" text-anchor="middle" dominant-baseline="central" transform="matrix(1 0 0 1 -206 -62)">Авторизация завершена</text></g></g><g><path fill="none" stroke="#000000" paint-order="fill stroke markers" d=" M 779 1636 L 779 1694 L 779 1694 A 8 8 0 0 1 771 1702 L 204 1702" stroke-miterlimit="10" stroke-dasharray=""/></g><g><path fill="#000000" stroke="none" paint-order="stroke fill markers" d=" M 214.16267485762415 1697.7904822439841 L 204 1702 L 214.16267485762415 1706.2095177560159"/></g><g><path fill="none" stroke="#000000" paint-order="fill stroke markers" d=" M 214.16267485762415 1697.7904822439841 L 204 1702 L 214.16267485762415 1706.2095177560159 L 214.16267485762415 1697.7904822439841" stroke-miterlimit="10" stroke-dasharray=""/></g><g><path fill="none" stroke="#000000" paint-order="fill stroke markers" d=" M 188 1724 L 188 1810" stroke-miterlimit="10" stroke-dasharray=""/></g><g><path fill="#000000" stroke="none" paint-order="stroke fill markers" d=" M 183.790482243984 1799.837325142376 L 188 1810 L 192.209517756016 1799.837325142376"/></g><g><path fill="none" stroke="#000000" paint-order="fill stroke markers" d=" M 183.790482243984 1799.837325142376 L 188 1810 L 192.209517756016 1799.837325142376 L 183.790482243984 1799.837325142376" stroke-miterlimit="10" stroke-dasharray=""/></g></g></svg>