<svg version="1.1" xmlns="http://www.w3.org/2000/svg" xmlns:xlink="http://www.w3.org/1999/xlink" width="1117.484375" height="704"><defs/><g><g><rect fill="#ffffff" stroke="none" x="522" y="72" width="352" height="52" transform="matrix(1 0 0 1 10 -44)"/></g><g><path fill="#ffffff" stroke="none" paint-order="stroke fill markers" d=" M 884 28 A 26 26 0 0 1 884 80"/></g><g><path fill="none" stroke="#000000" paint-order="fill stroke markers" d=" M 532 28 L 532 80" stroke-miterlimit="10" stroke-dasharray=""/></g><g><path fill="none" stroke="#000000" paint-order="fill stroke markers" d=" M 532 28 L 884 28" stroke-miterlimit="10" stroke-dasharray=""/></g><g><path fill="none" stroke="#000000" paint-order="fill stroke markers" d=" M 532 80 L 884 80" stroke-miterlimit="10" stroke-dasharray=""/></g><g><path fill="none" stroke="#000000" paint-order="fill stroke markers" d=" M 884 28 A 26 26 0 0 1 884 80" stroke-miterlimit="10" stroke-dasharray=""/></g><g><g><path fill="none" stroke="none"/><text fill="#000000" stroke="none" font-family="Arial" font-size="16px" font-style="normal" font-weight="normal" text-decoration="undefined" x="673.75" y="90" text-anchor="middle" dominant-baseline="central" transform="matrix(1 0 0 1 10 -44)">POST</text><text fill="#000000" stroke="none" font-family="Arial" font-size="16px" font-style="normal" font-weight="normal" text-decoration="undefined" x="673.75" y="106" text-anchor="middle" dominant-baseline="central" transform="matrix(1 0 0 1 10 -44)">/templates/{templateId}/languages</text></g></g><g><path fill="#ffffff" stroke="#000000" paint-order="fill stroke markers" d=" M 964 62 L 987 28 L 1084.484375 28 Q 1107.484375 28 1107.484375 62 Q 1107.484375 96 1084.484375 96 L 987 96 L 964 62 Z" stroke-miterlimit="10" stroke-dasharray=""/></g><g><g><path fill="none" stroke="none"/><text fill="#000000" stroke="none" font-family="Arial" font-size="16px" font-style="normal" font-weight="normal" text-decoration="undefined" x="1025.7421875" y="90" text-anchor="middle" dominant-baseline="central" transform="matrix(1 0 0 1 10 -44)">Заголовки</text><text fill="#000000" stroke="none" font-family="Arial" font-size="16px" font-style="normal" font-weight="normal" text-decoration="undefined" x="1025.7421875" y="106" text-anchor="middle" dominant-baseline="central" transform="matrix(1 0 0 1 10 -44)">запроса</text><text fill="#000000" stroke="none" font-family="Arial" font-size="16px" font-style="normal" font-weight="normal" text-decoration="undefined" x="1025.7421875" y="122" text-anchor="middle" dominant-baseline="central" transform="matrix(1 0 0 1 10 -44)">(Авторизирован)</text></g></g><g><path fill="#ffffff" stroke="none" paint-order="stroke fill markers" d=" M 577 118 L 892 118 L 829 154 L 514 154 L 577 118"/></g><g><path fill="none" stroke="#000000" paint-order="fill stroke markers" d=" M 577 118 L 892 118 L 829 154 L 514 154 L 577 118 L 577 118" stroke-miterlimit="10" stroke-dasharray=""/></g><g><g><path fill="none" stroke="none"/><text fill="#000000" stroke="none" font-family="Arial" font-size="16px" font-style="normal" font-weight="normal" text-decoration="undefined" x="693" y="180" text-anchor="middle" dominant-baseline="central" transform="matrix(1 0 0 1 10 -44)">PostTemplatesLanguagesRequest</text></g></g><g><path fill="#ffffff" stroke="none" paint-order="stroke fill markers" d=" M 517 190 L 877 190 Q 895 190 895 208 L 895 208 Q 895 226 877 226 L 517 226 Q 499 226 499 208 L 499 208 Q 499 190 517 190 Z"/></g><g><path fill="none" stroke="#000000" paint-order="fill stroke markers" d=" M 517 190 L 877 190 Q 895 190 895 208 L 895 208 Q 895 226 877 226 L 517 226 Q 499 226 499 208 L 499 208 Q 499 190 517 190 Z" stroke-miterlimit="10" stroke-dasharray=""/></g><g><g><path fill="none" stroke="none"/><text fill="#000000" stroke="none" font-family="Arial" font-size="16px" font-style="normal" font-weight="normal" text-decoration="undefined" x="687" y="252" text-anchor="middle" dominant-baseline="central" transform="matrix(1 0 0 1 10 -44)">пользователь является владельцем шаблона</text></g></g><g><path fill="#ffffff" stroke="none" paint-order="stroke fill markers" d=" M 622 316 L 789.6953125 316 Q 807.6953125 316 807.6953125 334 L 807.6953125 334 Q 807.6953125 352 789.6953125 352 L 622 352 Q 604 352 604 334 L 604 334 Q 604 316 622 316 Z"/></g><g><path fill="none" stroke="#000000" paint-order="fill stroke markers" d=" M 622 316 L 789.6953125 316 Q 807.6953125 316 807.6953125 334 L 807.6953125 334 Q 807.6953125 352 789.6953125 352 L 622 352 Q 604 352 604 334 L 604 334 Q 604 316 622 316 Z" stroke-miterlimit="10" stroke-dasharray=""/></g><g><g><path fill="none" stroke="none"/><text fill="#000000" stroke="none" font-family="Arial" font-size="16px" font-style="normal" font-weight="normal" text-decoration="undefined" x="695.84765625" y="378" text-anchor="middle" dominant-baseline="central" transform="matrix(1 0 0 1 10 -44)">Название &lt; 70 символов</text></g></g><g><path fill="#ffffff" stroke="none" paint-order="stroke fill markers" d=" M 604 370 L 782.7109375 370 Q 800.7109375 370 800.7109375 388 L 800.7109375 388 Q 800.7109375 406 782.7109375 406 L 604 406 Q 586 406 586 388 L 586 388 Q 586 370 604 370 Z"/></g><g><path fill="none" stroke="#000000" paint-order="fill stroke markers" d=" M 604 370 L 782.7109375 370 Q 800.7109375 370 800.7109375 388 L 800.7109375 388 Q 800.7109375 406 782.7109375 406 L 604 406 Q 586 406 586 388 L 586 388 Q 586 370 604 370 Z" stroke-miterlimit="10" stroke-dasharray=""/></g><g><g><path fill="none" stroke="none"/><text fill="#000000" stroke="none" font-family="Arial" font-size="16px" font-style="normal" font-weight="normal" text-decoration="undefined" x="683.35546875" y="432" text-anchor="middle" dominant-baseline="central" transform="matrix(1 0 0 1 10 -44)">Описание &lt; 250 символов</text></g></g><g><path fill="none" stroke="#000000" paint-order="fill stroke markers" d=" M 693 352 L 693 370" stroke-miterlimit="10" stroke-dasharray=""/></g><g><path fill="#000000" stroke="none" paint-order="stroke fill markers" d=" M 688.790482243984 359.83732514237585 L 693 370 L 697.209517756016 359.83732514237585"/></g><g><path fill="none" stroke="#000000" paint-order="fill stroke markers" d=" M 688.790482243984 359.83732514237585 L 693 370 L 697.209517756016 359.83732514237585 L 688.790482243984 359.83732514237585" stroke-miterlimit="10" stroke-dasharray=""/></g><g><path fill="#ffffff" stroke="none" paint-order="stroke fill markers" d=" M 551 478 L 843.75 478 Q 861.75 478 861.75 496 L 861.75 496 Q 861.75 514 843.75 514 L 551 514 Q 533 514 533 496 L 533 496 Q 533 478 551 478 Z"/></g><g><path fill="none" stroke="#000000" paint-order="fill stroke markers" d=" M 551 478 L 843.75 478 Q 861.75 478 861.75 496 L 861.75 496 Q 861.75 514 843.75 514 L 551 514 Q 533 514 533 496 L 533 496 Q 533 478 551 478 Z" stroke-miterlimit="10" stroke-dasharray=""/></g><g><g><path fill="none" stroke="none"/><text fill="#000000" stroke="none" font-family="Arial" font-size="16px" font-style="normal" font-weight="normal" text-decoration="undefined" x="687.375" y="540" text-anchor="middle" dominant-baseline="central" transform="matrix(1 0 0 1 10 -44)">Кол-во обучающих материалов &lt; 25 штук</text></g></g><g><path fill="#ffffff" stroke="none" paint-order="stroke fill markers" d=" M 545 424 L 848.484375 424 Q 866.484375 424 866.484375 442 L 866.484375 442 Q 866.484375 460 848.484375 460 L 545 460 Q 527 460 527 442 L 527 442 Q 527 424 545 424 Z"/></g><g><path fill="none" stroke="#000000" paint-order="fill stroke markers" d=" M 545 424 L 848.484375 424 Q 866.484375 424 866.484375 442 L 866.484375 442 Q 866.484375 460 848.484375 460 L 545 460 Q 527 460 527 442 L 527 442 Q 527 424 545 424 Z" stroke-miterlimit="10" stroke-dasharray=""/></g><g><g><path fill="none" stroke="none"/><text fill="#000000" stroke="none" font-family="Arial" font-size="16px" font-style="normal" font-weight="normal" text-decoration="undefined" x="686.7421875" y="486" text-anchor="middle" dominant-baseline="central" transform="matrix(1 0 0 1 10 -44)">Номер указанной локализации существует</text></g></g><g><path fill="none" stroke="#000000" paint-order="fill stroke markers" d=" M 694 406 L 694 424" stroke-miterlimit="10" stroke-dasharray=""/></g><g><path fill="#000000" stroke="none" paint-order="stroke fill markers" d=" M 689.790482243984 413.83732514237585 L 694 424 L 698.209517756016 413.83732514237585"/></g><g><path fill="none" stroke="#000000" paint-order="fill stroke markers" d=" M 689.790482243984 413.83732514237585 L 694 424 L 698.209517756016 413.83732514237585 L 689.790482243984 413.83732514237585" stroke-miterlimit="10" stroke-dasharray=""/></g><g><path fill="none" stroke="#000000" paint-order="fill stroke markers" d=" M 694 460 L 694 478" stroke-miterlimit="10" stroke-dasharray=""/></g><g><path fill="#000000" stroke="none" paint-order="stroke fill markers" d=" M 689.790482243984 467.83732514237585 L 694 478 L 698.209517756016 467.83732514237585"/></g><g><path fill="none" stroke="#000000" paint-order="fill stroke markers" d=" M 689.790482243984 467.83732514237585 L 694 478 L 698.209517756016 467.83732514237585 L 689.790482243984 467.83732514237585" stroke-miterlimit="10" stroke-dasharray=""/></g><g><path fill="#ffffff" stroke="none" paint-order="stroke fill markers" d=" M 533 532 L 860.4296875 532 Q 878.4296875 532 878.4296875 550 L 878.4296875 550 Q 878.4296875 568 860.4296875 568 L 533 568 Q 515 568 515 550 L 515 550 Q 515 532 533 532 Z"/></g><g><path fill="none" stroke="#000000" paint-order="fill stroke markers" d=" M 533 532 L 860.4296875 532 Q 878.4296875 532 878.4296875 550 L 878.4296875 550 Q 878.4296875 568 860.4296875 568 L 533 568 Q 515 568 515 550 L 515 550 Q 515 532 533 532 Z" stroke-miterlimit="10" stroke-dasharray=""/></g><g><g><path fill="none" stroke="none"/><text fill="#000000" stroke="none" font-family="Arial" font-size="16px" font-style="normal" font-weight="normal" text-decoration="undefined" x="686.71484375" y="594" text-anchor="middle" dominant-baseline="central" transform="matrix(1 0 0 1 10 -44)">Кол-во символов в правилах &lt; 1000 символов</text></g></g><g><path fill="none" stroke="#000000" paint-order="fill stroke markers" d=" M 694 514 L 694 532" stroke-miterlimit="10" stroke-dasharray=""/></g><g><path fill="#000000" stroke="none" paint-order="stroke fill markers" d=" M 689.790482243984 521.8373251423759 L 694 532 L 698.209517756016 521.8373251423759"/></g><g><path fill="none" stroke="#000000" paint-order="fill stroke markers" d=" M 689.790482243984 521.8373251423759 L 694 532 L 698.209517756016 521.8373251423759 L 689.790482243984 521.8373251423759" stroke-miterlimit="10" stroke-dasharray=""/></g><g><path fill="none" stroke="#000000" paint-order="fill stroke markers" d=" M 715 80 L 715 118" stroke-miterlimit="10" stroke-dasharray=""/></g><g><path fill="#000000" stroke="none" paint-order="stroke fill markers" d=" M 710.790482243984 107.83732514237585 L 715 118 L 719.209517756016 107.83732514237585"/></g><g><path fill="none" stroke="#000000" paint-order="fill stroke markers" d=" M 710.790482243984 107.83732514237585 L 715 118 L 719.209517756016 107.83732514237585 L 710.790482243984 107.83732514237585" stroke-miterlimit="10" stroke-dasharray=""/></g><g><rect fill="#ffffff" stroke="none" x="486" y="630" width="414" height="36" transform="matrix(1 0 0 1 10 -44)"/></g><g><path fill="none" stroke="#000000" paint-order="fill stroke markers" d=" M 496 586 L 910 586 L 910 622 L 496 622 L 496 586 Z Z" stroke-miterlimit="10" stroke-dasharray=""/></g><g><g><path fill="none" stroke="none"/><text fill="#000000" stroke="none" font-family="Arial" font-size="16px" font-style="normal" font-weight="normal" text-decoration="undefined" x="693" y="648" text-anchor="middle" dominant-baseline="central" transform="matrix(1 0 0 1 10 -44)">Добавить новую локализацию к шаблону</text></g></g><g><path fill="none" stroke="#000000" paint-order="fill stroke markers" d=" M 698 568 L 698 586" stroke-miterlimit="10" stroke-dasharray=""/></g><g><path fill="#000000" stroke="none" paint-order="stroke fill markers" d=" M 693.790482243984 575.8373251423759 L 698 586 L 702.209517756016 575.8373251423759"/></g><g><path fill="none" stroke="#000000" paint-order="fill stroke markers" d=" M 693.790482243984 575.8373251423759 L 698 586 L 702.209517756016 575.8373251423759 L 693.790482243984 575.8373251423759" stroke-miterlimit="10" stroke-dasharray=""/></g><g><path fill="#ffffff" stroke="none" paint-order="stroke fill markers" d=" M 625 658 L 820 658 L 781 694 L 586 694 L 625 658"/></g><g><path fill="none" stroke="#000000" paint-order="fill stroke markers" d=" M 625 658 L 820 658 L 781 694 L 586 694 L 625 658 L 625 658" stroke-miterlimit="10" stroke-dasharray=""/></g><g><g><path fill="none" stroke="none"/><text fill="#000000" stroke="none" font-family="Arial" font-size="16px" font-style="normal" font-weight="normal" text-decoration="undefined" x="693" y="720" text-anchor="middle" dominant-baseline="central" transform="matrix(1 0 0 1 10 -44)">NoBodyResponse</text></g></g><g><path fill="none" stroke="#000000" paint-order="fill stroke markers" d=" M 703 622 L 703 658" stroke-miterlimit="10" stroke-dasharray=""/></g><g><path fill="#000000" stroke="none" paint-order="stroke fill markers" d=" M 698.790482243984 647.8373251423759 L 703 658 L 707.209517756016 647.8373251423759"/></g><g><path fill="none" stroke="#000000" paint-order="fill stroke markers" d=" M 698.790482243984 647.8373251423759 L 703 658 L 707.209517756016 647.8373251423759 L 698.790482243984 647.8373251423759" stroke-miterlimit="10" stroke-dasharray=""/></g><g><path fill="none" stroke="#000000" paint-order="fill stroke markers" d=" M 702 154 L 702 190" stroke-miterlimit="10" stroke-dasharray=""/></g><g><path fill="#000000" stroke="none" paint-order="stroke fill markers" d=" M 697.790482243984 179.83732514237585 L 702 190 L 706.209517756016 179.83732514237585"/></g><g><path fill="none" stroke="#000000" paint-order="fill stroke markers" d=" M 697.790482243984 179.83732514237585 L 702 190 L 706.209517756016 179.83732514237585 L 697.790482243984 179.83732514237585" stroke-miterlimit="10" stroke-dasharray=""/></g><g><path fill="none" stroke="#000000" paint-order="fill stroke markers" d=" M 730 226 L 730 262" stroke-miterlimit="10" stroke-dasharray=""/></g><g><path fill="#000000" stroke="none" paint-order="stroke fill markers" d=" M 725.790482243984 251.83732514237585 L 730 262 L 734.209517756016 251.83732514237585"/></g><g><path fill="none" stroke="#000000" paint-order="fill stroke markers" d=" M 725.790482243984 251.83732514237585 L 730 262 L 734.209517756016 251.83732514237585 L 725.790482243984 251.83732514237585" stroke-miterlimit="10" stroke-dasharray=""/></g><g><path fill="#ffffff" stroke="none" paint-order="stroke fill markers" d=" M 532 262 L 869.9375 262 Q 887.9375 262 887.9375 280 L 887.9375 280 Q 887.9375 298 869.9375 298 L 532 298 Q 514 298 514 280 L 514 280 Q 514 262 532 262 Z"/></g><g><path fill="none" stroke="#000000" paint-order="fill stroke markers" d=" M 532 262 L 869.9375 262 Q 887.9375 262 887.9375 280 L 887.9375 280 Q 887.9375 298 869.9375 298 L 532 298 Q 514 298 514 280 L 514 280 Q 514 262 532 262 Z" stroke-miterlimit="10" stroke-dasharray=""/></g><g><g><path fill="none" stroke="none"/><text fill="#000000" stroke="none" font-family="Arial" font-size="16px" font-style="normal" font-weight="normal" text-decoration="undefined" x="690.96875" y="324" text-anchor="middle" dominant-baseline="central" transform="matrix(1 0 0 1 10 -44)">Указаная локализация не была ещё добавлена</text></g></g><g><path fill="none" stroke="#000000" paint-order="fill stroke markers" d=" M 702 298 L 702 316" stroke-miterlimit="10" stroke-dasharray=""/></g><g><path fill="#000000" stroke="none" paint-order="stroke fill markers" d=" M 697.790482243984 305.83732514237585 L 702 316 L 706.209517756016 305.83732514237585"/></g><g><path fill="none" stroke="#000000" paint-order="fill stroke markers" d=" M 697.790482243984 305.83732514237585 L 702 316 L 706.209517756016 305.83732514237585 L 697.790482243984 305.83732514237585" stroke-miterlimit="10" stroke-dasharray=""/></g><g><path fill="none" stroke="#000000" paint-order="fill stroke markers" d=" M 964 96 L 964 110 L 964 110 A 8 8 0 0 1 956 118 L 892 118" stroke-miterlimit="10" stroke-dasharray=""/></g><g><path fill="#000000" stroke="none" paint-order="stroke fill markers" d=" M 902.1626748576241 113.790482243984 L 892 118 L 902.1626748576241 122.209517756016"/></g><g><path fill="none" stroke="#000000" paint-order="fill stroke markers" d=" M 902.1626748576241 113.790482243984 L 892 118 L 902.1626748576241 122.209517756016 L 902.1626748576241 113.790482243984" stroke-miterlimit="10" stroke-dasharray=""/></g><g><path fill="#ffffff" stroke="none" paint-order="stroke fill markers" d=" M 369 46 L 458.2421875 46 L 441.2421875 82 L 352 82 L 369 46"/></g><g><path fill="none" stroke="#000000" paint-order="fill stroke markers" d=" M 369 46 L 458.2421875 46 L 441.2421875 82 L 352 82 L 369 46 L 369 46" stroke-miterlimit="10" stroke-dasharray=""/></g><g><g><path fill="none" stroke="none"/><text fill="#000000" stroke="none" font-family="Arial" font-size="16px" font-style="normal" font-weight="normal" text-decoration="undefined" x="395.12109375" y="108" text-anchor="middle" dominant-baseline="central" transform="matrix(1 0 0 1 10 -44)">TutorialDTO</text></g></g><g><path fill="#ffffff" stroke="none" paint-order="stroke fill markers" d=" M 79 10 L 246.4921875 10 L 213.4921875 46 L 46 46 L 79 10"/></g><g><path fill="none" stroke="#000000" paint-order="fill stroke markers" d=" M 79 10 L 246.4921875 10 L 213.4921875 46 L 46 46 L 79 10 L 79 10" stroke-miterlimit="10" stroke-dasharray=""/></g><g><g><path fill="none" stroke="none"/><text fill="#000000" stroke="none" font-family="Arial" font-size="16px" font-style="normal" font-weight="normal" text-decoration="undefined" x="136.24609375" y="72" text-anchor="middle" dominant-baseline="central" transform="matrix(1 0 0 1 10 -44)">TutorialMediaFormatDTO</text></g></g><g><path fill="none" stroke="#000000" paint-order="fill stroke markers" d=" M 173 46 L 173 56 L 173 56 A 8 8 0 0 0 181 64 L 352 64" stroke-miterlimit="10" stroke-dasharray=""/></g><g><path fill="#000000" stroke="none" paint-order="stroke fill markers" d=" M 341.83732514237585 68.20951775601598 L 352 64 L 341.83732514237585 59.790482243984016"/></g><g><path fill="none" stroke="#000000" paint-order="fill stroke markers" d=" M 341.83732514237585 68.20951775601598 L 352 64 L 341.83732514237585 59.790482243984016 L 341.83732514237585 68.20951775601598" stroke-miterlimit="10" stroke-dasharray=""/></g><g><rect fill="#ffffff" stroke="none" x="138" y="85" width="51.578125" height="16" transform="matrix(1 0 0 1 10 -44)"/></g><g><g><path fill="none" stroke="none"/><text fill="#000000" stroke="none" font-family="Arial" font-size="16px" font-style="normal" font-weight="normal" text-decoration="undefined" x="163.7890625" y="93" text-anchor="middle" dominant-baseline="central" transform="matrix(1 0 0 1 10 -44)">inherits</text></g></g><g><path fill="#ffffff" stroke="none" paint-order="stroke fill markers" d=" M 64 154 L 334 154 L 280 190 L 10 190 L 64 154"/></g><g><path fill="none" stroke="#000000" paint-order="fill stroke markers" d=" M 64 154 L 334 154 L 280 190 L 10 190 L 64 154 L 64 154" stroke-miterlimit="10" stroke-dasharray=""/></g><g><g><path fill="none" stroke="none"/><text fill="#000000" stroke="none" font-family="Arial" font-size="16px" font-style="normal" font-weight="normal" text-decoration="undefined" x="162" y="216" text-anchor="middle" dominant-baseline="central" transform="matrix(1 0 0 1 10 -44)">TutorialMediaGroupFormatDTO</text></g></g><g><path fill="none" stroke="#000000" paint-order="fill stroke markers" d=" M 280 154 L 280 90 L 280 90 A 8 8 0 0 1 288 82 L 352 82" stroke-miterlimit="10" stroke-dasharray=""/></g><g><path fill="#000000" stroke="none" paint-order="stroke fill markers" d=" M 341.83732514237585 86.209517756016 L 352 82 L 341.83732514237585 77.79048224398402"/></g><g><path fill="none" stroke="#000000" paint-order="fill stroke markers" d=" M 341.83732514237585 86.209517756016 L 352 82 L 341.83732514237585 77.79048224398402 L 341.83732514237585 86.209517756016" stroke-miterlimit="10" stroke-dasharray=""/></g><g><rect fill="#ffffff" stroke="none" x="245" y="103" width="51.578125" height="16" transform="matrix(1 0 0 1 10 -44)"/></g><g><g><path fill="none" stroke="none"/><text fill="#000000" stroke="none" font-family="Arial" font-size="16px" font-style="normal" font-weight="normal" text-decoration="undefined" x="270.7890625" y="111" text-anchor="middle" dominant-baseline="central" transform="matrix(1 0 0 1 10 -44)">inherits</text></g></g><g><path fill="none" stroke="#000000" paint-order="fill stroke markers" d=" M 405 82 L 405 128 L 405 128 A 8 8 0 0 0 413 136 L 514 136" stroke-miterlimit="10" stroke-dasharray=""/></g><g><path fill="#000000" stroke="none" paint-order="stroke fill markers" d=" M 503.83732514237585 140.209517756016 L 514 136 L 503.83732514237585 131.790482243984"/></g><g><path fill="none" stroke="#000000" paint-order="fill stroke markers" d=" M 503.83732514237585 140.209517756016 L 514 136 L 503.83732514237585 131.790482243984 L 503.83732514237585 140.209517756016" stroke-miterlimit="10" stroke-dasharray=""/></g><g><path fill="none" stroke="#000000" paint-order="fill stroke markers" d=" M 334 154 L 514 154" stroke-miterlimit="10" stroke-dasharray=""/></g><g><path fill="#000000" stroke="none" paint-order="stroke fill markers" d=" M 503.83732514237585 158.209517756016 L 514 154 L 503.83732514237585 149.790482243984"/></g><g><path fill="none" stroke="#000000" paint-order="fill stroke markers" d=" M 503.83732514237585 158.209517756016 L 514 154 L 503.83732514237585 149.790482243984 L 503.83732514237585 158.209517756016" stroke-miterlimit="10" stroke-dasharray=""/></g><g><path fill="none" stroke="#000000" paint-order="fill stroke markers" d=" M 146 46 L 146 110 L 146 110 A 8 8 0 0 0 154 118 L 514 118" stroke-miterlimit="10" stroke-dasharray=""/></g><g><path fill="#000000" stroke="none" paint-order="stroke fill markers" d=" M 503.83732514237585 122.209517756016 L 514 118 L 503.83732514237585 113.790482243984"/></g><g><path fill="none" stroke="#000000" paint-order="fill stroke markers" d=" M 503.83732514237585 122.209517756016 L 514 118 L 503.83732514237585 113.790482243984 L 503.83732514237585 122.209517756016" stroke-miterlimit="10" stroke-dasharray=""/></g></g></svg>