<svg version="1.1" xmlns="http://www.w3.org/2000/svg" xmlns:xlink="http://www.w3.org/1999/xlink" width="1172" height="956"><defs/><g><g><rect fill="#ffffff" stroke="none" x="504" y="54" width="342" height="36" transform="matrix(1 0 0 1 10 -26)"/></g><g><path fill="#ffffff" stroke="none" paint-order="stroke fill markers" d=" M 856 28 A 18 18 0 0 1 856 64"/></g><g><path fill="none" stroke="#000000" paint-order="fill stroke markers" d=" M 514 28 L 514 64" stroke-miterlimit="10" stroke-dasharray=""/></g><g><path fill="none" stroke="#000000" paint-order="fill stroke markers" d=" M 514 28 L 856 28" stroke-miterlimit="10" stroke-dasharray=""/></g><g><path fill="none" stroke="#000000" paint-order="fill stroke markers" d=" M 514 64 L 856 64" stroke-miterlimit="10" stroke-dasharray=""/></g><g><path fill="none" stroke="#000000" paint-order="fill stroke markers" d=" M 856 28 A 18 18 0 0 1 856 64" stroke-miterlimit="10" stroke-dasharray=""/></g><g><g><path fill="none" stroke="none"/><text fill="#000000" stroke="none" font-family="Arial" font-size="16px" font-style="normal" font-weight="normal" text-decoration="undefined" x="649" y="72" text-anchor="middle" dominant-baseline="central" transform="matrix(1 0 0 1 10 -26)">PATCH /templates/{templateId}</text></g></g><g><path fill="#ffffff" stroke="none" paint-order="stroke fill markers" d=" M 547 118 L 892 118 L 823 154 L 478 154 L 547 118"/></g><g><path fill="none" stroke="#000000" paint-order="fill stroke markers" d=" M 547 118 L 892 118 L 823 154 L 478 154 L 547 118 L 547 118" stroke-miterlimit="10" stroke-dasharray=""/></g><g><g><path fill="none" stroke="none"/><text fill="#000000" stroke="none" font-family="Arial" font-size="16px" font-style="normal" font-weight="normal" text-decoration="undefined" x="675" y="162" text-anchor="middle" dominant-baseline="central" transform="matrix(1 0 0 1 10 -26)">PatchTemplateRequest</text></g></g><g><path fill="#ffffff" stroke="none" paint-order="stroke fill markers" d=" M 226 118 L 406 118 L 370 154 L 190 154 L 226 118"/></g><g><path fill="none" stroke="#000000" paint-order="fill stroke markers" d=" M 226 118 L 406 118 L 370 154 L 190 154 L 226 118 L 226 118" stroke-miterlimit="10" stroke-dasharray=""/></g><g><g><path fill="none" stroke="none"/><text fill="#000000" stroke="none" font-family="Arial" font-size="16px" font-style="normal" font-weight="normal" text-decoration="undefined" x="288" y="162" text-anchor="middle" dominant-baseline="central" transform="matrix(1 0 0 1 10 -26)">TutorialDTO</text></g></g><g><path fill="#ffffff" stroke="none" paint-order="stroke fill markers" d=" M 79 46 L 334 46 L 283 82 L 28 82 L 79 46"/></g><g><path fill="none" stroke="#000000" paint-order="fill stroke markers" d=" M 79 46 L 334 46 L 283 82 L 28 82 L 79 46 L 79 46" stroke-miterlimit="10" stroke-dasharray=""/></g><g><g><path fill="none" stroke="none"/><text fill="#000000" stroke="none" font-family="Arial" font-size="16px" font-style="normal" font-weight="normal" text-decoration="undefined" x="171" y="90" text-anchor="middle" dominant-baseline="central" transform="matrix(1 0 0 1 10 -26)">TutorialMediaGroupFormatDTO</text></g></g><g><path fill="#ffffff" stroke="none" paint-order="stroke fill markers" d=" M 43 226 L 210.4921875 226 L 177.4921875 262 L 10 262 L 43 226"/></g><g><path fill="none" stroke="#000000" paint-order="fill stroke markers" d=" M 43 226 L 210.4921875 226 L 177.4921875 262 L 10 262 L 43 226 L 43 226" stroke-miterlimit="10" stroke-dasharray=""/></g><g><g><path fill="none" stroke="none"/><text fill="#000000" stroke="none" font-family="Arial" font-size="16px" font-style="normal" font-weight="normal" text-decoration="undefined" x="100.24609375" y="270" text-anchor="middle" dominant-baseline="central" transform="matrix(1 0 0 1 10 -26)">TutorialMediaFormatDTO</text></g></g><g><path fill="#ffffff" stroke="none" paint-order="stroke fill markers" d=" M 586 316 L 753.6953125 316 Q 771.6953125 316 771.6953125 334 L 771.6953125 334 Q 771.6953125 352 753.6953125 352 L 586 352 Q 568 352 568 334 L 568 334 Q 568 316 586 316 Z"/></g><g><path fill="none" stroke="#000000" paint-order="fill stroke markers" d=" M 586 316 L 753.6953125 316 Q 771.6953125 316 771.6953125 334 L 771.6953125 334 Q 771.6953125 352 753.6953125 352 L 586 352 Q 568 352 568 334 L 568 334 Q 568 316 586 316 Z" stroke-miterlimit="10" stroke-dasharray=""/></g><g><g><path fill="none" stroke="none"/><text fill="#000000" stroke="none" font-family="Arial" font-size="16px" font-style="normal" font-weight="normal" text-decoration="undefined" x="659.84765625" y="360" text-anchor="middle" dominant-baseline="central" transform="matrix(1 0 0 1 10 -26)">Название &lt; 70 символов</text></g></g><g><path fill="#ffffff" stroke="none" paint-order="stroke fill markers" d=" M 586 370 L 764.7109375 370 Q 782.7109375 370 782.7109375 388 L 782.7109375 388 Q 782.7109375 406 764.7109375 406 L 586 406 Q 568 406 568 388 L 568 388 Q 568 370 586 370 Z"/></g><g><path fill="none" stroke="#000000" paint-order="fill stroke markers" d=" M 586 370 L 764.7109375 370 Q 782.7109375 370 782.7109375 388 L 782.7109375 388 Q 782.7109375 406 764.7109375 406 L 586 406 Q 568 406 568 388 L 568 388 Q 568 370 586 370 Z" stroke-miterlimit="10" stroke-dasharray=""/></g><g><g><path fill="none" stroke="none"/><text fill="#000000" stroke="none" font-family="Arial" font-size="16px" font-style="normal" font-weight="normal" text-decoration="undefined" x="665.35546875" y="414" text-anchor="middle" dominant-baseline="central" transform="matrix(1 0 0 1 10 -26)">Описание &lt; 250 символов</text></g></g><g><path fill="none" stroke="#000000" paint-order="fill stroke markers" d=" M 676 352 L 676 370" stroke-miterlimit="10" stroke-dasharray=""/></g><g><path fill="#000000" stroke="none" paint-order="stroke fill markers" d=" M 671.790482243984 359.83732514237585 L 676 370 L 680.209517756016 359.83732514237585"/></g><g><path fill="none" stroke="#000000" paint-order="fill stroke markers" d=" M 671.790482243984 359.83732514237585 L 676 370 L 680.209517756016 359.83732514237585 L 671.790482243984 359.83732514237585" stroke-miterlimit="10" stroke-dasharray=""/></g><g><path fill="#ffffff" stroke="none" paint-order="stroke fill markers" d=" M 532 496 L 824.75 496 Q 842.75 496 842.75 514 L 842.75 514 Q 842.75 532 824.75 532 L 532 532 Q 514 532 514 514 L 514 514 Q 514 496 532 496 Z"/></g><g><path fill="none" stroke="#000000" paint-order="fill stroke markers" d=" M 532 496 L 824.75 496 Q 842.75 496 842.75 514 L 842.75 514 Q 842.75 532 824.75 532 L 532 532 Q 514 532 514 514 L 514 514 Q 514 496 532 496 Z" stroke-miterlimit="10" stroke-dasharray=""/></g><g><g><path fill="none" stroke="none"/><text fill="#000000" stroke="none" font-family="Arial" font-size="16px" font-style="normal" font-weight="normal" text-decoration="undefined" x="668.375" y="540" text-anchor="middle" dominant-baseline="central" transform="matrix(1 0 0 1 10 -26)">Кол-во обучающих материалов &lt; 25 штук</text></g></g><g><path fill="#ffffff" stroke="none" paint-order="stroke fill markers" d=" M 514 424 L 817.484375 424 Q 835.484375 424 835.484375 442 L 835.484375 442 Q 835.484375 460 817.484375 460 L 514 460 Q 496 460 496 442 L 496 442 Q 496 424 514 424 Z"/></g><g><path fill="none" stroke="#000000" paint-order="fill stroke markers" d=" M 514 424 L 817.484375 424 Q 835.484375 424 835.484375 442 L 835.484375 442 Q 835.484375 460 817.484375 460 L 514 460 Q 496 460 496 442 L 496 442 Q 496 424 514 424 Z" stroke-miterlimit="10" stroke-dasharray=""/></g><g><g><path fill="none" stroke="none"/><text fill="#000000" stroke="none" font-family="Arial" font-size="16px" font-style="normal" font-weight="normal" text-decoration="undefined" x="655.7421875" y="468" text-anchor="middle" dominant-baseline="central" transform="matrix(1 0 0 1 10 -26)">Номер указанной локализации существует</text></g></g><g><path fill="none" stroke="#000000" paint-order="fill stroke markers" d=" M 676 406 L 676 424" stroke-miterlimit="10" stroke-dasharray=""/></g><g><path fill="#000000" stroke="none" paint-order="stroke fill markers" d=" M 671.790482243984 413.83732514237585 L 676 424 L 680.209517756016 413.83732514237585"/></g><g><path fill="none" stroke="#000000" paint-order="fill stroke markers" d=" M 671.790482243984 413.83732514237585 L 676 424 L 680.209517756016 413.83732514237585 L 671.790482243984 413.83732514237585" stroke-miterlimit="10" stroke-dasharray=""/></g><g><path fill="none" stroke="#000000" paint-order="fill stroke markers" d=" M 676 460 L 676 496" stroke-miterlimit="10" stroke-dasharray=""/></g><g><path fill="#000000" stroke="none" paint-order="stroke fill markers" d=" M 671.790482243984 485.83732514237585 L 676 496 L 680.209517756016 485.83732514237585"/></g><g><path fill="none" stroke="#000000" paint-order="fill stroke markers" d=" M 671.790482243984 485.83732514237585 L 676 496 L 680.209517756016 485.83732514237585 L 671.790482243984 485.83732514237585" stroke-miterlimit="10" stroke-dasharray=""/></g><g><path fill="#ffffff" stroke="none" paint-order="stroke fill markers" d=" M 514 190 L 836.2578125 190 Q 854.2578125 190 854.2578125 208 L 854.2578125 208 Q 854.2578125 226 836.2578125 226 L 514 226 Q 496 226 496 208 L 496 208 Q 496 190 514 190 Z"/></g><g><path fill="none" stroke="#000000" paint-order="fill stroke markers" d=" M 514 190 L 836.2578125 190 Q 854.2578125 190 854.2578125 208 L 854.2578125 208 Q 854.2578125 226 836.2578125 226 L 514 226 Q 496 226 496 208 L 496 208 Q 496 190 514 190 Z" stroke-miterlimit="10" stroke-dasharray=""/></g><g><g><path fill="none" stroke="none"/><text fill="#000000" stroke="none" font-family="Arial" font-size="16px" font-style="normal" font-weight="normal" text-decoration="undefined" x="665.12890625" y="234" text-anchor="middle" dominant-baseline="central" transform="matrix(1 0 0 1 10 -26)">пользователь является владельцем шаблона</text></g></g><g><path fill="#ffffff" stroke="none" paint-order="stroke fill markers" d=" M 540 244 L 830 244 Q 856 244 856 270 L 856 270 Q 856 296 830 296 L 540 296 Q 514 296 514 270 L 514 270 Q 514 244 540 244 Z"/></g><g><path fill="none" stroke="#000000" paint-order="fill stroke markers" d=" M 540 244 L 830 244 Q 856 244 856 270 L 856 270 Q 856 296 830 296 L 540 296 Q 514 296 514 270 L 514 270 Q 514 244 540 244 Z" stroke-miterlimit="10" stroke-dasharray=""/></g><g><g><path fill="none" stroke="none"/><text fill="#000000" stroke="none" font-family="Arial" font-size="16px" font-style="normal" font-weight="normal" text-decoration="undefined" x="675" y="288" text-anchor="middle" dominant-baseline="central" transform="matrix(1 0 0 1 10 -26)">Шаблон с указанной локализацией</text><text fill="#000000" stroke="none" font-family="Arial" font-size="16px" font-style="normal" font-weight="normal" text-decoration="undefined" x="675" y="304" text-anchor="middle" dominant-baseline="central" transform="matrix(1 0 0 1 10 -26)">существует</text></g></g><g><path fill="none" stroke="#000000" paint-order="fill stroke markers" d=" M 691 64 L 691 118" stroke-miterlimit="10" stroke-dasharray=""/></g><g><path fill="#000000" stroke="none" paint-order="stroke fill markers" d=" M 686.790482243984 107.83732514237585 L 691 118 L 695.209517756016 107.83732514237585"/></g><g><path fill="none" stroke="#000000" paint-order="fill stroke markers" d=" M 686.790482243984 107.83732514237585 L 691 118 L 695.209517756016 107.83732514237585 L 686.790482243984 107.83732514237585" stroke-miterlimit="10" stroke-dasharray=""/></g><g><path fill="none" stroke="#000000" paint-order="fill stroke markers" d=" M 683 154 L 683 190" stroke-miterlimit="10" stroke-dasharray=""/></g><g><path fill="#000000" stroke="none" paint-order="stroke fill markers" d=" M 678.790482243984 179.83732514237585 L 683 190 L 687.209517756016 179.83732514237585"/></g><g><path fill="none" stroke="#000000" paint-order="fill stroke markers" d=" M 678.790482243984 179.83732514237585 L 683 190 L 687.209517756016 179.83732514237585 L 678.790482243984 179.83732514237585" stroke-miterlimit="10" stroke-dasharray=""/></g><g><path fill="none" stroke="#000000" paint-order="fill stroke markers" d=" M 674 226 L 674 244" stroke-miterlimit="10" stroke-dasharray=""/></g><g><path fill="#000000" stroke="none" paint-order="stroke fill markers" d=" M 669.790482243984 233.83732514237585 L 674 244 L 678.209517756016 233.83732514237585"/></g><g><path fill="none" stroke="#000000" paint-order="fill stroke markers" d=" M 669.790482243984 233.83732514237585 L 674 244 L 678.209517756016 233.83732514237585 L 669.790482243984 233.83732514237585" stroke-miterlimit="10" stroke-dasharray=""/></g><g><path fill="none" stroke="#000000" paint-order="fill stroke markers" d=" M 668 296 L 668 316" stroke-miterlimit="10" stroke-dasharray=""/></g><g><path fill="#000000" stroke="none" paint-order="stroke fill markers" d=" M 663.790482243984 305.83732514237585 L 668 316 L 672.209517756016 305.83732514237585"/></g><g><path fill="none" stroke="#000000" paint-order="fill stroke markers" d=" M 663.790482243984 305.83732514237585 L 668 316 L 672.209517756016 305.83732514237585 L 663.790482243984 305.83732514237585" stroke-miterlimit="10" stroke-dasharray=""/></g><g><path fill="none" stroke="#000000" paint-order="fill stroke markers" d=" M 406 148 L 478 148" stroke-miterlimit="10" stroke-dasharray=""/></g><g><path fill="#000000" stroke="none" paint-order="stroke fill markers" d=" M 467.83732514237585 152.209517756016 L 478 148 L 467.83732514237585 143.790482243984"/></g><g><path fill="none" stroke="#000000" paint-order="fill stroke markers" d=" M 467.83732514237585 152.209517756016 L 478 148 L 467.83732514237585 143.790482243984 L 467.83732514237585 152.209517756016" stroke-miterlimit="10" stroke-dasharray=""/></g><g><path fill="none" stroke="#000000" paint-order="fill stroke markers" d=" M 210 226 L 210 198 L 210 198 A 8 8 0 0 1 218 190 L 434 190 L 434 190 A 8 8 0 0 0 442 182 L 442 162 L 442 162 A 8 8 0 0 1 450 154 L 478 154" stroke-miterlimit="10" stroke-dasharray=""/></g><g><path fill="#000000" stroke="none" paint-order="stroke fill markers" d=" M 467.83732514237585 158.209517756016 L 478 154 L 467.83732514237585 149.790482243984"/></g><g><path fill="none" stroke="#000000" paint-order="fill stroke markers" d=" M 467.83732514237585 158.209517756016 L 478 154 L 467.83732514237585 149.790482243984 L 467.83732514237585 158.209517756016" stroke-miterlimit="10" stroke-dasharray=""/></g><g><path fill="none" stroke="#000000" paint-order="fill stroke markers" d=" M 118 226 L 118 144 L 118 144 A 8 8 0 0 1 126 136 L 190 136" stroke-miterlimit="10" stroke-dasharray=""/></g><g><path fill="#000000" stroke="none" paint-order="stroke fill markers" d=" M 179.83732514237585 140.209517756016 L 190 136 L 179.83732514237585 131.790482243984"/></g><g><path fill="none" stroke="#000000" paint-order="fill stroke markers" d=" M 179.83732514237585 140.209517756016 L 190 136 L 179.83732514237585 131.790482243984 L 179.83732514237585 140.209517756016" stroke-miterlimit="10" stroke-dasharray=""/></g><g><rect fill="#ffffff" stroke="none" x="83" y="139" width="51.578125" height="16" transform="matrix(1 0 0 1 10 -26)"/></g><g><g><path fill="none" stroke="none"/><text fill="#000000" stroke="none" font-family="Arial" font-size="16px" font-style="normal" font-weight="normal" text-decoration="undefined" x="108.7890625" y="147" text-anchor="middle" dominant-baseline="central" transform="matrix(1 0 0 1 10 -26)">inherits</text></g></g><g><path fill="none" stroke="#000000" paint-order="fill stroke markers" d=" M 211 82 L 211 118" stroke-miterlimit="10" stroke-dasharray=""/></g><g><path fill="#000000" stroke="none" paint-order="stroke fill markers" d=" M 206.790482243984 107.83732514237585 L 211 118 L 215.209517756016 107.83732514237585"/></g><g><path fill="none" stroke="#000000" paint-order="fill stroke markers" d=" M 206.790482243984 107.83732514237585 L 211 118 L 215.209517756016 107.83732514237585 L 206.790482243984 107.83732514237585" stroke-miterlimit="10" stroke-dasharray=""/></g><g><rect fill="#ffffff" stroke="none" x="190" y="117" width="51.578125" height="16" transform="matrix(1 0 0 1 10 -26)"/></g><g><g><path fill="none" stroke="none"/><text fill="#000000" stroke="none" font-family="Arial" font-size="16px" font-style="normal" font-weight="normal" text-decoration="undefined" x="215.7890625" y="125" text-anchor="middle" dominant-baseline="central" transform="matrix(1 0 0 1 10 -26)">inherits</text></g></g><g><path fill="none" stroke="#000000" paint-order="fill stroke markers" d=" M 334 64 L 470 64 L 470 64 A 8 8 0 0 1 478 72 L 478 118" stroke-miterlimit="10" stroke-dasharray=""/></g><g><path fill="#000000" stroke="none" paint-order="stroke fill markers" d=" M 473.790482243984 107.83732514237585 L 478 118 L 482.209517756016 107.83732514237585"/></g><g><path fill="none" stroke="#000000" paint-order="fill stroke markers" d=" M 473.790482243984 107.83732514237585 L 478 118 L 482.209517756016 107.83732514237585 L 473.790482243984 107.83732514237585" stroke-miterlimit="10" stroke-dasharray=""/></g><g><path fill="#ffffff" stroke="#000000" paint-order="fill stroke markers" d=" M 946 44 L 969 10 L 1066.484375 10 Q 1089.484375 10 1089.484375 44 Q 1089.484375 78 1066.484375 78 L 969 78 L 946 44 Z" stroke-miterlimit="10" stroke-dasharray=""/></g><g><g><path fill="none" stroke="none"/><text fill="#000000" stroke="none" font-family="Arial" font-size="16px" font-style="normal" font-weight="normal" text-decoration="undefined" x="1007.7421875" y="54" text-anchor="middle" dominant-baseline="central" transform="matrix(1 0 0 1 10 -26)">Заголовки</text><text fill="#000000" stroke="none" font-family="Arial" font-size="16px" font-style="normal" font-weight="normal" text-decoration="undefined" x="1007.7421875" y="70" text-anchor="middle" dominant-baseline="central" transform="matrix(1 0 0 1 10 -26)">запроса</text><text fill="#000000" stroke="none" font-family="Arial" font-size="16px" font-style="normal" font-weight="normal" text-decoration="undefined" x="1007.7421875" y="86" text-anchor="middle" dominant-baseline="central" transform="matrix(1 0 0 1 10 -26)">(Авторизирован)</text></g></g><g><path fill="none" stroke="#000000" paint-order="fill stroke markers" d=" M 946 78 L 946 110 L 946 110 A 8 8 0 0 1 938 118 L 892 118" stroke-miterlimit="10" stroke-dasharray=""/></g><g><path fill="#000000" stroke="none" paint-order="stroke fill markers" d=" M 902.1626748576241 113.790482243984 L 892 118 L 902.1626748576241 122.209517756016"/></g><g><path fill="none" stroke="#000000" paint-order="fill stroke markers" d=" M 902.1626748576241 113.790482243984 L 892 118 L 902.1626748576241 122.209517756016 L 902.1626748576241 113.790482243984" stroke-miterlimit="10" stroke-dasharray=""/></g><g><rect fill="#ffffff" stroke="none" x="468" y="612" width="396" height="36" transform="matrix(1 0 0 1 10 -26)"/></g><g><path fill="none" stroke="#000000" paint-order="fill stroke markers" d=" M 478 586 L 874 586 L 874 622 L 478 622 L 478 586 Z Z" stroke-miterlimit="10" stroke-dasharray=""/></g><g><g><path fill="none" stroke="none"/><text fill="#000000" stroke="none" font-family="Arial" font-size="16px" font-style="normal" font-weight="normal" text-decoration="undefined" x="666" y="630" text-anchor="middle" dominant-baseline="central" transform="matrix(1 0 0 1 10 -26)">Изменить данные шаблона</text></g></g><g><path fill="#ffffff" stroke="none" paint-order="stroke fill markers" d=" M 544 910 L 874 910 L 808 946 L 478 946 L 544 910"/></g><g><path fill="none" stroke="#000000" paint-order="fill stroke markers" d=" M 544 910 L 874 910 L 808 946 L 478 946 L 544 910 L 544 910" stroke-miterlimit="10" stroke-dasharray=""/></g><g><g><path fill="none" stroke="none"/><text fill="#000000" stroke="none" font-family="Arial" font-size="16px" font-style="normal" font-weight="normal" text-decoration="undefined" x="666" y="954" text-anchor="middle" dominant-baseline="central" transform="matrix(1 0 0 1 10 -26)">NoBodyResponse</text></g></g><g><path fill="none" stroke="#000000" paint-order="fill stroke markers" d=" M 676 532 L 676 586" stroke-miterlimit="10" stroke-dasharray=""/></g><g><path fill="#000000" stroke="none" paint-order="stroke fill markers" d=" M 671.790482243984 575.8373251423759 L 676 586 L 680.209517756016 575.8373251423759"/></g><g><path fill="none" stroke="#000000" paint-order="fill stroke markers" d=" M 671.790482243984 575.8373251423759 L 676 586 L 680.209517756016 575.8373251423759 L 671.790482243984 575.8373251423759" stroke-miterlimit="10" stroke-dasharray=""/></g><g><path fill="#ffffff" stroke="none" paint-order="stroke fill markers" d=" M 586 742 L 675.4921875 694 L 764.984375 742 L 675.4921875 790 L 586 742"/></g><g><path fill="none" stroke="#000000" paint-order="fill stroke markers" d=" M 586 742 L 675.4921875 694 L 764.984375 742 L 675.4921875 790 L 586 742 L 586 742" stroke-miterlimit="10" stroke-dasharray=""/></g><g><g><path fill="none" stroke="none"/><text fill="#000000" stroke="none" font-family="Arial" font-size="16px" font-style="normal" font-weight="normal" text-decoration="undefined" x="665.4921875" y="752" text-anchor="middle" dominant-baseline="central" transform="matrix(1 0 0 1 10 -26)">Обучающие</text><text fill="#000000" stroke="none" font-family="Arial" font-size="16px" font-style="normal" font-weight="normal" text-decoration="undefined" x="665.4921875" y="768" text-anchor="middle" dominant-baseline="central" transform="matrix(1 0 0 1 10 -26)">материалы</text><text fill="#000000" stroke="none" font-family="Arial" font-size="16px" font-style="normal" font-weight="normal" text-decoration="undefined" x="665.4921875" y="784" text-anchor="middle" dominant-baseline="central" transform="matrix(1 0 0 1 10 -26)">изменились</text></g></g><g><path fill="#ffffff" stroke="none" paint-order="stroke fill markers" d=" M 856 782 L 907 748 L 1111 748 L 1162 782 L 1111 816 L 907 816 L 856 782"/></g><g><path fill="none" stroke="#000000" paint-order="fill stroke markers" d=" M 856 782 L 907 748 L 1111 748 L 1162 782 L 1111 816 L 907 816 L 856 782 L 856 782" stroke-miterlimit="10" stroke-dasharray=""/></g><g><g><path fill="none" stroke="none"/><text fill="#000000" stroke="none" font-family="Arial" font-size="16px" font-style="normal" font-weight="normal" text-decoration="undefined" x="999" y="792" text-anchor="middle" dominant-baseline="central" transform="matrix(1 0 0 1 10 -26)">Обучающие материалы</text><text fill="#000000" stroke="none" font-family="Arial" font-size="16px" font-style="normal" font-weight="normal" text-decoration="undefined" x="999" y="808" text-anchor="middle" dominant-baseline="central" transform="matrix(1 0 0 1 10 -26)">в челендже были</text><text fill="#000000" stroke="none" font-family="Arial" font-size="16px" font-style="normal" font-weight="normal" text-decoration="undefined" x="999" y="824" text-anchor="middle" dominant-baseline="central" transform="matrix(1 0 0 1 10 -26)">изменены</text></g></g><g><path fill="none" stroke="#000000" paint-order="fill stroke markers" d=" M 765 755 L 856 755" stroke-miterlimit="10" stroke-dasharray=""/></g><g><path fill="#000000" stroke="none" paint-order="stroke fill markers" d=" M 845.8373251423759 759.209517756016 L 856 755 L 845.8373251423758 750.790482243984"/></g><g><path fill="none" stroke="#000000" paint-order="fill stroke markers" d=" M 845.8373251423759 759.209517756016 L 856 755 L 845.8373251423758 750.790482243984 L 845.8373251423759 759.209517756016" stroke-miterlimit="10" stroke-dasharray=""/></g><g><rect fill="#ffffff" stroke="none" x="791" y="758" width="19.734375" height="16" transform="matrix(1 0 0 1 10 -26)"/></g><g><g><path fill="none" stroke="none"/><text fill="#000000" stroke="none" font-family="Arial" font-size="16px" font-style="normal" font-weight="normal" text-decoration="undefined" x="800.8671875" y="766" text-anchor="middle" dominant-baseline="central" transform="matrix(1 0 0 1 10 -26)">Да</text></g></g><g><path fill="none" stroke="#000000" paint-order="fill stroke markers" d=" M 931 816 L 931 902 L 931 902 A 8 8 0 0 1 923 910 L 874 910" stroke-miterlimit="10" stroke-dasharray=""/></g><g><path fill="#000000" stroke="none" paint-order="stroke fill markers" d=" M 884.1626748576241 905.790482243984 L 874 910 L 884.1626748576241 914.209517756016"/></g><g><path fill="none" stroke="#000000" paint-order="fill stroke markers" d=" M 884.1626748576241 905.790482243984 L 874 910 L 884.1626748576241 914.209517756016 L 884.1626748576241 905.790482243984" stroke-miterlimit="10" stroke-dasharray=""/></g><g><path fill="none" stroke="#000000" paint-order="fill stroke markers" d=" M 675 790 L 675 910" stroke-miterlimit="10" stroke-dasharray=""/></g><g><path fill="#000000" stroke="none" paint-order="stroke fill markers" d=" M 670.790482243984 899.8373251423759 L 675 910 L 679.209517756016 899.8373251423759"/></g><g><path fill="none" stroke="#000000" paint-order="fill stroke markers" d=" M 670.790482243984 899.8373251423759 L 675 910 L 679.209517756016 899.8373251423759 L 670.790482243984 899.8373251423759" stroke-miterlimit="10" stroke-dasharray=""/></g><g><rect fill="#ffffff" stroke="none" x="666" y="867" width="27.25" height="16" transform="matrix(1 0 0 1 10 -26)"/></g><g><g><path fill="none" stroke="none"/><text fill="#000000" stroke="none" font-family="Arial" font-size="16px" font-style="normal" font-weight="normal" text-decoration="undefined" x="679.625" y="875" text-anchor="middle" dominant-baseline="central" transform="matrix(1 0 0 1 10 -26)">Нет</text></g></g><g><path fill="none" stroke="#000000" paint-order="fill stroke markers" d=" M 676 622 L 676 694" stroke-miterlimit="10" stroke-dasharray=""/></g><g><path fill="#000000" stroke="none" paint-order="stroke fill markers" d=" M 671.790482243984 683.8373251423759 L 676 694 L 680.209517756016 683.8373251423759"/></g><g><path fill="none" stroke="#000000" paint-order="fill stroke markers" d=" M 671.790482243984 683.8373251423759 L 676 694 L 680.209517756016 683.8373251423759 L 671.790482243984 683.8373251423759" stroke-miterlimit="10" stroke-dasharray=""/></g></g></svg>