<svg version="1.1" xmlns="http://www.w3.org/2000/svg" xmlns:xlink="http://www.w3.org/1999/xlink" width="2036" height="1766"><defs/><g><g><path fill="none" stroke="#000000" paint-order="fill stroke markers" d=" M 10 10 L 514 10 L 514 1756 L 10 1756 L 10 10 Z Z" stroke-miterlimit="10" stroke-dasharray=""/></g><g><path fill="none" stroke="#000000" paint-order="fill stroke markers" d=" M 10 36 L 514 36" stroke-miterlimit="10" stroke-dasharray=""/></g><g><g><path fill="none" stroke="none"/><text fill="#000000" stroke="none" font-family="Arial" font-size="16px" font-style="normal" font-weight="normal" text-decoration="undefined" x="468" y="77" text-anchor="middle" dominant-baseline="text-before-edge" transform="matrix(1 0 0 1 -206 -62)">Пользователь</text></g></g><g><path fill="none" stroke="#000000" paint-order="fill stroke markers" d=" M 514 10 L 1072 10 L 1072 1756 L 514 1756 L 514 10 Z Z" stroke-miterlimit="10" stroke-dasharray=""/></g><g><path fill="none" stroke="#000000" paint-order="fill stroke markers" d=" M 514 36 L 1072 36" stroke-miterlimit="10" stroke-dasharray=""/></g><g><g><path fill="none" stroke="none"/><text fill="#000000" stroke="none" font-family="Arial" font-size="16px" font-style="normal" font-weight="normal" text-decoration="undefined" x="999" y="77" text-anchor="middle" dominant-baseline="text-before-edge" transform="matrix(1 0 0 1 -206 -62)">Frontend</text></g></g><g><path fill="none" stroke="#000000" paint-order="fill stroke markers" d=" M 1072 10 L 1558 10 L 1558 1756 L 1072 1756 L 1072 10 Z Z" stroke-miterlimit="10" stroke-dasharray=""/></g><g><path fill="none" stroke="#000000" paint-order="fill stroke markers" d=" M 1072 36 L 1558 36" stroke-miterlimit="10" stroke-dasharray=""/></g><g><g><path fill="none" stroke="none"/><text fill="#000000" stroke="none" font-family="Arial" font-size="16px" font-style="normal" font-weight="normal" text-decoration="undefined" x="1521" y="77" text-anchor="middle" dominant-baseline="text-before-edge" transform="matrix(1 0 0 1 -206 -62)">Backend</text></g></g><g><path fill="none" stroke="#000000" paint-order="fill stroke markers" d=" M 1558 10 L 2026 10 L 2026 1756 L 1558 1756 L 1558 10 Z Z" stroke-miterlimit="10" stroke-dasharray=""/></g><g><path fill="none" stroke="#000000" paint-order="fill stroke markers" d=" M 1558 36 L 2026 36" stroke-miterlimit="10" stroke-dasharray=""/></g><g><g><path fill="none" stroke="none"/><text fill="#000000" stroke="none" font-family="Arial" font-size="16px" font-style="normal" font-weight="normal" text-decoration="undefined" x="1998" y="77" text-anchor="middle" dominant-baseline="text-before-edge" transform="matrix(1 0 0 1 -206 -62)">PaymentSystem</text></g></g><g><path fill="#C0C0C0" stroke="none" paint-order="stroke fill markers" d=" M 171 143 L 357.0234375 143 Q 367.0234375 143 367.0234375 153 L 367.0234375 205 Q 367.0234375 215 357.0234375 215 L 171 215 Q 161 215 161 205 L 161 153 Q 161 143 171 143 Z" fill-opacity="0.2"/></g><g><path fill="#ffffff" stroke="none" paint-order="stroke fill markers" d=" M 164 136 L 350.0234375 136 Q 360.0234375 136 360.0234375 146 L 360.0234375 198 Q 360.0234375 208 350.0234375 208 L 164 208 Q 154 208 154 198 L 154 146 Q 154 136 164 136 Z"/></g><g><path fill="none" stroke="#000000" paint-order="fill stroke markers" d=" M 164 136 L 350.0234375 136 Q 360.0234375 136 360.0234375 146 L 360.0234375 198 Q 360.0234375 208 350.0234375 208 L 164 208 Q 154 208 154 198 L 154 146 Q 154 136 164 136 Z" stroke-miterlimit="10" stroke-dasharray=""/></g><g><g><path fill="none" stroke="none"/><text fill="#000000" stroke="none" font-family="Arial" font-size="16px" font-style="normal" font-weight="normal" text-decoration="undefined" x="463.01171875" y="218" text-anchor="middle" dominant-baseline="central" transform="matrix(1 0 0 1 -206 -62)">Нажимает кнопку для</text><text fill="#000000" stroke="none" font-family="Arial" font-size="16px" font-style="normal" font-weight="normal" text-decoration="undefined" x="463.01171875" y="234" text-anchor="middle" dominant-baseline="central" transform="matrix(1 0 0 1 -206 -62)">привязки карты и выбирает</text><text fill="#000000" stroke="none" font-family="Arial" font-size="16px" font-style="normal" font-weight="normal" text-decoration="undefined" x="463.01171875" y="250" text-anchor="middle" dominant-baseline="central" transform="matrix(1 0 0 1 -206 -62)">платёжную систему</text></g></g><g><path fill="#C0C0C0" stroke="none" paint-order="stroke fill markers" d=" M 729 179 L 807.0234375 179 Q 817.0234375 179 817.0234375 189 L 817.0234375 243 Q 817.0234375 253 807.0234375 253 L 729 253 Q 719 253 719 243 L 719 189 Q 719 179 729 179 Z" fill-opacity="0.2"/></g><g><path fill="#ffffff" stroke="none" paint-order="stroke fill markers" d=" M 722 172 L 800.0234375 172 Q 810.0234375 172 810.0234375 182 L 810.0234375 236 Q 810.0234375 246 800.0234375 246 L 722 246 Q 712 246 712 236 L 712 182 Q 712 172 722 172 Z"/></g><g><path fill="none" stroke="#000000" paint-order="fill stroke markers" d=" M 722 172 L 800.0234375 172 Q 810.0234375 172 810.0234375 182 L 810.0234375 236 Q 810.0234375 246 800.0234375 246 L 722 246 Q 712 246 712 236 L 712 182 Q 712 172 722 172 Z" stroke-miterlimit="10" stroke-dasharray=""/></g><g><g><path fill="none" stroke="none"/><text fill="#000000" stroke="none" font-family="Arial" font-size="16px" font-style="normal" font-weight="normal" text-decoration="undefined" x="967.01171875" y="247" text-anchor="middle" dominant-baseline="central" transform="matrix(1 0 0 1 -206 -62)">Формирует</text><text fill="#000000" stroke="none" font-family="Arial" font-size="16px" font-style="normal" font-weight="normal" text-decoration="undefined" x="967.01171875" y="263" text-anchor="middle" dominant-baseline="central" transform="matrix(1 0 0 1 -206 -62)">запрос на</text><text fill="#000000" stroke="none" font-family="Arial" font-size="16px" font-style="normal" font-weight="normal" text-decoration="undefined" x="967.01171875" y="279" text-anchor="middle" dominant-baseline="central" transform="matrix(1 0 0 1 -206 -62)">привязку</text><text fill="#000000" stroke="none" font-family="Arial" font-size="16px" font-style="normal" font-weight="normal" text-decoration="undefined" x="967.01171875" y="295" text-anchor="middle" dominant-baseline="central" transform="matrix(1 0 0 1 -206 -62)">карты</text></g></g><g><path fill="#C0C0C0" stroke="none" paint-order="stroke fill markers" d=" M 1269 179 L 1348.953125 179 Q 1358.953125 179 1358.953125 189 L 1358.953125 307 Q 1358.953125 317 1348.953125 317 L 1269 317 Q 1259 317 1259 307 L 1259 189 Q 1259 179 1269 179 Z" fill-opacity="0.2"/></g><g><path fill="#ffffff" stroke="none" paint-order="stroke fill markers" d=" M 1262 172 L 1341.953125 172 Q 1351.953125 172 1351.953125 182 L 1351.953125 300 Q 1351.953125 310 1341.953125 310 L 1262 310 Q 1252 310 1252 300 L 1252 182 Q 1252 172 1262 172 Z"/></g><g><path fill="none" stroke="#000000" paint-order="fill stroke markers" d=" M 1262 172 L 1341.953125 172 Q 1351.953125 172 1351.953125 182 L 1351.953125 300 Q 1351.953125 310 1341.953125 310 L 1262 310 Q 1252 310 1252 300 L 1252 182 Q 1252 172 1262 172 Z" stroke-miterlimit="10" stroke-dasharray=""/></g><g><g><path fill="none" stroke="none"/><text fill="#000000" stroke="none" font-family="Arial" font-size="16px" font-style="normal" font-weight="normal" text-decoration="undefined" x="1507.9765625" y="247" text-anchor="middle" dominant-baseline="central" transform="matrix(1 0 0 1 -206 -62)">Определяет</text><text fill="#000000" stroke="none" font-family="Arial" font-size="16px" font-style="normal" font-weight="normal" text-decoration="undefined" x="1507.9765625" y="263" text-anchor="middle" dominant-baseline="central" transform="matrix(1 0 0 1 -206 -62)">платёжную</text><text fill="#000000" stroke="none" font-family="Arial" font-size="16px" font-style="normal" font-weight="normal" text-decoration="undefined" x="1507.9765625" y="279" text-anchor="middle" dominant-baseline="central" transform="matrix(1 0 0 1 -206 -62)">систему и</text><text fill="#000000" stroke="none" font-family="Arial" font-size="16px" font-style="normal" font-weight="normal" text-decoration="undefined" x="1507.9765625" y="295" text-anchor="middle" dominant-baseline="central" transform="matrix(1 0 0 1 -206 -62)">делает</text><text fill="#000000" stroke="none" font-family="Arial" font-size="16px" font-style="normal" font-weight="normal" text-decoration="undefined" x="1507.9765625" y="311" text-anchor="middle" dominant-baseline="central" transform="matrix(1 0 0 1 -206 -62)">запрос на</text><text fill="#000000" stroke="none" font-family="Arial" font-size="16px" font-style="normal" font-weight="normal" text-decoration="undefined" x="1507.9765625" y="327" text-anchor="middle" dominant-baseline="central" transform="matrix(1 0 0 1 -206 -62)">получение</text><text fill="#000000" stroke="none" font-family="Arial" font-size="16px" font-style="normal" font-weight="normal" text-decoration="undefined" x="1507.9765625" y="343" text-anchor="middle" dominant-baseline="central" transform="matrix(1 0 0 1 -206 -62)">формы для</text><text fill="#000000" stroke="none" font-family="Arial" font-size="16px" font-style="normal" font-weight="normal" text-decoration="undefined" x="1507.9765625" y="359" text-anchor="middle" dominant-baseline="central" transform="matrix(1 0 0 1 -206 -62)">ввода карты</text></g></g><g><path fill="#C0C0C0" stroke="none" paint-order="stroke fill markers" d=" M 1773 287 L 1851.0234375 287 Q 1861.0234375 287 1861.0234375 297 L 1861.0234375 367 Q 1861.0234375 377 1851.0234375 377 L 1773 377 Q 1763 377 1763 367 L 1763 297 Q 1763 287 1773 287 Z" fill-opacity="0.2"/></g><g><path fill="#ffffff" stroke="none" paint-order="stroke fill markers" d=" M 1766 280 L 1844.0234375 280 Q 1854.0234375 280 1854.0234375 290 L 1854.0234375 360 Q 1854.0234375 370 1844.0234375 370 L 1766 370 Q 1756 370 1756 360 L 1756 290 Q 1756 280 1766 280 Z"/></g><g><path fill="none" stroke="#000000" paint-order="fill stroke markers" d=" M 1766 280 L 1844.0234375 280 Q 1854.0234375 280 1854.0234375 290 L 1854.0234375 360 Q 1854.0234375 370 1844.0234375 370 L 1766 370 Q 1756 370 1756 360 L 1756 290 Q 1756 280 1766 280 Z" stroke-miterlimit="10" stroke-dasharray=""/></g><g><g><path fill="none" stroke="none"/><text fill="#000000" stroke="none" font-family="Arial" font-size="16px" font-style="normal" font-weight="normal" text-decoration="undefined" x="2011.01171875" y="355" text-anchor="middle" dominant-baseline="central" transform="matrix(1 0 0 1 -206 -62)">Обработка</text><text fill="#000000" stroke="none" font-family="Arial" font-size="16px" font-style="normal" font-weight="normal" text-decoration="undefined" x="2011.01171875" y="371" text-anchor="middle" dominant-baseline="central" transform="matrix(1 0 0 1 -206 -62)">запроса на</text><text fill="#000000" stroke="none" font-family="Arial" font-size="16px" font-style="normal" font-weight="normal" text-decoration="undefined" x="2011.01171875" y="387" text-anchor="middle" dominant-baseline="central" transform="matrix(1 0 0 1 -206 -62)">получение</text><text fill="#000000" stroke="none" font-family="Arial" font-size="16px" font-style="normal" font-weight="normal" text-decoration="undefined" x="2011.01171875" y="403" text-anchor="middle" dominant-baseline="central" transform="matrix(1 0 0 1 -206 -62)">формы</text><text fill="#000000" stroke="none" font-family="Arial" font-size="16px" font-style="normal" font-weight="normal" text-decoration="undefined" x="2011.01171875" y="419" text-anchor="middle" dominant-baseline="central" transform="matrix(1 0 0 1 -206 -62)">ввода карты</text></g></g><g><path fill="#C0C0C0" stroke="none" paint-order="stroke fill markers" d=" M 1773 449 L 1851.0234375 449 Q 1861.0234375 449 1861.0234375 459 L 1861.0234375 497 Q 1861.0234375 507 1851.0234375 507 L 1773 507 Q 1763 507 1763 497 L 1763 459 Q 1763 449 1773 449 Z" fill-opacity="0.2"/></g><g><path fill="#ffffff" stroke="none" paint-order="stroke fill markers" d=" M 1766 442 L 1844.0234375 442 Q 1854.0234375 442 1854.0234375 452 L 1854.0234375 490 Q 1854.0234375 500 1844.0234375 500 L 1766 500 Q 1756 500 1756 490 L 1756 452 Q 1756 442 1766 442 Z"/></g><g><path fill="none" stroke="#000000" paint-order="fill stroke markers" d=" M 1766 442 L 1844.0234375 442 Q 1854.0234375 442 1854.0234375 452 L 1854.0234375 490 Q 1854.0234375 500 1844.0234375 500 L 1766 500 Q 1756 500 1756 490 L 1756 452 Q 1756 442 1766 442 Z" stroke-miterlimit="10" stroke-dasharray=""/></g><g><g><path fill="none" stroke="none"/><text fill="#000000" stroke="none" font-family="Arial" font-size="16px" font-style="normal" font-weight="normal" text-decoration="undefined" x="2011.01171875" y="517" text-anchor="middle" dominant-baseline="central" transform="matrix(1 0 0 1 -206 -62)">возврат</text><text fill="#000000" stroke="none" font-family="Arial" font-size="16px" font-style="normal" font-weight="normal" text-decoration="undefined" x="2011.01171875" y="533" text-anchor="middle" dominant-baseline="central" transform="matrix(1 0 0 1 -206 -62)">ссылки на</text><text fill="#000000" stroke="none" font-family="Arial" font-size="16px" font-style="normal" font-weight="normal" text-decoration="undefined" x="2011.01171875" y="549" text-anchor="middle" dominant-baseline="central" transform="matrix(1 0 0 1 -206 -62)">форму</text></g></g><g><path fill="#C0C0C0" stroke="none" paint-order="stroke fill markers" d=" M 1269 485 L 1370.5859375 485 Q 1380.5859375 485 1380.5859375 495 L 1380.5859375 581 Q 1380.5859375 591 1370.5859375 591 L 1269 591 Q 1259 591 1259 581 L 1259 495 Q 1259 485 1269 485 Z" fill-opacity="0.2"/></g><g><path fill="#ffffff" stroke="none" paint-order="stroke fill markers" d=" M 1262 478 L 1363.5859375 478 Q 1373.5859375 478 1373.5859375 488 L 1373.5859375 574 Q 1373.5859375 584 1363.5859375 584 L 1262 584 Q 1252 584 1252 574 L 1252 488 Q 1252 478 1262 478 Z"/></g><g><path fill="none" stroke="#000000" paint-order="fill stroke markers" d=" M 1262 478 L 1363.5859375 478 Q 1373.5859375 478 1373.5859375 488 L 1373.5859375 574 Q 1373.5859375 584 1363.5859375 584 L 1262 584 Q 1252 584 1252 574 L 1252 488 Q 1252 478 1262 478 Z" stroke-miterlimit="10" stroke-dasharray=""/></g><g><g><path fill="none" stroke="none"/><text fill="#000000" stroke="none" font-family="Arial" font-size="16px" font-style="normal" font-weight="normal" text-decoration="undefined" x="1518.79296875" y="553" text-anchor="middle" dominant-baseline="central" transform="matrix(1 0 0 1 -206 -62)">Формирование</text><text fill="#000000" stroke="none" font-family="Arial" font-size="16px" font-style="normal" font-weight="normal" text-decoration="undefined" x="1518.79296875" y="569" text-anchor="middle" dominant-baseline="central" transform="matrix(1 0 0 1 -206 -62)">ответа</text><text fill="#000000" stroke="none" font-family="Arial" font-size="16px" font-style="normal" font-weight="normal" text-decoration="undefined" x="1518.79296875" y="585" text-anchor="middle" dominant-baseline="central" transform="matrix(1 0 0 1 -206 -62)">пользователю с</text><text fill="#000000" stroke="none" font-family="Arial" font-size="16px" font-style="normal" font-weight="normal" text-decoration="undefined" x="1518.79296875" y="601" text-anchor="middle" dominant-baseline="central" transform="matrix(1 0 0 1 -206 -62)">ссылкой на</text><text fill="#000000" stroke="none" font-family="Arial" font-size="16px" font-style="normal" font-weight="normal" text-decoration="undefined" x="1518.79296875" y="617" text-anchor="middle" dominant-baseline="central" transform="matrix(1 0 0 1 -206 -62)">форму ввода</text><text fill="#000000" stroke="none" font-family="Arial" font-size="16px" font-style="normal" font-weight="normal" text-decoration="undefined" x="1518.79296875" y="633" text-anchor="middle" dominant-baseline="central" transform="matrix(1 0 0 1 -206 -62)">карты</text></g></g><g><path fill="#C0C0C0" stroke="none" paint-order="stroke fill markers" d=" M 189 683 L 267.0234375 683 Q 277.0234375 683 277.0234375 693 L 277.0234375 715 Q 277.0234375 725 267.0234375 725 L 189 725 Q 179 725 179 715 L 179 693 Q 179 683 189 683 Z" fill-opacity="0.2"/></g><g><path fill="#ffffff" stroke="none" paint-order="stroke fill markers" d=" M 182 676 L 260.0234375 676 Q 270.0234375 676 270.0234375 686 L 270.0234375 708 Q 270.0234375 718 260.0234375 718 L 182 718 Q 172 718 172 708 L 172 686 Q 172 676 182 676 Z"/></g><g><path fill="none" stroke="#000000" paint-order="fill stroke markers" d=" M 182 676 L 260.0234375 676 Q 270.0234375 676 270.0234375 686 L 270.0234375 708 Q 270.0234375 718 260.0234375 718 L 182 718 Q 172 718 172 708 L 172 686 Q 172 676 182 676 Z" stroke-miterlimit="10" stroke-dasharray=""/></g><g><g><path fill="none" stroke="none"/><text fill="#000000" stroke="none" font-family="Arial" font-size="16px" font-style="normal" font-weight="normal" text-decoration="undefined" x="427.01171875" y="751" text-anchor="middle" dominant-baseline="central" transform="matrix(1 0 0 1 -206 -62)">Ввод данных</text><text fill="#000000" stroke="none" font-family="Arial" font-size="16px" font-style="normal" font-weight="normal" text-decoration="undefined" x="427.01171875" y="767" text-anchor="middle" dominant-baseline="central" transform="matrix(1 0 0 1 -206 -62)">карты </text></g></g><g><path fill="#C0C0C0" stroke="none" paint-order="stroke fill markers" d=" M 1773 773 L 1851.0234375 773 Q 1861.0234375 773 1861.0234375 783 L 1861.0234375 821 Q 1861.0234375 831 1851.0234375 831 L 1773 831 Q 1763 831 1763 821 L 1763 783 Q 1763 773 1773 773 Z" fill-opacity="0.2"/></g><g><path fill="#ffffff" stroke="none" paint-order="stroke fill markers" d=" M 1766 766 L 1844.0234375 766 Q 1854.0234375 766 1854.0234375 776 L 1854.0234375 814 Q 1854.0234375 824 1844.0234375 824 L 1766 824 Q 1756 824 1756 814 L 1756 776 Q 1756 766 1766 766 Z"/></g><g><path fill="none" stroke="#000000" paint-order="fill stroke markers" d=" M 1766 766 L 1844.0234375 766 Q 1854.0234375 766 1854.0234375 776 L 1854.0234375 814 Q 1854.0234375 824 1844.0234375 824 L 1766 824 Q 1756 824 1756 814 L 1756 776 Q 1756 766 1766 766 Z" stroke-miterlimit="10" stroke-dasharray=""/></g><g><g><path fill="none" stroke="none"/><text fill="#000000" stroke="none" font-family="Arial" font-size="16px" font-style="normal" font-weight="normal" text-decoration="undefined" x="2011.01171875" y="841" text-anchor="middle" dominant-baseline="central" transform="matrix(1 0 0 1 -206 -62)">Проверка</text><text fill="#000000" stroke="none" font-family="Arial" font-size="16px" font-style="normal" font-weight="normal" text-decoration="undefined" x="2011.01171875" y="857" text-anchor="middle" dominant-baseline="central" transform="matrix(1 0 0 1 -206 -62)">валидности</text><text fill="#000000" stroke="none" font-family="Arial" font-size="16px" font-style="normal" font-weight="normal" text-decoration="undefined" x="2011.01171875" y="873" text-anchor="middle" dominant-baseline="central" transform="matrix(1 0 0 1 -206 -62)">карты</text></g></g><g><path fill="#C0C0C0" stroke="none" paint-order="stroke fill markers" d=" M 1755 935 L 1884.453125 935 Q 1894.453125 935 1894.453125 945 L 1894.453125 1015 Q 1894.453125 1025 1884.453125 1025 L 1755 1025 Q 1745 1025 1745 1015 L 1745 945 Q 1745 935 1755 935 Z" fill-opacity="0.2"/></g><g><path fill="#ffffff" stroke="none" paint-order="stroke fill markers" d=" M 1748 928 L 1877.453125 928 Q 1887.453125 928 1887.453125 938 L 1887.453125 1008 Q 1887.453125 1018 1877.453125 1018 L 1748 1018 Q 1738 1018 1738 1008 L 1738 938 Q 1738 928 1748 928 Z"/></g><g><path fill="none" stroke="#000000" paint-order="fill stroke markers" d=" M 1748 928 L 1877.453125 928 Q 1887.453125 928 1887.453125 938 L 1887.453125 1008 Q 1887.453125 1018 1877.453125 1018 L 1748 1018 Q 1738 1018 1738 1008 L 1738 938 Q 1738 928 1748 928 Z" stroke-miterlimit="10" stroke-dasharray=""/></g><g><g><path fill="none" stroke="none"/><text fill="#000000" stroke="none" font-family="Arial" font-size="16px" font-style="normal" font-weight="normal" text-decoration="undefined" x="2018.7265625" y="1011" text-anchor="middle" dominant-baseline="central" transform="matrix(1 0 0 1 -206 -62)">формирование</text><text fill="#000000" stroke="none" font-family="Arial" font-size="16px" font-style="normal" font-weight="normal" text-decoration="undefined" x="2018.7265625" y="1027" text-anchor="middle" dominant-baseline="central" transform="matrix(1 0 0 1 -206 -62)">пользовательского</text><text fill="#000000" stroke="none" font-family="Arial" font-size="16px" font-style="normal" font-weight="normal" text-decoration="undefined" x="2018.7265625" y="1043" text-anchor="middle" dominant-baseline="central" transform="matrix(1 0 0 1 -206 -62)">токена для</text><text fill="#000000" stroke="none" font-family="Arial" font-size="16px" font-style="normal" font-weight="normal" text-decoration="undefined" x="2018.7265625" y="1059" text-anchor="middle" dominant-baseline="central" transform="matrix(1 0 0 1 -206 -62)">платёжной системы</text></g></g><g><path fill="#C0C0C0" stroke="none" paint-order="stroke fill markers" d=" M 711 1097 L 840.453125 1097 Q 850.453125 1097 850.453125 1107 L 850.453125 1177 Q 850.453125 1187 840.453125 1187 L 711 1187 Q 701 1187 701 1177 L 701 1107 Q 701 1097 711 1097 Z" fill-opacity="0.2"/></g><g><path fill="#ffffff" stroke="none" paint-order="stroke fill markers" d=" M 704 1090 L 833.453125 1090 Q 843.453125 1090 843.453125 1100 L 843.453125 1170 Q 843.453125 1180 833.453125 1180 L 704 1180 Q 694 1180 694 1170 L 694 1100 Q 694 1090 704 1090 Z"/></g><g><path fill="none" stroke="#000000" paint-order="fill stroke markers" d=" M 704 1090 L 833.453125 1090 Q 843.453125 1090 843.453125 1100 L 843.453125 1170 Q 843.453125 1180 833.453125 1180 L 704 1180 Q 694 1180 694 1170 L 694 1100 Q 694 1090 704 1090 Z" stroke-miterlimit="10" stroke-dasharray=""/></g><g><g><path fill="none" stroke="none"/><text fill="#000000" stroke="none" font-family="Arial" font-size="16px" font-style="normal" font-weight="normal" text-decoration="undefined" x="974.7265625" y="1173" text-anchor="middle" dominant-baseline="central" transform="matrix(1 0 0 1 -206 -62)">получение</text><text fill="#000000" stroke="none" font-family="Arial" font-size="16px" font-style="normal" font-weight="normal" text-decoration="undefined" x="974.7265625" y="1189" text-anchor="middle" dominant-baseline="central" transform="matrix(1 0 0 1 -206 -62)">пользовательского</text><text fill="#000000" stroke="none" font-family="Arial" font-size="16px" font-style="normal" font-weight="normal" text-decoration="undefined" x="974.7265625" y="1205" text-anchor="middle" dominant-baseline="central" transform="matrix(1 0 0 1 -206 -62)">токена для</text><text fill="#000000" stroke="none" font-family="Arial" font-size="16px" font-style="normal" font-weight="normal" text-decoration="undefined" x="974.7265625" y="1221" text-anchor="middle" dominant-baseline="central" transform="matrix(1 0 0 1 -206 -62)">платёжной системы</text></g></g><g><path fill="#C0C0C0" stroke="none" paint-order="stroke fill markers" d=" M 729 1295 L 807.0234375 1295 Q 817.0234375 1295 817.0234375 1305 L 817.0234375 1327 Q 817.0234375 1337 807.0234375 1337 L 729 1337 Q 719 1337 719 1327 L 719 1305 Q 719 1295 729 1295 Z" fill-opacity="0.2"/></g><g><path fill="#ffffff" stroke="none" paint-order="stroke fill markers" d=" M 722 1288 L 800.0234375 1288 Q 810.0234375 1288 810.0234375 1298 L 810.0234375 1320 Q 810.0234375 1330 800.0234375 1330 L 722 1330 Q 712 1330 712 1320 L 712 1298 Q 712 1288 722 1288 Z"/></g><g><path fill="none" stroke="#000000" paint-order="fill stroke markers" d=" M 722 1288 L 800.0234375 1288 Q 810.0234375 1288 810.0234375 1298 L 810.0234375 1320 Q 810.0234375 1330 800.0234375 1330 L 722 1330 Q 712 1330 712 1320 L 712 1298 Q 712 1288 722 1288 Z" stroke-miterlimit="10" stroke-dasharray=""/></g><g><g><path fill="none" stroke="none"/><text fill="#000000" stroke="none" font-family="Arial" font-size="16px" font-style="normal" font-weight="normal" text-decoration="undefined" x="967.01171875" y="1363" text-anchor="middle" dominant-baseline="central" transform="matrix(1 0 0 1 -206 -62)">Отправка</text><text fill="#000000" stroke="none" font-family="Arial" font-size="16px" font-style="normal" font-weight="normal" text-decoration="undefined" x="967.01171875" y="1379" text-anchor="middle" dominant-baseline="central" transform="matrix(1 0 0 1 -206 -62)">токена</text></g></g><g><path fill="#C0C0C0" stroke="none" paint-order="stroke fill markers" d=" M 1269 1385 L 1382.0703125 1385 Q 1392.0703125 1385 1392.0703125 1395 L 1392.0703125 1465 Q 1392.0703125 1475 1382.0703125 1475 L 1269 1475 Q 1259 1475 1259 1465 L 1259 1395 Q 1259 1385 1269 1385 Z" fill-opacity="0.2"/></g><g><path fill="#ffffff" stroke="none" paint-order="stroke fill markers" d=" M 1262 1378 L 1375.0703125 1378 Q 1385.0703125 1378 1385.0703125 1388 L 1385.0703125 1458 Q 1385.0703125 1468 1375.0703125 1468 L 1262 1468 Q 1252 1468 1252 1458 L 1252 1388 Q 1252 1378 1262 1378 Z"/></g><g><path fill="none" stroke="#000000" paint-order="fill stroke markers" d=" M 1262 1378 L 1375.0703125 1378 Q 1385.0703125 1378 1385.0703125 1388 L 1385.0703125 1458 Q 1385.0703125 1468 1375.0703125 1468 L 1262 1468 Q 1252 1468 1252 1458 L 1252 1388 Q 1252 1378 1262 1378 Z" stroke-miterlimit="10" stroke-dasharray=""/></g><g><g><path fill="none" stroke="none"/><text fill="#000000" stroke="none" font-family="Arial" font-size="16px" font-style="normal" font-weight="normal" text-decoration="undefined" x="1524.53515625" y="1461" text-anchor="middle" dominant-baseline="central" transform="matrix(1 0 0 1 -206 -62)">Привязываеться</text><text fill="#000000" stroke="none" font-family="Arial" font-size="16px" font-style="normal" font-weight="normal" text-decoration="undefined" x="1524.53515625" y="1477" text-anchor="middle" dominant-baseline="central" transform="matrix(1 0 0 1 -206 -62)">токен платёжной</text><text fill="#000000" stroke="none" font-family="Arial" font-size="16px" font-style="normal" font-weight="normal" text-decoration="undefined" x="1524.53515625" y="1493" text-anchor="middle" dominant-baseline="central" transform="matrix(1 0 0 1 -206 -62)">системы к</text><text fill="#000000" stroke="none" font-family="Arial" font-size="16px" font-style="normal" font-weight="normal" text-decoration="undefined" x="1524.53515625" y="1509" text-anchor="middle" dominant-baseline="central" transform="matrix(1 0 0 1 -206 -62)">пользователю</text></g></g><g><path fill="#C0C0C0" stroke="none" paint-order="stroke fill markers" d=" M 1295 1671 C 1295 1662.1634432 1302.1634432 1655 1311 1655 C 1319.8365568 1655 1327 1662.1634432 1327 1671 C 1327 1679.8365568 1319.8365568 1687 1311 1687 C 1302.1634432 1687 1295 1679.8365568 1295 1671 Z" fill-opacity="0.2"/></g><g><path fill="#ffffff" stroke="none" paint-order="stroke fill markers" d=" M 1288 1664 C 1288 1655.1634432 1295.1634432 1648 1304 1648 C 1312.8365568 1648 1320 1655.1634432 1320 1664 C 1320 1672.8365568 1312.8365568 1680 1304 1680 C 1295.1634432 1680 1288 1672.8365568 1288 1664 Z"/></g><g><path fill="none" stroke="#000000" paint-order="fill stroke markers" d=" M 1288 1664 C 1288 1655.1634432 1295.1634432 1648 1304 1648 C 1312.8365568 1648 1320 1655.1634432 1320 1664 C 1320 1672.8365568 1312.8365568 1680 1304 1680 C 1295.1634432 1680 1288 1672.8365568 1288 1664 Z" stroke-miterlimit="10" stroke-width="3" stroke-dasharray=""/></g><g><rect fill="#ffffff" stroke="none" x="1431.9140625" y="1754" width="156.171875" height="16" transform="matrix(1 0 0 1 -206 -62)"/></g><g><g><path fill="none" stroke="none"/><text fill="#000000" stroke="none" font-family="Arial" font-size="16px" font-style="normal" font-weight="normal" text-decoration="undefined" x="1510" y="1762" text-anchor="middle" dominant-baseline="central" transform="matrix(1 0 0 1 -206 -62)">Привязка завершена</text></g></g><g><path fill="none" stroke="#000000" paint-order="fill stroke markers" d=" M 360 205 L 712 205" stroke-miterlimit="10" stroke-dasharray=""/></g><g><path fill="#000000" stroke="none" paint-order="stroke fill markers" d=" M 701.8373251423759 209.209517756016 L 712 205 L 701.8373251423758 200.790482243984"/></g><g><path fill="none" stroke="#000000" paint-order="fill stroke markers" d=" M 701.8373251423759 209.209517756016 L 712 205 L 701.8373251423758 200.790482243984 L 701.8373251423759 209.209517756016" stroke-miterlimit="10" stroke-dasharray=""/></g><g><path fill="none" stroke="#000000" paint-order="fill stroke markers" d=" M 810 238 L 1252 238" stroke-miterlimit="10" stroke-dasharray=""/></g><g><path fill="#000000" stroke="none" paint-order="stroke fill markers" d=" M 1241.837325142376 242.209517756016 L 1252 238 L 1241.837325142376 233.790482243984"/></g><g><path fill="none" stroke="#000000" paint-order="fill stroke markers" d=" M 1241.837325142376 242.209517756016 L 1252 238 L 1241.837325142376 233.790482243984 L 1241.837325142376 242.209517756016" stroke-miterlimit="10" stroke-dasharray=""/></g><g><path fill="none" stroke="#000000" paint-order="fill stroke markers" d=" M 1301 310 L 1301 309 L 1301 309 A 8 8 0 0 0 1309 317 L 1756 317" stroke-miterlimit="10" stroke-dasharray=""/></g><g><path fill="#000000" stroke="none" paint-order="stroke fill markers" d=" M 1745.837325142376 321.209517756016 L 1756 317 L 1745.837325142376 312.790482243984"/></g><g><path fill="none" stroke="#000000" paint-order="fill stroke markers" d=" M 1745.837325142376 321.209517756016 L 1756 317 L 1745.837325142376 312.790482243984 L 1745.837325142376 321.209517756016" stroke-miterlimit="10" stroke-dasharray=""/></g><g><path fill="none" stroke="#000000" paint-order="fill stroke markers" d=" M 1805 370 L 1805 442" stroke-miterlimit="10" stroke-dasharray=""/></g><g><path fill="#000000" stroke="none" paint-order="stroke fill markers" d=" M 1800.7904822439841 431.83732514237585 L 1805 442 L 1809.2095177560159 431.83732514237585"/></g><g><path fill="none" stroke="#000000" paint-order="fill stroke markers" d=" M 1800.7904822439841 431.83732514237585 L 1805 442 L 1809.2095177560159 431.83732514237585 L 1800.7904822439841 431.83732514237585" stroke-miterlimit="10" stroke-dasharray=""/></g><g><path fill="none" stroke="#000000" paint-order="fill stroke markers" d=" M 1756 500 L 1756 516 L 1756 516 A 8 8 0 0 1 1748 524 L 1374 524" stroke-miterlimit="10" stroke-dasharray=""/></g><g><path fill="#000000" stroke="none" paint-order="stroke fill markers" d=" M 1384.162674857624 519.790482243984 L 1374 524 L 1384.162674857624 528.209517756016"/></g><g><path fill="none" stroke="#000000" paint-order="fill stroke markers" d=" M 1384.162674857624 519.790482243984 L 1374 524 L 1384.162674857624 528.209517756016 L 1384.162674857624 519.790482243984" stroke-miterlimit="10" stroke-dasharray=""/></g><g><path fill="none" stroke="#000000" paint-order="fill stroke markers" d=" M 1252 584 L 1252 682 L 1252 682 A 8 8 0 0 1 1244 690 L 270 690" stroke-miterlimit="10" stroke-dasharray=""/></g><g><path fill="#000000" stroke="none" paint-order="stroke fill markers" d=" M 280.16267485762415 685.790482243984 L 270 690 L 280.16267485762415 694.209517756016"/></g><g><path fill="none" stroke="#000000" paint-order="fill stroke markers" d=" M 280.16267485762415 685.790482243984 L 270 690 L 280.16267485762415 694.209517756016 L 280.16267485762415 685.790482243984" stroke-miterlimit="10" stroke-dasharray=""/></g><g><path fill="none" stroke="#000000" paint-order="fill stroke markers" d=" M 270 718 L 270 784 L 270 784 A 8 8 0 0 0 278 792 L 1756 792" stroke-miterlimit="10" stroke-dasharray=""/></g><g><path fill="#000000" stroke="none" paint-order="stroke fill markers" d=" M 1745.837325142376 796.209517756016 L 1756 792 L 1745.837325142376 787.790482243984"/></g><g><path fill="none" stroke="#000000" paint-order="fill stroke markers" d=" M 1745.837325142376 796.209517756016 L 1756 792 L 1745.837325142376 787.790482243984 L 1745.837325142376 796.209517756016" stroke-miterlimit="10" stroke-dasharray=""/></g><g><path fill="none" stroke="#000000" paint-order="fill stroke markers" d=" M 1806 824 L 1806 928" stroke-miterlimit="10" stroke-dasharray=""/></g><g><path fill="#000000" stroke="none" paint-order="stroke fill markers" d=" M 1801.7904822439841 917.8373251423759 L 1806 928 L 1810.2095177560159 917.8373251423759"/></g><g><path fill="none" stroke="#000000" paint-order="fill stroke markers" d=" M 1801.7904822439841 917.8373251423759 L 1806 928 L 1810.2095177560159 917.8373251423759 L 1801.7904822439841 917.8373251423759" stroke-miterlimit="10" stroke-dasharray=""/></g><g><path fill="none" stroke="#000000" paint-order="fill stroke markers" d=" M 1738 1018 L 1738 1115 L 1738 1115 A 8 8 0 0 1 1730 1123 L 843 1123" stroke-miterlimit="10" stroke-dasharray=""/></g><g><path fill="#000000" stroke="none" paint-order="stroke fill markers" d=" M 853.1626748576241 1118.7904822439841 L 843 1123 L 853.1626748576241 1127.2095177560159"/></g><g><path fill="none" stroke="#000000" paint-order="fill stroke markers" d=" M 853.1626748576241 1118.7904822439841 L 843 1123 L 853.1626748576241 1127.2095177560159 L 853.1626748576241 1118.7904822439841" stroke-miterlimit="10" stroke-dasharray=""/></g><g><path fill="none" stroke="#000000" paint-order="fill stroke markers" d=" M 766 1180 L 766 1288" stroke-miterlimit="10" stroke-dasharray=""/></g><g><path fill="#000000" stroke="none" paint-order="stroke fill markers" d=" M 761.790482243984 1277.837325142376 L 766 1288 L 770.209517756016 1277.837325142376"/></g><g><path fill="none" stroke="#000000" paint-order="fill stroke markers" d=" M 761.790482243984 1277.837325142376 L 766 1288 L 770.209517756016 1277.837325142376 L 761.790482243984 1277.837325142376" stroke-miterlimit="10" stroke-dasharray=""/></g><g><path fill="none" stroke="#000000" paint-order="fill stroke markers" d=" M 810 1330 L 810 1401 L 810 1401 A 8 8 0 0 0 818 1409 L 1252 1409" stroke-miterlimit="10" stroke-dasharray=""/></g><g><path fill="#000000" stroke="none" paint-order="stroke fill markers" d=" M 1241.837325142376 1413.2095177560159 L 1252 1409 L 1241.837325142376 1404.7904822439841"/></g><g><path fill="none" stroke="#000000" paint-order="fill stroke markers" d=" M 1241.837325142376 1413.2095177560159 L 1252 1409 L 1241.837325142376 1404.7904822439841 L 1241.837325142376 1413.2095177560159" stroke-miterlimit="10" stroke-dasharray=""/></g><g><path fill="none" stroke="#000000" paint-order="fill stroke markers" d=" M 1315 1468 L 1315 1648" stroke-miterlimit="10" stroke-dasharray=""/></g><g><path fill="#000000" stroke="none" paint-order="stroke fill markers" d=" M 1310.7904822439841 1637.837325142376 L 1315 1648 L 1319.2095177560159 1637.837325142376"/></g><g><path fill="none" stroke="#000000" paint-order="fill stroke markers" d=" M 1310.7904822439841 1637.837325142376 L 1315 1648 L 1319.2095177560159 1637.837325142376 L 1310.7904822439841 1637.837325142376" stroke-miterlimit="10" stroke-dasharray=""/></g></g></svg>