<svg version="1.1" xmlns="http://www.w3.org/2000/svg" xmlns:xlink="http://www.w3.org/1999/xlink" width="673.3359375" height="488"><defs/><g><g><rect fill="#ffffff" stroke="none" x="234" y="90" width="435.2890625" height="52" transform="matrix(1 0 0 1 -224 -62)"/></g><g><path fill="#ffffff" stroke="none" paint-order="stroke fill markers" d=" M 445.2890625 28 A 26 26 0 0 1 445.2890625 80"/></g><g><path fill="none" stroke="#000000" paint-order="fill stroke markers" d=" M 10 28 L 10 80" stroke-miterlimit="10" stroke-dasharray=""/></g><g><path fill="none" stroke="#000000" paint-order="fill stroke markers" d=" M 10 28 L 445.2890625 28" stroke-miterlimit="10" stroke-dasharray=""/></g><g><path fill="none" stroke="#000000" paint-order="fill stroke markers" d=" M 10 80 L 445.2890625 80" stroke-miterlimit="10" stroke-dasharray=""/></g><g><path fill="none" stroke="#000000" paint-order="fill stroke markers" d=" M 445.2890625 28 A 26 26 0 0 1 445.2890625 80" stroke-miterlimit="10" stroke-dasharray=""/></g><g><g><path fill="none" stroke="none"/><text fill="#000000" stroke="none" font-family="Arial" font-size="16px" font-style="normal" font-weight="normal" text-decoration="undefined" x="416.9833984375" y="108" text-anchor="middle" dominant-baseline="central" transform="matrix(1 0 0 1 -224 -62)">POST /moderations/accounts/{accountId}/block</text></g></g><g><path fill="#ffffff" stroke="none" paint-order="stroke fill markers" d=" M 82 118 L 442 118 L 370 154 L 10 154 L 82 118"/></g><g><path fill="none" stroke="#000000" paint-order="fill stroke markers" d=" M 82 118 L 442 118 L 370 154 L 10 154 L 82 118 L 82 118" stroke-miterlimit="10" stroke-dasharray=""/></g><g><g><path fill="none" stroke="none"/><text fill="#000000" stroke="none" font-family="Arial" font-size="16px" font-style="normal" font-weight="normal" text-decoration="undefined" x="450" y="198" text-anchor="middle" dominant-baseline="central" transform="matrix(1 0 0 1 -224 -62)">ModerationAccountBlockRequest</text></g></g><g><path fill="#ffffff" stroke="none" paint-order="stroke fill markers" d=" M 46 190 L 409.4296875 190 Q 427.4296875 190 427.4296875 208 L 427.4296875 208 Q 427.4296875 226 409.4296875 226 L 46 226 Q 28 226 28 208 L 28 208 Q 28 190 46 190 Z"/></g><g><path fill="none" stroke="#000000" paint-order="fill stroke markers" d=" M 46 190 L 409.4296875 190 Q 427.4296875 190 427.4296875 208 L 427.4296875 208 Q 427.4296875 226 409.4296875 226 L 46 226 Q 28 226 28 208 L 28 208 Q 28 190 46 190 Z" stroke-miterlimit="10" stroke-dasharray=""/></g><g><g><path fill="none" stroke="none"/><text fill="#000000" stroke="none" font-family="Arial" font-size="16px" font-style="normal" font-weight="normal" text-decoration="undefined" x="451.71484375" y="270" text-anchor="middle" dominant-baseline="central" transform="matrix(1 0 0 1 -224 -62)">Пользователь является модератором приложения </text></g></g><g><path fill="#ffffff" stroke="#000000" paint-order="fill stroke markers" d=" M 550 44 L 568 10 L 645.3359375 10 Q 663.3359375 10 663.3359375 44 Q 663.3359375 78 645.3359375 78 L 568 78 L 550 44 Z" stroke-miterlimit="10" stroke-dasharray=""/></g><g><g><path fill="none" stroke="none"/><text fill="#000000" stroke="none" font-family="Arial" font-size="16px" font-style="normal" font-weight="normal" text-decoration="undefined" x="830.66796875" y="90" text-anchor="middle" dominant-baseline="central" transform="matrix(1 0 0 1 -224 -62)">Заголовки</text><text fill="#000000" stroke="none" font-family="Arial" font-size="16px" font-style="normal" font-weight="normal" text-decoration="undefined" x="830.66796875" y="106" text-anchor="middle" dominant-baseline="central" transform="matrix(1 0 0 1 -224 -62)">запроса</text><text fill="#000000" stroke="none" font-family="Arial" font-size="16px" font-style="normal" font-weight="normal" text-decoration="undefined" x="830.66796875" y="122" text-anchor="middle" dominant-baseline="central" transform="matrix(1 0 0 1 -224 -62)">(Модератор)</text></g></g><g><rect fill="#ffffff" stroke="none" x="378" y="396" width="121.3203125" height="52" transform="matrix(1 0 0 1 -224 -62)"/></g><g><path fill="none" stroke="#000000" paint-order="fill stroke markers" d=" M 154 334 L 275.3203125 334 L 275.3203125 386 L 154 386 L 154 334 Z Z" stroke-miterlimit="10" stroke-dasharray=""/></g><g><g><path fill="none" stroke="none"/><text fill="#000000" stroke="none" font-family="Arial" font-size="16px" font-style="normal" font-weight="normal" text-decoration="undefined" x="438.66015625" y="414" text-anchor="middle" dominant-baseline="central" transform="matrix(1 0 0 1 -224 -62)">Забанить</text><text fill="#000000" stroke="none" font-family="Arial" font-size="16px" font-style="normal" font-weight="normal" text-decoration="undefined" x="438.66015625" y="430" text-anchor="middle" dominant-baseline="central" transform="matrix(1 0 0 1 -224 -62)">пользователя</text></g></g><g><path fill="#ffffff" stroke="none" paint-order="stroke fill markers" d=" M 139 442 L 334 442 L 295 478 L 100 478 L 139 442"/></g><g><path fill="none" stroke="#000000" paint-order="fill stroke markers" d=" M 139 442 L 334 442 L 295 478 L 100 478 L 139 442 L 139 442" stroke-miterlimit="10" stroke-dasharray=""/></g><g><g><path fill="none" stroke="none"/><text fill="#000000" stroke="none" font-family="Arial" font-size="16px" font-style="normal" font-weight="normal" text-decoration="undefined" x="441" y="522" text-anchor="middle" dominant-baseline="central" transform="matrix(1 0 0 1 -224 -62)">NoBodyResponse</text></g></g><g><path fill="none" stroke="#000000" paint-order="fill stroke markers" d=" M 236 80 L 236 118" stroke-miterlimit="10" stroke-dasharray=""/></g><g><path fill="#000000" stroke="none" paint-order="stroke fill markers" d=" M 231.790482243984 107.83732514237585 L 236 118 L 240.209517756016 107.83732514237585"/></g><g><path fill="none" stroke="#000000" paint-order="fill stroke markers" d=" M 231.790482243984 107.83732514237585 L 236 118 L 240.209517756016 107.83732514237585 L 231.790482243984 107.83732514237585" stroke-miterlimit="10" stroke-dasharray=""/></g><g><path fill="none" stroke="#000000" paint-order="fill stroke markers" d=" M 550 78 L 550 110 L 550 110 A 8 8 0 0 1 542 118 L 442 118" stroke-miterlimit="10" stroke-dasharray=""/></g><g><path fill="#000000" stroke="none" paint-order="stroke fill markers" d=" M 452.1626748576241 113.790482243984 L 442 118 L 452.1626748576241 122.209517756016"/></g><g><path fill="none" stroke="#000000" paint-order="fill stroke markers" d=" M 452.1626748576241 113.790482243984 L 442 118 L 452.1626748576241 122.209517756016 L 452.1626748576241 113.790482243984" stroke-miterlimit="10" stroke-dasharray=""/></g><g><path fill="none" stroke="#000000" paint-order="fill stroke markers" d=" M 226 154 L 226 190" stroke-miterlimit="10" stroke-dasharray=""/></g><g><path fill="#000000" stroke="none" paint-order="stroke fill markers" d=" M 221.790482243984 179.83732514237585 L 226 190 L 230.209517756016 179.83732514237585"/></g><g><path fill="none" stroke="#000000" paint-order="fill stroke markers" d=" M 221.790482243984 179.83732514237585 L 226 190 L 230.209517756016 179.83732514237585 L 221.790482243984 179.83732514237585" stroke-miterlimit="10" stroke-dasharray=""/></g><g><path fill="none" stroke="#000000" paint-order="fill stroke markers" d=" M 215 386 L 215 442" stroke-miterlimit="10" stroke-dasharray=""/></g><g><path fill="#000000" stroke="none" paint-order="stroke fill markers" d=" M 210.790482243984 431.83732514237585 L 215 442 L 219.209517756016 431.83732514237585"/></g><g><path fill="none" stroke="#000000" paint-order="fill stroke markers" d=" M 210.790482243984 431.83732514237585 L 215 442 L 219.209517756016 431.83732514237585 L 210.790482243984 431.83732514237585" stroke-miterlimit="10" stroke-dasharray=""/></g><g><path fill="#ffffff" stroke="none" paint-order="stroke fill markers" d=" M 64 262 L 388 262 Q 406 262 406 280 L 406 280 Q 406 298 388 298 L 64 298 Q 46 298 46 280 L 46 280 Q 46 262 64 262 Z"/></g><g><path fill="none" stroke="#000000" paint-order="fill stroke markers" d=" M 64 262 L 388 262 Q 406 262 406 280 L 406 280 Q 406 298 388 298 L 64 298 Q 46 298 46 280 L 46 280 Q 46 262 64 262 Z" stroke-miterlimit="10" stroke-dasharray=""/></g><g><g><path fill="none" stroke="none"/><text fill="#000000" stroke="none" font-family="Arial" font-size="16px" font-style="normal" font-weight="normal" text-decoration="undefined" x="450" y="342" text-anchor="middle" dominant-baseline="central" transform="matrix(1 0 0 1 -224 -62)">Указаный аккаунт не заблокирован</text></g></g><g><path fill="none" stroke="#000000" paint-order="fill stroke markers" d=" M 227 226 L 227 262" stroke-miterlimit="10" stroke-dasharray=""/></g><g><path fill="#000000" stroke="none" paint-order="stroke fill markers" d=" M 222.790482243984 251.83732514237585 L 227 262 L 231.209517756016 251.83732514237585"/></g><g><path fill="none" stroke="#000000" paint-order="fill stroke markers" d=" M 222.790482243984 251.83732514237585 L 227 262 L 231.209517756016 251.83732514237585 L 222.790482243984 251.83732514237585" stroke-miterlimit="10" stroke-dasharray=""/></g><g><path fill="none" stroke="#000000" paint-order="fill stroke markers" d=" M 224 298 L 224 334" stroke-miterlimit="10" stroke-dasharray=""/></g><g><path fill="#000000" stroke="none" paint-order="stroke fill markers" d=" M 219.790482243984 323.83732514237585 L 224 334 L 228.209517756016 323.83732514237585"/></g><g><path fill="none" stroke="#000000" paint-order="fill stroke markers" d=" M 219.790482243984 323.83732514237585 L 224 334 L 228.209517756016 323.83732514237585 L 219.790482243984 323.83732514237585" stroke-miterlimit="10" stroke-dasharray=""/></g></g></svg>