<svg version="1.1" xmlns="http://www.w3.org/2000/svg" xmlns:xlink="http://www.w3.org/1999/xlink" width="1010" height="416"><defs/><g><g><rect fill="#ffffff" stroke="none" x="234" y="54" width="532" height="52" transform="matrix(1 0 0 1 -224 -44)"/></g><g><path fill="#ffffff" stroke="none" paint-order="stroke fill markers" d=" M 542 10 A 26 26 0 0 1 542 62"/></g><g><path fill="none" stroke="#000000" paint-order="fill stroke markers" d=" M 10 10 L 10 62" stroke-miterlimit="10" stroke-dasharray=""/></g><g><path fill="none" stroke="#000000" paint-order="fill stroke markers" d=" M 10 10 L 542 10" stroke-miterlimit="10" stroke-dasharray=""/></g><g><path fill="none" stroke="#000000" paint-order="fill stroke markers" d=" M 10 62 L 542 62" stroke-miterlimit="10" stroke-dasharray=""/></g><g><path fill="none" stroke="#000000" paint-order="fill stroke markers" d=" M 542 10 A 26 26 0 0 1 542 62" stroke-miterlimit="10" stroke-dasharray=""/></g><g><g><path fill="none" stroke="none"/><text fill="#000000" stroke="none" font-family="Arial" font-size="16px" font-style="normal" font-weight="normal" text-decoration="undefined" x="453.25" y="72" text-anchor="middle" dominant-baseline="central" transform="matrix(1 0 0 1 -224 -44)">GET /accounts/challenges/motivations</text></g></g><g><path fill="#ffffff" stroke="none" paint-order="stroke fill markers" d=" M 109 100 L 514 100 L 433 136 L 28 136 L 109 100"/></g><g><path fill="none" stroke="#000000" paint-order="fill stroke markers" d=" M 109 100 L 514 100 L 433 136 L 28 136 L 109 100 L 109 100" stroke-miterlimit="10" stroke-dasharray=""/></g><g><g><path fill="none" stroke="none"/><text fill="#000000" stroke="none" font-family="Arial" font-size="16px" font-style="normal" font-weight="normal" text-decoration="undefined" x="495" y="162" text-anchor="middle" dominant-baseline="central" transform="matrix(1 0 0 1 -224 -44)">GetAccountsChallengesMotivationsRequest</text></g></g><g><path fill="none" stroke="#000000" paint-order="fill stroke markers" d=" M 280 62 L 280 100" stroke-miterlimit="10" stroke-dasharray=""/></g><g><path fill="#000000" stroke="none" paint-order="stroke fill markers" d=" M 275.790482243984 89.83732514237585 L 280 100 L 284.209517756016 89.83732514237585"/></g><g><path fill="none" stroke="#000000" paint-order="fill stroke markers" d=" M 275.790482243984 89.83732514237585 L 280 100 L 284.209517756016 89.83732514237585 L 275.790482243984 89.83732514237585" stroke-miterlimit="10" stroke-dasharray=""/></g><g><path fill="#ffffff" stroke="#000000" paint-order="fill stroke markers" d=" M 640 44 L 663 10 L 760.484375 10 Q 783.484375 10 783.484375 44 Q 783.484375 78 760.484375 78 L 663 78 L 640 44 Z" stroke-miterlimit="10" stroke-dasharray=""/></g><g><g><path fill="none" stroke="none"/><text fill="#000000" stroke="none" font-family="Arial" font-size="16px" font-style="normal" font-weight="normal" text-decoration="undefined" x="935.7421875" y="72" text-anchor="middle" dominant-baseline="central" transform="matrix(1 0 0 1 -224 -44)">Заголовки</text><text fill="#000000" stroke="none" font-family="Arial" font-size="16px" font-style="normal" font-weight="normal" text-decoration="undefined" x="935.7421875" y="88" text-anchor="middle" dominant-baseline="central" transform="matrix(1 0 0 1 -224 -44)">запроса</text><text fill="#000000" stroke="none" font-family="Arial" font-size="16px" font-style="normal" font-weight="normal" text-decoration="undefined" x="935.7421875" y="104" text-anchor="middle" dominant-baseline="central" transform="matrix(1 0 0 1 -224 -44)">(Авторизирован)</text></g></g><g><rect fill="#ffffff" stroke="none" x="288" y="270" width="396" height="36" transform="matrix(1 0 0 1 -224 -44)"/></g><g><path fill="none" stroke="#000000" paint-order="fill stroke markers" d=" M 64 226 L 460 226 L 460 262 L 64 262 L 64 226 Z Z" stroke-miterlimit="10" stroke-dasharray=""/></g><g><g><path fill="none" stroke="none"/><text fill="#000000" stroke="none" font-family="Arial" font-size="16px" font-style="normal" font-weight="normal" text-decoration="undefined" x="486" y="288" text-anchor="middle" dominant-baseline="central" transform="matrix(1 0 0 1 -224 -44)">Извлечь историю вызовов пользователя</text></g></g><g><path fill="none" stroke="#000000" paint-order="fill stroke markers" d=" M 269 136 L 269 226" stroke-miterlimit="10" stroke-dasharray=""/></g><g><path fill="#000000" stroke="none" paint-order="stroke fill markers" d=" M 264.790482243984 215.83732514237585 L 269 226 L 273.209517756016 215.83732514237585"/></g><g><path fill="none" stroke="#000000" paint-order="fill stroke markers" d=" M 264.790482243984 215.83732514237585 L 269 226 L 273.209517756016 215.83732514237585 L 264.790482243984 215.83732514237585" stroke-miterlimit="10" stroke-dasharray=""/></g><g><path fill="#ffffff" stroke="none" paint-order="stroke fill markers" d=" M 91 370 L 496 370 L 415 406 L 10 406 L 91 370"/></g><g><path fill="none" stroke="#000000" paint-order="fill stroke markers" d=" M 91 370 L 496 370 L 415 406 L 10 406 L 91 370 L 91 370" stroke-miterlimit="10" stroke-dasharray=""/></g><g><g><path fill="none" stroke="none"/><text fill="#000000" stroke="none" font-family="Arial" font-size="16px" font-style="normal" font-weight="normal" text-decoration="undefined" x="477" y="432" text-anchor="middle" dominant-baseline="central" transform="matrix(1 0 0 1 -224 -44)">GetAccountsChallengesMotivationsResponse</text></g></g><g><path fill="#ffffff" stroke="none" paint-order="stroke fill markers" d=" M 685 226 L 1000 226 L 937 262 L 622 262 L 685 226"/></g><g><path fill="none" stroke="#000000" paint-order="fill stroke markers" d=" M 685 226 L 1000 226 L 937 262 L 622 262 L 685 226 L 685 226" stroke-miterlimit="10" stroke-dasharray=""/></g><g><g><path fill="none" stroke="none"/><text fill="#000000" stroke="none" font-family="Arial" font-size="16px" font-style="normal" font-weight="normal" text-decoration="undefined" x="1035" y="288" text-anchor="middle" dominant-baseline="central" transform="matrix(1 0 0 1 -224 -44)">InitiatorDTO</text></g></g><g><path fill="none" stroke="#000000" paint-order="fill stroke markers" d=" M 730 262 L 730 298" stroke-miterlimit="10" stroke-dasharray=""/></g><g><path fill="#000000" stroke="none" paint-order="stroke fill markers" d=" M 725.790482243984 287.83732514237585 L 730 298 L 734.209517756016 287.83732514237585"/></g><g><path fill="none" stroke="#000000" paint-order="fill stroke markers" d=" M 725.790482243984 287.83732514237585 L 730 298 L 734.209517756016 287.83732514237585 L 725.790482243984 287.83732514237585" stroke-miterlimit="10" stroke-dasharray=""/></g><g><path fill="none" stroke="#000000" paint-order="fill stroke markers" d=" M 263 262 L 263 370" stroke-miterlimit="10" stroke-dasharray=""/></g><g><path fill="#000000" stroke="none" paint-order="stroke fill markers" d=" M 258.790482243984 359.83732514237585 L 263 370 L 267.209517756016 359.83732514237585"/></g><g><path fill="none" stroke="#000000" paint-order="fill stroke markers" d=" M 258.790482243984 359.83732514237585 L 263 370 L 267.209517756016 359.83732514237585 L 258.790482243984 359.83732514237585" stroke-miterlimit="10" stroke-dasharray=""/></g><g><path fill="none" stroke="#000000" paint-order="fill stroke markers" d=" M 640 78 L 640 92 L 640 92 A 8 8 0 0 1 632 100 L 514 100" stroke-miterlimit="10" stroke-dasharray=""/></g><g><path fill="#000000" stroke="none" paint-order="stroke fill markers" d=" M 524.1626748576241 95.790482243984 L 514 100 L 524.1626748576241 104.209517756016"/></g><g><path fill="none" stroke="#000000" paint-order="fill stroke markers" d=" M 524.1626748576241 95.790482243984 L 514 100 L 524.1626748576241 104.209517756016 L 524.1626748576241 95.790482243984" stroke-miterlimit="10" stroke-dasharray=""/></g><g><path fill="#ffffff" stroke="none" paint-order="stroke fill markers" d=" M 574 298 L 874 298 L 814 334 L 514 334 L 574 298"/></g><g><path fill="none" stroke="#000000" paint-order="fill stroke markers" d=" M 574 298 L 874 298 L 814 334 L 514 334 L 574 298 L 574 298" stroke-miterlimit="10" stroke-dasharray=""/></g><g><g><path fill="none" stroke="none"/><text fill="#000000" stroke="none" font-family="Arial" font-size="16px" font-style="normal" font-weight="normal" text-decoration="undefined" x="918" y="360" text-anchor="middle" dominant-baseline="central" transform="matrix(1 0 0 1 -224 -44)">MotivationItemDTO</text></g></g><g><path fill="none" stroke="#000000" paint-order="fill stroke markers" d=" M 606 334 L 606 362 L 606 362 A 8 8 0 0 1 598 370 L 496 370" stroke-miterlimit="10" stroke-dasharray=""/></g><g><path fill="#000000" stroke="none" paint-order="stroke fill markers" d=" M 506.1626748576241 365.790482243984 L 496 370 L 506.1626748576241 374.209517756016"/></g><g><path fill="none" stroke="#000000" paint-order="fill stroke markers" d=" M 506.1626748576241 365.790482243984 L 496 370 L 506.1626748576241 374.209517756016 L 506.1626748576241 365.790482243984" stroke-miterlimit="10" stroke-dasharray=""/></g></g></svg>