<svg version="1.1" xmlns="http://www.w3.org/2000/svg" xmlns:xlink="http://www.w3.org/1999/xlink" width="775.484375" height="452"><defs/><g><g><rect fill="#ffffff" stroke="none" x="162" y="72" width="514" height="52" transform="matrix(1 0 0 1 -152 -62)"/></g><g><path fill="#ffffff" stroke="none" paint-order="stroke fill markers" d=" M 524 10 A 26 26 0 0 1 524 62"/></g><g><path fill="none" stroke="#000000" paint-order="fill stroke markers" d=" M 10 10 L 10 62" stroke-miterlimit="10" stroke-dasharray=""/></g><g><path fill="none" stroke="#000000" paint-order="fill stroke markers" d=" M 10 10 L 524 10" stroke-miterlimit="10" stroke-dasharray=""/></g><g><path fill="none" stroke="#000000" paint-order="fill stroke markers" d=" M 10 62 L 524 62" stroke-miterlimit="10" stroke-dasharray=""/></g><g><path fill="none" stroke="#000000" paint-order="fill stroke markers" d=" M 524 10 A 26 26 0 0 1 524 62" stroke-miterlimit="10" stroke-dasharray=""/></g><g><g><path fill="none" stroke="none"/><text fill="#000000" stroke="none" font-family="Arial" font-size="16px" font-style="normal" font-weight="normal" text-decoration="undefined" x="374.5" y="90" text-anchor="middle" dominant-baseline="central" transform="matrix(1 0 0 1 -152 -62)">PATCH /communities/{comunityId}/members/{accountId}</text></g></g><g><path fill="#ffffff" stroke="#000000" paint-order="fill stroke markers" d=" M 622 44 L 645 10 L 742.484375 10 Q 765.484375 10 765.484375 44 Q 765.484375 78 742.484375 78 L 645 78 L 622 44 Z" stroke-miterlimit="10" stroke-dasharray=""/></g><g><g><path fill="none" stroke="none"/><text fill="#000000" stroke="none" font-family="Arial" font-size="16px" font-style="normal" font-weight="normal" text-decoration="undefined" x="845.7421875" y="90" text-anchor="middle" dominant-baseline="central" transform="matrix(1 0 0 1 -152 -62)">Заголовки</text><text fill="#000000" stroke="none" font-family="Arial" font-size="16px" font-style="normal" font-weight="normal" text-decoration="undefined" x="845.7421875" y="106" text-anchor="middle" dominant-baseline="central" transform="matrix(1 0 0 1 -152 -62)">запроса</text><text fill="#000000" stroke="none" font-family="Arial" font-size="16px" font-style="normal" font-weight="normal" text-decoration="undefined" x="845.7421875" y="122" text-anchor="middle" dominant-baseline="central" transform="matrix(1 0 0 1 -152 -62)">(Авторизирован)</text></g></g><g><path fill="#ffffff" stroke="none" paint-order="stroke fill markers" d=" M 142 100 L 442 100 L 382 136 L 82 136 L 142 100"/></g><g><path fill="none" stroke="#000000" paint-order="fill stroke markers" d=" M 142 100 L 442 100 L 382 136 L 82 136 L 142 100 L 142 100" stroke-miterlimit="10" stroke-dasharray=""/></g><g><g><path fill="none" stroke="none"/><text fill="#000000" stroke="none" font-family="Arial" font-size="16px" font-style="normal" font-weight="normal" text-decoration="undefined" x="414" y="180" text-anchor="middle" dominant-baseline="central" transform="matrix(1 0 0 1 -152 -62)">PatchCommunitiesMembersRequest</text></g></g><g><path fill="#ffffff" stroke="none" paint-order="stroke fill markers" d=" M 46 172 L 460 172 Q 478 172 478 190 L 478 190 Q 478 208 460 208 L 46 208 Q 28 208 28 190 L 28 190 Q 28 172 46 172 Z"/></g><g><path fill="none" stroke="#000000" paint-order="fill stroke markers" d=" M 46 172 L 460 172 Q 478 172 478 190 L 478 190 Q 478 208 460 208 L 46 208 Q 28 208 28 190 L 28 190 Q 28 172 46 172 Z" stroke-miterlimit="10" stroke-dasharray=""/></g><g><g><path fill="none" stroke="none"/><text fill="#000000" stroke="none" font-family="Arial" font-size="16px" font-style="normal" font-weight="normal" text-decoration="undefined" x="405" y="252" text-anchor="middle" dominant-baseline="central" transform="matrix(1 0 0 1 -152 -62)">Роль пользователя в сообществе "Создатель"</text></g></g><g><path fill="#ffffff" stroke="none" paint-order="stroke fill markers" d=" M 54 244 L 452 244 Q 478 244 478 270 L 478 270 Q 478 296 452 296 L 54 296 Q 28 296 28 270 L 28 270 Q 28 244 54 244 Z"/></g><g><path fill="none" stroke="#000000" paint-order="fill stroke markers" d=" M 54 244 L 452 244 Q 478 244 478 270 L 478 270 Q 478 296 452 296 L 54 296 Q 28 296 28 270 L 28 270 Q 28 244 54 244 Z" stroke-miterlimit="10" stroke-dasharray=""/></g><g><g><path fill="none" stroke="none"/><text fill="#000000" stroke="none" font-family="Arial" font-size="16px" font-style="normal" font-weight="normal" text-decoration="undefined" x="405" y="324" text-anchor="middle" dominant-baseline="central" transform="matrix(1 0 0 1 -152 -62)">Указанный пользователь является участником</text><text fill="#000000" stroke="none" font-family="Arial" font-size="16px" font-style="normal" font-weight="normal" text-decoration="undefined" x="405" y="340" text-anchor="middle" dominant-baseline="central" transform="matrix(1 0 0 1 -152 -62)">сообщества</text></g></g><g><rect fill="#ffffff" stroke="none" x="198" y="378" width="432" height="36" transform="matrix(1 0 0 1 -152 -62)"/></g><g><path fill="none" stroke="#000000" paint-order="fill stroke markers" d=" M 46 316 L 478 316 L 478 352 L 46 352 L 46 316 Z Z" stroke-miterlimit="10" stroke-dasharray=""/></g><g><g><path fill="none" stroke="none"/><text fill="#000000" stroke="none" font-family="Arial" font-size="16px" font-style="normal" font-weight="normal" text-decoration="undefined" x="414" y="396" text-anchor="middle" dominant-baseline="central" transform="matrix(1 0 0 1 -152 -62)">Изменить участника сообщества</text></g></g><g><path fill="#ffffff" stroke="none" paint-order="stroke fill markers" d=" M 178 406 L 388 406 L 346 442 L 136 442 L 178 406"/></g><g><path fill="none" stroke="#000000" paint-order="fill stroke markers" d=" M 178 406 L 388 406 L 346 442 L 136 442 L 178 406 L 178 406" stroke-miterlimit="10" stroke-dasharray=""/></g><g><g><path fill="none" stroke="none"/><text fill="#000000" stroke="none" font-family="Arial" font-size="16px" font-style="normal" font-weight="normal" text-decoration="undefined" x="414" y="486" text-anchor="middle" dominant-baseline="central" transform="matrix(1 0 0 1 -152 -62)">NoBodyResponse</text></g></g><g><path fill="none" stroke="#000000" paint-order="fill stroke markers" d=" M 274 62 L 274 100" stroke-miterlimit="10" stroke-dasharray=""/></g><g><path fill="#000000" stroke="none" paint-order="stroke fill markers" d=" M 269.790482243984 89.83732514237585 L 274 100 L 278.209517756016 89.83732514237585"/></g><g><path fill="none" stroke="#000000" paint-order="fill stroke markers" d=" M 269.790482243984 89.83732514237585 L 274 100 L 278.209517756016 89.83732514237585 L 269.790482243984 89.83732514237585" stroke-miterlimit="10" stroke-dasharray=""/></g><g><path fill="none" stroke="#000000" paint-order="fill stroke markers" d=" M 622 78 L 622 92 L 622 92 A 8 8 0 0 1 614 100 L 442 100" stroke-miterlimit="10" stroke-dasharray=""/></g><g><path fill="#000000" stroke="none" paint-order="stroke fill markers" d=" M 452.1626748576241 95.790482243984 L 442 100 L 452.1626748576241 104.209517756016"/></g><g><path fill="none" stroke="#000000" paint-order="fill stroke markers" d=" M 452.1626748576241 95.790482243984 L 442 100 L 452.1626748576241 104.209517756016 L 452.1626748576241 95.790482243984" stroke-miterlimit="10" stroke-dasharray=""/></g><g><path fill="none" stroke="#000000" paint-order="fill stroke markers" d=" M 260 136 L 260 172" stroke-miterlimit="10" stroke-dasharray=""/></g><g><path fill="#000000" stroke="none" paint-order="stroke fill markers" d=" M 255.790482243984 161.83732514237585 L 260 172 L 264.209517756016 161.83732514237585"/></g><g><path fill="none" stroke="#000000" paint-order="fill stroke markers" d=" M 255.790482243984 161.83732514237585 L 260 172 L 264.209517756016 161.83732514237585 L 255.790482243984 161.83732514237585" stroke-miterlimit="10" stroke-dasharray=""/></g><g><path fill="none" stroke="#000000" paint-order="fill stroke markers" d=" M 253 208 L 253 244" stroke-miterlimit="10" stroke-dasharray=""/></g><g><path fill="#000000" stroke="none" paint-order="stroke fill markers" d=" M 248.790482243984 233.83732514237585 L 253 244 L 257.209517756016 233.83732514237585"/></g><g><path fill="none" stroke="#000000" paint-order="fill stroke markers" d=" M 248.790482243984 233.83732514237585 L 253 244 L 257.209517756016 233.83732514237585 L 248.790482243984 233.83732514237585" stroke-miterlimit="10" stroke-dasharray=""/></g><g><path fill="none" stroke="#000000" paint-order="fill stroke markers" d=" M 256 296 L 256 316" stroke-miterlimit="10" stroke-dasharray=""/></g><g><path fill="#000000" stroke="none" paint-order="stroke fill markers" d=" M 251.790482243984 305.83732514237585 L 256 316 L 260.209517756016 305.83732514237585"/></g><g><path fill="none" stroke="#000000" paint-order="fill stroke markers" d=" M 251.790482243984 305.83732514237585 L 256 316 L 260.209517756016 305.83732514237585 L 251.790482243984 305.83732514237585" stroke-miterlimit="10" stroke-dasharray=""/></g><g><path fill="none" stroke="#000000" paint-order="fill stroke markers" d=" M 262 352 L 262 406" stroke-miterlimit="10" stroke-dasharray=""/></g><g><path fill="#000000" stroke="none" paint-order="stroke fill markers" d=" M 257.790482243984 395.83732514237585 L 262 406 L 266.209517756016 395.83732514237585"/></g><g><path fill="none" stroke="#000000" paint-order="fill stroke markers" d=" M 257.790482243984 395.83732514237585 L 262 406 L 266.209517756016 395.83732514237585 L 257.790482243984 395.83732514237585" stroke-miterlimit="10" stroke-dasharray=""/></g></g></svg>