<svg version="1.1" xmlns="http://www.w3.org/2000/svg" xmlns:xlink="http://www.w3.org/1999/xlink" width="721.484375" height="542"><defs/><g><g><rect fill="#ffffff" stroke="none" x="216" y="90" width="491.546875" height="52" transform="matrix(1 0 0 1 -206 -62)"/></g><g><path fill="#ffffff" stroke="none" paint-order="stroke fill markers" d=" M 501.546875 28 A 26 26 0 0 1 501.546875 80"/></g><g><path fill="none" stroke="#000000" paint-order="fill stroke markers" d=" M 10 28 L 10 80" stroke-miterlimit="10" stroke-dasharray=""/></g><g><path fill="none" stroke="#000000" paint-order="fill stroke markers" d=" M 10 28 L 501.546875 28" stroke-miterlimit="10" stroke-dasharray=""/></g><g><path fill="none" stroke="#000000" paint-order="fill stroke markers" d=" M 10 80 L 501.546875 80" stroke-miterlimit="10" stroke-dasharray=""/></g><g><path fill="none" stroke="#000000" paint-order="fill stroke markers" d=" M 501.546875 28 A 26 26 0 0 1 501.546875 80" stroke-miterlimit="10" stroke-dasharray=""/></g><g><g><path fill="none" stroke="none"/><text fill="#000000" stroke="none" font-family="Arial" font-size="16px" font-style="normal" font-weight="normal" text-decoration="undefined" x="420.080078125" y="108" text-anchor="middle" dominant-baseline="central" transform="matrix(1 0 0 1 -206 -62)">POST /challenges/{challengeId}/generate-invite-link</text></g></g><g><path fill="#ffffff" stroke="none" paint-order="stroke fill markers" d=" M 187 118 L 532 118 L 463 154 L 118 154 L 187 118"/></g><g><path fill="none" stroke="#000000" paint-order="fill stroke markers" d=" M 187 118 L 532 118 L 463 154 L 118 154 L 187 118 L 187 118" stroke-miterlimit="10" stroke-dasharray=""/></g><g><g><path fill="none" stroke="none"/><text fill="#000000" stroke="none" font-family="Arial" font-size="16px" font-style="normal" font-weight="normal" text-decoration="undefined" x="531" y="198" text-anchor="middle" dominant-baseline="central" transform="matrix(1 0 0 1 -206 -62)">GenerateChallengeInviteLinkRequest</text></g></g><g><path fill="#ffffff" stroke="none" paint-order="stroke fill markers" d=" M 187 496 L 532 496 L 463 532 L 118 532 L 187 496"/></g><g><path fill="none" stroke="#000000" paint-order="fill stroke markers" d=" M 187 496 L 532 496 L 463 532 L 118 532 L 187 496 L 187 496" stroke-miterlimit="10" stroke-dasharray=""/></g><g><g><path fill="none" stroke="none"/><text fill="#000000" stroke="none" font-family="Arial" font-size="16px" font-style="normal" font-weight="normal" text-decoration="undefined" x="531" y="576" text-anchor="middle" dominant-baseline="central" transform="matrix(1 0 0 1 -206 -62)">GenerateChallengeInviteLinkResponse</text></g></g><g><path fill="#ffffff" stroke="#000000" paint-order="fill stroke markers" d=" M 568 44 L 591 10 L 688.484375 10 Q 711.484375 10 711.484375 44 Q 711.484375 78 688.484375 78 L 591 78 L 568 44 Z" stroke-miterlimit="10" stroke-dasharray=""/></g><g><g><path fill="none" stroke="none"/><text fill="#000000" stroke="none" font-family="Arial" font-size="16px" font-style="normal" font-weight="normal" text-decoration="undefined" x="845.7421875" y="90" text-anchor="middle" dominant-baseline="central" transform="matrix(1 0 0 1 -206 -62)">Заголовки</text><text fill="#000000" stroke="none" font-family="Arial" font-size="16px" font-style="normal" font-weight="normal" text-decoration="undefined" x="845.7421875" y="106" text-anchor="middle" dominant-baseline="central" transform="matrix(1 0 0 1 -206 -62)">запроса</text><text fill="#000000" stroke="none" font-family="Arial" font-size="16px" font-style="normal" font-weight="normal" text-decoration="undefined" x="845.7421875" y="122" text-anchor="middle" dominant-baseline="central" transform="matrix(1 0 0 1 -206 -62)">(Авторизирован)</text></g></g><g><path fill="#ffffff" stroke="none" paint-order="stroke fill markers" d=" M 136 190 L 492.6328125 190 Q 510.6328125 190 510.6328125 208 L 510.6328125 208 Q 510.6328125 226 492.6328125 226 L 136 226 Q 118 226 118 208 L 118 208 Q 118 190 136 190 Z"/></g><g><path fill="none" stroke="#000000" paint-order="fill stroke markers" d=" M 136 190 L 492.6328125 190 Q 510.6328125 190 510.6328125 208 L 510.6328125 208 Q 510.6328125 226 492.6328125 226 L 136 226 Q 118 226 118 208 L 118 208 Q 118 190 136 190 Z" stroke-miterlimit="10" stroke-dasharray=""/></g><g><g><path fill="none" stroke="none"/><text fill="#000000" stroke="none" font-family="Arial" font-size="16px" font-style="normal" font-weight="normal" text-decoration="undefined" x="520.31640625" y="270" text-anchor="middle" dominant-baseline="central" transform="matrix(1 0 0 1 -206 -62)">Роль пользователя в челлендже "Администратор"</text></g></g><g><path fill="#ffffff" stroke="none" paint-order="stroke fill markers" d=" M 136 280 L 496 280 Q 514 280 514 298 L 514 298 Q 514 316 496 316 L 136 316 Q 118 316 118 298 L 118 298 Q 118 280 136 280 Z"/></g><g><path fill="none" stroke="#000000" paint-order="fill stroke markers" d=" M 136 280 L 496 280 Q 514 280 514 298 L 514 298 Q 514 316 496 316 L 136 316 Q 118 316 118 298 L 118 298 Q 118 280 136 280 Z" stroke-miterlimit="10" stroke-dasharray=""/></g><g><g><path fill="none" stroke="none"/><text fill="#000000" stroke="none" font-family="Arial" font-size="16px" font-style="normal" font-weight="normal" text-decoration="undefined" x="522" y="360" text-anchor="middle" dominant-baseline="central" transform="matrix(1 0 0 1 -206 -62)">Сообщество является публичным</text></g></g><g><rect fill="#ffffff" stroke="none" x="324" y="414" width="396" height="36" transform="matrix(1 0 0 1 -206 -62)"/></g><g><path fill="none" stroke="#000000" paint-order="fill stroke markers" d=" M 118 352 L 514 352 L 514 388 L 118 388 L 118 352 Z Z" stroke-miterlimit="10" stroke-dasharray=""/></g><g><g><path fill="none" stroke="none"/><text fill="#000000" stroke="none" font-family="Arial" font-size="16px" font-style="normal" font-weight="normal" text-decoration="undefined" x="522" y="432" text-anchor="middle" dominant-baseline="central" transform="matrix(1 0 0 1 -206 -62)">Генерация уникального токена-ссылки</text></g></g><g><rect fill="#ffffff" stroke="none" x="324" y="486" width="396" height="36" transform="matrix(1 0 0 1 -206 -62)"/></g><g><path fill="none" stroke="#000000" paint-order="fill stroke markers" d=" M 118 424 L 514 424 L 514 460 L 118 460 L 118 424 Z Z" stroke-miterlimit="10" stroke-dasharray=""/></g><g><g><path fill="none" stroke="none"/><text fill="#000000" stroke="none" font-family="Arial" font-size="16px" font-style="normal" font-weight="normal" text-decoration="undefined" x="522" y="504" text-anchor="middle" dominant-baseline="central" transform="matrix(1 0 0 1 -206 -62)">Сохранение ссылки с временем истечения</text></g></g><g><path fill="none" stroke="#000000" paint-order="fill stroke markers" d=" M 286 80 L 286 118" stroke-miterlimit="10" stroke-dasharray=""/></g><g><path fill="#000000" stroke="none" paint-order="stroke fill markers" d=" M 281.790482243984 107.83732514237585 L 286 118 L 290.209517756016 107.83732514237585"/></g><g><path fill="none" stroke="#000000" paint-order="fill stroke markers" d=" M 281.790482243984 107.83732514237585 L 286 118 L 290.209517756016 107.83732514237585 L 281.790482243984 107.83732514237585" stroke-miterlimit="10" stroke-dasharray=""/></g><g><path fill="none" stroke="#000000" paint-order="fill stroke markers" d=" M 568 78 L 568 110 L 568 110 A 8 8 0 0 1 560 118 L 532 118" stroke-miterlimit="10" stroke-dasharray=""/></g><g><path fill="#000000" stroke="none" paint-order="stroke fill markers" d=" M 542.1626748576241 113.790482243984 L 532 118 L 542.1626748576241 122.209517756016"/></g><g><path fill="none" stroke="#000000" paint-order="fill stroke markers" d=" M 542.1626748576241 113.790482243984 L 532 118 L 542.1626748576241 122.209517756016 L 542.1626748576241 113.790482243984" stroke-miterlimit="10" stroke-dasharray=""/></g><g><path fill="none" stroke="#000000" paint-order="fill stroke markers" d=" M 322 154 L 322 190" stroke-miterlimit="10" stroke-dasharray=""/></g><g><path fill="#000000" stroke="none" paint-order="stroke fill markers" d=" M 317.790482243984 179.83732514237585 L 322 190 L 326.209517756016 179.83732514237585"/></g><g><path fill="none" stroke="#000000" paint-order="fill stroke markers" d=" M 317.790482243984 179.83732514237585 L 322 190 L 326.209517756016 179.83732514237585 L 317.790482243984 179.83732514237585" stroke-miterlimit="10" stroke-dasharray=""/></g><g><path fill="none" stroke="#000000" paint-order="fill stroke markers" d=" M 316 316 L 316 352" stroke-miterlimit="10" stroke-dasharray=""/></g><g><path fill="#000000" stroke="none" paint-order="stroke fill markers" d=" M 311.790482243984 341.83732514237585 L 316 352 L 320.209517756016 341.83732514237585"/></g><g><path fill="none" stroke="#000000" paint-order="fill stroke markers" d=" M 311.790482243984 341.83732514237585 L 316 352 L 320.209517756016 341.83732514237585 L 311.790482243984 341.83732514237585" stroke-miterlimit="10" stroke-dasharray=""/></g><g><path fill="none" stroke="#000000" paint-order="fill stroke markers" d=" M 316 388 L 316 424" stroke-miterlimit="10" stroke-dasharray=""/></g><g><path fill="#000000" stroke="none" paint-order="stroke fill markers" d=" M 311.790482243984 413.83732514237585 L 316 424 L 320.209517756016 413.83732514237585"/></g><g><path fill="none" stroke="#000000" paint-order="fill stroke markers" d=" M 311.790482243984 413.83732514237585 L 316 424 L 320.209517756016 413.83732514237585 L 311.790482243984 413.83732514237585" stroke-miterlimit="10" stroke-dasharray=""/></g><g><path fill="none" stroke="#000000" paint-order="fill stroke markers" d=" M 318 460 L 318 496" stroke-miterlimit="10" stroke-dasharray=""/></g><g><path fill="#000000" stroke="none" paint-order="stroke fill markers" d=" M 313.790482243984 485.8373251423759 L 318 496 L 322.209517756016 485.8373251423759"/></g><g><path fill="none" stroke="#000000" paint-order="fill stroke markers" d=" M 313.790482243984 485.8373251423759 L 318 496 L 322.209517756016 485.8373251423759 L 313.790482243984 485.8373251423759" stroke-miterlimit="10" stroke-dasharray=""/></g><g><path fill="none" stroke="#000000" paint-order="fill stroke markers" d=" M 314 226 L 314 280" stroke-miterlimit="10" stroke-dasharray=""/></g><g><path fill="#000000" stroke="none" paint-order="stroke fill markers" d=" M 309.790482243984 269.83732514237585 L 314 280 L 318.209517756016 269.83732514237585"/></g><g><path fill="none" stroke="#000000" paint-order="fill stroke markers" d=" M 309.790482243984 269.83732514237585 L 314 280 L 318.209517756016 269.83732514237585 L 309.790482243984 269.83732514237585" stroke-miterlimit="10" stroke-dasharray=""/></g></g></svg>