<svg version="1.1" xmlns="http://www.w3.org/2000/svg" xmlns:xlink="http://www.w3.org/1999/xlink" width="470" height="352"><defs/><g><g><path fill="#ffffff" stroke="none" paint-order="stroke fill markers" d=" M 208 44 L 228 10 L 311.828125 10 L 331.828125 44 L 311.828125 78 L 228 78 L 208 44"/></g><g><path fill="none" stroke="#000000" paint-order="fill stroke markers" d=" M 208 44 L 228 10 L 311.828125 10 L 331.828125 44 L 311.828125 78 L 228 78 L 208 44 L 208 44" stroke-miterlimit="10" stroke-dasharray=""/></g><g><g><path fill="none" stroke="none"/><text fill="#000000" stroke="none" font-family="Arial" font-size="16px" font-style="normal" font-weight="normal" text-decoration="undefined" x="565.9140625" y="90" text-anchor="middle" dominant-baseline="central" transform="matrix(1 0 0 1 -296 -62)">Пользователь</text><text fill="#000000" stroke="none" font-family="Arial" font-size="16px" font-style="normal" font-weight="normal" text-decoration="undefined" x="565.9140625" y="106" text-anchor="middle" dominant-baseline="central" transform="matrix(1 0 0 1 -296 -62)">покинул</text><text fill="#000000" stroke="none" font-family="Arial" font-size="16px" font-style="normal" font-weight="normal" text-decoration="undefined" x="565.9140625" y="122" text-anchor="middle" dominant-baseline="central" transform="matrix(1 0 0 1 -296 -62)">челлендж</text></g></g><g><path fill="#ffffff" stroke="none" paint-order="stroke fill markers" d=" M 85 118 L 460 118 L 385 154 L 10 154 L 85 118"/></g><g><path fill="none" stroke="#000000" paint-order="fill stroke markers" d=" M 85 118 L 460 118 L 385 154 L 10 154 L 85 118 L 85 118" stroke-miterlimit="10" stroke-dasharray=""/></g><g><g><path fill="none" stroke="none"/><text fill="#000000" stroke="none" font-family="Arial" font-size="16px" font-style="normal" font-weight="normal" text-decoration="undefined" x="531" y="198" text-anchor="middle" dominant-baseline="central" transform="matrix(1 0 0 1 -296 -62)">UserChallengeLeaveTriggerModel</text></g></g><g><path fill="none" stroke="#000000" paint-order="fill stroke markers" d=" M 263 78 L 263 118" stroke-miterlimit="10" stroke-dasharray=""/></g><g><path fill="#000000" stroke="none" paint-order="stroke fill markers" d=" M 258.790482243984 107.83732514237585 L 263 118 L 267.209517756016 107.83732514237585"/></g><g><path fill="none" stroke="#000000" paint-order="fill stroke markers" d=" M 258.790482243984 107.83732514237585 L 263 118 L 267.209517756016 107.83732514237585 L 258.790482243984 107.83732514237585" stroke-miterlimit="10" stroke-dasharray=""/></g><g><rect fill="#ffffff" stroke="none" x="504" y="288" width="121.3203125" height="116" transform="matrix(1 0 0 1 -296 -62)"/></g><g><path fill="none" stroke="#000000" paint-order="fill stroke markers" d=" M 208 226 L 329.3203125 226 L 329.3203125 342 L 208 342 L 208 226 Z Z" stroke-miterlimit="10" stroke-dasharray=""/></g><g><g><path fill="none" stroke="none"/><text fill="#000000" stroke="none" font-family="Arial" font-size="16px" font-style="normal" font-weight="normal" text-decoration="undefined" x="564.66015625" y="306" text-anchor="middle" dominant-baseline="central" transform="matrix(1 0 0 1 -296 -62)">Извлечь</text><text fill="#000000" stroke="none" font-family="Arial" font-size="16px" font-style="normal" font-weight="normal" text-decoration="undefined" x="564.66015625" y="322" text-anchor="middle" dominant-baseline="central" transform="matrix(1 0 0 1 -296 -62)">время</text><text fill="#000000" stroke="none" font-family="Arial" font-size="16px" font-style="normal" font-weight="normal" text-decoration="undefined" x="564.66015625" y="338" text-anchor="middle" dominant-baseline="central" transform="matrix(1 0 0 1 -296 -62)">нахождения</text><text fill="#000000" stroke="none" font-family="Arial" font-size="16px" font-style="normal" font-weight="normal" text-decoration="undefined" x="564.66015625" y="354" text-anchor="middle" dominant-baseline="central" transform="matrix(1 0 0 1 -296 -62)">пользователя</text><text fill="#000000" stroke="none" font-family="Arial" font-size="16px" font-style="normal" font-weight="normal" text-decoration="undefined" x="564.66015625" y="370" text-anchor="middle" dominant-baseline="central" transform="matrix(1 0 0 1 -296 -62)">в челлендже</text></g></g></g></svg>