<svg version="1.1" xmlns="http://www.w3.org/2000/svg" xmlns:xlink="http://www.w3.org/1999/xlink" width="1028.6171875" height="275"><defs/><g><g><path fill="#C0C0C0" stroke="none" paint-order="stroke fill markers" d=" M 194.9140625 125 L 283.6484375 125 Q 293.6484375 125 293.6484375 135 L 293.6484375 189 Q 293.6484375 199 283.6484375 199 L 194.9140625 199 Q 184.9140625 199 184.9140625 189 L 184.9140625 135 Q 184.9140625 125 194.9140625 125 Z" fill-opacity="0.2"/></g><g><path fill="#ffffff" stroke="none" paint-order="stroke fill markers" d=" M 187.9140625 118 L 276.6484375 118 Q 286.6484375 118 286.6484375 128 L 286.6484375 182 Q 286.6484375 192 276.6484375 192 L 187.9140625 192 Q 177.9140625 192 177.9140625 182 L 177.9140625 128 Q 177.9140625 118 187.9140625 118 Z"/></g><g><path fill="none" stroke="#000000" paint-order="fill stroke markers" d=" M 187.9140625 118 L 276.6484375 118 Q 286.6484375 118 286.6484375 128 L 286.6484375 182 Q 286.6484375 192 276.6484375 192 L 187.9140625 192 Q 177.9140625 192 177.9140625 182 L 177.9140625 128 Q 177.9140625 118 187.9140625 118 Z" stroke-miterlimit="10" stroke-dasharray=""/></g><g><g><path fill="none" stroke="none"/><text fill="#000000" stroke="none" font-family="Arial" font-size="16px" font-style="normal" font-weight="normal" text-decoration="undefined" x="227.3671875" y="312" text-anchor="middle" dominant-baseline="central" transform="matrix(1 0 0 1 4.9140625 -173)">Извлекаем</text><text fill="#000000" stroke="none" font-family="Arial" font-size="16px" font-style="normal" font-weight="normal" text-decoration="undefined" x="227.3671875" y="328" text-anchor="middle" dominant-baseline="central" transform="matrix(1 0 0 1 4.9140625 -173)">информацию</text><text fill="#000000" stroke="none" font-family="Arial" font-size="16px" font-style="normal" font-weight="normal" text-decoration="undefined" x="227.3671875" y="344" text-anchor="middle" dominant-baseline="central" transform="matrix(1 0 0 1 4.9140625 -173)">про группу КД</text></g></g><g><path fill="none" stroke="#000000" paint-order="fill stroke markers" d=" M 286.9140625 154 L 411.9140625 154" stroke-miterlimit="10" stroke-dasharray=""/></g><g><path fill="#000000" stroke="none" paint-order="stroke fill markers" d=" M 401.75138764237585 158.209517756016 L 411.9140625 154 L 401.75138764237585 149.790482243984"/></g><g><path fill="none" stroke="#000000" paint-order="fill stroke markers" d=" M 401.75138764237585 158.209517756016 L 411.9140625 154 L 401.75138764237585 149.790482243984 L 401.75138764237585 158.209517756016" stroke-miterlimit="10" stroke-dasharray=""/></g><g><path fill="#C0C0C0" stroke="none" paint-order="stroke fill markers" d=" M 418.9140625 159 L 434.9140625 143 L 450.9140625 159 L 434.9140625 175 L 418.9140625 159" fill-opacity="0.2"/></g><g><path fill="#ffffff" stroke="none" paint-order="stroke fill markers" d=" M 411.9140625 152 L 427.9140625 136 L 443.9140625 152 L 427.9140625 168 L 411.9140625 152"/></g><g><path fill="none" stroke="#000000" paint-order="fill stroke markers" d=" M 411.9140625 152 L 427.9140625 136 L 443.9140625 152 L 427.9140625 168 L 411.9140625 152 L 411.9140625 152" stroke-miterlimit="10" stroke-dasharray=""/></g><g><rect fill="#ffffff" stroke="none" x="316.078125" y="363" width="185.84375" height="16" transform="matrix(1 0 0 1 4.9140625 -173)"/></g><g><g><path fill="none" stroke="none"/><text fill="#000000" stroke="none" font-family="Arial" font-size="16px" font-style="normal" font-weight="normal" text-decoration="undefined" x="409" y="371" text-anchor="middle" dominant-baseline="central" transform="matrix(1 0 0 1 4.9140625 -173)">Есть ли место в группе</text></g></g><g><path fill="none" stroke="#000000" paint-order="fill stroke markers" d=" M 443.9140625 146 L 565.9140625 146 L 565.9140625 146 A 8 8 0 0 0 573.9140625 138 L 573.9140625 116" stroke-miterlimit="10" stroke-dasharray=""/></g><g><path fill="#000000" stroke="none" paint-order="stroke fill markers" d=" M 578.123580256016 126.16267485762415 L 573.9140625 116 L 569.704544743984 126.16267485762415"/></g><g><path fill="none" stroke="#000000" paint-order="fill stroke markers" d=" M 578.123580256016 126.16267485762415 L 573.9140625 116 L 569.704544743984 126.16267485762415 L 578.123580256016 126.16267485762415" stroke-miterlimit="10" stroke-dasharray=""/></g><g><rect fill="#ffffff" stroke="none" x="541" y="310" width="27.25" height="16" transform="matrix(1 0 0 1 4.9140625 -173)"/></g><g><g><path fill="none" stroke="none"/><text fill="#000000" stroke="none" font-family="Arial" font-size="16px" font-style="normal" font-weight="normal" text-decoration="undefined" x="554.625" y="318" text-anchor="middle" dominant-baseline="central" transform="matrix(1 0 0 1 4.9140625 -173)">Нет</text></g></g><g><path fill="#C0C0C0" stroke="none" paint-order="stroke fill markers" d=" M 554.9140625 17 L 639.8984375 17 Q 649.8984375 17 649.8984375 27 L 649.8984375 113 Q 649.8984375 123 639.8984375 123 L 554.9140625 123 Q 544.9140625 123 544.9140625 113 L 544.9140625 27 Q 544.9140625 17 554.9140625 17 Z" fill-opacity="0.2"/></g><g><path fill="#ffffff" stroke="none" paint-order="stroke fill markers" d=" M 547.9140625 10 L 632.8984375 10 Q 642.8984375 10 642.8984375 20 L 642.8984375 106 Q 642.8984375 116 632.8984375 116 L 547.9140625 116 Q 537.9140625 116 537.9140625 106 L 537.9140625 20 Q 537.9140625 10 547.9140625 10 Z"/></g><g><path fill="none" stroke="#000000" paint-order="fill stroke markers" d=" M 547.9140625 10 L 632.8984375 10 Q 642.8984375 10 642.8984375 20 L 642.8984375 106 Q 642.8984375 116 632.8984375 116 L 547.9140625 116 Q 537.9140625 116 537.9140625 106 L 537.9140625 20 Q 537.9140625 10 547.9140625 10 Z" stroke-miterlimit="10" stroke-dasharray=""/></g><g><g><path fill="none" stroke="none"/><text fill="#000000" stroke="none" font-family="Arial" font-size="16px" font-style="normal" font-weight="normal" text-decoration="undefined" x="585.4921875" y="204" text-anchor="middle" dominant-baseline="central" transform="matrix(1 0 0 1 4.9140625 -173)">Возвращаем</text><text fill="#000000" stroke="none" font-family="Arial" font-size="16px" font-style="normal" font-weight="normal" text-decoration="undefined" x="585.4921875" y="220" text-anchor="middle" dominant-baseline="central" transform="matrix(1 0 0 1 4.9140625 -173)">статус код, об</text><text fill="#000000" stroke="none" font-family="Arial" font-size="16px" font-style="normal" font-weight="normal" text-decoration="undefined" x="585.4921875" y="236" text-anchor="middle" dominant-baseline="central" transform="matrix(1 0 0 1 4.9140625 -173)">отсутствии</text><text fill="#000000" stroke="none" font-family="Arial" font-size="16px" font-style="normal" font-weight="normal" text-decoration="undefined" x="585.4921875" y="252" text-anchor="middle" dominant-baseline="central" transform="matrix(1 0 0 1 4.9140625 -173)">места в</text><text fill="#000000" stroke="none" font-family="Arial" font-size="16px" font-style="normal" font-weight="normal" text-decoration="undefined" x="585.4921875" y="268" text-anchor="middle" dominant-baseline="central" transform="matrix(1 0 0 1 4.9140625 -173)">группе</text></g></g><g><path fill="#C0C0C0" stroke="none" paint-order="stroke fill markers" d=" M 597.9140625 212 L 690.1875 212 Q 700.1875 212 700.1875 222 L 700.1875 260 Q 700.1875 270 690.1875 270 L 597.9140625 270 Q 587.9140625 270 587.9140625 260 L 587.9140625 222 Q 587.9140625 212 597.9140625 212 Z" fill-opacity="0.2"/></g><g><path fill="#ffffff" stroke="none" paint-order="stroke fill markers" d=" M 590.9140625 205 L 683.1875 205 Q 693.1875 205 693.1875 215 L 693.1875 253 Q 693.1875 263 683.1875 263 L 590.9140625 263 Q 580.9140625 263 580.9140625 253 L 580.9140625 215 Q 580.9140625 205 590.9140625 205 Z"/></g><g><path fill="none" stroke="#000000" paint-order="fill stroke markers" d=" M 590.9140625 205 L 683.1875 205 Q 693.1875 205 693.1875 215 L 693.1875 253 Q 693.1875 263 683.1875 263 L 590.9140625 263 Q 580.9140625 263 580.9140625 253 L 580.9140625 215 Q 580.9140625 205 590.9140625 205 Z" stroke-miterlimit="10" stroke-dasharray=""/></g><g><g><path fill="none" stroke="none"/><text fill="#000000" stroke="none" font-family="Arial" font-size="16px" font-style="normal" font-weight="normal" text-decoration="undefined" x="632.13671875" y="391" text-anchor="middle" dominant-baseline="central" transform="matrix(1 0 0 1 4.9140625 -173)">Привязываем</text><text fill="#000000" stroke="none" font-family="Arial" font-size="16px" font-style="normal" font-weight="normal" text-decoration="undefined" x="632.13671875" y="407" text-anchor="middle" dominant-baseline="central" transform="matrix(1 0 0 1 4.9140625 -173)">пользователя</text><text fill="#000000" stroke="none" font-family="Arial" font-size="16px" font-style="normal" font-weight="normal" text-decoration="undefined" x="632.13671875" y="423" text-anchor="middle" dominant-baseline="central" transform="matrix(1 0 0 1 4.9140625 -173)">к группе</text></g></g><g><path fill="none" stroke="#000000" paint-order="fill stroke markers" d=" M 443.9140625 168 L 500.9140625 168 L 500.9140625 168 A 8 8 0 0 1 508.9140625 176 L 508.9140625 215 L 508.9140625 215 A 8 8 0 0 0 516.9140625 223 L 580.9140625 223" stroke-miterlimit="10" stroke-dasharray=""/></g><g><path fill="#000000" stroke="none" paint-order="stroke fill markers" d=" M 570.7513876423759 227.209517756016 L 580.9140625 223 L 570.7513876423758 218.790482243984"/></g><g><path fill="none" stroke="#000000" paint-order="fill stroke markers" d=" M 570.7513876423759 227.209517756016 L 580.9140625 223 L 570.7513876423758 218.790482243984 L 570.7513876423759 227.209517756016" stroke-miterlimit="10" stroke-dasharray=""/></g><g><rect fill="#ffffff" stroke="none" x="509" y="359" width="19.734375" height="16" transform="matrix(1 0 0 1 4.9140625 -173)"/></g><g><g><path fill="none" stroke="none"/><text fill="#000000" stroke="none" font-family="Arial" font-size="16px" font-style="normal" font-weight="normal" text-decoration="undefined" x="518.8671875" y="367" text-anchor="middle" dominant-baseline="central" transform="matrix(1 0 0 1 4.9140625 -173)">Да</text></g></g><g><path fill="#C0C0C0" stroke="none" paint-order="stroke fill markers" d=" M 875.9140625 228 C 875.9140625 219.16344320000002 883.0775057 212 891.9140625 212 C 900.7506193 212 907.9140625 219.16344320000002 907.9140625 228 C 907.9140625 236.83655679999998 900.7506193 244 891.9140625 244 C 883.0775057 244 875.9140625 236.83655679999998 875.9140625 228 Z" fill-opacity="0.2"/></g><g><path fill="#ffffff" stroke="none" paint-order="stroke fill markers" d=" M 868.9140625 221 C 868.9140625 212.16344320000002 876.0775057 205 884.9140625 205 C 893.7506193 205 900.9140625 212.16344320000002 900.9140625 221 C 900.9140625 229.83655679999998 893.7506193 237 884.9140625 237 C 876.0775057 237 868.9140625 229.83655679999998 868.9140625 221 Z"/></g><g><path fill="none" stroke="#000000" paint-order="fill stroke markers" d=" M 868.9140625 221 C 868.9140625 212.16344320000002 876.0775057 205 884.9140625 205 C 893.7506193 205 900.9140625 212.16344320000002 900.9140625 221 C 900.9140625 229.83655679999998 893.7506193 237 884.9140625 237 C 876.0775057 237 868.9140625 229.83655679999998 868.9140625 221 Z" stroke-miterlimit="10" stroke-width="3" stroke-dasharray=""/></g><g><rect fill="#ffffff" stroke="none" x="757.66015625" y="422" width="244.6796875" height="16" transform="matrix(1 0 0 1 4.9140625 -173)"/></g><g><g><path fill="none" stroke="none"/><text fill="#000000" stroke="none" font-family="Arial" font-size="16px" font-style="normal" font-weight="normal" text-decoration="undefined" x="880" y="430" text-anchor="middle" dominant-baseline="central" transform="matrix(1 0 0 1 4.9140625 -173)">Пользователь добавлен в группу</text></g></g><g><path fill="#C0C0C0" stroke="none" paint-order="stroke fill markers" d=" M 893.9140625 66 C 893.9140625 57.16344319999999 901.0775057 50 909.9140625 50 C 918.7506193 50 925.9140625 57.16344319999999 925.9140625 66 C 925.9140625 74.83655680000001 918.7506193 82 909.9140625 82 C 901.0775057 82 893.9140625 74.83655680000001 893.9140625 66 Z" fill-opacity="0.2"/></g><g><path fill="#ffffff" stroke="none" paint-order="stroke fill markers" d=" M 886.9140625 59 C 886.9140625 50.16344319999999 894.0775057 43 902.9140625 43 C 911.7506193 43 918.9140625 50.16344319999999 918.9140625 59 C 918.9140625 67.83655680000001 911.7506193 75 902.9140625 75 C 894.0775057 75 886.9140625 67.83655680000001 886.9140625 59 Z"/></g><g><path fill="none" stroke="#000000" paint-order="fill stroke markers" d=" M 886.9140625 59 C 886.9140625 50.16344319999999 894.0775057 43 902.9140625 43 C 911.7506193 43 918.9140625 50.16344319999999 918.9140625 59 C 918.9140625 67.83655680000001 911.7506193 75 902.9140625 75 C 894.0775057 75 886.9140625 67.83655680000001 886.9140625 59 Z" stroke-miterlimit="10" stroke-dasharray=""/></g><g><path fill="none" stroke="#000000" paint-order="fill stroke markers" d=" M 889.9140625 59 C 889.9140625 51.8202976 895.7343601 46 902.9140625 46 C 910.0937649 46 915.9140625 51.8202976 915.9140625 59 C 915.9140625 66.1797024 910.0937649 72 902.9140625 72 C 895.7343601 72 889.9140625 66.1797024 889.9140625 59 Z" stroke-miterlimit="10" stroke-dasharray=""/></g><g><rect fill="#ffffff" stroke="none" x="782.296875" y="260" width="231.40625" height="16" transform="matrix(1 0 0 1 4.9140625 -173)"/></g><g><g><path fill="none" stroke="none"/><text fill="#000000" stroke="none" font-family="Arial" font-size="16px" font-style="normal" font-weight="normal" text-decoration="undefined" x="898" y="268" text-anchor="middle" dominant-baseline="central" transform="matrix(1 0 0 1 4.9140625 -173)">Пользователь небыл добавлен</text></g></g><g><path fill="none" stroke="#000000" paint-order="fill stroke markers" d=" M 642.9140625 62 L 886.9140625 62" stroke-miterlimit="10" stroke-dasharray=""/></g><g><path fill="#000000" stroke="none" paint-order="stroke fill markers" d=" M 876.7513876423759 66.209517756016 L 886.9140625 62 L 876.7513876423758 57.790482243984"/></g><g><path fill="none" stroke="#000000" paint-order="fill stroke markers" d=" M 876.7513876423759 66.209517756016 L 886.9140625 62 L 876.7513876423758 57.790482243984 L 876.7513876423759 66.209517756016" stroke-miterlimit="10" stroke-dasharray=""/></g><g><path fill="none" stroke="#000000" paint-order="fill stroke markers" d=" M 692.9140625 231 L 868.9140625 231" stroke-miterlimit="10" stroke-dasharray=""/></g><g><path fill="#000000" stroke="none" paint-order="stroke fill markers" d=" M 858.7513876423759 235.209517756016 L 868.9140625 231 L 858.7513876423758 226.790482243984"/></g><g><path fill="none" stroke="#000000" paint-order="fill stroke markers" d=" M 858.7513876423759 235.209517756016 L 868.9140625 231 L 858.7513876423758 226.790482243984 L 858.7513876423759 235.209517756016" stroke-miterlimit="10" stroke-dasharray=""/></g><g><path fill="#C0C0C0" stroke="none" paint-order="stroke fill markers" d=" M 65.9140625 156 C 65.9140625 147.16344320000002 73.0775057 140 81.9140625 140 C 90.7506193 140 97.9140625 147.16344320000002 97.9140625 156 C 97.9140625 164.83655679999998 90.7506193 172 81.9140625 172 C 73.0775057 172 65.9140625 164.83655679999998 65.9140625 156 Z" fill-opacity="0.2"/></g><g><path fill="#ffffff" stroke="none" paint-order="stroke fill markers" d=" M 58.9140625 149 C 58.9140625 140.16344320000002 66.0775057 133 74.9140625 133 C 83.7506193 133 90.9140625 140.16344320000002 90.9140625 149 C 90.9140625 157.83655679999998 83.7506193 165 74.9140625 165 C 66.0775057 165 58.9140625 157.83655679999998 58.9140625 149 Z"/></g><g><path fill="none" stroke="#000000" paint-order="fill stroke markers" d=" M 58.9140625 149 C 58.9140625 140.16344320000002 66.0775057 133 74.9140625 133 C 83.7506193 133 90.9140625 140.16344320000002 90.9140625 149 C 90.9140625 157.83655679999998 83.7506193 165 74.9140625 165 C 66.0775057 165 58.9140625 157.83655679999998 58.9140625 149 Z" stroke-miterlimit="10" stroke-dasharray="3,3"/></g><g><rect fill="#ffffff" stroke="none" x="5.0859375" y="350" width="129.828125" height="16" transform="matrix(1 0 0 1 4.9140625 -173)"/></g><g><g><path fill="none" stroke="none"/><text fill="#000000" stroke="none" font-family="Arial" font-size="16px" font-style="normal" font-weight="normal" text-decoration="undefined" x="70" y="358" text-anchor="middle" dominant-baseline="central" transform="matrix(1 0 0 1 4.9140625 -173)">Вызов метода</text></g></g><g><path fill="none" stroke="#000000" paint-order="fill stroke markers" d=" M 90.9140625 153 L 177.9140625 153" stroke-miterlimit="10" stroke-dasharray=""/></g><g><path fill="#000000" stroke="none" paint-order="stroke fill markers" d=" M 167.75138764237585 157.209517756016 L 177.9140625 153 L 167.75138764237585 148.790482243984"/></g><g><path fill="none" stroke="#000000" paint-order="fill stroke markers" d=" M 167.75138764237585 157.209517756016 L 177.9140625 153 L 167.75138764237585 148.790482243984 L 167.75138764237585 157.209517756016" stroke-miterlimit="10" stroke-dasharray=""/></g></g></svg>