<svg version="1.1" xmlns="http://www.w3.org/2000/svg" xmlns:xlink="http://www.w3.org/1999/xlink" width="1676" height="988.71875"><defs/><g><g><path fill="none" stroke="#000000" paint-order="fill stroke markers" d=" M 10 10 L 1666 10 L 1666 424 L 10 424 L 10 10 Z Z" stroke-miterlimit="10" stroke-dasharray=""/></g><g><path fill="none" stroke="#000000" paint-order="fill stroke markers" d=" M 36 10 L 36 424" stroke-miterlimit="10" stroke-dasharray=""/></g><g><g><path fill="none" stroke="none"/><text fill="#000000" stroke="none" font-family="Arial" font-size="16px" font-style="normal" font-weight="normal" text-decoration="undefined" x="0" y="0" text-anchor="middle" dominant-baseline="text-before-edge" transform="matrix(6.123233995736766e-17 -1 1 6.123233995736766e-17 15 217)">Пользователь</text></g></g><g><path fill="none" stroke="#000000" paint-order="fill stroke markers" d=" M 10 442 L 1666 442 L 1666 798.71875 L 10 798.71875 L 10 442 Z Z" stroke-miterlimit="10" stroke-dasharray=""/></g><g><path fill="none" stroke="#000000" paint-order="fill stroke markers" d=" M 36 442 L 36 798.71875" stroke-miterlimit="10" stroke-dasharray=""/></g><g><g><path fill="none" stroke="none"/><text fill="#000000" stroke="none" font-family="Arial" font-size="16px" font-style="normal" font-weight="normal" text-decoration="undefined" x="0" y="0" text-anchor="middle" dominant-baseline="text-before-edge" transform="matrix(6.123233995736766e-17 -1 1 6.123233995736766e-17 15 620.359375)">Api</text></g></g><g><path fill="none" stroke="#000000" paint-order="fill stroke markers" d=" M 10 838 L 1666 838 L 1666 978.71875 L 10 978.71875 L 10 838 Z Z" stroke-miterlimit="10" stroke-dasharray=""/></g><g><path fill="none" stroke="#000000" paint-order="fill stroke markers" d=" M 36 838 L 36 978.71875" stroke-miterlimit="10" stroke-dasharray=""/></g><g><g><path fill="none" stroke="none"/><text fill="#000000" stroke="none" font-family="Arial" font-size="16px" font-style="normal" font-weight="normal" text-decoration="undefined" x="0" y="0" text-anchor="middle" dominant-baseline="text-before-edge" transform="matrix(6.123233995736766e-17 -1 1 6.123233995736766e-17 15 908.359375)">База данных</text></g></g><g><path fill="#C0C0C0" stroke="none" paint-order="stroke fill markers" d=" M 125 195 C 125 186.1634432 132.1634432 179 141 179 C 149.8365568 179 157 186.1634432 157 195 C 157 203.83655679999998 149.8365568 211 141 211 C 132.1634432 211 125 203.83655679999998 125 195 Z" fill-opacity="0.2"/></g><g><path fill="#ffffff" stroke="none" paint-order="stroke fill markers" d=" M 118 188 C 118 179.1634432 125.16344319999999 172 134 172 C 142.8365568 172 150 179.1634432 150 188 C 150 196.83655679999998 142.8365568 204 134 204 C 125.16344319999999 204 118 196.83655679999998 118 188 Z"/></g><g><path fill="none" stroke="#000000" paint-order="fill stroke markers" d=" M 118 188 C 118 179.1634432 125.16344319999999 172 134 172 C 142.8365568 172 150 179.1634432 150 188 C 150 196.83655679999998 142.8365568 204 134 204 C 125.16344319999999 204 118 196.83655679999998 118 188 Z" stroke-miterlimit="10" stroke-dasharray=""/></g><g><rect fill="#ffffff" stroke="none" x="116.85546875" y="278" width="158.2890625" height="16" transform="matrix(1 0 0 1 -62 -62)"/></g><g><g><path fill="none" stroke="none"/><text fill="#000000" stroke="none" font-family="Arial" font-size="16px" font-style="normal" font-weight="normal" text-decoration="undefined" x="196" y="286" text-anchor="middle" dominant-baseline="central" transform="matrix(1 0 0 1 -62 -62)">Открыть приложение</text></g></g><g><path fill="#C0C0C0" stroke="none" paint-order="stroke fill markers" d=" M 261 161 L 403 161 Q 413 161 413 171 L 413 241 Q 413 251 403 251 L 261 251 Q 251 251 251 241 L 251 171 Q 251 161 261 161 Z" fill-opacity="0.2"/></g><g><path fill="#ffffff" stroke="none" paint-order="stroke fill markers" d=" M 254 154 L 396 154 Q 406 154 406 164 L 406 234 Q 406 244 396 244 L 254 244 Q 244 244 244 234 L 244 164 Q 244 154 254 154 Z"/></g><g><path fill="none" stroke="#000000" paint-order="fill stroke markers" d=" M 254 154 L 396 154 Q 406 154 406 164 L 406 234 Q 406 244 396 244 L 254 244 Q 244 244 244 234 L 244 164 Q 244 154 254 154 Z" stroke-miterlimit="10" stroke-dasharray=""/></g><g><path fill="none" stroke="#000000" paint-order="fill stroke markers" d=" M 254 163 C 254 161.3431456 255.3431456 160 257 160 C 258.6568544 160 260 161.3431456 260 163 C 260 164.6568544 258.6568544 166 257 166 C 255.3431456 166 254 164.6568544 254 163 Z" stroke-miterlimit="10" stroke-dasharray=""/></g><g><path fill="none" stroke="#000000" paint-order="fill stroke markers" d=" M 252 167 L 262 167 L 262 174 L 252 174 L 252 167 Z Z" stroke-miterlimit="10" stroke-dasharray=""/></g><g><g><path fill="none" stroke="none"/><text fill="#000000" stroke="none" font-family="Arial" font-size="16px" font-style="normal" font-weight="normal" text-decoration="undefined" x="387" y="253" text-anchor="middle" dominant-baseline="central" transform="matrix(1 0 0 1 -62 -62)">Открыть вкладку</text><text fill="#000000" stroke="none" font-family="Arial" font-size="16px" font-style="normal" font-weight="normal" text-decoration="undefined" x="387" y="269" text-anchor="middle" dominant-baseline="central" transform="matrix(1 0 0 1 -62 -62)">поиска</text></g></g><g><path fill="#C0C0C0" stroke="none" paint-order="stroke fill markers" d=" M 495 161 L 655 161 Q 665 161 665 171 L 665 259 Q 665 269 655 269 L 495 269 Q 485 269 485 259 L 485 171 Q 485 161 495 161 Z" fill-opacity="0.2"/></g><g><path fill="#ffffff" stroke="none" paint-order="stroke fill markers" d=" M 488 154 L 648 154 Q 658 154 658 164 L 658 252 Q 658 262 648 262 L 488 262 Q 478 262 478 252 L 478 164 Q 478 154 488 154 Z"/></g><g><path fill="none" stroke="#000000" paint-order="fill stroke markers" d=" M 488 154 L 648 154 Q 658 154 658 164 L 658 252 Q 658 262 648 262 L 488 262 Q 478 262 478 252 L 478 164 Q 478 154 488 154 Z" stroke-miterlimit="10" stroke-dasharray=""/></g><g><path fill="none" stroke="#000000" paint-order="fill stroke markers" d=" M 488 163 C 488 161.3431456 489.34314559999996 160 491 160 C 492.65685440000004 160 494 161.3431456 494 163 C 494 164.6568544 492.65685440000004 166 491 166 C 489.34314559999996 166 488 164.6568544 488 163 Z" stroke-miterlimit="10" stroke-dasharray=""/></g><g><path fill="none" stroke="#000000" paint-order="fill stroke markers" d=" M 486 167 L 496 167 L 496 174 L 486 174 L 486 167 Z Z" stroke-miterlimit="10" stroke-dasharray=""/></g><g><g><path fill="none" stroke="none"/><text fill="#000000" stroke="none" font-family="Arial" font-size="16px" font-style="normal" font-weight="normal" text-decoration="undefined" x="630" y="262" text-anchor="middle" dominant-baseline="central" transform="matrix(1 0 0 1 -62 -62)">Нажать на кнопку</text><text fill="#000000" stroke="none" font-family="Arial" font-size="16px" font-style="normal" font-weight="normal" text-decoration="undefined" x="630" y="278" text-anchor="middle" dominant-baseline="central" transform="matrix(1 0 0 1 -62 -62)">"Каталог"</text></g></g><g><path fill="#C0C0C0" stroke="none" paint-order="stroke fill markers" d=" M 1215 179 L 1375 179 Q 1385 179 1385 189 L 1385 259 Q 1385 269 1375 269 L 1215 269 Q 1205 269 1205 259 L 1205 189 Q 1205 179 1215 179 Z" fill-opacity="0.2"/></g><g><path fill="#ffffff" stroke="none" paint-order="stroke fill markers" d=" M 1208 172 L 1368 172 Q 1378 172 1378 182 L 1378 252 Q 1378 262 1368 262 L 1208 262 Q 1198 262 1198 252 L 1198 182 Q 1198 172 1208 172 Z"/></g><g><path fill="none" stroke="#000000" paint-order="fill stroke markers" d=" M 1208 172 L 1368 172 Q 1378 172 1378 182 L 1378 252 Q 1378 262 1368 262 L 1208 262 Q 1198 262 1198 252 L 1198 182 Q 1198 172 1208 172 Z" stroke-miterlimit="10" stroke-dasharray=""/></g><g><path fill="none" stroke="#000000" paint-order="fill stroke markers" d=" M 1208 181 C 1208 179.3431456 1209.3431456 178 1211 178 C 1212.6568544 178 1214 179.3431456 1214 181 C 1214 182.6568544 1212.6568544 184 1211 184 C 1209.3431456 184 1208 182.6568544 1208 181 Z" stroke-miterlimit="10" stroke-dasharray=""/></g><g><path fill="none" stroke="#000000" paint-order="fill stroke markers" d=" M 1206 185 L 1216 185 L 1216 192 L 1206 192 L 1206 185 Z Z" stroke-miterlimit="10" stroke-dasharray=""/></g><g><g><path fill="none" stroke="none"/><text fill="#000000" stroke="none" font-family="Arial" font-size="16px" font-style="normal" font-weight="normal" text-decoration="undefined" x="1350" y="279" text-anchor="middle" dominant-baseline="central" transform="matrix(1 0 0 1 -62 -62)">Нажать на КД</text></g></g><g><path fill="#C0C0C0" stroke="none" paint-order="stroke fill markers" d=" M 783 71 L 961 71 Q 971 71 971 81 L 971 133 Q 971 143 961 143 L 783 143 Q 773 143 773 133 L 773 81 Q 773 71 783 71 Z" fill-opacity="0.2"/></g><g><path fill="#ffffff" stroke="none" paint-order="stroke fill markers" d=" M 776 64 L 954 64 Q 964 64 964 74 L 964 126 Q 964 136 954 136 L 776 136 Q 766 136 766 126 L 766 74 Q 766 64 776 64 Z"/></g><g><path fill="none" stroke="#000000" paint-order="fill stroke markers" d=" M 776 64 L 954 64 Q 964 64 964 74 L 964 126 Q 964 136 954 136 L 776 136 Q 766 136 766 126 L 766 74 Q 766 64 776 64 Z" stroke-miterlimit="10" stroke-dasharray=""/></g><g><path fill="none" stroke="#000000" paint-order="fill stroke markers" d=" M 776 73 C 776 71.34314560000001 777.3431456 70 779 70 C 780.6568544 70 782 71.34314560000001 782 73 C 782 74.65685439999999 780.6568544 76 779 76 C 777.3431456 76 776 74.65685439999999 776 73 Z" stroke-miterlimit="10" stroke-dasharray=""/></g><g><path fill="none" stroke="#000000" paint-order="fill stroke markers" d=" M 774 77 L 784 77 L 784 84 L 774 84 L 774 77 Z Z" stroke-miterlimit="10" stroke-dasharray=""/></g><g><g><path fill="none" stroke="none"/><text fill="#000000" stroke="none" font-family="Arial" font-size="16px" font-style="normal" font-weight="normal" text-decoration="undefined" x="927" y="154" text-anchor="middle" dominant-baseline="central" transform="matrix(1 0 0 1 -62 -62)">Указать фильтры и</text><text fill="#000000" stroke="none" font-family="Arial" font-size="16px" font-style="normal" font-weight="normal" text-decoration="undefined" x="927" y="170" text-anchor="middle" dominant-baseline="central" transform="matrix(1 0 0 1 -62 -62)">сортировку</text></g></g><g><path fill="#C0C0C0" stroke="none" paint-order="stroke fill markers" d=" M 639 575 L 717.0234375 575 Q 727.0234375 575 727.0234375 585 L 727.0234375 639 Q 727.0234375 649 717.0234375 649 L 639 649 Q 629 649 629 639 L 629 585 Q 629 575 639 575 Z" fill-opacity="0.2"/></g><g><path fill="#ffffff" stroke="none" paint-order="stroke fill markers" d=" M 632 568 L 710.0234375 568 Q 720.0234375 568 720.0234375 578 L 720.0234375 632 Q 720.0234375 642 710.0234375 642 L 632 642 Q 622 642 622 632 L 622 578 Q 622 568 632 568 Z"/></g><g><path fill="none" stroke="#000000" paint-order="fill stroke markers" d=" M 632 568 L 710.0234375 568 Q 720.0234375 568 720.0234375 578 L 720.0234375 632 Q 720.0234375 642 710.0234375 642 L 632 642 Q 622 642 622 632 L 622 578 Q 622 568 632 568 Z" stroke-miterlimit="10" stroke-dasharray=""/></g><g><g><path fill="none" stroke="none"/><text fill="#000000" stroke="none" font-family="Arial" font-size="16px" font-style="normal" font-weight="normal" text-decoration="undefined" x="733.01171875" y="643" text-anchor="middle" dominant-baseline="central" transform="matrix(1 0 0 1 -62 -62)">Извлечь n</text><text fill="#000000" stroke="none" font-family="Arial" font-size="16px" font-style="normal" font-weight="normal" text-decoration="undefined" x="733.01171875" y="659" text-anchor="middle" dominant-baseline="central" transform="matrix(1 0 0 1 -62 -62)">количество</text><text fill="#000000" stroke="none" font-family="Arial" font-size="16px" font-style="normal" font-weight="normal" text-decoration="undefined" x="733.01171875" y="675" text-anchor="middle" dominant-baseline="central" transform="matrix(1 0 0 1 -62 -62)">КД по</text><text fill="#000000" stroke="none" font-family="Arial" font-size="16px" font-style="normal" font-weight="normal" text-decoration="undefined" x="733.01171875" y="691" text-anchor="middle" dominant-baseline="central" transform="matrix(1 0 0 1 -62 -62)">каталогу</text></g></g><g><path fill="none" stroke="#000000" paint-order="fill stroke markers" d=" M 581 262 L 581 578 L 581 578 A 8 8 0 0 0 589 586 L 622 586" stroke-miterlimit="10" stroke-dasharray=""/></g><g><path fill="#000000" stroke="none" paint-order="stroke fill markers" d=" M 611.8373251423759 590.209517756016 L 622 586 L 611.8373251423758 581.790482243984"/></g><g><path fill="none" stroke="#000000" paint-order="fill stroke markers" d=" M 611.8373251423759 590.209517756016 L 622 586 L 611.8373251423758 581.790482243984 L 611.8373251423759 590.209517756016" stroke-miterlimit="10" stroke-dasharray=""/></g><g><path fill="none" stroke="#000000" paint-order="fill stroke markers" d=" M 835 136 L 835 578 L 835 578 A 8 8 0 0 1 827 586 L 720 586" stroke-miterlimit="10" stroke-dasharray=""/></g><g><path fill="#000000" stroke="none" paint-order="stroke fill markers" d=" M 730.1626748576241 581.790482243984 L 720 586 L 730.1626748576241 590.209517756016"/></g><g><path fill="none" stroke="#000000" paint-order="fill stroke markers" d=" M 730.1626748576241 581.790482243984 L 720 586 L 730.1626748576241 590.209517756016 L 730.1626748576241 581.790482243984" stroke-miterlimit="10" stroke-dasharray=""/></g><g><path fill="#C0C0C0" stroke="none" paint-order="stroke fill markers" d=" M 1043 197 L 1065.4 197 L 1075 206.60000000000002 L 1075 237 L 1043 237" fill-opacity="0.2"/></g><g><path fill="#ffffff" stroke="none" paint-order="stroke fill markers" d=" M 1036 190 L 1058.4 190 L 1068 199.60000000000002 L 1068 230 L 1036 230"/></g><g><path fill="none" stroke="#000000" paint-order="fill stroke markers" d=" M 1036 190 L 1058.4 190 L 1068 199.60000000000002 L 1068 230 L 1036 230 L 1036 190" stroke-miterlimit="10" stroke-dasharray=""/></g><g><path fill="none" stroke="#000000" paint-order="fill stroke markers" d=" M 1058.4 190 L 1058.4 199.60000000000002 L 1068 199.60000000000002 L 1058.4 190" stroke-miterlimit="10" stroke-dasharray=""/></g><g><rect fill="#ffffff" stroke="none" x="1046.1796875" y="300" width="135.640625" height="16" transform="matrix(1 0 0 1 -62 -62)"/></g><g><g><path fill="none" stroke="none"/><text fill="#000000" stroke="none" font-family="Arial" font-size="16px" font-style="normal" font-weight="normal" text-decoration="undefined" x="1114" y="308" text-anchor="middle" dominant-baseline="central" transform="matrix(1 0 0 1 -62 -62)">Вкладка "Каталог"</text></g></g><g><path fill="none" stroke="#000000" paint-order="fill stroke markers" d=" M 720 586 L 1028 586 L 1028 586 A 8 8 0 0 0 1036 578 L 1036 230" stroke-miterlimit="10" stroke-dasharray=""/></g><g><path fill="#000000" stroke="none" paint-order="stroke fill markers" d=" M 1040.2095177560159 240.16267485762415 L 1036 230 L 1031.7904822439841 240.16267485762415"/></g><g><path fill="none" stroke="#000000" paint-order="fill stroke markers" d=" M 1040.2095177560159 240.16267485762415 L 1036 230 L 1031.7904822439841 240.16267485762415 L 1040.2095177560159 240.16267485762415" stroke-miterlimit="10" stroke-dasharray=""/></g><g><path fill="none" stroke="#000000" paint-order="fill stroke markers" d=" M 150 195 L 244 195" stroke-miterlimit="10" stroke-dasharray=""/></g><g><path fill="#000000" stroke="none" paint-order="stroke fill markers" d=" M 233.83732514237585 199.209517756016 L 244 195 L 233.83732514237585 190.790482243984"/></g><g><path fill="none" stroke="#000000" paint-order="fill stroke markers" d=" M 233.83732514237585 199.209517756016 L 244 195 L 233.83732514237585 190.790482243984 L 233.83732514237585 199.209517756016" stroke-miterlimit="10" stroke-dasharray=""/></g><g><path fill="none" stroke="#000000" paint-order="fill stroke markers" d=" M 406 204 L 478 204" stroke-miterlimit="10" stroke-dasharray=""/></g><g><path fill="#000000" stroke="none" paint-order="stroke fill markers" d=" M 467.8373251423759 208.209517756016 L 478 204 L 467.8373251423758 199.790482243984"/></g><g><path fill="none" stroke="#000000" paint-order="fill stroke markers" d=" M 467.8373251423759 208.209517756016 L 478 204 L 467.8373251423758 199.790482243984 L 467.8373251423759 208.209517756016" stroke-miterlimit="10" stroke-dasharray=""/></g><g><path fill="none" stroke="#000000" paint-order="fill stroke markers" d=" M 658 175 L 758 175 L 758 175 A 8 8 0 0 0 766 167 L 766 136" stroke-miterlimit="10" stroke-dasharray=""/></g><g><path fill="#000000" stroke="none" paint-order="stroke fill markers" d=" M 770.209517756016 146.16267485762415 L 766 136 L 761.790482243984 146.16267485762415"/></g><g><path fill="none" stroke="#000000" paint-order="fill stroke markers" d=" M 770.209517756016 146.16267485762415 L 766 136 L 761.790482243984 146.16267485762415 L 770.209517756016 146.16267485762415" stroke-miterlimit="10" stroke-dasharray=""/></g><g><path fill="none" stroke="#000000" paint-order="fill stroke markers" d=" M 1068 214 L 1198 214" stroke-miterlimit="10" stroke-dasharray=""/></g><g><path fill="#000000" stroke="none" paint-order="stroke fill markers" d=" M 1187.837325142376 218.209517756016 L 1198 214 L 1187.837325142376 209.790482243984"/></g><g><path fill="none" stroke="#000000" paint-order="fill stroke markers" d=" M 1187.837325142376 218.209517756016 L 1198 214 L 1187.837325142376 209.790482243984 L 1187.837325142376 218.209517756016" stroke-miterlimit="10" stroke-dasharray=""/></g><g><path fill="#C0C0C0" stroke="none" paint-order="stroke fill markers" d=" M 1529 213 C 1529 204.16344320000002 1536.1634432 197 1545 197 C 1553.8365568 197 1561 204.16344320000002 1561 213 C 1561 221.83655679999998 1553.8365568 229 1545 229 C 1536.1634432 229 1529 221.83655679999998 1529 213 Z" fill-opacity="0.2"/></g><g><path fill="#ffffff" stroke="none" paint-order="stroke fill markers" d=" M 1522 206 C 1522 197.16344320000002 1529.1634432 190 1538 190 C 1546.8365568 190 1554 197.16344320000002 1554 206 C 1554 214.83655679999998 1546.8365568 222 1538 222 C 1529.1634432 222 1522 214.83655679999998 1522 206 Z"/></g><g><path fill="none" stroke="#000000" paint-order="fill stroke markers" d=" M 1522 206 C 1522 197.16344320000002 1529.1634432 190 1538 190 C 1546.8365568 190 1554 197.16344320000002 1554 206 C 1554 214.83655679999998 1546.8365568 222 1538 222 C 1529.1634432 222 1522 214.83655679999998 1522 206 Z" stroke-miterlimit="10" stroke-width="3" stroke-dasharray=""/></g><g><rect fill="#ffffff" stroke="none" x="1524.44921875" y="296" width="151.1015625" height="16" transform="matrix(1 0 0 1 -62 -62)"/></g><g><g><path fill="none" stroke="none"/><text fill="#000000" stroke="none" font-family="Arial" font-size="16px" font-style="normal" font-weight="normal" text-decoration="undefined" x="1600" y="304" text-anchor="middle" dominant-baseline="central" transform="matrix(1 0 0 1 -62 -62)">Выбор КД завершон</text></g></g><g><path fill="none" stroke="#000000" paint-order="fill stroke markers" d=" M 1378 224 L 1530 224 L 1530 224 A 8 8 0 0 0 1538 216 L 1538 222" stroke-miterlimit="10" stroke-dasharray=""/></g><g><path fill="#000000" stroke="none" paint-order="stroke fill markers" d=" M 1542.2095177560159 232.16267485762415 L 1538 222 L 1533.7904822439841 232.16267485762415"/></g><g><path fill="none" stroke="#000000" paint-order="fill stroke markers" d=" M 1542.2095177560159 232.16267485762415 L 1538 222 L 1533.7904822439841 232.16267485762415 L 1542.2095177560159 232.16267485762415" stroke-miterlimit="10" stroke-dasharray=""/></g><g><path fill="none" stroke="#000000" paint-order="fill stroke markers" d=" M 691 642 L 691 838" stroke-miterlimit="10" stroke-dasharray=""/></g><g><path fill="#000000" stroke="none" paint-order="stroke fill markers" d=" M 686.790482243984 827.8373251423759 L 691 838 L 695.209517756016 827.8373251423759"/></g><g><path fill="none" stroke="#000000" paint-order="fill stroke markers" d=" M 686.790482243984 827.8373251423759 L 691 838 L 695.209517756016 827.8373251423759 L 686.790482243984 827.8373251423759" stroke-miterlimit="10" stroke-dasharray=""/></g></g></svg>