<svg version="1.1" xmlns="http://www.w3.org/2000/svg" xmlns:xlink="http://www.w3.org/1999/xlink" width="460.3310546875" height="317"><defs/><g><g><rect fill="#ffffff" stroke="none" x="448" y="56" width="223.5" height="33" transform="matrix(1 0 0 1 -422 -30)"/></g><g><path fill="#ffffff" stroke="none" paint-order="stroke fill markers" d=" M 249.5 26 A 16.5 16.5 0 0 1 249.5 59"/></g><g><path fill="none" stroke="#000000" paint-order="fill stroke markers" d=" M 26 26 L 26 59" stroke-miterlimit="10" stroke-dasharray=""/></g><g><path fill="none" stroke="#000000" paint-order="fill stroke markers" d=" M 26 26 L 249.5 26" stroke-miterlimit="10" stroke-dasharray=""/></g><g><path fill="none" stroke="#000000" paint-order="fill stroke markers" d=" M 26 59 L 249.5 59" stroke-miterlimit="10" stroke-dasharray=""/></g><g><path fill="none" stroke="#000000" paint-order="fill stroke markers" d=" M 249.5 26 A 16.5 16.5 0 0 1 249.5 59" stroke-miterlimit="10" stroke-dasharray=""/></g><g><g><path fill="none" stroke="none"/><text fill="#000000" stroke="none" font-family="Arial" font-size="13px" font-style="normal" font-weight="normal" text-decoration="undefined" x="548" y="72.5" text-anchor="middle" dominant-baseline="central" transform="matrix(1 0 0 1 -422 -30)">GET /accounts/me</text></g></g><g><path fill="#ffffff" stroke="#000000" paint-order="fill stroke markers" d=" M 330 39.5 L 350 10 L 430.3310546875 10 Q 450.3310546875 10 450.3310546875 39.5 Q 450.3310546875 69 430.3310546875 69 L 350 69 L 330 39.5 Z" stroke-miterlimit="10" stroke-dasharray=""/></g><g><g><path fill="none" stroke="none"/><text fill="#000000" stroke="none" font-family="Arial" font-size="13px" font-style="normal" font-weight="normal" text-decoration="undefined" x="812.16552734375" y="56.5" text-anchor="middle" dominant-baseline="central" transform="matrix(1 0 0 1 -422 -30)">Заголовки</text><text fill="#000000" stroke="none" font-family="Arial" font-size="13px" font-style="normal" font-weight="normal" text-decoration="undefined" x="812.16552734375" y="69.5" text-anchor="middle" dominant-baseline="central" transform="matrix(1 0 0 1 -422 -30)">запроса</text><text fill="#000000" stroke="none" font-family="Arial" font-size="13px" font-style="normal" font-weight="normal" text-decoration="undefined" x="812.16552734375" y="82.5" text-anchor="middle" dominant-baseline="central" transform="matrix(1 0 0 1 -422 -30)">(Авторизирован)</text></g></g><g><path fill="#ffffff" stroke="none" paint-order="stroke fill markers" d=" M 52 114 L 266 114 L 224 147 L 10 147 L 52 114"/></g><g><path fill="none" stroke="#000000" paint-order="fill stroke markers" d=" M 52 114 L 266 114 L 224 147 L 10 147 L 52 114 L 52 114" stroke-miterlimit="10" stroke-dasharray=""/></g><g><g><path fill="none" stroke="none"/><text fill="#000000" stroke="none" font-family="Arial" font-size="13px" font-style="normal" font-weight="normal" text-decoration="undefined" x="560" y="160.5" text-anchor="middle" dominant-baseline="central" transform="matrix(1 0 0 1 -422 -30)">Request</text></g></g><g><rect fill="#ffffff" stroke="none" x="432" y="216" width="264" height="40" transform="matrix(1 0 0 1 -422 -30)"/></g><g><path fill="none" stroke="#000000" paint-order="fill stroke markers" d=" M 10 186 L 274 186 L 274 226 L 10 226 L 10 186 Z Z" stroke-miterlimit="10" stroke-dasharray=""/></g><g><g><path fill="none" stroke="none"/><text fill="#000000" stroke="none" font-family="Arial" font-size="13px" font-style="normal" font-weight="normal" text-decoration="undefined" x="564" y="232.5" text-anchor="middle" dominant-baseline="central" transform="matrix(1 0 0 1 -422 -30)">Извлечь информацию об юзере</text></g></g><g><path fill="#ffffff" stroke="none" paint-order="stroke fill markers" d=" M 54 274 L 274 274 L 230 307 L 10 307 L 54 274"/></g><g><path fill="none" stroke="#000000" paint-order="fill stroke markers" d=" M 54 274 L 274 274 L 230 307 L 10 307 L 54 274 L 54 274" stroke-miterlimit="10" stroke-dasharray=""/></g><g><g><path fill="none" stroke="none"/><text fill="#000000" stroke="none" font-family="Arial" font-size="13px" font-style="normal" font-weight="normal" text-decoration="undefined" x="564" y="320.5" text-anchor="middle" dominant-baseline="central" transform="matrix(1 0 0 1 -422 -30)">GetAccountMeResponse</text></g></g><g><path fill="none" stroke="#000000" paint-order="fill stroke markers" d=" M 144 59 L 144 114" stroke-miterlimit="10" stroke-dasharray=""/></g><g><path fill="#000000" stroke="none" paint-order="stroke fill markers" d=" M 139.790482243984 103.83732514237585 L 144 114 L 148.209517756016 103.83732514237585"/></g><g><path fill="none" stroke="#000000" paint-order="fill stroke markers" d=" M 139.790482243984 103.83732514237585 L 144 114 L 148.209517756016 103.83732514237585 L 139.790482243984 103.83732514237585" stroke-miterlimit="10" stroke-dasharray=""/></g><g><path fill="none" stroke="#000000" paint-order="fill stroke markers" d=" M 330 69 L 330 106 L 330 106 A 8 8 0 0 1 322 114 L 266 114" stroke-miterlimit="10" stroke-dasharray=""/></g><g><path fill="#000000" stroke="none" paint-order="stroke fill markers" d=" M 276.1626748576241 109.790482243984 L 266 114 L 276.1626748576241 118.209517756016"/></g><g><path fill="none" stroke="#000000" paint-order="fill stroke markers" d=" M 276.1626748576241 109.790482243984 L 266 114 L 276.1626748576241 118.209517756016 L 276.1626748576241 109.790482243984" stroke-miterlimit="10" stroke-dasharray=""/></g><g><path fill="none" stroke="#000000" paint-order="fill stroke markers" d=" M 139 147 L 139 186" stroke-miterlimit="10" stroke-dasharray=""/></g><g><path fill="#000000" stroke="none" paint-order="stroke fill markers" d=" M 134.790482243984 175.83732514237585 L 139 186 L 143.209517756016 175.83732514237585"/></g><g><path fill="none" stroke="#000000" paint-order="fill stroke markers" d=" M 134.790482243984 175.83732514237585 L 139 186 L 143.209517756016 175.83732514237585 L 134.790482243984 175.83732514237585" stroke-miterlimit="10" stroke-dasharray=""/></g><g><path fill="none" stroke="#000000" paint-order="fill stroke markers" d=" M 142 226 L 142 274" stroke-miterlimit="10" stroke-dasharray=""/></g><g><path fill="#000000" stroke="none" paint-order="stroke fill markers" d=" M 137.790482243984 263.83732514237585 L 142 274 L 146.209517756016 263.83732514237585"/></g><g><path fill="none" stroke="#000000" paint-order="fill stroke markers" d=" M 137.790482243984 263.83732514237585 L 142 274 L 146.209517756016 263.83732514237585 L 137.790482243984 263.83732514237585" stroke-miterlimit="10" stroke-dasharray=""/></g></g></svg>