<svg version="1.1" xmlns="http://www.w3.org/2000/svg" xmlns:xlink="http://www.w3.org/1999/xlink" width="506" height="229"><defs/><g><g><path fill="#ffffff" stroke="none" paint-order="stroke fill markers" d=" M 62.89046875 127.85 C 62.89046875 122.96227952000001 66.84827111799999 119 71.73046875 119 C 76.61266638200001 119 80.57046875 122.96227952000001 80.57046875 127.85 C 80.57046875 132.73772047999998 76.61266638200001 136.7 71.73046875 136.7 C 66.84827111799999 136.7 62.89046875 132.73772047999998 62.89046875 127.85 Z"/></g><g><path fill="none" stroke="#000000" paint-order="fill stroke markers" d=" M 62.89046875 127.85 C 62.89046875 122.96227952000001 66.84827111799999 119 71.73046875 119 C 76.61266638200001 119 80.57046875 122.96227952000001 80.57046875 127.85 C 80.57046875 132.73772047999998 76.61266638200001 136.7 71.73046875 136.7 C 66.84827111799999 136.7 62.89046875 132.73772047999998 62.89046875 127.85 Z" stroke-miterlimit="10" stroke-dasharray=""/></g><g><path fill="none" stroke="#000000" paint-order="fill stroke markers" d=" M 71.73046875 136.7 L 71.73046875 154.3" stroke-miterlimit="10" stroke-dasharray=""/></g><g><path fill="none" stroke="#000000" paint-order="fill stroke markers" d=" M 62.370468749999986 143.3 L 81.09046875000001 143.3" stroke-miterlimit="10" stroke-dasharray=""/></g><g><path fill="none" stroke="#000000" paint-order="fill stroke markers" d=" M 71.73046875 154.3 L 58.73046875 172" stroke-miterlimit="10" stroke-dasharray=""/></g><g><path fill="none" stroke="#000000" paint-order="fill stroke markers" d=" M 71.73046875 154.3 L 84.73046875 172" stroke-miterlimit="10" stroke-dasharray=""/></g><g><g><path fill="none" stroke="none"/><text fill="#000000" stroke="none" font-family="Arial" font-size="16px" font-style="normal" font-weight="bold" text-decoration="undefined" x="170.23046875" y="268" text-anchor="middle" dominant-baseline="central" transform="matrix(1 0 0 1 -98 -80)">Пользователь</text></g></g><g><g><path fill="none" stroke="none"/><text fill="#000000" stroke="none" font-family="Arial" font-size="16px" font-style="normal" font-weight="normal" text-decoration="undefined" x="170.23046875" y="286" text-anchor="middle" dominant-baseline="central" transform="matrix(1 0 0 1 -98 -80)">(from Actors)</text></g></g><g><path fill="#C0C0C0" stroke="none" paint-order="stroke fill markers" d=" M 197 49.5 C 197 31.550743999999995 271.0968656 17 362.5 17 C 453.9031344 17 528 31.550743999999995 528 49.5 C 528 67.44925599999999 453.9031344 82 362.5 82 C 271.0968656 82 197 67.44925599999999 197 49.5 Z" fill-opacity="0.2"/></g><g><path fill="#A3FFD1" stroke="none" paint-order="stroke fill markers" d=" M 190 42.5 C 190 24.550743999999995 264.0968656 10 355.5 10 C 446.9031344 10 521 24.550743999999995 521 42.5 C 521 60.44925599999999 446.9031344 75 355.5 75 C 264.0968656 75 190 60.44925599999999 190 42.5 Z"/></g><g><path fill="none" stroke="#000000" paint-order="fill stroke markers" d=" M 190 42.5 C 190 24.550743999999995 264.0968656 10 355.5 10 C 446.9031344 10 521 24.550743999999995 521 42.5 C 521 60.44925599999999 446.9031344 75 355.5 75 C 264.0968656 75 190 60.44925599999999 190 42.5 Z" stroke-miterlimit="10" stroke-dasharray=""/></g><g><g><path fill="none" stroke="none"/><text fill="#000000" stroke="none" font-family="Arial" font-size="16px" font-style="normal" font-weight="bold" text-decoration="undefined" x="453.5" y="114.5" text-anchor="middle" dominant-baseline="central" transform="matrix(1 0 0 1 -98 -80)">Загрузить файл</text></g></g><g><g><path fill="none" stroke="none"/><text fill="#000000" stroke="none" font-family="Arial" font-size="16px" font-style="normal" font-weight="normal" text-decoration="undefined" x="453.5" y="132.5" text-anchor="middle" dominant-baseline="central" transform="matrix(1 0 0 1 -98 -80)">(from PUC: Загрузчик файлов)</text></g></g><g><path fill="none" stroke="#000000" paint-order="fill stroke markers" d=" M 134 140 L 278 76" stroke-miterlimit="10" stroke-dasharray=""/></g></g></svg>