<svg version="1.1" xmlns="http://www.w3.org/2000/svg" xmlns:xlink="http://www.w3.org/1999/xlink" width="793.484375" height="1190"><defs/><g><g><rect fill="#ffffff" stroke="none" x="342" y="72" width="334" height="52" transform="matrix(1 0 0 1 -134 -44)"/></g><g><path fill="#ffffff" stroke="none" paint-order="stroke fill markers" d=" M 542 28 A 26 26 0 0 1 542 80"/></g><g><path fill="none" stroke="#000000" paint-order="fill stroke markers" d=" M 208 28 L 208 80" stroke-miterlimit="10" stroke-dasharray=""/></g><g><path fill="none" stroke="#000000" paint-order="fill stroke markers" d=" M 208 28 L 542 28" stroke-miterlimit="10" stroke-dasharray=""/></g><g><path fill="none" stroke="#000000" paint-order="fill stroke markers" d=" M 208 80 L 542 80" stroke-miterlimit="10" stroke-dasharray=""/></g><g><path fill="none" stroke="#000000" paint-order="fill stroke markers" d=" M 542 28 A 26 26 0 0 1 542 80" stroke-miterlimit="10" stroke-dasharray=""/></g><g><g><path fill="none" stroke="none"/><text fill="#000000" stroke="none" font-family="Arial" font-size="16px" font-style="normal" font-weight="normal" text-decoration="undefined" x="487" y="90" text-anchor="middle" dominant-baseline="central" transform="matrix(1 0 0 1 -134 -44)">POST /wallet/cards/transactions</text></g></g><g><path fill="#ffffff" stroke="none" paint-order="stroke fill markers" d=" M 247 136 L 622 136 L 547 172 L 172 172 L 247 136"/></g><g><path fill="none" stroke="#000000" paint-order="fill stroke markers" d=" M 247 136 L 622 136 L 547 172 L 172 172 L 247 136 L 247 136" stroke-miterlimit="10" stroke-dasharray=""/></g><g><g><path fill="none" stroke="none"/><text fill="#000000" stroke="none" font-family="Arial" font-size="16px" font-style="normal" font-weight="normal" text-decoration="undefined" x="531" y="198" text-anchor="middle" dominant-baseline="central" transform="matrix(1 0 0 1 -134 -44)">PostWalletCardTransactionsRequest</text></g></g><g><path fill="#ffffff" stroke="none" paint-order="stroke fill markers" d=" M 181 1144 L 586 1144 L 505 1180 L 100 1180 L 181 1144"/></g><g><path fill="none" stroke="#000000" paint-order="fill stroke markers" d=" M 181 1144 L 586 1144 L 505 1180 L 100 1180 L 181 1144 L 181 1144" stroke-miterlimit="10" stroke-dasharray=""/></g><g><g><path fill="none" stroke="none"/><text fill="#000000" stroke="none" font-family="Arial" font-size="16px" font-style="normal" font-weight="normal" text-decoration="undefined" x="477" y="1206" text-anchor="middle" dominant-baseline="central" transform="matrix(1 0 0 1 -134 -44)">PostWalletCardTransactionsResponse</text></g></g><g><path fill="#ffffff" stroke="#000000" paint-order="fill stroke markers" d=" M 640 44 L 663 10 L 760.484375 10 Q 783.484375 10 783.484375 44 Q 783.484375 78 760.484375 78 L 663 78 L 640 44 Z" stroke-miterlimit="10" stroke-dasharray=""/></g><g><g><path fill="none" stroke="none"/><text fill="#000000" stroke="none" font-family="Arial" font-size="16px" font-style="normal" font-weight="normal" text-decoration="undefined" x="845.7421875" y="72" text-anchor="middle" dominant-baseline="central" transform="matrix(1 0 0 1 -134 -44)">Заголовки</text><text fill="#000000" stroke="none" font-family="Arial" font-size="16px" font-style="normal" font-weight="normal" text-decoration="undefined" x="845.7421875" y="88" text-anchor="middle" dominant-baseline="central" transform="matrix(1 0 0 1 -134 -44)">запроса</text><text fill="#000000" stroke="none" font-family="Arial" font-size="16px" font-style="normal" font-weight="normal" text-decoration="undefined" x="845.7421875" y="104" text-anchor="middle" dominant-baseline="central" transform="matrix(1 0 0 1 -134 -44)">(Авторизирован)</text></g></g><g><path fill="#ffffff" stroke="none" paint-order="stroke fill markers" d=" M 244 226 L 532 226 Q 550 226 550 244 L 550 244 Q 550 262 532 262 L 244 262 Q 226 262 226 244 L 226 244 Q 226 226 244 226 Z"/></g><g><path fill="none" stroke="#000000" paint-order="fill stroke markers" d=" M 244 226 L 532 226 Q 550 226 550 244 L 550 244 Q 550 262 532 262 L 244 262 Q 226 262 226 244 L 226 244 Q 226 226 244 226 Z" stroke-miterlimit="10" stroke-dasharray=""/></g><g><g><path fill="none" stroke="none"/><text fill="#000000" stroke="none" font-family="Arial" font-size="16px" font-style="normal" font-weight="normal" text-decoration="undefined" x="522" y="288" text-anchor="middle" dominant-baseline="central" transform="matrix(1 0 0 1 -134 -44)">Есть указанное количество коинов</text></g></g><g><path fill="#ffffff" stroke="none" paint-order="stroke fill markers" d=" M 262 298 L 514 298 Q 532 298 532 316 L 532 316 Q 532 334 514 334 L 262 334 Q 244 334 244 316 L 244 316 Q 244 298 262 298 Z"/></g><g><path fill="none" stroke="#000000" paint-order="fill stroke markers" d=" M 262 298 L 514 298 Q 532 298 532 316 L 532 316 Q 532 334 514 334 L 262 334 Q 244 334 244 316 L 244 316 Q 244 298 262 298 Z" stroke-miterlimit="10" stroke-dasharray=""/></g><g><g><path fill="none" stroke="none"/><text fill="#000000" stroke="none" font-family="Arial" font-size="16px" font-style="normal" font-weight="normal" text-decoration="undefined" x="522" y="360" text-anchor="middle" dominant-baseline="central" transform="matrix(1 0 0 1 -134 -44)">Есть привязанная карта</text></g></g><g><path fill="none" stroke="#000000" paint-order="fill stroke markers" d=" M 404 80 L 404 136" stroke-miterlimit="10" stroke-dasharray=""/></g><g><path fill="#000000" stroke="none" paint-order="stroke fill markers" d=" M 399.790482243984 125.83732514237585 L 404 136 L 408.209517756016 125.83732514237585"/></g><g><path fill="none" stroke="#000000" paint-order="fill stroke markers" d=" M 399.790482243984 125.83732514237585 L 404 136 L 408.209517756016 125.83732514237585 L 399.790482243984 125.83732514237585" stroke-miterlimit="10" stroke-dasharray=""/></g><g><path fill="none" stroke="#000000" paint-order="fill stroke markers" d=" M 640 78 L 640 128 L 640 128 A 8 8 0 0 1 632 136 L 622 136" stroke-miterlimit="10" stroke-dasharray=""/></g><g><path fill="#000000" stroke="none" paint-order="stroke fill markers" d=" M 632.1626748576241 131.790482243984 L 622 136 L 632.1626748576241 140.209517756016"/></g><g><path fill="none" stroke="#000000" paint-order="fill stroke markers" d=" M 632.1626748576241 131.790482243984 L 622 136 L 632.1626748576241 140.209517756016 L 632.1626748576241 131.790482243984" stroke-miterlimit="10" stroke-dasharray=""/></g><g><path fill="none" stroke="#000000" paint-order="fill stroke markers" d=" M 395 172 L 395 226" stroke-miterlimit="10" stroke-dasharray=""/></g><g><path fill="#000000" stroke="none" paint-order="stroke fill markers" d=" M 390.790482243984 215.83732514237585 L 395 226 L 399.209517756016 215.83732514237585"/></g><g><path fill="none" stroke="#000000" paint-order="fill stroke markers" d=" M 390.790482243984 215.83732514237585 L 395 226 L 399.209517756016 215.83732514237585 L 390.790482243984 215.83732514237585" stroke-miterlimit="10" stroke-dasharray=""/></g><g><path fill="none" stroke="#000000" paint-order="fill stroke markers" d=" M 388 262 L 388 298" stroke-miterlimit="10" stroke-dasharray=""/></g><g><path fill="#000000" stroke="none" paint-order="stroke fill markers" d=" M 383.790482243984 287.83732514237585 L 388 298 L 392.209517756016 287.83732514237585"/></g><g><path fill="none" stroke="#000000" paint-order="fill stroke markers" d=" M 383.790482243984 287.83732514237585 L 388 298 L 392.209517756016 287.83732514237585 L 383.790482243984 287.83732514237585" stroke-miterlimit="10" stroke-dasharray=""/></g><g><rect fill="#ffffff" stroke="none" x="450" y="396" width="162" height="100" transform="matrix(1 0 0 1 -134 -44)"/></g><g><path fill="none" stroke="#000000" paint-order="fill stroke markers" d=" M 316 352 L 478 352 L 478 452 L 316 452 L 316 352 Z Z" stroke-miterlimit="10" stroke-dasharray=""/></g><g><g><path fill="none" stroke="none"/><text fill="#000000" stroke="none" font-family="Arial" font-size="16px" font-style="normal" font-weight="normal" text-decoration="undefined" x="531" y="414" text-anchor="middle" dominant-baseline="central" transform="matrix(1 0 0 1 -134 -44)">Извлекаем</text><text fill="#000000" stroke="none" font-family="Arial" font-size="16px" font-style="normal" font-weight="normal" text-decoration="undefined" x="531" y="430" text-anchor="middle" dominant-baseline="central" transform="matrix(1 0 0 1 -134 -44)">информацию об</text><text fill="#000000" stroke="none" font-family="Arial" font-size="16px" font-style="normal" font-weight="normal" text-decoration="undefined" x="531" y="446" text-anchor="middle" dominant-baseline="central" transform="matrix(1 0 0 1 -134 -44)">платёжной</text><text fill="#000000" stroke="none" font-family="Arial" font-size="16px" font-style="normal" font-weight="normal" text-decoration="undefined" x="531" y="462" text-anchor="middle" dominant-baseline="central" transform="matrix(1 0 0 1 -134 -44)">системе к которой</text><text fill="#000000" stroke="none" font-family="Arial" font-size="16px" font-style="normal" font-weight="normal" text-decoration="undefined" x="531" y="478" text-anchor="middle" dominant-baseline="central" transform="matrix(1 0 0 1 -134 -44)">привязана карта</text></g></g><g><path fill="#ffffff" stroke="none" paint-order="stroke fill markers" d=" M 208 528 L 379 496 L 550 528 L 379 560 L 208 528"/></g><g><path fill="none" stroke="#000000" paint-order="fill stroke markers" d=" M 208 528 L 379 496 L 550 528 L 379 560 L 208 528 L 208 528" stroke-miterlimit="10" stroke-dasharray=""/></g><g><g><path fill="none" stroke="none"/><text fill="#000000" stroke="none" font-family="Arial" font-size="16px" font-style="normal" font-weight="normal" text-decoration="undefined" x="513" y="564" text-anchor="middle" dominant-baseline="central" transform="matrix(1 0 0 1 -134 -44)">Тип платёжной</text><text fill="#000000" stroke="none" font-family="Arial" font-size="16px" font-style="normal" font-weight="normal" text-decoration="undefined" x="513" y="580" text-anchor="middle" dominant-baseline="central" transform="matrix(1 0 0 1 -134 -44)">системы </text></g></g><g><rect fill="#ffffff" stroke="none" x="666" y="828" width="216" height="72" transform="matrix(1 0 0 1 -134 -44)"/></g><g><path fill="none" stroke="#000000" paint-order="fill stroke markers" d=" M 532 784 L 748 784 L 748 856 L 532 856 L 532 784 Z Z" stroke-miterlimit="10" stroke-dasharray=""/></g><g><g><path fill="none" stroke="none"/><text fill="#000000" stroke="none" font-family="Arial" font-size="16px" font-style="normal" font-weight="normal" text-decoration="undefined" x="774" y="846" text-anchor="middle" dominant-baseline="central" transform="matrix(1 0 0 1 -134 -44)">Создание Payout на</text><text fill="#000000" stroke="none" font-family="Arial" font-size="16px" font-style="normal" font-weight="normal" text-decoration="undefined" x="774" y="862" text-anchor="middle" dominant-baseline="central" transform="matrix(1 0 0 1 -134 -44)">привязанную карту</text></g></g><g><rect fill="#ffffff" stroke="none" x="144" y="666" width="212.9609375" height="84" transform="matrix(1 0 0 1 -134 -44)"/></g><g><path fill="none" stroke="#000000" paint-order="fill stroke markers" d=" M 10 622 L 222.9609375 622 L 222.9609375 706 L 10 706 L 10 622 Z Z" stroke-miterlimit="10" stroke-dasharray=""/></g><g><g><path fill="none" stroke="none"/><text fill="#000000" stroke="none" font-family="Arial" font-size="16px" font-style="normal" font-weight="normal" text-decoration="undefined" x="250.48046875" y="684" text-anchor="middle" dominant-baseline="central" transform="matrix(1 0 0 1 -134 -44)">Извлекаем</text><text fill="#000000" stroke="none" font-family="Arial" font-size="16px" font-style="normal" font-weight="normal" text-decoration="undefined" x="250.48046875" y="700" text-anchor="middle" dominant-baseline="central" transform="matrix(1 0 0 1 -134 -44)">PaymentSystemUserToken</text><text fill="#000000" stroke="none" font-family="Arial" font-size="16px" font-style="normal" font-weight="normal" text-decoration="undefined" x="250.48046875" y="716" text-anchor="middle" dominant-baseline="central" transform="matrix(1 0 0 1 -134 -44)">для LiqPay</text></g></g><g><rect fill="#ffffff" stroke="none" x="666" y="666" width="212.9609375" height="68" transform="matrix(1 0 0 1 -134 -44)"/></g><g><path fill="none" stroke="#000000" paint-order="fill stroke markers" d=" M 532 622 L 744.9609375 622 L 744.9609375 690 L 532 690 L 532 622 Z Z" stroke-miterlimit="10" stroke-dasharray=""/></g><g><g><path fill="none" stroke="none"/><text fill="#000000" stroke="none" font-family="Arial" font-size="16px" font-style="normal" font-weight="normal" text-decoration="undefined" x="772.48046875" y="684" text-anchor="middle" dominant-baseline="central" transform="matrix(1 0 0 1 -134 -44)">Извлекаем</text><text fill="#000000" stroke="none" font-family="Arial" font-size="16px" font-style="normal" font-weight="normal" text-decoration="undefined" x="772.48046875" y="700" text-anchor="middle" dominant-baseline="central" transform="matrix(1 0 0 1 -134 -44)">PaymentSystemUserToken</text><text fill="#000000" stroke="none" font-family="Arial" font-size="16px" font-style="normal" font-weight="normal" text-decoration="undefined" x="772.48046875" y="716" text-anchor="middle" dominant-baseline="central" transform="matrix(1 0 0 1 -134 -44)">и Customer для Stirpe</text></g></g><g><rect fill="#ffffff" stroke="none" x="198" y="828" width="92.1640625" height="68" transform="matrix(1 0 0 1 -134 -44)"/></g><g><path fill="none" stroke="#000000" paint-order="fill stroke markers" d=" M 64 784 L 156.1640625 784 L 156.1640625 852 L 64 852 L 64 784 Z Z" stroke-miterlimit="10" stroke-dasharray=""/></g><g><g><path fill="none" stroke="none"/><text fill="#000000" stroke="none" font-family="Arial" font-size="16px" font-style="normal" font-weight="normal" text-decoration="undefined" x="244.08203125" y="846" text-anchor="middle" dominant-baseline="central" transform="matrix(1 0 0 1 -134 -44)">Создание</text><text fill="#000000" stroke="none" font-family="Arial" font-size="16px" font-style="normal" font-weight="normal" text-decoration="undefined" x="244.08203125" y="862" text-anchor="middle" dominant-baseline="central" transform="matrix(1 0 0 1 -134 -44)">выплаты</text><text fill="#000000" stroke="none" font-family="Arial" font-size="16px" font-style="normal" font-weight="normal" text-decoration="undefined" x="244.08203125" y="878" text-anchor="middle" dominant-baseline="central" transform="matrix(1 0 0 1 -134 -44)">на карту</text></g></g><g><path fill="none" stroke="#000000" paint-order="fill stroke markers" d=" M 317 560 L 317 614 L 317 614 A 8 8 0 0 1 309 622 L 223 622" stroke-miterlimit="10" stroke-dasharray=""/></g><g><path fill="#000000" stroke="none" paint-order="stroke fill markers" d=" M 233.16267485762415 617.790482243984 L 223 622 L 233.16267485762415 626.209517756016"/></g><g><path fill="none" stroke="#000000" paint-order="fill stroke markers" d=" M 233.16267485762415 617.790482243984 L 223 622 L 233.16267485762415 626.209517756016 L 233.16267485762415 617.790482243984" stroke-miterlimit="10" stroke-dasharray=""/></g><g><path fill="none" stroke="#000000" paint-order="fill stroke markers" d=" M 390 452 L 390 496" stroke-miterlimit="10" stroke-dasharray=""/></g><g><path fill="#000000" stroke="none" paint-order="stroke fill markers" d=" M 385.790482243984 485.8373251423759 L 390 496 L 394.209517756016 485.8373251423759"/></g><g><path fill="none" stroke="#000000" paint-order="fill stroke markers" d=" M 385.790482243984 485.8373251423759 L 390 496 L 394.209517756016 485.8373251423759 L 385.790482243984 485.8373251423759" stroke-miterlimit="10" stroke-dasharray=""/></g><g><path fill="none" stroke="#000000" paint-order="fill stroke markers" d=" M 444 560 L 444 614 L 444 614 A 8 8 0 0 0 452 622 L 532 622" stroke-miterlimit="10" stroke-dasharray=""/></g><g><path fill="#000000" stroke="none" paint-order="stroke fill markers" d=" M 521.8373251423759 626.209517756016 L 532 622 L 521.8373251423758 617.790482243984"/></g><g><path fill="none" stroke="#000000" paint-order="fill stroke markers" d=" M 521.8373251423759 626.209517756016 L 532 622 L 521.8373251423758 617.790482243984 L 521.8373251423759 626.209517756016" stroke-miterlimit="10" stroke-dasharray=""/></g><g><path fill="none" stroke="#000000" paint-order="fill stroke markers" d=" M 638 690 L 638 784" stroke-miterlimit="10" stroke-dasharray=""/></g><g><path fill="#000000" stroke="none" paint-order="stroke fill markers" d=" M 633.790482243984 773.8373251423759 L 638 784 L 642.209517756016 773.8373251423759"/></g><g><path fill="none" stroke="#000000" paint-order="fill stroke markers" d=" M 633.790482243984 773.8373251423759 L 638 784 L 642.209517756016 773.8373251423759 L 633.790482243984 773.8373251423759" stroke-miterlimit="10" stroke-dasharray=""/></g><g><path fill="none" stroke="#000000" paint-order="fill stroke markers" d=" M 114 706 L 114 784" stroke-miterlimit="10" stroke-dasharray=""/></g><g><path fill="#000000" stroke="none" paint-order="stroke fill markers" d=" M 109.790482243984 773.8373251423759 L 114 784 L 118.209517756016 773.8373251423759"/></g><g><path fill="none" stroke="#000000" paint-order="fill stroke markers" d=" M 109.790482243984 773.8373251423759 L 114 784 L 118.209517756016 773.8373251423759 L 109.790482243984 773.8373251423759" stroke-miterlimit="10" stroke-dasharray=""/></g><g><rect fill="#ffffff" stroke="none" x="414" y="990" width="180" height="68" transform="matrix(1 0 0 1 -134 -44)"/></g><g><path fill="none" stroke="#000000" paint-order="fill stroke markers" d=" M 280 946 L 460 946 L 460 1014 L 280 1014 L 280 946 Z Z" stroke-miterlimit="10" stroke-dasharray=""/></g><g><g><path fill="none" stroke="none"/><text fill="#000000" stroke="none" font-family="Arial" font-size="16px" font-style="normal" font-weight="normal" text-decoration="undefined" x="504" y="1008" text-anchor="middle" dominant-baseline="central" transform="matrix(1 0 0 1 -134 -44)">Создание</text><text fill="#000000" stroke="none" font-family="Arial" font-size="16px" font-style="normal" font-weight="normal" text-decoration="undefined" x="504" y="1024" text-anchor="middle" dominant-baseline="central" transform="matrix(1 0 0 1 -134 -44)">транзакции в Базе</text><text fill="#000000" stroke="none" font-family="Arial" font-size="16px" font-style="normal" font-weight="normal" text-decoration="undefined" x="504" y="1040" text-anchor="middle" dominant-baseline="central" transform="matrix(1 0 0 1 -134 -44)">данных</text></g></g><g><path fill="none" stroke="#000000" paint-order="fill stroke markers" d=" M 156 852 L 156 938 L 156 938 A 8 8 0 0 0 164 946 L 280 946" stroke-miterlimit="10" stroke-dasharray=""/></g><g><path fill="#000000" stroke="none" paint-order="stroke fill markers" d=" M 269.83732514237585 950.209517756016 L 280 946 L 269.83732514237585 941.790482243984"/></g><g><path fill="none" stroke="#000000" paint-order="fill stroke markers" d=" M 269.83732514237585 950.209517756016 L 280 946 L 269.83732514237585 941.790482243984 L 269.83732514237585 950.209517756016" stroke-miterlimit="10" stroke-dasharray=""/></g><g><path fill="none" stroke="#000000" paint-order="fill stroke markers" d=" M 579 856 L 579 938 L 579 938 A 8 8 0 0 1 571 946 L 460 946" stroke-miterlimit="10" stroke-dasharray=""/></g><g><path fill="#000000" stroke="none" paint-order="stroke fill markers" d=" M 470.1626748576241 941.790482243984 L 460 946 L 470.1626748576241 950.209517756016"/></g><g><path fill="none" stroke="#000000" paint-order="fill stroke markers" d=" M 470.1626748576241 941.790482243984 L 460 946 L 470.1626748576241 950.209517756016 L 470.1626748576241 941.790482243984" stroke-miterlimit="10" stroke-dasharray=""/></g><g><path fill="none" stroke="#000000" paint-order="fill stroke markers" d=" M 365 1014 L 365 1144" stroke-miterlimit="10" stroke-dasharray=""/></g><g><path fill="#000000" stroke="none" paint-order="stroke fill markers" d=" M 360.790482243984 1133.837325142376 L 365 1144 L 369.209517756016 1133.837325142376"/></g><g><path fill="none" stroke="#000000" paint-order="fill stroke markers" d=" M 360.790482243984 1133.837325142376 L 365 1144 L 369.209517756016 1133.837325142376 L 360.790482243984 1133.837325142376" stroke-miterlimit="10" stroke-dasharray=""/></g><g><path fill="none" stroke="#000000" paint-order="fill stroke markers" d=" M 390 334 L 390 352" stroke-miterlimit="10" stroke-dasharray=""/></g><g><path fill="#000000" stroke="none" paint-order="stroke fill markers" d=" M 385.790482243984 341.83732514237585 L 390 352 L 394.209517756016 341.83732514237585"/></g><g><path fill="none" stroke="#000000" paint-order="fill stroke markers" d=" M 385.790482243984 341.83732514237585 L 390 352 L 394.209517756016 341.83732514237585 L 385.790482243984 341.83732514237585" stroke-miterlimit="10" stroke-dasharray=""/></g></g></svg>