<svg version="1.1" xmlns="http://www.w3.org/2000/svg" xmlns:xlink="http://www.w3.org/1999/xlink" width="793.484375" height="812"><defs/><g><g><rect fill="#ffffff" stroke="none" x="558" y="144" width="360" height="36" transform="matrix(1 0 0 1 -386 -116)"/></g><g><path fill="#ffffff" stroke="none" paint-order="stroke fill markers" d=" M 532 28 A 18 18 0 0 1 532 64"/></g><g><path fill="none" stroke="#000000" paint-order="fill stroke markers" d=" M 172 28 L 172 64" stroke-miterlimit="10" stroke-dasharray=""/></g><g><path fill="none" stroke="#000000" paint-order="fill stroke markers" d=" M 172 28 L 532 28" stroke-miterlimit="10" stroke-dasharray=""/></g><g><path fill="none" stroke="#000000" paint-order="fill stroke markers" d=" M 172 64 L 532 64" stroke-miterlimit="10" stroke-dasharray=""/></g><g><path fill="none" stroke="#000000" paint-order="fill stroke markers" d=" M 532 28 A 18 18 0 0 1 532 64" stroke-miterlimit="10" stroke-dasharray=""/></g><g><g><path fill="none" stroke="none"/><text fill="#000000" stroke="none" font-family="Arial" font-size="16px" font-style="normal" font-weight="normal" text-decoration="undefined" x="709.75" y="162" text-anchor="middle" dominant-baseline="central" transform="matrix(1 0 0 1 -386 -116)">POST /wallet/cards</text></g></g><g><path fill="#ffffff" stroke="none" paint-order="stroke fill markers" d=" M 238 118 L 568 118 L 502 154 L 172 154 L 238 118"/></g><g><path fill="none" stroke="#000000" paint-order="fill stroke markers" d=" M 238 118 L 568 118 L 502 154 L 172 154 L 238 118 L 238 118" stroke-miterlimit="10" stroke-dasharray=""/></g><g><g><path fill="none" stroke="none"/><text fill="#000000" stroke="none" font-family="Arial" font-size="16px" font-style="normal" font-weight="normal" text-decoration="undefined" x="756" y="252" text-anchor="middle" dominant-baseline="central" transform="matrix(1 0 0 1 -386 -116)">PostWalletCardsRequest</text></g></g><g><path fill="#ffffff" stroke="none" paint-order="stroke fill markers" d=" M 175 766 L 550 766 L 475 802 L 100 802 L 175 766"/></g><g><path fill="none" stroke="#000000" paint-order="fill stroke markers" d=" M 175 766 L 550 766 L 475 802 L 100 802 L 175 766 L 175 766" stroke-miterlimit="10" stroke-dasharray=""/></g><g><g><path fill="none" stroke="none"/><text fill="#000000" stroke="none" font-family="Arial" font-size="16px" font-style="normal" font-weight="normal" text-decoration="undefined" x="711" y="900" text-anchor="middle" dominant-baseline="central" transform="matrix(1 0 0 1 -386 -116)">CreatedResponse</text></g></g><g><path fill="#ffffff" stroke="#000000" paint-order="fill stroke markers" d=" M 640 44 L 663 10 L 760.484375 10 Q 783.484375 10 783.484375 44 Q 783.484375 78 760.484375 78 L 663 78 L 640 44 Z" stroke-miterlimit="10" stroke-dasharray=""/></g><g><g><path fill="none" stroke="none"/><text fill="#000000" stroke="none" font-family="Arial" font-size="16px" font-style="normal" font-weight="normal" text-decoration="undefined" x="1097.7421875" y="144" text-anchor="middle" dominant-baseline="central" transform="matrix(1 0 0 1 -386 -116)">Заголовки</text><text fill="#000000" stroke="none" font-family="Arial" font-size="16px" font-style="normal" font-weight="normal" text-decoration="undefined" x="1097.7421875" y="160" text-anchor="middle" dominant-baseline="central" transform="matrix(1 0 0 1 -386 -116)">запроса</text><text fill="#000000" stroke="none" font-family="Arial" font-size="16px" font-style="normal" font-weight="normal" text-decoration="undefined" x="1097.7421875" y="176" text-anchor="middle" dominant-baseline="central" transform="matrix(1 0 0 1 -386 -116)">(Авторизирован)</text></g></g><g><path fill="#ffffff" stroke="none" paint-order="stroke fill markers" d=" M 280 258 L 362.7109375 226 L 445.421875 258 L 362.7109375 290 L 280 258"/></g><g><path fill="none" stroke="#000000" paint-order="fill stroke markers" d=" M 280 258 L 362.7109375 226 L 445.421875 258 L 362.7109375 290 L 280 258 L 280 258" stroke-miterlimit="10" stroke-dasharray=""/></g><g><g><path fill="none" stroke="none"/><text fill="#000000" stroke="none" font-family="Arial" font-size="16px" font-style="normal" font-weight="normal" text-decoration="undefined" x="748.7109375" y="366" text-anchor="middle" dominant-baseline="central" transform="matrix(1 0 0 1 -386 -116)">Платёжная</text><text fill="#000000" stroke="none" font-family="Arial" font-size="16px" font-style="normal" font-weight="normal" text-decoration="undefined" x="748.7109375" y="382" text-anchor="middle" dominant-baseline="central" transform="matrix(1 0 0 1 -386 -116)">система</text></g></g><g><rect fill="#ffffff" stroke="none" x="900" y="432" width="212.9609375" height="68" transform="matrix(1 0 0 1 -386 -116)"/></g><g><path fill="none" stroke="#000000" paint-order="fill stroke markers" d=" M 514 316 L 726.9609375 316 L 726.9609375 384 L 514 384 L 514 316 Z Z" stroke-miterlimit="10" stroke-dasharray=""/></g><g><g><path fill="none" stroke="none"/><text fill="#000000" stroke="none" font-family="Arial" font-size="16px" font-style="normal" font-weight="normal" text-decoration="undefined" x="1006.48046875" y="450" text-anchor="middle" dominant-baseline="central" transform="matrix(1 0 0 1 -386 -116)">связать</text><text fill="#000000" stroke="none" font-family="Arial" font-size="16px" font-style="normal" font-weight="normal" text-decoration="undefined" x="1006.48046875" y="466" text-anchor="middle" dominant-baseline="central" transform="matrix(1 0 0 1 -386 -116)">PaymentSystemUserToken</text><text fill="#000000" stroke="none" font-family="Arial" font-size="16px" font-style="normal" font-weight="normal" text-decoration="undefined" x="1006.48046875" y="482" text-anchor="middle" dominant-baseline="central" transform="matrix(1 0 0 1 -386 -116)">с Customer с Stripe</text></g></g><g><rect fill="#ffffff" stroke="none" x="702" y="612" width="124.65625" height="116" transform="matrix(1 0 0 1 -386 -116)"/></g><g><path fill="none" stroke="#000000" paint-order="fill stroke markers" d=" M 316 496 L 440.65625 496 L 440.65625 612 L 316 612 L 316 496 Z Z" stroke-miterlimit="10" stroke-dasharray=""/></g><g><g><path fill="none" stroke="none"/><text fill="#000000" stroke="none" font-family="Arial" font-size="16px" font-style="normal" font-weight="normal" text-decoration="undefined" x="764.328125" y="638" text-anchor="middle" dominant-baseline="central" transform="matrix(1 0 0 1 -386 -116)">сохраняем</text><text fill="#000000" stroke="none" font-family="Arial" font-size="16px" font-style="normal" font-weight="normal" text-decoration="undefined" x="764.328125" y="654" text-anchor="middle" dominant-baseline="central" transform="matrix(1 0 0 1 -386 -116)">данные карты</text><text fill="#000000" stroke="none" font-family="Arial" font-size="16px" font-style="normal" font-weight="normal" text-decoration="undefined" x="764.328125" y="670" text-anchor="middle" dominant-baseline="central" transform="matrix(1 0 0 1 -386 -116)">в базу для</text><text fill="#000000" stroke="none" font-family="Arial" font-size="16px" font-style="normal" font-weight="normal" text-decoration="undefined" x="764.328125" y="686" text-anchor="middle" dominant-baseline="central" transform="matrix(1 0 0 1 -386 -116)">отображения</text><text fill="#000000" stroke="none" font-family="Arial" font-size="16px" font-style="normal" font-weight="normal" text-decoration="undefined" x="764.328125" y="702" text-anchor="middle" dominant-baseline="central" transform="matrix(1 0 0 1 -386 -116)">пользователю</text></g></g><g><rect fill="#ffffff" stroke="none" x="396" y="432" width="220.9609375" height="84" transform="matrix(1 0 0 1 -386 -116)"/></g><g><path fill="none" stroke="#000000" paint-order="fill stroke markers" d=" M 10 316 L 230.9609375 316 L 230.9609375 400 L 10 400 L 10 316 Z Z" stroke-miterlimit="10" stroke-dasharray=""/></g><g><g><path fill="none" stroke="none"/><text fill="#000000" stroke="none" font-family="Arial" font-size="16px" font-style="normal" font-weight="normal" text-decoration="undefined" x="506.48046875" y="450" text-anchor="middle" dominant-baseline="central" transform="matrix(1 0 0 1 -386 -116)">Связываем</text><text fill="#000000" stroke="none" font-family="Arial" font-size="16px" font-style="normal" font-weight="normal" text-decoration="undefined" x="506.48046875" y="466" text-anchor="middle" dominant-baseline="central" transform="matrix(1 0 0 1 -386 -116)">PaymentSystemUserToken</text><text fill="#000000" stroke="none" font-family="Arial" font-size="16px" font-style="normal" font-weight="normal" text-decoration="undefined" x="506.48046875" y="482" text-anchor="middle" dominant-baseline="central" transform="matrix(1 0 0 1 -386 -116)">с пользователем </text></g></g><g><path fill="none" stroke="#000000" paint-order="fill stroke markers" d=" M 445 290 L 445 308 L 445 308 A 8 8 0 0 0 453 316 L 514 316" stroke-miterlimit="10" stroke-dasharray=""/></g><g><path fill="#000000" stroke="none" paint-order="stroke fill markers" d=" M 503.8373251423759 320.209517756016 L 514 316 L 503.8373251423758 311.790482243984"/></g><g><path fill="none" stroke="#000000" paint-order="fill stroke markers" d=" M 503.8373251423759 320.209517756016 L 514 316 L 503.8373251423758 311.790482243984 L 503.8373251423759 320.209517756016" stroke-miterlimit="10" stroke-dasharray=""/></g><g><rect fill="#ffffff" stroke="none" x="811" y="409" width="41.796875" height="16" transform="matrix(1 0 0 1 -386 -116)"/></g><g><g><path fill="none" stroke="none"/><text fill="#000000" stroke="none" font-family="Arial" font-size="16px" font-style="normal" font-weight="normal" text-decoration="undefined" x="831.8984375" y="417" text-anchor="middle" dominant-baseline="central" transform="matrix(1 0 0 1 -386 -116)">Stripe</text></g></g><g><path fill="none" stroke="#000000" paint-order="fill stroke markers" d=" M 285 290 L 285 308 L 285 308 A 8 8 0 0 1 277 316 L 231 316" stroke-miterlimit="10" stroke-dasharray=""/></g><g><path fill="#000000" stroke="none" paint-order="stroke fill markers" d=" M 241.1626748576241 311.790482243984 L 231 316 L 241.1626748576241 320.209517756016"/></g><g><path fill="none" stroke="#000000" paint-order="fill stroke markers" d=" M 241.1626748576241 311.790482243984 L 231 316 L 241.1626748576241 320.209517756016 L 241.1626748576241 311.790482243984" stroke-miterlimit="10" stroke-dasharray=""/></g><g><rect fill="#ffffff" stroke="none" x="646" y="439" width="48.921875" height="16" transform="matrix(1 0 0 1 -386 -116)"/></g><g><g><path fill="none" stroke="none"/><text fill="#000000" stroke="none" font-family="Arial" font-size="16px" font-style="normal" font-weight="normal" text-decoration="undefined" x="670.4609375" y="447" text-anchor="middle" dominant-baseline="central" transform="matrix(1 0 0 1 -386 -116)">LiqPay</text></g></g><g><path fill="none" stroke="#000000" paint-order="fill stroke markers" d=" M 359 64 L 359 118" stroke-miterlimit="10" stroke-dasharray=""/></g><g><path fill="#000000" stroke="none" paint-order="stroke fill markers" d=" M 354.790482243984 107.83732514237585 L 359 118 L 363.209517756016 107.83732514237585"/></g><g><path fill="none" stroke="#000000" paint-order="fill stroke markers" d=" M 354.790482243984 107.83732514237585 L 359 118 L 363.209517756016 107.83732514237585 L 354.790482243984 107.83732514237585" stroke-miterlimit="10" stroke-dasharray=""/></g><g><path fill="none" stroke="#000000" paint-order="fill stroke markers" d=" M 640 78 L 640 128 L 640 128 A 8 8 0 0 1 632 136 L 568 136" stroke-miterlimit="10" stroke-dasharray=""/></g><g><path fill="#000000" stroke="none" paint-order="stroke fill markers" d=" M 578.1626748576241 131.790482243984 L 568 136 L 578.1626748576241 140.209517756016"/></g><g><path fill="none" stroke="#000000" paint-order="fill stroke markers" d=" M 578.1626748576241 131.790482243984 L 568 136 L 578.1626748576241 140.209517756016 L 578.1626748576241 131.790482243984" stroke-miterlimit="10" stroke-dasharray=""/></g><g><path fill="none" stroke="#000000" paint-order="fill stroke markers" d=" M 353 154 L 353 226" stroke-miterlimit="10" stroke-dasharray=""/></g><g><path fill="#000000" stroke="none" paint-order="stroke fill markers" d=" M 348.790482243984 215.83732514237585 L 353 226 L 357.209517756016 215.83732514237585"/></g><g><path fill="none" stroke="#000000" paint-order="fill stroke markers" d=" M 348.790482243984 215.83732514237585 L 353 226 L 357.209517756016 215.83732514237585 L 348.790482243984 215.83732514237585" stroke-miterlimit="10" stroke-dasharray=""/></g><g><path fill="none" stroke="#000000" paint-order="fill stroke markers" d=" M 175 400 L 175 499 L 175 499 A 8 8 0 0 0 183 507 L 316 507" stroke-miterlimit="10" stroke-dasharray=""/></g><g><path fill="#000000" stroke="none" paint-order="stroke fill markers" d=" M 305.8373251423759 511.209517756016 L 316 507 L 305.8373251423758 502.790482243984"/></g><g><path fill="none" stroke="#000000" paint-order="fill stroke markers" d=" M 305.8373251423759 511.209517756016 L 316 507 L 305.8373251423758 502.790482243984 L 305.8373251423759 511.209517756016" stroke-miterlimit="10" stroke-dasharray=""/></g><g><path fill="none" stroke="#000000" paint-order="fill stroke markers" d=" M 580 384 L 580 493 L 580 493 A 8 8 0 0 1 572 501 L 441 501" stroke-miterlimit="10" stroke-dasharray=""/></g><g><path fill="#000000" stroke="none" paint-order="stroke fill markers" d=" M 451.1626748576241 496.790482243984 L 441 501 L 451.1626748576241 505.209517756016"/></g><g><path fill="none" stroke="#000000" paint-order="fill stroke markers" d=" M 451.1626748576241 496.790482243984 L 441 501 L 451.1626748576241 505.209517756016 L 451.1626748576241 496.790482243984" stroke-miterlimit="10" stroke-dasharray=""/></g><g><path fill="none" stroke="#000000" paint-order="fill stroke markers" d=" M 365 612 L 365 766" stroke-miterlimit="10" stroke-dasharray=""/></g><g><path fill="#000000" stroke="none" paint-order="stroke fill markers" d=" M 360.790482243984 755.8373251423759 L 365 766 L 369.209517756016 755.8373251423759"/></g><g><path fill="none" stroke="#000000" paint-order="fill stroke markers" d=" M 360.790482243984 755.8373251423759 L 365 766 L 369.209517756016 755.8373251423759 L 360.790482243984 755.8373251423759" stroke-miterlimit="10" stroke-dasharray=""/></g></g></svg>