<svg version="1.1" xmlns="http://www.w3.org/2000/svg" xmlns:xlink="http://www.w3.org/1999/xlink" width="1150" height="666"><defs/><g><g><rect fill="#ffffff" stroke="none" x="20" y="38" width="342" height="36" transform="matrix(1 0 0 1 10 -10)"/></g><g><path fill="#ffffff" stroke="none" paint-order="stroke fill markers" d=" M 372 28 A 18 18 0 0 1 372 64"/></g><g><path fill="none" stroke="#000000" paint-order="fill stroke markers" d=" M 30 28 L 30 64" stroke-miterlimit="10" stroke-dasharray=""/></g><g><path fill="none" stroke="#000000" paint-order="fill stroke markers" d=" M 30 28 L 372 28" stroke-miterlimit="10" stroke-dasharray=""/></g><g><path fill="none" stroke="#000000" paint-order="fill stroke markers" d=" M 30 64 L 372 64" stroke-miterlimit="10" stroke-dasharray=""/></g><g><path fill="none" stroke="#000000" paint-order="fill stroke markers" d=" M 372 28 A 18 18 0 0 1 372 64" stroke-miterlimit="10" stroke-dasharray=""/></g><g><g><path fill="none" stroke="none"/><text fill="#000000" stroke="none" font-family="Arial" font-size="16px" font-style="normal" font-weight="normal" text-decoration="undefined" x="165" y="56" text-anchor="middle" dominant-baseline="central" transform="matrix(1 0 0 1 10 -10)">GET, PATCH, POST, DELETE</text></g></g><g><path fill="#ffffff" stroke="none" paint-order="stroke fill markers" d=" M 30 148 L 90 130 L 330 130 L 390 148 L 330 166 L 90 166 L 30 148"/></g><g><path fill="none" stroke="#000000" paint-order="fill stroke markers" d=" M 30 148 L 90 130 L 330 130 L 390 148 L 330 166 L 90 166 L 30 148 L 30 148" stroke-miterlimit="10" stroke-dasharray=""/></g><g><g><path fill="none" stroke="none"/><text fill="#000000" stroke="none" font-family="Arial" font-size="16px" font-style="normal" font-weight="normal" text-decoration="undefined" x="200" y="158" text-anchor="middle" dominant-baseline="central" transform="matrix(1 0 0 1 10 -10)">TRIGGER</text></g></g><g><path fill="#ffffff" stroke="none" paint-order="stroke fill markers" d=" M 30 214 L 390 214 L 390 255 L 210 268 L 30 255 L 30 214"/></g><g><path fill="none" stroke="#000000" paint-order="fill stroke markers" d=" M 30 214 L 390 214 L 390 255 L 210 268 L 30 255 L 30 214 L 30 214" stroke-miterlimit="10" stroke-dasharray=""/></g><g><g><path fill="none" stroke="none"/><text fill="#000000" stroke="none" font-family="Arial" font-size="16px" font-style="normal" font-weight="normal" text-decoration="undefined" x="200" y="244.5" text-anchor="middle" dominant-baseline="central" transform="matrix(1 0 0 1 10 -10)">TIME</text></g></g><g><path fill="#ffffff" stroke="none" paint-order="stroke fill markers" d=" M 90 307 L 390 307 L 330 343 L 30 343 L 90 307"/></g><g><path fill="none" stroke="#000000" paint-order="fill stroke markers" d=" M 90 307 L 390 307 L 330 343 L 30 343 L 90 307 L 90 307" stroke-miterlimit="10" stroke-dasharray=""/></g><g><g><path fill="none" stroke="none"/><text fill="#000000" stroke="none" font-family="Arial" font-size="16px" font-style="normal" font-weight="normal" text-decoration="undefined" x="200" y="335" text-anchor="middle" dominant-baseline="central" transform="matrix(1 0 0 1 10 -10)">MODEL</text></g></g><g><path fill="#ffffff" stroke="none" paint-order="stroke fill markers" d=" M 57 385 L 363 385 Q 390 385 390 412 L 390 412 Q 390 439 363 439 L 57 439 Q 30 439 30 412 L 30 412 Q 30 385 57 385 Z"/></g><g><path fill="none" stroke="#000000" paint-order="fill stroke markers" d=" M 57 385 L 363 385 Q 390 385 390 412 L 390 412 Q 390 439 363 439 L 57 439 Q 30 439 30 412 L 30 412 Q 30 385 57 385 Z" stroke-miterlimit="10" stroke-dasharray=""/></g><g><g><path fill="none" stroke="none"/><text fill="#000000" stroke="none" font-family="Arial" font-size="16px" font-style="normal" font-weight="normal" text-decoration="undefined" x="200" y="413" text-anchor="middle" dominant-baseline="central" transform="matrix(1 0 0 1 10 -10)">VALIDATION</text></g></g><g><rect fill="#ffffff" stroke="none" x="20" y="482" width="360" height="54" transform="matrix(1 0 0 1 10 -10)"/></g><g><path fill="none" stroke="#000000" paint-order="fill stroke markers" d=" M 30 472 L 390 472 L 390 526 L 30 526 L 30 472 Z Z" stroke-miterlimit="10" stroke-dasharray=""/></g><g><g><path fill="none" stroke="none"/><text fill="#000000" stroke="none" font-family="Arial" font-size="16px" font-style="normal" font-weight="normal" text-decoration="undefined" x="200" y="500" text-anchor="middle" dominant-baseline="central" transform="matrix(1 0 0 1 10 -10)">PROCESS</text></g></g><g><path fill="#ffffff" stroke="none" paint-order="stroke fill markers" d=" M 420 10 L 1129 10 L 1139 20 L 1139 81 L 420 81 L 420 10"/></g><g><path fill="none" stroke="#000000" paint-order="fill stroke markers" d=" M 420 10 L 1129 10 L 1139 20 L 1139 81 L 420 81 L 420 10 L 420 10" stroke-miterlimit="10" stroke-dasharray=""/></g><g><path fill="none" stroke="#000000" paint-order="fill stroke markers" d=" M 1129 10 L 1129 20 L 1139 20 L 1129 10" stroke-miterlimit="10" stroke-dasharray=""/></g><g><g><path fill="none" stroke="none"/><text fill="#000000" stroke="none" font-family="Arial" font-size="16px" font-style="normal" font-weight="normal" text-decoration="undefined" x="415" y="25" text-anchor="start" dominant-baseline="text-before-edge" transform="matrix(1 0 0 1 10 -10)">HTTP запрос на бэкенд. в нём описывается роут по которому происходит запрос, и метод</text><text fill="#000000" stroke="none" font-family="Arial" font-size="16px" font-style="normal" font-weight="normal" text-decoration="undefined" x="415" y="41" text-anchor="start" dominant-baseline="text-before-edge" transform="matrix(1 0 0 1 10 -10)">запроса. Диаграмно описывается какая бизнес логика у этого эндпоинта.</text></g></g><g><path fill="#ffffff" stroke="none" paint-order="stroke fill markers" d=" M 420 112 L 1129 112 L 1139 122 L 1139 183 L 420 183 L 420 112"/></g><g><path fill="none" stroke="#000000" paint-order="fill stroke markers" d=" M 420 112 L 1129 112 L 1139 122 L 1139 183 L 420 183 L 420 112 L 420 112" stroke-miterlimit="10" stroke-dasharray=""/></g><g><path fill="none" stroke="#000000" paint-order="fill stroke markers" d=" M 1129 112 L 1129 122 L 1139 122 L 1129 112" stroke-miterlimit="10" stroke-dasharray=""/></g><g><g><path fill="none" stroke="none"/><text fill="#000000" stroke="none" font-family="Arial" font-size="16px" font-style="normal" font-weight="normal" text-decoration="undefined" x="415" y="127" text-anchor="start" dominant-baseline="text-before-edge" transform="matrix(1 0 0 1 10 -10)">Триггер по которому может запуститься процесс обработки данных, в тех сущностях которые</text><text fill="#000000" stroke="none" font-family="Arial" font-size="16px" font-style="normal" font-weight="normal" text-decoration="undefined" x="415" y="143" text-anchor="start" dominant-baseline="text-before-edge" transform="matrix(1 0 0 1 10 -10)">подписаны на этот триггер. Диаграмно описывается какая бизнес логика у этого триггера.</text></g></g><g><path fill="#ffffff" stroke="none" paint-order="stroke fill markers" d=" M 420 214 L 1129 214 L 1139 224 L 1139 267 L 420 267 L 420 214"/></g><g><path fill="none" stroke="#000000" paint-order="fill stroke markers" d=" M 420 214 L 1129 214 L 1139 224 L 1139 267 L 420 267 L 420 214 L 420 214" stroke-miterlimit="10" stroke-dasharray=""/></g><g><path fill="none" stroke="#000000" paint-order="fill stroke markers" d=" M 1129 214 L 1129 224 L 1139 224 L 1129 214" stroke-miterlimit="10" stroke-dasharray=""/></g><g><g><path fill="none" stroke="none"/><text fill="#000000" stroke="none" font-family="Arial" font-size="16px" font-style="normal" font-weight="normal" text-decoration="undefined" x="415" y="229" text-anchor="start" dominant-baseline="text-before-edge" transform="matrix(1 0 0 1 10 -10)">Временной триггер. Описывает логику джобов которые запускаются по временным</text><text fill="#000000" stroke="none" font-family="Arial" font-size="16px" font-style="normal" font-weight="normal" text-decoration="undefined" x="415" y="245" text-anchor="start" dominant-baseline="text-before-edge" transform="matrix(1 0 0 1 10 -10)">промежуткам. Диаграмно описывается какая бизнес логика у этого временного триггера.</text></g></g><g><path fill="#ffffff" stroke="none" paint-order="stroke fill markers" d=" M 420 298 L 1129 298 L 1139 308 L 1139 351 L 420 351 L 420 298"/></g><g><path fill="none" stroke="#000000" paint-order="fill stroke markers" d=" M 420 298 L 1129 298 L 1139 308 L 1139 351 L 420 351 L 420 298 L 420 298" stroke-miterlimit="10" stroke-dasharray=""/></g><g><path fill="none" stroke="#000000" paint-order="fill stroke markers" d=" M 1129 298 L 1129 308 L 1139 308 L 1129 298" stroke-miterlimit="10" stroke-dasharray=""/></g><g><g><path fill="none" stroke="none"/><text fill="#000000" stroke="none" font-family="Arial" font-size="16px" font-style="normal" font-weight="normal" text-decoration="undefined" x="415" y="313" text-anchor="start" dominant-baseline="text-before-edge" transform="matrix(1 0 0 1 10 -10)">Описывает структуру данных которые передаются между сущностями, описание находится в</text><text fill="#000000" stroke="none" font-family="Arial" font-size="16px" font-style="normal" font-weight="normal" text-decoration="undefined" x="415" y="329" text-anchor="start" dominant-baseline="text-before-edge" transform="matrix(1 0 0 1 10 -10)">блоке Description в свойствах объекта. </text></g></g><g><path fill="#ffffff" stroke="none" paint-order="stroke fill markers" d=" M 420 382 L 1129 382 L 1139 392 L 1139 441 L 420 441 L 420 382"/></g><g><path fill="none" stroke="#000000" paint-order="fill stroke markers" d=" M 420 382 L 1129 382 L 1139 392 L 1139 441 L 420 441 L 420 382 L 420 382" stroke-miterlimit="10" stroke-dasharray=""/></g><g><path fill="none" stroke="#000000" paint-order="fill stroke markers" d=" M 1129 382 L 1129 392 L 1139 392 L 1129 382" stroke-miterlimit="10" stroke-dasharray=""/></g><g><g><path fill="none" stroke="none"/><text fill="#000000" stroke="none" font-family="Arial" font-size="16px" font-style="normal" font-weight="normal" text-decoration="undefined" x="415" y="397" text-anchor="start" dominant-baseline="text-before-edge" transform="matrix(1 0 0 1 10 -10)">Описывает логику валидации данных. Суть в следующем, если данные которые передаются в</text><text fill="#000000" stroke="none" font-family="Arial" font-size="16px" font-style="normal" font-weight="normal" text-decoration="undefined" x="415" y="413" text-anchor="start" dominant-baseline="text-before-edge" transform="matrix(1 0 0 1 10 -10)">этот блок валидны, то эти данные проходят дальше про цепочке, если нет то в этом месте</text><text fill="#000000" stroke="none" font-family="Arial" font-size="16px" font-style="normal" font-weight="normal" text-decoration="undefined" x="415" y="429" text-anchor="start" dominant-baseline="text-before-edge" transform="matrix(1 0 0 1 10 -10)">возникает исключение, и обработка данных прерывается.</text></g></g><g><path fill="#ffffff" stroke="none" paint-order="stroke fill markers" d=" M 420 472 L 1129 472 L 1139 482 L 1139 525 L 420 525 L 420 472"/></g><g><path fill="none" stroke="#000000" paint-order="fill stroke markers" d=" M 420 472 L 1129 472 L 1139 482 L 1139 525 L 420 525 L 420 472 L 420 472" stroke-miterlimit="10" stroke-dasharray=""/></g><g><path fill="none" stroke="#000000" paint-order="fill stroke markers" d=" M 1129 472 L 1129 482 L 1139 482 L 1129 472" stroke-miterlimit="10" stroke-dasharray=""/></g><g><g><path fill="none" stroke="none"/><text fill="#000000" stroke="none" font-family="Arial" font-size="16px" font-style="normal" font-weight="normal" text-decoration="undefined" x="415" y="487" text-anchor="start" dominant-baseline="text-before-edge" transform="matrix(1 0 0 1 10 -10)">Процесс обработки данных. Тут описывается логика, работы с данными и взаимодействие со</text><text fill="#000000" stroke="none" font-family="Arial" font-size="16px" font-style="normal" font-weight="normal" text-decoration="undefined" x="415" y="503" text-anchor="start" dominant-baseline="text-before-edge" transform="matrix(1 0 0 1 10 -10)">слоем хранения данных приложения.</text></g></g><g><path fill="none" stroke="#000000" paint-order="fill stroke markers" d=" M 391 46 Q 405 46 419 46" stroke-miterlimit="10" stroke-dasharray="3"/></g><g><path fill="none" stroke="#000000" paint-order="fill stroke markers" d=" M 391 148 Q 405 148 419 148" stroke-miterlimit="10" stroke-dasharray="3"/></g><g><path fill="none" stroke="#000000" paint-order="fill stroke markers" d=" M 391 241 Q 405 241 419 241" stroke-miterlimit="10" stroke-dasharray="3"/></g><g><path fill="none" stroke="#000000" paint-order="fill stroke markers" d=" M 391 325 Q 405 325 419 325" stroke-miterlimit="10" stroke-dasharray="3"/></g><g><path fill="none" stroke="#000000" paint-order="fill stroke markers" d=" M 391 412 Q 405 412 419 412" stroke-miterlimit="10" stroke-dasharray="3"/></g><g><path fill="none" stroke="#000000" paint-order="fill stroke markers" d=" M 391 499 Q 405 499 419 499" stroke-miterlimit="10" stroke-dasharray="3"/></g><g><path fill="#ffffff" stroke="none" paint-order="stroke fill markers" d=" M 31 602 L 136 602 L 115 638 L 10 638 L 31 602"/></g><g><path fill="none" stroke="#000000" paint-order="fill stroke markers" d=" M 31 602 L 136 602 L 115 638 L 10 638 L 31 602 L 31 602" stroke-miterlimit="10" stroke-dasharray=""/></g><g><g><path fill="none" stroke="none"/><text fill="#000000" stroke="none" font-family="Arial" font-size="16px" font-style="normal" font-weight="normal" text-decoration="undefined" x="63" y="630" text-anchor="middle" dominant-baseline="central" transform="matrix(1 0 0 1 10 -10)">Data1</text></g></g><g><path fill="#ffffff" stroke="none" paint-order="stroke fill markers" d=" M 268 602 L 388 602 L 364 638 L 244 638 L 268 602"/></g><g><path fill="none" stroke="#000000" paint-order="fill stroke markers" d=" M 268 602 L 388 602 L 364 638 L 244 638 L 268 602 L 268 602" stroke-miterlimit="10" stroke-dasharray=""/></g><g><g><path fill="none" stroke="none"/><text fill="#000000" stroke="none" font-family="Arial" font-size="16px" font-style="normal" font-weight="normal" text-decoration="undefined" x="306" y="630" text-anchor="middle" dominant-baseline="central" transform="matrix(1 0 0 1 10 -10)">Data2</text></g></g><g><path fill="none" stroke="#000000" paint-order="fill stroke markers" d=" M 136 620 L 244 620" stroke-miterlimit="10" stroke-dasharray=""/></g><g><path fill="#000000" stroke="none" paint-order="stroke fill markers" d=" M 233.83732514237585 624.209517756016 L 244 620 L 233.83732514237585 615.790482243984"/></g><g><path fill="none" stroke="#000000" paint-order="fill stroke markers" d=" M 233.83732514237585 624.209517756016 L 244 620 L 233.83732514237585 615.790482243984 L 233.83732514237585 624.209517756016" stroke-miterlimit="10" stroke-dasharray=""/></g><g><rect fill="#ffffff" stroke="none" x="155" y="607" width="51.578125" height="16" transform="matrix(1 0 0 1 10 -10)"/></g><g><g><path fill="none" stroke="none"/><text fill="#000000" stroke="none" font-family="Arial" font-size="16px" font-style="normal" font-weight="normal" text-decoration="undefined" x="180.7890625" y="615" text-anchor="middle" dominant-baseline="central" transform="matrix(1 0 0 1 10 -10)">inherits</text></g></g><g><path fill="#ffffff" stroke="none" paint-order="stroke fill markers" d=" M 424 584 L 1115 584 L 1125 594 L 1125 655 L 424 655 L 424 584"/></g><g><path fill="none" stroke="#000000" paint-order="fill stroke markers" d=" M 424 584 L 1115 584 L 1125 594 L 1125 655 L 424 655 L 424 584 L 424 584" stroke-miterlimit="10" stroke-dasharray=""/></g><g><path fill="none" stroke="#000000" paint-order="fill stroke markers" d=" M 1115 584 L 1115 594 L 1125 594 L 1115 584" stroke-miterlimit="10" stroke-dasharray=""/></g><g><g><path fill="none" stroke="none"/><text fill="#000000" stroke="none" font-family="Arial" font-size="16px" font-style="normal" font-weight="normal" text-decoration="undefined" x="419" y="599" text-anchor="start" dominant-baseline="text-before-edge" transform="matrix(1 0 0 1 10 -10)">Отображение связь наследования моделей. В этом отображении Data1 наследует поля</text><text fill="#000000" stroke="none" font-family="Arial" font-size="16px" font-style="normal" font-weight="normal" text-decoration="undefined" x="419" y="615" text-anchor="start" dominant-baseline="text-before-edge" transform="matrix(1 0 0 1 10 -10)">Data2</text></g></g><g><path fill="none" stroke="#000000" paint-order="fill stroke markers" d=" M 389 620 L 423 620" stroke-miterlimit="10" stroke-dasharray="3"/></g></g></svg>