<svg version="1.1" xmlns="http://www.w3.org/2000/svg" xmlns:xlink="http://www.w3.org/1999/xlink" width="775.484375" height="993"><defs/><g><g><rect fill="#ffffff" stroke="none" x="252" y="108" width="514" height="52" transform="matrix(1 0 0 1 -242 -80)"/></g><g><path fill="#ffffff" stroke="none" paint-order="stroke fill markers" d=" M 524 28 A 26 26 0 0 1 524 80"/></g><g><path fill="none" stroke="#000000" paint-order="fill stroke markers" d=" M 10 28 L 10 80" stroke-miterlimit="10" stroke-dasharray=""/></g><g><path fill="none" stroke="#000000" paint-order="fill stroke markers" d=" M 10 28 L 524 28" stroke-miterlimit="10" stroke-dasharray=""/></g><g><path fill="none" stroke="#000000" paint-order="fill stroke markers" d=" M 10 80 L 524 80" stroke-miterlimit="10" stroke-dasharray=""/></g><g><path fill="none" stroke="#000000" paint-order="fill stroke markers" d=" M 524 28 A 26 26 0 0 1 524 80" stroke-miterlimit="10" stroke-dasharray=""/></g><g><g><path fill="none" stroke="none"/><text fill="#000000" stroke="none" font-family="Arial" font-size="16px" font-style="normal" font-weight="normal" text-decoration="undefined" x="464.5" y="126" text-anchor="middle" dominant-baseline="central" transform="matrix(1 0 0 1 -242 -80)">POST</text><text fill="#000000" stroke="none" font-family="Arial" font-size="16px" font-style="normal" font-weight="normal" text-decoration="undefined" x="464.5" y="142" text-anchor="middle" dominant-baseline="central" transform="matrix(1 0 0 1 -242 -80)">/challenges/{challengeId}/invitations/{initationId}/accept</text></g></g><g><path fill="#ffffff" stroke="#000000" paint-order="fill stroke markers" d=" M 622 44 L 645 10 L 742.484375 10 Q 765.484375 10 765.484375 44 Q 765.484375 78 742.484375 78 L 645 78 L 622 44 Z" stroke-miterlimit="10" stroke-dasharray=""/></g><g><g><path fill="none" stroke="none"/><text fill="#000000" stroke="none" font-family="Arial" font-size="16px" font-style="normal" font-weight="normal" text-decoration="undefined" x="935.7421875" y="108" text-anchor="middle" dominant-baseline="central" transform="matrix(1 0 0 1 -242 -80)">Заголовки</text><text fill="#000000" stroke="none" font-family="Arial" font-size="16px" font-style="normal" font-weight="normal" text-decoration="undefined" x="935.7421875" y="124" text-anchor="middle" dominant-baseline="central" transform="matrix(1 0 0 1 -242 -80)">запроса</text><text fill="#000000" stroke="none" font-family="Arial" font-size="16px" font-style="normal" font-weight="normal" text-decoration="undefined" x="935.7421875" y="140" text-anchor="middle" dominant-baseline="central" transform="matrix(1 0 0 1 -242 -80)">(Авторизирован)</text></g></g><g><path fill="#ffffff" stroke="none" paint-order="stroke fill markers" d=" M 139 136 L 424 136 L 367 172 L 82 172 L 139 136"/></g><g><path fill="none" stroke="#000000" paint-order="fill stroke markers" d=" M 139 136 L 424 136 L 367 172 L 82 172 L 139 136 L 139 136" stroke-miterlimit="10" stroke-dasharray=""/></g><g><g><path fill="none" stroke="none"/><text fill="#000000" stroke="none" font-family="Arial" font-size="16px" font-style="normal" font-weight="normal" text-decoration="undefined" x="495" y="234" text-anchor="middle" dominant-baseline="central" transform="matrix(1 0 0 1 -242 -80)">ChallengeInitationAcceptRequest</text></g></g><g><path fill="#ffffff" stroke="none" paint-order="stroke fill markers" d=" M 82 358 L 235 262 L 388 358 L 235 454 L 82 358"/></g><g><path fill="none" stroke="#000000" paint-order="fill stroke markers" d=" M 82 358 L 235 262 L 388 358 L 235 454 L 82 358 L 82 358" stroke-miterlimit="10" stroke-dasharray=""/></g><g><g><path fill="none" stroke="none"/><text fill="#000000" stroke="none" font-family="Arial" font-size="16px" font-style="normal" font-weight="normal" text-decoration="undefined" x="477" y="398" text-anchor="middle" dominant-baseline="central" transform="matrix(1 0 0 1 -242 -80)">Пользователь НЕ</text><text fill="#000000" stroke="none" font-family="Arial" font-size="16px" font-style="normal" font-weight="normal" text-decoration="undefined" x="477" y="414" text-anchor="middle" dominant-baseline="central" transform="matrix(1 0 0 1 -242 -80)">является</text><text fill="#000000" stroke="none" font-family="Arial" font-size="16px" font-style="normal" font-weight="normal" text-decoration="undefined" x="477" y="430" text-anchor="middle" dominant-baseline="central" transform="matrix(1 0 0 1 -242 -80)">участником</text><text fill="#000000" stroke="none" font-family="Arial" font-size="16px" font-style="normal" font-weight="normal" text-decoration="undefined" x="477" y="446" text-anchor="middle" dominant-baseline="central" transform="matrix(1 0 0 1 -242 -80)">сообщества в</text><text fill="#000000" stroke="none" font-family="Arial" font-size="16px" font-style="normal" font-weight="normal" text-decoration="undefined" x="477" y="462" text-anchor="middle" dominant-baseline="central" transform="matrix(1 0 0 1 -242 -80)">котором находится</text><text fill="#000000" stroke="none" font-family="Arial" font-size="16px" font-style="normal" font-weight="normal" text-decoration="undefined" x="477" y="478" text-anchor="middle" dominant-baseline="central" transform="matrix(1 0 0 1 -242 -80)">челлендж </text></g></g><g><path fill="#ffffff" stroke="none" paint-order="stroke fill markers" d=" M 64 562 L 226 514 L 388 562 L 226 610 L 64 562"/></g><g><path fill="none" stroke="#000000" paint-order="fill stroke markers" d=" M 64 562 L 226 514 L 388 562 L 226 610 L 64 562 L 64 562" stroke-miterlimit="10" stroke-dasharray=""/></g><g><g><path fill="none" stroke="none"/><text fill="#000000" stroke="none" font-family="Arial" font-size="16px" font-style="normal" font-weight="normal" text-decoration="undefined" x="468" y="626" text-anchor="middle" dominant-baseline="central" transform="matrix(1 0 0 1 -242 -80)">Пользователь НЕ</text><text fill="#000000" stroke="none" font-family="Arial" font-size="16px" font-style="normal" font-weight="normal" text-decoration="undefined" x="468" y="642" text-anchor="middle" dominant-baseline="central" transform="matrix(1 0 0 1 -242 -80)">забанен в</text><text fill="#000000" stroke="none" font-family="Arial" font-size="16px" font-style="normal" font-weight="normal" text-decoration="undefined" x="468" y="658" text-anchor="middle" dominant-baseline="central" transform="matrix(1 0 0 1 -242 -80)">сообществе</text></g></g><g><path fill="#ffffff" stroke="none" paint-order="stroke fill markers" d=" M 64 726 L 217 694 L 370 726 L 217 758 L 64 726"/></g><g><path fill="none" stroke="#000000" paint-order="fill stroke markers" d=" M 64 726 L 217 694 L 370 726 L 217 758 L 64 726 L 64 726" stroke-miterlimit="10" stroke-dasharray=""/></g><g><g><path fill="none" stroke="none"/><text fill="#000000" stroke="none" font-family="Arial" font-size="16px" font-style="normal" font-weight="normal" text-decoration="undefined" x="459" y="798" text-anchor="middle" dominant-baseline="central" transform="matrix(1 0 0 1 -242 -80)">Сообщество</text><text fill="#000000" stroke="none" font-family="Arial" font-size="16px" font-style="normal" font-weight="normal" text-decoration="undefined" x="459" y="814" text-anchor="middle" dominant-baseline="central" transform="matrix(1 0 0 1 -242 -80)">является открытым</text></g></g><g><rect fill="#ffffff" stroke="none" x="360" y="918" width="216" height="52" transform="matrix(1 0 0 1 -242 -80)"/></g><g><path fill="none" stroke="#000000" paint-order="fill stroke markers" d=" M 118 838 L 334 838 L 334 890 L 118 890 L 118 838 Z Z" stroke-miterlimit="10" stroke-dasharray=""/></g><g><g><path fill="none" stroke="none"/><text fill="#000000" stroke="none" font-family="Arial" font-size="16px" font-style="normal" font-weight="normal" text-decoration="undefined" x="468" y="936" text-anchor="middle" dominant-baseline="central" transform="matrix(1 0 0 1 -242 -80)">Добавить пользователя в</text><text fill="#000000" stroke="none" font-family="Arial" font-size="16px" font-style="normal" font-weight="normal" text-decoration="undefined" x="468" y="952" text-anchor="middle" dominant-baseline="central" transform="matrix(1 0 0 1 -242 -80)">сообщество</text></g></g><g><path fill="none" stroke="#000000" paint-order="fill stroke markers" d=" M 239 454 L 239 514" stroke-miterlimit="10" stroke-dasharray=""/></g><g><path fill="#000000" stroke="none" paint-order="stroke fill markers" d=" M 234.790482243984 503.8373251423759 L 239 514 L 243.209517756016 503.8373251423759"/></g><g><path fill="none" stroke="#000000" paint-order="fill stroke markers" d=" M 234.790482243984 503.8373251423759 L 239 514 L 243.209517756016 503.8373251423759 L 234.790482243984 503.8373251423759" stroke-miterlimit="10" stroke-dasharray=""/></g><g><rect fill="#ffffff" stroke="none" x="484" y="555" width="22.46875" height="16" transform="matrix(1 0 0 1 -242 -80)"/></g><g><g><path fill="none" stroke="none"/><text fill="#000000" stroke="none" font-family="Arial" font-size="16px" font-style="normal" font-weight="normal" text-decoration="undefined" x="495.234375" y="563" text-anchor="middle" dominant-baseline="central" transform="matrix(1 0 0 1 -242 -80)">ДА</text></g></g><g><path fill="none" stroke="#000000" paint-order="fill stroke markers" d=" M 226 610 L 226 694" stroke-miterlimit="10" stroke-dasharray=""/></g><g><path fill="#000000" stroke="none" paint-order="stroke fill markers" d=" M 221.790482243984 683.8373251423759 L 226 694 L 230.209517756016 683.8373251423759"/></g><g><path fill="none" stroke="#000000" paint-order="fill stroke markers" d=" M 221.790482243984 683.8373251423759 L 226 694 L 230.209517756016 683.8373251423759 L 221.790482243984 683.8373251423759" stroke-miterlimit="10" stroke-dasharray=""/></g><g><rect fill="#ffffff" stroke="none" x="471" y="723" width="22.46875" height="16" transform="matrix(1 0 0 1 -242 -80)"/></g><g><g><path fill="none" stroke="none"/><text fill="#000000" stroke="none" font-family="Arial" font-size="16px" font-style="normal" font-weight="normal" text-decoration="undefined" x="482.234375" y="731" text-anchor="middle" dominant-baseline="central" transform="matrix(1 0 0 1 -242 -80)">ДА</text></g></g><g><path fill="none" stroke="#000000" paint-order="fill stroke markers" d=" M 226 758 L 226 838" stroke-miterlimit="10" stroke-dasharray=""/></g><g><path fill="#000000" stroke="none" paint-order="stroke fill markers" d=" M 221.790482243984 827.8373251423759 L 226 838 L 230.209517756016 827.8373251423759"/></g><g><path fill="none" stroke="#000000" paint-order="fill stroke markers" d=" M 221.790482243984 827.8373251423759 L 226 838 L 230.209517756016 827.8373251423759 L 221.790482243984 827.8373251423759" stroke-miterlimit="10" stroke-dasharray=""/></g><g><rect fill="#ffffff" stroke="none" x="471" y="869" width="22.46875" height="16" transform="matrix(1 0 0 1 -242 -80)"/></g><g><g><path fill="none" stroke="none"/><text fill="#000000" stroke="none" font-family="Arial" font-size="16px" font-style="normal" font-weight="normal" text-decoration="undefined" x="482.234375" y="877" text-anchor="middle" dominant-baseline="central" transform="matrix(1 0 0 1 -242 -80)">ДА</text></g></g><g><rect fill="#ffffff" stroke="none" x="702" y="918" width="216" height="36" transform="matrix(1 0 0 1 -242 -80)"/></g><g><path fill="none" stroke="#000000" paint-order="fill stroke markers" d=" M 460 838 L 676 838 L 676 874 L 460 874 L 460 838 Z Z" stroke-miterlimit="10" stroke-dasharray=""/></g><g><g><path fill="none" stroke="none"/><text fill="#000000" stroke="none" font-family="Arial" font-size="16px" font-style="normal" font-weight="normal" text-decoration="undefined" x="810" y="936" text-anchor="middle" dominant-baseline="central" transform="matrix(1 0 0 1 -242 -80)">Добавить в челлендж</text></g></g><g><path fill="none" stroke="#000000" paint-order="fill stroke markers" d=" M 388 400 L 524 400 L 524 400 A 8 8 0 0 1 532 408 L 532 838" stroke-miterlimit="10" stroke-dasharray=""/></g><g><path fill="#000000" stroke="none" paint-order="stroke fill markers" d=" M 527.790482243984 827.8373251423759 L 532 838 L 536.209517756016 827.8373251423759"/></g><g><path fill="none" stroke="#000000" paint-order="fill stroke markers" d=" M 527.790482243984 827.8373251423759 L 532 838 L 536.209517756016 827.8373251423759 L 527.790482243984 827.8373251423759" stroke-miterlimit="10" stroke-dasharray=""/></g><g><rect fill="#ffffff" stroke="none" x="773" y="471" width="32" height="16" transform="matrix(1 0 0 1 -242 -80)"/></g><g><g><path fill="none" stroke="none"/><text fill="#000000" stroke="none" font-family="Arial" font-size="16px" font-style="normal" font-weight="normal" text-decoration="undefined" x="789" y="479" text-anchor="middle" dominant-baseline="central" transform="matrix(1 0 0 1 -242 -80)">НЕТ</text></g></g><g><path fill="none" stroke="#000000" paint-order="fill stroke markers" d=" M 334 856 L 460 856" stroke-miterlimit="10" stroke-dasharray=""/></g><g><path fill="#000000" stroke="none" paint-order="stroke fill markers" d=" M 449.8373251423759 860.209517756016 L 460 856 L 449.8373251423758 851.790482243984"/></g><g><path fill="none" stroke="#000000" paint-order="fill stroke markers" d=" M 449.8373251423759 860.209517756016 L 460 856 L 449.8373251423758 851.790482243984 L 449.8373251423759 860.209517756016" stroke-miterlimit="10" stroke-dasharray=""/></g><g><path fill="#ffffff" stroke="none" paint-order="stroke fill markers" d=" M 121 946 L 406 946 L 349 982 L 64 982 L 121 946"/></g><g><path fill="none" stroke="#000000" paint-order="fill stroke markers" d=" M 121 946 L 406 946 L 349 982 L 64 982 L 121 946 L 121 946" stroke-miterlimit="10" stroke-dasharray=""/></g><g><g><path fill="none" stroke="none"/><text fill="#000000" stroke="none" font-family="Arial" font-size="16px" font-style="normal" font-weight="normal" text-decoration="undefined" x="477" y="1044" text-anchor="middle" dominant-baseline="central" transform="matrix(1 0 0 1 -242 -80)">NoBodyResponse</text></g></g><g><path fill="none" stroke="#000000" paint-order="fill stroke markers" d=" M 499 874 L 499 974 L 499 974 A 8 8 0 0 1 491 982 L 406 982" stroke-miterlimit="10" stroke-dasharray=""/></g><g><path fill="#000000" stroke="none" paint-order="stroke fill markers" d=" M 416.1626748576241 977.7904822439841 L 406 982 L 416.1626748576241 986.2095177560159"/></g><g><path fill="none" stroke="#000000" paint-order="fill stroke markers" d=" M 416.1626748576241 977.7904822439841 L 406 982 L 416.1626748576241 986.2095177560159 L 416.1626748576241 977.7904822439841" stroke-miterlimit="10" stroke-dasharray=""/></g><g><path fill="none" stroke="#000000" paint-order="fill stroke markers" d=" M 273 80 L 273 136" stroke-miterlimit="10" stroke-dasharray=""/></g><g><path fill="#000000" stroke="none" paint-order="stroke fill markers" d=" M 268.790482243984 125.83732514237585 L 273 136 L 277.209517756016 125.83732514237585"/></g><g><path fill="none" stroke="#000000" paint-order="fill stroke markers" d=" M 268.790482243984 125.83732514237585 L 273 136 L 277.209517756016 125.83732514237585 L 268.790482243984 125.83732514237585" stroke-miterlimit="10" stroke-dasharray=""/></g><g><path fill="none" stroke="#000000" paint-order="fill stroke markers" d=" M 622 78 L 622 128 L 622 128 A 8 8 0 0 1 614 136 L 424 136" stroke-miterlimit="10" stroke-dasharray=""/></g><g><path fill="#000000" stroke="none" paint-order="stroke fill markers" d=" M 434.1626748576241 131.790482243984 L 424 136 L 434.1626748576241 140.209517756016"/></g><g><path fill="none" stroke="#000000" paint-order="fill stroke markers" d=" M 434.1626748576241 131.790482243984 L 424 136 L 434.1626748576241 140.209517756016 L 434.1626748576241 131.790482243984" stroke-miterlimit="10" stroke-dasharray=""/></g><g><path fill="none" stroke="#000000" paint-order="fill stroke markers" d=" M 242 172 L 242 262" stroke-miterlimit="10" stroke-dasharray=""/></g><g><path fill="#000000" stroke="none" paint-order="stroke fill markers" d=" M 237.790482243984 251.83732514237585 L 242 262 L 246.209517756016 251.83732514237585"/></g><g><path fill="none" stroke="#000000" paint-order="fill stroke markers" d=" M 237.790482243984 251.83732514237585 L 242 262 L 246.209517756016 251.83732514237585 L 237.790482243984 251.83732514237585" stroke-miterlimit="10" stroke-dasharray=""/></g></g></svg>