<svg version="1.1" xmlns="http://www.w3.org/2000/svg" xmlns:xlink="http://www.w3.org/1999/xlink" width="667.484375" height="488"><defs/><g><g><rect fill="#ffffff" stroke="none" x="234" y="72" width="426.1015625" height="52" transform="matrix(1 0 0 1 -224 -62)"/></g><g><path fill="#ffffff" stroke="none" paint-order="stroke fill markers" d=" M 436.1015625 10 A 26 26 0 0 1 436.1015625 62"/></g><g><path fill="none" stroke="#000000" paint-order="fill stroke markers" d=" M 10 10 L 10 62" stroke-miterlimit="10" stroke-dasharray=""/></g><g><path fill="none" stroke="#000000" paint-order="fill stroke markers" d=" M 10 10 L 436.1015625 10" stroke-miterlimit="10" stroke-dasharray=""/></g><g><path fill="none" stroke="#000000" paint-order="fill stroke markers" d=" M 10 62 L 436.1015625 62" stroke-miterlimit="10" stroke-dasharray=""/></g><g><path fill="none" stroke="#000000" paint-order="fill stroke markers" d=" M 436.1015625 10 A 26 26 0 0 1 436.1015625 62" stroke-miterlimit="10" stroke-dasharray=""/></g><g><g><path fill="none" stroke="none"/><text fill="#000000" stroke="none" font-family="Arial" font-size="16px" font-style="normal" font-weight="normal" text-decoration="undefined" x="413.5380859375" y="90" text-anchor="middle" dominant-baseline="central" transform="matrix(1 0 0 1 -224 -62)">POST</text><text fill="#000000" stroke="none" font-family="Arial" font-size="16px" font-style="normal" font-weight="normal" text-decoration="undefined" x="413.5380859375" y="106" text-anchor="middle" dominant-baseline="central" transform="matrix(1 0 0 1 -224 -62)">/communities/{comunityId}/invites/{inviteId}/accept</text></g></g><g><path fill="#ffffff" stroke="#000000" paint-order="fill stroke markers" d=" M 514 44 L 537 10 L 634.484375 10 Q 657.484375 10 657.484375 44 Q 657.484375 78 634.484375 78 L 537 78 L 514 44 Z" stroke-miterlimit="10" stroke-dasharray=""/></g><g><g><path fill="none" stroke="none"/><text fill="#000000" stroke="none" font-family="Arial" font-size="16px" font-style="normal" font-weight="normal" text-decoration="undefined" x="809.7421875" y="90" text-anchor="middle" dominant-baseline="central" transform="matrix(1 0 0 1 -224 -62)">Заголовки</text><text fill="#000000" stroke="none" font-family="Arial" font-size="16px" font-style="normal" font-weight="normal" text-decoration="undefined" x="809.7421875" y="106" text-anchor="middle" dominant-baseline="central" transform="matrix(1 0 0 1 -224 -62)">запроса</text><text fill="#000000" stroke="none" font-family="Arial" font-size="16px" font-style="normal" font-weight="normal" text-decoration="undefined" x="809.7421875" y="122" text-anchor="middle" dominant-baseline="central" transform="matrix(1 0 0 1 -224 -62)">(Авторизирован)</text></g></g><g><path fill="#ffffff" stroke="none" paint-order="stroke fill markers" d=" M 103 118 L 388 118 L 331 154 L 46 154 L 103 118"/></g><g><path fill="none" stroke="#000000" paint-order="fill stroke markers" d=" M 103 118 L 388 118 L 331 154 L 46 154 L 103 118 L 103 118" stroke-miterlimit="10" stroke-dasharray=""/></g><g><g><path fill="none" stroke="none"/><text fill="#000000" stroke="none" font-family="Arial" font-size="16px" font-style="normal" font-weight="normal" text-decoration="undefined" x="441" y="198" text-anchor="middle" dominant-baseline="central" transform="matrix(1 0 0 1 -224 -62)">PostCommunitiesInviteAcceptRequest</text></g></g><g><path fill="#ffffff" stroke="none" paint-order="stroke fill markers" d=" M 46 208 L 411.3046875 208 Q 429.3046875 208 429.3046875 226 L 429.3046875 226 Q 429.3046875 244 411.3046875 244 L 46 244 Q 28 244 28 226 L 28 226 Q 28 208 46 208 Z"/></g><g><path fill="none" stroke="#000000" paint-order="fill stroke markers" d=" M 46 208 L 411.3046875 208 Q 429.3046875 208 429.3046875 226 L 429.3046875 226 Q 429.3046875 244 411.3046875 244 L 46 244 Q 28 244 28 226 L 28 226 Q 28 208 46 208 Z" stroke-miterlimit="10" stroke-dasharray=""/></g><g><g><path fill="none" stroke="none"/><text fill="#000000" stroke="none" font-family="Arial" font-size="16px" font-style="normal" font-weight="normal" text-decoration="undefined" x="452.65234375" y="288" text-anchor="middle" dominant-baseline="central" transform="matrix(1 0 0 1 -224 -62)">Пользователь не является участником сообщества</text></g></g><g><path fill="#ffffff" stroke="none" paint-order="stroke fill markers" d=" M 64 280 L 388.296875 280 Q 406.296875 280 406.296875 298 L 406.296875 298 Q 406.296875 316 388.296875 316 L 64 316 Q 46 316 46 298 L 46 298 Q 46 280 64 280 Z"/></g><g><path fill="none" stroke="#000000" paint-order="fill stroke markers" d=" M 64 280 L 388.296875 280 Q 406.296875 280 406.296875 298 L 406.296875 298 Q 406.296875 316 388.296875 316 L 64 316 Q 46 316 46 298 L 46 298 Q 46 280 64 280 Z" stroke-miterlimit="10" stroke-dasharray=""/></g><g><g><path fill="none" stroke="none"/><text fill="#000000" stroke="none" font-family="Arial" font-size="16px" font-style="normal" font-weight="normal" text-decoration="undefined" x="450.1484375" y="360" text-anchor="middle" dominant-baseline="central" transform="matrix(1 0 0 1 -224 -62)">Пользователь не заблокирован в сообществе</text></g></g><g><path fill="none" stroke="#000000" paint-order="fill stroke markers" d=" M 215 244 L 215 280" stroke-miterlimit="10" stroke-dasharray=""/></g><g><path fill="#000000" stroke="none" paint-order="stroke fill markers" d=" M 210.790482243984 269.83732514237585 L 215 280 L 219.209517756016 269.83732514237585"/></g><g><path fill="none" stroke="#000000" paint-order="fill stroke markers" d=" M 210.790482243984 269.83732514237585 L 215 280 L 219.209517756016 269.83732514237585 L 210.790482243984 269.83732514237585" stroke-miterlimit="10" stroke-dasharray=""/></g><g><rect fill="#ffffff" stroke="none" x="252" y="414" width="378" height="36" transform="matrix(1 0 0 1 -224 -62)"/></g><g><path fill="none" stroke="#000000" paint-order="fill stroke markers" d=" M 28 352 L 406 352 L 406 388 L 28 388 L 28 352 Z Z" stroke-miterlimit="10" stroke-dasharray=""/></g><g><g><path fill="none" stroke="none"/><text fill="#000000" stroke="none" font-family="Arial" font-size="16px" font-style="normal" font-weight="normal" text-decoration="undefined" x="441" y="432" text-anchor="middle" dominant-baseline="central" transform="matrix(1 0 0 1 -224 -62)">Добавить пользователя в сообщество</text></g></g><g><path fill="#ffffff" stroke="none" paint-order="stroke fill markers" d=" M 76 442 L 406 442 L 340 478 L 10 478 L 76 442"/></g><g><path fill="none" stroke="#000000" paint-order="fill stroke markers" d=" M 76 442 L 406 442 L 340 478 L 10 478 L 76 442 L 76 442" stroke-miterlimit="10" stroke-dasharray=""/></g><g><g><path fill="none" stroke="none"/><text fill="#000000" stroke="none" font-family="Arial" font-size="16px" font-style="normal" font-weight="normal" text-decoration="undefined" x="432" y="522" text-anchor="middle" dominant-baseline="central" transform="matrix(1 0 0 1 -224 -62)">NoBodyResponse</text></g></g><g><path fill="none" stroke="#000000" paint-order="fill stroke markers" d=" M 240 62 L 240 118" stroke-miterlimit="10" stroke-dasharray=""/></g><g><path fill="#000000" stroke="none" paint-order="stroke fill markers" d=" M 235.790482243984 107.83732514237585 L 240 118 L 244.209517756016 107.83732514237585"/></g><g><path fill="none" stroke="#000000" paint-order="fill stroke markers" d=" M 235.790482243984 107.83732514237585 L 240 118 L 244.209517756016 107.83732514237585 L 235.790482243984 107.83732514237585" stroke-miterlimit="10" stroke-dasharray=""/></g><g><path fill="none" stroke="#000000" paint-order="fill stroke markers" d=" M 514 78 L 514 110 L 514 110 A 8 8 0 0 1 506 118 L 388 118" stroke-miterlimit="10" stroke-dasharray=""/></g><g><path fill="#000000" stroke="none" paint-order="stroke fill markers" d=" M 398.1626748576241 113.790482243984 L 388 118 L 398.1626748576241 122.209517756016"/></g><g><path fill="none" stroke="#000000" paint-order="fill stroke markers" d=" M 398.1626748576241 113.790482243984 L 388 118 L 398.1626748576241 122.209517756016 L 398.1626748576241 113.790482243984" stroke-miterlimit="10" stroke-dasharray=""/></g><g><path fill="none" stroke="#000000" paint-order="fill stroke markers" d=" M 208 154 L 208 208" stroke-miterlimit="10" stroke-dasharray=""/></g><g><path fill="#000000" stroke="none" paint-order="stroke fill markers" d=" M 203.790482243984 197.83732514237585 L 208 208 L 212.209517756016 197.83732514237585"/></g><g><path fill="none" stroke="#000000" paint-order="fill stroke markers" d=" M 203.790482243984 197.83732514237585 L 208 208 L 212.209517756016 197.83732514237585 L 203.790482243984 197.83732514237585" stroke-miterlimit="10" stroke-dasharray=""/></g><g><path fill="none" stroke="#000000" paint-order="fill stroke markers" d=" M 228 316 L 228 352" stroke-miterlimit="10" stroke-dasharray=""/></g><g><path fill="#000000" stroke="none" paint-order="stroke fill markers" d=" M 223.790482243984 341.83732514237585 L 228 352 L 232.209517756016 341.83732514237585"/></g><g><path fill="none" stroke="#000000" paint-order="fill stroke markers" d=" M 223.790482243984 341.83732514237585 L 228 352 L 232.209517756016 341.83732514237585 L 223.790482243984 341.83732514237585" stroke-miterlimit="10" stroke-dasharray=""/></g><g><path fill="none" stroke="#000000" paint-order="fill stroke markers" d=" M 237 388 L 237 442" stroke-miterlimit="10" stroke-dasharray=""/></g><g><path fill="#000000" stroke="none" paint-order="stroke fill markers" d=" M 232.790482243984 431.83732514237585 L 237 442 L 241.209517756016 431.83732514237585"/></g><g><path fill="none" stroke="#000000" paint-order="fill stroke markers" d=" M 232.790482243984 431.83732514237585 L 237 442 L 241.209517756016 431.83732514237585 L 232.790482243984 431.83732514237585" stroke-miterlimit="10" stroke-dasharray=""/></g></g></svg>